/* XPM */
static char * tool_edit_trans_xpm[] = {
"25 25 207 2",
"  	c None",
". 	c #23BB1B",
"+ 	c #24BB1B",
"@ 	c #24BC1C",
"# 	c #24BB1C",
"$ 	c #24BC1B",
"% 	c #23BC1B",
"& 	c #23BC1C",
"* 	c #23BB1C",
"= 	c #24BA1C",
"- 	c #195818",
"; 	c #194317",
"> 	c #1A4519",
", 	c #1A4F18",
"' 	c #1B561A",
") 	c #1B571B",
"! 	c #276726",
"~ 	c #429D3E",
"{ 	c #1E7D1A",
"] 	c #171918",
"^ 	c #191B1A",
"/ 	c #1B1D1C",
"( 	c #1D1E1E",
"_ 	c #1E201F",
": 	c #3C403D",
"< 	c #E3E3E3",
"[ 	c #B1C2B1",
"} 	c #25AB1E",
"| 	c #1B211B",
"1 	c #1A1C1B",
"2 	c #1D1F1E",
"3 	c #1F2120",
"4 	c #202221",
"5 	c #222423",
"6 	c #464646",
"7 	c #496C47",
"8 	c #27BC20",
"9 	c #245123",
"0 	c #575757",
"a 	c #909090",
"b 	c #2D2D2D",
"c 	c #202020",
"d 	c #212322",
"e 	c #232524",
"f 	c #242625",
"g 	c #272928",
"h 	c #282A29",
"i 	c #235223",
"j 	c #2CAD26",
"k 	c #BAB9BA",
"l 	c #FDFDFD",
"m 	c #E9E9E9",
"n 	c #949293",
"o 	c #404040",
"p 	c #252726",
"q 	c #2A2C2B",
"r 	c #2C2E2D",
"s 	c #2F3130",
"t 	c #2C372D",
"u 	c #298E24",
"v 	c #7AA67A",
"w 	c #7AB179",
"x 	c #30A12B",
"y 	c #3E8E3A",
"z 	c #9F9E9D",
"A 	c #5A5859",
"B 	c #292A29",
"C 	c #323433",
"D 	c #363837",
"E 	c #363937",
"F 	c #30602F",
"G 	c #23B41C",
"H 	c #379A31",
"I 	c #A4A7A2",
"J 	c #7B7879",
"K 	c #2E302F",
"L 	c #303231",
"M 	c #393A3C",
"N 	c #3C3D3F",
"O 	c #404143",
"P 	c #344A36",
"Q 	c #259320",
"R 	c #2CA226",
"S 	c #A3A89F",
"T 	c #9C9A9B",
"U 	c #393A39",
"V 	c #353736",
"W 	c #383A39",
"X 	c #3B3C3E",
"Y 	c #3E3F41",
"Z 	c #414244",
"` 	c #444547",
" .	c #414243",
"..	c #2B6C2A",
"+.	c #28B521",
"@.	c #29A723",
"#.	c #99A695",
"$.	c #BEBABB",
"%.	c #494A4A",
"&.	c #3A3C3B",
"*.	c #3D3E40",
"=.	c #3F4042",
"-.	c #424345",
";.	c #464749",
">.	c #354D35",
",.	c #299A24",
"'.	c #25AC1E",
").	c #8DA689",
"!.	c #DAD4D6",
"~.	c #5B5F5C",
"{.	c #3E403F",
"].	c #404242",
"^.	c #454648",
"/.	c #464748",
"(.	c #3F4141",
"_.	c #287426",
":.	c #24B81C",
"<.	c #238F1E",
"[.	c #277124",
"}.	c #2AB623",
"|.	c #72A06D",
"1.	c #E9E7E8",
"2.	c #787978",
"3.	c #404142",
"4.	c #414344",
"5.	c #434446",
"6.	c #434445",
"7.	c #414242",
"8.	c #2E4E2E",
"9.	c #2B5B2A",
"0.	c #373A38",
"a.	c #2C552B",
"b.	c #25BA1D",
"c.	c #69A065",
"d.	c #EDEFED",
"e.	c #939593",
"f.	c #414442",
"g.	c #3A3B3D",
"h.	c #393B3A",
"i.	c #2C392E",
"j.	c #5AA158",
"k.	c #E8E9E9",
"l.	c #B1B2B1",
"m.	c #464647",
"n.	c #404241",
"o.	c #3F4140",
"p.	c #3E3F3F",
"q.	c #3C3E3E",
"r.	c #3B3D3C",
"s.	c #393B3B",
"t.	c #373938",
"u.	c #23B21C",
"v.	c #4AA545",
"w.	c #DBE1DB",
"x.	c #CCCCCC",
"y.	c #4F5050",
"z.	c #3E3F3E",
"A.	c #3C3E3D",
"B.	c #343635",
"C.	c #209F1A",
"D.	c #37A931",
"E.	c #C2CBC1",
"F.	c #7C7C7C",
"G.	c #3F3F3F",
"H.	c #3E3E3E",
"I.	c #363737",
"J.	c #228B1D",
"K.	c #29BA21",
"L.	c #267A22",
"M.	c #393F39",
"N.	c #3C3D3D",
"O.	c #3A3B3B",
"P.	c #393A3A",
"Q.	c #373838",
"R.	c #363736",
"S.	c #287B24",
"T.	c #33992E",
"U.	c #C1C1C1",
"V.	c #B7B7B7",
"W.	c #ADADAD",
"X.	c #A2A2A2",
"Y.	c #979797",
"Z.	c #8C8C8C",
"`.	c #818181",
" +	c #767676",
".+	c #6C6C6C",
"++	c #606060",
"@+	c #545555",
"#+	c #2C6D2A",
"$+	c #3FAA3A",
"%+	c #FAF9F9",
"&+	c #FAFAFA",
"*+	c #FDFCFC",
"=+	c #57B153",
"-+	c #24B51D",
";+	c #28AB22",
">+	c #29A524",
",+	c #3CB836",
"'+	c #3BAD35",
")+	c #52A84D",
"!+	c #54A850",
"~+	c #67AF64",
"{+	c #6CAF69",
"]+	c #81BA7F",
"^+	c #83B980",
"/+	c #9CC19B",
"(+	c #31A62C",
". . . . . + . + . . . . . . @ # @ @ @ @ @ @ @ @ @ ",
"@ @ $ $ @ @ $ @ $ % % % % $ @ @ @ @ @ @ @ @ @ @ @ ",
"$ + $ . $ $ + $ . . . . . . @ @ @ @ @ @ @ @ @ @ @ ",
"& # * * * @ # @ . . * . * . @ @ @ @ @ @ @ @ @ @ @ ",
". . . . . + . + . . . . . . @ # @ # # # @ # @ # @ ",
"& = - ; > , ' ) ! ~ . . . . @ @ @ @ @ @ @ @ @ @ @ ",
". { ] ^ / ( _ : < [ . . . . @ @ @ @ @ @ @ @ @ @ @ ",
"} | 1 / 2 3 4 5 6 7 8 % % % @ @ @ @ @ @ @ @ @ @ @ ",
"9 0 a b c d e f g h i j % % @ @ @ @ @ @ @ @ @ @ @ ",
"k l m n o e p g q r s t u + @ @ @ @ @ @ @ @ @ @ @ ",
"v w x y z A B q r s C D E F G @ @ @ @ @ @ @ @ @ @ ",
"# % % % H I J K L C D M N O P Q # @ @ @ @ @ @ @ @ ",
"& @ & & & R S T U V W X Y Z `  ...+.@ @ @ @ @ @ @ ",
"& @ & & & @ @.#.$.%.&.*.=.-.` ;.;.>.,.@ @ @ @ @ @ ",
"* # * * * # * '.).!.~.{.].-.^.;.;./.(._.:.@ <.[.@ ",
"* # # * * # * # }.|.1.2.3.4.5.` ` ` 6.7.8.9.0.a.@ ",
"* @ & * & @ * @ . b.c.d.e.f.Z -.Z Z O Y X g.h.i.# ",
"& @ & & & @ & @ . % * j.k.l.m.7.n.o.p.q.r.s.t.s u.",
"* # * * * # * # . . * @ v.w.x.y.o.p.z.A.r.h.t.B.C.",
"* # # * * # * # . . . . * D.E.F.G.G.H.r.&.W D I.J.",
"& # & * & @ * @ . . . . K.L.M.G.G.G.H.N.O.P.Q.R.S.",
"& @ & & @ @ & @ % % . . T.U.V.W.X.Y.Z.`. +.+++@+#+",
"* # * * * # * # . . * . $+%+&+l *+l l l l l l l =+",
"* # # * * # * # . . . . -+;+>+,+'+)+!+~+{+]+^+/+(+",
"& # & * & @ * @ . . . . * . @ @ @ @ @ @ @ @ @ @ @ "};
