/* XPM */
static char * tool_edit_face_xpm[] = {
"25 25 5 1",
" 	c None",
".	c #C7D3CF",
"+	c #000000",
"@	c #FFFFFF",
"#	c #00D40F",
".........................",
".........................",
".........................",
".........................",
".........................",
".....++++++++++++........",
".....++@@@@@@@@@@+.......",
".....++@@@@@@@@@@+.......",
".....+@+@@@@@@@@@@+......",
".....+@+@@@@@@@@@@+......",
".....+@@++++++++++++.....",
".....+@@+##########+.....",
".....+@@+##########+.....",
".....+@@+##########+.....",
".....+@@+##########+.....",
".....+@@+##########+.....",
".....+@@+##########+.....",
"......+@+##########+.....",
"......+@+##########+.....",
".......++##########+.....",
".......++##########+.....",
"........++++++++++++.....",
".........................",
".........................",
"........................."};
