/* XPM */
static char * 3d_paint_xpm[] = {
"32 24 367 2",
"  	c #808080",
". 	c #7F7A74",
"+ 	c #7F8082",
"@ 	c #808181",
"# 	c #926F44",
"$ 	c #836D54",
"% 	c #7D7975",
"& 	c #808183",
"* 	c #808081",
"= 	c #AB7E46",
"- 	c #A27641",
"; 	c #936C3C",
"> 	c #816C53",
", 	c #7E7D7C",
"' 	c #808182",
") 	c #A87E4B",
"! 	c #AC804B",
"~ 	c #AB7D47",
"{ 	c #A57641",
"] 	c #936938",
"^ 	c #826D57",
"/ 	c #807C78",
"( 	c #807F7F",
"_ 	c #7F7F7E",
": 	c #7E7C78",
"< 	c #786D5B",
"[ 	c #7A6643",
"} 	c #7F653B",
"| 	c #846C47",
"1 	c #857967",
"2 	c #827F79",
"3 	c #80807F",
"4 	c #8D693C",
"5 	c #9D7645",
"6 	c #A77E4A",
"7 	c #AB7F4B",
"8 	c #AB7E48",
"9 	c #A4753E",
"0 	c #936C3F",
"a 	c #87725C",
"b 	c #80786F",
"c 	c #7D7D7D",
"d 	c #7E837E",
"e 	c #7F837F",
"f 	c #808180",
"g 	c #818282",
"h 	c #7A7773",
"i 	c #6D5C3E",
"j 	c #6D4708",
"k 	c #7F4E00",
"l 	c #915A00",
"m 	c #9E6200",
"n 	c #AD6B00",
"o 	c #B76F00",
"p 	c #B17515",
"q 	c #997B4D",
"r 	c #827F7B",
"s 	c #5E4423",
"t 	c #795831",
"u 	c #8B673B",
"v 	c #9B7443",
"w 	c #A67D4A",
"x 	c #AB804B",
"y 	c #A4763F",
"z 	c #977041",
"A 	c #8E5465",
"B 	c #962F9A",
"C 	c #895489",
"D 	c #7C787B",
"E 	c #7D877D",
"F 	c #828384",
"G 	c #75716C",
"H 	c #634718",
"I 	c #754900",
"J 	c #8A5700",
"K 	c #976001",
"L 	c #A26702",
"M 	c #B17003",
"N 	c #C27B04",
"O 	c #CF8305",
"P 	c #D88804",
"Q 	c #D78605",
"R 	c #B5802A",
"S 	c #81807D",
"T 	c #332C22",
"U 	c #3B2913",
"V 	c #5E4524",
"W 	c #76562F",
"X 	c #896639",
"Y 	c #9A7342",
"Z 	c #A57C49",
"` 	c #AA7F4B",
" .	c #AB7D49",
"..	c #B64288",
"+.	c #CF04D9",
"@.	c #CB09D0",
"#.	c #BF0FC1",
"$.	c #9E379F",
"%.	c #767072",
"&.	c #593E0E",
"*.	c #764B00",
"=.	c #8C5901",
"-.	c #9C6301",
";.	c #A76A03",
">.	c #B07105",
",.	c #BE7A06",
"'.	c #CF8406",
").	c #DB8C07",
"!.	c #E59207",
"~.	c #EB9508",
"{.	c #E89105",
"].	c #B9812A",
"^.	c #7C8086",
"/.	c #828282",
"(.	c #595858",
"_.	c #312A21",
":.	c #43321C",
"<.	c #5A4222",
"[.	c #72532E",
"}.	c #876438",
"|.	c #987242",
"1.	c #A5754F",
"2.	c #CE29C2",
"3.	c #E410EF",
"4.	c #E50DEF",
"5.	c #E30AEA",
"6.	c #E306E9",
"7.	c #B90BB1",
"8.	c #793825",
"9.	c #855302",
"0.	c #986101",
"a.	c #A76B03",
"b.	c #B27306",
"c.	c #BF7C0A",
"d.	c #CC840B",
"e.	c #D88C0B",
"f.	c #E49209",
"g.	c #EC9709",
"h.	c #F39B09",
"i.	c #F59B09",
"j.	c #EB9203",
"k.	c #9C7F51",
"l.	c #7D8084",
"m.	c #848484",
"n.	c #7F8080",
"o.	c #585756",
"p.	c #3D372F",
"q.	c #3F301D",
"r.	c #533B1E",
"s.	c #6F522B",
"t.	c #8F495A",
"u.	c #CA0CD7",
"v.	c #DD13E7",
"w.	c #E413EE",
"x.	c #EA11F4",
"y.	c #EE0EF7",
"z.	c #F10BF8",
"A.	c #DF08E3",
"B.	c #A83757",
"C.	c #9C6800",
"D.	c #AD7006",
"E.	c #BB7A0B",
"F.	c #CB860F",
"G.	c #D88F11",
"H.	c #E19410",
"I.	c #E9970D",
"J.	c #F09B0C",
"K.	c #F69E0A",
"L.	c #F99F0B",
"M.	c #F49A0A",
"N.	c #CE8615",
"O.	c #7E7F81",
"P.	c #838383",
"Q.	c #7D7E7E",
"R.	c #656362",
"S.	c #48443C",
"T.	c #37221C",
"U.	c #78087A",
"V.	c #A205AB",
"W.	c #BF0AC8",
"X.	c #CF0ED8",
"Y.	c #DA10E4",
"Z.	c #E410EE",
"`.	c #EE0FF7",
" +	c #F20DF9",
".+	c #E40FE0",
"++	c #AF4D3D",
"@+	c #AF7A00",
"#+	c #BF8405",
"$+	c #D18C11",
"%+	c #E09515",
"&+	c #E89A14",
"*+	c #EB9B11",
"=+	c #F09D0E",
"-+	c #F69F0C",
";+	c #F9A00C",
">+	c #F69D0C",
",+	c #DE8E0C",
"'+	c #8F7D62",
")+	c #575056",
"!+	c #330035",
"~+	c #6A006E",
"{+	c #87028E",
"]+	c #AB06B3",
"^+	c #C209CB",
"/+	c #CA0AD3",
"(+	c #D40DDE",
"_+	c #E30EEC",
":+	c #EA0EF0",
"<+	c #CB0DC9",
"[+	c #A81E8D",
"}+	c #BA397C",
"|+	c #D28321",
"1+	c #E09713",
"2+	c #E99B15",
"3+	c #EC9C12",
"4+	c #EE9B10",
"5+	c #F29D0E",
"6+	c #F59E0C",
"7+	c #F29B0C",
"8+	c #DE8E0B",
"9+	c #9B7D4D",
"0+	c #7E8084",
"a+	c #6A6B6A",
"b+	c #2F1532",
"c+	c #510155",
"d+	c #700075",
"e+	c #8C0293",
"f+	c #A605AE",
"g+	c #B608BF",
"h+	c #BE09C7",
"i+	c #C90AD1",
"j+	c #C613BC",
"k+	c #A61893",
"l+	c #B10BBC",
"m+	c #C529A8",
"n+	c #DB8E18",
"o+	c #E49812",
"p+	c #E89911",
"q+	c #E8980F",
"r+	c #E9980D",
"s+	c #EC990C",
"t+	c #E9960C",
"u+	c #D7890A",
"v+	c #9A7A49",
"w+	c #7A7C7A",
"x+	c #464047",
"y+	c #461F47",
"z+	c #500B53",
"A+	c #5D0062",
"B+	c #780181",
"C+	c #82028D",
"D+	c #890490",
"E+	c #97364C",
"F+	c #9C5F0F",
"G+	c #A92288",
"H+	c #BA13B8",
"I+	c #CF8317",
"J+	c #D9910C",
"K+	c #DE920C",
"L+	c #E0940A",
"M+	c #DF9507",
"N+	c #E09506",
"O+	c #DC8D0A",
"P+	c #C88009",
"Q+	c #91774F",
"R+	c #7F8184",
"S+	c #818181",
"T+	c #838483",
"U+	c #757775",
"V+	c #666466",
"W+	c #4E3E4C",
"X+	c #39131E",
"Y+	c #51231D",
"Z+	c #633019",
"`+	c #825004",
" @	c #916000",
".@	c #A15525",
"+@	c #AB04B9",
"@@	c #BD4B59",
"#@	c #CA8010",
"$@	c #D07F18",
"%@	c #D3742E",
"&@	c #CF5957",
"*@	c #CB5658",
"=@	c #C97F0D",
"-@	c #B1720A",
";@	c #837867",
">@	c #6E6E6D",
",@	c #342913",
"'@	c #4A2F00",
")@	c #644000",
"!@	c #744A00",
"~@	c #825201",
"{@	c #925F00",
"]@	c #9D2373",
"^@	c #A806AE",
"/@	c #B20BB1",
"(@	c #B90CBA",
"_@	c #BB0BC0",
":@	c #BA0DBD",
"<@	c #B207BE",
"[@	c #AF5C27",
"}@	c #916416",
"|@	c #7F8185",
"1@	c #838384",
"2@	c #423F3A",
"3@	c #311F01",
"4@	c #4F3200",
"5@	c #623E00",
"6@	c #6F4700",
"7@	c #805201",
"8@	c #915D00",
"9@	c #9B4C29",
"0@	c #A4463E",
"a@	c #AC5332",
"b@	c #B06716",
"c@	c #AE7400",
"d@	c #9D286A",
"e@	c #8A2F45",
"f@	c #7D715A",
"g@	c #79797A",
"h@	c #302A21",
"i@	c #2B1A00",
"j@	c #492E00",
"k@	c #583800",
"l@	c #6A4400",
"m@	c #7C4E01",
"n@	c #885800",
"o@	c #915F00",
"p@	c #976200",
"q@	c #986301",
"r@	c #905116",
"s@	c #781063",
"t@	c #73534D",
"u@	c #818386",
"v@	c #767676",
"w@	c #36332D",
"x@	c #1B0E00",
"y@	c #372200",
"z@	c #4C3100",
"A@	c #5F3D00",
"B@	c #6C4500",
"C@	c #744A01",
"D@	c #784C01",
"E@	c #734900",
"F@	c #643414",
"G@	c #6B485F",
"H@	c #7E7E7E",
"I@	c #7C7C7C",
"J@	c #1B160E",
"K@	c #1C1000",
"L@	c #321E00",
"M@	c #402800",
"N@	c #462B00",
"O@	c #442A00",
"P@	c #523E1D",
"Q@	c #736C64",
"R@	c #807F80",
"S@	c #858585",
"T@	c #686969",
"U@	c #53514E",
"V@	c #514C45",
"W@	c #5F5A54",
"X@	c #777675",
"Y@	c #838485",
"Z@	c #848485",
"                                                                ",
". + @                                                           ",
"# $ % & *                                                       ",
"= - ; > , '                           @ ' & ' *                 ",
") ! ~ { ] ^ / (                   _ : < [ } | 1 2 3             ",
"4 5 6 7 8 9 0 a b c d e f     g h i j k l m n o p q r *         ",
"s t u v w x 8 y z A B C D E F G H I J K L M N O P Q R S         ",
"T U V W X Y Z `  ...+.@.#.$.%.&.*.=.-.;.>.,.'.).!.~.{.].^.      ",
"/.(._.:.<.[.}.|.1.2.3.4.5.6.7.8.9.0.a.b.c.d.e.f.g.h.i.j.k.l.    ",
"  m.n.o.p.q.r.s.t.u.v.w.x.y.z.A.B.C.D.E.F.G.H.I.J.K.L.M.N.O.    ",
"      P.Q.R.S.T.U.V.W.X.Y.Z.`. +.+++@+#+$+%+&+*+=+-+;+>+,+'++   ",
"          @ f )+!+~+{+]+^+/+(+_+:+<+[+}+|+1+2+3+4+5+6+7+8+9+0+  ",
"              P.a+b+c+d+e+f+g+h+i+j+k+l+m+n+o+p+q+r+s+t+u+v+0+  ",
"                /.w+x+y+z+A+B+C+D+E+F+G+H+I+J+K+L+M+N+O+P+Q+R+  ",
"                  S+T+U+V+W+X+Y+Z+`+ @.@+@@@#@$@%@&@*@=@-@;@'   ",
"                        S+>@,@'@)@!@~@{@]@^@/@(@_@:@<@[@}@|@    ",
"                          1@2@3@4@5@6@7@8@9@0@a@b@c@d@e@f@&     ",
"                          S+g@h@i@j@k@l@m@n@o@p@q@r@s@t@u@      ",
"                            /.v@w@x@y@z@A@B@C@D@E@F@G@H@        ",
"                                I@o.J@K@L@M@N@O@P@Q@R@          ",
"                                  /.S@T@U@V@W@X@Y@@             ",
"                                      /.m.Z@1@S+                ",
"                                                                ",
"                                                                "};
