/* XPM */
static char * advance_to_end_xpm[] = {
"32 24 47 1",
" 	c #808080",
".	c #03028B",
"+	c #04028B",
"@	c #04028C",
"#	c #04028D",
"$	c #0503B2",
"%	c #0503B3",
"&	c #04038D",
"*	c #0503B4",
"=	c #04038C",
"-	c #04038E",
";	c #0503B5",
">	c #000004",
",	c #05038E",
"'	c #05038F",
")	c #0504B4",
"!	c #0504B5",
"~	c #0503B6",
"{	c #0604B4",
"]	c #0604B5",
"^	c #0604B6",
"/	c #0504B6",
"(	c #0504B7",
"_	c #0503B7",
":	c #0605B1",
"<	c #0604B0",
"[	c #0604B7",
"}	c #0604B8",
"|	c #0504B8",
"1	c #0605B0",
"2	c #0604AF",
"3	c #0504AF",
"4	c #0604B9",
"5	c #0605AF",
"6	c #0504AE",
"7	c #0705B8",
"8	c #0605B9",
"9	c #0705B9",
"0	c #0604AE",
"a	c #0504AD",
"b	c #0705BA",
"c	c #0503AC",
"d	c #0504AC",
"e	c #0503AB",
"f	c #0403AB",
"g	c #0504AB",
"h	c #0403AA",
"                                ",
"                                ",
"                                ",
"                    .+@@#       ",
"      $%            +@@&&       ",
"      %%%*          ==&&--      ",
"      %****;;       >&&-,'      ",
"      )))!!!;~~     >--,''      ",
"      {]]]]^^//(_   >::::::     ",
"      <<]]^^^^[[[}| >111111     ",
"      2<<<^^[[[[}}} >11111      ",
"      3222222[[}}}4 >55555      ",
"      63333322277884>22222      ",
"      66666666666999>00000      ",
"      aa66666666666b>60000      ",
"      aaaaaaaaaaaaa >aaaaa      ",
"      cdaaaaaaaaa   >aaaaa      ",
"      cccccddd      >ddddd      ",
"      eeeccc        >ddddd      ",
"      feee          >ggggg      ",
"      hh             eeggg      ",
"                                ",
"                                ",
"                                "};
