/* XPM */
static char * area_light_xpm[] = {
"32 24 38 1",
" 	c #808080",
".	c #45D0FF",
"+	c #45CFFF",
"@	c #46D1FF",
"#	c #46D2FF",
"$	c #FFFFFF",
"%	c #47D2FF",
"&	c #47D3FF",
"*	c #44CEFF",
"=	c #45CEFF",
"-	c #46D0FF",
";	c #47D4FF",
">	c #48D4FF",
",	c #48D5FF",
"'	c #44CEFE",
")	c #49D6FF",
"!	c #44CDFE",
"~	c #48D6FF",
"{	c #49D7FF",
"]	c #55F6FF",
"^	c #34A0C7",
"/	c #E1E1E1",
"(	c #55F7FF",
"_	c #55F5FF",
":	c #349FC6",
"<	c #34A1C8",
"[	c #56F7FF",
"}	c #34A0C8",
"|	c #34A1C9",
"1	c #35A2C9",
"2	c #56F8FF",
"3	c #34A2C9",
"4	c #35A2CA",
"5	c #35A3CA",
"6	c #35A3CB",
"7	c #56F9FF",
"8	c #35A4CC",
"9	c #55F8FF",
"                                ",
"                                ",
"                                ",
"                                ",
"                                ",
"                 .              ",
"              +..@@@#           ",
"           +++..@@$#%&&         ",
"        *=++..-$$$$$$$;>,,      ",
"     '**+++..$$$$$$$$$$>,,))    ",
"  !'**+++.$$$$$$$$$$$>>,,~)){]  ",
"  ^^*+++./$$$$$$$$&;>>,,,)(]]_  ",
"  :^^<...@@/$$$$&&;>>,,,[(]]__  ",
"   ^^}<|1@@##%&&&;>>,,2((]]_    ",
"     }<|344#%&&&;>>222((]]      ",
"       <|1456&;;>7222((]        ",
"         34466877229(           ",
"           45667229             ",
"             6622               ",
"                                ",
"                                ",
"                                ",
"                                ",
"                                "};
