/* XPM */
static char * bend_object_xpm[] = {
"32 24 283 2",
"  	c #808080",
". 	c #7F7F7D",
"+ 	c #817E79",
"@ 	c #847F77",
"# 	c #81807F",
"$ 	c #808181",
"% 	c #7F8184",
"& 	c #7D7F81",
"* 	c #7E786E",
"= 	c #887659",
"- 	c #997539",
"; 	c #B57714",
"> 	c #D58709",
", 	c #A88B5C",
"' 	c #7D7F83",
") 	c #808184",
"! 	c #7E8187",
"~ 	c #7A7875",
"{ 	c #826E4E",
"] 	c #9C712C",
"^ 	c #BA7C18",
"/ 	c #D78807",
"( 	c #F09805",
"_ 	c #FDA10B",
": 	c #FAA00C",
"< 	c #C78E30",
"[ 	c #808081",
"} 	c #7D7E80",
"| 	c #7C6E56",
"1 	c #916825",
"2 	c #B8760A",
"3 	c #DA8B0A",
"4 	c #F09709",
"5 	c #FAA00B",
"6 	c #FAA00D",
"7 	c #EC980D",
"8 	c #CD8307",
"9 	c #9B6203",
"0 	c #826D4A",
"a 	c #817664",
"b 	c #8D6A31",
"c 	c #AE6E06",
"d 	c #D68603",
"e 	c #EF9807",
"f 	c #EE980C",
"g 	c #D5890B",
"h 	c #B0730C",
"i 	c #815815",
"j 	c #6D5D43",
"k 	c #787878",
"l 	c #818284",
"m 	c #7D776E",
"n 	c #857459",
"o 	c #937139",
"p 	c #AB7213",
"q 	c #CE7E00",
"r 	c #EC9504",
"s 	c #F9A00A",
"t 	c #FAA10C",
"u 	c #ED990C",
"v 	c #D2870A",
"w 	c #B2740E",
"x 	c #92681F",
"y 	c #765F37",
"z 	c #706A60",
"A 	c #818385",
"B 	c #818181",
"C 	c #808183",
"D 	c #7F8287",
"E 	c #7A7876",
"F 	c #7F6C4E",
"G 	c #946C2C",
"H 	c #B17718",
"I 	c #CD8306",
"J 	c #E89203",
"K 	c #F89E09",
"L 	c #FBA10C",
"M 	c #F09B0C",
"N 	c #D4890B",
"O 	c #B27307",
"P 	c #AD6E06",
"Q 	c #A96F11",
"R 	c #757778",
"S 	c #808285",
"T 	c #818183",
"U 	c #7D7F82",
"V 	c #7C6F5C",
"W 	c #8D6629",
"X 	c #B0720B",
"Y 	c #D18608",
"Z 	c #E79307",
"` 	c #F69E09",
" .	c #F59E0D",
"..	c #E3920C",
"+.	c #BF7B08",
"@.	c #B57407",
"#.	c #D78A0A",
"$.	c #EE990D",
"%.	c #EA960C",
"&.	c #E9950C",
"*.	c #DF9215",
"=.	c #9A7F54",
"-.	c #7E8083",
";.	c #7F7F7E",
">.	c #817869",
",.	c #896A37",
"'.	c #A66B08",
").	c #CD8001",
"!.	c #E89306",
"~.	c #F69D09",
"{.	c #F69F0D",
"].	c #E6950C",
"^.	c #CD840A",
"/.	c #A96D07",
"(.	c #A06705",
"_.	c #D18709",
":.	c #D3890F",
"<.	c #93620D",
"[.	c #7B530D",
"}.	c #65430A",
"|.	c #764C04",
"1.	c #BB7707",
"2.	c #E58E01",
"3.	c #9B835C",
"4.	c #7D8083",
"5.	c #80807F",
"6.	c #6D614B",
"7.	c #785314",
"8.	c #C87B00",
"9.	c #E59002",
"0.	c #F59C08",
"a.	c #FBA10B",
"b.	c #F8A00D",
"c.	c #E9960A",
"d.	c #CC8309",
"e.	c #AA6D07",
"f.	c #966004",
"g.	c #A16906",
"h.	c #D48809",
"i.	c #E0910B",
"j.	c #A8792A",
"k.	c #766D5E",
"l.	c #73767A",
"m.	c #7F8288",
"n.	c #6F7175",
"o.	c #443E34",
"p.	c #493004",
"q.	c #915D04",
"r.	c #C88518",
"s.	c #82817E",
"t.	c #7D7A76",
"u.	c #5E451A",
"v.	c #553500",
"w.	c #D38708",
"x.	c #FDA40D",
"y.	c #EE9A0C",
"z.	c #D48706",
"A.	c #A96B00",
"B.	c #89611E",
"C.	c #72531D",
"D.	c #885702",
"E.	c #BA7A09",
"F.	c #F09C0C",
"G.	c #C3841A",
"H.	c #897654",
"I.	c #7B7A7B",
"J.	c #808284",
"K.	c #2F2C27",
"L.	c #4F3200",
"M.	c #AC6F07",
"N.	c #A78348",
"O.	c #7D8084",
"P.	c #634D27",
"Q.	c #533500",
"R.	c #925D04",
"S.	c #BE7A04",
"T.	c #885906",
"U.	c #735B33",
"V.	c #7A7369",
"W.	c #787165",
"X.	c #845910",
"Y.	c #BE7C0A",
"Z.	c #EA9A11",
"`.	c #D18C17",
" +	c #877A64",
".+	c #828283",
"++	c #606060",
"@+	c #352305",
"#+	c #875602",
"$+	c #B47D23",
"%+	c #878076",
"&+	c #818182",
"*+	c #787267",
"=+	c #5B3F0F",
"-+	c #634819",
";+	c #6E6350",
">+	c #7B7C7D",
",+	c #7E7D7A",
"'+	c #7B591F",
")+	c #B37305",
"!+	c #E49814",
"~+	c #DE9310",
"{+	c #8F764F",
"]+	c #7E8084",
"^+	c #291D09",
"/+	c #654000",
"(+	c #A87319",
"_+	c #8C816F",
":+	c #818283",
"<+	c #828487",
"[+	c #766A57",
"}+	c #985E00",
"|+	c #D99012",
"1+	c #E2930C",
"2+	c #9A7840",
"3+	c #7C8087",
"4+	c #868789",
"5+	c #2C210E",
"6+	c #5F3D00",
"7+	c #A56F13",
"8+	c #8E806A",
"9+	c #714E11",
"0+	c #B87709",
"a+	c #E6960E",
"b+	c #AD7E2D",
"c+	c #868788",
"d+	c #372D1B",
"e+	c #5E3B00",
"f+	c #A56D0C",
"g+	c #918063",
"h+	c #6E6657",
"i+	c #8E5900",
"j+	c #CB850E",
"k+	c #D98C08",
"l+	c #897D6B",
"m+	c #828383",
"n+	c #66615A",
"o+	c #63440F",
"p+	c #9E6910",
"q+	c #908065",
"r+	c #694A16",
"s+	c #A66C05",
"t+	c #D88D0C",
"u+	c #B5822D",
"v+	c #82807C",
"w+	c #7F8185",
"x+	c #7F8081",
"y+	c #6F695F",
"z+	c #815305",
"A+	c #B6770A",
"B+	c #D48A0C",
"C+	c #967F58",
"D+	c #6A5C43",
"E+	c #8D5B04",
"F+	c #C37F0A",
"G+	c #BF831F",
"H+	c #847D72",
"I+	c #685533",
"J+	c #915C03",
"K+	c #C78109",
"L+	c #B2802B",
"M+	c #7E7E7F",
"N+	c #7E7F81",
"O+	c #6A5228",
"P+	c #956003",
"Q+	c #C78108",
"R+	c #A87E37",
"S+	c #7D8085",
"T+	c #797878",
"U+	c #6C4F1F",
"V+	c #996203",
"W+	c #C6810A",
"X+	c #9D7D46",
"Y+	c #777571",
"Z+	c #6D4C13",
"`+	c #9D6300",
" @	c #C88107",
".@	c #937C55",
"+@	c #7F8083",
"@@	c #7F8080",
"#@	c #7D7667",
"$@	c #917442",
"%@	c #A18049",
"                                                    . + @ #     ",
"                                          $ % & * = - ; > , '   ",
"                                      ) ! ~ { ] ^ / ( _ : < '   ",
"                                [ ) } | 1 2 3 4 5 6 7 8 9 0 )   ",
"                            . + a b c d e 5 6 f g h i j k l     ",
"                  $ ) & m n o p q r s t u v w x y z ' A B       ",
"              C D E F G H I J K L M N O P Q | R S T             ",
"        [ ) U V W X Y Z ` t  ...+.@.#.$.%.&.*.=.-.              ",
"    ;.+ >.,.'.).!.~.t {.].^./.(._.:.<.[.}.|.1.2.3.4.            ",
"  5.6.7.8.9.0.a.b.c.d.e.f.g.h.i.j.k.l.m.n.o.p.q.r.s.[           ",
"  t.u.v.w.x.y.z.A.B.C.D.E.F.G.H.I.J.B   B } K.L.M.N.O.          ",
"  [ P.Q.R.S.T.U.V.W.X.Y.Z.`. +            .+++@+#+$+%+          ",
"  &+*+=+-+;+>+l ,+'+)+!+~+{+]+            B } ^+/+(+_+          ",
"    :+;.<+l [ &+[+}+|+1+2+3+                4+5+6+7+8+          ",
"      [       S 9+0+a+b+U                   c+d+e+f+g+[         ",
"            l h+i+j+k+l+[                   m+n+o+p+q+[         ",
"            S r+s+t+u+v+                      &+A w+x+          ",
"          :+y+z+A+B+C+                                          ",
"          l D+E+F+G+H+                                          ",
"          A I+J+K+L+M+                                          ",
"          N+O+P+Q+R+S+                                          ",
"          T+U+V+W+X+]+                                          ",
"          Y+Z+`+ @.@+@                                          ",
"          @@#@$@%@v+[                                           "};
