/* XPM */
static char * bool_union_xpm[] = {
"25 25 201 2",
"  	c None",
". 	c #C7D3CF",
"+ 	c #9EB5A7",
"@ 	c #6B9576",
"# 	c #72A580",
"$ 	c #6EA272",
"% 	c #4A7E36",
"& 	c #537425",
"* 	c #7A7A32",
"= 	c #B0AB86",
"- 	c #A99D9A",
"; 	c #895B5A",
"> 	c #945757",
", 	c #904D4D",
"' 	c #712626",
") 	c #6A1F1F",
"! 	c #762C2C",
"~ 	c #A48583",
"{ 	c #5C8270",
"] 	c #73C088",
"^ 	c #83DA95",
"/ 	c #5FB574",
"( 	c #6EC580",
"_ 	c #6EC171",
": 	c #7ABA66",
"< 	c #698137",
"[ 	c #54391D",
"} 	c #A66B6B",
"| 	c #BC8D8D",
"1 	c #9A5A5A",
"2 	c #A86F6F",
"3 	c #A16464",
"4 	c #782E2E",
"5 	c #732828",
"6 	c #A2817F",
"7 	c #5C7C7D",
"8 	c #58A378",
"9 	c #6BCD80",
"0 	c #60CF71",
"a 	c #69DC81",
"b 	c #61D278",
"c 	c #44B156",
"d 	c #6AC870",
"e 	c #4E502F",
"f 	c #8D4848",
"g 	c #AD7676",
"h 	c #AC7474",
"i 	c #B78585",
"j 	c #AE7878",
"k 	c #904C4C",
"l 	c #AA7070",
"m 	c #985757",
"n 	c #7D3535",
"o 	c #BEBCB8",
"p 	c #9BAAB5",
"q 	c #4F887F",
"r 	c #6FC68F",
"s 	c #68DA7B",
"t 	c #5BD96B",
"u 	c #44C757",
"v 	c #44C358",
"w 	c #5AD374",
"x 	c #539354",
"y 	c #7C3333",
"z 	c #B58181",
"A 	c #B17B7B",
"B 	c #9F6161",
"C 	c #9D5E5E",
"D 	c #B07A7A",
"E 	c #702525",
"F 	c #8D5353",
"G 	c #597285",
"H 	c #54937E",
"I 	c #64C07D",
"J 	c #50C85E",
"K 	c #4CD154",
"L 	c #61E669",
"M 	c #4DCE58",
"N 	c #47BF5E",
"O 	c #414629",
"P 	c #843D3D",
"Q 	c #A46868",
"R 	c #A36666",
"S 	c #A76D6D",
"T 	c #BB8B8B",
"U 	c #924F4F",
"V 	c #955252",
"W 	c #661B1B",
"X 	c #38596A",
"Y 	c #6BAB90",
"Z 	c #439C58",
"` 	c #52C15A",
" .	c #55D157",
"..	c #4AC84D",
"+.	c #3EB947",
"@.	c #56C96A",
"#.	c #472219",
"$.	c #9E5F5F",
"%.	c #A06363",
"&.	c #A56969",
"*.	c #8E4949",
"=.	c #4E1414",
"-.	c #284E51",
";.	c #599272",
">.	c #57A365",
",.	c #59B35C",
"'.	c #4CB04D",
").	c #4AB44F",
"!.	c #51BF5C",
"~.	c #48B55C",
"{.	c #451312",
"].	c #833B3B",
"^.	c #8C4646",
"/.	c #965454",
"(.	c #8F4B4B",
"_.	c #884242",
":.	c #894444",
"<.	c #5E1818",
"[.	c #3B605B",
"}.	c #598C6D",
"|.	c #5C9D67",
"1.	c #509C52",
"2.	c #5CB15C",
"3.	c #50AD54",
"4.	c #369841",
"5.	c #45AB58",
"6.	c #4D221B",
"7.	c #7E3636",
"8.	c #853E3E",
"9.	c #914E4E",
"0.	c #975656",
"a.	c #7F3737",
"b.	c #5C1717",
"c.	c #7B9791",
"d.	c #538165",
"e.	c #4A8452",
"f.	c #5DA25F",
"g.	c #499648",
"h.	c #4A9D4D",
"i.	c #5DB666",
"j.	c #429C52",
"k.	c #634E37",
"l.	c #772D2D",
"m.	c #752B2B",
"n.	c #995959",
"o.	c #874141",
"p.	c #671C1C",
"q.	c #C2D4CF",
"r.	c #356045",
"s.	c #598D5F",
"t.	c #4F8B4F",
"u.	c #5C9F5A",
"v.	c #589F59",
"w.	c #4A9550",
"x.	c #60AE70",
"y.	c #709A71",
"z.	c #581616",
"A.	c #7A3131",
"B.	c #370E0E",
"C.	c #854949",
"D.	c #A2BBAB",
"E.	c #406A44",
"F.	c #3E6E3C",
"G.	c #4A8046",
"H.	c #5E985E",
"I.	c #5D9A61",
"J.	c #397746",
"K.	c #569067",
"L.	c #7B695C",
"M.	c #631919",
"N.	c #651A1A",
"O.	c #6B2020",
"P.	c #B9B5B2",
"Q.	c #A3BBA7",
"R.	c #395F36",
"S.	c #467042",
"T.	c #568154",
"U.	c #406D42",
"V.	c #477550",
"W.	c #396448",
"X.	c #416352",
"Y.	c #957A75",
"Z.	c #561616",
"`.	c #681D1D",
" +	c #641919",
".+	c #6C2121",
"++	c #CABCBA",
"@+	c #C2D2C6",
"#+	c #95AD95",
"$+	c #658265",
"%+	c #668566",
"&+	c #698A6F",
"*+	c #829F8D",
"=+	c #B9CEC7",
"-+	c #C8D4D2",
";+	c #C5C1BE",
">+	c #A17776",
",+	c #7B3938",
"'+	c #7C3434",
")+	c #813838",
"!+	c #C49999",
". . . . . . . . . . . . . . . . . . . . . . . . . ",
". . . . . . . . . . . . . . . . . . . . . . . . . ",
". . . . . . . . . . . . . . . . . . . . . . . . . ",
". . . . . . . . . . . . . . . . . . . . . . . . . ",
". . . . . . . . . . . . . . . . . . . . . . . . . ",
". . . . . . . . . . . . . . . . . . . . . . . . . ",
". . . . . + @ # $ % & * = - ; > , ' ) ! ~ . . . . ",
". . . . { ] ^ / ( _ : < [ } | 1 2 } 3 4 5 6 . . . ",
". . . 7 8 9 0 a b c d e f g h i j k l m n ' o . . ",
". . p q r s t u v w x y l z A B C g } D k E F . . ",
". . G H I J K L M N O P Q R S T } 1 U B V n W . . ",
". . X Y Z `  ...+.@.#.m P $.l %.V &.1 P U *.=.. . ",
". . -.;.>.,.'.).!.~.{.].^./.k U C V ^.(._.:.<.. . ",
". . [.}.|.1.2.3.4.5.6.7.:.8.V k y f 9.0.a.*.b.. . ",
". . c.d.e.f.g.h.i.j.k.l.m.^.a.P n.].P o.y 4 p.. . ",
". . q.r.s.t.u.v.w.x.y.z.n A.:._.a./.].4 9.B.C.. . ",
". . . D.E.F.G.H.I.J.K.L.M.N.5 8._.O.a.E ' V P.. . ",
". . . . Q.R.S.T.U.V.W.X.Y.Z.`.l. +.+<.<.n.++. . . ",
". . . . . @+#+$+%+&+*+=+-+;+>+,+'+)+V !+++. . . . ",
". . . . . . . . . . . . . . . . . . . . . . . . . ",
". . . . . . . . . . . . . . . . . . . . . . . . . ",
". . . . . . . . . . . . . . . . . . . . . . . . . ",
". . . . . . . . . . . . . . . . . . . . . . . . . ",
". . . . . . . . . . . . . . . . . . . . . . . . . ",
". . . . . . . . . . . . . . . . . . . . . . . . . "};
