/* XPM */
static char * buttons_xpm[] = {
"32 24 135 2",
"  	c #3883CC",
". 	c #2184E4",
"+ 	c #2283E3",
"@ 	c #2183E3",
"# 	c #2182E3",
"$ 	c #1F81E4",
"% 	c #3681CC",
"& 	c #3983CC",
"* 	c #37A4E4",
"= 	c #20AEFF",
"- 	c #21ADFF",
"; 	c #20ACFF",
"> 	c #20ABFF",
", 	c #1FAAFF",
"' 	c #1DAAFF",
") 	c #349FE4",
"! 	c #45B3E3",
"~ 	c #31C4FF",
"{ 	c #33C2FF",
"] 	c #32C2FF",
"^ 	c #32C1FF",
"/ 	c #30C2FF",
"( 	c #43B2E3",
"_ 	c #45B4E3",
": 	c #4EC1E3",
"< 	c #3ED6FF",
"[ 	c #3ED3FF",
"} 	c #3ED2FF",
"| 	c #3CD4FF",
"1 	c #4DBFE3",
"2 	c #4EC2E3",
"3 	c #52CDE0",
"4 	c #44E5FE",
"5 	c #46E3FC",
"6 	c #46E2FC",
"7 	c #46E2FD",
"8 	c #45E4FF",
"9 	c #54CBE1",
"0 	c #48D2D1",
"a 	c #36EBEB",
"b 	c #39EAEA",
"c 	c #39E9EA",
"d 	c #39E9EB",
"e 	c #3AE9EB",
"f 	c #39EBEE",
"g 	c #4BD1D3",
"h 	c #4AD1D3",
"i 	c #39D9C0",
"j 	c #23F4D5",
"k 	c #25F2D5",
"l 	c #26F2D5",
"m 	c #27F2D6",
"n 	c #27F2D7",
"o 	c #26F4DA",
"p 	c #3DD7C4",
"q 	c #39D9BF",
"r 	c #37CF94",
"s 	c #1FE79B",
"t 	c #21E59B",
"u 	c #22E59C",
"v 	c #22E59D",
"w 	c #21E79E",
"x 	c #38CE97",
"y 	c #3980CF",
"z 	c #217FE8",
"A 	c #227FE6",
"B 	c #227EE6",
"C 	c #217EE6",
"D 	c #217DE6",
"E 	c #1F7DE8",
"F 	c #367DCF",
"G 	c #37CF93",
"H 	c #20E79A",
"I 	c #22E59A",
"J 	c #22E59B",
"K 	c #23E59C",
"L 	c #22E79D",
"M 	c #39CE97",
"N 	c #2E82DB",
"O 	c #1382F8",
"P 	c #1581F5",
"Q 	c #1480F5",
"R 	c #147FF5",
"S 	c #117EF7",
"T 	c #2C7EDA",
"U 	c #2C7FDA",
"V 	c #3AA6E4",
"W 	c #23B2FF",
"X 	c #24B0FF",
"Y 	c #24AFFF",
"Z 	c #23AFFF",
"` 	c #23AEFF",
" .	c #37A2E4",
"..	c #3AA7E4",
"+.	c #46B5E3",
"@.	c #32C5FF",
"#.	c #34C4FF",
"$.	c #33C4FF",
"%.	c #33C3FF",
"&.	c #44B3E3",
"*.	c #4FC3E3",
"=.	c #3FD8FF",
"-.	c #40D5FF",
";.	c #3FD4FF",
">.	c #3DD5FF",
",.	c #4EC0E3",
"'.	c #52CEDF",
").	c #44E6FD",
"!.	c #45E4FB",
"~.	c #45E5FE",
"{.	c #54CCE0",
"].	c #52CEDE",
"^.	c #53CCE0",
"/.	c #47D2CF",
"(.	c #36ECEA",
"_.	c #37EAE8",
":.	c #38EAE9",
"<.	c #37ECEC",
"[.	c #4AD1D2",
"}.	c #49D1D2",
"|.	c #35DBBD",
"1.	c #1EF7D0",
"2.	c #20F5D0",
"3.	c #21F4D1",
"4.	c #22F4D2",
"5.	c #23F4D3",
"6.	c #22F6D6",
"7.	c #39D9C2",
"8.	c #35DBBC",
"9.	c #41C093",
"0.	c #2DD599",
"a.	c #2FD399",
"b.	c #2FD39A",
"c.	c #2ED49B",
"d.	c #42BF95",
"  . + + @ # $ % & . + + @ # $ % & . + + @ # $ % & . + + @ # $ % ",
"* = - ; > , ' ) * = - ; > , ' ) * = - ; > , ' ) * = - ; > , ' ) ",
"! ~ { { ] ^ / ( _ ~ { { ] ^ / ( _ ~ { { ] ^ / ( _ ~ { { ] ^ / ( ",
": < [ [ } } | 1 2 < [ [ } } | 1 2 < [ [ } } | 1 2 < [ [ } } | 1 ",
"3 4 5 5 6 7 8 9 3 4 5 5 6 7 8 9 3 4 5 5 6 7 8 9 3 4 5 5 6 7 8 9 ",
"0 a b c d e f g 0 a b c d e f g 0 a b c d e f g 0 a b c d e f h ",
"i j k l m n o p q j k l m n o p q j k l m n o p q j k l m n o p ",
"r s t u v v w x r s t u v v w x r s t u v v w x r s t u v v w x ",
"y z A B C D E F y z A B C D E F y z A B C D E F y z A B C D E F ",
"* = - ; > , ' ) * = - ; > , ' ) * = - ; > , ' ) * = - ; > , ' ) ",
"! ~ { { ] ^ / ( _ ~ { { ] ^ / ( _ ~ { { ] ^ / ( _ ~ { { ] ^ / ( ",
": < [ [ } } | 1 2 < [ [ } } | 1 2 < [ [ } } | 1 2 < [ [ } } | 1 ",
"3 4 5 5 6 7 8 9 3 4 5 5 6 7 8 9 3 4 5 5 6 7 8 9 3 4 5 5 6 7 8 9 ",
"0 a b c d e f g 0 a b c d e f g 0 a b c d e f g 0 a b c d e f h ",
"i j k l m n o p q j k l m n o p q j k l m n o p q j k l m n o p ",
"G H I J K K L M G H I J K K L M G H I J K K L M G H I J K K L M ",
"N O P Q R R S T N O P Q R R S T N O P Q R R S T N O P Q R R S U ",
"V W X Y Z ` =  ...W X Y Z ` =  ...W X Y Z ` =  ...W X Y Z ` =  .",
"+.@.#.$.%.%.~ &.+.@.#.$.%.%.~ &.+.@.#.$.%.%.~ &.+.@.#.$.%.%.~ &.",
"*.=.-.-.;.;.>.,.*.=.-.-.;.;.>.,.*.=.-.-.;.;.>.,.*.=.-.-.;.;.>.,.",
"'.).!.!.5 5 ~.{.].).!.!.5 5 ~.{.].).!.!.5 5 ~.{.].).!.!.5 5 ~.^.",
"/.(._._.:.:.<.[./.(._._.:.:.<.[./.(._._.:.:.<.[./.(._._.:.:.<.}.",
"|.1.2.3.4.5.6.7.8.1.2.3.4.5.6.7.8.1.2.3.4.5.6.7.8.1.2.3.4.5.6.7.",
"9.0.a.b.b.b.c.d.9.0.a.b.b.b.c.d.9.0.a.b.b.b.c.d.9.0.a.b.b.b.c.d."};
