/* XPM */
static char * camera_xpm[] = {
"32 24 86 1",
" 	c #808080",
".	c #818181",
"+	c #848484",
"@	c #878787",
"#	c #7E7E7E",
"$	c #858585",
"%	c #828282",
"&	c #565656",
"*	c #232323",
"=	c #050505",
"-	c #7A7A7A",
";	c #6D6D6D",
">	c #131313",
",	c #000000",
"'	c #242424",
")	c #838383",
"!	c #7D7D7D",
"~	c #7F7F7F",
"{	c #474747",
"]	c #4B4B4B",
"^	c #383838",
"/	c #1B1B1B",
"(	c #3B3B3B",
"_	c #747474",
":	c #404040",
"<	c #212121",
"[	c #515151",
"}	c #030303",
"|	c #4D4D4D",
"1	c #6B6B6B",
"2	c #121212",
"3	c #292929",
"4	c #323232",
"5	c #010101",
"6	c #525252",
"7	c #0B0B0B",
"8	c #343434",
"9	c #797979",
"0	c #313131",
"a	c #5E5E5E",
"b	c #7C7C7C",
"c	c #1E1E1E",
"d	c #4A4A4A",
"e	c #464646",
"f	c #2E2E2E",
"g	c #868686",
"h	c #40403F",
"i	c #A9A9A8",
"j	c #585858",
"k	c #101010",
"l	c #898989",
"m	c #303030",
"n	c #0E0E0E",
"o	c #C7C7C7",
"p	c #F7F7F6",
"q	c #FFFFFF",
"r	c #555454",
"s	c #161616",
"t	c #888888",
"u	c #444444",
"v	c #040404",
"w	c #333333",
"x	c #FEFDFD",
"y	c #50504F",
"z	c #252525",
"A	c #676767",
"B	c #2F2F2F",
"C	c #0C0C0C",
"D	c #FDFDFD",
"E	c #3A3A39",
"F	c #2B2B2B",
"G	c #656565",
"H	c #373737",
"I	c #020202",
"J	c #403F3F",
"K	c #E5E4E3",
"L	c #707070",
"M	c #535353",
"N	c #F8F8F8",
"O	c #636363",
"P	c #0A0A0A",
"Q	c #141414",
"R	c #646464",
"S	c #7B7B7B",
"T	c #6A6A6A",
"U	c #3E3E3E",
"                                ",
"             .                  ",
"           +@#$.                ",
"         .%&*=*-                ",
"         ;>,,,,')!-#            ",
"        ~{,,,,,,]^/(_%          ",
"        #:,,,,,,,,,,<#.         ",
"         [,,,,,,,,,,}|+         ",
"         12,,,,,,,,,,3)         ",
"          45,,,,,,,,,'~         ",
"        ~67,,,,,,,,,,8+         ",
"        !4,,,,,,,,,,29.         ",
"        !0,,,,,,,,,,=a%!b       ",
"        !0,,,,,,,,,,,cdefg      ",
"        !0,,,,,,,,,,,hijkl      ",
"        bm,,,,,,,,,nopqrst      ",
"        #uv,,,,,,,,wqxqyz@      ",
"         +ABC,,,,,,0qDqEF@      ",
"          %%GHI,,,,JqqK/wg      ",
"             #LF,w*MNOPQR%      ",
"               +SgT<vC[).       ",
"                . tU{!$         ",
"                   .+.          ",
"                                "};
