/* XPM */
static char * axes_object_center_xpm[] = {
"32 24 105 2",
"  	c #808080",
". 	c #D30D0D",
"+ 	c #DF1414",
"@ 	c #825101",
"# 	c #835201",
"$ 	c #840303",
"% 	c #E41818",
"& 	c #F60F0F",
"* 	c #815101",
"= 	c #845201",
"- 	c #845301",
"; 	c #855301",
"> 	c #865301",
", 	c #000000",
"' 	c #B40808",
") 	c #4F3200",
"! 	c #825201",
"~ 	c #865401",
"{ 	c #875401",
"] 	c #885501",
"^ 	c #895501",
"/ 	c #DC8D0A",
"( 	c #0C0000",
"_ 	c #B50808",
": 	c #503300",
"< 	c #513300",
"[ 	c #DB8D0A",
"} 	c #DB8C0A",
"| 	c #1A0000",
"1 	c #B60808",
"2 	c #513400",
"3 	c #523400",
"4 	c #DA8C0A",
"5 	c #DA8B0A",
"6 	c #280000",
"7 	c #B70808",
"8 	c #4E3100",
"9 	c #533500",
"0 	c #D98B0A",
"a 	c #D88B0A",
"b 	c #2F0101",
"c 	c #B80808",
"d 	c #503200",
"e 	c #533400",
"f 	c #D88A0A",
"g 	c #D88A09",
"h 	c #D78A09",
"i 	c #330101",
"j 	c #B90808",
"k 	c #4D3100",
"l 	c #4E3200",
"m 	c #D68909",
"n 	c #370101",
"o 	c #D58909",
"p 	c #D58809",
"q 	c #3C0101",
"r 	c #BA0808",
"s 	c #D48809",
"t 	c #D48709",
"u 	c #400101",
"v 	c #D38709",
"w 	c #440101",
"x 	c #BB0808",
"y 	c #019C01",
"z 	c #07EC06",
"A 	c #01019D",
"B 	c #03C303",
"C 	c #09F808",
"D 	c #0CF50B",
"E 	c #04AE04",
"F 	c #000028",
"G 	c #000076",
"H 	c #000097",
"I 	c #01019F",
"J 	c #007F00",
"K 	c #05DE04",
"L 	c #0BFD0A",
"M 	c #0AE70A",
"N 	c #018501",
"O 	c #000017",
"P 	c #000071",
"Q 	c #00009F",
"R 	c #01018D",
"S 	c #008200",
"T 	c #02AB01",
"U 	c #07EF06",
"V 	c #0CFC0B",
"W 	c #08D208",
"X 	c #004900",
"Y 	c #000009",
"Z 	c #00006C",
"` 	c #000096",
" .	c #040399",
"..	c #005000",
"+.	c #10D110",
"@.	c #0EE10E",
"#.	c #04B404",
"$.	c #000066",
"%.	c #000095",
"&.	c #1111E4",
"*.	c #0505D1",
"=.	c #006500",
"-.	c #000070",
";.	c #00008C",
">.	c #0404BC",
"                                                                ",
"                                                                ",
"                                    .                           ",
"                                    +                           ",
"                @ #               $ % &                         ",
"        * @ @ # = - ; >           , '                           ",
"    ) @ ! # = - ; > ~ { ] ^ /     ( _                           ",
"    ) : < - ; ~ ~ { ] ] [ } }     | 1                           ",
"    ) ) : 2 3 { ] [ } 4 4 4 5     6 7                           ",
"    8 ) : < 3 9 4 4 4 0 0 0 a     b c                           ",
"    8 ) d < 3 e 0 0 a a f g h     i j                           ",
"    k l ) : < 3 a f h h h m m     n j                           ",
"    k 8 ) : < 3 h h m m m o p     q r                           ",
"    k 8 ) ) : 2 m m o p s s t     u r                           ",
"      k 8 ) : < o p s s v v       w x                           ",
"          ) d < s v v v         y z x A                         ",
"              : v           B C D E F G H I                     ",
"                      J K L M N         O P H Q R               ",
"                S T U V W X                 Y Z ` Q  .          ",
"              ..+.@.#.                          , $.%.&.*.      ",
"                ..=.                                -.;.>.      ",
"                                                                ",
"                                                                ",
"                                                                "};
