/* XPM */
static char * circle_two_points_xpm[] = {
"32 24 233 2",
"  	c #808080",
". 	c #818081",
"+ 	c #828082",
"@ 	c #857F85",
"# 	c #777D77",
"$ 	c #678266",
"% 	c #5F8A5E",
"& 	c #5A8F5A",
"* 	c #5B915A",
"= 	c #618F61",
"- 	c #6C896C",
"; 	c #7D7F7D",
"> 	c #847D84",
", 	c #6E7B6E",
"' 	c #3C8B3B",
") 	c #26A625",
"! 	c #18B917",
"~ 	c #0EBF0C",
"{ 	c #06C204",
"] 	c #07C606",
"^ 	c #13CE11",
"/ 	c #21D01F",
"( 	c #2EC62C",
"_ 	c #4EA54D",
": 	c #7C807C",
"< 	c #837E83",
"[ 	c #4C804B",
"} 	c #12A511",
"| 	c #0CBB0B",
"1 	c #03A801",
"2 	c #0C820C",
"3 	c #2A7629",
"4 	c #357034",
"5 	c #356D34",
"6 	c #1F6D1E",
"7 	c #057F04",
"8 	c #07B506",
"9 	c #13DF11",
"0 	c #22D920",
"a 	c #689368",
"b 	c #817F81",
"c 	c #7F7F7F",
"d 	c #348134",
"e 	c #02AC01",
"f 	c #0AA909",
"g 	c #257B25",
"h 	c #667266",
"i 	c #868086",
"j 	c #848184",
"k 	c #838183",
"l 	c #858285",
"m 	c #7F7A80",
"n 	c #515E50",
"o 	c #126812",
"p 	c #0CE90A",
"q 	c #5D9F5C",
"r 	c #7F7D7E",
"s 	c #347F33",
"t 	c #01AB00",
"u 	c #179C16",
"v 	c #587A58",
"w 	c #858085",
"x 	c #828182",
"y 	c #808180",
"z 	c #848384",
"A 	c #7F7B7F",
"B 	c #3C603C",
"C 	c #0C9A0C",
"D 	c #0BE709",
"E 	c #59A657",
"F 	c #847C84",
"G 	c #837F83",
"H 	c #477946",
"I 	c #06A405",
"J 	c #109E0F",
"K 	c #6A7D69",
"L 	c #838083",
"M 	c #817E81",
"N 	c #4C634C",
"O 	c #069606",
"P 	c #18E315",
"Q 	c #679866",
"R 	c #6F7B6E",
"S 	c #1A8F18",
"T 	c #02AE01",
"U 	c #618061",
"V 	c #365936",
"W 	c #06B205",
"X 	c #33CC32",
"Y 	c #7E817E",
"Z 	c #4F794E",
"` 	c #00A400",
" .	c #30952F",
"..	c #807C80",
"+.	c #076606",
"@.	c #15CF13",
"#.	c #669865",
"$.	c #7C7E7C",
"%.	c #2F7D2E",
"&.	c #00B300",
"*.	c #6A866A",
"=.	c #838283",
"-.	c #426142",
";.	c #00B400",
">.	c #51A850",
",.	c #797E7B",
"'.	c #0D8012",
").	c #07B011",
"!.	c #78837B",
"~.	c #818080",
"{.	c #6B746C",
"].	c #008D00",
"^.	c #35B13B",
"/.	c #7D827D",
"(.	c #818182",
"_.	c #757652",
":.	c #A2B102",
"<.	c #E1F206",
"[.	c #929168",
"}.	c #808081",
"|.	c #818181",
"1.	c #6E735D",
"2.	c #318F00",
"3.	c #69C91A",
"4.	c #81857A",
"5.	c #6A6A4A",
"6.	c #9A9A00",
"7.	c #D3D403",
"8.	c #8E8D61",
"9.	c #818183",
"0.	c #666534",
"a.	c #B4AF03",
"b.	c #EBE503",
"c.	c #8D8D6C",
"d.	c #787A77",
"e.	c #34610F",
"f.	c #3CA10C",
"g.	c #7C827B",
"h.	c #616557",
"i.	c #4A7200",
"j.	c #7F961D",
"k.	c #80817A",
"l.	c #7D7E7D",
"m.	c #2F7931",
"n.	c #00D701",
"o.	c #6A8F69",
"p.	c #4D6F4D",
"q.	c #009700",
"r.	c #4C934E",
"s.	c #7F8080",
"t.	c #527253",
"u.	c #03B602",
"v.	c #35C233",
"w.	c #847C85",
"x.	c #0F700E",
"y.	c #0EAA0D",
"z.	c #648B63",
"A.	c #6F746F",
"B.	c #1A871A",
"C.	c #09ED06",
"D.	c #659563",
"E.	c #827E82",
"F.	c #456E45",
"G.	c #029C01",
"H.	c #2BA02A",
"I.	c #7C7F7C",
"J.	c #4B684B",
"K.	c #09AF08",
"L.	c #1AEA18",
"M.	c #6B926B",
"N.	c #837D83",
"O.	c #827F82",
"P.	c #5C785C",
"Q.	c #068F06",
"R.	c #0DA80C",
"S.	c #608460",
"T.	c #807D80",
"U.	c #386838",
"V.	c #02BC01",
"W.	c #20E71E",
"X.	c #5D9C5D",
"Y.	c #857C85",
"Z.	c #4C7A4C",
"`.	c #0F960E",
" +	c #00A700",
".+	c #4E864D",
"++	c #847F84",
"@+	c #3F6A3F",
"#+	c #02AF01",
"$+	c #13F111",
"%+	c #31C130",
"&+	c #6E866D",
"*+	c #877C87",
"=+	c #867E86",
"-+	c #637B63",
";+	c #218820",
">+	c #02A401",
",+	c #528151",
"'+	c #4F684F",
")+	c #119111",
"!+	c #10D70E",
"~+	c #1AC718",
"{+	c #38A737",
"]+	c #449643",
"^+	c #449443",
"/+	c #349733",
"(+	c #12A111",
"_+	c #07B005",
":+	c #0DB40B",
"<+	c #169816",
"[+	c #607C60",
"}+	c #717171",
"|+	c #3F6D3E",
"1+	c #259124",
"2+	c #19B018",
"3+	c #0FBE0D",
"4+	c #06BD05",
"5+	c #09BA08",
"6+	c #0FB30D",
"7+	c #19A718",
"8+	c #279327",
"9+	c #467D45",
"0+	c #7A7B7B",
"a+	c #848084",
"b+	c #858185",
"c+	c #797679",
"d+	c #687568",
"e+	c #5E7A5E",
"f+	c #587C58",
"g+	c #5B7F5B",
"h+	c #5F7D5F",
"i+	c #6A7A69",
"j+	c #7D7B7D",
"                          . . . . .                             ",
"                    + @ # $ % & * = - ; > .                     ",
"                  @ , ' ) ! ~ { ] ^ / ( _ : <                   ",
"                . [ } | 1 2 3 4 5 6 7 8 9 0 a b                 ",
"            . c d e f g h i j k k l m n o | p q                 ",
"          . r s t u v w x           y z A B C D E F             ",
"          G H I J K L                   . M N O P Q <           ",
"          R S T U +                         j V W X Y           ",
"          Z `  .@                             ..+.@.#..         ",
"        $.%.&.*..                             =.-.;.>.          ",
"        ,.'.).!.                              ~.{.].^./.        ",
"      (._.:.<.[.}.                            |.1.2.3.4.        ",
"      (.5.6.7.8.}.                            9.0.a.b.c.}.      ",
"        d.e.f.g.                              |.h.i.j.k.        ",
"        l.m.n.o..                             x p.q.r.s.        ",
"          t.u.v.w.                            w x.y.z..         ",
"          A.B.C.D.E.                        j F.G.H.I.          ",
"          j J.K.L.M.N.                    O.P.Q.R.S.G           ",
"            T.U.V.W.X.Y.O.            L @ Z.`. +.+++            ",
"              c @+#+$+%+&+*+< G G G =+-+;+f >+,+                ",
"                . '+)+!+p ~+{+]+^+/+(+_+:+<+[+.                 ",
"                  l }+|+1+2+3+4+5+6+7+8+9+0+a+                  ",
"                    |.b+c+d+e+f+g+h+i+j+a+.                     ",
"                          . . . . .                             "};
