/* XPM */
static char * compute_textures_xpm[] = {
"32 24 346 2",
"  	c #A97200",
". 	c #A97300",
"+ 	c #B87F00",
"@ 	c #FCBD00",
"# 	c #FFBB00",
"$ 	c #FFB200",
"% 	c #FFB400",
"& 	c #FFB500",
"* 	c #FFB700",
"= 	c #FFB900",
"- 	c #FFBD00",
"; 	c #FFBE00",
"> 	c #FFBF00",
", 	c #FFC000",
"' 	c #FFC100",
") 	c #FFB800",
"! 	c #FFB600",
"~ 	c #FFB300",
"{ 	c #E29D00",
"] 	c #7A5400",
"^ 	c #926300",
"/ 	c #B07700",
"( 	c #AA7300",
"_ 	c #CE9100",
": 	c #F8B32C",
"< 	c #E3A657",
"[ 	c #EBAE4B",
"} 	c #EBB04B",
"| 	c #EBB14B",
"1 	c #EEB74B",
"2 	c #F4C04C",
"3 	c #F5C147",
"4 	c #F7C142",
"5 	c #F7C143",
"6 	c #F3BB43",
"7 	c #F0B543",
"8 	c #F0B443",
"9 	c #F9B82B",
"0 	c #FDBA17",
"a 	c #FEB90A",
"b 	c #DE9B00",
"c 	c #7D5600",
"d 	c #7E5500",
"e 	c #AE7500",
"f 	c #B17800",
"g 	c #AC7500",
"h 	c #E3A000",
"i 	c #FFC300",
"j 	c #DCA364",
"k 	c #4D4CAC",
"l 	c #4D4CAD",
"m 	c #4E4CAD",
"n 	c #7876AE",
"o 	c #A7A5AE",
"p 	c #AAA6AD",
"q 	c #ACA6AC",
"r 	c #ADA7AC",
"s 	c #8A84AD",
"t 	c #493EAD",
"u 	c #3D2FAD",
"v 	c #6149A8",
"w 	c #6E51A5",
"x 	c #CF9773",
"y 	c #DB9900",
"z 	c #805800",
"A 	c #714D00",
"B 	c #9E6B00",
"C 	c #D29000",
"D 	c #F4AC00",
"E 	c #FFC400",
"F 	c #FFBA00",
"G 	c #E1B677",
"H 	c #B1AEAD",
"I 	c #B1AFAD",
"J 	c #B2AFAE",
"K 	c #B2B0AE",
"L 	c #9290AE",
"M 	c #2322AF",
"N 	c #2322B0",
"O 	c #7371B0",
"P 	c #ACAAB1",
"Q 	c #A9A6B1",
"R 	c #A9A7B1",
"S 	c #AAA7B2",
"T 	c #D2B18E",
"U 	c #D29300",
"V 	c #835A00",
"W 	c #724E00",
"X 	c #966600",
"Y 	c #C78800",
"Z 	c #D79400",
"` 	c #D89400",
" .	c #F5AD00",
"..	c #FFC600",
"+.	c #CAA385",
"@.	c #908EAE",
"#.	c #908FAF",
"$.	c #918FAF",
"%.	c #8A88AF",
"&.	c #6C6AB0",
"*.	c #6C6BB0",
"=.	c #6D6BB0",
"-.	c #6D6BB1",
";.	c #7F7DB1",
">.	c #9D9BB1",
",.	c #A09DB2",
"'.	c #A19EB2",
").	c #BAA4A0",
"!.	c #FEBB07",
"~.	c #D09200",
"{.	c #865C00",
"].	c #734F00",
"^.	c #A77200",
"/.	c #D99500",
"(.	c #D79300",
"_.	c #F3AC00",
":.	c #FFC700",
"<.	c #FFC500",
"[.	c #FFBC00",
"}.	c #9A7292",
"|.	c #0000AF",
"1.	c #0000B0",
"2.	c #817FB0",
"3.	c #B4B2B0",
"4.	c #B5B2B1",
"5.	c #B5B3B1",
"6.	c #A2A0B2",
"7.	c #0000B2",
"8.	c #0000B3",
"9.	c #402DAF",
"0.	c #F1B242",
"a.	c #CB8E00",
"b.	c #895E00",
"c.	c #745000",
"d.	c #AC7600",
"e.	c #D69300",
"f.	c #F2AC00",
"g.	c #FFC900",
"h.	c #FFC800",
"i.	c #7C5CB0",
"j.	c #0000C3",
"k.	c #8C8BC2",
"l.	c #C2C0C0",
"m.	c #C2C1C0",
"n.	c #C3C1C0",
"o.	c #B3B2C0",
"p.	c #0303C0",
"q.	c #0000BF",
"r.	c #0000C0",
"s.	c #DCA26D",
"t.	c #C58A00",
"u.	c #8B5F00",
"v.	c #755000",
"w.	c #B37B00",
"x.	c #F0AB00",
"y.	c #FFCA00",
"z.	c #7556C3",
"A.	c #0000D5",
"B.	c #9999D5",
"C.	c #D5D5D5",
"D.	c #C4C4D6",
"E.	c #0000D6",
"F.	c #D9A17D",
"G.	c #C18700",
"H.	c #8D6100",
"I.	c #755100",
"J.	c #BA7F00",
"K.	c #D59200",
"L.	c #D69200",
"M.	c #FFCB00",
"N.	c #0000D4",
"O.	c #C4C4D5",
"P.	c #DEA476",
"Q.	c #BC8300",
"R.	c #8F6200",
"S.	c #765100",
"T.	c #BE8200",
"U.	c #ECA800",
"V.	c #FFCC00",
"W.	c #8865BB",
"X.	c #9999D4",
"Y.	c #D4D4D4",
"Z.	c #BEBED5",
"`.	c #E8AB64",
" +	c #B47D00",
".+	c #906200",
"++	c #C58700",
"@+	c #D49200",
"#+	c #ECA700",
"$+	c #8F69B7",
"%+	c #0000D3",
"&+	c #9C9CD4",
"*+	c #BABAD4",
"=+	c #150CD3",
"-+	c #EBAD5D",
";+	c #FEB500",
">+	c #AF7900",
",+	c #906300",
"'+	c #775200",
")+	c #C98A00",
"!+	c #D49100",
"~+	c #EAA700",
"{+	c #BEA5B7",
"]+	c #9C9CD3",
"^+	c #9D9DD3",
"/+	c #9E9ED3",
"(+	c #9797D3",
"_+	c #8989D4",
":+	c #8787D4",
"<+	c #8B88D2",
"[+	c #F2B357",
"}+	c #FAB100",
"|+	c #A87400",
"1+	c #CF8D00",
"2+	c #D39100",
"3+	c #EAA600",
"4+	c #E0CCB6",
"5+	c #D2D2D2",
"6+	c #D3D3D3",
"7+	c #9999D3",
"8+	c #7F7FD3",
"9+	c #D8D0C8",
"0+	c #FDBA36",
"a+	c #F4AA00",
"b+	c #9C6B00",
"c+	c #8E6100",
"d+	c #8A5E00",
"e+	c #E7A300",
"f+	c #FFB100",
"g+	c #DFCBB6",
"h+	c #9999D2",
"i+	c #0000D2",
"j+	c #7F7FD2",
"k+	c #D9CFC4",
"l+	c #FEB722",
"m+	c #F0A700",
"n+	c #956600",
"o+	c #8D6000",
"p+	c #E4A100",
"q+	c #FFAF00",
"r+	c #DFCAB5",
"s+	c #D1D1D1",
"t+	c #9898D2",
"u+	c #8282D2",
"v+	c #DBCDC1",
"w+	c #EBA100",
"x+	c #936500",
"y+	c #8A5F00",
"z+	c #986800",
"A+	c #FFB000",
"B+	c #E1C9AF",
"C+	c #9898D1",
"D+	c #0000D1",
"E+	c #8585D1",
"F+	c #DDCDBB",
"G+	c #EEAA00",
"H+	c #926400",
"I+	c #885D00",
"J+	c #9E6C00",
"K+	c #D18F00",
"L+	c #E29F00",
"M+	c #B391AE",
"N+	c #7373D0",
"O+	c #7474D0",
"P+	c #9999D0",
"Q+	c #B4B4D1",
"R+	c #B2B2D1",
"S+	c #AEAED1",
"T+	c #9F9FD1",
"U+	c #7F7FD1",
"V+	c #B39AB6",
"W+	c #FDB700",
"X+	c #A77500",
"Y+	c #855B00",
"Z+	c #A36F00",
"`+	c #D39000",
" @	c #E09D00",
".@	c #FFC200",
"+@	c #9C73AD",
"@@	c #0000D0",
"#@	c #9A9AD0",
"$@	c #D0D0D0",
"%@	c #A1A1D0",
"&@	c #9C75AE",
"*@	c #BF8800",
"=@	c #825900",
"-@	c #AA7500",
";@	c #D08F00",
">@	c #DD9A00",
",@	c #0000CF",
"'@	c #9999CF",
")@	c #CFCFCF",
"!@	c #9B9BD0",
"~@	c #A179AB",
"{@	c #D39700",
"]@	c #7F5700",
"^@	c #AD7700",
"/@	c #D08E00",
"(@	c #DC9900",
"_@	c #9C71AC",
":@	c #0000CE",
"<@	c #9B9BCF",
"[@	c #9A9ACF",
"}@	c #A77DA6",
"|@	c #E5A400",
"1@	c #7C5500",
"2@	c #B47B00",
"3@	c #CF8E00",
"4@	c #D89600",
"5@	c #FFAE00",
"6@	c #C48C8F",
"7@	c #9C6FAC",
"8@	c #9C72AC",
"9@	c #966FAF",
"0@	c #C1ADB5",
"a@	c #DCCBB5",
"b@	c #DCCCB6",
"c@	c #B8A3B6",
"d@	c #8967B6",
"e@	c #8663B7",
"f@	c #7354BE",
"g@	c #7353BE",
"h@	c #C7928D",
"i@	c #F6AF00",
"j@	c #885E00",
"k@	c #B87E00",
"l@	c #CE8D00",
"m@	c #D89500",
"n@	c #FEB200",
"o@	c #FEAC00",
"p@	c #A77300",
"q@	c #BC8100",
"r@	c #D59300",
"s@	c #FAAD00",
"t@	c #FBAA00",
"u@	c #FDAC00",
"v@	c #FFAD00",
"w@	c #C08400",
"x@	c #C28500",
"y@	c #CD8D00",
"z@	c #F7A900",
"A@	c #F8A800",
"B@	c #FAA900",
"C@	c #FCAB00",
"D@	c #D89300",
"E@	c #C48600",
"  . + @ # $ % & * = # - ; > , ' ' , > ; - # = ) ! % ~ { ] ^ / / ",
"( ( _ ' ; ~ & * : < [ } | 1 2 3 4 5 6 7 8 9 0 a * & ~ b c d e f ",
"g g h i > % ! ) j k l l m n o p q r s t u v w x = * % y z A B f ",
"C C D E ' & * F G H I J K L M M N N O P Q R S T F ) & U V W X Y ",
"Z `  ...i ! ) # +.@.@.#.$.%.&.*.=.-.;.>.,.,.'.).!.= ! ~.{.].^./.",
"(.(._.:.<.! = [.}.|.|.|.1.2.3.4.4.5.6.7.7.7.8.9.0.= * a.b.c.d./.",
"e.(.f.g.h.* F - i.j.j.j.j.k.l.m.m.n.o.p.q.q.q.r.s.F * t.u.v.w.` ",
"e.e.x.y.y.* F ; z.A.A.A.A.B.C.C.C.C.D.E.E.E.E.E.F.F * G.H.I.J.` ",
"K.L.x.M.y.! F ; z.N.N.A.A.B.C.C.C.C.O.A.A.A.A.A.P.F * Q.R.S.T.Z ",
"K.K.U.M.V.! = - W.N.N.N.N.X.Y.Y.Y.Y.Z.A.A.A.A.A.`.= !  +.+S.++(.",
"@+K.#+M.V.& ) [.$+%+%+N.N.&+Y.Y.Y.Y.*+N.N.N.N.=+-+) ;+>+,+'+)+e.",
"!+!+~+M.M.% * F {+]+]+]+]+]+^+/+/+/+/+(+_+:+:+<+[+* }+|+R.z 1+L.",
"2+2+3+y.M.$ & ) 4+5+5+5+6+7+%+%+%+%+8+6+6+6+6+9+0+& a+b+c+d+2+K.",
"2+2+e+g.y.f+~ ! g+5+5+5+5+h+i+i+i+i+j+5+5+5+5+k+l+~ m+n+o+.+K.@+",
"C C p+h.h.q+f+% r+s+s+s+5+t+i+i+i+i+u+5+5+5+5+v+~ f+w+x+y+z+!+!+",
"C C h ..E A+~ * B+s+s+s+s+C+D+D+D+D+E+s+s+s+s+F+# ) G+H+I+J+2+2+",
"K+K+L+E , ~ ! F M+N+O+O+O+P+Q+R+S+S+T+U+U+U+U+V+> [.W+X+Y+Z+2+`+",
"K+K+ @.@# % ) [.+@@@@@@@@@#@$@$@$@$@%@@@@@@@@@&@' - F *@=@-@C C ",
";@;@>@, ! % * # +@,@,@,@,@'@)@)@$@$@!@@@@@@@@@~@, - F {@]@^@C C ",
"/@/@(@[.f+$ & = _@:@,@,@,@<@)@)@)@)@[@,@,@,@,@}@; # = |@1@2@K+K+",
"3@3@4@* 5@A+~ ! 6@7@_@8@9@0@a@b@b@b@c@d@e@f@g@h@# = * i@j@k@K+;@",
"l@3@m@n@o@5@A+$ % ! ) F [.- ; > > > > ; - [.F = * ! % ~ p@q@;@/@",
"l@l@r@s@t@u@v@q+f+$ % & ! * ) = = = = ) ) * ! & % ~ $ f+w@x@3@3@",
"y@y@K.z@A@B@C@o@v@5@A+f+$ $ ~ % % % % % ~ ~ $ $ f+A+q+5@D@E@3@3@"};
