/* XPM */
static char * coords_screen_xpm[] = {
"32 24 65 1",
" 	c #808080",
".	c #848484",
"+	c #767694",
"@	c #777792",
"#	c #5050BC",
"$	c #5656BC",
"%	c #707088",
"&	c #1919D3",
"*	c #2020D7",
"=	c #74748D",
"-	c #6E6E85",
";	c #1212AB",
">	c #1313B9",
",	c #70708B",
"'	c #77777C",
")	c #15158A",
"!	c #1616A0",
"~	c #77777F",
"{	c #151589",
"]	c #16169F",
"^	c #16169E",
"/	c #77777E",
"(	c #16169D",
"_	c #151588",
":	c #15159C",
"<	c #15159B",
"[	c #151587",
"}	c #15159A",
"|	c #151586",
"1	c #151599",
"2	c #5E157A",
"3	c #9F1279",
"4	c #917074",
"5	c #79777B",
"6	c #A21835",
"7	c #DF0E0E",
"8	c #B83733",
"9	c #70AA67",
"0	c #68B468",
"a	c #68B568",
"b	c #59B759",
"c	c #6C9B6C",
"d	c #7F817F",
"e	c #7C7A7B",
"f	c #5A292D",
"g	c #650404",
"h	c #712403",
"i	c #2FB908",
"j	c #0AC80A",
"k	c #0AC70A",
"l	c #09B809",
"m	c #11A911",
"n	c #4E904E",
"o	c #7B807B",
"p	c #6D6B6B",
"q	c #4B4949",
"r	c #4D4F49",
"s	c #495F49",
"t	c #495E49",
"u	c #2F5D2F",
"v	c #4A664A",
"w	c #707670",
"x	c #787878",
"y	c #7F7F7F",
"z	c #878787",
"                               .",
"                               .",
"      +@                       .",
"      #$                       .",
"     %&*=                      .",
"     -;>,                      .",
"     ')!~                      .",
"     '{]~                      .",
"     '{]~                      .",
"     '{^/                      .",
"     '{(/                      .",
"     '_(/                      .",
"     '_:/                      .",
"     '_</                      .",
"     '[</                      .",
"     '[}/                      .",
"     '|1/                      .",
"     '234                      .",
"     567890000000000abcd       .",
"     efghijkkkkkkkkkklmno      .",
"      pqrssssstttttttuvw       .",
"                     xy        .",
"                               .",
"...............................z"};
