/* XPM */
static char * word_coordinates_xpm[] = {
"32 24 129 2",
"  	c #808080",
". 	c #7F7E7E",
"+ 	c #A85B5B",
"@ 	c #816464",
"# 	c #D20E0E",
"$ 	c #AE6A6A",
"% 	c #8C3131",
"& 	c #DB1414",
"* 	c #DD4040",
"= 	c #724C4C",
"- 	c #B90B0B",
"; 	c #AF5B5B",
"> 	c #694C4C",
", 	c #B00808",
"' 	c #A16464",
") 	c #6A4C4C",
"! 	c #B10808",
"~ 	c #9F6A6A",
"{ 	c #705353",
"] 	c #9E6A6A",
"^ 	c #8B8B8B",
"/ 	c #919191",
"( 	c #8E8E8E",
"_ 	c #715353",
": 	c #B20808",
"< 	c #A37373",
"[ 	c #878787",
"} 	c #848484",
"| 	c #725353",
"1 	c #B30808",
"2 	c #A27373",
"3 	c #735353",
"4 	c #9D6F6F",
"5 	c #959595",
"6 	c #704C4C",
"7 	c #B40808",
"8 	c #966A6A",
"9 	c #714C4C",
"0 	c #997575",
"a 	c #8D8D8D",
"b 	c #765353",
"c 	c #B50808",
"d 	c #988282",
"e 	c #6F4545",
"f 	c #8D7676",
"g 	c #898989",
"h 	c #788778",
"i 	c #61AA60",
"j 	c #589514",
"k 	c #AA0735",
"l 	c #62508F",
"m 	c #79798D",
"n 	c #868786",
"o 	c #6A8C6A",
"p 	c #46B646",
"q 	c #07E006",
"r 	c #09EE09",
"s 	c #38C41F",
"t 	c #652F52",
"u 	c #000084",
"v 	c #000096",
"w 	c #424294",
"x 	c #6A6A89",
"y 	c #828284",
"z 	c #989898",
"A 	c #778077",
"B 	c #5D9A5C",
"C 	c #2CC72C",
"D 	c #08EB07",
"E 	c #09EA09",
"F 	c #2DC32C",
"G 	c #5D935D",
"H 	c #797E79",
"I 	c #7D7D7D",
"J 	c #63636B",
"K 	c #353567",
"L 	c #000082",
"M 	c #000097",
"N 	c #3F3F9B",
"O 	c #64648C",
"P 	c #7D7D81",
"Q 	c #6F826F",
"R 	c #779677",
"S 	c #4CAA4C",
"T 	c #15D715",
"U 	c #09F008",
"V 	c #09E008",
"W 	c #3FB33F",
"X 	c #688868",
"Y 	c #848584",
"Z 	c #6B6B70",
"` 	c #353564",
" .	c #000080",
"..	c #2B2B9B",
"+.	c #5D5D90",
"@.	c #7D7D86",
"#.	c #888891",
"$.	c #747F74",
"%.	c #15A815",
"&.	c #0EDA0E",
"*.	c #0AF009",
"=.	c #16D416",
"-.	c #53A553",
";.	c #708070",
">.	c #7E7E7E",
",.	c #6A6A6E",
"'.	c #424267",
").	c #00007D",
"!.	c #010197",
"~.	c #2020B6",
"{.	c #2020DA",
"].	c #747496",
"^.	c #3E993E",
"/.	c #08BA08",
"(.	c #06BE06",
"_.	c #559855",
":.	c #777D77",
"<.	c #6C6C6F",
"[.	c #424263",
"}.	c #0808AB",
"|.	c #0E0ED4",
"1.	c #4343D0",
"2.	c #818381",
"3.	c #637263",
"4.	c #7E807E",
"5.	c #52526E",
"6.	c #4C4C7E",
"7.	c #6A6AA4",
"8.	c #858594",
"                                                                ",
"                              . +                               ",
"                              @ # $                             ",
"                            . % & *                             ",
"                              = - ;                             ",
"                              > , '                             ",
"                              ) ! ~                             ",
"                              { ! ]                             ",
"                        ^ / ( _ : < [ (                         ",
"                  } ^ ^ } [ ^ | 1 2 ^ [ [ ^ }                   ",
"            } ^ ^ [ ^ [     ^ 3 1 4 }     ( ( ^ [               ",
"        ^ ^ 5 [       ( / 5   6 7 8 ^ 5 /       [ ( (           ",
"  [ / ^ }     [ ( / ^ }     ( 9 7 0 [   } ( [ [ ^ [   ( ^ }     ",
"a [ } ^ ^   [ [ ^ } ( [   } ( b c d [     ( ^ ( ^ }     [ ( ^ [ ",
"      [ ( 5 (         ( 5 5   e c f ^ 5 5         ^ 5 / }     } ",
"g 5 ( [     } ^ ^ ^ ^ }   h i j k l m   } ^ ( } ^ ^ } [ ^ ^   [ ",
"a } ^ ^     ^ [ ^ ^ n o p q r s t u v w x y ^ 5 ^ }       ( z ( ",
"      [ / ( }   A B C D E F G H I J K L M N O P   [ ^ ^ ^ }     ",
"  [ [ ^   Q R S T U V W X Y ^     [ g Z `  .M ..+.@.#.^ [ [     ",
"/ /     $.%.&.*.=.-.;.        5 5 }     >.,.'.).!.~.{.].  } ^ / ",
"  } ( n ^./.(._.:.[ ^ } } ^ ^ }   ^ ^     ^ ^ <.[.}.|.1.  [ ^   ",
"      } 2.:.3.4.    } / 5 }           5 5 }       5.6.7.8.}     ",
"          [ ^ } [ ^ [     [ ^ }   ^ ^ }   ^ ^     [ ^ }         ",
"              ( / }         } 5 z }           / ^ [             "};
