/* XPM */
static char * cubic_uv_xpm[] = {
"32 24 389 2",
"  	c #808080",
". 	c #818180",
"+ 	c #7F7F80",
"@ 	c #80807F",
"# 	c #7E7F7F",
"$ 	c #7E7F80",
"% 	c #6C6C86",
"& 	c #58588D",
"* 	c #474795",
"= 	c #5C5C8C",
"- 	c #717184",
"; 	c #7E7E7E",
"> 	c #7F7F7F",
", 	c #85857E",
"' 	c #878687",
") 	c #9F9E94",
"! 	c #A6A4A0",
"~ 	c #8C8AA8",
"{ 	c #4745AF",
"] 	c #1111B2",
"^ 	c #4948AF",
"/ 	c #8D8BA6",
"( 	c #A09E9C",
"_ 	c #95948D",
": 	c #8A8A7F",
"< 	c #7C7C85",
"[ 	c #3E3E95",
"} 	c #1414A7",
"| 	c #0A0AAC",
"1 	c #403FAE",
"2 	c #8C89B0",
"3 	c #807EB0",
"4 	c #3333B0",
"5 	c #0808B1",
"6 	c #4646B1",
"7 	c #9E9BB2",
"8 	c #A19FB2",
"9 	c #5E5DB0",
"0 	c #2222AC",
"a 	c #404099",
"b 	c #747484",
"c 	c #7F7F7E",
"d 	c #828282",
"e 	c #939292",
"f 	c #AAA7A6",
"g 	c #B5B2B2",
"h 	c #8A87B0",
"i 	c #2828AF",
"j 	c #1C1BB0",
"k 	c #6866B0",
"l 	c #A6A4B0",
"m 	c #8B89B1",
"n 	c #3231B1",
"o 	c #0404B1",
"p 	c #3B39B2",
"q 	c #8C89B2",
"r 	c #8482B3",
"s 	c #3838B3",
"t 	c #0202B4",
"u 	c #1615B5",
"v 	c #605FB7",
"w 	c #AAA8A7",
"x 	c #939291",
"y 	c #858585",
"z 	c #868585",
"A 	c #9C9A98",
"B 	c #807EA5",
"C 	c #4F4EAF",
"D 	c #1B1AB2",
"E 	c #1C1BB1",
"F 	c #605EB0",
"G 	c #A3A0B1",
"H 	c #7E7CB1",
"I 	c #4140B2",
"J 	c #1A1AB2",
"K 	c #5553B2",
"L 	c #9694B3",
"M 	c #9F9CB3",
"N 	c #6967B3",
"O 	c #2B2AB4",
"P 	c #504EB3",
"Q 	c #8886B3",
"R 	c #ADAABC",
"S 	c #CECBC8",
"T 	c #CAC8C8",
"U 	c #7A7A7A",
"V 	c #7D7D79",
"W 	c #1B1B81",
"X 	c #00008C",
"Y 	c #0B0A9E",
"Z 	c #5453B1",
"` 	c #8280B4",
" .	c #A19EB2",
"..	c #908EB2",
"+.	c #5A59B3",
"@.	c #1C1BB3",
"#.	c #6664B3",
"$.	c #9A97B3",
"%.	c #9A98B3",
"&.	c #605FB2",
"*.	c #2221B3",
"=.	c #0000C2",
"-.	c #0000D4",
";.	c #7372DF",
">.	c #F3F2E8",
",.	c #DCDCDB",
"'.	c #868686",
").	c #7C7C7A",
"!.	c #7F7F7B",
"~.	c #20207B",
"{.	c #00007C",
"].	c #29297E",
"^.	c #7D7D83",
"/.	c #9B9A98",
"(.	c #A6A3AF",
"_.	c #6967B5",
":.	c #1919B3",
"<.	c #0404B4",
"[.	c #3534B4",
"}.	c #9693B2",
"|.	c #BBB9B7",
"1.	c #D0CECD",
"2.	c #B1B1E2",
"3.	c #1918E7",
"4.	c #0000E9",
"5.	c #6D6CE8",
"6.	c #F5F4E9",
"7.	c #D5D5D4",
"8.	c #6B6B7E",
"9.	c #4F4F7A",
"0.	c #75757B",
"a.	c #21217D",
"b.	c #78787D",
"c.	c #7C7C7D",
"d.	c #43437F",
"e.	c #000094",
"f.	c #0000AC",
"g.	c #0000B5",
"h.	c #0000C1",
"i.	c #0000D9",
"j.	c #DCDBEC",
"k.	c #EEEDEB",
"l.	c #B9B8EA",
"m.	c #1414E9",
"n.	c #0000E8",
"o.	c #8383E8",
"p.	c #EAE9E9",
"q.	c #B8B7CC",
"r.	c #838284",
"s.	c #62627E",
"t.	c #02027A",
"u.	c #0C0C7A",
"v.	c #39397B",
"w.	c #18187B",
"x.	c #26267C",
"y.	c #7B7B7D",
"z.	c #47477E",
"A.	c #00007D",
"B.	c #0000C5",
"C.	c #0000F1",
"D.	c #0000EC",
"E.	c #DBDAEA",
"F.	c #EDECEA",
"G.	c #B4B3E9",
"H.	c #1010E8",
"I.	c #2626E8",
"J.	c #6968E7",
"K.	c #3C3CE9",
"L.	c #2626C7",
"M.	c #7B7B84",
"N.	c #65657F",
"O.	c #0B0B7A",
"P.	c #00007A",
"Q.	c #5E5E7A",
"R.	c #51517C",
"S.	c #54547D",
"T.	c #81817D",
"U.	c #4A4A7E",
"V.	c #00007F",
"W.	c #0000CA",
"X.	c #0000EE",
"Y.	c #0000EA",
"Z.	c #E3E3E9",
"`.	c #EFEEE9",
" +	c #A2A1E9",
".+	c #9A99E8",
"++	c #D2D1E7",
"@+	c #4848E7",
"#+	c #3030C0",
"$+	c #7C7C83",
"%+	c #6F6F7F",
"&+	c #17177A",
"*+	c #58587A",
"=+	c #81817B",
"-+	c #5C5C7C",
";+	c #09097C",
">+	c #11117D",
",+	c #2C2C7E",
"'+	c #01017F",
")+	c #00007B",
"!+	c #0000D0",
"~+	c #1918EA",
"{+	c #7170E9",
"]+	c #1818E9",
"^+	c #4645E8",
"/+	c #E3E2E7",
"(+	c #F1F0E7",
"_+	c #3E3EE6",
":+	c #3132BB",
"<+	c #7D7D82",
"[+	c #464679",
"}+	c #53537A",
"|+	c #05057C",
"1+	c #01017D",
"2+	c #3F3F7D",
"3+	c #77777E",
"4+	c #32327B",
"5+	c #2222CF",
"6+	c #9392EC",
"7+	c #E1E0E9",
"8+	c #0D0DE9",
"9+	c #4646E8",
"0+	c #E9E8E7",
"a+	c #EAE9E6",
"b+	c #4242E6",
"c+	c #6A69E8",
"d+	c #A4A3B4",
"e+	c #828281",
"f+	c #797979",
"g+	c #818179",
"h+	c #30307A",
"i+	c #2F2F7A",
"j+	c #46467B",
"k+	c #06067C",
"l+	c #42427D",
"m+	c #83837E",
"n+	c #DDDCCF",
"o+	c #F8F7EC",
"p+	c #D4D3E9",
"q+	c #0D0CE8",
"r+	c #3F3FE7",
"s+	c #B2B1E6",
"t+	c #5C5BE6",
"u+	c #C5C4E6",
"v+	c #F9F8E9",
"w+	c #B1B1AF",
"x+	c #818181",
"y+	c #7C7C7F",
"z+	c #7C7C79",
"A+	c #808079",
"B+	c #2B2B79",
"C+	c #1F1F7B",
"D+	c #55557B",
"E+	c #2D2D7C",
"F+	c #47477D",
"G+	c #D1D0D0",
"H+	c #F2F1EB",
"I+	c #D6D4E8",
"J+	c #2020E8",
"K+	c #6766E7",
"L+	c #7877E7",
"M+	c #0404E6",
"N+	c #0000E5",
"O+	c #D6D5E5",
"P+	c #F3F2E9",
"Q+	c #ABABA6",
"R+	c #6D6D7F",
"S+	c #232379",
"T+	c #535378",
"U+	c #000079",
"V+	c #21217A",
"W+	c #77777B",
"X+	c #76767C",
"Y+	c #49497C",
"Z+	c #53537D",
"`+	c #7D7D7A",
" @	c #DFDED8",
".@	c #D8D7EA",
"+@	c #7E7EE8",
"@@	c #E5E4E7",
"#@	c #9897E6",
"$@	c #EBEAE4",
"%@	c #9F9EE7",
"&@	c #7272A2",
"*@	c #141478",
"=@	c #000078",
"-@	c #3C3C79",
";@	c #24247A",
">@	c #7A7A7B",
",@	c #3C3C7C",
"'@	c #16167A",
")@	c #5151D9",
"!@	c #2929E7",
"~@	c #DCDBE7",
"{@	c #E8E7E6",
"]@	c #8988E6",
"^@	c #4E4EE4",
"/@	c #2B2BE4",
"(@	c #0000E4",
"_@	c #58589F",
":@	c #81817F",
"<@	c #73737F",
"[@	c #171778",
"}@	c #000077",
"|@	c #474778",
"1@	c #828279",
"2@	c #57577A",
"3@	c #70707B",
"4@	c #3E3E7C",
"5@	c #0000D8",
"6@	c #2E2EE7",
"7@	c #E2E1E6",
"8@	c #C4C3E6",
"9@	c #9291E5",
"0@	c #BFBEE5",
"a@	c #EAE9E4",
"b@	c #0101E3",
"c@	c #5B5B9C",
"d@	c #7E7E80",
"e@	c #5C5C7D",
"f@	c #1B1B79",
"g@	c #3E3E77",
"h@	c #808078",
"i@	c #5A5A79",
"j@	c #06067A",
"k@	c #1D1D7A",
"l@	c #2C2C7B",
"m@	c #02027C",
"n@	c #0000D7",
"o@	c #3B3BE7",
"p@	c #5A5AE6",
"q@	c #2625E5",
"r@	c #7575E5",
"s@	c #F3F3E4",
"t@	c #D0CFE5",
"u@	c #2525C7",
"v@	c #70708D",
"w@	c #7A7A80",
"x@	c #595979",
"y@	c #05057A",
"z@	c #01017A",
"A@	c #3F3F7B",
"B@	c #6C6C7C",
"C@	c #242478",
"D@	c #2424DF",
"E@	c #A8A7E8",
"F@	c #A5A4E6",
"G@	c #0A0AE5",
"H@	c #0303E5",
"I@	c #7878E5",
"J@	c #F4F3E9",
"K@	c #B9B9CF",
"L@	c #5E5E96",
"M@	c #828280",
"N@	c #64647D",
"O@	c #0D0D79",
"P@	c #03037A",
"Q@	c #40407A",
"R@	c #80807C",
"S@	c #7B7B77",
"T@	c #EBEAE1",
"U@	c #EFEFE7",
"V@	c #A9A9E5",
"W@	c #0909E6",
"X@	c #0909E1",
"Y@	c #7B7AD1",
"Z@	c #A2A19B",
"`@	c #848480",
" #	c #71717F",
".#	c #3A3A7D",
"+#	c #4C4C7B",
"@#	c #7E7E7B",
"##	c #777777",
"$#	c #E2E1E1",
"%#	c #F0EEE9",
"&#	c #9D9DDF",
"*#	c #2B2BC9",
"=#	c #5555A2",
"-#	c #7C7C7E",
";#	c #7E7E7D",
">#	c #838380",
",#	c #7A7A7F",
"'#	c #E3E3E2",
")#	c #C2C2C1",
"!#	c #8E8D9A",
"~#	c #7F7F82",
"{#	c #83837D",
"]#	c #8B8B8B",
"^#	c #838383",
"                              . + .                             ",
"                      @ # $ % & * = - ; >                       ",
"                @ , , ' ) ! ~ { ] ^ / ( _ : , .                 ",
"            > ; < [ } | 1 2 3 4 5 6 7 8 9 0 a b c >             ",
"          d e f g h i j k l m n o p q r s t u v w x y           ",
"          > z A B C D E F G H I J K L M N O P Q R S T y         ",
"          > U V W X Y Z `  ...+.@.#.$.%.&.*.=.-.;.>.,.'.        ",
"          @ ).!.~.{.].^./.(._.:.<.[.}.|.1.2.3.4.5.6.7.y         ",
"          8.9.0.~.{.a.b.c.d.e.f.g.h.i.j.k.l.m.n.o.p.q.r.        ",
"        . s.t.u.v.w.x.y.; z.A.{.B.C.D.E.F.G.H.I.J.K.L.M.        ",
"        . N.O.P.Q.0.R.S.T.U.V.{.W.X.Y.Z.`. +.+++@+4.#+$+        ",
"          %+&+P.*+=+-+;+>+,+'+)+!+D.~+{+]+^+/+(+_+4.:+<+        ",
"          @ ).[+}+).-+|+1+2+3+4+5+6+7+8+n.9+0+a+b+c+d+e+        ",
"          > f+g+h+i+j+k+{.l+m+=+n+o+p+q+n.r+s+t+u+v+w+x+        ",
"          y+z+A+B+P.C+D+E+F+, U G+H+I+J+K+L+M+N+O+P+Q+          ",
"          R+S+T+B+U+V+W+X+Y+Z+`+ @.@+@++@@#@N+N+$@%@&@@         ",
"          R+*@=@-@S+;@W+>@,@A.'@)@Y.!@~@{@]@N+^@/@(@_@:@        ",
"          <@[@}@|@1@2@D+3@4@{.U+5@4.6@7@8@9@0@a@(@b@c@:@        ",
"          d@e@f@g@h@i@j@k@l@m@U+n@4.o@p@q@r@s@t@n.u@v@          ",
"              w@3+`+x@y@z@A@B@C@D@E@F@G@H@I@J@K@L@$+            ",
"                  M@N@O@P@Q@R@S@T@U@V@W@X@Y@Z@c :@              ",
"                    `@ #.#+#@###$#%#&#*#=#-#;#                  ",
"                      . >#,#;###'#)#!#~#{#                      ",
"                              > ]#^#                            "};
