/* XPM */
static char * cylinder_uv_xpm[] = {
"32 24 315 2",
"  	c #808080",
". 	c #7E7F7F",
"+ 	c #828282",
"@ 	c #878787",
"# 	c #8D8C8C",
"$ 	c #908F8E",
"% 	c #929190",
"& 	c #939291",
"* 	c #929191",
"= 	c #8E8D8D",
"- 	c #898888",
"; 	c #828281",
"> 	c #7E7E7E",
", 	c #7F7F80",
"' 	c #818181",
") 	c #969594",
"! 	c #A6A4A3",
"~ 	c #ACAAA8",
"{ 	c #B2AFAE",
"] 	c #B5B2B1",
"^ 	c #B7B4B2",
"/ 	c #B8B5B4",
"( 	c #B9B5B4",
"_ 	c #B6B3B1",
": 	c #B5B2B0",
"< 	c #B0ADAB",
"[ 	c #AAA7A5",
"} 	c #9E9C9B",
"| 	c #858584",
"1 	c #7F7F7F",
"2 	c #B4B2B0",
"3 	c #B5B3B1",
"4 	c #B6B3B2",
"5 	c #B7B4B3",
"6 	c #B8B5B3",
"7 	c #B9B6B4",
"8 	c #B7B3B2",
"9 	c #7F8080",
"0 	c #737377",
"a 	c #BBB8B6",
"b 	c #ADABB2",
"c 	c #838382",
"d 	c #5A5A64",
"e 	c #888685",
"f 	c #B3B1AE",
"g 	c #BCB9B4",
"h 	c #B9B6B2",
"i 	c #B7B5B3",
"j 	c #BBB8B4",
"k 	c #BDB9B3",
"l 	c #C2BFB8",
"m 	c #8684BB",
"n 	c #80807D",
"o 	c #64646C",
"p 	c #4E4E4D",
"q 	c #707082",
"r 	c #67669F",
"s 	c #918FAD",
"t 	c #BFBCB4",
"u 	c #C0BDB3",
"v 	c #B6B4B2",
"w 	c #B8B5B2",
"x 	c #C2BFB1",
"y 	c #C4C1B2",
"z 	c #A19FBC",
"A 	c #9594C9",
"B 	c #DEDBDA",
"C 	c #8785CA",
"D 	c #64646B",
"E 	c #4C4C4D",
"F 	c #535373",
"G 	c #0A0A8A",
"H 	c #09099A",
"I 	c #0F0EA5",
"J 	c #5252B1",
"K 	c #C4C4BD",
"L 	c #C6C4C3",
"M 	c #CDCCCB",
"N 	c #C0BFD4",
"O 	c #4948DC",
"P 	c #1616E5",
"Q 	c #0909E9",
"R 	c #4242E9",
"S 	c #E7E5E9",
"T 	c #8E8CC3",
"U 	c #68686B",
"V 	c #47474C",
"W 	c #585873",
"X 	c #0B0B89",
"Y 	c #000099",
"Z 	c #0000A4",
"` 	c #3F3FB0",
" .	c #C9C9C1",
"..	c #D0D0D0",
"+.	c #DCDDDC",
"@.	c #C1C1E5",
"#.	c #2121EA",
"$.	c #0000EC",
"%.	c #0000EB",
"&.	c #4746EA",
"*.	c #F1EEE8",
"=.	c #8E8CBF",
"-.	c #6E6E6B",
";.	c #26264C",
">.	c #4A4A73",
",.	c #090989",
"'.	c #000098",
").	c #3F3FAF",
"!.	c #C8C8C0",
"~.	c #DCDCDB",
"{.	c #B7B7E4",
"].	c #1919EA",
"^.	c #0000EA",
"/.	c #4342E9",
"(.	c #C4C2E8",
"_.	c #9593B8",
":.	c #7F7F7E",
"<.	c #6F6F6C",
"[.	c #00004B",
"}.	c #1D1D72",
"|.	c #484888",
"1.	c #2E2E98",
"2.	c #0606A4",
"3.	c #3E3EB0",
"4.	c #D5D5C0",
"5.	c #DBDBD0",
"6.	c #E8E8DA",
"7.	c #BEBEE4",
"8.	c #0808E9",
"9.	c #0909EB",
"0.	c #3F3FEA",
"a.	c #5E5DE9",
"b.	c #1716E7",
"c.	c #6D6CB4",
"d.	c #80817E",
"e.	c #6D6D6B",
"f.	c #191972",
"g.	c #7A7A88",
"h.	c #929298",
"i.	c #9999A3",
"j.	c #6F6FB0",
"k.	c #1F1FC0",
"l.	c #4242CF",
"m.	c #4545DA",
"n.	c #4949E3",
"o.	c #BABAE9",
"p.	c #DBDBEB",
"q.	c #E2E2EA",
"r.	c #9695E9",
"s.	c #0000E7",
"t.	c #6B69AD",
"u.	c #81817E",
"v.	c #67676B",
"w.	c #02024A",
"x.	c #191971",
"y.	c #7B7B88",
"z.	c #989898",
"A.	c #A4A4A3",
"B.	c #7070AF",
"C.	c #0000C0",
"D.	c #0000CF",
"E.	c #0000DA",
"F.	c #2F2FE3",
"G.	c #D4D4E9",
"H.	c #EBEBEA",
"I.	c #EAEAE9",
"J.	c #9493E8",
"K.	c #0000E6",
"L.	c #5C5BA8",
"M.	c #65656B",
"N.	c #33334A",
"O.	c #323271",
"P.	c #7A7A87",
"Q.	c #9C9C97",
"R.	c #A6A6A3",
"S.	c #6B6BAF",
"T.	c #3939E3",
"U.	c #DEDEE8",
"V.	c #EFEFEA",
"W.	c #EFEFE9",
"X.	c #9291E8",
"Y.	c #5250E5",
"Z.	c #5D5CA4",
"`.	c #82827F",
" +	c #464649",
".+	c #5C5C71",
"++	c #2D2D87",
"@+	c #4D4D97",
"#+	c #7F7FA2",
"$+	c #5A5AAF",
"%+	c #0000BF",
"&+	c #3D3DE2",
"*+	c #CACAE8",
"=+	c #ACACE9",
"-+	c #7272E8",
";+	c #7E7DE7",
">+	c #EEEBE5",
",+	c #5F5F9F",
"'+	c #69696A",
")+	c #454548",
"!+	c #585870",
"~+	c #0C0C87",
"{+	c #020297",
"]+	c #0808A2",
"^+	c #4F4FAE",
"/+	c #B7B7BF",
"(+	c #BDBDCF",
"_+	c #C8C8D9",
":+	c #A2A2E2",
"<+	c #1A1AE8",
"[+	c #0606E7",
"}+	c #7978E7",
"|+	c #F5F1E3",
"1+	c #676699",
"2+	c #797978",
"3+	c #373747",
"4+	c #565670",
"5+	c #0D0D86",
"6+	c #000096",
"7+	c #0101A2",
"8+	c #C6C6BF",
"9+	c #CECECE",
"0+	c #DADAD9",
"a+	c #A3A3E2",
"b+	c #0000E9",
"c+	c #0303E7",
"d+	c #7B7AE7",
"e+	c #DEDBE2",
"f+	c #959395",
"g+	c #7A7A77",
"h+	c #000046",
"i+	c #2A2A70",
"j+	c #1E1E86",
"k+	c #010196",
"l+	c #0000A1",
"m+	c #4E4EAE",
"n+	c #CACABF",
"o+	c #D1D1CE",
"p+	c #DEDED9",
"q+	c #A0A0E2",
"r+	c #0000E8",
"s+	c #1010E7",
"t+	c #5F5EE6",
"u+	c #4241E0",
"v+	c #858492",
"w+	c #7C7C79",
"x+	c #000044",
"y+	c #151570",
"z+	c #686886",
"A+	c #6B6B96",
"B+	c #4F4FA1",
"C+	c #5959AD",
"D+	c #8C8CBE",
"E+	c #A4A4CE",
"F+	c #ADADD9",
"G+	c #8484E1",
"H+	c #5656E6",
"I+	c #8686E8",
"J+	c #AAAAE6",
"K+	c #4C4CE6",
"L+	c #0C0BDF",
"M+	c #80808D",
"N+	c #858582",
"O+	c #0D0D52",
"P+	c #17176E",
"Q+	c #797985",
"R+	c #969695",
"S+	c #9E9EA1",
"T+	c #5F5FAD",
"U+	c #0202BE",
"V+	c #0A0ACE",
"W+	c #0909D8",
"X+	c #4747E1",
"Y+	c #DEDEE6",
"Z+	c #E7E7E7",
"`+	c #E1E1E6",
" @	c #5857E6",
".@	c #0B0BD7",
"+@	c #797986",
"@@	c #818180",
"#@	c #656578",
"$@	c #242470",
"%@	c #787885",
"&@	c #959595",
"*@	c #9F9FA0",
"=@	c #0000BE",
"-@	c #0000CE",
";@	c #0000D8",
">@	c #4E4EE1",
",@	c #EFEFE6",
"'@	c #4747E2",
")@	c #3939B0",
"!@	c #7E7E82",
"~@	c #7B7B80",
"{@	c #7E7E83",
"]@	c #909090",
"^@	c #9D9D9E",
"/@	c #5D5DAC",
"(@	c #0000C1",
"_@	c #0000D0",
":@	c #0000DC",
"<@	c #4C4CE5",
"[@	c #EFEFE4",
"}@	c #D9D9D9",
"|@	c #C3C3C7",
"1@	c #7B7AA5",
"2@	c #888888",
"3@	c #75758D",
"4@	c #4E4E97",
"5@	c #4848A2",
"6@	c #4A4AA5",
"7@	c #6F6FA0",
"8@	c #A1A19E",
"9@	c #919191",
"0@	c #80807F",
"                                                                ",
"                  . + @ # $ % & * $ = - ; > ,                   ",
"                ' ) ! ~ { ] ^ / ( _ : < [ } | 1                 ",
"                ! 2 ] ] 3 _ 4 ^ ^ 5 6 6 ( 7 8 = 9               ",
"            ' 0 ^ ] 3 _ 4 4 ^ 5 5 6 / ( 7 7 a b >               ",
"            c d e f g h ^ 5 5 i 6 / 7 7 j k l m n               ",
"            + o p q r s t u 5 ^ v w x y z A B C n               ",
"            + D E F G H I J K L M N O P Q R S T n               ",
"            + U V W X Y Z `  ...+.@.#.$.%.&.*.=.n               ",
"            + -.;.>.,.'.Z ).!...~.{.].$.^./.(._.:.              ",
"            + <.[.}.|.1.2.3.4.5.6.7.8.9.0.a.b.c.d.              ",
"            + e.[.f.g.h.i.j.k.l.m.n.o.p.q.r.s.t.u.              ",
"            + v.w.x.y.z.A.B.C.D.E.F.G.H.I.J.K.L.u.              ",
"            + M.N.O.P.Q.R.S.C.D.E.T.U.V.W.X.Y.Z.`.              ",
"            + D  +.+++@+#+$+%+D.E.&+*+=+-+;+>+,+`.              ",
"            + '+)+!+~+{+]+^+/+(+_+:+<+Q [+}+|+1+`.              ",
"            ' 2+3+4+5+6+7+^+8+9+0+a+[+b+c+d+e+f+1               ",
"            ' g+h+i+j+k+l+m+n+o+p+q+s.r+s+t+u+v+1               ",
"            ' w+x+y+z+A+B+C+D+E+F+G+H+I+J+K+L+M+                ",
"              N+O+P+Q+R+S+T+U+V+W+X+Y+Z+`+ @.@+@                ",
"              @@#@$@%@&@*@T+=@-@;@>@,@Z+Y+'@)@!@                ",
"                ; ~@{@]@^@/@(@_@:@<@[@}@|@1@1                   ",
"                  @@  + 2@3@4@5@6@7@8@9@+ n                     ",
"                              ,   0@1                           "};
