/* XPM */
static char * deformation_plane_xpm[] = {
"32 24 219 2",
"  	c #808080",
". 	c #818081",
"+ 	c #7E7F7E",
"@ 	c #838183",
"# 	c #6D786C",
"$ 	c #516C50",
"% 	c #416940",
"& 	c #667766",
"* 	c #7F807F",
"= 	c #868286",
"- 	c #818181",
"; 	c #587058",
"> 	c #2E5E2D",
", 	c #145A13",
"' 	c #006001",
") 	c #004000",
"! 	c #0B4A0C",
"~ 	c #296129",
"{ 	c #557055",
"] 	c #858285",
"^ 	c #848184",
"/ 	c #797D79",
"( 	c #426741",
"_ 	c #0F520E",
": 	c #075906",
"< 	c #036705",
"[ 	c #006D07",
"} 	c #316B06",
"| 	c #454902",
"1 	c #002F00",
"2 	c #003400",
"3 	c #054805",
"4 	c #105910",
"5 	c #4D6E4C",
"6 	c #828182",
"7 	c #7B7E7B",
"8 	c #687668",
"9 	c #2E602E",
"0 	c #005000",
"a 	c #005A00",
"b 	c #0A6B07",
"c 	c #126E07",
"d 	c #3E6A06",
"e 	c #8A6302",
"f 	c #A16102",
"g 	c #A16302",
"h 	c #945E02",
"i 	c #424300",
"j 	c #0C3200",
"k 	c #023400",
"l 	c #004400",
"m 	c #0B530A",
"n 	c #486B48",
"o 	c #777D77",
"p 	c #667666",
"q 	c #496A49",
"r 	c #1C5B1C",
"s 	c #005500",
"t 	c #006000",
"u 	c #0E6C06",
"v 	c #2F6C06",
"w 	c #5A6605",
"x 	c #906203",
"y 	c #A66002",
"z 	c #9F6102",
"A 	c #9D6202",
"B 	c #9E6202",
"C 	c #A06302",
"D 	c #A96602",
"E 	c #935F02",
"F 	c #544A02",
"G 	c #213801",
"H 	c #013500",
"I 	c #003F00",
"J 	c #074E08",
"K 	c #3A673A",
"L 	c #617661",
"M 	c #7C7F7C",
"N 	c #667066",
"O 	c #285A28",
"P 	c #0D540D",
"Q 	c #005600",
"R 	c #006804",
"S 	c #1D6D07",
"T 	c #4E6805",
"U 	c #786303",
"V 	c #966002",
"W 	c #A06002",
"X 	c #9D6102",
"Y 	c #9C6102",
"Z 	c #9F6302",
"` 	c #A16403",
" .	c #A56603",
"..	c #956003",
"+.	c #6F5302",
"@.	c #343F01",
"#.	c #003100",
"$.	c #003900",
"%.	c #0A4B09",
"&.	c #245F22",
"*.	c #4E6E4E",
"=.	c #787D78",
"-.	c #848284",
";.	c #4E5F4E",
">.	c #012E01",
",.	c #003C00",
"'.	c #004F00",
").	c #185602",
"!.	c #7D5F02",
"~.	c #9C6002",
"{.	c #A06403",
"].	c #A26403",
"^.	c #A26503",
"/.	c #9E6303",
"(.	c #905E03",
"_.	c #2D4601",
":.	c #004B01",
"<.	c #025401",
"[.	c #095C08",
"}.	c #407040",
"|.	c #7A7C7A",
"1.	c #314B31",
"2.	c #062E06",
"3.	c #012E00",
"4.	c #004200",
"5.	c #3A5502",
"6.	c #885F02",
"7.	c #9B6102",
"8.	c #9E6302",
"9.	c #9F6303",
"0.	c #9E6403",
"a.	c #836203",
"b.	c #2E5803",
"c.	c #005502",
"d.	c #045B03",
"e.	c #066206",
"f.	c #0E650E",
"g.	c #4E744E",
"h.	c #888588",
"i.	c #6D746D",
"j.	c #314C31",
"k.	c #0A300A",
"l.	c #074D01",
"m.	c #4B5902",
"n.	c #7E5F02",
"o.	c #A06202",
"p.	c #A16202",
"q.	c #A76503",
"r.	c #936403",
"s.	c #6D5F03",
"t.	c #2F5803",
"u.	c #005503",
"v.	c #005A03",
"w.	c #036203",
"x.	c #156814",
"y.	c #376F37",
"z.	c #697A69",
"A.	c #858185",
"B.	c #666F66",
"C.	c #364F36",
"D.	c #002A00",
"E.	c #004101",
"F.	c #115201",
"G.	c #3B5801",
"H.	c #805F02",
"I.	c #A56402",
"J.	c #A06303",
"K.	c #A86503",
"L.	c #936203",
"M.	c #555B02",
"N.	c #235602",
"O.	c #055603",
"P.	c #005D04",
"Q.	c #126812",
"R.	c #477347",
"S.	c #6B7B6B",
"T.	c #828082",
"U.	c #7D7E7D",
"V.	c #6E756E",
"W.	c #274527",
"X.	c #014501",
"Y.	c #0A5401",
"Z.	c #405802",
"`.	c #986303",
" +	c #4B5A03",
".+	c #105302",
"++	c #065503",
"@+	c #045F05",
"#+	c #026302",
"$+	c #0B660B",
"%+	c #4A744A",
"&+	c #7A7F7A",
"*+	c #5F6A5F",
"=+	c #143A14",
"-+	c #032E03",
";+	c #004A01",
">+	c #045102",
",+	c #045302",
"'+	c #045F04",
")+	c #086608",
"!+	c #106610",
"~+	c #427242",
"{+	c #838283",
"]+	c #4F614F",
"^+	c #1B3E1B",
"/+	c #012C01",
"(+	c #003800",
"_+	c #035F03",
":+	c #066506",
"<+	c #1D6B1D",
"[+	c #777E77",
"}+	c #878287",
"|+	c #777B77",
"1+	c #526252",
"2+	c #173917",
"3+	c #1D6D1D",
"4+	c #527652",
"5+	c #747E74",
"6+	c #797C79",
"                                                                ",
"                                                                ",
"                                                                ",
"                                                                ",
"                            .   + .                             ",
"                        @ . # $ % & * @                         ",
"                  . = - ; > , ' ) ! ~ { @ ]                     ",
"              . ^ / ( _ : < [ } | 1 2 3 4 5 * 6                 ",
"        . * 7 8 9 0 a b c d e f g h i j k l m n o + .           ",
"    6 * p q r s t u v w x y z A B C D E F G H I J K L M ^ .     ",
"  6 N O P Q R S T U V W X Y A B B Z Z `  ...+.@.#.$.%.&.*.=..   ",
"  -.;.>.,.'.).!.X ~.Y Y Y A B B Z Z {.{.` ].^./.(._.:.<.[.}.^   ",
"  . |.1.2.3.4.:.5.6.7.X A A B 8.Z 9.{.` ` ^.0.a.b.c.d.e.f.g.^   ",
"    . h.i.j.k.#.4.l.m.n.o.p.8.Z 9.{.].q.r.s.t.u.v.w.x.y.z.A.    ",
"        6 - B.C.D.#.E.F.G.H.I.J.` K.L.M.N.O.P.t Q.R.S.@ T.      ",
"            - U.V.W.D.#.X.Y.Z.`.0. +.+++@+#+$+%+&+* .           ",
"                  -.*+=+-+2 ;+>+,+u.'+)+!+~+M 6                 ",
"                    -.{+]+^+/+(+_+:+<+~+[+}+.                   ",
"                        {+|+1+2+3+4+5+^ .                       ",
"                              6+&+                              ",
"                                                                ",
"                                                                ",
"                                                                ",
"                                                                "};
