/* XPM */
static char * deform_object_xpm[] = {
"32 24 379 2",
"  	c #808080",
". 	c #818283",
"+ 	c #808183",
"@ 	c #7C7A75",
"# 	c #7D776D",
"$ 	c #7F7A70",
"% 	c #7F7F7F",
"& 	c #808082",
"* 	c #818181",
"= 	c #828386",
"- 	c #70695C",
"; 	c #6D562E",
"> 	c #78551C",
", 	c #845A15",
"' 	c #966619",
") 	c #9A7232",
"! 	c #837C70",
"~ 	c #7F8184",
"{ 	c #818182",
"] 	c #7C7B7A",
"^ 	c #5F4A25",
"/ 	c #6A4504",
"( 	c #7C4E00",
"_ 	c #8A5700",
": 	c #9B6201",
"< 	c #B67204",
"[ 	c #C77C05",
"} 	c #B5740C",
"| 	c #8F764D",
"1 	c #7E8185",
"2 	c #808081",
"3 	c #777570",
"4 	c #5A4319",
"5 	c #6D4500",
"6 	c #835301",
"7 	c #905B01",
"8 	c #996201",
"9 	c #AA6B02",
"0 	c #C57E04",
"a 	c #D98906",
"b 	c #D48606",
"c 	c #C97C01",
"d 	c #A9741F",
"e 	c #877D6C",
"f 	c #80807F",
"g 	c #7D7D7B",
"h 	c #594625",
"i 	c #663F00",
"j 	c #815201",
"k 	c #925C01",
"l 	c #9D6401",
"m 	c #A66A02",
"n 	c #B57403",
"o 	c #D08505",
"p 	c #E49006",
"q 	c #E28F06",
"r 	c #DE8D07",
"s 	c #D78704",
"t 	c #C37C09",
"u 	c #9D7A41",
"v 	c #857D71",
"w 	c #7E8084",
"x 	c #828283",
"y 	c #615747",
"z 	c #583600",
"A 	c #794D00",
"B 	c #8C5901",
"C 	c #9B6302",
"D 	c #A76B03",
"E 	c #B17205",
"F 	c #C17D07",
"G 	c #D78B08",
"H 	c #EA9508",
"I 	c #E89407",
"J 	c #E59107",
"K 	c #E18E06",
"L 	c #D78603",
"M 	c #BC7E1B",
"N 	c #967A4D",
"O 	c #7D7F83",
"P 	c #7F8082",
"Q 	c #808181",
"R 	c #7D7D7D",
"S 	c #432A00",
"T 	c #6A4300",
"U 	c #935E01",
"V 	c #A26803",
"W 	c #AF7105",
"X 	c #BC7A08",
"Y 	c #CD860C",
"Z 	c #DF910B",
"` 	c #EE9A0A",
" .	c #EF9909",
"..	c #EE9809",
"+.	c #ED9708",
"@.	c #EC9608",
"#.	c #E99408",
"$.	c #E49007",
"%.	c #D78809",
"&.	c #B57D23",
"*.	c #838485",
"=.	c #5A5347",
"-.	c #503200",
";.	c #714800",
">.	c #865601",
",.	c #986102",
"'.	c #A76B04",
").	c #B47508",
"!.	c #C3800D",
"~.	c #D78D11",
"{.	c #E5960F",
"].	c #F19C0C",
"^.	c #F19B0A",
"/.	c #F09A09",
"(.	c #F19A09",
"_.	c #EF9908",
":.	c #E89206",
"<.	c #D48507",
"[.	c #9C7E4F",
"}.	c #83807C",
"|.	c #858688",
"1.	c #41331A",
"2.	c #583800",
"3.	c #744A00",
"4.	c #885701",
"5.	c #9A6203",
"6.	c #A96D06",
"7.	c #B7780B",
"8.	c #C88510",
"9.	c #DD9314",
"0.	c #EA9B12",
"a.	c #F19D0E",
"b.	c #F29D0D",
"c.	c #F29D0C",
"d.	c #F39D0B",
"e.	c #F39C0A",
"f.	c #F39B09",
"g.	c #F19909",
"h.	c #EB9201",
"i.	c #C58622",
"j.	c #96815F",
"k.	c #807F7F",
"l.	c #7F8081",
"m.	c #7B7C7D",
"n.	c #392709",
"o.	c #5A3900",
"p.	c #885601",
"q.	c #996103",
"r.	c #A86D07",
"s.	c #B7780C",
"t.	c #C98511",
"u.	c #DF9515",
"v.	c #EC9D14",
"w.	c #EF9C0F",
"x.	c #F09C0E",
"y.	c #F09D0E",
"z.	c #F39D0C",
"A.	c #F49D0B",
"B.	c #F59D0B",
"C.	c #F59D0A",
"D.	c #F49B08",
"E.	c #E6940D",
"F.	c #BE8933",
"G.	c #877F71",
"H.	c #7C7F85",
"I.	c #727372",
"J.	c #392808",
"K.	c #724900",
"L.	c #855501",
"M.	c #966003",
"N.	c #A56A05",
"O.	c #B4760B",
"P.	c #C78411",
"Q.	c #EA9C14",
"R.	c #ED9B0F",
"S.	c #EC9B0F",
"T.	c #EB9A0E",
"U.	c #EC9A0E",
"V.	c #ED9A0E",
"W.	c #EE9B0D",
"X.	c #EF9B0D",
"Y.	c #F19C0D",
"Z.	c #F39C0C",
"`.	c #F49D0C",
" +	c #EA9811",
".+	c #AD874A",
"++	c #727272",
"@+	c #362408",
"#+	c #553600",
"$+	c #6E4600",
"%+	c #915D02",
"&+	c #9F6705",
"*+	c #AD7109",
"=+	c #C2800E",
"-+	c #D68E12",
";+	c #E59711",
">+	c #E8980E",
",+	c #E7980E",
"'+	c #E6970E",
")+	c #E6970D",
"!+	c #E4960D",
"~+	c #E4950D",
"{+	c #E3940D",
"]+	c #E2940D",
"^+	c #E3940C",
"/+	c #E2940C",
"(+	c #E1920C",
"_+	c #E0910B",
":+	c #DC8F0D",
"<+	c #B0853E",
"[+	c #777879",
"}+	c #2E2008",
"|+	c #4E3100",
"1+	c #684100",
"2+	c #7A4E01",
"3+	c #8A5802",
"4+	c #986103",
"5+	c #A56B06",
"6+	c #B9790B",
"7+	c #CD870E",
"8+	c #DC910E",
"9+	c #E1940D",
"0+	c #E0930D",
"a+	c #DF920C",
"b+	c #DE910C",
"c+	c #DD910C",
"d+	c #DB8F0C",
"e+	c #D98E0B",
"f+	c #D88D0B",
"g+	c #D68B0B",
"h+	c #D2890B",
"i+	c #CE860A",
"j+	c #C9820A",
"k+	c #BE7B06",
"l+	c #A96E09",
"m+	c #926A24",
"n+	c #7D6F56",
"o+	c #7B7E83",
"p+	c #292112",
"q+	c #5E3B00",
"r+	c #724800",
"s+	c #8E5B01",
"t+	c #9B6304",
"u+	c #AE7107",
"v+	c #C27E0A",
"w+	c #D2880A",
"x+	c #D78D0B",
"y+	c #D48A0A",
"z+	c #D2890A",
"A+	c #D0870A",
"B+	c #CE850A",
"C+	c #CA8309",
"D+	c #C58009",
"E+	c #C07C08",
"F+	c #B87707",
"G+	c #AD6F06",
"H+	c #955E00",
"I+	c #7B5718",
"J+	c #796C54",
"K+	c #7B7B7A",
"L+	c #808184",
"M+	c #858586",
"N+	c #43413C",
"O+	c #321F00",
"P+	c #523400",
"Q+	c #674100",
"R+	c #774B00",
"S+	c #825301",
"T+	c #905C02",
"U+	c #A26804",
"V+	c #B57505",
"W+	c #C68007",
"X+	c #CD8408",
"Y+	c #CA8308",
"Z+	c #C88108",
"`+	c #C37F08",
" @	c #BF7C08",
".@	c #BA7907",
"+@	c #B47407",
"@@	c #AC6E06",
"#@	c #A06705",
"$@	c #8C5A01",
"%@	c #6C4602",
"&@	c #6E6149",
"*@	c #7F7E7C",
"=@	c #828282",
"-@	c #6F6F6F",
";@	c #1C1100",
">@	c #422A00",
",@	c #593800",
"'@	c #694300",
")@	c #764B00",
"!@	c #955F01",
"~@	c #B87605",
"{@	c #BF7B07",
"]@	c #BB7907",
"^@	c #B67606",
"/@	c #B17206",
"(@	c #AA6E05",
"_@	c #A26805",
":@	c #965F04",
"<@	c #855502",
"[@	c #6D4806",
"}@	c #634F2E",
"|@	c #7B7B79",
"1@	c #858585",
"2@	c #3A3632",
"3@	c #271600",
"4@	c #472D00",
"5@	c #593900",
"6@	c #674200",
"7@	c #865501",
"8@	c #986101",
"9@	c #A96C03",
"0@	c #AF7005",
"a@	c #A96D05",
"b@	c #A36805",
"c@	c #996303",
"d@	c #8E5C03",
"e@	c #7C4F00",
"f@	c #684404",
"g@	c #624C26",
"h@	c #6F695F",
"i@	c #818284",
"j@	c #757474",
"k@	c #252015",
"l@	c #2C1A00",
"m@	c #462C00",
"n@	c #623E00",
"o@	c #744900",
"p@	c #875501",
"q@	c #976103",
"r@	c #9C6403",
"s@	c #935E03",
"t@	c #895703",
"u@	c #794D01",
"v@	c #613C00",
"w@	c #5D4720",
"x@	c #6F675A",
"y@	c #646463",
"z@	c #1B150B",
"A@	c #2A1A00",
"B@	c #3C2700",
"C@	c #4C3000",
"D@	c #5F3C00",
"E@	c #845402",
"F@	c #764C02",
"G@	c #623D00",
"H@	c #4E3407",
"I@	c #696152",
"J@	c #7E7D7C",
"K@	c #838384",
"L@	c #656566",
"M@	c #1A1710",
"N@	c #1E1402",
"O@	c #2D1C00",
"P@	c #422900",
"Q@	c #563700",
"R@	c #654001",
"S@	c #623F01",
"T@	c #4F3405",
"U@	c #584C36",
"V@	c #7F7F80",
"W@	c #818282",
"X@	c #848484",
"Y@	c #7B7C7C",
"Z@	c #454544",
"`@	c #28241E",
" #	c #2A2110",
".#	c #342407",
"+#	c #48340F",
"@#	c #57472C",
"##	c #726F6A",
"$#	c #838484",
"%#	c #79797A",
"&#	c #6B6A69",
"*#	c #666460",
"=#	c #706E69",
"-#	c #7E7E7E",
"                                                                ",
"                . + @ # $ % &                                   ",
"            * = - ; > , ' ) ! ~                                 ",
"          { ] ^ / ( _ : < [ } | 1 2                             ",
"          3 4 5 6 7 8 9 0 a b c d e f                           ",
"        g h i j k l m n o p q r s t u v w                       ",
"      x y z A B C D E F G H H I J K L M N O P                   ",
"    Q R S T j U V W X Y Z `  ...+.@.#.$.%.&.v P                 ",
"    *.=.-.;.>.,.'.).!.~.{.].].^.^./.(._.+.:.<.[.}.              ",
"    |.1.2.3.4.5.6.7.8.9.0.a.a.b.c.c.d.e.e.f.g.h.i.j.k.l.        ",
"  * m.n.o.3.p.q.r.s.t.u.v.w.w.x.y.a.b.z.z.A.B.C.D.E.F.G.H.      ",
"  * I.J.2.K.L.M.N.O.P.9.Q.R.S.T.U.V.V.W.X.X.Y.Y.Z.`.`. +.+O     ",
"  * ++@+#+$+j %+&+*+=+-+;+>+,+,+'+)+!+~+{+{+{+]+^+/+(+_+:+<+l.  ",
"  * [+}+|+1+2+3+4+5+6+7+8+9+0+a+b+c+d+e+f+g+h+i+j+k+l+m+n+o+    ",
"    |.p+S q+r+j s+t+u+v+w+x+g+y+z+A+B+C+D+E+F+G+H+I+J+K+L+      ",
"    M+N+O+P+Q+R+S+T+U+V+W+X+Y+Z+`+ @.@+@@@#@$@%@&@*@            ",
"    =@-@;@>@,@'@)@6 !@D ~@{@]@^@/@(@_@:@<@[@}@|@.               ",
"      1@2@3@4@5@6@3.7@8@9@0@a@b@c@d@e@f@g@h@i@Q                 ",
"        j@k@l@m@#+n@o@p@q@r@s@t@u@v@w@x@R x                     ",
"          y@z@A@B@C@D@r+S+E@F@G@H@I@J@                          ",
"          K@L@M@N@O@P@Q@R@S@T@U@V@W@                            ",
"            X@Y@Z@`@ #.#+#@###*.                                ",
"              * $#%#&#*#=#-#.                                   ",
"                      * 2                                       "};
