/* XPM */
static char * deformation_pipe_xpm[] = {
"32 24 324 2",
"  	c #808080",
". 	c #818081",
"+ 	c #7E7F7E",
"@ 	c #7D7F7D",
"# 	c #7F807F",
"$ 	c #818181",
"% 	c #707970",
"& 	c #607260",
"* 	c #506C50",
"= 	c #3C683E",
"- 	c #37673A",
"; 	c #2F6332",
"> 	c #2F6233",
", 	c #3A643D",
"' 	c #446847",
") 	c #546F55",
"! 	c #667666",
"~ 	c #777D77",
"{ 	c #838183",
"] 	c #828182",
"^ 	c #747B74",
"/ 	c #386238",
"( 	c #145716",
"_ 	c #02600B",
": 	c #036102",
"< 	c #1F5D00",
"[ 	c #2A5C00",
"} 	c #365900",
"| 	c #365600",
"1 	c #244E00",
"2 	c #174800",
"3 	c #004000",
"4 	c #05460D",
"5 	c #1B561D",
"6 	c #416940",
"7 	c #7C7F7C",
"8 	c #074E07",
"9 	c #005302",
"0 	c #1D6504",
"a 	c #6E6203",
"b 	c #8C5E02",
"c 	c #8F5E02",
"d 	c #905E02",
"e 	c #935E02",
"f 	c #925D02",
"g 	c #915E02",
"h 	c #8A5C02",
"i 	c #5F4F02",
"j 	c #183500",
"k 	c #003F02",
"l 	c #0E530E",
"m 	c #6F7A6F",
"n 	c #878387",
"o 	c #255625",
"p 	c #004B00",
"q 	c #345601",
"r 	c #975D02",
"s 	c #965D02",
"t 	c #975E02",
"u 	c #985E02",
"v 	c #985F02",
"w 	c #995F02",
"x 	c #996002",
"y 	c #9D6102",
"z 	c #3B3701",
"A 	c #024B01",
"B 	c #1C5A1C",
"C 	c #868286",
"D 	c #888688",
"E 	c #1A371A",
"F 	c #034C00",
"G 	c #455401",
"H 	c #995E02",
"I 	c #965E02",
"J 	c #9A6002",
"K 	c #9B6003",
"L 	c #A26203",
"M 	c #725702",
"N 	c #084F02",
"O 	c #095309",
"P 	c #7D7E7D",
"Q 	c #868586",
"R 	c #323C32",
"S 	c #002F00",
"T 	c #074B01",
"U 	c #375401",
"V 	c #725B02",
"W 	c #9A5F02",
"X 	c #A05F02",
"Y 	c #9E6002",
"Z 	c #9D6002",
"` 	c #9F6102",
" .	c #A06102",
"..	c #A46103",
"+.	c #966003",
"@.	c #625A03",
"#.	c #1B5202",
"$.	c #035502",
"%.	c #105B10",
"&.	c #848184",
"*.	c #828282",
"=.	c #6C6F6C",
"-.	c #012001",
";.	c #013F01",
">.	c #084A01",
",.	c #0F4F01",
"'.	c #345402",
").	c #4B5702",
"!.	c #5D5802",
"~.	c #675A02",
"{.	c #565802",
"].	c #4B5703",
"^.	c #295302",
"/.	c #0C4F02",
"(.	c #085603",
"_.	c #055F06",
":.	c #006000",
"<.	c #3E6D3D",
"[.	c #858286",
"}.	c #747874",
"|.	c #0D300B",
"1.	c #023300",
"2.	c #013B00",
"3.	c #004701",
"4.	c #004D01",
"5.	c #005101",
"6.	c #005301",
"7.	c #005802",
"8.	c #005C04",
"9.	c #036005",
"0.	c #066806",
"a.	c #0A6907",
"b.	c #0E6705",
"c.	c #497348",
"d.	c #7B7B7A",
"e.	c #372D1B",
"f.	c #372E00",
"g.	c #2C3C00",
"h.	c #1E4200",
"i.	c #194700",
"j.	c #154F01",
"k.	c #0F5501",
"l.	c #0F5C02",
"m.	c #176203",
"n.	c #1F6705",
"o.	c #2A6C06",
"p.	c #426F07",
"q.	c #6A7205",
"r.	c #8F6D14",
"s.	c #867F7D",
"t.	c #7A7A7A",
"u.	c #362B1A",
"v.	c #4B2E00",
"w.	c #663E00",
"x.	c #6E4800",
"y.	c #704F01",
"z.	c #775701",
"A.	c #7D6102",
"B.	c #856903",
"C.	c #957104",
"D.	c #A17706",
"E.	c #AC7B08",
"F.	c #C27D08",
"G.	c #C87C05",
"H.	c #A8711A",
"I.	c #827F79",
"J.	c #352B1A",
"K.	c #4A2E00",
"L.	c #623E00",
"M.	c #724800",
"N.	c #7E5001",
"O.	c #8D5A02",
"P.	c #9E6402",
"Q.	c #AC6E03",
"R.	c #B77505",
"S.	c #BE7B07",
"T.	c #C17D08",
"U.	c #C17C08",
"V.	c #C07A05",
"W.	c #A4701C",
"X.	c #827F7A",
"Y.	c #492E00",
"Z.	c #714800",
"`.	c #7C5001",
" +	c #8C5A02",
".+	c #9D6402",
"++	c #AB6E03",
"@+	c #B67505",
"#+	c #BE7A07",
"$+	c #C07D08",
"%+	c #C07C08",
"&+	c #C07A04",
"*+	c #A17124",
"=+	c #817F7B",
"-+	c #7B7A7A",
";+	c #362C1A",
">+	c #7C4F01",
",+	c #8C5901",
"'+	c #AB6D03",
")+	c #B57505",
"!+	c #BD7A07",
"~+	c #BF7903",
"{+	c #9F7127",
"]+	c #2D2711",
"^+	c #492D00",
"/+	c #613E00",
"(+	c #7D4F01",
"_+	c #9C6402",
":+	c #B57405",
"<+	c #BF7C08",
"[+	c #BF7B08",
"}+	c #BE7803",
"|+	c #9D722E",
"1+	c #84807F",
"2+	c #858285",
"3+	c #1D581D",
"4+	c #1A2600",
"5+	c #4B2D00",
"6+	c #704800",
"7+	c #8B5901",
"8+	c #AA6D03",
"9+	c #C07806",
"0+	c #696202",
"a+	c #567152",
"b+	c #546F54",
"c+	c #004D00",
"d+	c #1B2901",
"e+	c #4A2D00",
"f+	c #704700",
"g+	c #7B4F01",
"h+	c #9C6302",
"i+	c #B57404",
"j+	c #BC7A06",
"k+	c #666002",
"l+	c #085604",
"m+	c #7E807E",
"n+	c #868386",
"o+	c #375637",
"p+	c #005000",
"q+	c #1A3201",
"r+	c #4B2C00",
"s+	c #603D00",
"t+	c #B47404",
"u+	c #BC7906",
"v+	c #BE7B08",
"w+	c #C17705",
"x+	c #4E5F02",
"y+	c #005400",
"z+	c #577157",
"A+	c #858485",
"B+	c #444B44",
"C+	c #004600",
"D+	c #094C01",
"E+	c #403600",
"F+	c #643C00",
"G+	c #714700",
"H+	c #9B6302",
"I+	c #AA6C02",
"J+	c #C57B08",
"K+	c #987105",
"L+	c #1B5902",
"M+	c #627362",
"N+	c #696C69",
"O+	c #001B00",
"P+	c #004601",
"Q+	c #065201",
"R+	c #2D4901",
"S+	c #644800",
"T+	c #814E01",
"U+	c #8F5901",
"V+	c #9F6302",
"W+	c #AD6C02",
"X+	c #B97504",
"Y+	c #C47A07",
"Z+	c #B27807",
"`+	c #666805",
" @	c #105702",
".@	c #025902",
"+@	c #838383",
"@@	c #4A574A",
"#@	c #012901",
"$@	c #003900",
"%@	c #004B01",
"&@	c #005201",
"*@	c #125101",
"=@	c #2B5502",
"-@	c #445A02",
";@	c #495F02",
">@	c #3B5F03",
",@	c #225C03",
"'@	c #005502",
")@	c #005803",
"!@	c #045F04",
"~@	c #056106",
"{@	c #4E724D",
"]@	c #838283",
"^@	c #576557",
"/@	c #224722",
"(@	c #0B3D0B",
"_@	c #003C00",
":@	c #004400",
"<@	c #004C00",
"[@	c #005100",
"}@	c #005800",
"|@	c #005D00",
"1@	c #006100",
"2@	c #0F6710",
"3@	c #246B24",
"4@	c #5D785D",
"5@	c #7C7D7C",
"6@	c #657165",
"7@	c #4D654D",
"8@	c #3B5F3B",
"9@	c #2C5D2C",
"0@	c #1D5C1D",
"a@	c #226222",
"b@	c #2D692D",
"c@	c #376E37",
"d@	c #4D744D",
"e@	c #657A65",
"f@	c #797E79",
"g@	c #7C7E7C",
"h@	c #7A7E7A",
"i@	c #7B7E7B",
"                      .   + + @ @ + # . .                       ",
"                $ $ % & * = - ; > , ' ) ! ~ { .                 ",
"              ] ^ / ( _ : < [ } | 1 2 3 4 5 6 7 ]               ",
"            . ~ 8 9 0 a b c d e e f g h i j k l m ]             ",
"            n o p q r r s s t t u v w x y w z A B C             ",
"            D E F G s H I t t u v w x J K L M N O P .           ",
"            Q R S T U V W X Y Z Z `  ...+.@.#.$.%.&.            ",
"            *.=.-.S ;.>.,.'.).!.~.{.].^./.(._.:.<.[.            ",
"              $ }.|.1.2.3 3.4.5.6.7.8.9.0.a.b.c.&.              ",
"                d.e.f.g.h.i.j.k.l.m.n.o.p.q.r.s.                ",
"                t.u.v.w.x.y.z.A.B.C.D.E.F.G.H.I.                ",
"                t.J.K.L.M.N.O.P.Q.R.S.T.U.V.W.X.                ",
"                t.J.Y.L.Z.`. +.+++@+#+$+%+&+*+=+                ",
"                -+;+Y.L.Z.>+,+.+'+)+!+%+%+~+{+=+                ",
"                -+]+^+/+Z.(+,+_+'+:+!+<+[+}+|+1+                ",
"              2+3+4+5+/+6+>+7+_+8+:+!+<+[+9+0+a+]               ",
"            &.b+c+d+e+/+f+g+7+h+8+i+j+[+[+9+k+l+m+.             ",
"            n+o+p+q+r+s+f+g+7+h+8+t+u+v+v+w+x+y+z+&.            ",
"            A+B+C+D+E+F+G+>+7+H+I+t+u+[+J+K+L+y+M+{             ",
"            *.N+O+P+Q+R+S+T+U+V+W+X+Y+Z+`+ @.@.@&.              ",
"              +@@@#@$@%@&@*@=@-@;@>@,@'@)@!@~@{@]               ",
"                ]@^@/@(@_@:@<@[@y+}@|@1@2@3@4@{                 ",
"                  ]@5@6@7@8@9@0@a@b@c@d@e@f@]                   ",
"                      .   + g@h@i@7 @   .                       "};
