/* XPM */
static char * deformation_object_xpm[] = {
"32 24 292 2",
"  	c #808080",
". 	c #818081",
"+ 	c #828182",
"@ 	c #848284",
"# 	c #797C79",
"$ 	c #617261",
"% 	c #5A7159",
"& 	c #737B73",
"* 	c #838183",
"= 	c #858285",
"- 	c #878387",
"; 	c #657465",
"> 	c #3D633D",
", 	c #215D21",
"' 	c #08620C",
") 	c #004201",
"! 	c #195019",
"~ 	c #396439",
"{ 	c #667666",
"] 	c #888388",
"^ 	c #848184",
"/ 	c #818181",
"( 	c #7A7D7A",
"_ 	c #486848",
": 	c #155215",
"< 	c #085A09",
"[ 	c #046808",
"} 	c #046E07",
"| 	c #356A06",
"1 	c #444902",
"2 	c #043000",
"3 	c #003501",
"4 	c #064607",
"5 	c #1B581B",
"6 	c #567056",
"7 	c #7D7F7D",
"8 	c #5C715C",
"9 	c #2A5D2A",
"0 	c #004F00",
"a 	c #015E01",
"b 	c #0D6E07",
"c 	c #196F08",
"d 	c #506705",
"e 	c #8C5F02",
"f 	c #9A5C02",
"g 	c #9B5F02",
"h 	c #925D02",
"i 	c #554902",
"j 	c #123400",
"k 	c #043400",
"l 	c #003F00",
"m 	c #0C4F0C",
"n 	c #446844",
"o 	c #757D75",
"p 	c #787B78",
"q 	c #5A705A",
"r 	c #386338",
"s 	c #0F570E",
"t 	c #005A00",
"u 	c #056603",
"v 	c #236E07",
"w 	c #436A06",
"x 	c #706204",
"y 	c #995D02",
"z 	c #9C5C02",
"A 	c #975E02",
"B 	c #995F02",
"C 	c #9F6102",
"D 	c #9B6002",
"E 	c #685001",
"F 	c #343E01",
"G 	c #113700",
"H 	c #003900",
"I 	c #004602",
"J 	c #305E30",
"K 	c #577056",
"L 	c #717A71",
"M 	c #828082",
"N 	c #556455",
"O 	c #003400",
"P 	c #004200",
"Q 	c #005501",
"R 	c #1D6304",
"S 	c #736303",
"T 	c #8A5F03",
"U 	c #985D02",
"V 	c #965D02",
"W 	c #965E02",
"X 	c #985F02",
"Y 	c #9E6103",
"Z 	c #9B6103",
"` 	c #805802",
" .	c #614D02",
"..	c #293D01",
"+.	c #034E02",
"@.	c #195D19",
"#.	c #4F734F",
"$.	c #707670",
"%.	c #143914",
"&.	c #002900",
"*.	c #003500",
"=.	c #044800",
"-.	c #1C4F01",
";.	c #695802",
">.	c #9A5E02",
",.	c #9A6003",
"'.	c #9F6103",
").	c #9E6203",
"!.	c #5F5B03",
"~.	c #115002",
"{.	c #035303",
"].	c #055F04",
"^.	c #006200",
"/.	c #397139",
"(.	c #868186",
"_.	c #838283",
":.	c #546254",
"<.	c #133712",
"[.	c #022C00",
"}.	c #003701",
"|.	c #004601",
"1.	c #1C4F02",
"2.	c #705A02",
"3.	c #915D02",
"4.	c #9A6002",
"5.	c #9B6003",
"6.	c #976103",
"7.	c #8C5F03",
"8.	c #525903",
"9.	c #0A5202",
"0.	c #005503",
"a.	c #046106",
"b.	c #096809",
"c.	c #186918",
"d.	c #517551",
"e.	c #858385",
"f.	c #807E7D",
"g.	c #393809",
"h.	c #162F00",
"i.	c #022D00",
"j.	c #003700",
"k.	c #214F02",
"l.	c #5C5902",
"m.	c #865D02",
"n.	c #9D6002",
"o.	c #9E6102",
"p.	c #8F5F03",
"q.	c #6D5B03",
"r.	c #3D5603",
"s.	c #075403",
"t.	c #005904",
"u.	c #006206",
"v.	c #186906",
"w.	c #3F6E0B",
"x.	c #5C7751",
"y.	c #818082",
"z.	c #808081",
"A.	c #807F7F",
"B.	c #5C3C09",
"C.	c #523700",
"D.	c #3E3400",
"E.	c #1D3000",
"F.	c #002E00",
"G.	c #004101",
"H.	c #1B5101",
"I.	c #485802",
"J.	c #4F5703",
"K.	c #235202",
"L.	c #065603",
"M.	c #005E05",
"N.	c #006205",
"O.	c #196906",
"P.	c #657207",
"Q.	c #9A7708",
"R.	c #BB7C10",
"S.	c #88817B",
"T.	c #838488",
"U.	c #5A3C0B",
"V.	c #563600",
"W.	c #573700",
"X.	c #553700",
"Y.	c #483600",
"Z.	c #193100",
"`.	c #003200",
" +	c #024101",
".+	c #065904",
"++	c #046306",
"@+	c #006506",
"#+	c #1B6906",
"$+	c #7B7507",
"%+	c #B77B08",
"&+	c #BF7C07",
"*+	c #C17C07",
"=+	c #BC7B10",
"-+	c #82807D",
";+	c #838589",
">+	c #593C0B",
",+	c #563700",
"'+	c #583800",
")+	c #5A3800",
"!+	c #153000",
"~+	c #032C00",
"{+	c #0E6C06",
"]+	c #296B06",
"^+	c #857608",
"/+	c #C67E08",
"(+	c #C47C08",
"_+	c #C17C08",
":+	c #C07C07",
"<+	c #C07B07",
"[+	c #BB7B11",
"}+	c #7D8086",
"|+	c #5D3900",
"1+	c #3B3300",
"2+	c #8D7B08",
"3+	c #C87E08",
"4+	c #BF7B07",
"5+	c #B97B14",
"6+	c #7C8088",
"7+	c #593B0B",
"8+	c #553600",
"9+	c #593800",
"0+	c #553500",
"a+	c #CD8208",
"b+	c #C27D07",
"c+	c #BF7A07",
"d+	c #B57B1B",
"e+	c #7C8089",
"f+	c #583B0A",
"g+	c #583700",
"h+	c #5F3C01",
"i+	c #C78007",
"j+	c #BE7A07",
"k+	c #BF7A06",
"l+	c #AF7B24",
"m+	c #7C8087",
"n+	c #838588",
"o+	c #5A3E11",
"p+	c #C57F07",
"q+	c #BE7A06",
"r+	c #AC7B2B",
"s+	c #5F4821",
"t+	c #523200",
"u+	c #5E3C01",
"v+	c #BD7A07",
"w+	c #BF7902",
"x+	c #A87C31",
"y+	c #818182",
"z+	c #79736A",
"A+	c #68573B",
"B+	c #563702",
"C+	c #543400",
"D+	c #C47E07",
"E+	c #BE7A04",
"F+	c #AB7B2B",
"G+	c #8C7F68",
"H+	c #7F8082",
"I+	c #7F7F7E",
"J+	c #7A746C",
"K+	c #604A23",
"L+	c #553400",
"M+	c #5F3D01",
"N+	c #C37E07",
"O+	c #BF7A04",
"P+	c #B17B1F",
"Q+	c #8E7F64",
"R+	c #82807C",
"S+	c #828487",
"T+	c #736958",
"U+	c #5B3E0F",
"V+	c #573802",
"W+	c #6A4302",
"X+	c #C37D07",
"Y+	c #BD7A09",
"Z+	c #B47B19",
"`+	c #947E5A",
" @	c #7F8081",
".@	c #818284",
"+@	c #6C5E45",
"@@	c #5C4215",
"#@	c #694200",
"$@	c #B07C23",
"%@	c #997E50",
"&@	c #7F8083",
"*@	c #7E8083",
"=@	c #818283",
"-@	c #7A7670",
";@	c #786546",
">@	c #978058",
",@	c #858077",
"'@	c #7E8084",
")@	c #80807F",
"                              . .                               ",
"                        + @ # $ % & * +                         ",
"                  . = - ; > , ' ) ! ~ { ] ^                     ",
"              / @ ( _ : < [ } | 1 2 3 4 5 6 . *                 ",
"        . 7 ( 8 9 0 a b c d e f g h i j k l m n o 7             ",
"    . p q r s t u v w x y z A A A B C D E F G H I J K L M       ",
"    @ N O P Q R S T U y V W A X X B B D Y Z `  ...l +.@.#.^     ",
"    + $.%.&.*.=.-.;.>.A W A X X B B ,.,.Z '.).!.~.{.].^./.(.    ",
"      . _.:.<.[.}.|.1.2.3.A B X B 4.5.6.7.8.9.0.a.b.c.d.M       ",
"          e.f.g.h.i.j.) k.l.m.n.o.p.q.r.s.t.u.v.w.x.y.^         ",
"          z.A.B.C.D.E.F.*.G.H.I.J.K.L.M.N.O.P.Q.R.S.z.          ",
"            T.U.V.W.X.Y.Z.F.`. +.+++@+#+$+%+&+*+=+-+z.          ",
"            ;+>+V.,+W.'+)+Y.!+~+{+]+^+/+(+_+:+<+[+}+            ",
"            ;+>+V.,+W.W.'+)+|+1+2+3+3+_+*+:+<+4+5+6+            ",
"            ;+7+8+V.W.W.W.'+9+0+a+b+*+:+:+<+4+c+d+e+            ",
"            ;+f+8+8+,+W.W.'+g+h+i+*+:+<+<+4+j+k+l+m+            ",
"            n+o+8+8+V.W.W.W.W.h+p+*+<+<+4+4+j+q+r+m+            ",
"            n+s+t+8+V.,+W.W.W.u+p+<+<+4+4+j+v+w+x+}+            ",
"            y+z+A+B+C+V.,+W.W.h+D+4+4+j+j+E+w+F+G+H+            ",
"              z.I+J+K+L+V.,+V.M+N+4+j+j+O+P+Q+R+                ",
"                  z.S+T+U+V+0+W+X+k+Y+Z+`+}+ @                  ",
"                      .@  +@@@#@X+$@%@&@*@                      ",
"                        z.=@-@;@>@,@'@                          ",
"                            z.)@                                "};
