/* XPM */
static char * drawpanel_xpm[] = {
"32 24 283 2",
"  	c #808080",
". 	c #7E7F80",
"+ 	c #60462C",
"@ 	c #90612F",
"# 	c #816A53",
"$ 	c #7F8182",
"% 	c #808182",
"& 	c #675B4E",
"* 	c #85592B",
"= 	c #896238",
"- 	c #7D7D7E",
"; 	c #808081",
"> 	c #75726F",
", 	c #71502D",
"' 	c #8D5C28",
") 	c #7C756C",
"! 	c #808183",
"~ 	c #7E7E7E",
"{ 	c #6A5846",
"] 	c #8A5824",
"^ 	c #7E6851",
"/ 	c #808181",
"( 	c #76706B",
"_ 	c #72491E",
": 	c #885F35",
"< 	c #807D7B",
"[ 	c #62482A",
"} 	c #8D5E2C",
"| 	c #807061",
"1 	c #838587",
"2 	c #625343",
"3 	c #845727",
"4 	c #876642",
"5 	c #7E7E7D",
"6 	c #818282",
"7 	c #6F6A66",
"8 	c #745029",
"9 	c #916230",
"0 	c #7B746C",
"a 	c #7D7D7D",
"b 	c #674F37",
"c 	c #905F2C",
"d 	c #7B634A",
"e 	c #818385",
"f 	c #6F655B",
"g 	c #7F5528",
"h 	c #845D33",
"i 	c #7D7E7F",
"j 	c #818180",
"k 	c #828280",
"l 	c #83837F",
"m 	c #84847F",
"n 	c #85857F",
"o 	c #7C7B79",
"p 	c #6A4C2C",
"q 	c #8D5D27",
"r 	c #847B69",
"s 	c #898880",
"t 	c #817F80",
"u 	c #706E83",
"v 	c #615E86",
"w 	c #504C89",
"x 	c #413D8D",
"y 	c #302F91",
"z 	c #46468C",
"A 	c #86867F",
"B 	c #838380",
"C 	c #87877F",
"D 	c #7A7984",
"E 	c #635750",
"F 	c #895A23",
"G 	c #5A3E53",
"H 	c #29258D",
"I 	c #151C93",
"J 	c #0B1E95",
"K 	c #092996",
"L 	c #083397",
"M 	c #063F98",
"N 	c #054899",
"O 	c #033F9A",
"P 	c #02059B",
"Q 	c #47478C",
"R 	c #87877E",
"S 	c #7F7F80",
"T 	c #7A7A81",
"U 	c #787881",
"V 	c #777781",
"W 	c #6B6C83",
"X 	c #565886",
"Y 	c #41448A",
"Z 	c #2D328D",
"` 	c #192090",
" .	c #031293",
"..	c #001497",
"+.	c #6D6662",
"@.	c #90856A",
"#.	c #134384",
"$.	c #014C97",
"%.	c #034E97",
"&.	c #034F97",
"*.	c #034E98",
"=.	c #034E99",
"-.	c #034D9A",
";.	c #04509B",
">.	c #04429B",
",.	c #03079C",
"'.	c #4D4C8C",
").	c #6C6C7A",
"!.	c #252484",
"~.	c #0D128F",
"{.	c #001E92",
"].	c #002093",
"^.	c #002A93",
"/.	c #003594",
"(.	c #004094",
"_.	c #004A95",
":.	c #024D97",
"<.	c #00488D",
"[.	c #475252",
"}.	c #1B5691",
"|.	c #004B99",
"1.	c #034B97",
"2.	c #034C97",
"3.	c #034C98",
"4.	c #034D99",
"5.	c #044E9A",
"6.	c #044E9B",
"7.	c #04509C",
"8.	c #033F9C",
"9.	c #070D9C",
"0.	c #504E8C",
"a.	c #797979",
"b.	c #1E1E70",
"c.	c #000190",
"d.	c #014192",
"e.	c #024D93",
"f.	c #024B93",
"g.	c #024A94",
"h.	c #024F8C",
"i.	c #00FF0C",
"j.	c #000000",
"k.	c #004085",
"l.	c #014B98",
"m.	c #044D9A",
"n.	c #044F9C",
"o.	c #04509D",
"p.	c #03399E",
"q.	c #070D9D",
"r.	c #504F8C",
"s.	c #86867E",
"t.	c #838381",
"u.	c #585864",
"v.	c #040389",
"w.	c #001093",
"x.	c #024C93",
"y.	c #034D90",
"z.	c #034E92",
"A.	c #034C95",
"B.	c #034B96",
"C.	c #044D99",
"D.	c #054F9D",
"E.	c #05519D",
"F.	c #04379E",
"G.	c #04049F",
"H.	c #57578B",
"I.	c #878782",
"J.	c #22225F",
"K.	c #000095",
"L.	c #022E94",
"M.	c #024C94",
"N.	c #034A95",
"O.	c #034B93",
"P.	c #054F9C",
"Q.	c #05509D",
"R.	c #05509E",
"S.	c #05539E",
"T.	c #04369F",
"U.	c #05039F",
"V.	c #58588A",
"W.	c #828282",
"X.	c #6F6F6E",
"Y.	c #030277",
"Z.	c #010E98",
"`.	c #034495",
" +	c #034B95",
".+	c #034A97",
"++	c #034C99",
"@+	c #044F9A",
"#+	c #04519B",
"$+	c #054A9C",
"%+	c #05449C",
"&+	c #053F9D",
"*+	c #04399D",
"=+	c #03309F",
"-+	c #0328A2",
";+	c #0105A6",
">+	c #0605A7",
",+	c #61618B",
"'+	c #848483",
")+	c #424263",
"!+	c #00008D",
"~+	c #022A96",
"{+	c #034D98",
"]+	c #045099",
"^+	c #045199",
"/+	c #04529A",
"(+	c #044199",
"_+	c #03379A",
":+	c #042C9A",
"<+	c #04229A",
"[+	c #02189D",
"}+	c #0011A3",
"|+	c #000AA9",
"1+	c #0003AE",
"2+	c #0000B1",
"3+	c #100DAD",
"4+	c #221FA7",
"5+	c #37369F",
"6+	c #44449A",
"7+	c #6D6D88",
"8+	c #77777B",
"9+	c #13136B",
"0+	c #000399",
"a+	c #034597",
"b+	c #034D97",
"c+	c #034F98",
"d+	c #034598",
"e+	c #033798",
"f+	c #032A98",
"g+	c #031C98",
"h+	c #020D99",
"i+	c #01069D",
"j+	c #0005A4",
"k+	c #0002AB",
"l+	c #0000B2",
"m+	c #0303B6",
"n+	c #1A19AF",
"o+	c #3332A4",
"p+	c #4A4A99",
"q+	c #61618F",
"r+	c #757585",
"s+	c #787884",
"t+	c #7A7A83",
"u+	c #7D7D82",
"v+	c #7F7F81",
"w+	c #80807F",
"x+	c #50506E",
"y+	c #000086",
"z+	c #011498",
"A+	c #011E9A",
"B+	c #010F9A",
"C+	c #02019B",
"D+	c #05019F",
"E+	c #0705A4",
"F+	c #0A08AB",
"G+	c #0C0BB0",
"H+	c #1413B3",
"I+	c #2A2AAB",
"J+	c #4242A0",
"K+	c #5B5B93",
"L+	c #717188",
"M+	c #85857E",
"N+	c #83837E",
"O+	c #82827F",
"P+	c #81817F",
"Q+	c #757574",
"R+	c #232384",
"S+	c #110FA5",
"T+	c #1C19A6",
"U+	c #2625A7",
"V+	c #3232A7",
"W+	c #4444A0",
"X+	c #545497",
"Y+	c #68688D",
"Z+	c #7A7A84",
"`+	c #88887C",
" @	c #87877D",
".@	c #85857D",
"+@	c #6D6D85",
"@@	c #69698C",
"#@	c #747487",
"$@	c #7E7E82",
"%@	c #84847E",
"                                    . + @ # $                   ",
"                                  % & * = - ;                   ",
"                                ; > , ' ) !                     ",
"                                ~ { ] ^ %                       ",
"                              / ( _ : <                         ",
"                            ; - [ } |                           ",
"                            1 2 3 4 5                           ",
"                          6 7 8 9 0 %                           ",
"                          a b c d e                             ",
"                          f g h i j j k l m n m                 ",
"                      j o p q r s t u v w x y z A               ",
"          j k B m n C D E F G H I J K L M N O P Q R             ",
"  S T U V W X Y Z `  ...+.@.#.$.%.&.*.=.=.-.;.>.,.'.k           ",
"  ).!.~.{.].^./.(._.:.<.[.}.|.1.2.3.4.4.-.5.6.7.8.9.0.j         ",
"  a.b.c.d.e.f.g.g.h.i.j.k.l.1.3.3.3.4.m.5.6.6.n.o.p.q.r.s.      ",
"  t.u.v.w.x.g.g.y.i.z.A.B.1.3.3.3.C.m.5.6.6.n.n.D.E.F.G.H.A     ",
"    I.J.K.L.M.N.O.i.1.1.1.2.3.3.C.C.5.6.6.6.P.D.Q.R.S.T.U.V.j   ",
"    W.X.Y.Z.`. +B..+1.2.2.3.++C.C.5.@+;.#+P.$+%+&+*+=+-+;+>+,+  ",
"      '+)+!+~+B.1.1.2.{+*.]+^+/+m.(+_+:+<+[+}+|+1+2+3+4+5+6+7+  ",
"        8+9+0+a+b+&.c+d+e+f+g+h+i+j+k+l+m+n+o+p+q+r+s+t+u+v+    ",
"        w+x+y+z+A+B+C+D+E+F+G+H+I+J+K+L+s.M+N+O+P+              ",
"          Q+R+S+T+U+V+W+X+Y+Z+`+ @.@N+O+                        ",
"          j +@@@#@$@%@%@N+O+j                                   ",
"                                                                "};
