/* XPM */
static char * draw_transwire_xpm[] = {
"25 25 460 2",
"  	c None",
". 	c #CBD1E7",
"+ 	c #CDD6E7",
"@ 	c #C3D2D9",
"# 	c #C2D7D0",
"$ 	c #CEEAD4",
"% 	c #B5D2B3",
"& 	c #C9E4C5",
"* 	c #C6DAC1",
"= 	c #CCD7CF",
"- 	c #CDCED2",
"; 	c #CEC8D4",
"> 	c #DDD2E0",
", 	c #D9CED6",
"' 	c #DACFD5",
") 	c #E1D8DD",
"! 	c #D5D7D4",
"~ 	c #CBE6D7",
"{ 	c #DCE5D4",
"] 	c #E5B0AA",
"^ 	c #BE4B4E",
"/ 	c #E63440",
"( 	c #FF2934",
"_ 	c #FF2E31",
": 	c #FF1D15",
"< 	c #FF2E18",
"[ 	c #D6D4E9",
"} 	c #C2C4D3",
"| 	c #CCD3D9",
"1 	c #D1E0D9",
"2 	c #B9CEBB",
"3 	c #C3DBC1",
"4 	c #CAE1C7",
"5 	c #BECFBC",
"6 	c #CCD6CE",
"7 	c #CED2D5",
"8 	c #D4D1DA",
"9 	c #D6CED9",
"0 	c #CEC7CE",
"a 	c #CFCBCC",
"b 	c #CFCBC8",
"c 	c #C2C8BE",
"d 	c #B3C8B5",
"e 	c #D2D7C3",
"f 	c #E6BAAF",
"g 	c #FFB6B0",
"h 	c #D73E40",
"i 	c #EE3233",
"j 	c #EE1E1A",
"k 	c #FF3E32",
"l 	c #F72F18",
"m 	c #D6C7DA",
"n 	c #E7DBE7",
"o 	c #D1CBCB",
"p 	c #C8C9C1",
"q 	c #E0E8D9",
"r 	c #C2CDBF",
"s 	c #D0DCD0",
"t 	c #CED8D0",
"u 	c #D0D6D2",
"v 	c #CDD1D0",
"w 	c #D4D5D9",
"x 	c #CACBCF",
"y 	c #CFD0D2",
"z 	c #D5DAD4",
"A 	c #D8E1D0",
"B 	c #D9E5CD",
"C 	c #E2ECD3",
"D 	c #BCBAA1",
"E 	c #FFE3CB",
"F 	c #FFC6B1",
"G 	c #FFB5A2",
"H 	c #BF3E2B",
"I 	c #D83B28",
"J 	c #D72815",
"K 	c #EE341F",
"L 	c #E9D5E1",
"M 	c #D5C4CA",
"N 	c #D8CEC5",
"O 	c #DFDBCF",
"P 	c #D0CFCA",
"Q 	c #CED0CF",
"R 	c #BCBFC6",
"S 	c #CED1D8",
"T 	c #D1D5D6",
"U 	c #C9CECA",
"V 	c #D2D3D5",
"W 	c #CBCFD0",
"X 	c #D5D9D8",
"Y 	c #C4CCC1",
"Z 	c #C0CBAD",
"` 	c #CAD0AC",
" .	c #000000",
"..	c #FFC5A6",
"+.	c #CA4E34",
"@.	c #D83D29",
"#.	c #EA3426",
"$.	c #D2C6CA",
"%.	c #E1D6D2",
"&.	c #D3CCB9",
"*.	c #D3D0BD",
"=.	c #D0CCCD",
"-.	c #D8D4E5",
";.	c #C1BDD8",
">.	c #D4D3DB",
",.	c #D0D0CE",
"'.	c #D1D1CF",
").	c #D4D4D2",
"!.	c #D4D4D4",
"~.	c #B8A189",
"{.	c #C9AB95",
"].	c #E2C5AE",
"^.	c #BEA187",
"/.	c #B38E74",
"(.	c #DF4C3C",
"_.	c #EB302B",
":.	c #D0D1CC",
"<.	c #D3D5C8",
"[.	c #D1D5BA",
"}.	c #DFE2CF",
"|.	c #D1CFDA",
"1.	c #8B85A8",
"2.	c #D1CADA",
"3.	c #E0DCDB",
"4.	c #D2CDCA",
"5.	c #D7CFCD",
"6.	c #D4C9CD",
"7.	c #CEB990",
"8.	c #D3B396",
"9.	c #DDB89D",
"0.	c #DDBEA1",
"a.	c #DFC3A5",
"b.	c #E0C3A5",
"c.	c #CEA78D",
"d.	c #CF9883",
"e.	c #E7745F",
"f.	c #D63F36",
"g.	c #BBD3C6",
"h.	c #D7EEDA",
"i.	c #C7DCBB",
"j.	c #C2D1BE",
"k.	c #CBCFE8",
"l.	c #938BBE",
"m.	c #A49AB3",
"n.	c #E2D9DC",
"o.	c #D3C7C7",
"p.	c #DBCBCC",
"q.	c #E1CAD2",
"r.	c #CEBE9F",
"s.	c #CEAD89",
"t.	c #D1B591",
"u.	c #CFB894",
"v.	c #CDB896",
"w.	c #D7C0A0",
"x.	c #C8AB8F",
"y.	c #C39F85",
"z.	c #BF917D",
"A.	c #C6E7DC",
"B.	c #A5C6B5",
"C.	c #CBE8CC",
"D.	c #C9DDD4",
"E.	c #9793C4",
"F.	c #7D74AB",
"G.	c #D0CACE",
"H.	c #D2C8C6",
"I.	c #E3D3D3",
"J.	c #E9D2DA",
"K.	c #DBC9A9",
"L.	c #CFBA8D",
"M.	c #E5CCA1",
"N.	c #C5AD88",
"O.	c #C9B591",
"P.	c #BBDED8",
"Q.	c #C2E1D9",
"R.	c #B5CDBF",
"S.	c #C7D6DD",
"T.	c #948DCB",
"U.	c #7A71AF",
"V.	c #B7B8BB",
"W.	c #D3D4CC",
"X.	c #D2CFC6",
"Y.	c #E1D7D6",
"Z.	c #CABF9D",
"`.	c #D3C797",
" +	c #D1C393",
".+	c #DBCB9C",
"++	c #D1BD92",
"@+	c #BB9F81",
"#+	c #B79E82",
"$+	c #C0AA8F",
"%+	c #857358",
"&+	c #B8CFD5",
"*+	c #CCE1E6",
"=+	c #D0DEE1",
"-+	c #9990C5",
";+	c #8881C2",
">+	c #6A6D85",
",+	c #BCD1BE",
"'+	c #BCD3B9",
")+	c #B3B583",
"!+	c #BEB987",
"~+	c #CFC393",
"{+	c #DAC79C",
"]+	c #D5BE97",
"^+	c #C3A386",
"/+	c #C2A489",
"(+	c #C2A88E",
"_+	c #A08B71",
":+	c #CBCDE2",
"<+	c #CCCDE2",
"[+	c #C9C0DD",
"}+	c #9B89C8",
"|+	c #768195",
"1+	c #9BBFA5",
"2+	c #9DC0A0",
"3+	c #86A979",
"4+	c #A6A676",
"5+	c #BBAD81",
"6+	c #D4C197",
"7+	c #D9C19B",
"8+	c #C5A587",
"9+	c #C6A58A",
"0+	c #C2A287",
"a+	c #A2866B",
"b+	c #D8CFEE",
"c+	c #D6CAEE",
"d+	c #9C88B8",
"e+	c #A38DDD",
"f+	c #657A87",
"g+	c #A1D5AF",
"h+	c #94CDA2",
"i+	c #9ED8AA",
"j+	c #9ED5A0",
"k+	c #B4AF83",
"l+	c #CCBF98",
"m+	c #C2A987",
"n+	c #C1A283",
"o+	c #C3A185",
"p+	c #A88669",
"q+	c #DACEF2",
"r+	c #CFBEEB",
"s+	c #A38DC6",
"t+	c #9E88D6",
"u+	c #7981AB",
"v+	c #9CDDAA",
"w+	c #9BE7AB",
"x+	c #82CB8E",
"y+	c #9DCB95",
"z+	c #93B381",
"A+	c #B5C093",
"B+	c #C0B28C",
"C+	c #BBA27F",
"D+	c #C9A787",
"E+	c #AF896A",
"F+	c #DDD7FB",
"G+	c #9383B3",
"H+	c #AB93DF",
"I+	c #938FCA",
"J+	c #7482A1",
"K+	c #9FD9B4",
"L+	c #91E59C",
"M+	c #82D78F",
"N+	c #91DA9F",
"O+	c #A0DFA7",
"P+	c #82A976",
"Q+	c #BFB28B",
"R+	c #BBA17C",
"S+	c #CBA785",
"T+	c #CBA380",
"U+	c #B6C1E1",
"V+	c #9992C5",
"W+	c #9786CF",
"X+	c #9899CB",
"Y+	c #6C8195",
"Z+	c #97D5A8",
"`+	c #87E08D",
" @	c #88DE8F",
".@	c #82CD93",
"+@	c #90CB97",
"@@	c #8CB484",
"#@	c #BEA985",
"$@	c #C3A17E",
"%@	c #C9A37E",
"&@	c #C8A37D",
"*@	c #82879F",
"=@	c #8B85BB",
"-@	c #9189C5",
";@	c #8891B4",
">@	c #9CC7B5",
",@	c #81BD8F",
"'@	c #8DE08F",
")@	c #7ED084",
"!@	c #89D299",
"~@	c #8DC995",
"{@	c #98C191",
"]@	c #9E9A72",
"^@	c #CBA985",
"/@	c #C8A07C",
"(@	c #CBA37D",
"_@	c #C8C8D2",
":@	c #8B8AA9",
"<@	c #8D8EB2",
"[@	c #8090A3",
"}@	c #97976D",
"|@	c #C4A581",
"1@	c #C79F7C",
"2@	c #CEA37F",
"3@	c #DEDADB",
"4@	c #C3C0C7",
"5@	c #A7A5BA",
"6@	c #90B29D",
"7@	c #92BD99",
"8@	c #92CB92",
"9@	c #79BA80",
"0@	c #88CA95",
"a@	c #85B987",
"b@	c #9AC091",
"c@	c #A6A882",
"d@	c #C3A787",
"e@	c #C5A081",
"f@	c #CA9F81",
"g@	c #C9C8C6",
"h@	c #D3D2D7",
"i@	c #E1E0EE",
"j@	c #D4D9EF",
"k@	c #C1CAE7",
"l@	c #BDCDE7",
"m@	c #98B2BF",
"n@	c #8CAB98",
"o@	c #86AD8B",
"p@	c #85B985",
"q@	c #93CE99",
"r@	c #81BD8E",
"s@	c #89BF93",
"t@	c #8DAE89",
"u@	c #A6A788",
"v@	c #C1A78D",
"w@	c #C6A58C",
"x@	c #C9A48B",
"y@	c #D5D4CF",
"z@	c #C9C9C7",
"A@	c #C6C9D2",
"B@	c #C4CADA",
"C@	c #C1C9E0",
"D@	c #C8D7EC",
"E@	c #C8DEE9",
"F@	c #B6D5D0",
"G@	c #89B189",
"H@	c #92BF91",
"I@	c #88BA94",
"J@	c #83B08E",
"K@	c #9DC2A4",
"L@	c #9BA98F",
"M@	c #ADAD96",
"N@	c #D1BAA7",
"O@	c #D6D8CB",
"P@	c #D1D4CD",
"Q@	c #D6DADD",
"R@	c #D7DEE8",
"S@	c #C9D2E3",
"T@	c #BDCADA",
"U@	c #C0D3DA",
"V@	c #C6E1DC",
"W@	c #B0C7B7",
"X@	c #7E9E7D",
"Y@	c #86AA83",
"Z@	c #93BB95",
"`@	c #7BA483",
" #	c #85A590",
".#	c #ADBFAE",
"+#	c #9FA798",
"@#	c #8D897D",
"##	c #C9B3A6",
"$#	c #D2D6C5",
"%#	c #CBD1C5",
"&#	c #C3C9C5",
"*#	c #BFC7CA",
"=#	c #C6CED9",
"-#	c #CAD7E0",
";#	c #C9D8DD",
">#	c #C2D7D2",
",#	c #C9E4D1",
"'#	c #B1C7B2",
")#	c #8EAB8D",
"!#	c #7F9D81",
"~#	c #84A38A",
"{#	c #B0C1B9",
"]#	c #C8D8CD",
"^#	c #B1AAA2",
"/#	c #908279",
"(#	c #CCB8AF",
"_#	c #E8D2C7",
":#	c #E3CDC0",
"<#	c #C5CDB8",
"[#	c #D6DFCE",
"}#	c #DCE3DB",
"|#	c #D4DDDA",
"1#	c #D0DADC",
"2#	c #CCD7DB",
"3#	c #C7D5D6",
"4#	c #C9DAD4",
"5#	c #C3D8C7",
"6#	c #BCD4BC",
"7#	c #B4CFB0",
"8#	c #B9CEC7",
"9#	c #C9D5D5",
"0#	c #D3D9D9",
"a#	c #D8D6D7",
"b#	c #E9DFE0",
"c#	c #D3C5C4",
"d#	c #E1D3D0",
"e#	c #CFC2BC",
"f#	c #D8CFC6",
"g#	c #CED8C0",
"h#	c #C8D1BE",
"i#	c #BFCABC",
"j#	c #C6D0C8",
"k#	c #D1DAD7",
"l#	c #C9D3D2",
"m#	c #C2CCCB",
"n#	c #CBD8D1",
"o#	c #C9D7CA",
"p#	c #CBDCC9",
"q#	c #C7D9C3",
"r#	c #C7DBC2",
"s#	c #C2D5BF",
"t#	c #BDD0BC",
"u#	c #C5DAC9",
"v#	c #CADBD1",
"w#	c #D2DCDD",
"x#	c #D1D4D9",
"y#	c #C6C3CA",
"z#	c #DBD5D9",
"A#	c #CFC4CA",
"B#	c #DDD3D4",
"C#	c #D3CBC9",
"D#	c #DFDCD7",
"E#	c #D3D4CE",
"F#	c #CDD7BF",
"G#	c #CDD6C1",
"H#	c #CDD5C6",
"I#	c #CDD5CA",
"J#	c #CDD4CD",
"K#	c #CBD4CF",
"L#	c #CBD5CD",
"M#	c #CBD5CA",
"N#	c #CBD6C8",
"O#	c #CBD6C6",
"P#	c #CAD7C6",
"Q#	c #CAD6C8",
"R#	c #CAD6CC",
"S#	c #D1D2D6",
"T#	c #D3D0D7",
"U#	c #D6CFD7",
"V#	c #D8CFD4",
"W#	c #D9CED4",
"X#	c #D8CFD0",
"Y#	c #D5D1CE",
"Z#	c #D2D3CD",
"`#	c #CCD6CD",
". + @ # $ % & * = - ; > , ' ) ! ~ { ] ^ / ( _ : < ",
"[ } | 1 2 3 4 5 6 7 8 9 0 a b c d e f g h i j k l ",
"m n o p q r s t u v w x y z A B C D E F G H I J K ",
"L M N O P Q R S T U V W X Y Z `  . . . . ...+.@.#.",
"$.%.&.*.=.-. .;.>.,.'.).!. . . .~.{.].^./. . .(._.",
":.<.[.}.|. .1. .2.3.4.5.6. .7. .8.9.0.a.b.c.d.e.f.",
"g.h.i.j.k. .l. .m.n.o.p.q. .r.7. .s.t.u.v.w.x.y.z.",
"A.B.C.D. .E. .F. .G.H.I.J. .K.L.M. . .N.O. . . . .",
"P.Q.R.S. .T. .U. .V.W.X.Y. .Z.`. +.+++ . .@+#+$+%+",
"&+*+=+ .-+ . .;+>+ .,+'+ . . .)+!+~+{+]+ .^+/+(+_+",
":+<+[+ .}+ . . .|+ . . .1+2+3+ .4+5+6+7+ .8+9+0+a+",
"b+c+ .d+ .e+ . .f+ .g+ .h+i+j+ . . .k+l+ .m+n+o+p+",
"q+r+ .s+ .t+ .u+ . .v+ .w+ .x+ .y+z+ .A+ .B+C+D+E+",
"F+ .G+ .H+ .I+J+ .K+ .L+ .M+ .N+O+ .P+ . .Q+R+S+T+",
"U+ .V+ .W+ .X+Y+ .Z+ .`+ . @ ..@ .+@@@ . .#@$@%@&@",
" .*@ .=@-@ .;@ .>@,@ .'@ .)@ .!@ .~@{@ .]@ .^@/@(@",
"_@ . .:@<@ .[@ . . . . . . . . . . . . .}@ .|@1@2@",
"3@4@5@ . . . . .6@7@ .8@ .9@ .0@ .a@b@ .c@ .d@e@f@",
"g@h@i@j@k@l@m@ .n@o@ .p@ .q@ .r@s@ .t@ .u@ .v@w@x@",
"y@z@A@B@C@D@E@F@ . .G@H@ . . .I@J@K@ .L@M@ .N@ . .",
"O@P@Q@R@S@T@U@V@W@ .X@Y@ .Z@`@ . # ..#+#@# . . .##",
"$#%#&#*#=#-#;#>#,#'# . .)#!#~# . .{#]#c ^#/#(#_#:#",
"<#[#}#|#1#2#3#4#5#6#7# . . . . .8#9#0#a#b#c#d#e#f#",
"g#h#i#j#k#l#m#n#o#p#q#r#s#t#u#v#w#x#y#z#A#B#C#D#E#",
"F#G#H#I#J#K#K#L#M#N#O#P#P#Q#R#K#S#T#U#V#W#X#Y#Z#`#"};
