/* XPM */
static char * ellipse_two_vertex_point_xpm[] = {
"32 24 297 2",
"  	c #808080",
". 	c #818081",
"+ 	c #7E807E",
"@ 	c #7C807C",
"# 	c #7D817D",
"$ 	c #808081",
"% 	c #848084",
"& 	c #7F7D7F",
"* 	c #6D7F6D",
"= 	c #5C875C",
"- 	c #518F51",
"; 	c #439A42",
"> 	c #389F36",
", 	c #37A735",
"' 	c #39A838",
") 	c #43A542",
"! 	c #4F9F4E",
"~ 	c #5F945E",
"{ 	c #808164",
"] 	c #858572",
"^ 	c #827E82",
"/ 	c #838083",
"( 	c #827D82",
"_ 	c #537F52",
": 	c #2E972D",
"< 	c #1FAE1E",
"[ 	c #0DBB0C",
"} 	c #03BD01",
"| 	c #01B700",
"1 	c #01B100",
"2 	c #00AE00",
"3 	c #01B200",
"4 	c #02BE00",
"5 	c #04D004",
"6 	c #399D08",
"7 	c #ABA90F",
"8 	c #D5CE1E",
"9 	c #6C9D53",
"0 	c #847B85",
"a 	c #827E83",
"b 	c #868086",
"c 	c #637B62",
"d 	c #169416",
"e 	c #10B70E",
"f 	c #09B908",
"g 	c #009D00",
"h 	c #137C12",
"i 	c #387338",
"j 	c #507150",
"k 	c #5D725D",
"l 	c #5D6E5D",
"m 	c #5C6F5C",
"n 	c #4E6A4E",
"o 	c #306732",
"p 	c #4E5E03",
"q 	c #BAB908",
"r 	c #F0E20B",
"s 	c #49DD11",
"t 	c #21D321",
"u 	c #699169",
"v 	c #847D84",
"w 	c #7C7E7C",
"x 	c #3D823D",
"y 	c #06A805",
"z 	c #0BB60A",
"A 	c #0C990B",
"B 	c #307430",
"C 	c #6E746E",
"D 	c #868186",
"E 	c #838183",
"F 	c #828182",
"G 	c #818181",
"H 	c #858386",
"I 	c #5B5A49",
"J 	c #696903",
"K 	c #86840B",
"L 	c #149609",
"M 	c #0ECF0D",
"N 	c #15E613",
"O 	c #59A458",
"P 	c #7F817F",
"Q 	c #7A7E7A",
"R 	c #328631",
"S 	c #04AC03",
"T 	c #07A705",
"U 	c #2E852D",
"V 	c #6B776B",
"W 	c #878087",
"X 	c #828283",
"Y 	c #6F6F70",
"Z 	c #77757A",
"` 	c #576058",
" .	c #1B6C1A",
"..	c #06B105",
"+.	c #0CE80B",
"@.	c #53AB51",
"#.	c #827D83",
"$.	c #2F7F2F",
"%.	c #02A901",
"&.	c #08A207",
"*.	c #4D814D",
"=.	c #818182",
"-.	c #848284",
";.	c #727472",
">.	c #2A662A",
",.	c #05AB04",
"'.	c #11E50F",
").	c #5CA15B",
"!.	c #857C85",
"~.	c #457545",
"{.	c #05A103",
"].	c #07AB05",
"^.	c #4E854E",
"/.	c #7F7F7F",
"(.	c #717371",
"_.	c #196719",
":.	c #0ABE09",
"<.	c #1BE019",
"[.	c #778677",
"}.	c #817F81",
"|.	c #737873",
"1.	c #0B8909",
"2.	c #07B106",
"3.	c #2D962B",
"4.	c #7E7E7E",
"5.	c #4F5F4F",
"6.	c #078406",
"7.	c #0FD30E",
"8.	c #4BB04A",
"9.	c #837D83",
"0.	c #407541",
"a.	c #08A107",
"b.	c #0CB40B",
"c.	c #638363",
"d.	c #7F7A7F",
"e.	c #115E11",
"f.	c #08B907",
"g.	c #2DC52C",
"h.	c #7E817E",
"i.	c #7D7C7E",
"j.	c #297A26",
"k.	c #00AD04",
"l.	c #15AB1B",
"m.	c #857D84",
"n.	c #878387",
"o.	c #305A31",
"p.	c #009F03",
"q.	c #1EC520",
"r.	c #718A72",
"s.	c #797961",
"t.	c #969C0B",
"u.	c #D2E808",
"v.	c #8FBA2E",
"w.	c #7F7B87",
"x.	c #848386",
"y.	c #4C5F40",
"z.	c #429C00",
"A.	c #3FC21B",
"B.	c #6D8B6F",
"C.	c #747457",
"D.	c #949403",
"E.	c #DFDD0B",
"F.	c #C0BF24",
"G.	c #7B7B87",
"H.	c #7D7D84",
"I.	c #6F6E0E",
"J.	c #C6C209",
"K.	c #E7E016",
"L.	c #949368",
"M.	c #71736E",
"N.	c #466114",
"O.	c #5F9601",
"P.	c #51A336",
"Q.	c #847D86",
"R.	c #807E84",
"S.	c #4B530D",
"T.	c #989104",
"U.	c #B3B216",
"V.	c #8A8A6B",
"W.	c #246D26",
"X.	c #04B607",
"Y.	c #1EDA1E",
"Z.	c #857A85",
"`.	c #757975",
" +	c #106E0C",
".+	c #238C04",
"++	c #518E35",
"@+	c #848184",
"#+	c #436842",
"$+	c #07A306",
"%+	c #14E512",
"&+	c #5E9C5E",
"*+	c #837E83",
"=+	c #847F84",
"-+	c #3D723D",
";+	c #079A07",
">+	c #0CB10B",
",+	c #658466",
"'+	c #828082",
")+	c #757375",
"!+	c #0D740C",
"~+	c #0BD109",
"{+	c #2DD52A",
"]+	c #7A837A",
"^+	c #627861",
"/+	c #108C0F",
"(+	c #05AF04",
"_+	c #319431",
":+	c #867E87",
"<+	c #868386",
"[+	c #4D644D",
"}+	c #029001",
"|+	c #0DE80B",
"1+	c #3FC03D",
"2+	c #7D807D",
"3+	c #647A64",
"4+	c #188817",
"5+	c #01AB00",
"6+	c #1D991B",
"7+	c #7D7D7D",
"8+	c #837F83",
"9+	c #436B43",
"0+	c #019E00",
"a+	c #0FED0C",
"b+	c #33CC32",
"c+	c #738474",
"d+	c #877B87",
"e+	c #817C81",
"f+	c #477A47",
"g+	c #149613",
"h+	c #01AD00",
"i+	c #1E951D",
"j+	c #708070",
"k+	c #7D7E7D",
"l+	c #446944",
"m+	c #049703",
"n+	c #11E40F",
"o+	c #1AEB17",
"p+	c #48A647",
"q+	c #5D7B5D",
"r+	c #1E8E1D",
"s+	c #0EAD0D",
"t+	c #06AF04",
"u+	c #258B25",
"v+	c #737F73",
"w+	c #576557",
"x+	c #0F7C0E",
"y+	c #0EC10D",
"z+	c #0FEC0C",
"A+	c #12DE0F",
"B+	c #39AD38",
"C+	c #5C905B",
"D+	c #758675",
"E+	c #788478",
"F+	c #788378",
"G+	c #778377",
"H+	c #768375",
"I+	c #638462",
"J+	c #408C3F",
"K+	c #169A14",
"L+	c #04B103",
"M+	c #0CB60B",
"N+	c #0C9C0B",
"O+	c #437C42",
"P+	c #858385",
"Q+	c #787378",
"R+	c #426541",
"S+	c #218720",
"T+	c #12AC11",
"U+	c #07CB06",
"V+	c #04D903",
"W+	c #04D102",
"X+	c #0CC50B",
"Y+	c #12BE10",
"Z+	c #0CBA0A",
"`+	c #05BA03",
" @	c #01BC00",
".@	c #03B502",
"+@	c #12AB11",
"@@	c #219820",
"#@	c #3D813C",
"$@	c #727972",
"%@	c #787779",
"&@	c #627461",
"*@	c #507A50",
"=@	c #2F8B2E",
"-@	c #238F22",
";@	c #1F911E",
">@	c #249024",
",@	c #2E8D2D",
"'@	c #3D873D",
")@	c #4E814E",
"!@	c #627D62",
"~@	c #757B75",
"{@	c #807F80",
"]@	c #7A7E79",
"^@	c #7B7E7B",
"                        .   + @ @ # +   . $                     ",
"                  % & * = - ; > , ' ) ! ~ { ] ^                 ",
"              / ( _ : < [ } | 1 2 3 4 5 6 7 8 9 0 a             ",
"            b c d e f g h i j k l m n o p q r s t u v           ",
"          w x y z A B C D E F G G G F H I J K L M N O P         ",
"        Q R S T U V W F                 X Y Z `  ...+.@.#.      ",
"      ^ $.%.&.*.& F                       =.G -.;.>.,.'.).!.    ",
"    D ~.{.].^./.                                  (._.:.<.[.}.  ",
"  . |.1.2.3.4.                                    -.5.6.7.8.9.  ",
"  % 0.a.b.c./                                     G d.e.f.g.h.  ",
"  i.j.k.l.m.                                        n.o.p.q.r.  ",
"$ s.t.u.v.w.                                        x.y.z.A.B.  ",
"$ C.D.E.F.G.                                        H.I.J.K.L.$ ",
"  M.N.O.P.Q.                                        R.S.T.U.V.  ",
"  & W.X.Y.Z.                                      G `. +.+++^   ",
"  @+#+$+%+&+*+                                    =+-+;+>+,+'+  ",
"  G )+!+~+{+]+                                  . ^+/+(+_+:+    ",
"    <+[+}+|+1+2+}.                          $ % 3+4+5+6+7+.     ",
"      8+9+0+a+b+c+d+.                     % e+f+g+h+i+j+.       ",
"        k+l+m+n+o+p+4.*+.           . / 8+q+r+s+t+u+v+          ",
"          E w+x+y+z+A+B+C+D+E+F+G+H+I+J+K+L+M+N+O+^ .           ",
"            P+Q+R+S+T+U+V+W+X+Y+Z+`+ @.@+@@@#@$@b               ",
"              G @+%@&@*@#@=@-@;@>@,@'@)@!@~@=+.                 ",
"                    . {@4.w Q ]@Q ^@4.{@.                       "};
