/* XPM */
static char * elipse_point_xpm[] = {
"32 24 320 2",
"  	c #808080",
". 	c #818081",
"+ 	c #7F807F",
"@ 	c #7D807D",
"# 	c #7B807B",
"$ 	c #7B817B",
"% 	c #7C817C",
"& 	c #7E807E",
"* 	c #807F80",
"= 	c #808081",
"- 	c #848084",
"; 	c #7D7D7D",
"> 	c #6B806B",
", 	c #5B895B",
"' 	c #499249",
") 	c #3B9D3A",
"! 	c #30A52F",
"~ 	c #2DAC2C",
"{ 	c #2FAF2E",
"] 	c #37AC37",
"^ 	c #43A743",
"/ 	c #579A56",
"( 	c #7B835E",
"_ 	c #8B8A67",
": 	c #827E83",
"< 	c #817F81",
"[ 	c #838083",
"} 	c #807D80",
"| 	c #527F52",
"1 	c #2D982C",
"2 	c #1DB01C",
"3 	c #0BBC0A",
"4 	c #02BB00",
"5 	c #00B100",
"6 	c #00A700",
"7 	c #00A100",
"8 	c #00A300",
"9 	c #00B000",
"0 	c #02C402",
"a 	c #25A903",
"b 	c #9FA109",
"c 	c #DDD514",
"d 	c #7DB03E",
"e 	c #778379",
"f 	c #857C85",
"g 	c #858086",
"h 	c #657A65",
"i 	c #199418",
"j 	c #0FB60D",
"k 	c #09B808",
"l 	c #009800",
"m 	c #197B18",
"n 	c #41713F",
"o 	c #597259",
"p 	c #6A786A",
"q 	c #6B766B",
"r 	c #6A766A",
"s 	c #5F705F",
"t 	c #446746",
"u 	c #3F5611",
"v 	c #A8A604",
"w 	c #E5DC0B",
"x 	c #71D80D",
"y 	c #16E118",
"z 	c #52A551",
"A 	c #827D82",
"B 	c #7E7F7E",
"C 	c #428041",
"D 	c #06A505",
"E 	c #0BB70A",
"F 	c #0D990C",
"G 	c #317431",
"H 	c #737773",
"I 	c #858185",
"J 	c #838183",
"K 	c #818181",
"L 	c #838283",
"M 	c #6D6C67",
"N 	c #545408",
"O 	c #847D0E",
"P 	c #1C7D0B",
"Q 	c #0FE80D",
"R 	c #41B941",
"S 	c #7B847B",
"T 	c #398438",
"U 	c #05A904",
"V 	c #05AA04",
"W 	c #2B862A",
"X 	c #6A7769",
"Y 	c #878087",
"Z 	c #818182",
"` 	c #79797D",
" .	c #7A7A80",
"..	c #6D6B6F",
"+.	c #2A5E29",
"@.	c #089A07",
"#.	c #07E405",
"$.	c #3CC23A",
"%.	c #7E817E",
"&.	c #818080",
"*.	c #868086",
"=.	c #397B38",
"-.	c #04A503",
";.	c #488348",
">.	c #7E7D7E",
",.	c #828182",
"'.	c #7D7B7D",
").	c #3E633E",
"!.	c #079307",
"~.	c #0CE10A",
"{.	c #40BD3F",
"].	c #867A86",
"^.	c #848184",
"/.	c #587658",
"(.	c #049A03",
"_.	c #05AD03",
":.	c #448844",
"<.	c #7E7C7E",
"[.	c #2A5D29",
"}.	c #08A807",
"|.	c #15E013",
"1.	c #629B61",
"2.	c #827E82",
"3.	c #7F7C7F",
"4.	c #10800F",
"5.	c #07AF06",
"6.	c #249C23",
"7.	c #787E78",
"8.	c #828282",
"9.	c #6A6B6A",
"0.	c #0A6E09",
"a.	c #0BC70A",
"b.	c #36C235",
"c.	c #527352",
"d.	c #089907",
"e.	c #0BB609",
"f.	c #538A52",
"g.	c #857F85",
"h.	c #808082",
"i.	c #7F7F83",
"j.	c #888488",
"k.	c #255525",
"l.	c #05A704",
"m.	c #22CB20",
"n.	c #728B71",
"o.	c #317430",
"p.	c #06A805",
"q.	c #0FB70E",
"r.	c #7C7F7C",
"s.	c #818185",
"t.	c #7B7A67",
"u.	c #8A885A",
"v.	c #7F7F80",
"w.	c #848284",
"x.	c #4F614F",
"y.	c #018D00",
"z.	c #15C814",
"A.	c #679366",
"B.	c #7C7B7D",
"C.	c #257724",
"D.	c #06B405",
"E.	c #21B520",
"F.	c #887C88",
"G.	c #737364",
"H.	c #95950E",
"I.	c #DCD90E",
"J.	c #BDBA3F",
"K.	c #7D7C84",
"L.	c #5C655C",
"M.	c #008400",
"N.	c #12C110",
"O.	c #649364",
"P.	c #797979",
"Q.	c #227821",
"R.	c #07BB05",
"S.	c #2CBA2B",
"T.	c #877B87",
"U.	c #818184",
"V.	c #67674C",
"W.	c #909006",
"X.	c #D8D80C",
"Y.	c #C1C02D",
"Z.	c #7E7F7F",
"`.	c #5B6A5B",
" +	c #018B00",
".+	c #12BC10",
"++	c #649064",
"@+	c #287327",
"#+	c #07B806",
"$+	c #20CD1E",
"%+	c #877A87",
"&+	c #757576",
"*+	c #5C5C2C",
"=+	c #838323",
"-+	c #82825B",
";+	c #808083",
">+	c #868286",
",+	c #3C673C",
"'+	c #039901",
")+	c #1DB31B",
"!+	c #708770",
"~+	c #376937",
"{+	c #08AB06",
"]+	c #16E114",
"^+	c #758774",
"/+	c #7C7C7F",
"(+	c #79797A",
"_+	c #807C80",
":+	c #147514",
"<+	c #06AA05",
"[+	c #2DA52C",
"}+	c #7F7F7F",
"|+	c #5C6B5B",
"1+	c #088F07",
"2+	c #0FDD0D",
"3+	c #48B547",
"4+	c #4A704A",
"5+	c #089307",
"6+	c #0BB209",
"7+	c #568A55",
"8+	c #837F83",
"9+	c #196019",
"0+	c #08BF06",
"a+	c #20E21D",
"b+	c #6B906B",
"c+	c #697869",
"d+	c #158814",
"e+	c #06AD04",
"f+	c #249A23",
"g+	c #857D85",
"h+	c #6B706B",
"i+	c #097909",
"j+	c #08DC06",
"k+	c #2DD42B",
"l+	c #728972",
"m+	c #837E83",
"n+	c #858085",
"o+	c #687A68",
"p+	c #1E871E",
"q+	c #01A900",
"r+	c #169E15",
"s+	c #747D74",
"t+	c #828082",
"u+	c #5C6E5C",
"v+	c #0A860A",
"w+	c #09E207",
"x+	c #25DF24",
"y+	c #5E985D",
"z+	c #887988",
"A+	c #827F82",
"B+	c #4B7A4B",
"C+	c #169515",
"D+	c #00AD00",
"E+	c #189818",
"F+	c #6A806A",
"G+	c #5D6F5D",
"H+	c #0B7E0A",
"I+	c #0CD20B",
"J+	c #17F216",
"K+	c #2FC12E",
"L+	c #718571",
"M+	c #847D84",
"N+	c #5B7C5A",
"O+	c #1D8E1C",
"P+	c #0EAD0D",
"Q+	c #06B005",
"R+	c #218D20",
"S+	c #717E71",
"T+	c #6F7070",
"U+	c #1B661B",
"V+	c #0DAC0B",
"W+	c #10E00E",
"X+	c #0BEB09",
"Y+	c #25C123",
"Z+	c #4B9C4A",
"`+	c #658965",
" @	c #768576",
".@	c #788478",
"+@	c #788578",
"@@	c #708470",
"#@	c #5A855A",
"$@	c #3A8F39",
"%@	c #129D11",
"&@	c #06B305",
"*@	c #0DB60C",
"=@	c #0D9D0C",
"-@	c #417C41",
";@	c #857E85",
">@	c #566556",
",@	c #2A782A",
"'@	c #199E19",
")@	c #0CBE0A",
"!@	c #05D203",
"~@	c #03D501",
"{@	c #01CC00",
"]@	c #08C306",
"^@	c #01BF00",
"/@	c #00BE00",
"(@	c #01BD00",
"_@	c #04B403",
":@	c #14A912",
"<@	c #229722",
"[@	c #3F803E",
"}@	c #727872",
"|@	c #6B736B",
"1@	c #5B795B",
"2@	c #497C49",
"3@	c #3A853A",
"4@	c #2F892E",
"5@	c #2A8D29",
"6@	c #2D8B2C",
"7@	c #368B36",
"8@	c #438543",
"9@	c #538153",
"0@	c #647C64",
"a@	c #777B77",
"b@	c #847F84",
"c@	c #7D7E7D",
"d@	c #7C7E7C",
"e@	c #7B7E7B",
"                        . + @ # $ $ % & * = =                   ",
"                  - ; > , ' ) ! ~ { ] ^ / ( _ : <               ",
"              [ } | 1 2 3 4 5 6 7 8 9 0 a b c d e f             ",
"            g h i j k l m n o p q r s t u v w x y z A           ",
"          B C D E F G H I J K . . . K L M N O P 3 Q R S         ",
"        B T U V W X Y K                 Z `  ...+.@.#.$.%.&.    ",
"      *.=.-.-.;.>.J                       K = ,.'.).!.~.{.].    ",
"    ^./.(._.:.B                                   <.[.}.|.1.2.  ",
"  . 3.4.5.6.7.                                    8.9.0.a.b.:   ",
"  J c.d.e.f.g.                h.i.                  j.k.l.m.n.  ",
"  - o.p.q.r..               s.t.u.v.                w.x.y.z.A.. ",
"  B.C.D.E.F.              Z G.H.I.J.K.              L L.M.N.O.. ",
"  P.Q.R.S.T.              U.V.W.X.Y.Z.              L `. +.+++. ",
"  } @+#+$+%+              K &+*+=+-+;+              >+,+'+)+!+  ",
"  ^.~+{+]+^+<               K /+(+;+              . _+:+<+[+}+  ",
"  J |+1+2+3+f                                     I 4+5+6+7+8+  ",
"    *.9+0+a+b+                                  . c+d+e+f+g+    ",
"    8.h+i+j+k+l+m+                            n+o+p+q+r+s+t+    ",
"      L u+v+w+x+y+z+A+                    - A B+C+D+E+F+t+      ",
"          G+H+I+J+K+L+M+A+.         . [ 8+N+O+P+Q+R+S+          ",
"          L T+U+V+W+X+Y+Z+`+ @.@+@@@#@$@%@&@*@=@-@} .           ",
"            8.;@>@,@'@)@!@~@{@]@^@/@(@_@:@<@[@}@*.              ",
"                J _+|@1@2@3@4@5@6@7@8@9@0@a@b@.                 ",
"                      . }+c@d@e@e@c@B   .                       "};
