/* XPM */
static char * ellipse_two_focus_point_xpm[] = {
"32 24 331 2",
"  	c #808080",
". 	c #818081",
"+ 	c #7E807E",
"@ 	c #7D807D",
"# 	c #7C807C",
"$ 	c #7D817C",
"% 	c #7F807F",
"& 	c #808081",
"* 	c #838083",
"= 	c #807D80",
"- 	c #6F7E6E",
"; 	c #5E865E",
"> 	c #528F52",
", 	c #449943",
"' 	c #399F38",
") 	c #36A635",
"! 	c #39A937",
"~ 	c #42A541",
"{ 	c #4D9F4C",
"] 	c #5E965E",
"^ 	c #7D8164",
"/ 	c #868570",
"( 	c #827E82",
"_ 	c #828082",
": 	c #837D83",
"< 	c #587E58",
"[ 	c #309530",
"} 	c #20AD1F",
"| 	c #10BB0E",
"1 	c #03BD02",
"2 	c #01B700",
"3 	c #01B200",
"4 	c #00AD00",
"5 	c #01B100",
"6 	c #02BD00",
"7 	c #04CE03",
"8 	c #2FA508",
"9 	c #A4A30E",
"0 	c #D6D01B",
"a 	c #73A24D",
"b 	c #827C83",
"c 	c #837E83",
"d 	c #858085",
"e 	c #6A7A6A",
"f 	c #1B911A",
"g 	c #0FB50E",
"h 	c #0ABB09",
"i 	c #01A100",
"j 	c #0F7E0F",
"k 	c #367235",
"l 	c #4E714E",
"m 	c #5D725D",
"n 	c #5E6E5E",
"o 	c #5C6F5C",
"p 	c #506B50",
"q 	c #336735",
"r 	c #455C07",
"s 	c #B3B107",
"t 	c #EDE20C",
"u 	c #5FDC0F",
"v 	c #1DD71E",
"w 	c #639663",
"x 	c #7E7F7E",
"y 	c #468145",
"z 	c #07A405",
"A 	c #0BB70A",
"B 	c #0C9C0B",
"C 	c #2B762A",
"D 	c #697269",
"E 	c #868186",
"F 	c #838183",
"G 	c #828182",
"H 	c #818181",
"I 	c #858385",
"J 	c #626155",
"K 	c #636203",
"L 	c #8C860A",
"M 	c #1A8F09",
"N 	c #0DCA0C",
"O 	c #13E711",
"P 	c #52AA51",
"Q 	c #7E827E",
"R 	c #7D7F7D",
"S 	c #398439",
"T 	c #06A904",
"U 	c #06AA04",
"V 	c #298728",
"W 	c #667666",
"X 	c #878087",
"Y 	c #818182",
"Z 	c #717172",
"` 	c #767679",
" .	c #5D635F",
"..	c #1F671D",
"+.	c #06AA05",
"@.	c #0AE908",
"#.	c #4BB24A",
"$.	c #817E82",
"%.	c #387C37",
"&.	c #04A603",
"*.	c #04A403",
"=.	c #488247",
"-.	c #7D7C7D",
";.	c #838283",
">.	c #767676",
",.	c #316531",
"'.	c #05A304",
").	c #0FE40D",
"!.	c #51AC50",
"~.	c #867A86",
"{.	c #848184",
"].	c #527552",
"^.	c #049C03",
"/.	c #05AC04",
"(.	c #458745",
"_.	c #777777",
":.	c #1E621E",
"<.	c #09B508",
"[.	c #18E116",
"}.	c #6F8E6F",
"|.	c #827F82",
"1.	c #7B7B7B",
"2.	c #0E830D",
"3.	c #07AF06",
"4.	c #269A26",
"5.	c #7A7E7A",
"6.	c #5A645B",
"7.	c #097C07",
"8.	c #0ECF0C",
"9.	c #42B940",
"0.	c #847D84",
"a.	c #4B734B",
"b.	c #079C07",
"c.	c #0BB50A",
"d.	c #588759",
"e.	c #847F87",
"f.	c #7F7F82",
"g.	c #808082",
"h.	c #857F85",
"i.	c #185918",
"j.	c #07B206",
"k.	c #28C927",
"l.	c #798579",
"m.	c #2C772C",
"n.	c #06AC05",
"o.	c #14B213",
"p.	c #7F7C7E",
"q.	c #82805E",
"r.	c #838270",
"s.	c #7F7F81",
"t.	c #7F7F6E",
"u.	c #848186",
"v.	c #3F5D3F",
"w.	c #039702",
"x.	c #1CC71A",
"y.	c #6C8E6C",
"z.	c #787878",
"A.	c #207B20",
"B.	c #07B905",
"C.	c #2AAD29",
"D.	c #82774E",
"E.	c #B6B507",
"F.	c #ECE80C",
"G.	c #888871",
"H.	c #808083",
"I.	c #797818",
"J.	c #C8C608",
"K.	c #B6B14C",
"L.	c #50614D",
"M.	c #018D00",
"N.	c #18C116",
"O.	c #6A9069",
"P.	c #737773",
"Q.	c #1C7D1B",
"R.	c #06C005",
"S.	c #37AE34",
"T.	c #786E37",
"U.	c #B8B806",
"V.	c #EAE807",
"W.	c #969557",
"X.	c #7E7E84",
"Y.	c #828282",
"Z.	c #6C6C6B",
"`.	c #7E7E00",
" +	c #D3D30B",
".+	c #CECA29",
"++	c #526A48",
"@+	c #029100",
"#+	c #17BC16",
"$+	c #6A8D69",
"%+	c #7A7A7A",
"&+	c #227921",
"*+	c #08C006",
"=+	c #2CC12C",
"-+	c #756867",
";+	c #717120",
">+	c #88882B",
",+	c #7F7F7C",
"'+	c #555527",
")+	c #828314",
"!+	c #928D54",
"~+	c #326630",
"{+	c #039E02",
"]+	c #20B320",
"^+	c #748574",
"/+	c #2D6D2C",
"(+	c #07B406",
"_+	c #1ADE18",
":+	c #807D81",
"<+	c #7A797C",
"[+	c #7C7C80",
"}+	c #7B7B7D",
"|+	c #747370",
"1+	c #7A777B",
"2+	c #107610",
"3+	c #32A331",
"4+	c #817F82",
"5+	c #4D694C",
"6+	c #089B07",
"7+	c #12E311",
"8+	c #55A754",
"9+	c #467147",
"0+	c #089507",
"a+	c #0CB30A",
"b+	c #5B885B",
"c+	c #837F83",
"d+	c #7D787E",
"e+	c #106A0F",
"f+	c #09CA08",
"g+	c #28DB26",
"h+	c #758775",
"i+	c #687868",
"j+	c #158814",
"k+	c #06AD04",
"l+	c #279926",
"m+	c #857D85",
"n+	c #848385",
"o+	c #596859",
"p+	c #048802",
"q+	c #0BE409",
"r+	c #38C737",
"s+	c #7B837B",
"t+	c #697A69",
"u+	c #1E861E",
"v+	c #01A900",
"w+	c #169D16",
"x+	c #767D76",
"y+	c #4C6B4C",
"z+	c #039502",
"A+	c #0DEA0A",
"B+	c #2FD22E",
"C+	c #6D896D",
"D+	c #887B88",
"E+	c #837C83",
"F+	c #4E794E",
"G+	c #179316",
"H+	c #01AD00",
"I+	c #179816",
"J+	c #6A806A",
"K+	c #7F7F7F",
"L+	c #4D6B4C",
"M+	c #058F04",
"N+	c #10E00E",
"O+	c #19EE16",
"P+	c #41AD3F",
"Q+	c #7C7F7C",
"R+	c #847E84",
"S+	c #828083",
"T+	c #637B63",
"U+	c #228C21",
"V+	c #0EAA0D",
"W+	c #06B005",
"X+	c #1F8E1D",
"Y+	c #6F7F6F",
"Z+	c #848284",
"`+	c #606860",
" @	c #117510",
".@	c #0EBC0C",
"+@	c #0FEA0D",
"@@	c #0FE10D",
"#@	c #35B134",
"$@	c #5A925A",
"%@	c #738672",
"&@	c #788578",
"*@	c #788378",
"=@	c #778377",
"-@	c #768376",
";@	c #668466",
">@	c #458B44",
",@	c #1A9819",
"'@	c #04AF02",
")@	c #0CB60B",
"!@	c #0BA00A",
"~@	c #3B7F3A",
"{@	c #7F7D7F",
"]@	c #848384",
"^@	c #7C767C",
"/@	c #466546",
"(@	c #238422",
"_@	c #13AA12",
":@	c #08C906",
"<@	c #04D802",
"[@	c #04D302",
"}@	c #0BC609",
"|@	c #12BE11",
"1@	c #0CBA0A",
"2@	c #06BA04",
"3@	c #00BC00",
"4@	c #02B701",
"5@	c #10AC0E",
"6@	c #1F9B1F",
"7@	c #398239",
"8@	c #6E786D",
"9@	c #7A787A",
"0@	c #637363",
"a@	c #527A52",
"b@	c #3E803E",
"c@	c #2F8A2F",
"d@	c #248E23",
"e@	c #1F911E",
"f@	c #249023",
"g@	c #2D8F2C",
"h@	c #3B883B",
"i@	c #4D824C",
"j@	c #607E60",
"k@	c #737B73",
"l@	c #7E7E7E",
"m@	c #7C7E7C",
"n@	c #7B7F7B",
"o@	c #7D7E7D",
"p@	c #807F80",
"                        .   + @ # $ + % . &                     ",
"                  * = - ; > , ' ) ! ~ { ] ^ / (                 ",
"              _ : < [ } | 1 2 3 4 5 6 7 8 9 0 a b c             ",
"            d e f g h i j k l m n o p q r s t u v w :           ",
"          x y z A B C D E F G H H H G I J K L M N O P Q         ",
"        R S T U V W X G                 Y Z `  ...+.@.#.$.      ",
"      d %.&.*.=.-.F                       H H ;.>.,.'.).!.~.    ",
"    {.].^./.(.x                                   _.:.<.[.}.|.  ",
"  . 1.2.3.4.5.                                    ;.6.7.8.9.0.  ",
"  {.a.b.c.d.e.f.                                  g.h.i.j.k.l.  ",
"  ( m.n.o.p.q.r.f.                              s.t.u.v.w.x.y.  ",
"  z.A.B.C.D.E.F.G.f.                          H.I.J.K.L.M.N.O.  ",
"  P.Q.R.S.T.U.V.W.X.                        Y.Z.`. +.+++@+#+$+  ",
"  %+&+*+=+-+;+>+,+&                           s.'+)+!+~+{+]+^+  ",
"  |./+(+_+:+<+[+&                               }+|+1+2+n.3+4+  ",
"  {.5+6+7+8+0.                                    {.9+0+a+b+c+  ",
"  H d+e+f+g+h+                                  . i+j+k+l+m+    ",
"    n+o+p+q+r+s+|.                            d t+u+v+w+x+.     ",
"      {.y+z+A+B+C+D+.                     * E+F+G+H+I+J+_       ",
"        K+L+M+N+O+P+Q+R+.           . S+c+T+U+V+W+X+Y+          ",
"          Z+`+ @.@+@@@#@$@%@&@*@=@-@;@>@,@'@)@!@~@{@.           ",
"            ]@^@/@(@_@:@<@[@}@|@1@2@3@4@5@6@7@8@X               ",
"              H {.9@0@a@b@c@d@e@f@g@h@i@j@k@c+_                 ",
"                    .   l@m@5.5.5.n@o@p@.                       "};
