/* XPM */
static char * fam_sibling_xpm[] = {
"25 25 566 2",
"  	c None",
". 	c #E1CFCF",
"+ 	c #D6CCCB",
"@ 	c #CCD0CF",
"# 	c #CADAD9",
"$ 	c #C7DBDC",
"% 	c #BCD6D7",
"& 	c #B7D1D0",
"* 	c #B7D4D0",
"= 	c #BAD9D1",
"- 	c #BED8CF",
"; 	c #C5D4CD",
"> 	c #D5CCD1",
", 	c #D6CAD4",
"' 	c #D6CAD8",
") 	c #D2CCD6",
"! 	c #C6CCC8",
"~ 	c #EAE0D7",
"{ 	c #EAB3B0",
"] 	c #BD5554",
"^ 	c #DC3C3E",
"/ 	c #ED2726",
"( 	c #FF2A24",
"_ 	c #FF1B0C",
": 	c #FF2710",
"< 	c #CFCCC7",
"[ 	c #CDCEC9",
"} 	c #C8D4D0",
"| 	c #C2D5D3",
"1 	c #BED2D3",
"2 	c #BFD3D4",
"3 	c #C8DCDD",
"4 	c #D3E7E6",
"5 	c #C1D6D1",
"6 	c #C2D5CF",
"7 	c #C8D3CD",
"8 	c #CFCFD1",
"9 	c #D0CDD4",
"0 	c #CECED8",
"a 	c #C9D0D6",
"b 	c #D0DFDC",
"c 	c #C9C8C3",
"d 	c #DDB8B2",
"e 	c #FFB4B0",
"f 	c #C0403D",
"g 	c #EA4541",
"h 	c #E8261C",
"i 	c #FF3B2D",
"j 	c #FF2B17",
"k 	c #C3DBCE",
"l 	c #C1DBD0",
"m 	c #BFD9D0",
"n 	c #BFD5D2",
"o 	c #C4D4D4",
"p 	c #C8D2D4",
"q 	c #C7CCD0",
"r 	c #C1C5C8",
"s 	c #CBD1CD",
"t 	c #C9D2CF",
"u 	c #C7D3D1",
"v 	c #BDD7D6",
"w 	c #BAD8D6",
"x 	c #B4D1CF",
"y 	c #BBCECA",
"z 	c #E2E1DC",
"A 	c #E2C5BD",
"B 	c #FFC1B4",
"C 	c #9D3C2C",
"D 	c #CE493A",
"E 	c #DC3626",
"F 	c #F02F20",
"G 	c #B7D9C9",
"H 	c #BCDCCF",
"I 	c #C0DBD2",
"J 	c #C3D8D3",
"K 	c #CCD8D8",
"L 	c #D5DADD",
"M 	c #D6D6D8",
"N 	c #CFCDD0",
"O 	c #CFCFCF",
"P 	c #CED0CD",
"Q 	c #C9D2CD",
"R 	c #C1D6CF",
"S 	c #BDD8D1",
"T 	c #B9DAD3",
"U 	c #B6DAD6",
"V 	c #B6D5D7",
"W 	c #C4E0E1",
"X 	c #C2D7D2",
"Y 	c #DCE2D8",
"Z 	c #DBC8B9",
"` 	c #FEC9B9",
" .	c #AB4B3D",
"..	c #CB4238",
"+.	c #EA3733",
"@.	c #BBD5C8",
"#.	c #CAD9D2",
"$.	c #C4CFCB",
"%.	c #C0C6C4",
"&.	c #C4C8C7",
"*.	c #CED2D1",
"=.	c #D4DAD8",
"-.	c #C4D5CD",
";.	c #C0D7CD",
">.	c #BED8CD",
",.	c #BDD8CF",
"'.	c #BED7D1",
").	c #BDD7D4",
"!.	c #C2DBDF",
"~.	c #B9D5D9",
"{.	c #ACC6C5",
"].	c #B5C8C2",
"^.	c #D8D8CE",
"/.	c #E9C8BF",
"(.	c #FFBDB9",
"_.	c #C24549",
":.	c #E1313E",
"<.	c #CCD9D0",
"[.	c #C9D3CB",
"}.	c #D0CFCB",
"|.	c #D8D3D0",
"1.	c #DDD5D3",
"2.	c #CFD0CB",
"3.	c #CBD0CA",
"4.	c #C7D4CD",
"5.	c #C2D6CD",
"6.	c #C1D6CD",
"7.	c #C9D2D1",
"8.	c #C6CFD4",
"9.	c #C4CFD5",
"0.	c #E1EFF0",
"a.	c #CAD4D3",
"b.	c #CBCAC6",
"c.	c #EDD5D1",
"d.	c #EDB5B6",
"e.	c #FFA3A8",
"f.	c #C74551",
"g.	c #D0CFCA",
"h.	c #D0C6C4",
"i.	c #DCC4C4",
"j.	c #E9CBCD",
"k.	c #E5C9C8",
"l.	c #D6C1BE",
"m.	c #D2C7C3",
"n.	c #DBD6D2",
"o.	c #CCD1CD",
"p.	c #C7D3CF",
"q.	c #C7D4CB",
"r.	c #D2CECB",
"s.	c #D9CBCB",
"t.	c #D6C3C7",
"u.	c #F7E2E7",
"v.	c #D4BFC4",
"w.	c #DAC6C8",
"x.	c #E2CCCE",
"y.	c #DFC2C4",
"z.	c #E6C4C3",
"A.	c #FFDDDB",
"B.	c #EEC1BC",
"C.	c #D3CAC5",
"D.	c #E0CBCA",
"E.	c #EEC1C4",
"F.	c #D49BA1",
"G.	c #975F62",
"H.	c #734142",
"I.	c #936D6C",
"J.	c #CCAEAE",
"K.	c #E3C6CB",
"L.	c #DCC9CD",
"M.	c #D2CECF",
"N.	c #CBD1CF",
"O.	c #CBD2CB",
"P.	c #D9CBC8",
"Q.	c #E3C7C4",
"R.	c #FBD8D4",
"S.	c #AE8581",
"T.	c #87595B",
"U.	c #8B5D5F",
"V.	c #BA8C8F",
"W.	c #E6BEBF",
"X.	c #ECCCCD",
"Y.	c #CFBAB5",
"Z.	c #D7D1C5",
"`.	c #DED7CF",
" +	c #D9C0BC",
".+	c #C7898E",
"++	c #A14B54",
"@+	c #943940",
"#+	c #AB515A",
"$+	c #A5565C",
"%+	c #7D343F",
"&+	c #964F61",
"*+	c #D69DAE",
"=+	c #DEC0CC",
"-+	c #D9CFD7",
";+	c #CFD5D3",
">+	c #CBCDC8",
",+	c #F0DEDC",
"'+	c #DBBAB3",
")+	c #A07564",
"!+	c #844F3D",
"~+	c #94564B",
"{+	c #995650",
"]+	c #975151",
"^+	c #7E3E3F",
"/+	c #AE7A7E",
"(+	c #DBB7B7",
"_+	c #DCCDC8",
":+	c #C6B3AC",
"<+	c #956D6B",
"[+	c #954047",
"}+	c #B94A53",
"|+	c #C44F58",
"1+	c #B7434C",
"2+	c #AB434E",
"3+	c #A94957",
"4+	c #B0526A",
"5+	c #823650",
"6+	c #895C70",
"7+	c #D6C2CE",
"8+	c #C9C7CA",
"9+	c #D4CECE",
"0+	c #B7979A",
"a+	c #945F5B",
"b+	c #9C5845",
"c+	c #9B4B34",
"d+	c #AA5244",
"e+	c #9F453C",
"f+	c #A34948",
"g+	c #964446",
"h+	c #965456",
"i+	c #7E4D50",
"j+	c #A68C8B",
"k+	c #99706C",
"l+	c #8B4B4B",
"m+	c #A4353E",
"n+	c #C43C48",
"o+	c #C63D45",
"p+	c #BC3A42",
"q+	c #B5484E",
"r+	c #B3525D",
"s+	c #9E3F57",
"t+	c #7E304A",
"u+	c #7A4A62",
"v+	c #E0C8D8",
"w+	c #DCD2DA",
"x+	c #D9C4CB",
"y+	c #753D48",
"z+	c #9B444A",
"A+	c #B24236",
"B+	c #BE4331",
"C+	c #C94F42",
"D+	c #BC473E",
"E+	c #BD514E",
"F+	c #B15655",
"G+	c #994D4D",
"H+	c #63282A",
"I+	c #9D7576",
"J+	c #995C5B",
"K+	c #B25D60",
"L+	c #D44E59",
"M+	c #D0343F",
"N+	c #BF2A2E",
"O+	c #C33E3F",
"P+	c #B64C4C",
"Q+	c #993E45",
"R+	c #8A3346",
"S+	c #7F3953",
"T+	c #663C54",
"U+	c #C3ACC0",
"V+	c #DED2DE",
"W+	c #ECCCD7",
"X+	c #8E4153",
"Y+	c #C85363",
"Z+	c #CB3737",
"`+	c #CA2D26",
" @	c #CB3831",
".@	c #C43F3A",
"+@	c #B23F3C",
"@@	c #9E3C39",
"#@	c #904240",
"$@	c #7C3F3E",
"%@	c #9A6C6E",
"&@	c #C0706F",
"*@	c #C15A5D",
"=@	c #DB4550",
"-@	c #E84149",
";@	c #DD4544",
">@	c #C94A43",
",@	c #A2453D",
"'@	c #79322E",
")@	c #7A3643",
"!@	c #6A3549",
"~@	c #6D5167",
"{@	c #BDB0C2",
"]@	c #B3A8B6",
"^@	c #BE98A7",
"/@	c #B0506B",
"(@	c #CA3E58",
"_@	c #F04452",
":@	c #E53039",
"<@	c #D53138",
"[@	c #CC3D41",
"}@	c #A42E2E",
"|@	c #852624",
"1@	c #7C312E",
"2@	c #7F4342",
"3@	c #9B6B69",
"4@	c #B36660",
"5@	c #B95351",
"6@	c #E1484D",
"7@	c #F84D53",
"8@	c #EB524C",
"9@	c #CE5044",
"0@	c #9F4638",
"a@	c #79342D",
"b@	c #844550",
"c@	c #66354A",
"d@	c #483247",
"e@	c #625B6D",
"f@	c #524E5C",
"g@	c #5C3C4B",
"h@	c #92324E",
"i@	c #E05471",
"j@	c #FB4F67",
"k@	c #F74658",
"l@	c #E24452",
"m@	c #D34C53",
"n@	c #A43639",
"o@	c #8E3634",
"p@	c #7A3731",
"q@	c #703B35",
"r@	c #976C66",
"s@	c #9F6758",
"t@	c #B46055",
"u@	c #E25452",
"v@	c #F04A4A",
"w@	c #E2483E",
"x@	c #D24E41",
"y@	c #AD4B3E",
"z@	c #853632",
"A@	c #772D3C",
"B@	c #6E374E",
"C@	c #765E76",
"D@	c #A1A0B2",
"E@	c #BCC2CE",
"F@	c #C0AEBA",
"G@	c #9A4C62",
"H@	c #C54F69",
"I@	c #D44960",
"J@	c #DA4B5D",
"K@	c #CF4C5A",
"L@	c #C6545C",
"M@	c #923639",
"N@	c #843A37",
"O@	c #753C35",
"P@	c #71463D",
"Q@	c #A37E76",
"R@	c #BB9686",
"S@	c #A86A5F",
"T@	c #B94947",
"U@	c #D24C4B",
"V@	c #D6554F",
"W@	c #C7544D",
"X@	c #A24941",
"Y@	c #7E3735",
"Z@	c #7F404B",
"`@	c #734758",
" #	c #C3B5C4",
".#	c #E7EBF7",
"+#	c #BAC5CB",
"@#	c #D7D0D7",
"##	c #9E6876",
"$#	c #9E495C",
"%#	c #BD5669",
"&#	c #C15666",
"*#	c #BD5C67",
"=#	c #BE6970",
"-#	c #833D3F",
";#	c #6E3734",
">#	c #714640",
",#	c #8D6C65",
"'#	c #E3C8C1",
")#	c #E1CDC6",
"!#	c #E8C6C4",
"~#	c #D4999B",
"{#	c #A96165",
"]#	c #9D5056",
"^#	c #A86064",
"/#	c #94595D",
"(#	c #693C3F",
"_#	c #8A6C6E",
":#	c #BCAEAE",
"<#	c #D7DBDA",
"[#	c #C0CBC7",
"}#	c #D4D3D1",
"|#	c #E2C9CC",
"1#	c #D8ADB4",
"2#	c #B67883",
"3#	c #96525D",
"4#	c #9F6069",
"5#	c #A66F75",
"6#	c #734548",
"7#	c #613A3B",
"8#	c #9A7C7C",
"9#	c #D4BCBA",
"0#	c #DDCBC9",
"a#	c #D8D0CD",
"b#	c #CDBFBE",
"c#	c #D9BFC2",
"d#	c #EDC8CF",
"e#	c #D8A9B3",
"f#	c #9E6F79",
"g#	c #7E565E",
"h#	c #806669",
"i#	c #C4BAB8",
"j#	c #CFD4CD",
"k#	c #D0E0D5",
"l#	c #C1D3C7",
"m#	c #BCC8BE",
"n#	c #C9CEC7",
"o#	c #D8D3CF",
"p#	c #DECCCC",
"q#	c #EFCCD0",
"r#	c #DEB5BB",
"s#	c #BB9499",
"t#	c #7F5C60",
"u#	c #624547",
"v#	c #9C8786",
"w#	c #E2D0D0",
"x#	c #EADCDB",
"y#	c #D7CDCC",
"z#	c #D4D6D1",
"A#	c #DFCFD0",
"B#	c #EED3D8",
"C#	c #E9C4CC",
"D#	c #D5B0B8",
"E#	c #D6B7BD",
"F#	c #E4D1D3",
"G#	c #D8D7D3",
"H#	c #CAD5CD",
"I#	c #C2D6CB",
"J#	c #C2DACD",
"K#	c #C6D7CD",
"L#	c #D0D1CC",
"M#	c #DCD1CF",
"N#	c #D9C1C1",
"O#	c #E1C4C6",
"P#	c #E6CCCD",
"Q#	c #D7C2C1",
"R#	c #C8B6B6",
"S#	c #D9CECC",
"T#	c #DDD5D2",
"U#	c #BCB9B4",
"V#	c #D1D0CC",
"W#	c #C1CCC4",
"X#	c #D3D8D2",
"Y#	c #D3C3C4",
"Z#	c #DDC4C8",
"`#	c #EFD4D9",
" $	c #EAD6D8",
".$	c #D1C7C6",
"+$	c #CACFC9",
"@$	c #BACBC1",
"#$	c #B6D0C3",
"$$	c #C2DED0",
"%$	c #CBE1D5",
"&$	c #C8D8CE",
"*$	c #C8CDC7",
"=$	c #E1D6D4",
"-$	c #D5C6C3",
";$	c #DACCC9",
">$	c #DFD6D1",
",$	c #CFCAC6",
"'$	c #C7C6C1",
")$	c #D0D3CC",
"!$	c #D5DAD3",
"~$	c #CCD3CC",
"{$	c #C2D8CC",
"]$	c #C3D3C9",
"^$	c #DDD1D1",
"/$	c #DFD1D1",
"($	c #BEBFBA",
"_$	c #CED9D1",
":$	c #C3D9CD",
"<$	c #B9D8C9",
"[$	c #B8D7C8",
"}$	c #BCD6C9",
"|$	c #C1D5CA",
"1$	c #C7D2CA",
"2$	c #CBD0C9",
"3$	c #C9CAC4",
"4$	c #D0D1C9",
"5$	c #D7D8D2",
"6$	c #D2D5CE",
"7$	c #C8CFC7",
"8$	c #C9D3CA",
"9$	c #CBD8CF",
"0$	c #C4D4CA",
"a$	c #C5D6CC",
"b$	c #C3DFD1",
"c$	c #C1D9CC",
"d$	c #C8CFC8",
"e$	c #CECDC9",
"f$	c #D4D0CD",
"g$	c #DBDAD6",
"h$	c #DFE6DF",
"i$	c #C4D5CB",
"j$	c #C4DCCF",
"k$	c #BFDECF",
"l$	c #BAD4C7",
"m$	c #C1D7CB",
"n$	c #CAD7CE",
"o$	c #CAD4CC",
"p$	c #D0DCD2",
"q$	c #CEDACE",
"r$	c #C4D1C7",
"s$	c #BECBC1",
"t$	c #C1D1C6",
"u$	c #C9DBCF",
"v$	c #C6DACF",
"w$	c #BED4C8",
"x$	c #AFCFC2",
"y$	c #C0DCD0",
"z$	c #CBDFD6",
"A$	c #C8D5CE",
"B$	c #C7CCC8",
"C$	c #CBCDCA",
"D$	c #C8CDC9",
"E$	c #BEC9C3",
"F$	c #BBCCC4",
"G$	c #BBD2C8",
"H$	c #BEDACE",
"I$	c #C1DDD1",
"J$	c #C4DBD1",
"K$	c #C4D8CF",
"L$	c #C7D9CD",
"M$	c #BDD1C5",
"N$	c #B9CFC2",
"O$	c #C8DED1",
"P$	c #D2E8DC",
"Q$	c #B5CDC0",
"R$	c #B9D1C4",
"S$	c #C1D8CE",
"T$	c #BEDED1",
"U$	c #B8D4C8",
"V$	c #BCD1C8",
"W$	c #D1DAD5",
"X$	c #CDD3CF",
"Y$	c #CFDAD4",
"Z$	c #CEDDD6",
"`$	c #BED5CB",
" %	c #C2D9CF",
".%	c #C3D7CE",
"+%	c #BFD0C8",
"@%	c #C3D0C9",
"#%	c #CCD9D2",
"$%	c #C6DED0",
"%%	c #BED9CA",
"&%	c #B9D4C5",
"*%	c #BDD7CA",
"=%	c #C0D8CB",
"-%	c #CAE2D5",
";%	c #BDD9CD",
">%	c #BFD9CC",
",%	c #C2D7CE",
". + @ # $ % & * = - ; @ > , ' ) ! ~ { ] ^ / ( _ : ",
"< [ } | 1 2 3 4 5 6 7 @ 8 9 0 a b c d e f g h i j ",
"k l m n o p q r @ s s t u | v w x y z A B C D E F ",
"G H I J K L M N O P Q ; R S T U V W X Y Z `  ...+.",
"@.k #.$.%.&.*.=.Q 7 -.;.>.,.'.).!.~.{.].^./.(._.:.",
"<.[.}.|.1.|.2.3.s 4.5.;.>.6.4.7.8.9.0.a.b.c.d.e.f.",
"g.h.i.j.k.l.m.n.}.o.p.6 5.q.r.s.t.u.v.w.x.y.z.A.B.",
"C.D.E.F.G.H.I.J.K.L.M.N.p.O.P.Q.R.S.T.U.V.W.X.Y.Z.",
"`. +.+++@+#+$+%+&+*+=+-+;+>+,+'+)+!+~+{+]+^+/+(+_+",
":+<+[+}+|+1+2+3+4+5+6+7+8+9+0+a+b+c+d+e+f+g+h+i+j+",
"k+l+m+n+o+p+q+r+s+t+u+v+w+x+y+z+A+B+C+D+E+F+G+H+I+",
"J+K+L+M+N+O+P+Q+R+S+T+U+V+W+X+Y+Z+`+ @.@+@@@#@$@%@",
"&@*@=@-@;@>@,@'@)@!@~@{@]@^@/@(@_@:@<@[@}@|@1@2@3@",
"4@5@6@7@8@9@0@a@b@c@d@e@f@g@h@i@j@k@l@m@n@o@p@q@r@",
"s@t@u@v@w@x@y@z@A@B@C@D@E@F@G@H@I@J@K@L@M@N@O@P@Q@",
"R@S@T@U@V@W@X@Y@Z@`@ #.#+#@###$#%#&#*#=#-#;#>#,#'#",
")#!#~#{#]#^#/#(#_#:#<#} [#}#|#1#2#3#4#5#6#7#8#9#0#",
"a#b#c#d#e#f#g#h#i#j#k#l#m#n#o#p#q#r#s#t#u#v#w#x#y#",
"z#r.A#B#C#D#E#F#G#H#I#J#K#[.L#M#N#O#P#Q#R#S#T#U#V#",
"W#X#|.Y#Z#`# $.$+$@$#$$$%$&$*$< =$-$;$>$,$'$)$!$~$",
"{$]$*$r.^$/$.$($_$:$<$[$}$|$1$2$3$4$5$6$7$8$9$0$a$",
"b$c$]$d$e$f$g$h$i$j$k$<$l$m$n$o$p$q$r$s$t$u$v$w${$",
"x$y$z$A$B$C$D$E$F$G$H$I$J$K$4.q.L$M$N$O$P$k Q$R$S$",
"T$U$V$#.W$X$X$Y$Z$5.`$ %.%+%@%#%{$$%%%&%*%=%c$-%S$",
";%>.5.; 7 s s Q 7 ; ; ; ; 4.Q 4.{$>%>%>%c${$,%,%.%"};
