/* XPM */
static char * fam_unglue_xpm[] = {
"25 25 620 2",
"  	c None",
". 	c #C9CEC8",
"+ 	c #CFD5D5",
"@ 	c #C8D0DB",
"# 	c #C2CFD5",
"$ 	c #C7DCCB",
"% 	c #C7E1BE",
"& 	c #C1DAB0",
"* 	c #C4DAB3",
"= 	c #C5D3C2",
"- 	c #CDD9CD",
"; 	c #CCD5C2",
"> 	c #C4D1B3",
", 	c #CADAAD",
"' 	c #CBDDB3",
") 	c #C5D7BF",
"! 	c #C3D6C2",
"~ 	c #CBDBC0",
"{ 	c #E6E1C4",
"] 	c #E1AD9F",
"^ 	c #B9534F",
"/ 	c #DA3D46",
"( 	c #EA2431",
"_ 	c #FF2933",
": 	c #FF1E1F",
"< 	c #FF241D",
"[ 	c #CED3D6",
"} 	c #CED5DD",
"| 	c #CAD1E3",
"1 	c #C5D2DB",
"2 	c #C2D3CB",
"3 	c #BAD0B9",
"4 	c #BFD4B3",
"5 	c #CDE0C2",
"6 	c #CAD6CA",
"7 	c #C2CCC4",
"8 	c #D1DCCC",
"9 	c #CEDAC2",
"0 	c #C8D8B4",
"a 	c #BCCDAD",
"b 	c #C7D8C8",
"c 	c #C3D3C8",
"d 	c #B8C6AF",
"e 	c #CAC5AF",
"f 	c #F2C8BA",
"g 	c #FFC3BF",
"h 	c #C34046",
"i 	c #E23B43",
"j 	c #E21D24",
"k 	c #FF3636",
"l 	c #FF2A21",
"m 	c #C4CCDF",
"n 	c #BDC5DA",
"o 	c #BEC5E1",
"p 	c #C8D3E7",
"q 	c #CEDBE3",
"r 	c #C7D6D1",
"s 	c #C3D1C4",
"t 	c #C6D2C6",
"u 	c #D0D9D6",
"v 	c #B9C2C1",
"w 	c #C9D2CD",
"x 	c #CED8CD",
"y 	c #CAD6C8",
"z 	c #BDCDC2",
"A 	c #CEDDE0",
"B 	c #C7D5D8",
"C 	c #D6DDD5",
"D 	c #DAD6CA",
"E 	c #EFD8D0",
"F 	c #DEAEAA",
"G 	c #FCAEAE",
"H 	c #A63A3A",
"I 	c #DB4D4B",
"J 	c #DC332E",
"K 	c #EE2F25",
"L 	c #CFDBEB",
"M 	c #CAD6E4",
"N 	c #CDD7E3",
"O 	c #D0DADC",
"P 	c #CDD7BF",
"Q 	c #CBD4B5",
"R 	c #C5CCAD",
"S 	c #D5DAC6",
"T 	c #CAD0C6",
"U 	c #BFC5C5",
"V 	c #C7CFD1",
"W 	c #CBD5D4",
"X 	c #CFDCD5",
"Y 	c #C3D1C2",
"Z 	c #CAD2C3",
"` 	c #D4D8C9",
" .	c #CAC8BB",
"..	c #E5D7CC",
"+.	c #EBC9C0",
"@.	c #FFD1CB",
"#.	c #B24C48",
"$.	c #C13633",
"%.	c #E73833",
"&.	c #C1D2CA",
"*.	c #C3D3C6",
"=.	c #C6D4BA",
"-.	c #B4BF94",
";.	c #9DA667",
">.	c #A5AC5E",
",.	c #B7BD67",
"'.	c #B5BA68",
").	c #C4CA8E",
"!.	c #E2E8C6",
"~.	c #C5C7C6",
"{.	c #CCD0DC",
"].	c #C9D0D6",
"^.	c #D0DDCC",
"/.	c #A8BB84",
"(.	c #B7CD8D",
"_.	c #9FB48B",
":.	c #A5BA9B",
"<.	c #ACC3A7",
"[.	c #C8D6BD",
"}.	c #E4DECE",
"|.	c #E1BFB5",
"1.	c #FFB6B4",
"2.	c #CA4D51",
"3.	c #E0323C",
"4.	c #CBDCCC",
"5.	c #C9D7BE",
"6.	c #D5DCB3",
"7.	c #D3D498",
"8.	c #C8C371",
"9.	c #D7D26C",
"0.	c #EBE670",
"a.	c #DFDE68",
"b.	c #ABAC4E",
"c.	c #DADB9F",
"d.	c #CDCDC3",
"e.	c #D8D8E2",
"f.	c #C9CDCE",
"g.	c #C6D0AD",
"h.	c #A9BB58",
"i.	c #C8DE6F",
"j.	c #CADE97",
"k.	c #ACBF91",
"l.	c #BDD4AA",
"m.	c #B8C9A7",
"n.	c #CACEB7",
"o.	c #E9D6C8",
"p.	c #ECB7B3",
"q.	c #FFAFB3",
"r.	c #C74551",
"s.	c #C7D1C9",
"t.	c #BFC3B4",
"u.	c #D6CFB2",
"v.	c #E1D0A2",
"w.	c #C9B16B",
"x.	c #CCB253",
"y.	c #EDD859",
"z.	c #FAEA61",
"A.	c #C7BF43",
"B.	c #C2BC64",
"C.	c #CFCAAC",
"D.	c #D9D4CE",
"E.	c #CECCBD",
"F.	c #BBBF84",
"G.	c #CBD84A",
"H.	c #E6F457",
"I.	c #DFE480",
"J.	c #E0E19F",
"K.	c #ACAB73",
"L.	c #C9C49A",
"M.	c #EEE3C7",
"N.	c #EBDAC8",
"O.	c #E2C7BE",
"P.	c #F1CECA",
"Q.	c #EEC0C0",
"R.	c #D8D4D5",
"S.	c #D5CAC8",
"T.	c #F0D5CA",
"U.	c #E0B89F",
"V.	c #8F5B33",
"W.	c #754000",
"X.	c #BE9227",
"Y.	c #FFE462",
"Z.	c #FFF368",
"`.	c #BBB136",
" +	c #D1C97E",
".+	c #D6D09C",
"++	c #D4CF97",
"@+	c #B4B152",
"#+	c #EBEF43",
"$+	c #F5F444",
"%+	c #D8C859",
"&+	c #A0853E",
"*+	c #8D6D34",
"=+	c #916E44",
"-+	c #B38E74",
";+	c #D7B5A9",
">+	c #E9CDC9",
",+	c #D9C7C5",
"'+	c #D7CFCC",
")+	c #E1C9D7",
"!+	c #E6C6D3",
"~+	c #B4828B",
"{+	c #844148",
"]+	c #9F4D51",
"^+	c #A04A39",
"/+	c #9C5118",
"(+	c #E3A946",
"_+	c #FFE051",
":+	c #F7E94A",
"<+	c #BEB92A",
"[+	c #CECE4A",
"}+	c #B3AF34",
"|+	c #E3DC50",
"1+	c #FEF33F",
"2+	c #F6E035",
"3+	c #8E6200",
"4+	c #8C5011",
"5+	c #A25E2D",
"6+	c #9C5333",
"7+	c #9A4E41",
"8+	c #833D3F",
"9+	c #AF7780",
"0+	c #D8B4BE",
"a+	c #D9CDD1",
"b+	c #D5AABB",
"c+	c #92606C",
"d+	c #944E56",
"e+	c #AE5760",
"f+	c #B74C5C",
"g+	c #B5484D",
"h+	c #AB4831",
"i+	c #A35612",
"j+	c #F4C949",
"k+	c #FEEB46",
"l+	c #D4D21D",
"m+	c #BFC00C",
"n+	c #CCC51F",
"o+	c #FFF352",
"p+	c #FADD37",
"q+	c #B68500",
"r+	c #A25401",
"s+	c #AD4C1F",
"t+	c #BB5435",
"u+	c #AB4435",
"v+	c #B24B4E",
"w+	c #9F4350",
"x+	c #995063",
"y+	c #835061",
"z+	c #A38C96",
"A+	c #A46872",
"B+	c #904C4D",
"C+	c #9F493A",
"D+	c #AA4030",
"E+	c #B83D38",
"F+	c #C84B49",
"G+	c #B94641",
"H+	c #A54826",
"I+	c #A0690C",
"J+	c #EACF40",
"K+	c #F7F437",
"L+	c #DEDF15",
"M+	c #F7ED34",
"N+	c #FFED4C",
"O+	c #F2BF40",
"P+	c #9A4A00",
"Q+	c #BF481D",
"R+	c #C94131",
"S+	c #CC4742",
"T+	c #BF4248",
"U+	c #C55263",
"V+	c #B24E66",
"W+	c #93435C",
"X+	c #662B3F",
"Y+	c #9C7381",
"Z+	c #9C535C",
"`+	c #B76361",
" @	c #C45E48",
".@	c #AE361D",
"+@	c #BA3023",
"@@	c #CC413E",
"#@	c #BD3E49",
"$@	c #B9524B",
"%@	c #703100",
"&@	c #8F7103",
"*@	c #FFFD55",
"=@	c #EEEE2E",
"-@	c #FFF03D",
";@	c #FFE453",
">@	c #AD6A0F",
",@	c #C15B2A",
"'@	c #CA3B2B",
")@	c #CD2E32",
"!@	c #C5323C",
"~@	c #BE3746",
"{@	c #B13B51",
"]@	c #98344E",
"^@	c #87384E",
"/@	c #7C3D50",
"(@	c #9A6B75",
"_@	c #C36D78",
":@	c #B05052",
"<@	c #CB574A",
"[@	c #DB5643",
"}@	c #D84438",
"|@	c #CF3A3C",
"1@	c #B12C3F",
"2@	c #972D3B",
"3@	c #7B3828",
"4@	c #6A4809",
"5@	c #9C9418",
"6@	c #E8E44D",
"7@	c #FCE855",
"8@	c #CB9C2A",
"9@	c #94430B",
"0@	c #CC5745",
"a@	c #DE4442",
"b@	c #E43F46",
"c@	c #D33D49",
"d@	c #BF3C4A",
"e@	c #9B2E41",
"f@	c #82293B",
"g@	c #793242",
"h@	c #7F4551",
"i@	c #9B6A6E",
"j@	c #BC5E5E",
"k@	c #BE5653",
"l@	c #D15150",
"m@	c #DC4C4B",
"n@	c #F25358",
"o@	c #E64C56",
"p@	c #AF2839",
"q@	c #8F2730",
"r@	c #7E3F2E",
"s@	c #5F4206",
"t@	c #787300",
"u@	c #E9E953",
"v@	c #FFEB54",
"w@	c #B6880E",
"x@	c #9C4808",
"y@	c #CA543A",
"z@	c #E44D44",
"A@	c #F8585A",
"B@	c #E5565A",
"C@	c #C84D52",
"D@	c #9B373F",
"E@	c #8E3E47",
"F@	c #7A3B43",
"G@	c #6F3D40",
"H@	c #976B6A",
"I@	c #BA5B3D",
"J@	c #CF6452",
"K@	c #D95260",
"L@	c #D13753",
"M@	c #EC4769",
"N@	c #EF516A",
"O@	c #BC363D",
"P@	c #9D3D27",
"Q@	c #7A470E",
"R@	c #524300",
"S@	c #D6DD41",
"T@	c #E0EB2F",
"U@	c #F7EC2E",
"V@	c #FFDA34",
"W@	c #AE6100",
"X@	c #D3671F",
"Y@	c #D24A24",
"Z@	c #E15442",
"`@	c #D15243",
" #	c #C15247",
".#	c #933931",
"+#	c #873E38",
"@#	c #713A37",
"##	c #6E453F",
"$#	c #A17F76",
"%#	c #DD967A",
"&#	c #9A4737",
"*#	c #BF515C",
"=#	c #E2617D",
"-#	c #CE425F",
";#	c #D0495A",
">#	c #BE4E43",
",#	c #833205",
"'#	c #6E4600",
")#	c #A79E1D",
"!#	c #E1ED43",
"~#	c #E1EE2D",
"{#	c #FFFF3E",
"]#	c #FEE12E",
"^#	c #FFCF3D",
"/#	c #AA5500",
"(#	c #CF6323",
"_#	c #CD5D35",
":#	c #BE5738",
"<#	c #C1674F",
"[#	c #8F4333",
"}#	c #74382E",
"|#	c #6D403A",
"1#	c #8E6D68",
"2#	c #E1C8C3",
"3#	c #DCC3C9",
"4#	c #E6C3C7",
"5#	c #CE9B97",
"6#	c #A9665E",
"7#	c #AB5A56",
"8#	c #B76456",
"9#	c #9F5434",
"0#	c #763F00",
"a#	c #664A00",
"b#	c #F3EA5F",
"c#	c #EDF355",
"d#	c #BEC520",
"e#	c #AEAA0B",
"f#	c #FEEE51",
"g#	c #FFE747",
"h#	c #E6B82F",
"i#	c #AD6C12",
"j#	c #9E561B",
"k#	c #AF6B3C",
"l#	c #AC704E",
"m#	c #75402E",
"n#	c #693E37",
"o#	c #A38182",
"p#	c #D4BBC1",
"q#	c #DDC9D2",
"r#	c #D9DCEB",
"s#	c #CDCBD0",
"t#	c #D6C4B8",
"u#	c #EBCAB7",
"v#	c #DBAC9C",
"w#	c #9E684E",
"x#	c #7C491C",
"y#	c #876116",
"z#	c #CBB842",
"A#	c #F1EB61",
"B#	c #E0E45B",
"C#	c #AFB52F",
"D#	c #E4E269",
"E#	c #B0A927",
"F#	c #FFF45A",
"G#	c #EED847",
"H#	c #CEA644",
"I#	c #DCAD67",
"J#	c #C69B64",
"K#	c #805932",
"L#	c #603D29",
"M#	c #A68983",
"N#	c #E8D1D7",
"O#	c #DECED9",
"P#	c #D6CBD9",
"Q#	c #B6C5BE",
"R#	c #D7DED6",
"S#	c #E6DDD4",
"T#	c #E3CAC3",
"U#	c #F0C9C4",
"V#	c #F7CAB7",
"W#	c #E1B88A",
"X#	c #C3A857",
"Y#	c #FBF27D",
"Z#	c #E9EB6C",
"`#	c #A3AB3C",
" $	c #DAE181",
".$	c #CFD17D",
"+$	c #C5C261",
"@$	c #CCC843",
"#$	c #FFF774",
"$$	c #F6D97B",
"%$	c #D7B470",
"&$	c #D9BA84",
"*$	c #EFD3AC",
"=$	c #E5CCB8",
"-$	c #D7C4BD",
";$	c #D7CBCF",
">$	c #D4CDD5",
",$	c #D0CED9",
"'$	c #C6E0C7",
")$	c #C5D6C3",
"!$	c #C3C5BA",
"~$	c #CDBEB9",
"{$	c #DEC2C1",
"]$	c #DEBCB0",
"^$	c #D7BB8C",
"/$	c #D8C67A",
"($	c #E5E478",
"_$	c #B6BE51",
":$	c #BDC977",
"<$	c #C8D293",
"[$	c #D2D6A3",
"}$	c #DADC9B",
"|$	c #B0B14B",
"1$	c #E7E173",
"2$	c #FEEE99",
"3$	c #CDB877",
"4$	c #BFAB78",
"5$	c #D5C5A1",
"6$	c #D8CDB9",
"7$	c #CEC7BF",
"8$	c #CECCCF",
"9$	c #D3D6DD",
"0$	c #CAD1D9",
"a$	c #BDE0BF",
"b$	c #B4D1B5",
"c$	c #C3CFC1",
"d$	c #E4E1DC",
"e$	c #E7D7D7",
"f$	c #C5B1A6",
"g$	c #C7B88F",
"h$	c #F1E9A8",
"i$	c #C4CA72",
"j$	c #A6B45F",
"k$	c #E0F1BA",
"l$	c #B2C29E",
"m$	c #D6DFCA",
"n$	c #CED5B3",
"o$	c #B3BA76",
"p$	c #BDC06F",
"q$	c #C1BD76",
"r$	c #BBB579",
"s$	c #BBB787",
"t$	c #C4C1A0",
"u$	c #CBCCBA",
"v$	c #D0D5CF",
"w$	c #C8D2D4",
"x$	c #B7C4CA",
"y$	c #C3D4DB",
"z$	c #B4DCBA",
"A$	c #C8E9CC",
"B$	c #CEE1CE",
"C$	c #C5CDC2",
"D$	c #C4BFBB",
"E$	c #BDB3A7",
"F$	c #B0AA8A",
"G$	c #AAAA78",
"H$	c #B6C081",
"I$	c #C9DB9F",
"J$	c #C0D4AF",
"K$	c #D1E4D1",
"L$	c #BAC9C2",
"M$	c #C4CEA9",
"N$	c #C4CD98",
"O$	c #D8DDA3",
"P$	c #CACF97",
"Q$	c #C3CA9E",
"R$	c #CAD3B4",
"S$	c #CCD7C7",
"T$	c #C2D1CC",
"U$	c #C4D6D8",
"V$	c #D2E7EC",
"W$	c #BFD7DB",
"X$	c #B6DEC6",
"Y$	c #B3D5BD",
"Z$	c #B2CBB5",
"`$	c #C4D3C0",
" %	c #DBDFD0",
".%	c #D8D9C9",
"+%	c #D2D1BC",
"@%	c #D4D9BB",
"#%	c #C2CEAA",
"$%	c #C8D9B5",
"%%	c #C0D4BB",
"&%	c #C5D9CD",
"*%	c #C3D3D0",
"=%	c #C0CFCC",
"-%	c #D7E3D9",
";%	c #CDD9C1",
">%	c #C8D5A9",
",%	c #D8E6B5",
"'%	c #D4E2BE",
")%	c #C3D3B9",
"!%	c #C1D3C7",
"~%	c #C5D8D6",
"{%	c #C0D5DA",
"]%	c #B8CFD5",
"^%	c #BED7DC",
"/%	c #B0D5C3",
"(%	c #BCDDCA",
"_%	c #C1DDC7",
":%	c #C7DAC6",
"<%	c #CDD8C7",
"[%	c #CACEBF",
"}%	c #C7CBBA",
"|%	c #D0D7C5",
"1%	c #D0DCC8",
"2%	c #BECDBA",
"3%	c #CFE1D3",
"4%	c #BDD1C8",
"5%	c #BACDCB",
"6%	c #CCDBDE",
"7%	c #C3D1D4",
"8%	c #C5D2CB",
"9%	c #C6D7B5",
"0%	c #C9DBB3",
"a%	c #C4D7B9",
"b%	c #C5D8C5",
"c%	c #C8DBD5",
"d%	c #C0D5D6",
"e%	c #BAD1D7",
"f%	c #C3DCE3",
"g%	c #BADACB",
"h%	c #BBDACB",
"i%	c #C0D8CB",
"j%	c #C4D6CA",
"k%	c #C9D4C6",
"l%	c #CCD2C4",
"m%	c #CCD3C3",
"n%	c #C8D4CA",
"o%	c #C5D5CB",
"p%	c #C4D5CF",
"q%	c #C4D4D1",
"r%	c #C5D3D4",
"s%	c #C7D2D8",
"t%	c #C7D3D1",
"u%	c #C6D8BE",
"v%	c #C5DBB7",
"w%	c #C5D9C0",
"x%	c #C3D8C9",
"y%	c #C2D6D4",
"z%	c #C2D5D9",
"A%	c #C1D5DE",
"B%	c #BFD6DE",
"C%	c #BFD6DC",
". + @ # $ % & * = - ; > , ' ) ! ~ { ] ^ / ( _ : < ",
"[ } | 1 2 3 4 5 6 7 8 9 0 a b c d e f g h i j k l ",
"m n o p q r s t u v w x y z A B C D E F G H I J K ",
"L M N O x P Q R S T U V W X c Y Z `  ...+.@.#.$.%.",
"&.*.=.-.;.>.,.'.).!.~.{.].^./.(._.:.<.[.}.|.1.2.3.",
"4.5.6.7.8.9.0.a.b.c.d.e.f.g.h.i.j.k.l.m.n.o.p.q.r.",
"s.t.u.v.w.x.y.z.A.B.C.D.E.F.G.H.I.J.K.L.M.N.O.P.Q.",
"R.S.T.U.V.W.X.Y.Z.`. +.+++@+#+$+%+&+*+=+-+;+>+,+'+",
")+!+~+{+]+^+/+(+_+:+<+[+}+|+1+2+3+4+5+6+7+8+9+0+a+",
"b+c+d+e+f+g+h+i+j+k+l+m+n+o+p+q+r+s+t+u+v+w+x+y+z+",
"A+B+C+D+E+F+G+H+I+J+K+L+M+N+O+P+Q+R+S+T+U+V+W+X+Y+",
"Z+`+ @.@+@@@#@$@%@&@*@=@-@;@>@,@'@)@!@~@{@]@^@/@(@",
"_@:@<@[@}@|@1@2@3@4@5@6@7@8@9@0@a@b@c@d@e@f@g@h@i@",
"j@k@l@m@n@o@p@q@r@s@t@u@v@w@x@y@z@A@B@C@D@E@F@G@H@",
"I@J@K@L@M@N@O@P@Q@R@S@T@U@V@W@X@Y@Z@`@ #.#+#@###$#",
"%#&#*#=#-#;#>#,#'#)#!#~#{#]#^#/#(#_#:#<#[#}#|#1#2#",
"3#4#5#6#7#8#9#0#a#b#c#d#e#f#g#h#i#j#k#l#m#n#o#p#q#",
"r#s#t#u#v#w#x#y#z#A#B#C#D#E#F#G#H#I#J#K#L#M#N#O#P#",
"Q#R#S#T#U#V#W#X#Y#Z#`# $.$+$@$#$$$%$&$*$=$-$;$>$,$",
"'$)$!$~${$]$^$/$($_$:$<$[$}$|$1$2$3$4$5$6$7$8$9$0$",
"a$b$c$d$e$f$g$h$i$j$k$l$m$n$o$p$q$r$s$t$u$v$w$x$y$",
"z$A$B$C$D$E$F$G$H$I$J$K$L$- M$N$O$P$Q$R$S$T$U$V$W$",
"X$Y$Z$`$ %.%+%@%#%$%%%&%*%=%-%;%>%,%'%)%!%~%{%]%^%",
"/%(%_%:%<%[%}%|%1%2%3%4%5%6%7%8%9%0%a%b%c%d%e%f%^%",
"g%h%i%j%k%l%m%l%k%n%o%p%q%r%s%t%u%v%w%x%y%z%A%B%C%"};
