/* XPM */
static char * fillet_xpm[] = {
"32 24 295 2",
"  	c #969696",
". 	c #969697",
"+ 	c #979797",
"@ 	c #969799",
"# 	c #97999B",
"$ 	c #99948C",
"% 	c #988A73",
"& 	c #9A886B",
"* 	c #999083",
"= 	c #98999A",
"- 	c #96979A",
"; 	c #959798",
"> 	c #969A9F",
", 	c #9C9A96",
"' 	c #9B8A6E",
") 	c #987742",
"! 	c #946A23",
"~ 	c #94610E",
"{ 	c #925B02",
"] 	c #95671C",
"^ 	c #98743A",
"/ 	c #9A8767",
"( 	c #9A9997",
"_ 	c #94979C",
": 	c #959696",
"< 	c #999A9C",
"[ 	c #9E917B",
"} 	c #99753A",
"| 	c #91600F",
"1 	c #915D09",
"2 	c #905C05",
"3 	c #905B03",
"4 	c #915B04",
"5 	c #915A02",
"6 	c #9C6D20",
"7 	c #A47529",
"8 	c #A98F63",
"9 	c #9B9A99",
"0 	c #9A9182",
"a 	c #9B7C4A",
"b 	c #95620F",
"c 	c #8E5600",
"d 	c #8F5902",
"e 	c #905B04",
"f 	c #915C06",
"g 	c #925D07",
"h 	c #955F09",
"i 	c #A27123",
"j 	c #AA7520",
"k 	c #AF781B",
"l 	c #BF8422",
"m 	c #CC8613",
"n 	c #CB963B",
"o 	c #A0998D",
"p 	c #959697",
"q 	c #94918B",
"r 	c #775C2C",
"s 	c #7C5310",
"t 	c #885A0E",
"u 	c #925F0D",
"v 	c #915C03",
"w 	c #8F5A02",
"x 	c #94600C",
"y 	c #97620E",
"z 	c #9C6916",
"A 	c #A87523",
"B 	c #B47C22",
"C 	c #B87B17",
"D 	c #C88B25",
"E 	c #D28B16",
"F 	c #D8901A",
"G 	c #E09923",
"H 	c #EA9A17",
"I 	c #E3A337",
"J 	c #A09A91",
"K 	c #959597",
"L 	c #93908A",
"M 	c #695023",
"N 	c #593902",
"O 	c #64450D",
"P 	c #6F4C10",
"Q 	c #875A18",
"R 	c #A46919",
"S 	c #A17018",
"T 	c #B17C25",
"U 	c #BC7F19",
"V 	c #C18016",
"W 	c #CE8E27",
"X 	c #D9921D",
"Y 	c #DE9112",
"Z 	c #E39C29",
"` 	c #EB9F22",
" .	c #F1A11B",
"..	c #F5A118",
"+.	c #F8A824",
"@.	c #DEA952",
"#.	c #92969D",
"$.	c #94908A",
"%.	c #6A5124",
"&.	c #5B3B02",
"*.	c #5B3B03",
"=.	c #5C3C03",
"-.	c #5C3E04",
";.	c #FF0000",
">.	c #C88917",
",.	c #D59328",
"'.	c #E1971E",
").	c #E3920F",
"!.	c #E59C23",
"~.	c #EEA52B",
"{.	c #F7A113",
"].	c #F6A929",
"^.	c #FAAC2B",
"/.	c #FEA715",
"(.	c #FAA71C",
"_.	c #B1A38A",
":.	c #949597",
"<.	c #94928D",
"[.	c #6B5127",
"}.	c #5B3A02",
"|.	c #5C3B03",
"1.	c #5D3C03",
"2.	c #5B3D03",
"3.	c #E89813",
"4.	c #EAA025",
"5.	c #F3A628",
"6.	c #F9A418",
"7.	c #F8A317",
"8.	c #F8AA28",
"9.	c #FAAD29",
"0.	c #FFA917",
"a.	c #FEA91B",
"b.	c #FAAC29",
"c.	c #F9AC2B",
"d.	c #D2A456",
"e.	c #93969B",
"f.	c #969592",
"g.	c #6C552B",
"h.	c #E98E1F",
"i.	c #F9A61C",
"j.	c #FAAA22",
"k.	c #FCAD24",
"l.	c #FDAB1D",
"m.	c #FDA91D",
"n.	c #FBAA22",
"o.	c #FBAA23",
"p.	c #F6A31B",
"q.	c #DCA243",
"r.	c #9C9A97",
"s.	c #6C542B",
"t.	c #5A3902",
"u.	c #5B3A03",
"v.	c #FCA618",
"w.	c #FEAB1C",
"x.	c #FCAD28",
"y.	c #FCAA21",
"z.	c #FDA819",
"A.	c #FCA91D",
"B.	c #F6A926",
"C.	c #F2A31D",
"D.	c #EF9E16",
"E.	c #EBA024",
"F.	c #D69D3C",
"G.	c #A0998E",
"H.	c #F39D26",
"I.	c #FBAC27",
"J.	c #FDA511",
"K.	c #FBA91F",
"L.	c #F3A92B",
"M.	c #EEA122",
"N.	c #EF9C10",
"O.	c #EA9F22",
"P.	c #DD9928",
"Q.	c #D48C12",
"R.	c #CB9334",
"S.	c #A09A8F",
"T.	c #5A3A03",
"U.	c #FAAA1C",
"V.	c #F2A82A",
"W.	c #EDA01E",
"X.	c #EC9A12",
"Y.	c #E89C1F",
"Z.	c #DB9725",
"`.	c #D38B14",
" +	c #D28C19",
".+	c #CB8C22",
"++	c #BF8B35",
"@+	c #9E978B",
"#+	c #969491",
"$+	c #6B532B",
"%+	c #573B02",
"&+	c #F1A622",
"*+	c #E89C19",
"=+	c #E2971B",
"-+	c #DB9521",
";+	c #D28E1D",
">+	c #CE8A17",
",+	c #C9891C",
"'+	c #C48110",
")+	c #C27D07",
"!+	c #BC872D",
"~+	c #9D988F",
"{+	c #989795",
"]+	c #6D562F",
"^+	c #593802",
"/+	c #5A3903",
"(+	c #593D03",
"_+	c #E19919",
":+	c #D89018",
"<+	c #D39122",
"[+	c #CB8A1B",
"}+	c #C78311",
"|+	c #C4810F",
"1+	c #C37E09",
"2+	c #C27E0A",
"3+	c #C27E09",
"4+	c #BB8730",
"5+	c #9C9892",
"6+	c #999999",
"7+	c #6E5832",
"8+	c #5A3D03",
"9+	c #D79828",
"0+	c #CA8B1E",
"a+	c #C4800C",
"b+	c #C47F0A",
"c+	c #C37F0A",
"d+	c #C27E08",
"e+	c #B88936",
"f+	c #9A9999",
"g+	c #6E5731",
"h+	c #583801",
"i+	c #593903",
"j+	c #5B3A01",
"k+	c #664E20",
"l+	c #C88107",
"m+	c #C47F09",
"n+	c #C17E08",
"o+	c #B88837",
"p+	c #9A9A9A",
"q+	c #989899",
"r+	c #7F7159",
"s+	c #5F400D",
"t+	c #563500",
"u+	c #5B3901",
"v+	c #664C1E",
"w+	c #C88109",
"x+	c #C17D06",
"y+	c #C37C03",
"z+	c #B68F4D",
"A+	c #979A9E",
"B+	c #969594",
"C+	c #908A80",
"D+	c #796646",
"E+	c #573600",
"F+	c #C47C00",
"G+	c #C0892C",
"H+	c #AC956D",
"I+	c #9B968D",
"J+	c #969797",
"K+	c #949088",
"L+	c #725B34",
"M+	c #5A3A01",
"N+	c #C37E0A",
"O+	c #C08622",
"P+	c #AB987A",
"Q+	c #979695",
"R+	c #9C9EA1",
"S+	c #90887A",
"T+	c #6C5328",
"U+	c #5F400C",
"V+	c #593800",
"W+	c #694E1D",
"X+	c #C78108",
"Y+	c #C47E09",
"Z+	c #C18113",
"`+	c #BC872C",
" @	c #AC9671",
".@	c #979AA0",
"+@	c #949698",
"@@	c #979799",
"#@	c #9A9B9C",
"$@	c #8A8170",
"%@	c #725D39",
"&@	c #775822",
"*@	c #C78515",
"=@	c #B78C44",
"-@	c #A89573",
";@	c #989A9D",
">@	c #949699",
",@	c #979899",
"'@	c #959492",
")@	c #979083",
"!@	c #A19683",
"~@	c #999794",
"{@	c #959799",
"                              . +                               ",
"                      . @ # $ % & * = -                         ",
"                  ; > , ' ) ! ~ { ] ^ / ( _ :                   ",
"              @ < [ } | 1 2 3 4 4 5 4 6 7 8 9                   ",
"          + 0 a b c d e e 4 f g h i j k l m n o p               ",
"          q r s t u v w x y z A B C D E F G H I J K             ",
"          L M N O P Q R S T U V W X Y Z `  ...+.@.#.            ",
"          $.%.&.*.=.-.;.;.>.,.'.).!.~.{.{.].^./.(._.:.          ",
"          <.[.}.*.|.1.2.;.;.3.4.5.6.7.8.9.0.a.b.c.d.e.          ",
"          f.g.}.*.*.=.1.=.;.h.i.(.j.k.l.m.n.o.i.p.q.r.          ",
"          f.s.t.u.*.|.=.1.;.;.v.w.x.y.z.A.B.C.D.E.F.G.          ",
"          f.s.t.u.*.|.|.1.2.;.H.I.J.K.L.M.N.O.P.Q.R.S.          ",
"          f.s.t.T.u.*.|.=.1.;.;.U.V.W.X.Y.Z.`. +.+++@+          ",
"          #+$+t.T.u.*.*.|.=.%+;.&+*+=+-+;+>+,+'+)+!+~+          ",
"          {+]+^+/+T.u.*.|.|.(+;._+:+<+[+}+|+1+2+3+4+5+          ",
"          6+7+^+/+T.u.u.*.|.8+;.9+0+a+b+c+c+2+2+d+e+f+          ",
"          6+g+h+i+/+T.u.*.|.j+k+l+m+b+c+c+c+3+3+n+o+p+          ",
"          q+r+s+t+N T.T.u.*.u+v+w+b+c+c+2+3+3+x+y+z+A+          ",
"          . B+C+D+T.E+T.u.*.u+v+w+b+c+2+2+)+F+G+H+I+J+          ",
"                  K+L+T.T.u.M+v+w+c+N+2+3+O+P+Q+                ",
"                  . R+S+T+U+V+W+X+Y+Z+`+ @.@+@                  ",
"                      @@#@$@%@&@*@=@-@;@>@                      ",
"                          ,@'@)@!@~@{@                          ",
"                                                                "};
