/* XPM */
static char * fix_geometry_xpm[] = {
"32 24 189 2",
"  	c #808080",
". 	c #818081",
"+ 	c #828082",
"@ 	c #848084",
"# 	c #868186",
"$ 	c #888188",
"% 	c #727F72",
"& 	c #7E807E",
"* 	c #838083",
"= 	c #848184",
"- 	c #858185",
"; 	c #7F807F",
"> 	c #677C67",
", 	c #507950",
"' 	c #3A773A",
") 	c #227422",
"! 	c #0E730E",
"~ 	c #047304",
"{ 	c #5B7C5B",
"] 	c #7C7F7C",
"^ 	c #497949",
"/ 	c #377737",
"( 	c #1F761F",
"_ 	c #097409",
": 	c #007900",
"< 	c #007F00",
"[ 	c #008500",
"} 	c #018B01",
"| 	c #059205",
"1 	c #068906",
"2 	c #007300",
"3 	c #597C58",
"4 	c #838084",
"5 	c #727C72",
"6 	c #005B00",
"7 	c #007400",
"8 	c #008800",
"9 	c #0A930A",
"0 	c #179217",
"a 	c #1D901D",
"b 	c #268E26",
"c 	c #2F8C2F",
"d 	c #428A42",
"e 	c #318030",
"f 	c #007200",
"g 	c #777B77",
"h 	c #003F00",
"i 	c #004900",
"j 	c #005F00",
"k 	c #097909",
"l 	c #448144",
"m 	c #768276",
"n 	c #7E817E",
"o 	c #888088",
"p 	c #527B52",
"q 	c #017301",
"r 	c #597D59",
"s 	c #6F776F",
"t 	c #2F572F",
"u 	c #004000",
"v 	c #004500",
"w 	c #045F04",
"x 	c #20751F",
"y 	c #697E69",
"z 	c #507B50",
"A 	c #868386",
"B 	c #6D766D",
"C 	c #245224",
"D 	c #044104",
"E 	c #004700",
"F 	c #006200",
"G 	c #287428",
"H 	c #6C7E6C",
"I 	c #4D7B4D",
"J 	c #017401",
"K 	c #828182",
"L 	c #627162",
"M 	c #2C562C",
"N 	c #0C440C",
"O 	c #006000",
"P 	c #137013",
"Q 	c #587D58",
"R 	c #878187",
"S 	c #838183",
"T 	c #677467",
"U 	c #3D5E3D",
"V 	c #064306",
"W 	c #005700",
"X 	c #1D761C",
"Y 	c #527F51",
"Z 	c #7E7F7E",
"` 	c #727872",
" .	c #2F6B2E",
"..	c #037502",
"+.	c #005500",
"@.	c #035803",
"#.	c #137613",
"$.	c #4C7D4C",
"%.	c #4A7C49",
"&.	c #047603",
"*.	c #195F19",
"=.	c #0A740A",
"-.	c #4E7C4E",
";.	c #778077",
">.	c #457B44",
",.	c #007500",
"'.	c #5C7F5C",
").	c #6C756C",
"!.	c #305930",
"~.	c #0F480F",
"{.	c #005D00",
"].	c #117010",
"^.	c #457D44",
"/.	c #687F68",
"(.	c #457B45",
"_.	c #007600",
":.	c #5F7E5F",
"<.	c #6A756A",
"[.	c #426342",
"}.	c #0B480B",
"|.	c #005800",
"1.	c #106F10",
"2.	c #307F30",
"3.	c #5F7F5E",
"4.	c #868086",
"5.	c #808081",
"6.	c #457C45",
"7.	c #687E68",
"8.	c #767B76",
"9.	c #426242",
"0.	c #044504",
"a.	c #026002",
"b.	c #077806",
"c.	c #207B20",
"d.	c #7E807D",
"e.	c #7A807A",
"f.	c #787F78",
"g.	c #6E7F6E",
"h.	c #517D51",
"i.	c #387E38",
"j.	c #167A16",
"k.	c #047C03",
"l.	c #047E03",
"m.	c #058004",
"n.	c #028501",
"o.	c #388537",
"p.	c #017601",
"q.	c #3C7A3C",
"r.	c #357B35",
"s.	c #1F7B1E",
"t.	c #0B7C0A",
"u.	c #007D00",
"v.	c #008100",
"w.	c #008400",
"x.	c #018901",
"y.	c #018D01",
"z.	c #019001",
"A.	c #099009",
"B.	c #138D13",
"C.	c #4A874A",
"D.	c #847F84",
"E.	c #457F45",
"F.	c #057F05",
"G.	c #008300",
"H.	c #008700",
"I.	c #008A00",
"J.	c #008C00",
"K.	c #008F00",
"L.	c #009100",
"M.	c #0D8F0D",
"N.	c #238C23",
"O.	c #3B893B",
"P.	c #4F864F",
"Q.	c #5F845F",
"R.	c #6A836A",
"S.	c #798179",
"T.	c #418641",
"U.	c #038E03",
"V.	c #168D16",
"W.	c #318931",
"X.	c #528652",
"Y.	c #6D826D",
"Z.	c #788178",
"`.	c #7A817A",
" +	c #7D807D",
".+	c #538653",
"++	c #468746",
"@+	c #648464",
"#+	c #857F85",
"                                                                ",
"                              .                                 ",
"                  . + @ # $ + % &                               ",
"          + * = - ; > , ' ) ! ~ { *                             ",
"        ] ^ / ( _ : < [ } | 1 2 3 4                             ",
"        5 6 7 8 9 0 a b c d e f 3 *                             ",
"        g h i j k l m n * o p q r *                             ",
"          s t u v w x y - @ z q r *                             ",
"            A B C D E F G H I J r *                             ",
"              K A L M N i O P 7 Q R .                           ",
"                  S ; T U V W 2 X Y   @                         ",
"                      . Z `  ...+.@.#.$.= +                     ",
"                          = %.&.*.V v j =.-.;.; .               ",
"                          @ >.,.'.).!.~.v {.].^./.  *           ",
"                          @ (._.:.- . <.[.}.E |.1.2.3.4.5.      ",
"                          @ 6._.7.+   . ; 8.9.0.E a.b.c.d..     ",
"                          @ 6._.7.; e.f.g.h.i.j.k.l.m.n.o.4.    ",
"                          @ 6.p.q.r.s.t.u.v.w.x.y.z.A.B.C.D.    ",
"                          @ E.F.G.H.I.J.K.L.M.N.O.P.Q.R.S..     ",
"                          @ T.U.K.z.V.W.X.Y.Z.`. +  .           ",
"                          * .+++@+; #+* +                       ",
"                            @ #+*                               ",
"                                                                ",
"                                                                "};
