/* XPM */
static char * frame_forward_xpm[] = {
"25 25 450 2",
"  	c None",
". 	c #C6D5DC",
"+ 	c #BBC8CE",
"@ 	c #C6CBCF",
"# 	c #D7D8DA",
"$ 	c #CBCAC6",
"% 	c #D4D1CA",
"& 	c #DEDCD0",
"* 	c #C9CABC",
"= 	c #D6DACC",
"- 	c #CBD1C5",
"; 	c #D1D9CE",
"> 	c #CFD4CE",
", 	c #D2D3D5",
"' 	c #DAD7DE",
") 	c #C9C1CC",
"! 	c #D9D3DD",
"~ 	c #D2D1D7",
"{ 	c #CFD3D6",
"] 	c #CFD3D4",
"^ 	c #CFD3D2",
"/ 	c #CFDEE3",
"( 	c #D1DCE0",
"_ 	c #CED3D6",
": 	c #D7D9D8",
"< 	c #D6D5D1",
"[ 	c #D2CFC8",
"} 	c #DDDBCF",
"| 	c #E1E1D5",
"1 	c #D0D4C6",
"2 	c #D2DACD",
"3 	c #B7BFB4",
"4 	c #CFD6CF",
"5 	c #D3D5D4",
"6 	c #D1CFD2",
"7 	c #D5CED5",
"8 	c #D6D1D8",
"9 	c #D1D2D6",
"0 	c #C4D2D2",
"a 	c #CDD9D7",
"b 	c #C2C8C6",
"c 	c #CACCC7",
"d 	c #DADAD2",
"e 	c #CCC9C0",
"f 	c #CBCBBF",
"g 	c #C7C9BC",
"h 	c #DBE1D5",
"i 	c #BAC2B7",
"j 	c #DBE5DC",
"k 	c #D0DAD1",
"l 	c #D1D6D0",
"m 	c #C5C6C1",
"n 	c #E1DDDA",
"o 	c #CECAC9",
"p 	c #D1D2D4",
"q 	c #BECDC6",
"r 	c #D3E0D7",
"s 	c #D8DFD7",
"t 	c #CFD2C9",
"u 	c #CACAC2",
"v 	c #CECEC4",
"w 	c #FBFBF1",
"x 	c #E9ECE3",
"y 	c #BFC6BE",
"z 	c #C4CEC6",
"A 	c #CDD8D0",
"B 	c #C0CBC3",
"C 	c #CDD4CC",
"D 	c #C6C9C0",
"E 	c #DBDBD1",
"F 	c #CECEC6",
"G 	c #D1D3D2",
"H 	c #D6E4D7",
"I 	c #C0CCC0",
"J 	c #C4CCBF",
"K 	c #D2D5CA",
"L 	c #DDDFD4",
"M 	c #DFDFD7",
"N 	c #BCBDB8",
"O 	c #0A0F0B",
"P 	c #949D9C",
"Q 	c #EFFBFB",
"R 	c #C1CDCB",
"S 	c #D0DDD6",
"T 	c #D7E1D8",
"U 	c #CDD3C5",
"V 	c #C5C8B5",
"W 	c #CECFC1",
"X 	c #D1D3D0",
"Y 	c #CBD9CA",
"Z 	c #C0CCBE",
"` 	c #D3DBCE",
" .	c #CED1C6",
"..	c #C1C2BA",
"+.	c #D1D2CD",
"@.	c #D5D6D8",
"#.	c #14191F",
"$.	c #19222B",
"%.	c #3E4B54",
"&.	c #CEDDE4",
"*.	c #C3D1D2",
"=.	c #CBD8D1",
"-.	c #C7D2C4",
";.	c #D4D9C5",
">.	c #E0E3D2",
",.	c #CEDACE",
"'.	c #CCD7C9",
").	c #D9E1D4",
"!.	c #D3D6CD",
"~.	c #D5D6D1",
"{.	c #D8D8DA",
"].	c #CFD2DB",
"^.	c #020818",
"/.	c #404B61",
"(.	c #101E38",
"_.	c #C7D8EC",
":.	c #B6C6D5",
"<.	c #D4E2E5",
"[.	c #BEC9C1",
"}.	c #D5DCCA",
"|.	c #CED2C3",
"1.	c #CFD4D0",
"2.	c #C3CDC4",
"3.	c #CDD7CE",
"4.	c #D2D8CE",
"5.	c #C7CAC3",
"6.	c #D6D8D7",
"7.	c #CDCDD5",
"8.	c #C4C7DA",
"9.	c #101532",
"0.	c #414A71",
"a.	c #424F79",
"b.	c #00052C",
"c.	c #5E6F8D",
"d.	c #CCDCEC",
"e.	c #BBC9CC",
"f.	c #D3DDD4",
"g.	c #CED6CB",
"h.	c #CFD5D1",
"i.	c #CBD1CD",
"j.	c #D0D5CF",
"k.	c #D0D2CF",
"l.	c #D0D1D5",
"m.	c #CCCEDB",
"n.	c #CDD1EC",
"o.	c #060E35",
"p.	c #4D598D",
"q.	c #364580",
"r.	c #03144C",
"s.	c #000536",
"t.	c #CCDAFD",
"u.	c #C5D2E5",
"v.	c #E0E9EE",
"w.	c #C8D1D0",
"x.	c #CACFD2",
"y.	c #D3D7DA",
"z.	c #CDD1D2",
"A.	c #D4D8D9",
"B.	c #C4C8C9",
"C.	c #CDD1D0",
"D.	c #CED2D1",
"E.	c #CFD5D5",
"F.	c #CCD0CF",
"G.	c #D2D4D3",
"H.	c #D0D1D3",
"I.	c #D0D0D8",
"J.	c #CBCEDF",
"K.	c #CCD1F1",
"L.	c #050D3E",
"M.	c #3C4787",
"N.	c #505EA7",
"O.	c #30408B",
"P.	c #6C7DC2",
"Q.	c #000033",
"R.	c #414D73",
"S.	c #B7C2D8",
"T.	c #CBD3DE",
"U.	c #CFD4DA",
"V.	c #B9BDBE",
"W.	c #DFE3E4",
"X.	c #CBCFD0",
"Y.	c #C6CAC9",
"Z.	c #D6DAD9",
"`.	c #D0D4D7",
" +	c #CCD0D3",
".+	c #CED1D8",
"++	c #CBCEE1",
"@+	c #CBD1F5",
"#+	c #030C43",
"$+	c #36448D",
"%+	c #4959B0",
"&+	c #495AB4",
"*+	c #4151A8",
"=+	c #3D4B92",
"-+	c #2E3B72",
";+	c #0A133C",
">+	c #C0C6E0",
",+	c #CBCFDA",
"'+	c #D7DBDE",
")+	c #D8DCDD",
"!+	c #D7DBDC",
"~+	c #C3C7C8",
"{+	c #DADEDD",
"]+	c #D0D3D8",
"^+	c #D0D2D1",
"/+	c #CED2D5",
"(+	c #C9CFDF",
"_+	c #C9D1F5",
":+	c #020D45",
"<+	c #3E4E9C",
"[+	c #4555B4",
"}+	c #293BA1",
"|+	c #4658BC",
"1+	c #4C5CB3",
"2+	c #434F97",
"3+	c #19225B",
"4+	c #22274D",
"5+	c #9194A3",
"6+	c #C6CACD",
"7+	c #D6DADB",
"8+	c #B4B8B9",
"9+	c #C9CDCC",
"0+	c #D2D3D7",
"a+	c #CED0CF",
"b+	c #D3D4CF",
"c+	c #D0D3CC",
"d+	c #CED3CF",
"e+	c #C9D0DA",
"f+	c #C8D3F1",
"g+	c #010E43",
"h+	c #354694",
"i+	c #4256B7",
"j+	c #4156C3",
"k+	c #2F41AF",
"l+	c #4555B7",
"m+	c #2D398F",
"n+	c #4F579F",
"o+	c #2F3565",
"p+	c #0F1427",
"q+	c #424649",
"r+	c #DBDFE0",
"s+	c #C5C9CA",
"t+	c #D9DDDC",
"u+	c #BDC1C0",
"v+	c #CED0CD",
"w+	c #D3D5CA",
"x+	c #D0D3C8",
"y+	c #CED4CA",
"z+	c #C8D2D4",
"A+	c #C8D4EC",
"B+	c #000F40",
"C+	c #4659A6",
"D+	c #253B9E",
"E+	c #344ABA",
"F+	c #5367DA",
"G+	c #2533A0",
"H+	c #515DBF",
"I+	c #464EA1",
"J+	c #4E538D",
"K+	c #43485C",
"L+	c #000104",
"M+	c #747879",
"N+	c #DADEDF",
"O+	c #D0D4D5",
"P+	c #C9CDCE",
"Q+	c #D2D6D5",
"R+	c #DBDFDE",
"S+	c #D2D4D1",
"T+	c #CED1CA",
"U+	c #D3D5C7",
"V+	c #D0D4C3",
"W+	c #CED5C5",
"X+	c #C8D3CF",
"Y+	c #C6D6E6",
"Z+	c #00113C",
"`+	c #394F9A",
" @	c #495FC2",
".@	c #2F44B7",
"+@	c #2A3FB6",
"@@	c #4454C5",
"#@	c #3E49B2",
"$@	c #3E459F",
"%@	c #151B59",
"&@	c #000218",
"*@	c #A8ACAF",
"=@	c #DDE1E2",
"-@	c #CCD0D1",
";@	c #D9DDDE",
">@	c #B7BBBA",
",@	c #D0D4D3",
"'@	c #CED1C8",
")@	c #D2D6C7",
"!@	c #CDD5C8",
"~@	c #C7D3D3",
"{@	c #C6D5EC",
"]@	c #001040",
"^@	c #364995",
"/@	c #495DBE",
"(@	c #3244B2",
"_@	c #4B5BCA",
":@	c #3946AC",
"<@	c #5965BB",
"[@	c #010951",
"}@	c #9399C9",
"|@	c #B0B6C6",
"1@	c #B7BBBC",
"2@	c #D7DBDA",
"3@	c #DCE0DF",
"4@	c #CBCFCE",
"5@	c #D3D2CD",
"6@	c #D7D8D2",
"7@	c #C6CCC2",
"8@	c #CAD1CA",
"9@	c #CAD4D6",
"0@	c #CEDAEA",
"a@	c #C6D4F9",
"b@	c #01104B",
"c@	c #3C489A",
"d@	c #4C59B7",
"e@	c #4C56B7",
"f@	c #2F3992",
"g@	c #495297",
"h@	c #283263",
"i@	c #020B28",
"j@	c #C1C9D6",
"k@	c #C6C5C0",
"l@	c #D4D5CF",
"m@	c #D4D9D2",
"n@	c #D7E0DD",
"o@	c #C1CCD2",
"p@	c #B7C4D7",
"q@	c #A7B5DC",
"r@	c #1A2662",
"s@	c #49529F",
"t@	c #353D92",
"u@	c #3E4498",
"v@	c #6269B1",
"w@	c #00002E",
"x@	c #1F2640",
"y@	c #C0C9CE",
"z@	c #BDC7BF",
"A@	c #CED4D0",
"B@	c #D9D9D1",
"C@	c #D3D4CC",
"D@	c #C9CCC3",
"E@	c #D1D8D1",
"F@	c #C0CAC9",
"G@	c #C2CEDA",
"H@	c #9DABC8",
"I@	c #404C7C",
"J@	c #50599A",
"K@	c #4A529B",
"L@	c #575FA7",
"M@	c #2F3873",
"N@	c #000025",
"O@	c #9098AB",
"P@	c #B6BFBE",
"Q@	c #D9E0D8",
"R@	c #D6D6CC",
"S@	c #D0D2C7",
"T@	c #CACDC2",
"U@	c #D5DDD2",
"V@	c #CAD5CD",
"W@	c #CED9DB",
"X@	c #7A8798",
"Y@	c #253254",
"Z@	c #3B4578",
"`@	c #49528B",
" #	c #10174E",
".#	c #000736",
"+#	c #D4DBF8",
"@#	c #B2BAC5",
"##	c #E1E8E1",
"$#	c #C7CDC1",
"%#	c #CECBC4",
"&#	c #D4D4CA",
"*#	c #D5D7CA",
"=#	c #D0D6C8",
"-#	c #C6D1C3",
";#	c #D3DED8",
">#	c #818E94",
",#	c #394659",
"'#	c #566181",
")#	c #151E45",
"!#	c #8A92B9",
"~#	c #B3B9D9",
"{#	c #E5EAFD",
"]#	c #BCC1C5",
"^#	c #BFC5BB",
"/#	c #E3E9DB",
"(#	c #CFD4CD",
"_#	c #D5D2CD",
":#	c #D5D5CD",
"<#	c #D2D4C9",
"[#	c #C8CCBE",
"}#	c #C8D0C1",
"|#	c #D2DCD1",
"1#	c #869290",
"2#	c #2D383E",
"3#	c #2E3649",
"4#	c #0A1229",
"5#	c #BAC0DA",
"6#	c #C1C8DB",
"7#	c #D4D8E3",
"8#	c #E2E6D8",
"9#	c #CACEBF",
"0#	c #CFCDCE",
"a#	c #CECDCB",
"b#	c #D5D6CE",
"c#	c #D4D7CC",
"d#	c #D8DED0",
"e#	c #C6CEC1",
"f#	c #7E8880",
"g#	c #0C1615",
"h#	c #5F686F",
"i#	c #C0C8D3",
"j#	c #E0E6F4",
"k#	c #D6DAE6",
"l#	c #C5C8CD",
"m#	c #DADCD9",
"n#	c #CFD2C7",
"o#	c #D4D8CA",
"p#	c #D2D0D5",
"q#	c #CDCDCF",
"r#	c #D1D7CB",
"s#	c #D0D6CA",
"t#	c #D6DED3",
"u#	c #919B93",
"v#	c #C7CFD1",
"w#	c #DADFE3",
"x#	c #CCD0D9",
"y#	c #C1C4CB",
"z#	c #DFE0E2",
"A#	c #D7D9D6",
"B#	c #CACBC3",
"C#	c #D0D1C9",
"D#	c #D1D3CE",
"E#	c #D1D0D8",
"F#	c #D5D4DA",
"G#	c #D0D0D2",
"H#	c #D3D5D2",
"I#	c #CED3CC",
"J#	c #D0D6CC",
"K#	c #C2C9C2",
"L#	c #E0E6E4",
"M#	c #C8CCCD",
"N#	c #C8CBD0",
"O#	c #CACBCD",
"P#	c #CECECE",
"Q#	c #D8D7D3",
". + @ # $ % & * = - ; > , ' ) ! ~ { ] ] ] ] ^ ^ ^ ",
"/ ( _ : < [ } | 1 2 3 4 5 6 7 8 9 { ] ] ] ] ^ ^ ^ ",
"0 a b c d e f g h i j k l m n o p { ] ] ] ] ^ ^ ^ ",
"q r s t u v w x y z A B C D E F G { ] ] ] ] ^ ^ ^ ",
"H I J K L M N O P Q R S T U V W X { ] ] ] ] ^ ^ ^ ",
"Y Z `  ...+.@.#.$.%.&.*.=.-.;.>.X { ] ] ] ] ^ ^ ^ ",
",.'.).!.~.{.].^./.(._.:.<.[.}.|.1.{ ] ] ] ] ^ ^ ^ ",
"2.3.4.5.6.7.8.9.0.a.b.c.d.e.f.g.^ { ] ] ] ] ^ ^ ^ ",
"h.i.j.k.l.m.n.o.p.q.r.s.t.u.v.w.x.y.z.A.B.A.C.D.^ ",
"E.F.G.H.I.J.K.L.M.N.O.P.Q.R.S.T.U.{ V.A.W.X.Y.Z.^ ",
"`. +G.H..+++@+#+$+%+&+*+=+-+;+>+,+'+)+!+] ~+{+F.^ ",
"]+ +G.^+/+(+_+:+<+[+}+|+1+2+3+4+5+6+7+8+7+] 9+{+^ ",
"0+a+b+c+d+e+f+g+h+i+j+k+l+m+n+o+p+q+A.r+s+)+t+u+^ ",
"G.v+w+x+y+z+A+B+C+D+E+F+G+H+I+J+K+L+M+N+O+P+Q+R+^ ",
"S+T+U+V+W+X+Y+Z+`+ @.@+@@@#@$@%@&@*@=@-@;@A.>@,@^ ",
"b+'@)@W+!@~@{@]@^@/@(@_@:@<@[@}@|@r+1@2@O+9+3@4@^ ",
"5@6@7@8@9@0@a@b@c@d@e@f@g@h@i@j@_ ^ ^ 1.^ 1.1.1.1.",
"k@l@m@n@o@p@q@r@s@t@u@v@w@x@y@z@A@1.1.1.1.1.1.1.1.",
"B@C@D@E@F@G@H@I@J@K@L@M@N@O@P@Q@> 1.1.1.1.1.1.1.1.",
"R@S@T@U@V@W@X@Y@Z@`@ #.#+#@###$#> 1.1.1.1.1.1.1.1.",
"%#&#*#=#-#;#>#,#'#)#!#~#{#]#^#/#(#1.1.1.1.1.1.1.1.",
"_#:#<#[#}#|#1#2#3#4#5#6#7#u+8#9#(#1.1.1.1.1.1.1.1.",
"0#a#b#c#d#e#f#g#h#i#j#k#l#m#n#o#(#1.1.1.1.1.1.1.1.",
"p#q#~.'@r#s#t#u#v#w#x#y#z#A#B#C#D#1.1.1.1.1.1.1.1.",
"E#F#G#H#I#J#s K#L#M#N#0+O#P#Q#+.X 1.1.1.1.1.1.1.1."};
