/* XPM */
static char * frame_tostart_xpm[] = {
"25 25 591 2",
"  	c None",
". 	c #CBD5D6",
"+ 	c #CBD6D0",
"@ 	c #CAD6C8",
"# 	c #C9D6C4",
"$ 	c #CAD4C9",
"% 	c #C9D2D1",
"& 	c #CACDE0",
"* 	c #CACCE5",
"= 	c #CFD0E4",
"- 	c #CCCFD6",
"; 	c #D4DACE",
"> 	c #D5DDC6",
", 	c #C9D3BB",
"' 	c #C4CCBF",
") 	c #CFD4DA",
"! 	c #CFD1DD",
"~ 	c #C4C2C3",
"{ 	c #FBF8F3",
"] 	c #C4C3BF",
"^ 	c #D1D2CD",
"/ 	c #DFDFDD",
"( 	c #CED0CD",
"_ 	c #D2D6D5",
": 	c #CFD3D2",
"< 	c #CDD3D3",
"[ 	c #CAD4D5",
"} 	c #CAD5CF",
"| 	c #CBD6C6",
"1 	c #CBD5CA",
"2 	c #CBD4D3",
"3 	c #CED1E0",
"4 	c #CED0E5",
"5 	c #CDCFDE",
"6 	c #D8DBE0",
"7 	c #CCD2C6",
"8 	c #CED6C1",
"9 	c #BDC6B1",
"0 	c #E1E9DC",
"a 	c #C0C5CB",
"b 	c #D9DCE5",
"c 	c #DFDFDF",
"d 	c #D2D1CD",
"e 	c #CAC9C5",
"f 	c #E5E6E1",
"g 	c #BDBFBC",
"h 	c #CFD1CE",
"i 	c #D5D9D8",
"j 	c #D1D5D4",
"k 	c #CED4D2",
"l 	c #CAD3D2",
"m 	c #CAD3CE",
"n 	c #CED6CB",
"o 	c #CFD6CF",
"p 	c #CFD5D5",
"q 	c #D1D4DD",
"r 	c #D1D3DF",
"s 	c #D0D3DC",
"t 	c #CDD1D2",
"u 	c #C9CFC5",
"v 	c #D0D7C7",
"w 	c #CBD1C3",
"x 	c #D0D5CE",
"y 	c #CFD3D6",
"z 	c #CED1D8",
"A 	c #D0D0D2",
"B 	c #C9C9C7",
"C 	c #CCCCCA",
"D 	c #CDCDCB",
"E 	c #CCCECB",
"F 	c #C9CBC8",
"G 	c #D1D6D2",
"H 	c #CACFCB",
"I 	c #CCD2CE",
"J 	c #CDD3CF",
"K 	c #CDD4CD",
"L 	c #CED4D0",
"M 	c #D0D4D7",
"N 	c #D3D7D8",
"O 	c #C9CECA",
"P 	c #C5CAC3",
"Q 	c #E7EDE3",
"R 	c #D4D9D2",
"S 	c #B8BDB7",
"T 	c #E5E9EA",
"U 	c #C3C7CA",
"V 	c #CCCDD1",
"W 	c #DADBDD",
"X 	c #C6C7C9",
"Y 	c #E1E3E2",
"Z 	c #CED0CF",
"` 	c #CDD2CE",
" .	c #D7DCD8",
"..	c #D5DAD6",
"+.	c #CFD4CD",
"@.	c #CED3CD",
"#.	c #CED2D1",
"$.	c #CED2D3",
"%.	c #CDD1D0",
"&.	c #CCD1CB",
"*.	c #CCD1CA",
"=.	c #CED4CA",
"-.	c #DCE1DA",
";.	c #CBD0CC",
">.	c #C2C6C5",
",.	c #BFC3C4",
"'.	c #CBCFD0",
").	c #D6DAD9",
"!.	c #D1D5D6",
"~.	c #D3D6DB",
"{.	c #C8CBD0",
"].	c #DADEE1",
"^.	c #5D6162",
"/.	c #BEC2C1",
"(.	c #CED3CF",
"_.	c #D7DCD6",
":.	c #D6DBD5",
"<.	c #D1D4CB",
"[.	c #D1D4CD",
"}.	c #D0D1D3",
"|.	c #CDD0D5",
"1.	c #CCCFD4",
"2.	c #CCD0CF",
"3.	c #CBD1C5",
"4.	c #CBD2C2",
"5.	c #C4CABC",
"6.	c #D6DCD2",
"7.	c #C9CDD0",
"8.	c #474A53",
"9.	c #A1A4AD",
"0.	c #C0C5C1",
"a.	c #DBE1DF",
"b.	c #C2C6D1",
"c.	c #D4DAE8",
"d.	c #E4EAF6",
"e.	c #4F565E",
"f.	c #000105",
"g.	c #A2A8A8",
"h.	c #C6CBC7",
"i.	c #D6DBD4",
"j.	c #D1D3C8",
"k.	c #D1D2CC",
"l.	c #D1D0D6",
"m.	c #D0D0DA",
"n.	c #CCD4C5",
"o.	c #CCD5C0",
"p.	c #C3CCBB",
"q.	c #BFC6BE",
"r.	c #777B86",
"s.	c #111427",
"t.	c #67687C",
"u.	c #CBCDDA",
"v.	c #D1D7D5",
"w.	c #BFC6D6",
"x.	c #D8E0F7",
"y.	c #ABB2C5",
"z.	c #000714",
"A.	c #00010B",
"B.	c #91999B",
"C.	c #CFD5D3",
"D.	c #CFD6CE",
"E.	c #D2D8CE",
"F.	c #D1D1C5",
"G.	c #D1D0CB",
"H.	c #D1D0D8",
"I.	c #D1D0DE",
"J.	c #CFD2DB",
"K.	c #D0D8C9",
"L.	c #CEDAC6",
"M.	c #C8D3C5",
"N.	c #BBC4C3",
"O.	c #000317",
"P.	c #4E4F6E",
"Q.	c #1D1E3D",
"R.	c #D4D5E9",
"S.	c #DDE1E2",
"T.	c #C5CDCF",
"U.	c #CAD4ED",
"V.	c #9FAACA",
"W.	c #0A1330",
"X.	c #343C53",
"Y.	c #000414",
"Z.	c #767D83",
"`.	c #C4CACA",
" +	c #CBD2CB",
".+	c #D0D0C6",
"++	c #D0CFCB",
"@+	c #CDCBD6",
"#+	c #DDDCEA",
"$+	c #C1C3D0",
"%+	c #CCD1D5",
"&+	c #D7E1D8",
"*+	c #C8D4C8",
"=+	c #C0CBC7",
"-+	c #38404B",
";+	c #323659",
">+	c #545581",
",+	c #14163F",
"'+	c #CECFEB",
")+	c #C2C7CD",
"!+	c #D3DCE5",
"~+	c #BCC9EC",
"{+	c #0D1A47",
"]+	c #09153D",
"^+	c #3C4767",
"/+	c #000217",
"(+	c #5C646F",
"_+	c #CAD2D4",
":+	c #C7CEC7",
"<+	c #D0D6CC",
"[+	c #D5D5CD",
"}+	c #D9D8D6",
"|+	c #DDDCE4",
"1+	c #BBBAC8",
"2+	c #D3D7E3",
"3+	c #BDC4CE",
"4+	c #DCE6E7",
"5+	c #C9D4D6",
"6+	c #97A3AF",
"7+	c #1D2643",
"8+	c #4C5080",
"9+	c #53568D",
"0+	c #060839",
"a+	c #9EA1C4",
"b+	c #D7DDEB",
"c+	c #BAC2D5",
"d+	c #313F70",
"e+	c #1D2B68",
"f+	c #414E82",
"g+	c #596690",
"h+	c #030E2A",
"i+	c #374051",
"j+	c #CBD2D8",
"k+	c #D2D8D4",
"l+	c #CFCECC",
"m+	c #CFCDCE",
"n+	c #CBCAD0",
"o+	c #D6D8E4",
"p+	c #DCE2EE",
"q+	c #BEC6D3",
"r+	c #D3DFED",
"s+	c #3A465C",
"t+	c #000023",
"u+	c #5E6899",
"v+	c #494E8E",
"w+	c #505597",
"x+	c #000033",
"y+	c #434872",
"z+	c #D2D8EE",
"A+	c #000623",
"B+	c #071554",
"C+	c #3E4E99",
"D+	c #4B5A9B",
"E+	c #515E93",
"F+	c #0E1A40",
"G+	c #172238",
"H+	c #CAD3DC",
"I+	c #C9C7CA",
"J+	c #DAD9DE",
"K+	c #CECFD3",
"L+	c #D0D8E3",
"M+	c #C7D2E4",
"N+	c #C0CBE7",
"O+	c #000933",
"P+	c #202A65",
"Q+	c #303A81",
"R+	c #444B99",
"S+	c #393F8B",
"T+	c #080D4D",
"U+	c #7C82B4",
"V+	c #656B8B",
"W+	c #242D56",
"X+	c #3D4D9A",
"Y+	c #4859B3",
"Z+	c #364694",
"`+	c #3B4988",
" @	c #182454",
".@	c #0E1736",
"+@	c #C9D1DE",
"@@	c #CCD2D2",
"#@	c #D5DBD1",
"$@	c #DCDBE3",
"%@	c #C7C6CC",
"&@	c #D0D4D5",
"*@	c #DFE7E9",
"=@	c #CAD4DD",
"-@	c #7F8BA1",
";@	c #0E1B47",
">@	c #414C8C",
",@	c #414BA0",
"'@	c #4952AF",
")@	c #4248A6",
"!@	c #5961B4",
"~@	c #000040",
"{@	c #171E48",
"]@	c #545D94",
"^@	c #4A59B4",
"/@	c #3344AC",
"(@	c #4251AC",
"_@	c #45539E",
":@	c #16235A",
"<@	c #0E183C",
"[@	c #CBD2E4",
"}@	c #D2D7DA",
"|@	c #D2D7D0",
"1@	c #D3D1DE",
"2@	c #CDCDD5",
"3@	c #D3DEDA",
"4@	c #CAD7DD",
"5@	c #00011C",
"6@	c #101C56",
"7@	c #3F4B9F",
"8@	c #3E47B0",
"9@	c #363EAD",
"0@	c #434CB3",
"a@	c #4C55B0",
"b@	c #00024B",
"c@	c #0B144F",
"d@	c #474F80",
"e@	c #444F8F",
"f@	c #4251B8",
"g@	c #2A3EAF",
"h@	c #5160C5",
"i@	c #4655A8",
"j@	c #081351",
"k@	c #14204A",
"l@	c #CFD5EB",
"m@	c #CED3D7",
"n@	c #D3D8D1",
"o@	c #CDCBD9",
"p@	c #D6D6DE",
"q@	c #D2D9D2",
"r@	c #C3CEC6",
"s@	c #3D4A50",
"t@	c #5B6A87",
"u@	c #2E3B7F",
"v@	c #5C68CA",
"w@	c #535CD5",
"x@	c #3B43C0",
"y@	c #4C56C7",
"z@	c #444EAD",
"A@	c #000047",
"B@	c #111B59",
"C@	c #202962",
"D@	c #424E96",
"E@	c #4555C4",
"F@	c #374BC4",
"G@	c #4556C2",
"H@	c #3E4EA6",
"I@	c #061357",
"J@	c #192451",
"K@	c #CBD1E9",
"L@	c #CACFD5",
"M@	c #D5DAD3",
"N@	c #D8D4E3",
"O@	c #D5D4DC",
"P@	c #D0D5D1",
"Q@	c #C3CEC8",
"R@	c #AAB7BD",
"S@	c #00011E",
"T@	c #364485",
"U@	c #404DAB",
"V@	c #3C45BA",
"W@	c #4F57D3",
"X@	c #3C46B5",
"Y@	c #404AA9",
"Z@	c #000954",
"`@	c #4E5893",
" #	c #081245",
".#	c #3B4AAF",
"+#	c #4153C3",
"@#	c #3A49AE",
"##	c #4A59AC",
"$#	c #1A2565",
"%#	c #161F4A",
"&#	c #C2CAE1",
"*#	c #CFD6DE",
"=#	c #D2D7D3",
"-#	c #D4CED8",
";#	c #D4D1D8",
">#	c #D9DADC",
",#	c #BDC2C5",
"'#	c #C4CED8",
")#	c #2F3D57",
"!#	c #000031",
"~#	c #46529A",
"{#	c #4752AE",
"]#	c #4A53B8",
"^#	c #474FB2",
"/#	c #3F469E",
"(#	c #000042",
"_#	c #555D8E",
":#	c #8089AA",
"<#	c #101944",
"[#	c #45519D",
"}#	c #4853AC",
"|#	c #3C4797",
"1#	c #323D7F",
"2#	c #121C4F",
"3#	c #0F193D",
"4#	c #D0D8ED",
"5#	c #CAD1DB",
"6#	c #D4D8D9",
"7#	c #DAD5DB",
"8#	c #D1CFD4",
"9#	c #C9C9CB",
"0#	c #D2D6D9",
"a#	c #DBE4EB",
"b#	c #C4D1E2",
"c#	c #BDC9EF",
"d#	c #000035",
"e#	c #424E98",
"f#	c #515BB0",
"g#	c #3F479C",
"h#	c #5A61AF",
"i#	c #010743",
"j#	c #484F79",
"k#	c #ECF4FF",
"l#	c #4F5974",
"m#	c #00013C",
"n#	c #434B93",
"o#	c #454E8F",
"p#	c #464F86",
"q#	c #0F1843",
"r#	c #1D2645",
"s#	c #D6DEF1",
"t#	c #C1C8D2",
"u#	c #D3D8DB",
"v#	c #CCC6CA",
"w#	c #DEDADB",
"x#	c #C3C2C0",
"y#	c #C1C6C2",
"z#	c #C3D0D9",
"A#	c #D9E5FF",
"B#	c #0C1943",
"C#	c #000039",
"D#	c #424C91",
"E#	c #4C569D",
"F#	c #333D7B",
"G#	c #040C3D",
"H#	c #5C6584",
"I#	c #BEC7D6",
"J#	c #B0B8CD",
"K#	c #3F467A",
"L#	c #3D4584",
"M#	c #535C95",
"N#	c #3C4473",
"O#	c #0D1539",
"P#	c #111832",
"Q#	c #C4CBDB",
"R#	c #D8DFE5",
"S#	c #D0D6D6",
"T#	c #D0CACC",
"U#	c #E2DEDD",
"V#	c #E7E6E1",
"W#	c #CED1CA",
"X#	c #D4DBD4",
"Y#	c #BDC7C8",
"Z#	c #C6D2E0",
"`#	c #C0CEE9",
" $	c #C6D3FF",
".$	c #000438",
"+$	c #444D84",
"@$	c #495384",
"#$	c #081035",
"$$	c #434B62",
"%$	c #CDD6DD",
"&$	c #CCD4E1",
"*$	c #BCC3ED",
"=$	c #000032",
"-$	c #131A48",
";$	c #323A5F",
">$	c #343B57",
",$	c #141B2E",
"'$	c #C8D1DA",
")$	c #C9D1D3",
"!$	c #D6DCDA",
"~$	c #D5CFCF",
"{$	c #BBB8B3",
"]$	c #DEDED4",
"^$	c #CDCFC2",
"/$	c #D3DDD4",
"($	c #CCD8D8",
"_$	c #D4E0EC",
":$	c #D0DCF6",
"<$	c #8F9CBE",
"[$	c #283256",
"}$	c #2F375B",
"|$	c #000017",
"1$	c #49515E",
"2$	c #C7CFD1",
"3$	c #D9E0E6",
"4$	c #C1C6E4",
"5$	c #E1E6FF",
"6$	c #6C7294",
"7$	c #262C46",
"8$	c #1A2134",
"9$	c #121824",
"0$	c #BCC4C7",
"a$	c #DDE3E1",
"b$	c #DCE3DC",
"c$	c #E6E0E0",
"d$	c #D3D0CB",
"e$	c #DAD7CE",
"f$	c #D9DBCD",
"g$	c #D1D8C6",
"h$	c #D3DCCB",
"i$	c #D4E0D6",
"j$	c #BCC8C8",
"k$	c #C0CDD6",
"l$	c #BBC6D8",
"m$	c #00081F",
"n$	c #182035",
"o$	c #0A121F",
"p$	c #6E757B",
"q$	c #BAC0BC",
"r$	c #C7CDCD",
"s$	c #D6DBEE",
"t$	c #B7BBD4",
"u$	c #DBE0F4",
"v$	c #000010",
"w$	c #272C32",
"x$	c #EBF1F1",
"y$	c #C7CDC9",
"z$	c #CBC5C7",
"A$	c #D8D4D3",
"B$	c #CCC9C2",
"C$	c #D2D4C6",
"D$	c #D2D6C5",
"E$	c #BFC8B5",
"F$	c #C9D4C4",
"G$	c #D6E2D8",
"H$	c #D7E1E2",
"I$	c #DAE5EB",
"J$	c #BBC3CE",
"K$	c #171D29",
"L$	c #030710",
"M$	c #5C6063",
"N$	c #E3E8E4",
"O$	c #D4D8D7",
"P$	c #EFF3FF",
"Q$	c #A5A9B2",
"R$	c #D0D5DB",
"S$	c #070C0F",
"T$	c #000100",
"U$	c #C5CAC6",
"V$	c #CDD2CB",
"W$	c #C4CBC3",
"X$	c #D8D1D8",
"Y$	c #D0CCCD",
"Z$	c #D8D7D3",
"`$	c #D6D8CD",
" %	c #CED2C3",
".%	c #D7DECC",
"+%	c #CFD8C7",
"@%	c #C9D4C6",
"#%	c #CDD6D1",
"$%	c #D5DDE0",
"%%	c #858A8E",
"&%	c #000005",
"*%	c #5B5F60",
"=%	c #BFC1BE",
"-%	c #D8DAD7",
";%	c #CFD0D2",
">%	c #D4D5D7",
",%	c #CBCFCE",
"'%	c #0B100C",
")%	c #0E130D",
"!%	c #C6CBC4",
"~%	c #CDD5CA",
"{%	c #D6D1D8",
"]%	c #D3D1D2",
"^%	c #D5D6D0",
"/%	c #CFD2C7",
"(%	c #C6CCBE",
"_%	c #CAD0C2",
":%	c #D4DCD1",
"<%	c #C8CECC",
"[%	c #D6DCDC",
"}%	c #C2C6C9",
"|%	c #D1D5D8",
"1%	c #D7D8DA",
"2%	c #D5D6D8",
"3%	c #C8CAC5",
"4%	c #CDD0C9",
"5%	c #C6C7C1",
"6%	c #D7DAD3",
"7%	c #EBEEE5",
"8%	c #C4C7BE",
"9%	c #CCD2C8",
"0%	c #D1D6CF",
". + @ # $ % & * = - ; > , ' ) ! ~ { ] ^ / ( _ : < ",
"[ } @ | 1 2 3 4 5 6 7 8 9 0 a b c d e f g h i j k ",
"l m 1 n o p q r s t u v w x y z A B C D E F G H I ",
"I J K K L k M M N O P Q R S T U V W X Y Z `  ...J ",
"+.@.#.$.t %.&.*.=.-.;.>.,.'.).!.~.z {.].^./.(._.:.",
"<.[.}.|.1.2.3.4.5.6.7.8.9.~.0.a.b.c.d.e.f.g.h.&.i.",
"j.k.l.m.z #.n.o.p.q.r.s.t.u.O v.w.x.y.z.A.B.C.D.E.",
"F.G.H.I.J.p K.L.M.N.O.P.Q.R.S.T.U.V.W.X.Y.Z.`. +E.",
".+++@+#+$+%+&+*+=+-+;+>+,+'+)+!+~+{+]+^+/+(+_+:+<+",
"[+}+|+1+2+3+4+5+6+7+8+9+0+a+b+c+d+e+f+g+h+i+j+k+=.",
"l+m+n+o+p+q+r+s+t+u+v+w+x+y+z+A+B+C+D+E+F+G+H+C.E.",
"I+J+K+) L+M+N+O+P+Q+R+S+T+U+V+W+X+Y+Z+`+ @.@+@@@#@",
"$@%@&@*@=@-@;@>@,@'@)@!@~@x+{@]@^@/@(@_@:@<@[@}@|@",
"1@2@0.3@4@5@6@7@8@9@0@a@b@c@d@e@f@g@h@i@j@k@l@m@n@",
"o@p@q@r@s@t@u@v@w@x@y@z@A@B@C@D@E@F@G@H@I@J@K@L@M@",
"N@O@P@Q@R@S@T@U@V@W@X@Y@Z@`@ #e@.#+#@###$#%#&#*#=#",
"-#;#>#,#'#)#!#~#{#]#^#/#(#_#:#<#[#}#|#1#2#3#4#5#6#",
"7#8#9#0#a#b#c#d#e#f#g#h#i#j#k#l#m#n#o#p#q#r#s#t#u#",
"v#w#x#y#T.z#A#B#C#D#E#F#G#H#I#J#K#L#M#N#O#P#Q#R#S#",
"T#U#V#W#X#Y#Z#`# $.$+$@$#$$$%$&$*$=$-$;$>$,$'$)$!$",
"~${$]$^$w /$($_$:$<$[$}$|$1$2$3$4$5$6$7$8$9$0$a$b$",
"c$d$e$f$g$h$i$j$k$l$m$n$o$p$q$r$s$t$u$v$A.w$x$y$D.",
"z$A$B$C$D$E$F$G$H$I$J$K$L$M$N$O$q P$Q$R$S$T$U$V$W$",
"X$Y$Z$`$ %.%+%@%#%2 $%%%&%*%=%-%;%&@>%,%'%)%!%|@~%",
"{%8#]%^%/%(%_%:%o <%[%}%|%1%2%h 3%4%5%6%7%8%<+9%0%"};
