/* XPM */
static char * global_wind_xpm[] = {
"32 24 297 2",
"  	c #808080",
". 	c #7F7F80",
"+ 	c #7C7872",
"@ 	c #847C6F",
"# 	c #7D8084",
"$ 	c #808081",
"% 	c #8A7F6F",
"& 	c #9D7127",
"* 	c #AA7417",
"= 	c #AB874B",
"- 	c #7A7F86",
"; 	c #807D75",
"> 	c #838487",
", 	c #818181",
"' 	c #878279",
") 	c #D59629",
"! 	c #C37F0C",
"~ 	c #DE900D",
"{ 	c #AA8852",
"] 	c #C08E3A",
"^ 	c #A76E0B",
"/ 	c #5B4623",
"( 	c #787877",
"_ 	c #7E8083",
": 	c #978668",
"< 	c #E09618",
"[ 	c #D88D0F",
"} 	c #E09822",
"| 	c #C39039",
"1 	c #C9830B",
"2 	c #593800",
"3 	c #65553C",
"4 	c #828385",
"5 	c #7E7B77",
"6 	c #776951",
"7 	c #80725C",
"8 	c #A6844C",
"9 	c #E39716",
"0 	c #F09C0D",
"a 	c #C99238",
"b 	c #D48C10",
"c 	c #7B4E02",
"d 	c #A57D3B",
"e 	c #7E8085",
"f 	c #7F8082",
"g 	c #947C52",
"h 	c #9D6200",
"i 	c #7B4D00",
"j 	c #A06E1B",
"k 	c #C7871E",
"l 	c #F19C0B",
"m 	c #E3981C",
"n 	c #C2821B",
"o 	c #8D5A02",
"p 	c #96733B",
"q 	c #7F8185",
"r 	c #828487",
"s 	c #848587",
"t 	c #8D8270",
"u 	c #B6760A",
"v 	c #8E5800",
"w 	c #885600",
"x 	c #C17B05",
"y 	c #D78907",
"z 	c #E2910B",
"A 	c #BE811E",
"B 	c #976104",
"C 	c #786540",
"D 	c #828286",
"E 	c #654D24",
"F 	c #54452A",
"G 	c #828384",
"H 	c #7F8081",
"I 	c #7E7E7D",
"J 	c #817054",
"K 	c #876223",
"L 	c #8F5E08",
"M 	c #C88008",
"N 	c #DC8E08",
"O 	c #78601F",
"P 	c #664A01",
"Q 	c #126706",
"R 	c #4E6A2D",
"S 	c #4B3004",
"T 	c #3C2702",
"U 	c #685F50",
"V 	c #828283",
"W 	c #808285",
"X 	c #80858C",
"Y 	c #80725D",
"Z 	c #84621C",
"` 	c #6A6805",
" .	c #045900",
"..	c #105D06",
"+.	c #147508",
"@.	c #303C00",
"#.	c #3C2700",
"$.	c #472C00",
"%.	c #5B492A",
"&.	c #808181",
"*.	c #7C7A77",
"=.	c #604D35",
"-.	c #343A18",
";.	c #13500D",
">.	c #006705",
",.	c #087E08",
"'.	c #1B7F0A",
").	c #795902",
"!.	c #6C4200",
"~.	c #5C3900",
"{.	c #563E14",
"].	c #746F65",
"^.	c #818182",
"/.	c #818286",
"(.	c #8A6A39",
"_.	c #263E00",
":.	c #025600",
"<.	c #067406",
"[.	c #0B830A",
"}.	c #0B800C",
"|.	c #055F07",
"1.	c #615312",
"2.	c #7D5A22",
"3.	c #695127",
"4.	c #6A4D1D",
"5.	c #7C7161",
"6.	c #818081",
"7.	c #7F7F7F",
"8.	c #677267",
"9.	c #175215",
"0.	c #026603",
"a.	c #097E08",
"b.	c #0B840B",
"c.	c #0A7709",
"d.	c #165504",
"e.	c #B77D08",
"f.	c #B9760C",
"g.	c #945D00",
"h.	c #936B28",
"i.	c #827A6B",
"j.	c #807E7C",
"k.	c #7F7E7D",
"l.	c #858385",
"m.	c #717671",
"n.	c #637263",
"o.	c #5E715E",
"p.	c #667666",
"q.	c #476447",
"r.	c #045404",
"s.	c #027003",
"t.	c #0A830A",
"u.	c #0A800A",
"v.	c #0C6908",
"w.	c #334D05",
"x.	c #9F6504",
"y.	c #CA820C",
"z.	c #E19009",
"A.	c #C17C07",
"B.	c #A46802",
"C.	c #8D5800",
"D.	c #6E4B10",
"E.	c #5F5440",
"F.	c #7E7D7D",
"G.	c #838283",
"H.	c #797A79",
"I.	c #3E5A3E",
"J.	c #175017",
"K.	c #0B570B",
"L.	c #076207",
"M.	c #0F6B0E",
"N.	c #016200",
"O.	c #077A07",
"P.	c #0C860B",
"Q.	c #067806",
"R.	c #125D13",
"S.	c #5E6A4A",
"T.	c #8E6013",
"U.	c #9E6300",
"V.	c #C68922",
"W.	c #DE8F08",
"X.	c #EE9809",
"Y.	c #BF7E0E",
"Z.	c #AE6E00",
"`.	c #875400",
" +	c #694F22",
".+	c #7E7D7B",
"++	c #737773",
"@+	c #1D491D",
"#+	c #014B01",
"$+	c #015A01",
"%+	c #046C04",
"&+	c #057705",
"*+	c #077E06",
"=+	c #097D08",
"-+	c #097A08",
";+	c #026A02",
">+	c #2C5B2C",
",+	c #797D7A",
"'+	c #867E72",
")+	c #967134",
"!+	c #986F27",
"~+	c #D48D17",
"{+	c #D2962E",
"]+	c #F09A08",
"^+	c #D69121",
"/+	c #917644",
"(+	c #A86B02",
"_+	c #8C7651",
":+	c #7B7D7B",
"<+	c #2C502C",
"[+	c #004B00",
"}+	c #046004",
"|+	c #097109",
"1+	c #0B7D0B",
"2+	c #0A840A",
"3+	c #0A860A",
"4+	c #0B8109",
"5+	c #0A6309",
"6+	c #4B654B",
"7+	c #828082",
"8+	c #7F8184",
"9+	c #7D8086",
"0+	c #DE9315",
"a+	c #B48C4B",
"b+	c #E19411",
"c+	c #E89407",
"d+	c #BD8D3E",
"e+	c #7D7F83",
"f+	c #80807F",
"g+	c #5A665A",
"h+	c #004000",
"i+	c #055F05",
"j+	c #0F750F",
"k+	c #128212",
"l+	c #108510",
"m+	c #0D860C",
"n+	c #0C830B",
"o+	c #0A7809",
"p+	c #406D40",
"q+	c #878287",
"r+	c #7E8082",
"s+	c #A68957",
"t+	c #8F8470",
"u+	c #CF9635",
"v+	c #C6810C",
"w+	c #E3920B",
"x+	c #998566",
"y+	c #848384",
"z+	c #264426",
"A+	c #004E00",
"B+	c #0B690B",
"C+	c #137E13",
"D+	c #128312",
"E+	c #0E810E",
"F+	c #0C7D0B",
"G+	c #097609",
"H+	c #095F08",
"I+	c #6C776C",
"J+	c #828182",
"K+	c #8D8475",
"L+	c #B98429",
"M+	c #9E6400",
"N+	c #988461",
"O+	c #203E20",
"P+	c #004900",
"Q+	c #076307",
"R+	c #0B700B",
"S+	c #0A730A",
"T+	c #087108",
"U+	c #076807",
"V+	c #005300",
"W+	c #4A654A",
"X+	c #848284",
"Y+	c #83807B",
"Z+	c #817D76",
"`+	c #81807F",
" @	c #828282",
".@	c #434D43",
"+@	c #003100",
"@@	c #004C00",
"#@	c #015701",
"$@	c #025A02",
"%@	c #035403",
"&@	c #034403",
"*@	c #4C614C",
"=@	c #7E7E7E",
"-@	c #374237",
";@	c #163816",
">@	c #123F12",
",@	c #184418",
"'@	c #2C4B2C",
")@	c #626A62",
"!@	c #838183",
"~@	c #717171",
"{@	c #6C6F6C",
"]@	c #717371",
"^@	c #807F80",
"                                                                ",
"                          . + @ #     $                         ",
"                          % & * = -   ; > ,                     ",
"                          ' ) ! ~ { ] ^ / ( ,                   ",
"                          _ : < [ } | 1 2 3 4                   ",
"                        5 6 7 8 9 0 a b c d e                   ",
"                      f g h i j k l m n o p q r s               ",
"                        t u v w x y z A B C D E F G             ",
"                        H I J K L M N O P Q R S T U V           ",
"                          $ W X Y Z `  ...+.@.#.$.%.G           ",
"                          &.*.=.-.;.>.,.'.).!.~.{.].^.          ",
"                          /.(._.:.<.[.}.|.1.2.3.4.5.$           ",
"                  6.6.6.7.8.9.0.a.b.c.d.e.f.g.h.i.j.k.          ",
"            , l.m.n.o.p.q.r.s.t.u.v.w.x.y.z.A.B.C.D.E.F.        ",
"          G.H.I.J.K.L.M.N.O.P.Q.R.S.T.U.V.W.X.Y.Z.`. +.+        ",
"        6.++@+#+$+%+&+*+=+-+;+>+,+'+)+!+~+{+]+^+/+(+_+          ",
"        :+<+[+}+|+1+2+3+4+5+6+7+  $ 8+9+0+a+b+c+d+e+f+          ",
"      , g+h+i+j+k+l+m+n+o+p+q+        r+s+t+u+v+w+x+r+          ",
"      y+z+A+B+C+D+E+F+G+H+I+J+          e+e+K+L+M+N+r+          ",
"      y+O+P+Q+R+S+T+U+V+W+X+                $ Y+Z+`+            ",
"       @.@+@@@#@$@%@&@*@l.                                      ",
"        =@-@;@>@,@'@)@!@                                        ",
"          6.~@{@]@^@G.                                          ",
"                                                                "};
