/* XPM */
static char * goniometric_light_xpm[] = {
"32 24 157 2",
"  	c #808080",
". 	c #F7F2F0",
"+ 	c #E7E7E7",
"@ 	c #3DBBE8",
"# 	c #40C4F3",
"$ 	c #43CBFC",
"% 	c #46D1FF",
"& 	c #49D9FF",
"* 	c #FFFFFF",
"= 	c #48D7FF",
"- 	c #EBEBEB",
"; 	c #F8F8F8",
"> 	c #43CDFF",
", 	c #46D5FF",
"' 	c #49DCFF",
") 	c #51F2FF",
"! 	c #54F8FF",
"~ 	c #57FCFF",
"{ 	c #58FEFF",
"] 	c #3729FF",
"^ 	c #3196BA",
"/ 	c #EEEEEE",
"( 	c #FBFBFB",
"_ 	c #58FFFF",
": 	c #5BFFFF",
"< 	c #5DFFFF",
"[ 	c #34A1C8",
"} 	c #FDFDFD",
"| 	c #47DAFF",
"1 	c #4ADFFF",
"2 	c #4CE4FF",
"3 	c #60FFFF",
"4 	c #3196BB",
"5 	c #38ABD5",
"6 	c #44D2FF",
"7 	c #47D8FF",
"8 	c #49DEFF",
"9 	c #4CE3FF",
"0 	c #4FE9FF",
"a 	c #5EFFFF",
"b 	c #2D8AAC",
"c 	c #34A1C9",
"d 	c #3BB4E0",
"e 	c #48DBFF",
"f 	c #4BE1FF",
"g 	c #4EE7FF",
"h 	c #52EDFF",
"i 	c #55F3FF",
"j 	c #62FFFF",
"k 	c #61FFFF",
"l 	c #64FFFF",
"m 	c #3095B9",
"n 	c #37AAD4",
"o 	c #4DE4FF",
"p 	c #50EAFF",
"q 	c #54F1FF",
"r 	c #58F7FF",
"s 	c #66FFFF",
"t 	c #63FFFF",
"u 	c #65FFFF",
"v 	c #67FFFF",
"w 	c #C6C6C6",
"x 	c #4EE6FF",
"y 	c #8F8F8F",
"z 	c #329BC2",
"A 	c #69FFFF",
"B 	c #68FFFF",
"C 	c #949494",
"D 	c #36A8D1",
"E 	c #4BDDFF",
"F 	c #4EE4FF",
"G 	c #A0A0A0",
"H 	c #2E8EB0",
"I 	c #46D2FF",
"J 	c #48D8FF",
"K 	c #4CDEFF",
"L 	c #2C87A8",
"M 	c #329BC0",
"N 	c #38ACD6",
"O 	c #41C8F8",
"P 	c #46D3FF",
"Q 	c #4DE1FF",
"R 	c #5CFFFF",
"S 	c #59FFFF",
"T 	c #51EFFF",
"U 	c #2A82A2",
"V 	c #F4F4F4",
"W 	c #41C8F9",
"X 	c #44CDFF",
"Y 	c #49DAFF",
"Z 	c #4DE3FF",
"` 	c #57FDFF",
" .	c #5AFFFF",
"..	c #54F7FF",
"+.	c #9D9D9D",
"@.	c #2F90B3",
"#.	c #DADADA",
"$.	c #F5F5F5",
"%.	c #41C7F8",
"&.	c #43CCFD",
"*.	c #46D4FF",
"=.	c #4ADCFF",
"-.	c #53F5FF",
";.	c #55F9FF",
">.	c #56FBFF",
",.	c #56FCFF",
"'.	c #55F6FF",
").	c #53F2FF",
"!.	c #4FEAFF",
"~.	c #888888",
"{.	c #2A81A0",
"].	c #CBCBCB",
"^.	c #D9D9D9",
"/.	c #E8E8E8",
"(.	c #3FC1F0",
"_.	c #40C5F6",
":.	c #44CEFF",
"<.	c #50F0FF",
"[.	c #52F3FF",
"}.	c #53F4FF",
"|.	c #4ADDFF",
"1.	c #20647D",
"2.	c #2B84A5",
"3.	c #CACACA",
"4.	c #3EBFEE",
"5.	c #4EEAFF",
"6.	c #4FEBFF",
"7.	c #216781",
"8.	c #BBBBBB",
"9.	c #3094B9",
"0.	c #329BC1",
"a.	c #FEFEFE",
"b.	c #939393",
"c.	c #287D9B",
"d.	c #2B85A6",
"e.	c #2D8CAE",
"f.	c #3095BA",
"g.	c #F7F7F7",
"h.	c #3BB5E1",
"i.	c #3AB3DE",
"j.	c #39B0DB",
"k.	c #8A8A8A",
"l.	c #246E89",
"m.	c #267794",
"n.	c #2A81A1",
"o.	c #2E8FB2",
"p.	c #36A5CD",
"q.	c #35A2CA",
"r.	c #349FC6",
"s.	c #339CC2",
"t.	c #3298BE",
"u.	c #1D5B71",
"v.	c #959595",
"w.	c #9C9C9C",
"x.	c #A4A4A4",
"y.	c #ADADAD",
"z.	c #2D8BAC",
"                                                                ",
"                                .                               ",
"                      + @ # $ % & * * * =                       ",
"                    - ; * > , ' * ) ! ~ { ]                     ",
"                ^ / ( * * * * * * * _ : < < ]                   ",
"                [ } * | 1 2 * * * * * < 3 * ] ]                 ",
"              4 5 6 7 8 9 0 * * * * a * * * * ] ]               ",
"            b c d * e f g h i * j k k j * * * l ]               ",
"            m n * * 8 o p q r * s l t l u * v s k ]             ",
"            w } * * * x h * * * * v u u u * v s * *             ",
"          y z } * * * * * * * * * A B s * * * u * *             ",
"          C m D * * * E F * * * * * B v * * * * * *             ",
"          G H c * * I J K * * * * * * * * * * * < *             ",
"            L M N O > P & Q * * * * R < * * * < S T             ",
"            U ^ + V W X I Y Z * ` _ _ S  .* * { ..*             ",
"            +.@.#.+ $.%.&.*.=.* -...;.>.,.~ '.).!.              ",
"            ~.{.].^./.(._.:.* * * <.) [.}.* * * |.              ",
"              1.2.3.^.+ 4.* * * * * 5.6.* * * *                 ",
"                7.8.3.9.0.a.* * * * * 9 * * *                   ",
"                  b.c.d.e.f.g.} * * h.i.j.*                     ",
"                    k.l.m.n.o.0.p.q.r.s.t.                      ",
"                        u.v.w.x.y.z.b                           ",
"                                                                ",
"                                                                "};
