/* XPM */
static char * object_grid_xpm[] = {
"32 24 419 2",
"  	c #808080",
". 	c #807F7E",
"+ 	c #808081",
"@ 	c #808285",
"# 	c #7E8186",
"$ 	c #7C7C7B",
"% 	c #7E6C4E",
"& 	c #98753D",
"* 	c #96815F",
"= 	c #818182",
"- 	c #7F8184",
"; 	c #7E8083",
"> 	c #808182",
", 	c #7F8285",
"' 	c #7F8183",
") 	c #7E7C78",
"! 	c #816639",
"~ 	c #A0793C",
"{ 	c #775B2D",
"] 	c #9A6100",
"^ 	c #DB8B07",
"/ 	c #F5A010",
"( 	c #856F4A",
"_ 	c #8D7043",
": 	c #917C5C",
"< 	c #7F8080",
"[ 	c #808082",
"} 	c #7C776E",
"| 	c #866C41",
"1 	c #897A62",
"2 	c #6A4B16",
"3 	c #AD6F05",
"4 	c #E4920B",
"5 	c #ED9508",
"6 	c #956005",
"7 	c #C7810D",
"8 	c #B07308",
"9 	c #8F5D05",
"0 	c #C07B09",
"a 	c #EC970C",
"b 	c #A78959",
"c 	c #7E7870",
"d 	c #807A71",
"e 	c #7D8084",
"f 	c #7F7E7C",
"g 	c #80796D",
"h 	c #857E74",
"i 	c #7B7365",
"j 	c #855400",
"k 	c #C47C03",
"l 	c #F19704",
"m 	c #AE6D03",
"n 	c #B1730B",
"o 	c #EE9D12",
"p 	c #B07307",
"q 	c #8D5A01",
"r 	c #C98006",
"s 	c #D28405",
"t 	c #A06705",
"u 	c #CE8912",
"v 	c #ED9B0F",
"w 	c #9D6505",
"x 	c #9D6200",
"y 	c #D18204",
"z 	c #B6883E",
"A 	c #81807F",
"B 	c #7E7D7A",
"C 	c #7B5E2B",
"D 	c #A56600",
"E 	c #D48401",
"F 	c #B2740F",
"G 	c #9A6203",
"H 	c #D18A10",
"I 	c #EE9B0F",
"J 	c #A56905",
"K 	c #9B6202",
"L 	c #D18406",
"M 	c #996002",
"N 	c #AB6F08",
"O 	c #DF9311",
"P 	c #EE9A0C",
"Q 	c #925D02",
"R 	c #A56904",
"S 	c #C17906",
"T 	c #9D6302",
"U 	c #BA7A0C",
"V 	c #E8980F",
"W 	c #EF9C12",
"X 	c #978465",
"Y 	c #818181",
"Z 	c #70685A",
"` 	c #8B5600",
" .	c #CB860E",
"..	c #FCA410",
"+.	c #CF8407",
"@.	c #905A02",
"#.	c #C47C06",
"$.	c #B47206",
"%.	c #885702",
"&.	c #CB850D",
"*.	c #F9A20F",
"=.	c #D58808",
"-.	c #8A5803",
";.	c #BF7B08",
">.	c #A66A05",
",.	c #935E03",
"'.	c #C5820D",
").	c #F19C0D",
"!.	c #DB8A08",
"~.	c #AC7009",
"{.	c #D1890D",
"].	c #D28A0F",
"^.	c #927F61",
"/.	c #655D51",
"(.	c #7A4B00",
"_.	c #BC7B0A",
":.	c #CB840C",
"<.	c #7C4F01",
"[.	c #B67607",
"}.	c #E4940C",
"|.	c #FA9F0A",
"1.	c #A16503",
"2.	c #AB6E09",
"3.	c #C7820C",
"4.	c #7E5002",
"5.	c #A86C05",
"6.	c #D48A0A",
"7.	c #F09909",
"8.	c #AB6D04",
"9.	c #C2800E",
"0.	c #E5960F",
"a.	c #D78908",
"b.	c #724800",
"c.	c #905B00",
"d.	c #896425",
"e.	c #817E7B",
"f.	c #7A7978",
"g.	c #49330D",
"h.	c #815201",
"i.	c #744A03",
"j.	c #825301",
"k.	c #BF7D0C",
"l.	c #ED9D12",
"m.	c #BE7B09",
"n.	c #865601",
"o.	c #B97604",
"p.	c #D88806",
"q.	c #A16502",
"r.	c #B2750B",
"s.	c #E29614",
"t.	c #B67305",
"u.	c #8D5A02",
"v.	c #B07104",
"w.	c #966A1E",
"x.	c #574A38",
"y.	c #685B45",
"z.	c #7D7D7C",
"A.	c #808181",
"B.	c #6D6C6C",
"C.	c #524023",
"D.	c #5D4620",
"E.	c #573700",
"F.	c #986104",
"G.	c #B87608",
"H.	c #6E4601",
"I.	c #AC6F06",
"J.	c #DA9010",
"K.	c #F9A10E",
"L.	c #E89308",
"M.	c #8F5C03",
"N.	c #C17E09",
"O.	c #CE8509",
"P.	c #8C5804",
"Q.	c #613F02",
"R.	c #7A4E02",
"S.	c #774F0B",
"T.	c #B07005",
"U.	c #D48B18",
"V.	c #A1865C",
"W.	c #7E8081",
"X.	c #7F7F7E",
"Y.	c #7A694C",
"Z.	c #9A6917",
"`.	c #C88518",
" +	c #945C03",
".+	c #513300",
"++	c #623F02",
"@+	c #613D00",
"#+	c #9E6604",
"$+	c #CF880E",
"%+	c #E6960E",
"&+	c #DB8C09",
"*+	c #442B00",
"=+	c #694300",
"-+	c #885704",
";+	c #865502",
">+	c #AA6C05",
",+	c #BC7706",
"'+	c #996103",
")+	c #C88510",
"!+	c #F59E0D",
"~+	c #DC9624",
"{+	c #858077",
"]+	c #7E7B77",
"^+	c #774C02",
"/+	c #BF7D0B",
"(+	c #F49F0F",
"_+	c #F7A00C",
":+	c #8A5602",
"<+	c #A96B05",
"[+	c #513301",
"}+	c #9E6502",
"|+	c #AB6E05",
"1+	c #AC6C05",
"2+	c #825303",
"3+	c #B17107",
"4+	c #815303",
"5+	c #986203",
"6+	c #CD860C",
"7+	c #F79E0C",
"8+	c #C27B06",
"9+	c #B6770A",
"0+	c #D68B0B",
"a+	c #C38621",
"b+	c #847D74",
"c+	c #777470",
"d+	c #6B4100",
"e+	c #E59710",
"f+	c #875604",
"g+	c #A36803",
"h+	c #DB8C08",
"i+	c #EC9508",
"j+	c #4E3101",
"k+	c #4E3201",
"l+	c #875705",
"m+	c #7C5002",
"n+	c #A16603",
"o+	c #D48707",
"p+	c #D68606",
"q+	c #A36805",
"r+	c #D08A12",
"s+	c #F09C0F",
"t+	c #BC7809",
"u+	c #7D5004",
"v+	c #94610A",
"w+	c #836B42",
"x+	c #7D7C7B",
"y+	c #534121",
"z+	c #784C00",
"A+	c #8B5801",
"B+	c #734801",
"C+	c #BC7A0B",
"D+	c #ED9C12",
"E+	c #EA970D",
"F+	c #9D6202",
"G+	c #B07004",
"H+	c #BA7506",
"I+	c #8C5901",
"J+	c #B8790B",
"K+	c #E79912",
"L+	c #FFA60D",
"M+	c #9D6303",
"N+	c #9D6504",
"O+	c #B57405",
"P+	c #8A5F18",
"Q+	c #6C4E1D",
"R+	c #7D6540",
"S+	c #7E8086",
"T+	c #747474",
"U+	c #5F4F33",
"V+	c #684C1F",
"W+	c #563600",
"X+	c #A16805",
"Y+	c #CF860A",
"Z+	c #805203",
"`+	c #9E6503",
" @	c #D2890C",
".@	c #F89F0B",
"+@	c #CC8006",
"@@	c #9F6706",
"#@	c #D0880B",
"$@	c #DE8F0B",
"%@	c #7E5003",
"&@	c #664101",
"*@	c #754B02",
"=@	c #CC8207",
"-@	c #E59617",
";@	c #9F845B",
">@	c #7F7F7F",
",@	c #776951",
"'@	c #935F07",
")@	c #CE8409",
"!@	c #905A04",
"~@	c #4D3100",
"{@	c #734901",
"]@	c #694200",
"^@	c #A76C06",
"/@	c #D99112",
"(@	c #E59209",
"_@	c #583700",
":@	c #805102",
"<@	c #865401",
"[@	c #B57204",
"}@	c #B47003",
"|@	c #A06807",
"1@	c #D88F13",
"2@	c #F9A10D",
"3@	c #C58D32",
"4@	c #7C7F84",
"5@	c #7D7C79",
"6@	c #724F14",
"7@	c #B57608",
"8@	c #F19D12",
"9@	c #FAA30C",
"0@	c #945D03",
"a@	c #815103",
"b@	c #543501",
"c@	c #B37305",
"d@	c #C88108",
"e@	c #B17004",
"f@	c #5D3B01",
"g@	c #7C4E03",
"h@	c #784D02",
"i@	c #A36906",
"j@	c #DE910E",
"k@	c #FDA10B",
"l@	c #B37407",
"m@	c #CA8209",
"n@	c #A27B3A",
"o@	c #7E8084",
"p@	c #7C7B78",
"q@	c #62440F",
"r@	c #A66B05",
"s@	c #DC900D",
"t@	c #9E6706",
"u@	c #996203",
"v@	c #E08F09",
"w@	c #C47D08",
"x@	c #5C3B01",
"y@	c #6D4501",
"z@	c #724801",
"A@	c #AA6C04",
"B@	c #DD8C09",
"C@	c #C97E05",
"D@	c #A46A06",
"E@	c #D38C10",
"F@	c #EE9A0B",
"G@	c #976411",
"H@	c #724F13",
"I@	c #836129",
"J@	c #7D7971",
"K@	c #605747",
"L@	c #5F3B00",
"M@	c #885300",
"N@	c #684200",
"O@	c #B5760A",
"P@	c #EB9B13",
"Q@	c #F7A00D",
"R@	c #885502",
"S@	c #8F5A02",
"T@	c #A36604",
"U@	c #875601",
"V@	c #BD7C0C",
"W@	c #FFA30C",
"X@	c #855200",
"Y@	c #9B6200",
"Z@	c #A46B09",
"`@	c #807058",
" #	c #72706D",
".#	c #7B7C7B",
"+#	c #7F7E7E",
"@#	c #716F6B",
"##	c #726D65",
"$#	c #503403",
"%#	c #9A6303",
"&#	c #D0860A",
"*#	c #9B6302",
"=#	c #D1860A",
"-#	c #F79D0A",
";#	c #BE7704",
">#	c #A36905",
",#	c #D1890B",
"'#	c #D88903",
")#	c #6A583C",
"!#	c #5F5139",
"~#	c #797164",
"{#	c #818080",
"]#	c #828283",
"^#	c #605C55",
"/#	c #553704",
"(#	c #7D5207",
"_#	c #654001",
":#	c #DB9113",
"<#	c #FAA30F",
"[#	c #634105",
"}#	c #915D04",
"|#	c #86642B",
"1#	c #81807E",
"2#	c #727373",
"3#	c #6B6A68",
"4#	c #4D3916",
"5#	c #845300",
"6#	c #B97706",
"7#	c #CD8304",
"8#	c #A77523",
"9#	c #5D5D5D",
"0#	c #696358",
"a#	c #7C7C7D",
"b#	c #838484",
"c#	c #6F6D6B",
"d#	c #513F1F",
"e#	c #674304",
"f#	c #7F5D22",
"g#	c #7F796D",
"h#	c #828384",
"i#	c #818283",
"j#	c #7C7B7A",
"k#	c #7C7A77",
"l#	c #7E7D7B",
"                                  .                             ",
"                        + @ # $ % & * = - ;                     ",
"                  > , ' ) ! ~ { ] ^ / ( _ : < > [               ",
"                + } | 1 2 3 4 5 6 7 8 9 0 a b c d e             ",
"          f g h i j k l m n o p q r s t u v w x y z A           ",
"        B C D E F G H I J K L M N O P Q R S T U V W X +         ",
"      Y Z `  ...+.@.#.$.%.&.*.=.-.;.>.,.'.).!.~.{.].^.+         ",
"      = /.(._.:.<.[.}.|.1.2.3.4.5.6.7.8.9.0.a.b.c.d.e.          ",
"        f.g.h.i.j.k.l.m.n.o.p.q.r.s.*.t.u.v.w.x.y.z.A.          ",
"        + B.C.D.E.F.G.H.I.J.K.L.M.N.O.P.Q.R.S.T.U.V.W.          ",
"        X.Y.Z.`. +.+++@+#+$+%+&+*+=+-+;+>+,+'+)+!+~+{+          ",
"        ]+^+/+(+_+:+<+[+=+}+|+1+2+3+4+5+6+7+8+9+0+a+b+          ",
"        c+d+9+e+f+g+h+i+j+k+l+m+n+o+p+q+r+s+t+u+v+w+-           ",
"        x+y+z+A+B+C+D+E+F+G+H+I+J+K+L+M+N+O+P+Q+R+S+            ",
"          T+U+V+W+X+Y+Z+`+ @.@+@@@#@$@%@&@*@-.=@-@;@;           ",
"        >@,@'@)@!@~@{@]@^@/@(+(@_@u.:@<@[@}@|@1@2@3@4@          ",
"        5@6@7@8@9@0@a@b@h.c@d@e@f@g@h@i@j@k@G+l@m@n@o@          ",
"        p@q@r@s@t@u@v@w@x@y@2+z@A@B@C@D@E@F@G@H@I@J@A.          ",
"        X.K@L@M@N@O@P@Q@R@S@T@U@V@o W@X@Y@Z@`@ #.#>             ",
"          +#@###$#%#&#4+*#=#-#;#>#,#'#)#!#~#{#                  ",
"            Y ]#^#/#(#_#^@:#<#a.[#}#|#1#]#A.                    ",
"                ]#2#3#4#5#6#7#8#9#0#a#+                         ",
"                  Y b#c#d#e#f#g#h#i#+                           ",
"                      + j#k#l#                                  "};
