/* XPM */
static char * horizontal_text_xpm[] = {
"32 24 143 2",
"  	c #808080",
". 	c #807F7E",
"+ 	c #817E7A",
"@ 	c #817F7D",
"# 	c #80807F",
"$ 	c #817F7A",
"% 	c #808081",
"& 	c #8D6F3E",
"* 	c #8A5F19",
"= 	c #8D6D39",
"- 	c #827F7B",
"; 	c #827B71",
"> 	c #936823",
", 	c #827E79",
"' 	c #807E7A",
") 	c #827F79",
"! 	c #818180",
"~ 	c #7F8184",
"{ 	c #7F8183",
"] 	c #817E7B",
"^ 	c #82807C",
"/ 	c #8B6F41",
"( 	c #A56701",
"_ 	c #784C03",
": 	c #603C00",
"< 	c #926D32",
"[ 	c #808181",
"} 	c #7B756C",
"| 	c #905E0F",
"1 	c #986F2B",
"2 	c #A57424",
"3 	c #916821",
"4 	c #8C6627",
"5 	c #8D744B",
"6 	c #808182",
"7 	c #847D73",
"8 	c #947038",
"9 	c #A47526",
"0 	c #9E7022",
"a 	c #8A6323",
"b 	c #906E38",
"c 	c #837E76",
"d 	c #897350",
"e 	c #986003",
"f 	c #A46600",
"g 	c #8F6523",
"h 	c #6E4402",
"i 	c #945B00",
"j 	c #926C2D",
"k 	c #7F8286",
"l 	c #787470",
"m 	c #8A5E17",
"n 	c #B57103",
"o 	c #C27B02",
"p 	c #915A00",
"q 	c #4C2F00",
"r 	c #985E02",
"s 	c #8B7554",
"t 	c #877456",
"u 	c #A96700",
"v 	c #C17B05",
"w 	c #A96A00",
"x 	c #6B4200",
"y 	c #955D00",
"z 	c #937C56",
"A 	c #7F8082",
"B 	c #88775B",
"C 	c #9E6100",
"D 	c #A96A03",
"E 	c #A76C05",
"F 	c #A76B03",
"G 	c #AB6F05",
"H 	c #825304",
"I 	c #8D5700",
"J 	c #946C2E",
"K 	c #757575",
"L 	c #895F1C",
"M 	c #A1690E",
"N 	c #857C6F",
"O 	c #817F7C",
"P 	c #6C5939",
"Q 	c #9E6202",
"R 	c #907549",
"S 	c #665C4D",
"T 	c #8A5200",
"U 	c #90764A",
"V 	c #7B7264",
"W 	c #986615",
"X 	c #A16E1B",
"Y 	c #A36600",
"Z 	c #AD6C03",
"` 	c #9F7633",
" .	c #927645",
"..	c #937645",
"+.	c #957846",
"@.	c #745F3B",
"#.	c #412A05",
"$.	c #876C3D",
"%.	c #8F6927",
"&.	c #865300",
"*.	c #875300",
"=.	c #A06606",
"-.	c #B57302",
";.	c #C27900",
">.	c #8F7A58",
",.	c #62605C",
"'.	c #513301",
").	c #844F00",
"!.	c #996001",
"~.	c #AA6D08",
"{.	c #B77401",
"].	c #AC7315",
"^.	c #7E8185",
"/.	c #837F79",
"(.	c #9D7022",
"_.	c #987740",
":.	c #82807E",
"<.	c #808284",
"[.	c #665E50",
"}.	c #9F7226",
"|.	c #8A744F",
"1.	c #8F7344",
"2.	c #876B3A",
"3.	c #7C5E29",
"4.	c #9A6E20",
"5.	c #AB7C2B",
"6.	c #9C7F4D",
"7.	c #827F7C",
"8.	c #7D7D7C",
"9.	c #746958",
"0.	c #7A6033",
"a.	c #8D6725",
"b.	c #A5731F",
"c.	c #A77C33",
"d.	c #8D7E64",
"e.	c #81807D",
"f.	c #81807E",
"g.	c #807E7C",
"h.	c #827F7A",
"i.	c #82807B",
"j.	c #807F7D",
"k.	c #817F7B",
"l.	c #82807D",
"                                                                ",
"                                                                ",
"                                                                ",
"                                                                ",
"                                                                ",
"                                                                ",
"                                                                ",
"                                                                ",
"              . + @       # $                                   ",
"          %   & * = - %   ; > , ' ) ! ~   % { ] ) ^ ~ %         ",
"            / ( _ : < [   } | 1 2 3 4 5 6 7 8 9 0 a b c         ",
"          d e f g h i j k l m n o p q r s t u v w x y z A       ",
"      % B C D E F G H I J K L M N O P Q R S T U . V W X ~       ",
"    % ^ Y Z `  ...+.@.#.w $.%.&.*.=.-.;.>.,.'.).!.~.{.].^.      ",
"    % /.(._.:.~ ~ ~ <.[.}.|.1.2.3.4.5.6.7.8.9.0.a.b.c.d.%       ",
"        - e.          # - . @ f.g.h.i.        j.k.h.l.          ",
"                                                                ",
"                                                                ",
"                                                                ",
"                                                                ",
"                                                                ",
"                                                                ",
"                                                                ",
"                                                                "};
