/* XPM */
static char * image_light_xpm[] = {
"32 24 115 2",
"  	c #808080",
". 	c #64838D",
"+ 	c #64828D",
"@ 	c #678996",
"# 	c #678B98",
"$ 	c #688D9A",
"% 	c #688E9B",
"& 	c #688D9B",
"* 	c #678B97",
"= 	c #678995",
"- 	c #688E9C",
"; 	c #69919F",
"> 	c #6991A0",
", 	c #6A93A1",
"' 	c #6A94A3",
") 	c #6B95A4",
"! 	c #6A92A0",
"~ 	c #6A95A4",
"{ 	c #6B97A6",
"] 	c #6B96A6",
"^ 	c #6B97A7",
"/ 	c #6C99A9",
"( 	c #6B96A5",
"_ 	c #6C97A6",
": 	c #9CC6D5",
"< 	c #93AEB7",
"[ 	c #6C9BAC",
"} 	c #6D9DAE",
"| 	c #6E9FB0",
"1 	c #6D9CAD",
"2 	c #BDEDFE",
"3 	c #C2E2EE",
"4 	c #ACCCD7",
"5 	c #79A5B4",
"6 	c #FFFFFF",
"7 	c #6B95A5",
"8 	c #6C99AA",
"9 	c #6D9BAC",
"0 	c #6FA1B3",
"a 	c #6FA2B4",
"b 	c #70A2B5",
"c 	c #6F9FB1",
"d 	c #6E9FB1",
"e 	c #C8F9FF",
"f 	c #C4E5F1",
"g 	c #9ACCDE",
"h 	c #6E9DAE",
"i 	c #6E9BAB",
"j 	c #668995",
"k 	c #6E9EAF",
"l 	c #70A3B5",
"m 	c #70A4B6",
"n 	c #71A4B7",
"o 	c #71A5B8",
"p 	c #BCEFFF",
"q 	c #70A3B6",
"r 	c #70A2B4",
"s 	c #6C98A7",
"t 	c #6FA0B1",
"u 	c #72A7BA",
"v 	c #EEFFFF",
"w 	c #71A5B7",
"x 	c #6D9AAA",
"y 	c #6A92A1",
"z 	c #71A6B9",
"A 	c #72A8BB",
"B 	c #72A6B9",
"C 	c #75ACC0",
"D 	c #74ABBF",
"E 	c #72A6BA",
"F 	c #6E9CAD",
"G 	c #6B94A2",
"H 	c #6FA0B2",
"I 	c #73A9BC",
"J 	c #74AABE",
"K 	c #76ADC1",
"L 	c #70A1B3",
"M 	c #6E9EAE",
"N 	c #668691",
"O 	c #6E9DAD",
"P 	c #73AABD",
"Q 	c #75ACBF",
"R 	c #71A4B6",
"S 	c #6F9FB0",
"T 	c #6B94A3",
"U 	c #71A6B8",
"V 	c #75ADC1",
"W 	c #76AEC2",
"X 	c #6A93A2",
"Y 	c #70A2B3",
"Z 	c #72A7BB",
"` 	c #6D9BAB",
" .	c #71A6BA",
"..	c #6C98A8",
"+.	c #69909E",
"@.	c #73AABE",
"#.	c #668894",
"$.	c #6FA1B2",
"%.	c #6D9CAC",
"&.	c #678A96",
"*.	c #F9F9F9",
"=.	c #6EA0B2",
"-.	c #6C9AAB",
";.	c #CECECE",
">.	c #DCDCDC",
",.	c #E9E9E9",
"'.	c #6C9BAB",
").	c #658590",
"!.	c #9E9E9E",
"~.	c #BBBBBB",
"{.	c #668793",
"].	c #678A97",
"^.	c #6992A0",
"/.	c #668692",
"(.	c #688C9A",
"                                                                ",
"                                .                               ",
"                      + @ # $ % & $ * =                         ",
"                    @ - ; ; > , ' ) ! ! ! =                     ",
"                  $ > ~ { ] ] ^ / / / ( _ : <                   ",
"                % ' ^ / [ } | 1 1 1 1 2 3 4 5 6                 ",
"              $ 7 8 9 1 | 0 a b c d e f g h i 6                 ",
"            j ' 8 h k d l m n o 6 6 p q l r 6 6 _               ",
"            % s 1 t l q o o u 6 6 v o w n m 6 6 x               ",
"            y x k r z A B u 6 6 C D E B o 6 6 t F G             ",
"            ' F H w u I J 6 6 C K C D u 6 6 n L M (             ",
"          N ) O r n z P 6 6 Q C C K C 6 6 o R b S )             ",
"            T S r R U 6 6 V W C C Q 6 6 6 o R r O T             ",
"            X F Y R 6 6 D C V K J 6 6 6 Z o m L ` ,             ",
"            T x 0 6 6 o B D C D 6 6 6 z  .w b h ..+.            ",
"            - ..S 6 l R w @.D 6 6 6 o n q q | ` ( #.            ",
"              G 6 6 $.r l 6 6 6 o m q b 0 h %...!               ",
"              &.6 h | t *.6 6 q b a 0 =.1 -..., #.              ",
"                6 ) ;.>.,.%.1 1 =.d } '...( , &.                ",
"                ).!.~.;.s ..../ / 9 8 { ' ; @                   ",
"                    {.].! T T ) X X y ^.& /.                    ",
"                      ).N #.$ & (.# ].{.                        ",
"                                                                ",
"                                                                "};
