/* XPM */
static char * infinite_light_xpm[] = {
"32 24 97 2",
"  	c #808080",
". 	c #43CCFE",
"+ 	c #53ECFF",
"@ 	c #36A7D0",
"# 	c #4CE1FF",
"$ 	c #57F1FF",
"% 	c #4EE7FF",
"& 	c #54F6FF",
"* 	c #44D1FF",
"= 	c #53EFFF",
"- 	c #47D8FF",
"; 	c #3198BD",
"> 	c #3BB4E1",
", 	c #4DE3FF",
"' 	c #55F0FF",
") 	c #4BE3FF",
"! 	c #3EBDEA",
"~ 	c #45D4FF",
"{ 	c #53EBFF",
"] 	c #51EBFF",
"^ 	c #45D2FF",
"/ 	c #3EBFED",
"( 	c #4DE4FF",
"_ 	c #54EEFF",
": 	c #49DEFF",
"< 	c #3BB3DF",
"[ 	c #47D7FF",
"} 	c #52E9FF",
"| 	c #43CBFC",
"1 	c #FFFFFF",
"2 	c #4EE4FF",
"3 	c #47D9FF",
"4 	c #35A2CA",
"5 	c #55FBFF",
"6 	c #DADADA",
"7 	c #40C3F2",
"8 	c #297C9A",
"9 	c #48D9FF",
"0 	c #CACACA",
"a 	c #C5C5C5",
"b 	c #42CAFB",
"c 	c #50E7FF",
"d 	c #52ECFF",
"e 	c #48DBFF",
"f 	c #38ABD5",
"g 	c #39AED9",
"h 	c #4ADFFF",
"i 	c #52EAFF",
"j 	c #4BE2FF",
"k 	c #44D2FF",
"l 	c #50E8FF",
"m 	c #4FE7FF",
"n 	c #45D3FF",
"o 	c #2F90B3",
"p 	c #3FC1F0",
"q 	c #4CE2FF",
"r 	c #50E9FF",
"s 	c #48DCFF",
"t 	c #3AB3DE",
"u 	c #329ABF",
"v 	c #4FE5FF",
"w 	c #41C7F8",
"x 	c #41C8F8",
"y 	c #4EE5FF",
"z 	c #3195BA",
"A 	c #39B1DC",
"B 	c #4BE0FF",
"C 	c #53EAFF",
"D 	c #4BE1FF",
"E 	c #3FC0EF",
"F 	c #9B9B9B",
"G 	c #3CB8E5",
"H 	c #277793",
"I 	c #46D5FF",
"J 	c #4EE6FF",
"K 	c #44CFFF",
"L 	c #CBCBCB",
"M 	c #D9D9D9",
"N 	c #42CBFC",
"O 	c #41C8F9",
"P 	c #4FE6FF",
"Q 	c #46D7FF",
"R 	c #329AC0",
"S 	c #3AB4E0",
"T 	c #4BDFFF",
"U 	c #49DDFF",
"V 	c #2C87A7",
"W 	c #50E6FF",
"X 	c #42C9FA",
"Y 	c #BCBCBC",
"Z 	c #41C9FA",
"` 	c #4EE3FF",
" .	c #2E8DB0",
"..	c #DEDEDE",
"+.	c #39B0DA",
"@.	c #B7B7B7",
"#.	c #C1C1C1",
"                                                                ",
"                                      . +                       ",
"                                  @ # $ % &                     ",
"                                * + = - ;                       ",
"                            > , ' ) !                           ",
"                          ~ { ] ^                               ",
"                      / ( _ : <                                 ",
"                    [ } % |                                     ",
"                1 2 ] 3 4               5                       ",
"              6 1 ) 7               8 9 +                       ",
"              0 a 1               b c d e f                     ",
"                              g h i j 7                         ",
"                            k l m n o                           ",
"                        p q r s t                               ",
"                    u - v j w                   x l             ",
"                1 b , y ~ z                 A B C D E           ",
"              F 1 2 s G                 H I i J K               ",
"              L M N                   O P l Q R                 ",
"                                  S T c U G                     ",
"                              V I W j X                         ",
"                          Y Z ` ( n  .                          ",
"                          ..` 3 +.                              ",
"                        @.Y #.1                                 ",
"                                                                "};
