/* XPM */
static char * local_light_xpm[] = {
"32 24 52 1",
" 	c #808080",
".	c #3EBFED",
"+	c #49DAFF",
"@	c #54F6FF",
"#	c #48DBFF",
"$	c #54F7FF",
"%	c #5EFFFF",
"&	c #64FFFF",
"*	c #CECECE",
"=	c #FFFFFF",
"-	c #5DFFFF",
";	c #68FFFF",
">	c #61FFFF",
",	c #F1F1F1",
"'	c #5FFFFF",
")	c #AEAEAE",
"!	c #52F2FF",
"~	c #D0D0D0",
"{	c #EEEEEE",
"]	c #DADADA",
"^	c #FEFEFE",
"/	c #9D9D9D",
"(	c #E7E7E7",
"_	c #BFBFBF",
":	c #F0F0F0",
"<	c #BBBBBB",
"[	c #EFEFEF",
"}	c #B2B2B2",
"|	c #E5E5E5",
"1	c #FFFFFD",
"2	c #A2A2A2",
"3	c #F6F6F6",
"4	c #C0C0C0",
"5	c #FBFBFB",
"6	c #C7C7C7",
"7	c #E2E2E2",
"8	c #F4F4F4",
"9	c #A1A1A1",
"0	c #C2C2C2",
"a	c #D6D6D6",
"b	c #ECECEC",
"c	c #8F8F8F",
"d	c #B0B0B0",
"e	c #C4C4C4",
"f	c #D7D7D7",
"g	c #E8E8E8",
"h	c #EDEDED",
"i	c #E3E3E3",
"j	c #D2D2D2",
"k	c #898989",
"l	c #9F9F9F",
"m	c #A8A8A8",
"                                ",
"                                ",
"                                ",
"                  .+@           ",
"                 .#$%&          ",
"               *===-&;>         ",
"              ,======;'         ",
"            )=========!         ",
"           ~==========          ",
"          {===========          ",
"         ]^===========          ",
"        /(============          ",
"        _:============          ",
"        <[============          ",
"        }|===========1          ",
"        2]3==========           ",
"         4|5=========           ",
"         /678=======3           ",
"          90ab=====,            ",
"           cdefghij             ",
"             klm)               ",
"                                ",
"                                ",
"                                "};
