/* XPM */
static char * macro_sweep_xpm[] = {
"32 24 62 1",
" 	c #808080",
".	c #11FF43",
"+	c #12FE43",
"@	c #12FA43",
"#	c #13F242",
"$	c #12E63F",
"%	c #10D73B",
"&	c #0BBD31",
"*	c #05A928",
"=	c #029521",
"-	c #10FF43",
";	c #005913",
">	c #005312",
",	c #000902",
"'	c #01841D",
")	c #006516",
"!	c #04D530",
"~	c #006716",
"{	c #10CC39",
"]	c #11CD39",
"^	c #016316",
"/	c #016215",
"(	c #003E0D",
"_	c #04CC2D",
":	c #01AC25",
"<	c #03C42B",
"[	c #03B929",
"}	c #02B026",
"|	c #06C12D",
"1	c #05BF2C",
"2	c #002B09",
"3	c #06C22E",
"4	c #05C02D",
"5	c #003D0D",
"6	c #018A1D",
"7	c #9A6101",
"8	c #9D6302",
"9	c #9D6202",
"0	c #985E02",
"a	c #004F11",
"b	c #005B14",
"c	c #006416",
"d	c #965F01",
"e	c #976001",
"f	c #C78008",
"g	c #006415",
"h	c #006C17",
"i	c #007319",
"j	c #8D5A01",
"k	c #935D01",
"l	c #C67F08",
"m	c #784C00",
"n	c #7E5000",
"o	c #865501",
"p	c #029F24",
"q	c #02A525",
"r	c #03A826",
"s	c #03AB27",
"t	c #03AE28",
"u	c #04B028",
"v	c #724800",
"w	c #794D00",
"                                ",
"                                ",
"                                ",
"                                ",
"                                ",
"                                ",
"                  .+@#$%&*=     ",
"              ----;>     ,')    ",
"      !~{]]]]-^/           (    ",
"     _                     :    ",
"     <                    [     ",
"     }                  |1      ",
"     2                 34       ",
"      56     7890      3        ",
"       abc  ded7fff    3        ",
"         ghijkeffll   55        ",
"           mnofflpqrstu         ",
"            vwll                ",
"                                ",
"                                ",
"                                ",
"                                ",
"                                ",
"                                "};
