/* XPM */
static char * main_erase_xpm[] = {
"25 25 621 2",
"  	c None",
". 	c #C4C8C7",
"+ 	c #C9D3D2",
"@ 	c #BCD5D1",
"# 	c #C4D8D7",
"$ 	c #D4CEDA",
"% 	c #CBBDCC",
"& 	c #E3D7E3",
"* 	c #D1C7D0",
"= 	c #D4C8D2",
"- 	c #D3C6CF",
"; 	c #D2C1C9",
"> 	c #E3DDE1",
", 	c #C6D8D8",
"' 	c #BBD5D4",
") 	c #C4D3D8",
"! 	c #C0C4D0",
"~ 	c #DCD4EB",
"{ 	c #C5CBD9",
"] 	c #C1ECE5",
"^ 	c #A6D9C6",
"/ 	c #B7CEBA",
"( 	c #D4E0CC",
"_ 	c #EAF2E3",
": 	c #B0C2B4",
"< 	c #BAE2D7",
"[ 	c #CAD0D0",
"} 	c #D6E2DE",
"| 	c #BED8CF",
"1 	c #BCCFC9",
"2 	c #D8D2D4",
"3 	c #E3D2D8",
"4 	c #E3D7DB",
"5 	c #D3CACD",
"6 	c #E2DDE1",
"7 	c #DAD8DD",
"8 	c #D3D0D7",
"9 	c #C0C8CB",
"0 	c #B6D0CF",
"a 	c #BFDCDA",
"b 	c #D1DCE0",
"c 	c #DFDDE8",
"d 	c #CAC1D2",
"e 	c #D5D5DF",
"f 	c #A9C2BC",
"g 	c #C9E4D3",
"h 	c #DEDCCD",
"i 	c #CABEB0",
"j 	c #D0CDBE",
"k 	c #DBE6D8",
"l 	c #C0E2D4",
"m 	c #C9D5D5",
"n 	c #DDF0EA",
"o 	c #ABC8B6",
"p 	c #C5D8C4",
"q 	c #FFFFED",
"r 	c #DAC7B8",
"s 	c #EBDBCE",
"t 	c #C2BBB1",
"u 	c #C9CFCB",
"v 	c #A9B9B9",
"w 	c #C9E1E5",
"x 	c #B7D9DB",
"y 	c #B8E5E2",
"z 	c #B1D5D1",
"A 	c #C2C6C9",
"B 	c #D2C7CD",
"C 	c #E4D7DE",
"D 	c #C4B8BA",
"E 	c #EBE2DB",
"F 	c #D5BFB4",
"G 	c #410C06",
"H 	c #A06962",
"I 	c #DEC0B5",
"J 	c #E5DFD1",
"K 	c #B7CDC0",
"L 	c #C7D1D3",
"M 	c #B4BFB9",
"N 	c #E1ECDB",
"O 	c #D8D4BB",
"P 	c #1F0000",
"Q 	c #400C00",
"R 	c #F3C9B3",
"S 	c #EED3C2",
"T 	c #EEEBE2",
"U 	c #E2F1EE",
"V 	c #BBD7DA",
"W 	c #B8E0E0",
"X 	c #AEDFDB",
"Y 	c #C1E6DF",
"Z 	c #D7D7D7",
"` 	c #D7C9C6",
" .	c #CAC3B9",
"..	c #D7CBBD",
"+.	c #CEAA9E",
"@.	c #3C0000",
"#.	c #CD6B6A",
"$.	c #BC5D5B",
"%.	c #3D0200",
"&.	c #D0B9AB",
"*.	c #D0D4C6",
"=.	c #CFCED6",
"-.	c #DAD0D1",
";.	c #DFC5B8",
">.	c #450E00",
",.	c #B95641",
"'.	c #B74731",
").	c #DE7F69",
"!.	c #FDBAA7",
"~.	c #DFBFB4",
"{.	c #DDD8D4",
"].	c #C6D1D3",
"^.	c #B8D1D5",
"/.	c #BAE1DC",
"(.	c #B8D6CE",
"_.	c #CFCCC5",
":.	c #DDD4C5",
"<.	c #BBC6A4",
"[.	c #F4F0CD",
"}.	c #420E00",
"|.	c #C26158",
"1.	c #DD5557",
"2.	c #DB565B",
"3.	c #923D38",
"4.	c #A4746A",
"5.	c #DCC5BD",
"6.	c #DCD9E2",
"7.	c #EEE0E0",
"8.	c #A48074",
"9.	c #D78E7B",
"0.	c #DB5C4B",
"a.	c #EB5A47",
"b.	c #E2604A",
"c.	c #CA644E",
"d.	c #330000",
"e.	c #F3D7CC",
"f.	c #C8C9C3",
"g.	c #BED8CD",
"h.	c #B6E3CF",
"i.	c #C9F3DB",
"j.	c #C5D1BB",
"k.	c #D9DABB",
"l.	c #ECEFC2",
"m.	c #160100",
"n.	c #A45A3F",
"o.	c #E77165",
"p.	c #E04648",
"q.	c #EB5A5F",
"r.	c #C86F69",
"s.	c #2E0000",
"t.	c #E8CBC3",
"u.	c #C9CCD1",
"v.	c #C8C3C0",
"w.	c #1B0400",
"x.	c #884937",
"y.	c #DB6152",
"z.	c #E85042",
"A.	c #EA5141",
"B.	c #E45F4C",
"C.	c #C76C57",
"D.	c #240000",
"E.	c #EFEBCE",
"F.	c #BDE1BD",
"G.	c #A4E9BA",
"H.	c #88D09E",
"I.	c #AFDAAD",
"J.	c #C0CBA0",
"K.	c #BEA676",
"L.	c #B07347",
"M.	c #BF5A3E",
"N.	c #EE6A5D",
"O.	c #E64E4D",
"P.	c #D65454",
"Q.	c #4E0A00",
"R.	c #F5D8C8",
"S.	c #CFC3B5",
"T.	c #C7CBCC",
"U.	c #D6D7D2",
"V.	c #E8E5D6",
"W.	c #D0AB99",
"X.	c #BC5A4D",
"Y.	c #D64C41",
"Z.	c #E04438",
"`.	c #F25F4D",
" +	c #CF5C41",
".+	c #A75F39",
"++	c #322000",
"@+	c #7E9A5F",
"#+	c #5C9F5A",
"$+	c #7AC17F",
"%+	c #6F9661",
"&+	c #0B0300",
"*+	c #A45D33",
"=+	c #C15531",
"-+	c #F47A62",
";+	c #C74837",
">+	c #E06158",
",+	c #570000",
"'+	c #EDC8B5",
")+	c #DCDEC8",
"!+	c #C4D1BF",
"~+	c #D0CCCB",
"{+	c #CBD0CA",
"]+	c #B7CCBB",
"^+	c #B5B6A6",
"/+	c #541E14",
"(+	c #D26C67",
"_+	c #DE534C",
":+	c #DA4435",
"<+	c #C23D1C",
"[+	c #D57441",
"}+	c #270000",
"|+	c #353600",
"1+	c #719B47",
"2+	c #9CC579",
"3+	c #A5A873",
"4+	c #B07853",
"5+	c #E35B41",
"6+	c #F85842",
"7+	c #D6523B",
"8+	c #C55B45",
"9+	c #560300",
"0+	c #300300",
"a+	c #D5DEC3",
"b+	c #B1D9BE",
"c+	c #B8ECD5",
"d+	c #DDD9D6",
"e+	c #B7C1B9",
"f+	c #B8D7C8",
"g+	c #C2D4C8",
"h+	c #F6DAD7",
"i+	c #3D0000",
"j+	c #CB665C",
"k+	c #CC553D",
"l+	c #F37A4F",
"m+	c #E07436",
"n+	c #C07124",
"o+	c #AD7B26",
"p+	c #1D0B00",
"q+	c #9F6C3D",
"r+	c #D57454",
"s+	c #F1553C",
"t+	c #CF3116",
"u+	c #EC8866",
"v+	c #2D0000",
"w+	c #D2B192",
"x+	c #E8E7CB",
"y+	c #9EBFA4",
"z+	c #B7EDD3",
"A+	c #B3EEDA",
"B+	c #C7CEC6",
"C+	c #D0DDD4",
"D+	c #BBD4CE",
"E+	c #C8D7D4",
"F+	c #E5D6DB",
"G+	c #F2D3D0",
"H+	c #C09783",
"I+	c #642D06",
"J+	c #934409",
"K+	c #C9641E",
"L+	c #D2560C",
"M+	c #EA6A21",
"N+	c #CF5E1C",
"O+	c #D0622D",
"P+	c #D55E3E",
"Q+	c #E26247",
"R+	c #D6502B",
"S+	c #D67445",
"T+	c #2D1500",
"U+	c #8C9E64",
"V+	c #CCE7BC",
"W+	c #B1D2B3",
"X+	c #B9DCC8",
"Y+	c #BAE0D3",
"Z+	c #B7DFD6",
"`+	c #C0D8CA",
" @	c #C6E0D3",
".@	c #CFE8E4",
"+@	c #B1C1C1",
"@@	c #C9CACC",
"#@	c #C8C9C1",
"$@	c #C1D5B0",
"%@	c #000B00",
"&@	c #4B3300",
"*@	c #C37A2B",
"=@	c #EE631E",
"-@	c #FE5417",
";@	c #FA501D",
">@	c #EF4C23",
",@	c #EE5438",
"'@	c #DC5738",
")@	c #B34F1B",
"!@	c #AA823D",
"~@	c #052E00",
"{@	c #62AE63",
"]@	c #9BDBA7",
"^@	c #BEECCF",
"/@	c #BFD6CC",
"(@	c #CEDCDC",
"_@	c #C1D3D3",
":@	c #B6E5D1",
"<@	c #9BC6B5",
"[@	c #BFDED6",
"}@	c #D6EDE7",
"|@	c #BED2C9",
"1@	c #B8DEC5",
"2@	c #ABFAC1",
"3@	c #63B467",
"4@	c #8FB75F",
"5@	c #9C802C",
"6@	c #E76728",
"7@	c #FA4615",
"8@	c #FF451C",
"9@	c #FF522C",
"0@	c #EF5533",
"a@	c #D56235",
"b@	c #D09A52",
"c@	c #899940",
"d@	c #58BA57",
"e@	c #5CD47B",
"f@	c #A1F4BE",
"g@	c #BAE4CC",
"h@	c #CDCBCC",
"i@	c #DAC8D4",
"j@	c #D4CED8",
"k@	c #BEE2D4",
"l@	c #C6E6D9",
"m@	c #B8D2C7",
"n@	c #B3CBBE",
"o@	c #C2DDCC",
"p@	c #A2D4B1",
"q@	c #9DFCBC",
"r@	c #60C170",
"s@	c #74AE59",
"t@	c #1B0E00",
"u@	c #C14E18",
"v@	c #FB4F27",
"w@	c #FD4521",
"x@	c #FF532F",
"y@	c #E2441D",
"z@	c #DF6D39",
"A@	c #2F0000",
"B@	c #89A244",
"C@	c #4AB74E",
"D@	c #34B559",
"E@	c #95E3AF",
"F@	c #B6D3C1",
"G@	c #EDDCE4",
"H@	c #DDC0D2",
"I@	c #D1D0D8",
"J@	c #D7CCD0",
"K@	c #C7C3C2",
"L@	c #E0ECE2",
"M@	c #BED3C0",
"N@	c #C2DAC0",
"O@	c #D4FDD3",
"P@	c #98DC9F",
"Q@	c #7ABC75",
"R@	c #829F5C",
"S@	c #280B00",
"T@	c #C75D35",
"U@	c #F96443",
"V@	c #E34623",
"W@	c #F6542E",
"X@	c #FF673D",
"Y@	c #D44C1A",
"Z@	c #AE5714",
"`@	c #3E2D00",
" #	c #7AC568",
".#	c #5CBD6C",
"+#	c #B2E5BA",
"@#	c #D8E2D7",
"##	c #DBC4CE",
"$#	c #DBC9D7",
"%#	c #BDD7D4",
"&#	c #E3C6D8",
"*#	c #E8D7E1",
"=#	c #B8BDB6",
"-#	c #CCDFC9",
";#	c #C1DBB8",
">#	c #B9D9AA",
",#	c #C0E9AD",
"'#	c #152D00",
")#	c #261100",
"!#	c #B97649",
"~#	c #D96944",
"{#	c #B2300C",
"]#	c #EA7446",
"^#	c #C84E1B",
"/#	c #E55727",
"(#	c #F06230",
"_#	c #DA662D",
":#	c #AC6827",
"<#	c #7B863A",
"[#	c #7FA461",
"}#	c #C6D5AE",
"|#	c #D3D2C0",
"1#	c #E0D5D3",
"2#	c #CACECF",
"3#	c #B5E0D6",
"4#	c #DBC7E3",
"5#	c #BAAEC2",
"6#	c #E5EEED",
"7#	c #C4DAC5",
"8#	c #C9E5BC",
"9#	c #C2DBA4",
"0#	c #CCDB9A",
"a#	c #220A00",
"b#	c #D3764A",
"c#	c #F26E48",
"d#	c #DE532C",
"e#	c #E26C3C",
"f#	c #C4843D",
"g#	c #B67A31",
"h#	c #C25A1D",
"i#	c #E5632F",
"j#	c #DB4C20",
"k#	c #D05128",
"l#	c #CE7A4B",
"m#	c #3A0600",
"n#	c #FCDFB7",
"o#	c #DCD8B5",
"p#	c #B0C2A8",
"q#	c #B8DEC9",
"r#	c #A7DAC9",
"s#	c #CDC0DE",
"t#	c #F7F2FF",
"u#	c #BDC3C3",
"v#	c #C3CFBB",
"w#	c #E8EEC8",
"x#	c #DED8A6",
"y#	c #361C00",
"z#	c #CF8C57",
"A#	c #C94924",
"B#	c #CD3D1A",
"C#	c #E46D42",
"D#	c #A56124",
"E#	c #939742",
"F#	c #879138",
"G#	c #3E0F00",
"H#	c #C4652F",
"I#	c #F76E4A",
"J#	c #D94328",
"K#	c #D75134",
"L#	c #BC5333",
"M#	c #370000",
"N#	c #FFEBC9",
"O#	c #D1DABB",
"P#	c #C1E1C9",
"Q#	c #BEE4D5",
"R#	c #D8D4E5",
"S#	c #BDBAC3",
"T#	c #E6E5E0",
"U#	c #E5D8C7",
"V#	c #D5AD94",
"W#	c #380000",
"X#	c #A95330",
"Y#	c #C95E3C",
"Z#	c #EB6E4E",
"`#	c #DB734C",
" $	c #AB7E47",
".$	c #142900",
"+$	c #65BC5B",
"@$	c #68C260",
"#$	c #7D984B",
"$$	c #96713A",
"%$	c #C7603D",
"&$	c #DB553C",
"*$	c #ED6954",
"=$	c #BD432E",
"-$	c #BE5947",
";$	c #340000",
">$	c #E2BEAE",
",$	c #D3CBBE",
"'$	c #CFD6CF",
")$	c #CAD8D9",
"!$	c #D1D7D5",
"~$	c #D0C7BE",
"{$	c #F8D2C5",
"]$	c #540000",
"^$	c #D56557",
"/$	c #EA6B5A",
"($	c #D75943",
"_$	c #DA684E",
":$	c #964D2A",
"<$	c #959059",
"[$	c #89C57D",
"}$	c #4DC36B",
"|$	c #44BC63",
"1$	c #84C581",
"2$	c #959765",
"3$	c #490900",
"4$	c #AE442E",
"5$	c #C54A3B",
"6$	c #EB6B60",
"7$	c #DA5F58",
"8$	c #C35B58",
"9$	c #FFD9D7",
"0$	c #D0C2C1",
"a$	c #BBE6D3",
"b$	c #C2DACA",
"c$	c #D6C6B7",
"d$	c #440100",
"e$	c #B7393A",
"f$	c #EA5052",
"g$	c #E9544E",
"h$	c #DA584B",
"i$	c #D77B66",
"j$	c #DEE3BB",
"k$	c #C2F4C3",
"l$	c #84E2A6",
"m$	c #92F6BA",
"n$	c #A4E8B9",
"o$	c #C5DFBA",
"p$	c #F1D6B9",
"q$	c #440000",
"r$	c #D26B62",
"s$	c #D35755",
"t$	c #E86165",
"u$	c #D05359",
"v$	c #C7686C",
"w$	c #8D4F52",
"x$	c #EFD2D4",
"y$	c #B3EBD2",
"z$	c #BEDEC7",
"A$	c #2E1D0D",
"B$	c #9A534D",
"C$	c #ED686D",
"D$	c #F1565C",
"E$	c #D04443",
"F$	c #E3776D",
"G$	c #390000",
"H$	c #DFC5AE",
"I$	c #C9CBB3",
"J$	c #BCD9BD",
"K$	c #C4F6D9",
"L$	c #B0EDCE",
"M$	c #96CCB2",
"N$	c #C0E3CB",
"O$	c #EAF0D6",
"P$	c #CBAC98",
"Q$	c #4A0100",
"R$	c #C65E5F",
"S$	c #CE5157",
"T$	c #CF565F",
"U$	c #C4656B",
"V$	c #430709",
"W$	c #E0C8C6",
"X$	c #AFE5CE",
"Y$	c #D9F9E4",
"Z$	c #C0B7A8",
"`$	c #400902",
" %	c #B95152",
".%	c #DE6769",
"+%	c #B04F49",
"@%	c #E7CEBA",
"#%	c #DED7C5",
"$%	c #EFE5DC",
"%%	c #BDB2B0",
"&%	c #CEC5C8",
"*%	c #D6DADB",
"=%	c #C9DFDC",
"-%	c #B2D2C7",
";%	c #CBEBD6",
">%	c #D3DBC6",
",%	c #C8A39A",
"'%	c #460000",
")%	c #C06165",
"!%	c #C26367",
"~%	c #FFBCBB",
"{%	c #E3BEB8",
"]%	c #DADAD0",
"^%	c #B5CFC2",
"/%	c #CFCFC3",
"(%	c #FCDED6",
"_%	c #400000",
":%	c #B66B66",
"<%	c #450C01",
"[%	c #D5B8A8",
"}%	c #D0D5C1",
"|%	c #C8D6C7",
"1%	c #CECDC9",
"2%	c #E3D2DA",
"3%	c #EACEDD",
"4%	c #CBB9C7",
"5%	c #CCDADD",
"6%	c #C0E0DB",
"7%	c #9AC6B7",
"8%	c #D0EFDF",
"9%	c #E4DAD1",
"0%	c #D7B0AB",
"a%	c #C38685",
"b%	c #420703",
"c%	c #F1CCC3",
"d%	c #D8CFC0",
"e%	c #C0D5C4",
"f%	c #D1DCE2",
"g%	c #C5D0D2",
"h%	c #CDD8D2",
"i%	c #C6C7BF",
"j%	c #D9C7BD",
"k%	c #1E0300",
"l%	c #DCC9BB",
"m%	c #D1D0BE",
"n%	c #C9E6D2",
"o%	c #ACD5C3",
"p%	c #BDDBD3",
"q%	c #CBD7D7",
"r%	c #D4CAD5",
"s%	c #D5CFD9",
"t%	c #BFD5D3",
"u%	c #B8E1D9",
"v%	c #A5D5C9",
"w%	c #B9DFD4",
"x%	c #BCC3BC",
"y%	c #E0D3CD",
"z%	c #EBD0C7",
"A%	c #E5D2C4",
"B%	c #D0D2BD",
"C%	c #C4DAC3",
"D%	c #B8E4CB",
". + @ # $ % & * = - ; > , ' ) ! ~ { ] ^ / ( _ : < ",
"[ } | 1 2 3 4 5 6 7 8 9 0 a b c d e f g h i j k l ",
"m n o p q r s t u v w x y z A B C D E F G H I J K ",
"L M N O P Q R S T U V W X Y Z `  ...+.@.#.$.%.&.*.",
"=.-.;.>.,.'.).!.~.{.].^./.(._.:.<.[.}.|.1.2.3.4.5.",
"6.7.8.9.0.a.b.c.d.e.f.g.h.i.j.k.l.m.n.o.p.q.r.s.t.",
"u.v.w.x.y.z.A.B.C.D.E.F.G.H.I.J.K.L.M.N.O.P.Q.R.S.",
"T.U.V.W.X.Y.Z.`. +.+++@+#+$+%+&+*+=+-+;+>+,+'+)+!+",
"~+{+]+^+/+(+_+:+<+[+}+|+1+2+3+4+5+6+7+8+9+0+a+b+c+",
"d+e+f+g+h+i+j+k+l+m+n+o+p+++q+r+s+t+u+v+w+x+y+z+A+",
"B+C+D+E+F+G+H+I+J+K+L+M+N+O+P+Q+R+S+T+U+V+W+X+Y+Z+",
"`+ @.@+@@@#@$@%@&@*@=@-@;@>@,@'@)@!@~@{@]@^@/@(@_@",
":@<@[@}@|@1@2@3@4@5@6@7@8@9@0@a@b@c@d@e@f@g@h@i@j@",
"k@l@m@n@o@p@q@r@s@t@u@v@w@x@y@z@A@B@C@D@E@F@G@H@I@",
"J@K@L@M@N@O@P@Q@R@S@T@U@V@W@X@Y@Z@`@ #.#+#@###$#%#",
"&#*#=#-#;#>#,#'#)#!#~#{#]#^#/#(#_#:#<#[#}#|#1#2#3#",
"4#5#6#7#8#9#0#a#b#c#d#e#f#g#h#i#j#k#l#m#n#o#p#q#r#",
"s#t#u#v#w#x#y#z#A#B#C#D#E#F#G#H#I#J#K#L#M#N#O#P#Q#",
"R#S#T#U#V#W#X#Y#Z#`# $.$+$@$#$$$%$&$*$=$-$;$>$,$'$",
")$!$~${$]$^$/$($_$:$<$[$}$|$1$2$3$4$5$6$7$8$M#9$0$",
"a$b$c$d$e$f$g$h$i$}+j$k$l$m$n$o$p$q$r$s$t$u$v$w$x$",
"y$z$A$B$C$D$E$F$G$H$I$J$K$L$M$N$O$P$Q$R$S$T$U$V$W$",
"X$Y$Z$`$ %.%+%M#@%#%$%%%&%*%=%-%;%>%,%'%)%!%~%{%]%",
"Y+^%/%(%_%:%<%[%}%|%1%2%3%4%5%6%7%8%9%0%a%b%c%d%e%",
"f%g%h%i%j%k%l%m%n%o%p%q%r%s%t%u%v%w%x%y%z%A%B%C%D%"};
