/* XPM */
static char * main_select_xpm[] = {
"25 25 194 2",
"  	c None",
". 	c #DADCD9",
"+ 	c #C8CAC7",
"@ 	c #D0D2CF",
"# 	c #D8DAD7",
"$ 	c #C3C5C2",
"% 	c #D7D9D6",
"& 	c #CED0CD",
"* 	c #C6C8C5",
"= 	c #DEE0DD",
"- 	c #CFD1CE",
"; 	c #CCCECB",
"> 	c #D3D5D2",
", 	c #D2D7D3",
"' 	c #D0D5D1",
") 	c #CFD4D0",
"! 	c #D1D6D2",
"~ 	c #CCD1CD",
"{ 	c #C1C3C0",
"] 	c #D2D4D1",
"^ 	c #DFE1DE",
"/ 	c #C5C7C4",
"( 	c #D5D7D4",
"_ 	c #D4D6D3",
": 	c #CED3CF",
"< 	c #CDD2CE",
"[ 	c #C0C2BF",
"} 	c #E6E8E5",
"| 	c #C4C6C3",
"1 	c #B6B8B5",
"2 	c #E5E7E4",
"3 	c #D6D8D5",
"4 	c #C2C4C1",
"5 	c #A6A8A5",
"6 	c #CBCDCA",
"7 	c #DBDDDA",
"8 	c #E1E3E0",
"9 	c #BBBDBA",
"0 	c #454744",
"a 	c #232522",
"b 	c #2D2F2C",
"c 	c #949693",
"d 	c #DCDEDB",
"e 	c #D1D3D0",
"f 	c #D3D8D4",
"g 	c #C7C9C6",
"h 	c #D9DBD8",
"i 	c #000100",
"j 	c #EFF1EE",
"k 	c #6F716E",
"l 	c #070906",
"m 	c #6E706D",
"n 	c #C9CBC8",
"o 	c #E0E2DF",
"p 	c #0A0C09",
"q 	c #F2F4F1",
"r 	c #FEFFFD",
"s 	c #4D4F4C",
"t 	c #787A77",
"u 	c #BEC0BD",
"v 	c #EBEDEA",
"w 	c #C8CDC9",
"x 	c #C9CECA",
"y 	c #E4E6E3",
"z 	c #2A2C29",
"A 	c #FBFDFA",
"B 	c #9B9D9A",
"C 	c #000200",
"D 	c #CDCFCC",
"E 	c #CACFCB",
"F 	c #C3C8C4",
"G 	c #C5CAC6",
"H 	c #7D7F7C",
"I 	c #F1F3F0",
"J 	c #E9EBE8",
"K 	c #7B7D7A",
"L 	c #626461",
"M 	c #CBD0CC",
"N 	c #E1E6E2",
"O 	c #C4C9C5",
"P 	c #DEE3DF",
"Q 	c #D4D9D5",
"R 	c #DDE2DE",
"S 	c #CACCC9",
"T 	c #3A3C39",
"U 	c #E8EAE7",
"V 	c #FCFEFB",
"W 	c #3B3D3A",
"X 	c #414642",
"Y 	c #E3E8E4",
"Z 	c #C6CBC7",
"` 	c #B9BBB8",
" .	c #010300",
"..	c #8F918E",
"+.	c #FAFCF9",
"@.	c #ECEEEB",
"#.	c #EDF2EE",
"$.	c #0E130F",
"%.	c #151A16",
"&.	c #808581",
"*.	c #D9DEDA",
"=.	c #1F211E",
"-.	c #3D3F3C",
";.	c #F5F7F4",
">.	c #F9FBF8",
",.	c #E7E9E6",
"'.	c #F4F6F3",
").	c #E8EDE9",
"!.	c #EAEFEB",
"~.	c #474C48",
"{.	c #1A1F1B",
"].	c #D5DAD6",
"^.	c #BFC1BE",
"/.	c #FDFFFC",
"(.	c #F7F9F6",
"_.	c #FCFFFD",
":.	c #F8FDF9",
"<.	c #A7ACA8",
"[.	c #3D423E",
"}.	c #C7CCC8",
"|.	c #A3A5A2",
"1.	c #999B98",
"2.	c #F6F8F5",
"3.	c #EDEFEC",
"4.	c #8A8F8B",
"5.	c #000501",
"6.	c #B8BDB9",
"7.	c #BABCB9",
"8.	c #EAECE9",
"9.	c #F0F2EF",
"0.	c #F3F5F2",
"a.	c #4E534F",
"b.	c #464B47",
"c.	c #C0C5C1",
"d.	c #BFC4C0",
"e.	c #DDDFDC",
"f.	c #7C7E7B",
"g.	c #B0B2AF",
"h.	c #50524F",
"i.	c #5F6460",
"j.	c #1F2420",
"k.	c #E2E7E3",
"l.	c #C1C6C2",
"m.	c #3F413E",
"n.	c #393B38",
"o.	c #434542",
"p.	c #101511",
"q.	c #DCE1DD",
"r.	c #D6DBD7",
"s.	c #DADFDB",
"t.	c #C2C7C3",
"u.	c #AFB1AE",
"v.	c #383A37",
"w.	c #F8FAF7",
"x.	c #868885",
"y.	c #555754",
"z.	c #5D5F5C",
"A.	c #D8DDD9",
"B.	c #B2B7B3",
"C.	c #919390",
"D.	c #A1A3A0",
"E.	c #090B08",
"F.	c #E0E5E1",
"G.	c #404541",
"H.	c #757A76",
"I.	c #B9BEBA",
"J.	c #B6BBB7",
"K.	c #E5EAE6",
"L.	c #30322F",
"M.	c #7A7F7B",
"N.	c #5B605C",
"O.	c #2B302C",
"P.	c #222723",
"Q.	c #E2E4E1",
"R.	c #90928F",
"S.	c #080A07",
"T.	c #212320",
"U.	c #BDBFBC",
"V.	c #BBC0BC",
"W.	c #6A6F6B",
"X.	c #010602",
"Y.	c #3E433F",
"Z.	c #B3B5B2",
"`.	c #5F615E",
" +	c #A0A29F",
".+	c #565B57",
"++	c #1E231F",
"@+	c #A3A8A4",
"#+	c #D7DCD8",
"$+	c #6C716D",
"%+	c #000300",
"&+	c #767B77",
"*+	c #828783",
"=+	c #BEC3BF",
". + @ # $ % % & @ # * @ = - ; > , ' ) ' ! ! ) ~ ) ",
"{ + ] ] ^ % $ - / = ( & ; + _ # ' ' ' ' ' ) : < ) ",
"[ } | ; > 1 2 ; & # & @ > ] 3 / ) ' ' ' : < : ) ) ",
"( 4 + 5 * _ 6 ^ ; & + _ 3 @ . _ ) ' ! ' : < ) ! ) ",
"7 8 9 0 a b c % 6 d e & ] > _ { ! ! ! ' ) ) ! f ) ",
"g ] ( h i j k l m n 8 n [ * . o , ' < < ) ! , ! ) ",
"e n h $ p q r s i t u h v ( / - f < w x ) , ! < ) ",
"6 y $ = z 2 A r r B C l c > D @ , E F G < , ) E ) ",
"3 - ; 6 H 1 r r r I J K i L @ > M N O P Q ) F R : ",
"6 S % 8 / T r U = r V j r ] W i X E Y F x : f Z ! ",
"7 & ] 3 `  ...r r r +.U r r @.r #.$.%.&.Q *., ' ) ",
"$ d - n y =.-.;.>.,.r r '.j r r ).!.~.{.M ~ M ].: ",
"; ( & o ^.; a +.r ;.>.I /.(.r q _.:.<.[.O f Q }.' ",
"= . / @ & & |.1.J r r r r 2.q 3.#.4.5.~ R P 6.P < ",
"& S e 8 6 ^ 7.a 8.r 2.9.0.r r h a.b.' c.E d.*.M ) ",
"S . > | e.^.# i f.(.r >.r r g.h.i.j.E E ) G k.l.*.",
"; @ @ _ ; ^ $ m.n.j r r j r o.9 d.p.%.q.r.s.t.Q x ",
"# S & % + - # u.v.y w.j r x.y.z.A.: B.C F k.' d.Q ",
"( g % d ; n @ ^ c C.I r D. .^.E.X F.) G.H.I.J.K.l.",
"D D = - & # | ; > i I = L.] e 2 M.N.~ *.O.P.! ~ *.",
"@ > # [ ; Q.D e D R.S.T.^ g 2 U.V.W.X.r.q.Z Y.! f ",
"- @ > & _ ( ; h S Z.`. +u > = @ s.c..+.+' ++@+#+< ",
"D @ - . % n D D e . = # e # 7.y O V.!.$+%+&+s.: M ",
"_ % * D D D 8 ; . S D ( g # # ; E P d.x *+w G E R ",
"e e e e e e e e & ] ( * % & e - r.l.#+t.< < G ! =+"};
