/* XPM */
static char * mat_copy_xpm[] = {
"25 25 71 1",
" 	c #C7D3CF",
".	c #FF2B23",
"+	c #BE5DA4",
"@	c #580040",
"#	c #A53287",
"$	c #69004D",
"%	c #8A0C69",
"&	c #7C005B",
"*	c #C46BAD",
"=	c #6F0051",
"-	c #740055",
";	c #D9B0CD",
">	c #A73589",
",	c #FBF3F8",
"'	c #B34896",
")	c #DAA0CA",
"!	c #FCF6FA",
"~	c #E0A9D1",
"{	c #CE7EB8",
"]	c #D7C7D2",
"^	c #CF81BA",
"/	c #D3D7D5",
"(	c #D38ABF",
"_	c #C369AB",
":	c #D6D6D5",
"<	c #D7CFD3",
"[	c #D8B8CF",
"}	c #D0CFCE",
"|	c #D48CC1",
"1	c #D1D0CF",
"2	c #B8519C",
"3	c #90126E",
"4	c #9F277F",
"5	c #C3C2C2",
"6	c #D5D6D5",
"7	c #D1D6D4",
"8	c #CFD6D3",
"9	c #981D77",
"0	c #961A75",
"a	c #850664",
"b	c #CDCDCC",
"c	c #CECDCD",
"d	c #D2D1D0",
"e	c #D6D5D4",
"f	c #D3D6D4",
"g	c #CAD4D1",
"h	c #CA78B5",
"i	c #951974",
"j	c #A63388",
"k	c #7E005C",
"l	c #C7C6C5",
"m	c #C6C5C4",
"n	c #C8C7C6",
"o	c #CCCBCA",
"p	c #CDD5D2",
"q	c #971B76",
"r	c #D895C6",
"s	c #9D247C",
"t	c #BEBDBC",
"u	c #C0C0BF",
"v	c #C4C3C2",
"w	c #CAC9C8",
"x	c #B7B6B6",
"y	c #C9C8C7",
"z	c #CCCCCB",
"A	c #D5D4D3",
"B	c #B04293",
"C	c #AC3C8E",
"D	c #BCBBBA",
"E	c #D3D2D1",
"F	c #D4D3D2",
"                   ......",
"                    .....",
"                     ....",
"                +@@@# ...",
"                @$%&@  ..",
"               *@%=@@   .",
"             @@=$-@@@    ",
"             ;@%@@@@*    ",
"            ;>,@@@'      ",
"           )>!~{@@       ",
"          ]>!~^>/@       ",
"         )>!(_>/         ",
"        )>'%%>:          ",
"       <>'%%><           ",
"      :>'%%><            ",
"      >'%%>[             ",
"     )>%%>}              ",
"     >|>>1               ",
"    2345/6::6678         ",
"    90ab}bbc}defg        ",
"   hijkilmlnocd6p        ",
"   qrjs=tuvlwb16g        ",
"   %'j%&xtvyz1A8         ",
"   Ba$$CDvocE:/          ",
"    8Fboz1Af7p           "};
