/* XPM */
static char * material_editor_xpm[] = {
"32 24 113 2",
"  	c #808080",
". 	c #513500",
"+ 	c #523600",
"@ 	c #523601",
"# 	c #533601",
"$ 	c #533701",
"% 	c #543701",
"& 	c #503400",
"* 	c #503500",
"= 	c #FE8B0A",
"- 	c #F48A11",
"; 	c #B8690C",
"> 	c #703C00",
", 	c #553801",
"' 	c #563901",
") 	c #4F3400",
"! 	c #FF0C0C",
"~ 	c #E61313",
"{ 	c #A90505",
"] 	c #3D0000",
"^ 	c #E37B05",
"/ 	c #AE5E02",
"( 	c #E0CF11",
"_ 	c #AB9E0A",
": 	c #563802",
"< 	c #563902",
"[ 	c #573902",
"} 	c #C50202",
"| 	c #513501",
"1 	c #7C0CDA",
"2 	c #5D06A5",
"3 	c #F7DE0A",
"4 	c #EAD60C",
"5 	c #AFA207",
"6 	c #6D6501",
"7 	c #573A02",
"8 	c #F8F3F1",
"9 	c #F2F2F1",
"0 	c #C2C2C2",
"a 	c #7C7C7C",
"b 	c #9009F7",
"c 	c #880DEB",
"d 	c #6507B4",
"e 	c #42007A",
"f 	c #543801",
"g 	c #553802",
"h 	c #0CEA0C",
"i 	c #11CE11",
"j 	c #019001",
"k 	c #583A02",
"l 	c #E6E0DC",
"m 	c #EAE7E5",
"n 	c #B3B3B2",
"o 	c #717171",
"p 	c #543802",
"q 	c #0909BA",
"r 	c #09F107",
"s 	c #08BD08",
"t 	c #008F00",
"u 	c #583A03",
"v 	c #171000",
"w 	c #503501",
"x 	c #513601",
"y 	c #634202",
"z 	c #624203",
"A 	c #5D3F02",
"B 	c #362400",
"C 	c #352300",
"D 	c #0807E9",
"E 	c #0C0BF1",
"F 	c #0E0ECA",
"G 	c #000091",
"H 	c #543700",
"I 	c #170F00",
"J 	c #201500",
"K 	c #271A00",
"L 	c #614203",
"M 	c #5C3F02",
"N 	c #332200",
"O 	c #2E1F00",
"P 	c #553902",
"Q 	c #573A03",
"R 	c #5D3E02",
"S 	c #5C3E01",
"T 	c #342300",
"U 	c #2D1E00",
"V 	c #1E1400",
"W 	c #644506",
"X 	c #624304",
"Y 	c #5C3D01",
"Z 	c #2E1E00",
"` 	c #382600",
" .	c #3C2800",
"..	c #402B00",
"+.	c #261A00",
"@.	c #1D1300",
"#.	c #674706",
"$.	c #674806",
"%.	c #664606",
"&.	c #634405",
"*.	c #614204",
"=.	c #5B3C01",
"-.	c #382500",
";.	c #442E00",
">.	c #4C3300",
",.	c #1C1300",
"'.	c #644504",
").	c #664706",
"!.	c #654606",
"~.	c #3F2A00",
"{.	c #644404",
"].	c #664605",
"^.	c #4B3300",
"                                                                ",
"                                                                ",
"                                                                ",
"                                                                ",
"                                                                ",
"                                                                ",
"                            . + @ @ # $ %                       ",
"                  & * * . . = - ; > $ % % , , , '               ",
"              ) & ! ~ { ] @ @ ^ / $ % % ( _ , : < [             ",
"          ) ) & * * } | @ @ @ 1 2 $ % 3 4 5 6 < < [ 7           ",
"        ) & * * 8 9 0 a @ @ b c d e f , g g < h i j k k         ",
"        & * * | l m n o @ $ $ $ % f p g q < < r s t u u         ",
"        v w | | x @ @ y z A B C f p D E F G < [ 7 u u H         ",
"        I J K x @ @ @ y L M B C N O g P < < [ 7 Q u R           ",
"          J K O @ @ $ $ L S B T N U K V < < 7 Q W X Y           ",
"            K Z N `  ...% p       U +.@.< #.$.%.&.*.=.          ",
"              U N -. ...;.>.          ,.'.).#.!.&.*.            ",
"                  -. .~.;.>.            {.].#.                  ",
"                          ^.                                    ",
"                                                                ",
"                                                                ",
"                                                                ",
"                                                                ",
"                                                                "};
