/* XPM */
static char * material_rectangle_uv_xpm[] = {
"32 24 333 2",
"  	c None",
". 	c #808080",
"+ 	c #7F8080",
"@ 	c #7D7F80",
"# 	c #838180",
"$ 	c #8C8681",
"% 	c #958B83",
"& 	c #9A8D83",
"* 	c #9D8F84",
"= 	c #9F9085",
"- 	c #9E8F85",
"; 	c #998D84",
"> 	c #968C84",
", 	c #8D8783",
"' 	c #838281",
") 	c #7D7E7F",
"! 	c #828180",
"~ 	c #A59284",
"{ 	c #C0A088",
"] 	c #CAA589",
"^ 	c #D2A98A",
"/ 	c #D8AD8C",
"( 	c #DBAF8E",
"_ 	c #DDB08F",
": 	c #DCAF8F",
"< 	c #D7AD8E",
"[ 	c #D5AD8F",
"} 	c #CCA98E",
"| 	c #C2A38C",
"1 	c #AF9A89",
"2 	c #878481",
"3 	c #7E7F80",
"4 	c #C19F88",
"5 	c #D8AC8B",
"6 	c #D9AD8D",
"7 	c #D9AE8E",
"8 	c #D9AF90",
"9 	c #DAB091",
"0 	c #DBB192",
"a 	c #DAB293",
"b 	c #D6B093",
"c 	c #968C85",
"d 	c #808181",
"e 	c #787172",
"f 	c #DCAE8C",
"g 	c #D9AD8C",
"h 	c #D9AE8F",
"i 	c #DAB192",
"j 	c #DBB293",
"k 	c #DDB494",
"l 	c #CAA794",
"m 	c #838382",
"n 	c #585A65",
"o 	c #9C826F",
"p 	c #D5AC8C",
"q 	c #E0B48F",
"r 	c #DDB18E",
"s 	c #DAAF90",
"t 	c #DEB592",
"u 	c #DFB591",
"v 	c #E2BB98",
"w 	c #9682AC",
"x 	c #7F807E",
"y 	c #828282",
"z 	c #64646C",
"A 	c #4D4D4D",
"B 	c #796E79",
"C 	c #7A628C",
"D 	c #AD8A90",
"E 	c #E2B68E",
"F 	c #E5B78E",
"G 	c #DBAE8E",
"H 	c #DCB18F",
"I 	c #E7BC8E",
"J 	c #E7BE8F",
"K 	c #BE9B9F",
"L 	c #AA91B4",
"M 	c #E7DAD1",
"N 	c #8784CA",
"O 	c #80807D",
"P 	c #64646B",
"Q 	c #4C4C4D",
"R 	c #535373",
"S 	c #0B0A89",
"T 	c #0B0898",
"U 	c #110EA2",
"V 	c #5950A9",
"W 	c #D0C2B2",
"X 	c #D1C3B9",
"Y 	c #D9CBC0",
"Z 	c #CBBECA",
"` 	c #5147D4",
" .	c #1A16E1",
"..	c #0B09E7",
"+.	c #4341E8",
"@.	c #E7E5E9",
"#.	c #8E8CC3",
"$.	c #68686B",
"%.	c #47474C",
"&.	c #585873",
"*.	c #0B0B89",
"=.	c #000099",
"-.	c #0000A4",
";.	c #3F3FB0",
">.	c #C8C9C2",
",.	c #D0D0D1",
"'.	c #DCDDDC",
").	c #C0C1E5",
"!.	c #2121EB",
"~.	c #0000EC",
"{.	c #0000EB",
"].	c #4746EA",
"^.	c #F1EEE8",
"/.	c #8E8CBF",
"(.	c #6E6E6B",
"_.	c #26264C",
":.	c #4A4A73",
"<.	c #090989",
"[.	c #000098",
"}.	c #3F3FAF",
"|.	c #C8C8C0",
"1.	c #D0D0D0",
"2.	c #DCDCDB",
"3.	c #B7B7E4",
"4.	c #1919EA",
"5.	c #0000EA",
"6.	c #4342E9",
"7.	c #C4C2E8",
"8.	c #9593B8",
"9.	c #7F7F7E",
"0.	c #6F6F6C",
"a.	c #00004B",
"b.	c #1D1D72",
"c.	c #484888",
"d.	c #2E2E98",
"e.	c #0606A4",
"f.	c #3E3EB0",
"g.	c #D5D5C0",
"h.	c #DBDBD0",
"i.	c #E8E8DA",
"j.	c #BEBEE4",
"k.	c #0808E9",
"l.	c #0909EB",
"m.	c #3F3FEA",
"n.	c #5E5DE9",
"o.	c #1716E7",
"p.	c #6D6CB4",
"q.	c #80817E",
"r.	c #6D6D6B",
"s.	c #191972",
"t.	c #7A7A88",
"u.	c #929298",
"v.	c #9999A3",
"w.	c #6F6FB0",
"x.	c #1F1FC0",
"y.	c #4242CF",
"z.	c #4545DA",
"A.	c #4949E3",
"B.	c #BABAE9",
"C.	c #DBDBEB",
"D.	c #E2E2EA",
"E.	c #9695E9",
"F.	c #0000E7",
"G.	c #6B69AD",
"H.	c #81817E",
"I.	c #67676B",
"J.	c #02024A",
"K.	c #191971",
"L.	c #7B7B88",
"M.	c #989898",
"N.	c #A4A4A3",
"O.	c #7070AF",
"P.	c #0000C0",
"Q.	c #0000CF",
"R.	c #0000DA",
"S.	c #2F2FE3",
"T.	c #D4D4E9",
"U.	c #EBEBEA",
"V.	c #EAEAE9",
"W.	c #9493E8",
"X.	c #0000E6",
"Y.	c #5C5BA8",
"Z.	c #65656B",
"`.	c #33334A",
" +	c #323271",
".+	c #7A7A87",
"++	c #9C9C97",
"@+	c #A6A6A3",
"#+	c #6B6BAF",
"$+	c #3939E3",
"%+	c #DEDEE8",
"&+	c #EFEFEA",
"*+	c #EFEFE9",
"=+	c #9291E8",
"-+	c #5250E5",
";+	c #5D5CA4",
">+	c #82827F",
",+	c #464649",
"'+	c #5C5C71",
")+	c #2D2D87",
"!+	c #4D4D97",
"~+	c #7F7FA2",
"{+	c #5A5AAF",
"]+	c #0000BF",
"^+	c #3D3DE2",
"/+	c #CACAE8",
"(+	c #ACACE9",
"_+	c #7272E8",
":+	c #7E7DE7",
"<+	c #EEEBE5",
"[+	c #5F5F9F",
"}+	c #69696A",
"|+	c #454548",
"1+	c #585870",
"2+	c #0C0C87",
"3+	c #020297",
"4+	c #0808A2",
"5+	c #4F4FAE",
"6+	c #B7B7BF",
"7+	c #BDBDCF",
"8+	c #C8C8D9",
"9+	c #A2A2E2",
"0+	c #1A1AE8",
"a+	c #0909E9",
"b+	c #0606E7",
"c+	c #7978E7",
"d+	c #F5F1E3",
"e+	c #676699",
"f+	c #818181",
"g+	c #797978",
"h+	c #373747",
"i+	c #565670",
"j+	c #0D0D86",
"k+	c #000096",
"l+	c #0101A2",
"m+	c #C6C6BF",
"n+	c #CECECE",
"o+	c #DADAD9",
"p+	c #A3A3E2",
"q+	c #0000E9",
"r+	c #0303E7",
"s+	c #7B7AE7",
"t+	c #DEDBE2",
"u+	c #959395",
"v+	c #7F7F7F",
"w+	c #7A7A77",
"x+	c #000046",
"y+	c #2A2A70",
"z+	c #1E1E86",
"A+	c #010196",
"B+	c #0000A1",
"C+	c #4E4EAE",
"D+	c #CACABF",
"E+	c #D1D1CE",
"F+	c #DEDED9",
"G+	c #A0A0E2",
"H+	c #0000E8",
"I+	c #1010E7",
"J+	c #5F5EE6",
"K+	c #4241E0",
"L+	c #858492",
"M+	c #7C7C79",
"N+	c #000044",
"O+	c #151570",
"P+	c #686886",
"Q+	c #6B6B96",
"R+	c #4F4FA1",
"S+	c #5959AD",
"T+	c #8C8CBE",
"U+	c #A4A4CE",
"V+	c #ADADD9",
"W+	c #8484E1",
"X+	c #5656E6",
"Y+	c #8686E8",
"Z+	c #AAAAE6",
"`+	c #4C4CE6",
" @	c #0C0BDF",
".@	c #80808D",
"+@	c #858582",
"@@	c #0D0D52",
"#@	c #17176E",
"$@	c #797985",
"%@	c #969695",
"&@	c #9E9EA1",
"*@	c #5F5FAD",
"=@	c #0202BE",
"-@	c #0A0ACE",
";@	c #0909D8",
">@	c #4747E1",
",@	c #DEDEE6",
"'@	c #E7E7E7",
")@	c #E1E1E6",
"!@	c #5857E6",
"~@	c #0B0BD7",
"{@	c #797986",
"]@	c #818180",
"^@	c #656578",
"/@	c #242470",
"(@	c #787885",
"_@	c #959595",
":@	c #9F9FA0",
"<@	c #0000BE",
"[@	c #0000CE",
"}@	c #0000D8",
"|@	c #4E4EE1",
"1@	c #EFEFE6",
"2@	c #4747E2",
"3@	c #3939B0",
"4@	c #7E7E82",
"5@	c #828281",
"6@	c #7B7B80",
"7@	c #7E7E83",
"8@	c #909090",
"9@	c #9D9D9E",
"0@	c #5D5DAC",
"a@	c #0000C1",
"b@	c #0000D0",
"c@	c #0000DC",
"d@	c #4C4CE5",
"e@	c #EFEFE4",
"f@	c #D9D9D9",
"g@	c #C3C3C7",
"h@	c #7B7AA5",
"i@	c #888888",
"j@	c #75758D",
"k@	c #4E4E97",
"l@	c #4848A2",
"m@	c #4A4AA5",
"n@	c #6F6FA0",
"o@	c #A1A19E",
"p@	c #919191",
"q@	c #7F7F80",
"r@	c #80807F",
". . . . . . . . . . . . . + + + + + . . . . . . . . . . . . . . ",
". . . . . . . . . @ # $ % & * = - ; > , ' ) + . . . . . . . . . ",
". . . . . . . . ! ~ { ] ^ / ( _ : < [ } | 1 2 3 . . . . . . . . ",
". . . . . . . + 4 5 5 5 6 7 7 7 7 8 9 9 0 a b c + . . . . . . . ",
". . . . . . d e f 5 g 7 7 7 7 7 h 9 9 i j j k l ) . . . . . . . ",
". . . . . . m n o p q r 7 7 7 s 9 9 0 j t u v w x . . . . . . . ",
". . . . . . y z A B C D E F G G ( H I J K L M N O . . . . . . . ",
". . . . . . y P Q R S T U V W X Y Z `  ...+.@.#.O . . . . . . . ",
". . . . . . y $.%.&.*.=.-.;.>.,.'.).!.~.{.].^./.O . . . . . . . ",
". . . . . . y (._.:.<.[.-.}.|.1.2.3.4.~.5.6.7.8.9.. . . . . . . ",
". . . . . . y 0.a.b.c.d.e.f.g.h.i.j.k.l.m.n.o.p.q.. . . . . . . ",
". . . . . . y r.a.s.t.u.v.w.x.y.z.A.B.C.D.E.F.G.H.. . . . . . . ",
". . . . . . y I.J.K.L.M.N.O.P.Q.R.S.T.U.V.W.X.Y.H.. . . . . . . ",
". . . . . . y Z.`. +.+++@+#+P.Q.R.$+%+&+*+=+-+;+>+. . . . . . . ",
". . . . . . y P ,+'+)+!+~+{+]+Q.R.^+/+(+_+:+<+[+>+. . . . . . . ",
". . . . . . y }+|+1+2+3+4+5+6+7+8+9+0+a+b+c+d+e+>+. . . . . . . ",
". . . . . . f+g+h+i+j+k+l+5+m+n+o+p+b+q+r+s+t+u+v+. . . . . . . ",
". . . . . . f+w+x+y+z+A+B+C+D+E+F+G+F.H+I+J+K+L+v+. . . . . . . ",
". . . . . . f+M+N+O+P+Q+R+S+T+U+V+W+X+Y+Z+`+ @.@. . . . . . . . ",
". . . . . . . +@@@#@$@%@&@*@=@-@;@>@,@'@)@!@~@{@. . . . . . . . ",
". . . . . . . ]@^@/@(@_@:@*@<@[@}@|@1@'@,@2@3@4@. . . . . . . . ",
". . . . . . . . 5@6@7@8@9@0@a@b@c@d@e@f@g@h@v+. . . . . . . . . ",
". . . . . . . . . ]@. y i@j@k@l@m@n@o@p@y O . . . . . . . . . . ",
". . . . . . . . . . . . . . . q@. r@v+. . . . . . . . . . . . . "};
