/* XPM */
static char * metaball_cylinder_xpm[] = {
"32 24 169 2",
"  	c #808080",
". 	c #818081",
"+ 	c #828182",
"@ 	c #848184",
"# 	c #868286",
"$ 	c #888287",
"% 	c #858284",
"& 	c #7B7F7C",
"* 	c #888288",
"= 	c #747C75",
"- 	c #4F7051",
"; 	c #2B642E",
"> 	c #0B5A10",
", 	c #005500",
"' 	c #005501",
") 	c #005705",
"! 	c #0C5B11",
"~ 	c #29652E",
"{ 	c #517253",
"] 	c #717B72",
"^ 	c #7E807F",
"/ 	c #848183",
"( 	c #527254",
"_ 	c #0E5A12",
": 	c #005400",
"< 	c #005603",
"[ 	c #015707",
"} 	c #025807",
"| 	c #015806",
"1 	c #005804",
"2 	c #005700",
"3 	c #085B0D",
"4 	c #366A3A",
"5 	c #7E807E",
"6 	c #898489",
"7 	c #07500B",
"8 	c #015807",
"9 	c #025907",
"0 	c #025A07",
"a 	c #025A08",
"b 	c #4A704D",
"c 	c #838183",
"d 	c #898789",
"e 	c #022305",
"f 	c #015406",
"g 	c #035A08",
"h 	c #045E09",
"i 	c #427144",
"j 	c #898889",
"k 	c #021504",
"l 	c #003103",
"m 	c #014805",
"n 	c #025106",
"o 	c #025607",
"p 	c #035A07",
"q 	c #025B07",
"r 	c #035E08",
"s 	c #036209",
"t 	c #05680B",
"u 	c #076F0D",
"v 	c #07770D",
"w 	c #4A754C",
"x 	c #021704",
"y 	c #002F03",
"z 	c #003E04",
"A 	c #004805",
"B 	c #005005",
"C 	c #026309",
"D 	c #036B0A",
"E 	c #04720B",
"F 	c #05770D",
"G 	c #087B0F",
"H 	c #087D10",
"I 	c #07760D",
"J 	c #4C7450",
"K 	c #021604",
"L 	c #004705",
"M 	c #004F05",
"N 	c #036D0A",
"O 	c #04730B",
"P 	c #06790E",
"Q 	c #087C0F",
"R 	c #087D0F",
"S 	c #06750D",
"T 	c #557657",
"U 	c #036C0A",
"V 	c #087C10",
"W 	c #06740C",
"X 	c #58765A",
"Y 	c #003D04",
"Z 	c #026308",
"` 	c #036C09",
" .	c #04740B",
"..	c #06780E",
"+.	c #077C10",
"@.	c #06730C",
"#.	c #627763",
"$.	c #828082",
"%.	c #002E03",
"&.	c #004E05",
"*.	c #077B0E",
"=.	c #05720C",
"-.	c #657866",
";.	c #026208",
">.	c #077A0F",
",.	c #05700C",
"'.	c #6C796D",
").	c #004605",
"!.	c #026B09",
"~.	c #077B0F",
"{.	c #077A0E",
"].	c #066F0B",
"^.	c #717A72",
"/.	c #021404",
"(.	c #06780D",
"_.	c #07790E",
":.	c #056E0B",
"<.	c #777C77",
"[.	c #031505",
"}.	c #06770D",
"|.	c #087A0F",
"1.	c #056C0B",
"2.	c #7D7E7D",
"3.	c #888788",
"4.	c #102112",
"5.	c #002C02",
"6.	c #003C04",
"7.	c #004D05",
"8.	c #016208",
"9.	c #07780D",
"0.	c #046A0A",
"a.	c #848083",
"b.	c #868586",
"c.	c #2E3D30",
"d.	c #002A00",
"e.	c #04770B",
"f.	c #186E1D",
"g.	c #888188",
"h.	c #818181",
"i.	c #747774",
"j.	c #27472A",
"k.	c #003A00",
"l.	c #004401",
"m.	c #004D04",
"n.	c #016108",
"o.	c #026A09",
"p.	c #04710B",
"q.	c #05790C",
"r.	c #017909",
"s.	c #19781E",
"t.	c #647C66",
"u.	c #647165",
"v.	c #315C34",
"w.	c #064F0B",
"x.	c #005300",
"y.	c #005F02",
"z.	c #006904",
"A.	c #007105",
"B.	c #007707",
"C.	c #237B28",
"D.	c #527E55",
"E.	c #768077",
"F.	c #848284",
"G.	c #878387",
"H.	c #6F7C70",
"I.	c #6C7C6C",
"J.	c #7C807C",
"K.	c #868085",
"L.	c #858085",
"                                                                ",
"                                .                               ",
"                      + @ # $ % & * # @ +                       ",
"                    = - ; > , , ' ) ! ~ { ] ^                   ",
"                / ( _ : < ) [ [ } } | 1 2 3 4 5                 ",
"                6 7 ) [ [ 8 } } } 9 9 9 9 0 a b c               ",
"                d e f [ 8 } } } 9 9 9 0 0 g h i /               ",
"                j k l m n o 9 0 p q r s t u v w c               ",
"                j x y z A B } C D E F G H H I J c               ",
"                j K y z L M } C N O P Q Q R S T c               ",
"                j K y z L M } C U O P Q Q V W X +               ",
"                j k y Y L M 8 Z `  ...Q Q +.@.#.$.              ",
"                j k %.Y L &.8 Z ` O ..G Q *.=.-.$.              ",
"                j k %.Y L &.[ ;.` O ..G G >.,.'..               ",
"                j k %.Y ).&.[ ;.!.E ..~.G {.].^..               ",
"                j /.%.Y ).&.[ ;.!.E (.~.G _.:.<..               ",
"                j [.%.Y ).&.[ ;.!.O }.>.|._.1.2..               ",
"                3.4.5.6.).7.[ 8.!.E }.>.|.9.0.a.                ",
"                b.c.d.6.).7.[ 8.!.E }.>.>.e.f.g.                ",
"                h.i.j.k.l.m.[ n.o.p.}.q.r.s.t.$.                ",
"                    2.u.v.w.x.y.z.A.B.C.D.E..                   ",
"                      . F.G.h.H.I.J.K.L.$.                      ",
"                              $.$..                             ",
"                                                                "};
