/* XPM */
static char * metaball_sphere_xpm[] = {
"32 24 226 2",
"  	c #808080",
". 	c #818081",
"+ 	c #868386",
"@ 	c #7C7D7C",
"# 	c #5F7160",
"$ 	c #4E6C4F",
"% 	c #4B6D4C",
"& 	c #5C755C",
"* 	c #797D7A",
"= 	c #868186",
"- 	c #818181",
"; 	c #7B7B7B",
"> 	c #345335",
", 	c #0B4D0C",
"' 	c #065A08",
") 	c #036105",
"! 	c #036805",
"~ 	c #077209",
"{ 	c #0D770F",
"] 	c #2E742F",
"^ 	c #747D74",
"/ 	c #828082",
"( 	c #717671",
"_ 	c #1B4B1B",
": 	c #004E00",
"< 	c #005D02",
"[ 	c #006503",
"} 	c #016D03",
"| 	c #027904",
"1 	c #038406",
"2 	c #058B07",
"3 	c #038C06",
"4 	c #148517",
"5 	c #6B806C",
"6 	c #737673",
"7 	c #124112",
"8 	c #006002",
"9 	c #006903",
"0 	c #027004",
"a 	c #037806",
"b 	c #048306",
"c 	c #058D08",
"d 	c #059508",
"e 	c #079A08",
"f 	c #059B07",
"g 	c #0F8C12",
"h 	c #6A806A",
"i 	c #888588",
"j 	c #1F4020",
"k 	c #004800",
"l 	c #005A02",
"m 	c #006703",
"n 	c #027305",
"o 	c #057B08",
"p 	c #08840B",
"q 	c #088D0C",
"r 	c #08950B",
"s 	c #089B0B",
"t 	c #08A10B",
"u 	c #08A40B",
"v 	c #06A009",
"w 	c #168C18",
"x 	c #857F85",
"y 	c #828282",
"z 	c #5C625C",
"A 	c #003701",
"B 	c #005101",
"C 	c #026D04",
"D 	c #057808",
"E 	c #0A820D",
"F 	c #0D8F10",
"G 	c #0F9812",
"H 	c #0D9C10",
"I 	c #0BA10E",
"J 	c #09A50C",
"K 	c #09A70C",
"L 	c #0AA70C",
"M 	c #527F53",
"N 	c #838083",
"O 	c #848384",
"P 	c #3E503E",
"Q 	c #003F01",
"R 	c #005301",
"S 	c #006203",
"T 	c #036F06",
"U 	c #097C0C",
"V 	c #0E8810",
"W 	c #129615",
"X 	c #139E16",
"Y 	c #11A214",
"Z 	c #0EA412",
"` 	c #0BA60F",
" .	c #0AA80D",
"..	c #0BA80E",
"+.	c #099F0B",
"@.	c #2C862D",
"#.	c #848084",
"$.	c #858385",
"%.	c #29412A",
"&.	c #004001",
"*.	c #006103",
"=.	c #046D06",
"-.	c #097A0B",
";.	c #0E8811",
">.	c #139716",
",.	c #149F17",
"'.	c #13A316",
").	c #10A313",
"!.	c #0DA511",
"~.	c #0CA70E",
"{.	c #0BA60E",
"].	c #0A9F0D",
"^.	c #268827",
"/.	c #7F7F7F",
"(.	c #7D7C7D",
"_.	c #1F3720",
":.	c #003C01",
"<.	c #005001",
"[.	c #036B05",
"}.	c #08750B",
"|.	c #0C840F",
"1.	c #109213",
"2.	c #129A15",
"3.	c #119F14",
"4.	c #0EA112",
"5.	c #0C9F10",
"6.	c #0BA20E",
"7.	c #09990C",
"8.	c #1E8320",
"9.	c #797E78",
"0.	c #253726",
"a.	c #003501",
"b.	c #004901",
"c.	c #005602",
"d.	c #016203",
"e.	c #046D07",
"f.	c #087B0B",
"g.	c #0C880F",
"h.	c #0D9110",
"i.	c #0D9710",
"j.	c #0B9A0F",
"k.	c #0B990E",
"l.	c #0A980D",
"m.	c #078E0A",
"n.	c #1F7C20",
"o.	c #7A7E7A",
"p.	c #848484",
"q.	c #393E38",
"r.	c #002901",
"s.	c #004E01",
"t.	c #005802",
"u.	c #016204",
"v.	c #037007",
"w.	c #067C09",
"x.	c #07840A",
"y.	c #088B0B",
"z.	c #088E0B",
"A.	c #088F0B",
"B.	c #098E0C",
"C.	c #057F07",
"D.	c #2E702F",
"E.	c #848184",
"F.	c #6E6D6E",
"G.	c #041C04",
"H.	c #003201",
"I.	c #004201",
"J.	c #004F01",
"K.	c #005702",
"L.	c #016403",
"M.	c #026E04",
"N.	c #037606",
"O.	c #047D07",
"P.	c #058207",
"Q.	c #068309",
"R.	c #07800A",
"S.	c #057A08",
"T.	c #046A07",
"U.	c #5A735B",
"V.	c #828182",
"W.	c #878687",
"X.	c #474B47",
"Y.	c #001800",
"Z.	c #003301",
"`.	c #004A01",
" +	c #006102",
".+	c #026F04",
"++	c #037205",
"@+	c #047407",
"#+	c #046F07",
"$+	c #006000",
"%+	c #366737",
"&+	c #868286",
"*+	c #232923",
"=+	c #001700",
"-+	c #002F01",
";+	c #003901",
">+	c #004701",
",+	c #015F03",
"'+	c #016104",
")+	c #026004",
"!+	c #005300",
"~+	c #174E19",
"{+	c #7E7F7E",
"]+	c #7E7D7E",
"^+	c #303430",
"/+	c #031703",
"(+	c #001F00",
"_+	c #002D00",
":+	c #003A01",
"<+	c #024304",
"[+	c #254D26",
"}+	c #787B79",
"|+	c #838283",
"1+	c #555555",
"2+	c #2D332D",
"3+	c #162516",
"4+	c #0B250B",
"5+	c #0B2C0B",
"6+	c #143714",
"7+	c #2A482A",
"8+	c #506051",
"9+	c #7D7D7D",
"0+	c #787878",
"a+	c #757675",
"b+	c #757775",
"c+	c #777977",
"                                                                ",
"                                                                ",
"                                                                ",
"                            . . . .                             ",
"                      . + @ # $ % & * = .                       ",
"                    - ; > , ' ) ! ~ { ] ^ /                     ",
"                  . ( _ : < [ } | 1 2 3 4 5 .                   ",
"                - 6 7 : 8 9 0 a b c d e f g h /                 ",
"                i j k l m n o p q r s t u v w x                 ",
"              y z A B 8 C D E F G H I J K L s M N               ",
"              O P Q R S T U V W X Y Z `  ...+.@.#.              ",
"              $.%.&.R *.=.-.;.>.,.'.).!.~.{.].^./.              ",
"              (._.:.<.< [.}.|.1.2.3.4.5.6.I 7.8.9.              ",
"              - 0.a.b.c.d.e.f.g.h.i.j.k.k.l.m.n.o.              ",
"              p.q.r.&.s.t.u.v.w.x.y.z.A.B.y.C.D.E.              ",
"              - F.G.H.I.J.K.L.M.N.O.P.Q.R.S.T.U.V.              ",
"                W.X.Y.Z.&.`.c. +9 .+++@+#+$+%+&+                ",
"                  /.*+=+-+;+>+<.t.,+'+)+!+~+{+                  ",
"                    ]+^+/+(+_+:+I.>+>+<+[+}+                    ",
"                    - |+1+2+3+4+5+6+7+8+. -                     ",
"                        - 9+0+a+b+c+9+-                         ",
"                                                                ",
"                                                                ",
"                                                                "};
