/* XPM */
static char * new_view_camera_xpm[] = {
"32 24 87 1",
" 	c #808080",
".	c #000000",
"+	c #888888",
"@	c #848484",
"#	c #8B8B8B",
"$	c #828282",
"%	c #898989",
"&	c #858585",
"*	c #818181",
"=	c #565656",
"-	c #232323",
";	c #050505",
">	c #7A7A7A",
",	c #6D6D6D",
"'	c #131313",
")	c #242424",
"!	c #838383",
"~	c #7D7D7D",
"{	c #7E7E7E",
"]	c #7F7F7F",
"^	c #474747",
"/	c #4B4B4B",
"(	c #383838",
"_	c #1B1B1B",
":	c #3B3B3B",
"<	c #747474",
"[	c #404040",
"}	c #212121",
"|	c #515151",
"1	c #030303",
"2	c #4D4D4D",
"3	c #6B6B6B",
"4	c #121212",
"5	c #292929",
"6	c #323232",
"7	c #010101",
"8	c #525252",
"9	c #0B0B0B",
"0	c #343434",
"a	c #797979",
"b	c #313131",
"c	c #5E5E5E",
"d	c #7C7C7C",
"e	c #1E1E1E",
"f	c #4A4A4A",
"g	c #464646",
"h	c #2E2E2E",
"i	c #868686",
"j	c #40403F",
"k	c #A9A9A8",
"l	c #585858",
"m	c #101010",
"n	c #303030",
"o	c #0E0E0E",
"p	c #C7C7C7",
"q	c #F7F7F6",
"r	c #FFFFFF",
"s	c #555454",
"t	c #161616",
"u	c #444444",
"v	c #040404",
"w	c #333333",
"x	c #FEFDFD",
"y	c #50504F",
"z	c #252525",
"A	c #878787",
"B	c #676767",
"C	c #2F2F2F",
"D	c #0C0C0C",
"E	c #FDFDFD",
"F	c #3A3A39",
"G	c #2B2B2B",
"H	c #656565",
"I	c #373737",
"J	c #020202",
"K	c #403F3F",
"L	c #E5E4E3",
"M	c #707070",
"N	c #535353",
"O	c #F8F8F8",
"P	c #636363",
"Q	c #0A0A0A",
"R	c #141414",
"S	c #646464",
"T	c #7B7B7B",
"U	c #6A6A6A",
"V	c #424242",
"                                ",
" .............................. ",
" .+@@@@@@@@+#$%&@@@@@@@@@@@@@+. ",
" .@      *$=-;->             @. ",
" .@      ,'....)!~>{         @. ",
" .@     ]^....../(_:<$       @. ",
" .@     {[..........}{*      @. ",
" .@      |..........12@      @. ",
" .@      34..........5!      @. ",
" .@       67.........)]      @. ",
" .@     ]89..........0@      @. ",
" .@     ~6..........4a*      @. ",
" .@     ~b..........;c$~d    @. ",
" .!     ~b...........efghi   @. ",
" .!     ~b...........jklm%   @. ",
" .!     dn.........opqrst+   @. ",
" .@     {uv........wrxryzA   @. ",
" .@      @BCD......brErFGA   @. ",
" .@       $$HIJ....KrrL_wi   @. ",
" .@          {MG.w-NOPQRS$   @. ",
" .!            @TiU}vD|!*    @. ",
" 7A@@@@@@@@@@@@!@!#Vf*%@@@@@!A. ",
" 17............................ ",
"                                "};
