/* XPM */
static char * new_scene_xpm[] = {
"32 24 3 1",
" 	c #969696",
".	c #000000",
"+	c #E7E7E7",
"                                ",
"                                ",
"        .............           ",
"        .+++++++++++..          ",
"        .++++++++++++..         ",
"        .+++++++++++++..        ",
"        .++++++++++++++.        ",
"        .+............+.        ",
"        .++++++++++++++.        ",
"        .+............+.        ",
"        .++++++++++++++.        ",
"        .+............+.        ",
"        .++++++++++++++.        ",
"        .++++++++++++++.        ",
"        .++++++++++++++.        ",
"        .++++++++++++++.        ",
"        .++++++++++++++.        ",
"        .++++++++++++++.        ",
"        .++++++++++++++.        ",
"        .++++++++++++++.        ",
"        .++++++++++++++.        ",
"        .++++++++++++++.        ",
"        ................        ",
"                                "};
