/* XPM */
static char * nurbs_cube_xpm[] = {
"32 24 197 2",
"  	c #808080",
". 	c #818180",
"+ 	c #838380",
"@ 	c #858480",
"# 	c #6C6E82",
"$ 	c #595D83",
"% 	c #767881",
"& 	c #86867F",
"* 	c #828180",
"= 	c #848380",
"- 	c #575A84",
"; 	c #212988",
"> 	c #0B1689",
", 	c #08148B",
"' 	c #101B8A",
") 	c #313988",
"! 	c #6F7082",
"~ 	c #86857F",
"{ 	c #7A7A81",
"] 	c #6F7181",
"^ 	c #3C4285",
"/ 	c #09158A",
"( 	c #000C8A",
"_ 	c #030F8A",
": 	c #04108B",
"< 	c #020E8C",
"[ 	c #00098D",
"} 	c #1E288B",
"| 	c #585D85",
"1 	c #767781",
"2 	c #7E7E80",
"3 	c #818182",
"4 	c #646783",
"5 	c #424884",
"6 	c #212987",
"7 	c #04108A",
"8 	c #04108C",
"9 	c #05108C",
"0 	c #05118D",
"a 	c #030F8E",
"b 	c #000C8F",
"c 	c #121C8D",
"d 	c #343C89",
"e 	c #585C85",
"f 	c #7B7B7F",
"g 	c #858581",
"h 	c #2B306F",
"i 	c #0B1580",
"j 	c #05118C",
"k 	c #05118E",
"l 	c #04118F",
"m 	c #09148E",
"n 	c #0E1BA1",
"o 	c #737587",
"p 	c #868682",
"q 	c #212661",
"r 	c #020956",
"s 	c #020B65",
"t 	c #030F7F",
"u 	c #041088",
"v 	c #051190",
"w 	c #061292",
"x 	c #0916A2",
"y 	c #0B1BBD",
"z 	c #0516C9",
"A 	c #70738A",
"B 	c #81817F",
"C 	c #868582",
"D 	c #2A2F65",
"E 	c #020958",
"F 	c #020957",
"G 	c #030D75",
"H 	c #040F86",
"I 	c #05118F",
"J 	c #07149D",
"K 	c #0A18AE",
"L 	c #0C1BBE",
"M 	c #0C1DC5",
"N 	c #0B1CC4",
"O 	c #0314C7",
"P 	c #797A84",
"Q 	c #858582",
"R 	c #2D3266",
"S 	c #020959",
"T 	c #02095A",
"U 	c #020A5D",
"V 	c #030C6D",
"W 	c #041086",
"X 	c #051191",
"Y 	c #0815A3",
"Z 	c #0B1ABC",
"` 	c #0C1CC2",
" .	c #0C1CC4",
"..	c #0B1CC3",
"+.	c #0B1BC3",
"@.	c #0B1BC2",
"#.	c #0213C7",
"$.	c #7E7E81",
"%.	c #343867",
"&.	c #020A5B",
"*.	c #020A5A",
"=.	c #030B67",
"-.	c #0816A3",
";.	c #0C1BC2",
">.	c #0C1CC7",
",.	c #0717C4",
"'.	c #858481",
").	c #3B3F6A",
"!.	c #010953",
"~.	c #0B1ABB",
"{.	c #0C1CC5",
"].	c #0A1AC2",
"^.	c #0E1EBF",
"/.	c #7E7F81",
"(.	c #848481",
"_.	c #3D416A",
":.	c #010957",
"<.	c #010955",
"[.	c #0A1AB9",
"}.	c #0B1BC1",
"|.	c #0A1AC1",
"1.	c #0F1EBE",
"2.	c #494B6D",
"3.	c #010857",
"4.	c #010954",
"5.	c #0A1AB8",
"6.	c #0B1BC4",
"7.	c #1927B8",
"8.	c #7F7F81",
"9.	c #474A6D",
"0.	c #010856",
"a.	c #0A19B8",
"b.	c #0A1AC0",
"c.	c #0919C0",
"d.	c #1826B8",
"e.	c #838381",
"f.	c #535671",
"g.	c #010854",
"h.	c #0A19B7",
"i.	c #0819C0",
"j.	c #232FB2",
"k.	c #545771",
"l.	c #0A1ABF",
"m.	c #0818BF",
"n.	c #2430B1",
"o.	c #595B73",
"p.	c #000655",
"q.	c #010853",
"r.	c #0A19B6",
"s.	c #0A1BC1",
"t.	c #0A1ABE",
"u.	c #2734AF",
"v.	c #76777D",
"w.	c #191F5D",
"x.	c #000354",
"y.	c #0919B7",
"z.	c #0919BF",
"A.	c #49509D",
"B.	c #565872",
"C.	c #141A5C",
"D.	c #040B57",
"E.	c #0918B6",
"F.	c #0F1EBB",
"G.	c #2935AE",
"H.	c #6D708A",
"I.	c #84837E",
"J.	c #7B7B7E",
"K.	c #4D5070",
"L.	c #1C2260",
"M.	c #000556",
"N.	c #010858",
"O.	c #010852",
"P.	c #0918B5",
"Q.	c #0717C1",
"R.	c #0B1BBE",
"S.	c #353FA7",
"T.	c #65698E",
"U.	c #85857D",
"V.	c #82817F",
"W.	c #7A7A7E",
"X.	c #555773",
"Y.	c #0A105B",
"Z.	c #000657",
"`.	c #0616C1",
" +	c #2F3AAC",
".+	c #727587",
"++	c #828281",
"@+	c #40446C",
"#+	c #0C1256",
"$+	c #0E1CB3",
"%+	c #2431B1",
"&+	c #696C8D",
"*+	c #858482",
"=+	c #71717A",
"-+	c #60648E",
";+	c #83837F",
">+	c #82827F",
"                              . .                               ",
"                          + @ # $ % & *                         ",
"                      = * - ; > , ' ) ! ~ *                     ",
"              .   { ] ^ / ( _ : : : < [ } | 1 2 .               ",
"            3 4 5 6 ( ( _ 7 : : 8 9 0 0 a b c d e f .           ",
"          g h i 8 _ 7 7 : : 8 8 j 0 0 k k k l k m n o .         ",
"          p q r s t u : 8 8 8 0 0 0 k k k v w x y z A B         ",
"          C D E E F s G H I k 0 0 k j 0 J K L M N O P           ",
"          Q R E E S T T U V W X 0 0 Y Z `  ...+.@.#.$.          ",
"          Q %.E E S S T &.*.*.=.-.;.>. .N ..+.@.@.,.$.          ",
"          '.).F E S S T T &.&.!.~.{.N N +.+.@.@.].^./.          ",
"          (._.:.F E S S T T &.<.[.N N +.+.@.@.}.|.1./.          ",
"          (.2.3.F E S S T T &.4.5.6.+.+.@.@.}.}.|.7.8.          ",
"          (.9.0.F E E S S T T 4.a.+.+.@.@.}.}.b.c.d.8.          ",
"          e.f.0.F F E E S T T g.h.+.@.@.}.}.b.b.i.j.8.          ",
"          e.k.0.r F E E S S T g.h.@.@.}.}.b.b.l.m.n.8.          ",
"          e.o.p.r F F E S S T q.r.@.s.s.b.b.l.t.m.u.8.          ",
"          . v.w.x.F F F E S S q.y.s.|.b.b.l.t.z.m.A.            ",
"              Q B.C.D.3.E S S q.E.|.b.b.l.z.F.G.H.I.            ",
"                (.J.K.L.M.N.S O.P.b.b.Q.R.S.T.U.V.              ",
"                    . W.X.Y.Z.O.P.c.`. +.+$..                   ",
"                        ++Q @+#+$+%+&+I.                        ",
"                            *+=+-+;+>+                          ",
"                                .                               "};
