/* XPM */
static char * nurbs_plane_xpm[] = {
"32 24 112 2",
"  	c #808080",
". 	c #818180",
"+ 	c #7F7F80",
"@ 	c #767682",
"# 	c #757582",
"$ 	c #86867F",
"% 	c #7E7D81",
"& 	c #5A5A86",
"* 	c #37368D",
"= 	c #110F94",
"- 	c #0D0C95",
"; 	c #39388E",
"> 	c #626286",
", 	c #84847F",
"' 	c #83837F",
") 	c #7B7B81",
"! 	c #3F3E8B",
"~ 	c #121093",
"{ 	c #080694",
"] 	c #030196",
"^ 	c #040297",
"/ 	c #040397",
"( 	c #030298",
"_ 	c #0A0997",
": 	c #1A1A95",
"< 	c #5C5B88",
"[ 	c #828280",
"} 	c #7A7A81",
"| 	c #686784",
"1 	c #302E8E",
"2 	c #000095",
"3 	c #010096",
"4 	c #040295",
"5 	c #040296",
"6 	c #040398",
"7 	c #040399",
"8 	c #050299",
"9 	c #00009B",
"0 	c #171497",
"a 	c #575789",
"b 	c #797982",
"c 	c #43428A",
"d 	c #1D1C90",
"e 	c #010095",
"f 	c #040396",
"g 	c #050398",
"h 	c #050399",
"i 	c #05039A",
"j 	c #03029B",
"k 	c #00009C",
"l 	c #151498",
"m 	c #3F3E8F",
"n 	c #686786",
"o 	c #86857F",
"p 	c #82827F",
"q 	c #7D7D80",
"r 	c #33328C",
"s 	c #060593",
"t 	c #030294",
"u 	c #030194",
"v 	c #05049B",
"w 	c #05039C",
"x 	c #05039D",
"y 	c #0D0B9B",
"z 	c #232197",
"A 	c #616188",
"B 	c #484689",
"C 	c #0F0D93",
"D 	c #050395",
"E 	c #030195",
"F 	c #05049A",
"G 	c #06049C",
"H 	c #0B0A9C",
"I 	c #1D1C98",
"J 	c #5E5E88",
"K 	c #85857F",
"L 	c #787882",
"M 	c #47478A",
"N 	c #161593",
"O 	c #000097",
"P 	c #030297",
"Q 	c #02009D",
"R 	c #0A099C",
"S 	c #343292",
"T 	c #606088",
"U 	c #4F4E89",
"V 	c #0A0996",
"W 	c #000099",
"X 	c #04029C",
"Y 	c #3A3990",
"Z 	c #737383",
"` 	c #7E7E80",
" .	c #7C7C81",
"..	c #3A388E",
"+.	c #0F0D97",
"@.	c #040299",
"#.	c #05029A",
"$.	c #04039B",
"%.	c #100E99",
"&.	c #333293",
"*.	c #83847F",
"=.	c #86877F",
"-.	c #6F6F83",
";.	c #3F3E8E",
">.	c #100F98",
",.	c #01009B",
"'.	c #181897",
").	c #44448D",
"!.	c #717184",
"~.	c #757583",
"{.	c #3E3D8F",
"].	c #53538A",
"                                                                ",
"                                                                ",
"                                                                ",
"                                                                ",
"                                                                ",
"                                                                ",
"                          . + @ # + .                           ",
"                    . $ % & * = - ; > , '                       ",
"                . , ) ! ~ { ] ^ / ( _ : < ' [                   ",
"          . . } | 1 2 3 4 5 / / / 6 7 8 9 0 a b   .             ",
"        [ | c d e 3 4 5 f / / / 6 g h i i j k l m n o p         ",
"      q r s t u 4 4 f f / / / 6 g h h i i v v w x y z A +       ",
"        + B C D E f f / / / g g h h i F v v G G x H I J +       ",
"          K L M N O P / / g g h h i F v v G Q R S T , '         ",
"                } U V W g h h h i F v v X x Y Z ` .             ",
"                  [  ...+.@.#.i F $.v %.&.b *.                  ",
"                    . =.-.;.>.,.k '.).!.$ .                     ",
"                        .   ~.{.].}                             ",
"                              ' [                               ",
"                                                                ",
"                                                                ",
"                                                                ",
"                                                                ",
"                                                                "};
