/* XPM */
static char * nurbs_cone_xpm[] = {
"32 24 183 2",
"  	c #808080",
". 	c #818080",
"+ 	c #828280",
"@ 	c #7C7C7F",
"# 	c #838380",
"$ 	c #5E6078",
"% 	c #3340C4",
"& 	c #84837C",
"* 	c #7D7D7C",
"= 	c #192282",
"- 	c #182BEA",
"; 	c #656995",
"> 	c #82817F",
", 	c #4C4F6F",
"' 	c #0B189F",
") 	c #1528ED",
"! 	c #3743C3",
"~ 	c #7D7D81",
"{ 	c #76767C",
"] 	c #19206A",
"^ 	c #0E1DB4",
"/ 	c #1528EA",
"( 	c #1024E8",
"_ 	c #696D91",
": 	c #828281",
"< 	c #4E516F",
"[ 	c #000770",
"} 	c #1322C5",
"| 	c #1528E9",
"1 	c #1024F5",
"2 	c #2734C1",
"3 	c #84847D",
"4 	c #7E7E7F",
"5 	c #040B5B",
"6 	c #030F85",
"7 	c #1425CD",
"8 	c #1628E8",
"9 	c #1427F0",
"0 	c #0B20EF",
"a 	c #565C93",
"b 	c #84837E",
"c 	c #858582",
"d 	c #323661",
"e 	c #000969",
"f 	c #061296",
"g 	c #1525CE",
"h 	c #1427ED",
"i 	c #1226F7",
"j 	c #1424CC",
"k 	c #7F7F7F",
"l 	c #676873",
"m 	c #040C5B",
"n 	c #030D78",
"o 	c #0816A3",
"p 	c #1526D0",
"q 	c #1628E7",
"r 	c #1427EC",
"s 	c #1225F2",
"t 	c #1024ED",
"u 	c #464E9E",
"v 	c #82827F",
"w 	c #7D7E7E",
"x 	c #2B305D",
"y 	c #020B65",
"z 	c #030E86",
"A 	c #0B19AB",
"B 	c #1526D1",
"C 	c #1729E6",
"D 	c #1226F0",
"E 	c #1124F3",
"F 	c #1C2BC9",
"G 	c #737486",
"H 	c #656673",
"I 	c #060D58",
"J 	c #020C71",
"K 	c #031090",
"L 	c #0D1BB2",
"M 	c #1627D2",
"N 	c #1427EB",
"O 	c #1125F4",
"P 	c #0A1CE9",
"Q 	c #4B529D",
"R 	c #818180",
"S 	c #838382",
"T 	c #232854",
"U 	c #000761",
"V 	c #030E7F",
"W 	c #051195",
"X 	c #0F1DB7",
"Y 	c #1626D1",
"Z 	c #1629E7",
"` 	c #1226EE",
" .	c #1125F3",
"..	c #1023F2",
"+.	c #0E1ECC",
"@.	c #767783",
"#.	c #5C5D6B",
"$.	c #000450",
"%.	c #020C6E",
"&.	c #031089",
"*.	c #06139B",
"=.	c #101FBC",
"-.	c #1628E5",
";.	c #1326ED",
">.	c #0A1DE4",
",.	c #2E39AB",
"'.	c #88877C",
").	c #0A0F43",
"!.	c #020A62",
"~.	c #030D79",
"{.	c #04108F",
"].	c #06149F",
"^.	c #1120BF",
"/.	c #1628E3",
"(.	c #1326EC",
"_.	c #1225F1",
":.	c #1023EF",
"<.	c #091AD0",
"[.	c #65688B",
"}.	c #838281",
"|.	c #575868",
"1.	c #020952",
"2.	c #020C6D",
"3.	c #020F83",
"4.	c #041193",
"5.	c #1121C0",
"6.	c #1628E2",
"7.	c #1326EB",
"8.	c #1225F0",
"9.	c #1124F1",
"0.	c #0D1FE1",
"a.	c #353FAC",
"b.	c #818181",
"c.	c #6D6D77",
"d.	c #000861",
"e.	c #020D76",
"f.	c #030F89",
"g.	c #051298",
"h.	c #0A18A9",
"i.	c #1120C0",
"j.	c #1628E1",
"k.	c #1326EA",
"l.	c #1025F2",
"m.	c #0D21EA",
"n.	c #4C54A8",
"o.	c #83837E",
"p.	c #848481",
"q.	c #5B5E7A",
"r.	c #07127D",
"s.	c #03108F",
"t.	c #05129D",
"u.	c #0B19AD",
"v.	c #1628DF",
"w.	c #1628E6",
"x.	c #1326E9",
"y.	c #1125EF",
"z.	c #1024F3",
"A.	c #3E4AC0",
"B.	c #85847C",
"C.	c #6D6F81",
"D.	c #434989",
"E.	c #252E98",
"F.	c #1321AB",
"G.	c #0E1EC1",
"H.	c #0E20D5",
"I.	c #0F22E2",
"J.	c #1124E8",
"K.	c #182AE4",
"L.	c #2535DA",
"M.	c #414CC0",
"N.	c #61679F",
"O.	c #85847B",
"P.	c #7A7B82",
"Q.	c #757784",
"R.	c #747687",
"S.	c #6C6F8F",
"T.	c #6A6E94",
"U.	c #74768B",
"V.	c #76778A",
"W.	c #797A87",
"X.	c #7F7F81",
"Y.	c #81817F",
"Z.	c #81807F",
"                                                                ",
"                                .                               ",
"                              + @                               ",
"                            # $ % &                             ",
"                            * = - ; >                           ",
"                          + , ' ) ! ~                           ",
"                          { ] ^ / ( _                           ",
"                        : < [ } | 1 2 3                         ",
"                        4 5 6 7 8 9 0 a b                       ",
"                      c d e f g 8 h i j k                       ",
"                    : l m n o p q r s t u v                     ",
"                    w x y z A B C r D E F G                     ",
"                    H I J K L M C N D O P Q R                   ",
"                  S T U V W X Y Z / `  ...+.@.R                 ",
"                S #.$.%.&.*.=.B -.| ;.s O >.,.'.                ",
"                R ).!.~.{.].^.B /.| (._. .:.<.[.v               ",
"              }.|.1.2.3.4.o 5.B 6.8 7.8. .9.0.a.3               ",
"              b.c.d.e.f.g.h.i.p j.q k.8. .l.m.n.o.              ",
"                p.q.r.s.t.u.i.p v.w.x.y.z.D A.B.                ",
"                  # C.D.E.F.G.H.I.J.K.L.M.N.O.                  ",
"                    R . P.Q.R.S.T.U.V.W.X.Y.                    ",
"                                Z.                              ",
"                                                                ",
"                                                                "};
