/* XPM */
static char * nurbs_cylinder_xpm[] = {
"32 24 188 2",
"  	c #808080",
". 	c #818180",
"+ 	c #828280",
"@ 	c #838380",
"# 	c #858580",
"$ 	c #7A7A81",
"% 	c #747581",
"& 	c #6F6F82",
"* 	c #7F8080",
"= 	c #87877F",
"- 	c #85857F",
"; 	c #7E7E80",
"> 	c #6E6E81",
", 	c #3D3D85",
"' 	c #191988",
") 	c #00008B",
"! 	c #00008C",
"~ 	c #01008C",
"{ 	c #201F8A",
"] 	c #474786",
"^ 	c #848480",
"/ 	c #3F3F86",
"( 	c #05058A",
"_ 	c #00008A",
": 	c #02008B",
"< 	c #03028B",
"[ 	c #04028B",
"} 	c #04038C",
"| 	c #04038D",
"1 	c #02018D",
"2 	c #00008E",
"3 	c #08068E",
"4 	c #353489",
"5 	c #7F7F80",
"6 	c #7E7E77",
"7 	c #060585",
"8 	c #04028C",
"9 	c #04038E",
"0 	c #05038F",
"a 	c #545486",
"b 	c #818181",
"c 	c #7D7D79",
"d 	c #03033C",
"e 	c #040284",
"f 	c #04028A",
"g 	c #05038E",
"h 	c #050391",
"i 	c #060498",
"j 	c #4F4E8B",
"k 	c #83837F",
"l 	c #7D7D7B",
"m 	c #030229",
"n 	c #010050",
"o 	c #030272",
"p 	c #030281",
"q 	c #040389",
"r 	c #040390",
"s 	c #040392",
"t 	c #050495",
"u 	c #060499",
"v 	c #07059F",
"w 	c #0806A9",
"x 	c #0A08B5",
"y 	c #0A08BA",
"z 	c #575789",
"A 	c #82837F",
"B 	c #7D7D7A",
"C 	c #03022A",
"D 	c #01004F",
"E 	c #020165",
"F 	c #020175",
"G 	c #020181",
"H 	c #04038F",
"I 	c #0504A0",
"J 	c #0605AC",
"K 	c #0706B6",
"L 	c #0907BE",
"M 	c #0B09C3",
"N 	c #0B0AC5",
"O 	c #0C0AC4",
"P 	c #0907B7",
"Q 	c #595987",
"R 	c #82827F",
"S 	c #020180",
"T 	c #0604AE",
"U 	c #0706B9",
"V 	c #0908C1",
"W 	c #0B09C4",
"X 	c #0B0AC4",
"Y 	c #0907B6",
"Z 	c #646384",
"` 	c #030228",
" .	c #01004E",
"..	c #020174",
"+.	c #0503A0",
"@.	c #0706B8",
"#.	c #0908C0",
"$.	c #0B0AC2",
"%.	c #0907B4",
"&.	c #656483",
"*.	c #02017F",
"=.	c #0604AD",
"-.	c #0B0AC3",
";.	c #0A09C2",
">.	c #0807B2",
",.	c #707080",
"'.	c #020164",
").	c #0504AD",
"!.	c #0705B8",
"~.	c #0A09C1",
"{.	c #0807B0",
"].	c #71727F",
"^.	c #030227",
"/.	c #04039F",
"(.	c #0908BF",
"_.	c #0A09C0",
":.	c #0806AD",
"<.	c #79797F",
"[.	c #01004D",
"}.	c #020173",
"|.	c #04028E",
"1.	c #0B09C2",
"2.	c #0A08BF",
"3.	c #0806AA",
"4.	c #7D7D7E",
"5.	c #030226",
"6.	c #02017E",
"7.	c #04028D",
"8.	c #0504AC",
"9.	c #0705B7",
"0.	c #0B09C1",
"a.	c #0A08BE",
"b.	c #0706A8",
"c.	c #84847D",
"d.	c #7F7F7C",
"e.	c #030225",
"f.	c #020163",
"g.	c #03028D",
"h.	c #0908BE",
"i.	c #0908BD",
"j.	c #0605A4",
"k.	c #8A8A7D",
"l.	c #898986",
"m.	c #020123",
"n.	c #020172",
"o.	c #04039E",
"p.	c #0806BC",
"q.	c #100EA1",
"r.	c #88897E",
"s.	c #878785",
"t.	c #262544",
"u.	c #00004A",
"v.	c #010163",
"w.	c #02017D",
"x.	c #0504AB",
"y.	c #0503BD",
"z.	c #2E2E9A",
"A.	c #86867E",
"B.	c #737378",
"C.	c #2B2B5E",
"D.	c #000062",
"E.	c #000072",
"F.	c #00007D",
"G.	c #0503AB",
"H.	c #0705B6",
"I.	c #0807BE",
"J.	c #0605C2",
"K.	c #0503C2",
"L.	c #2827AB",
"M.	c #717186",
"N.	c #7D7D7F",
"O.	c #6A6A7B",
"P.	c #3B3B79",
"Q.	c #14137D",
"R.	c #01008D",
"S.	c #00009F",
"T.	c #0000AE",
"U.	c #0201B8",
"V.	c #110FB9",
"W.	c #3938A7",
"X.	c #636290",
"Y.	c #7C7C82",
"Z.	c #868680",
"`.	c #88887F",
" +	c #88887D",
".+	c #86867D",
"++	c #84847E",
"@+	c #81817F",
"                                                                ",
"                            . . + .                             ",
"                      @ # # $ % & * = - @                       ",
"                  ; > , ' ) ) ) ! ! ~ { ] & ;                   ",
"                ^ / ( _ : < [ [ } } | 1 2 3 4 5                 ",
"              . 6 7 < [ [ [ 8 } } | | 9 9 0 0 a @               ",
"              b c d e f 8 } } | | | 9 g g h i j k               ",
"              b l m n o p q | r s t u v w x y z A               ",
"              b B C D E F G H I J K L M N O P Q R               ",
"              b B m D E F S H I T U V W X M Y Z +               ",
"              b B `  .E ..S H +.T @.#.W X $.%.&.+               ",
"              b B `  .E ..*.H +.=.U #.M -.;.>.,..               ",
"              b B `  .'...*.9 +.).!.#.M -.~.{.]..               ",
"              b B ^. .'...*.9 /.).!.(.M M _.:.<..               ",
"              b B ^.[.'.}.*.|./.).!.(.;.1.2.3.4..               ",
"              b B 5.[.'.}.6.7./.8.9.(.;.0.a.b.c.                ",
"              b d.e.[.f.}.6.g./.8.9.h.~.0.i.j.k.                ",
"                l.m.[.f.n.6.g.o.8.9.h.~._.p.q.r.                ",
"                s.t.u.v.n.w.g.o.x.9.h._._.y.z.A.                ",
"                b B.C.D.E.F.g.o.G.H.I.J.K.L.M..                 ",
"                    N.O.P.Q.R.S.T.U.V.W.X.Y.                    ",
"                        @ Z.`.Y.Y. +.+++@+                      ",
"                              . .                               ",
"                                                                "};
