/* XPM */
static char * nurbs_torus_xpm[] = {
"32 24 432 2",
"  	c #808080",
". 	c #828280",
"+ 	c #838381",
"@ 	c #848480",
"# 	c #848580",
"$ 	c #858580",
"% 	c #838380",
"& 	c #818180",
"* 	c #7E7E7F",
"= 	c #77777E",
"- 	c #72727F",
"; 	c #59587B",
"> 	c #39397A",
", 	c #343380",
"' 	c #282881",
") 	c #1F1E82",
"! 	c #1F1E83",
"~ 	c #2F2E80",
"{ 	c #3D3D7F",
"] 	c #4A4A7F",
"^ 	c #656580",
"/ 	c #767681",
"( 	c #7B7B80",
"_ 	c #828281",
": 	c #858581",
"< 	c #626276",
"[ 	c #353575",
"} 	c #171680",
"| 	c #03028E",
"1 	c #00009F",
"2 	c #0200AD",
"3 	c #0200B7",
"4 	c #0302B8",
"5 	c #0401B6",
"6 	c #0201AE",
"7 	c #0100A6",
"8 	c #0000A1",
"9 	c #000099",
"0 	c #000093",
"a 	c #100F8F",
"b 	c #28288B",
"c 	c #464686",
"d 	c #777681",
"e 	c #84847F",
"f 	c #848482",
"g 	c #6F6F77",
"h 	c #26256B",
"i 	c #070679",
"j 	c #030290",
"k 	c #0403A9",
"l 	c #0705BD",
"m 	c #0806CF",
"n 	c #0907D8",
"o 	c #0A08DC",
"p 	c #0A08DA",
"q 	c #0B09D2",
"r 	c #0A08C3",
"s 	c #0706B5",
"t 	c #0503A5",
"u 	c #03029C",
"v 	c #030296",
"w 	c #030292",
"x 	c #050493",
"y 	c #0E0D97",
"z 	c #4C4B8D",
"A 	c #86877E",
"B 	c #59596C",
"C 	c #030259",
"D 	c #010078",
"E 	c #03028B",
"F 	c #0503A2",
"G 	c #0705BA",
"H 	c #0906D1",
"I 	c #0B08E4",
"J 	c #0C0AEF",
"K 	c #0E0BF2",
"L 	c #100EEE",
"M 	c #1311E2",
"N 	c #1110CE",
"O 	c #0C0BB8",
"P 	c #0705A6",
"Q 	c #030297",
"R 	c #020189",
"S 	c #030282",
"T 	c #030288",
"U 	c #040391",
"V 	c #06049A",
"W 	c #0301AB",
"X 	c #1A19A4",
"Y 	c #6E6E86",
"Z 	c #74747B",
"` 	c #0F0E5C",
" .	c #000071",
"..	c #030181",
"+.	c #03028D",
"@.	c #040398",
"#.	c #0503AA",
"$.	c #0806C4",
"%.	c #0B09E2",
"&.	c #0F0CF7",
"*.	c #100EFC",
"=.	c #1311F6",
"-.	c #1715E8",
";.	c #1614D3",
">.	c #0E0DB7",
",.	c #0605A1",
"'.	c #02018B",
").	c #020175",
"!.	c #020169",
"~.	c #030276",
"{.	c #04038A",
"].	c #060496",
"^.	c #0705AA",
"/.	c #0502BB",
"(.	c #2523AC",
"_.	c #7E7E80",
":.	c #858583",
"<.	c #1A1956",
"[.	c #000069",
"}.	c #02017A",
"|.	c #020186",
"1.	c #03028F",
"2.	c #040291",
"3.	c #040396",
"4.	c #0604B8",
"5.	c #0D0BEE",
"6.	c #120FFB",
"7.	c #1210EF",
"8.	c #1412DE",
"9.	c #110FC2",
"0.	c #0907A3",
"a.	c #03028A",
"b.	c #02016F",
"c.	c #01014F",
"d.	c #02025C",
"e.	c #04027C",
"f.	c #050491",
"g.	c #0605A2",
"h.	c #0906B6",
"i.	c #0A07C7",
"j.	c #0503CD",
"k.	c #4342A3",
"l.	c #85857D",
"m.	c #403F55",
"n.	c #000053",
"o.	c #020174",
"p.	c #020180",
"q.	c #020188",
"r.	c #030190",
"s.	c #030295",
"t.	c #040294",
"u.	c #040390",
"v.	c #040284",
"w.	c #05049F",
"x.	c #0C0BCB",
"y.	c #0D0BD2",
"z.	c #0B09C0",
"A.	c #0907A5",
"B.	c #020173",
"C.	c #02015B",
"D.	c #04026A",
"E.	c #050388",
"F.	c #0806AB",
"G.	c #0907BD",
"H.	c #0A08CC",
"I.	c #0C09D6",
"J.	c #0C09DA",
"K.	c #0402D3",
"L.	c #68688A",
"M.	c #82827F",
"N.	c #858582",
"O.	c #1C1B3C",
"P.	c #01015E",
"Q.	c #020178",
"R.	c #020184",
"S.	c #02018D",
"T.	c #030193",
"U.	c #03029B",
"V.	c #04029E",
"W.	c #04039E",
"X.	c #040397",
"Y.	c #050291",
"Z.	c #04028E",
"`.	c #04028F",
" +	c #050390",
".+	c #050392",
"++	c #050497",
"@+	c #06059F",
"#+	c #0705A9",
"$+	c #0705B4",
"%+	c #0907BE",
"&+	c #0907CA",
"*+	c #0A08D5",
"=+	c #0B0ADE",
"-+	c #0D0AE4",
";+	c #0D0AE6",
">+	c #0A07DB",
",+	c #2A29A8",
"'+	c #86867D",
")+	c #141334",
"!+	c #010160",
"~+	c #020176",
"{+	c #020187",
"]+	c #03029A",
"^+	c #0303A1",
"/+	c #0503A4",
"(+	c #0504A5",
"_+	c #0504A7",
":+	c #0504A8",
"<+	c #0504AA",
"[+	c #0504AE",
"}+	c #0604B0",
"|+	c #0605B4",
"1+	c #0705B9",
"2+	c #0706BE",
"3+	c #0806C3",
"4+	c #0806C9",
"5+	c #0907D1",
"6+	c #0A08D8",
"7+	c #0B08DF",
"8+	c #0B0AE5",
"9+	c #0D0AEB",
"0+	c #0E0BEE",
"a+	c #0E0BEC",
"b+	c #0B09E1",
"c+	c #1A18A9",
"d+	c #868684",
"e+	c #2E2D4A",
"f+	c #000056",
"g+	c #020171",
"h+	c #020185",
"i+	c #030293",
"j+	c #03029D",
"k+	c #0605AB",
"l+	c #0706B0",
"m+	c #0807B1",
"n+	c #0907B4",
"o+	c #0908B5",
"p+	c #0908BA",
"q+	c #0A08C0",
"r+	c #0A08C6",
"s+	c #0A09CB",
"t+	c #0B09D0",
"u+	c #0C0AD7",
"v+	c #0C0ADC",
"w+	c #0C0AE1",
"x+	c #0C0AE7",
"y+	c #0D0BEC",
"z+	c #0D0BEF",
"A+	c #0E0BF1",
"B+	c #0E0CF1",
"C+	c #0F0CEB",
"D+	c #0B08DD",
"E+	c #2C2AA0",
"F+	c #86867E",
"G+	c #848483",
"H+	c #4D4D5D",
"I+	c #000043",
"J+	c #020164",
"K+	c #02017E",
"L+	c #040399",
"M+	c #0605A4",
"N+	c #0807AD",
"O+	c #0B09B5",
"P+	c #0D0BBB",
"Q+	c #0F0DC0",
"R+	c #100FC7",
"S+	c #1210D3",
"T+	c #1211D8",
"U+	c #1211DC",
"V+	c #1210E1",
"W+	c #1210E5",
"X+	c #110FE9",
"Y+	c #100EEC",
"Z+	c #100EEF",
"`+	c #0F0DF1",
" @	c #0F0DF2",
".@	c #0F0DEE",
"+@	c #0D0BE1",
"@@	c #0705CC",
"#@	c #515091",
"$@	c #818181",
"%@	c #767676",
"&@	c #000024",
"*@	c #010153",
"=@	c #020170",
"-@	c #020181",
";@	c #02018F",
">@	c #05039C",
",@	c #0706A8",
"'@	c #0B0AB2",
")@	c #0E0DBA",
"!@	c #1210C5",
"~@	c #1413D0",
"{@	c #1614D8",
"]@	c #1816DE",
"^@	c #1816E3",
"/@	c #1716E8",
"(@	c #1615EB",
"_@	c #1514EC",
":@	c #1411ED",
"<@	c #1210ED",
"[@	c #110FEE",
"}@	c #0F0DEC",
"|@	c #0F0DEA",
"1@	c #0E0CE1",
"2@	c #0B09CD",
"3@	c #0000AF",
"4@	c #797881",
"5@	c #878786",
"6@	c #24242A",
"7@	c #000032",
"8@	c #01015D",
"9@	c #02017F",
"0@	c #05049B",
"a@	c #0807A6",
"b@	c #0B0AAF",
"c@	c #0F0DBB",
"d@	c #1211C7",
"e@	c #1513D2",
"f@	c #1614DA",
"g@	c #1816E1",
"h@	c #1715E5",
"i@	c #1614E7",
"j@	c #1412E9",
"k@	c #1211EA",
"l@	c #110FE8",
"m@	c #100EE5",
"n@	c #0F0DE1",
"o@	c #0F0DDD",
"p@	c #0E0CD6",
"q@	c #0B0ACB",
"r@	c #0402AB",
"s@	c #222180",
"t@	c #878780",
"u@	c #7C7C7C",
"v@	c #282734",
"w@	c #000038",
"x@	c #010155",
"y@	c #020168",
"z@	c #020179",
"A@	c #040393",
"B@	c #06059B",
"C@	c #0807A7",
"D@	c #0A09B3",
"E@	c #0D0BBF",
"F@	c #0E0DC9",
"G@	c #100FD0",
"H@	c #100ED4",
"I@	c #0F0DD6",
"J@	c #0E0CD8",
"K@	c #0E0CD9",
"L@	c #0E0CDA",
"M@	c #0D0CD5",
"N@	c #0D0BCF",
"O@	c #0B0AC6",
"P@	c #0A09B9",
"Q@	c #0302A1",
"R@	c #1B1A78",
"S@	c #72717C",
"T@	c #7D7D7C",
"U@	c #30303C",
"V@	c #00002A",
"W@	c #010045",
"X@	c #010159",
"Y@	c #02016E",
"Z@	c #02017B",
"`@	c #030283",
" #	c #05039B",
".#	c #0604A7",
"+#	c #0706B1",
"@#	c #0806B7",
"##	c #0806BB",
"$#	c #0806BE",
"%#	c #0907C1",
"&#	c #0907C2",
"*#	c #0A08C2",
"=#	c #0908BC",
"-#	c #0807B0",
";#	c #0706A1",
">#	c #1F1E70",
",#	c #878787",
"'#	c #404041",
")#	c #08081A",
"!#	c #03032F",
"~#	c #000044",
"{#	c #010057",
"]#	c #020161",
"^#	c #02017C",
"/#	c #030187",
"(#	c #030294",
"_#	c #04039B",
":#	c #04039D",
"<#	c #06049F",
"[#	c #05049D",
"}#	c #04038F",
"|#	c #04027D",
"1#	c #070669",
"2#	c #303065",
"3#	c #858584",
"4#	c #797977",
"5#	c #535354",
"6#	c #31313F",
"7#	c #100F30",
"8#	c #000028",
"9#	c #000049",
"0#	c #000059",
"a#	c #000068",
"b#	c #00006C",
"c#	c #00006B",
"d#	c #00006A",
"e#	c #000065",
"f#	c #0B0A65",
"g#	c #282864",
"h#	c #444465",
"i#	c #656470",
"j#	c #7E7E7E",
"k#	c #767677",
"l#	c #6A6A6C",
"m#	c #58585D",
"n#	c #444450",
"o#	c #313146",
"p#	c #1E1E3F",
"q#	c #242346",
"r#	c #2F2E4D",
"s#	c #3E3E58",
"t#	c #49495E",
"u#	c #5F5F6E",
"v#	c #74747A",
"w#	c #7C7C7D",
"x#	c #838382",
"y#	c #828282",
"                                                                ",
"                                                                ",
"                      . + @ # $ $ @ % . &                       ",
"              & * = - ; > , ' ) ! ~ { ] ^ / ( &                 ",
"          _ : < [ } | 1 2 3 4 5 6 7 8 9 0 a b c d e             ",
"        f g h i j k l m n o p q r s t u v w w x y z A &         ",
"        B C D E F G H I J K L M N O P Q R S T U V W X Y         ",
"    & Z `  ...+.@.#.$.%.&.*.=.-.;.>.,.'.).!.~.{.].^./.(._.      ",
"    :.<.[.}.|.1.2.U 3.4.5.6.7.8.9.0.a.b.c.d.e.f.g.h.i.j.k.l.    ",
"  :.m.n.o.p.q.r.s.t.u.v.w.x.y.z.A.{.B.C.D.E.V F.G.H.I.J.K.L.M.  ",
"  N.O.P.Q.R.S.T.Q U.V.W.X.Y.Z.`. +.+++@+#+$+%+&+*+=+-+;+>+,+'+  ",
"  f )+!+~+{+T.]+^+/+(+_+:+<+[+}+|+1+2+3+4+5+6+7+8+9+0+a+b+c+l.  ",
"  d+e+f+g+h+i+j+(+k+l+m+n+o+p+q+r+s+t+u+v+w+x+y+z+A+B+C+D+E+F+  ",
"  G+H+I+J+K+| L+M+N+O+P+Q+R+N S+T+U+V+W+X+Y+Z+`+ @ @.@+@@@#@e   ",
"  $@%@&@*@=@-@;@>@,@'@)@!@~@{@]@^@/@(@_@:@<@[@L }@|@1@2@3@4@&   ",
"    5@6@7@8@=@9@S.0@a@b@c@d@e@f@g@h@i@j@k@l@m@n@o@p@q@r@s@t@    ",
"      u@v@w@x@y@z@{+A@B@C@D@E@F@G@H@I@J@K@L@M@N@O@P@Q@R@S@&     ",
"        T@U@V@W@X@Y@Z@`@1. #.#+#@###$#%#&#*#=#-#;#;@>#Z         ",
"          ,#'#)#!#~#{#]#b.^#/#(#L+_#:#w.<#[#}#|#1#2#$ &         ",
"            3#4#5#6#7#8#w@9#0#a#b#c#d#a#e#f#g#h#i#N.            ",
"                $@j#k#l#m#n#o#p#q#r#s#t#u#v#w#& &               ",
"                        _ x#G+3#:.G+x#y#$@                      ",
"                                                                ",
"                                                                "};
