/* XPM */
static char * object_union_xpm[] = {
"32 24 167 2",
"  	c #808080",
". 	c #004000",
"+ 	c #007000",
"@ 	c #008B00",
"# 	c #019B01",
"$ 	c #02AF02",
"% 	c #04BD03",
"& 	c #02AB02",
"* 	c #6F0000",
"= 	c #8A0000",
"- 	c #9B0101",
"; 	c #AE0303",
"> 	c #BC0403",
", 	c #A40101",
"' 	c #004100",
") 	c #007B00",
"! 	c #009200",
"~ 	c #00A000",
"{ 	c #02B102",
"] 	c #03C803",
"^ 	c #05D704",
"/ 	c #06DC05",
"( 	c #8E0000",
"_ 	c #9D0000",
": 	c #AD0201",
"< 	c #C50303",
"[ 	c #D70504",
"} 	c #E00606",
"| 	c #D30404",
"1 	c #006D00",
"2 	c #008D00",
"3 	c #01A301",
"4 	c #05B305",
"5 	c #08C508",
"6 	c #08D708",
"7 	c #07E506",
"8 	c #08F207",
"9 	c #9F0101",
"0 	c #B00404",
"a 	c #BF0707",
"b 	c #D20707",
"c 	c #E20606",
"d 	c #EE0707",
"e 	c #F00807",
"f 	c #D10302",
"g 	c #004600",
"h 	c #009700",
"i 	c #04AC04",
"j 	c #0BBE0B",
"k 	c #0FD50F",
"l 	c #0EE20E",
"m 	c #0BED0B",
"n 	c #09F509",
"o 	c #AA0404",
"p 	c #BC0A0A",
"q 	c #D00E0E",
"r 	c #DE0E0E",
"s 	c #E80B0B",
"t 	c #F20908",
"u 	c #F70909",
"v 	c #EA0706",
"w 	c #005300",
"x 	c #007C00",
"y 	c #019801",
"z 	c #06AE06",
"A 	c #0EC40E",
"B 	c #13DC13",
"C 	c #13E913",
"D 	c #0FEC0F",
"E 	c #0CF20B",
"F 	c #AB0606",
"G 	c #C00E0E",
"H 	c #D81313",
"I 	c #E61313",
"J 	c #EA0E0E",
"K 	c #F00B0B",
"L 	c #F50A0A",
"M 	c #EB0808",
"N 	c #004D00",
"O 	c #007800",
"P 	c #019201",
"Q 	c #06A706",
"R 	c #0DBF0D",
"S 	c #11D711",
"T 	c #11E411",
"U 	c #0EE90E",
"V 	c #0CE70C",
"W 	c #A50505",
"X 	c #BC0D0D",
"Y 	c #D41212",
"Z 	c #E21212",
"` 	c #E80F0F",
" .	c #E60B0B",
"..	c #EB0B0A",
"+.	c #E40909",
"@.	c #9A0000",
"#.	c #006A00",
"$.	c #008500",
"%.	c #039903",
"&.	c #07B107",
"*.	c #0BC70B",
"=.	c #0BD50B",
"-.	c #0BDC0B",
";.	c #0ADB0A",
">.	c #9B0303",
",.	c #AF0808",
"'.	c #C60B0B",
").	c #D40C0C",
"!.	c #DC0B0B",
"~.	c #DC0A0A",
"{.	c #DA0A0A",
"].	c #D00707",
"^.	c #002100",
"/.	c #005700",
"(.	c #007300",
"_.	c #008600",
":.	c #029C02",
"<.	c #04B204",
"[.	c #05C005",
"}.	c #06C806",
"|.	c #07C807",
"1.	c #880000",
"2.	c #9B0202",
"3.	c #B10404",
"4.	c #BF0505",
"5.	c #C80606",
"6.	c #CA0707",
"7.	c #C30707",
"8.	c #B30404",
"9.	c #003700",
"0.	c #005800",
"a.	c #008400",
"b.	c #009900",
"c.	c #01A601",
"d.	c #03AF03",
"e.	c #04AD04",
"f.	c #700000",
"g.	c #830000",
"h.	c #990000",
"i.	c #A70101",
"j.	c #B00303",
"k.	c #B00505",
"l.	c #A30404",
"m.	c #000600",
"n.	c #003300",
"o.	c #006500",
"p.	c #018E01",
"q.	c #018901",
"r.	c #520000",
"s.	c #660000",
"t.	c #7B0000",
"u.	c #910101",
"v.	c #8C0202",
"w.	c #000000",
"x.	c #001900",
"y.	c #003400",
"z.	c #004C00",
"A.	c #005600",
"B.	c #005B00",
"C.	c #004800",
"D.	c #230000",
"E.	c #390000",
"F.	c #500000",
"G.	c #5B0000",
"H.	c #5E0000",
"I.	c #510000",
"J.	c #140000",
"                                                                ",
"                                                                ",
"                                                                ",
"                                                                ",
"                                                                ",
"                                                                ",
"                  . + @ # $ % & * = - ; > ,                     ",
"                ' ) ! ~ { ] ^ / ( _ : < [ } |                   ",
"                1 2 3 4 5 6 7 8 9 0 a b c d e f                 ",
"              g ) h i j k l m n o p q r s t u v                 ",
"              w x y z A B C D E F G H I J K L M                 ",
"              N O P Q R S T U V W X Y Z `  ...+.@.              ",
"              ' #.$.%.&.*.=.-.;.>.,.'.).!.~.{.].                ",
"              ^./.(._.:.<.[.}.|.1.2.3.4.5.6.7.8.                ",
"                9.0.1 a.b.c.d.e.f.g.h.i.j.k.l.g.                ",
"                m.n.N o.) _.p.q.r.s.t.1.u.v.f.                  ",
"                  w.x.y.z.A.B.C.D.E.F.G.H.I.                    ",
"                                    J.                          ",
"                                                                ",
"                                                                ",
"                                                                ",
"                                                                ",
"                                                                ",
"                                                                "};
