/* XPM */
static char * bool_subtract_xpm[] = {
"25 25 169 2",
"  	c #C7D3CF",
". 	c #9EB5A7",
"+ 	c #6B9576",
"@ 	c #72A580",
"# 	c #6EA272",
"$ 	c #4A7E36",
"% 	c #537425",
"& 	c #7A7A32",
"* 	c #B0AB86",
"= 	c #C3CBC7",
"- 	c #BEC2BE",
"; 	c #C0C1BD",
"> 	c #BFBFBB",
", 	c #BAB9B6",
"' 	c #B9B8B5",
") 	c #BBBAB7",
"! 	c #C2C7C4",
"~ 	c #5C8270",
"{ 	c #73C088",
"] 	c #83DA95",
"^ 	c #5FB574",
"/ 	c #6EC580",
"( 	c #6EC171",
"_ 	c #7ABA66",
": 	c #698137",
"< 	c #BBC1BE",
"[ 	c #C2C4C0",
"} 	c #C5C9C5",
"| 	c #C0C1BE",
"1 	c #C2C4C1",
"2 	c #C1C2BF",
"3 	c #BABAB6",
"4 	c #C1C7C3",
"5 	c #5C7C7D",
"6 	c #58A378",
"7 	c #6BCD80",
"8 	c #60CF71",
"9 	c #69DC81",
"0 	c #61D278",
"a 	c #44B156",
"b 	c #6AC870",
"c 	c #BAC1BE",
"d 	c #BEBEBB",
"e 	c #C3C5C2",
"f 	c #C3C5C1",
"g 	c #C5C7C4",
"h 	c #C3C4C1",
"i 	c #BCBBB8",
"j 	c #C6CFCC",
"k 	c #9BAAB5",
"l 	c #4F887F",
"m 	c #6FC68F",
"n 	c #68DA7B",
"o 	c #5BD96B",
"p 	c #44C757",
"q 	c #44C358",
"r 	c #5AD374",
"s 	c #C1CBC7",
"t 	c #C4C7C3",
"u 	c #C4C6C2",
"v 	c #C1C2BE",
"w 	c #BEC0BC",
"x 	c #597285",
"y 	c #54937E",
"z 	c #64C07D",
"A 	c #50C85E",
"B 	c #4CD154",
"C 	c #61E669",
"D 	c #4DCE58",
"E 	c #47BF5E",
"F 	c #BAC0BC",
"G 	c #BDBDB9",
"H 	c #C2C3C0",
"I 	c #C2C3BF",
"J 	c #C5C8C5",
"K 	c #BFBFBC",
"L 	c #C0C0BC",
"M 	c #B9B8B4",
"N 	c #38596A",
"O 	c #6BAB90",
"P 	c #439C58",
"Q 	c #52C15A",
"R 	c #55D157",
"S 	c #4AC84D",
"T 	c #3EB947",
"U 	c #56C96A",
"V 	c #B6B9B6",
"W 	c #BFBEBB",
"X 	c #B5B7B3",
"Y 	c #284E51",
"Z 	c #599272",
"` 	c #57A365",
" .	c #59B35C",
"..	c #4CB04D",
"+.	c #4AB44F",
"@.	c #51BF5C",
"#.	c #48B55C",
"$.	c #B4B6B3",
"%.	c #BDBCB9",
"&.	c #C0C0BD",
"*.	c #BEBDBA",
"=.	c #BEBEBA",
"-.	c #B7B7B4",
";.	c #3B605B",
">.	c #598C6D",
",.	c #5C9D67",
"'.	c #509C52",
").	c #5CB15C",
"!.	c #50AD54",
"~.	c #369841",
"{.	c #45AB58",
"].	c #B7BAB6",
"^.	c #BCBCB8",
"/.	c #7B9791",
"(.	c #538165",
"_.	c #4A8452",
":.	c #5DA25F",
"<.	c #499648",
"[.	c #4A9D4D",
"}.	c #5DB666",
"|.	c #429C52",
"1.	c #BFC2BF",
"2.	c #BDBDBA",
"3.	c #C2D4CF",
"4.	c #356045",
"5.	c #598D5F",
"6.	c #4F8B4F",
"7.	c #5C9F5A",
"8.	c #589F59",
"9.	c #4A9550",
"0.	c #60AE70",
"a.	c #C7D1CD",
"b.	c #B6B7B3",
"c.	c #BCBBB7",
"d.	c #B2B6B2",
"e.	c #BDBEBB",
"f.	c #A2BBAB",
"g.	c #406A44",
"h.	c #3E6E3C",
"i.	c #4A8046",
"j.	c #5E985E",
"k.	c #5D9A61",
"l.	c #397746",
"m.	c #569067",
"n.	c #C3C9C5",
"o.	c #B8B7B4",
"p.	c #C5CECB",
"q.	c #A3BBA7",
"r.	c #395F36",
"s.	c #467042",
"t.	c #568154",
"u.	c #406D42",
"v.	c #477550",
"w.	c #396448",
"x.	c #416352",
"y.	c #C8D0CC",
"z.	c #C2D2C6",
"A.	c #95AD95",
"B.	c #658265",
"C.	c #668566",
"D.	c #698A6F",
"E.	c #829F8D",
"F.	c #B9CEC7",
"G.	c #C8D4D2",
"H.	c #C7D0CD",
"I.	c #C2C6C2",
"J.	c #BCBCB9",
"K.	c #C7CAC7",
"L.	c #C7D0CC",
"                                                  ",
"                                                  ",
"                                                  ",
"                                                  ",
"                                                  ",
"                                                  ",
"          . + @ # $ % & * = - ; > , ' ) !         ",
"        ~ { ] ^ / ( _ : < [ } | 1 [ 2 ) 3 4       ",
"      5 6 7 8 9 0 a b c d e f g e > h ; i , j     ",
"    k l m n o p q r s i h t u 2 v e [ u > , w     ",
"    x y z A B C D E F G H I [ J [ | K 2 L i M     ",
"    N O P Q R S T U V ; G v h 2 L H | G K W X     ",
"    Y Z `  ...+.@.#.$.%.d &.> K v L d > *.=.-.    ",
"    ;.>.,.'.).!.~.{.].^.=.G L > i d K &.^.W -.    ",
"    /.(._.:.<.[.}.|.1.) ) d ^.G ; %.G 2.i ) M     ",
"    3.4.5.6.7.8.9.0.a.b.i c.=.*.^.&.%.) K d.e.    ",
"      f.g.h.i.j.k.l.m.n.o.o.3 G *.' ^., , L p.    ",
"        q.r.s.t.u.v.w.x.n.b.M ) o.' -.-.; y.      ",
"          z.A.B.C.D.E.F.G.H.I.J.i %.L K.L.        ",
"                                                  ",
"                                                  ",
"                                                  ",
"                                                  ",
"                                                  ",
"                                                  "};
