/* XPM */
static char * object_glue_child_xpm[] = {
"32 24 226 2",
"  	c #808080",
". 	c #797D79",
"+ 	c #4F9E4F",
"@ 	c #769176",
"# 	c #558A55",
"$ 	c #0FD50D",
"% 	c #37C637",
"& 	c #768F76",
"* 	c #6F7D6F",
"= 	c #1BBC1A",
"- 	c #37CB37",
"; 	c #258825",
"> 	c #3DBE3C",
", 	c #789078",
"' 	c #7D7E7D",
") 	c #409A40",
"! 	c #1ADA19",
"~ 	c #6D9A6D",
"{ 	c #6D706D",
"] 	c #248724",
"^ 	c #3DBF3C",
"/ 	c #789076",
"( 	c #847870",
"_ 	c #896E5B",
": 	c #8B6C53",
"< 	c #86766B",
"[ 	c #817F7E",
"} 	c #618361",
"| 	c #0ECE0C",
"1 	c #51BD51",
"2 	c #807F7F",
"3 	c #6E6659",
"4 	c #218702",
"5 	c #42BD23",
"6 	c #877707",
"7 	c #925B02",
"8 	c #935C02",
"9 	c #906337",
"0 	c #8B705B",
"a 	c #847A74",
"b 	c #777D77",
"c 	c #2CAF2B",
"d 	c #2BD72A",
"e 	c #768C76",
"f 	c #775E4A",
"g 	c #8A570C",
"h 	c #755001",
"i 	c #198A02",
"j 	c #46BD05",
"k 	c #8A7502",
"l 	c #945C02",
"m 	c #955D02",
"n 	c #955F16",
"o 	c #9C7048",
"p 	c #8D7F76",
"q 	c #519051",
"r 	c #0FD90E",
"s 	c #5EAC5E",
"t 	c #604932",
"u 	c #5E3B00",
"v 	c #724801",
"w 	c #6C4D01",
"x 	c #6E8403",
"y 	c #8B7503",
"z 	c #945D02",
"A 	c #9B6103",
"B 	c #AC6D05",
"C 	c #BB7807",
"D 	c #C67F09",
"E 	c #99806D",
"F 	c #837974",
"G 	c #847871",
"H 	c #6C7F6C",
"I 	c #17C316",
"J 	c #3ACD39",
"K 	c #7C847C",
"L 	c #593800",
"M 	c #5A3900",
"N 	c #5B3900",
"O 	c #6C4400",
"P 	c #815101",
"Q 	c #A36804",
"R 	c #B67506",
"S 	c #C47E08",
"T 	c #C78009",
"U 	c #C68009",
"V 	c #968070",
"W 	c #87705F",
"X 	c #8B6441",
"Y 	c #8E5A14",
"Z 	c #8A5B10",
"` 	c #409E22",
" .	c #12DC0E",
"..	c #6A9A69",
"+.	c #604A35",
"@.	c #593900",
"#.	c #5B3A00",
"$.	c #C88109",
"%.	c #C68008",
"&.	c #C67F08",
"*.	c #908074",
"=.	c #827A75",
"-.	c #877060",
";.	c #8E5901",
">.	c #8F5901",
",.	c #8F5A01",
"'.	c #737201",
").	c #2BCC0D",
"!.	c #5FB207",
"~.	c #8B6741",
"{.	c #877468",
"].	c #604B36",
"^.	c #583800",
"/.	c #C78008",
"(.	c #C57F08",
"_.	c #C57F0C",
":.	c #8E8076",
"<.	c #766C65",
"[.	c #805215",
"}.	c #905A01",
"|.	c #8E6002",
"1.	c #8A7204",
"2.	c #915D02",
"3.	c #945D03",
"4.	c #A2703C",
"5.	c #8C7F77",
"6.	c #604A36",
"7.	c #BB7907",
"8.	c #C37E12",
"9.	c #8D8077",
"0.	c #6E6761",
"a.	c #533400",
"b.	c #855401",
"c.	c #915B01",
"d.	c #915B02",
"e.	c #9E6403",
"f.	c #B17105",
"g.	c #C17C08",
"h.	c #CA8209",
"i.	c #988170",
"j.	c #C57E08",
"k.	c #BF7E28",
"l.	c #87807B",
"m.	c #726C68",
"n.	c #513300",
"o.	c #513400",
"p.	c #563600",
"q.	c #724700",
"r.	c #8A5601",
"s.	c #986003",
"t.	c #AB6D05",
"u.	c #BC7907",
"v.	c #C98209",
"w.	c #CB8309",
"x.	c #9B816C",
"y.	c #573700",
"z.	c #5D3B00",
"A.	c #BA7807",
"B.	c #C37E08",
"C.	c #BC7D31",
"D.	c #83807E",
"E.	c #736E6B",
"F.	c #503300",
"G.	c #523400",
"H.	c #9E6504",
"I.	c #CA8309",
"J.	c #C98208",
"K.	c #9D806A",
"L.	c #77726F",
"M.	c #665648",
"N.	c #593A0E",
"O.	c #BA7707",
"P.	c #BB7D34",
"Q.	c #A17F63",
"R.	c #777371",
"S.	c #A16705",
"T.	c #CB8308",
"U.	c #CA8208",
"V.	c #C98108",
"W.	c #C88108",
"X.	c #80807F",
"Y.	c #77716E",
"Z.	c #5A3B0E",
"`.	c #6C4501",
" +	c #C07B08",
".+	c #C37E0B",
"++	c #B67E41",
"@+	c #9E7F66",
"#+	c #85807C",
"$+	c #797775",
"%+	c #503301",
"&+	c #9C806A",
"*+	c #78604D",
"=+	c #AF7D4C",
"-+	c #997F6C",
";+	c #82807E",
">+	c #7B7978",
",+	c #523816",
"'+	c #986104",
")+	c #7F7E7E",
"!+	c #584430",
"~+	c #925E03",
"{+	c #605246",
"]+	c #503200",
"^+	c #8A5803",
"/+	c #9B806B",
"(+	c #7D7C7B",
"_+	c #6A615A",
":+	c #543B1D",
"<+	c #885703",
"[+	c #C58015",
"}+	c #B57F49",
"|+	c #777472",
"1+	c #5F4F42",
"2+	c #513301",
"3+	c #835302",
"4+	c #C48020",
"5+	c #B08051",
"6+	c #958071",
"7+	c #818080",
"8+	c #6F6762",
"9+	c #7D562A",
"0+	c #C0802E",
"a+	c #AA805A",
"b+	c #837D78",
"c+	c #89807A",
"                                                                ",
"                              . + @                             ",
"                              # $ % &                           ",
"                            * = - ; > ,                         ",
"                          ' ) ! ~ { ] ^ / ( _ : < [             ",
"                          } | 1   2 3 4 5 6 7 7 8 9 0 a         ",
"                        b c d e 2 f g h i j k 8 8 l m n o p     ",
"                        q r s   2 t u v w x y 8 z A B C D E     ",
"                  F G H I J K   2 t L M N O P Q R S T T U V     ",
"            F W X Y Z `  ...      +.L @.M N #.C $.T T %.&.*.    ",
"      =.-.X Y ;.>.,.'.).!.~.{.[   ].^.L M M #.C /.%.&.(._.:.    ",
"    <.[.;.>.>.,.}.}.|.1.2.7 3.4.5.6.^.L @.M u 7.%.&.(.(.8.9.    ",
"    0.a.O b.}.}.c.d.d.7 e.f.g.h.i.6.^.^.L M u C &.(.j.S k.l.    ",
"    m.n.o.p.q.r.d.s.t.u.v.w.h.h.x.6.y.^.L @.z.A.(.S S B.C.D.    ",
"    E.F.n.G.a.M H./.w.w.I.h.J.J.K.L.M.N.^.L z.O.S S B.P.Q.      ",
"    R.F.n.G.G.a.S.w.T.U.U.J.V.W.K.  X.Y.M.Z.`. +.+++@+#+        ",
"    $+%+n.n.G.a.H.T.U.U.J.V.W.W.&+      X.L.*+=+-+;+            ",
"    >+,+F.n.G.G.'+U.U.J.V.W.W./.&+                              ",
"    )+!+F.n.n.G.~+J.V.W.W././.%.&+                              ",
"      {+]+F.n.G.^+V.W.W././.%.D /+                              ",
"      (+_+:+n.n.<+W.W././.[+}+&+D.                              ",
"          |+1+2+3+W./.4+5+6+7+                                  ",
"            )+8+9+0+a+:.                                        ",
"                b+c+                                            "};
