/* XPM */
static char * object_subtraction_xpm[] = {
"32 24 202 2",
"  	c None",
". 	c #808080",
"+ 	c #818081",
"@ 	c #838183",
"# 	c #797D79",
"$ 	c #6A7B6A",
"% 	c #687C68",
"& 	c #757E75",
"* 	c #837F83",
"= 	c #828082",
"- 	c #808181",
"; 	c #7F7E7E",
"> 	c #7E7A7A",
", 	c #7E7D7D",
"' 	c #818181",
") 	c #7E7E7E",
"! 	c #3D6A3D",
"~ 	c #217421",
"{ 	c #147E14",
"] 	c #138613",
"^ 	c #209020",
"/ 	c #378B36",
"( 	c #6F8170",
"_ 	c #7C7879",
": 	c #776666",
"< 	c #796060",
"[ 	c #795D5D",
"} 	c #7A6060",
"| 	c #7B6767",
"1 	c #7D7878",
"2 	c #787978",
"3 	c #196319",
"4 	c #047B04",
"5 	c #048C04",
"6 	c #049904",
"7 	c #06A806",
"8 	c #07B307",
"9 	c #08B708",
"0 	c #19A817",
"a 	c #7C555B",
"b 	c #7E5656",
"c 	c #815656",
"d 	c #835656",
"e 	c #835756",
"f 	c #805858",
"g 	c #7F7474",
"h 	c #185C18",
"i 	c #047E04",
"j 	c #059605",
"k 	c #07A507",
"l 	c #08AE08",
"m 	c #0ABC0A",
"n 	c #0AC709",
"o 	c #09CE08",
"p 	c #0ED209",
"q 	c #8A505A",
"r 	c #895656",
"s 	c #8B5757",
"t 	c #8C5757",
"u 	c #8A5757",
"v 	c #825555",
"w 	c #848284",
"x 	c #4E674E",
"y 	c #077007",
"z 	c #059105",
"A 	c #06A406",
"B 	c #0AB30A",
"C 	c #0FC20F",
"D 	c #10CD10",
"E 	c #0DD30D",
"F 	c #0AD909",
"G 	c #0EE409",
"H 	c #91515B",
"I 	c #905757",
"J 	c #925858",
"K 	c #935959",
"L 	c #915757",
"M 	c #815C5C",
"N 	c #7F8080",
"O 	c #848184",
"P 	c #306330",
"Q 	c #057B05",
"R 	c #069906",
"S 	c #09AC09",
"T 	c #0EBC0E",
"U 	c #14CD14",
"V 	c #15D915",
"W 	c #12DB11",
"X 	c #0DE10B",
"Y 	c #15E20F",
"Z 	c #96515A",
"` 	c #945858",
" .	c #965959",
"..	c #985B5B",
"+.	c #975959",
"@.	c #935857",
"#.	c #875858",
"$.	c #7E7474",
"%.	c #7B7B7B",
"&.	c #255F25",
"*.	c #057E05",
"=.	c #079906",
"-.	c #09AB09",
";.	c #0FBB0F",
">.	c #15CF15",
",.	c #16DB16",
"'.	c #13DD12",
").	c #1ED614",
"!.	c #98525B",
"~.	c #995B5B",
"{.	c #9B5B5B",
"].	c #9A5B5B",
"^.	c #975A5A",
"/.	c #955858",
"(.	c #915858",
"_.	c #895858",
":.	c #7F6F6F",
"<.	c #7B7A7B",
"[.	c #255A25",
"}.	c #057705",
"|.	c #069306",
"1.	c #09A509",
"2.	c #0DB40D",
"3.	c #11C711",
"4.	c #13D313",
"5.	c #10D60F",
"6.	c #0BD90A",
"7.	c #1ECB15",
"8.	c #99535B",
"9.	c #7D6D6D",
"0.	c #335533",
"a.	c #066705",
"b.	c #068606",
"c.	c #069706",
"d.	c #09A609",
"e.	c #0CB70C",
"f.	c #0DC20D",
"g.	c #0BC60B",
"h.	c #08CC07",
"i.	c #1DBB14",
"j.	c #97525A",
"k.	c #835858",
"l.	c #7D7474",
"m.	c #828282",
"n.	c #646C64",
"o.	c #074D07",
"p.	c #067106",
"q.	c #068405",
"r.	c #069406",
"s.	c #08A408",
"t.	c #08AD08",
"u.	c #08B208",
"v.	c #05B805",
"w.	c #20A316",
"x.	c #93545A",
"y.	c #8F5757",
"z.	c #8D5757",
"A.	c #865656",
"B.	c #7B5C5C",
"C.	c #858385",
"D.	c #384E38",
"E.	c #004C00",
"F.	c #056905",
"G.	c #057A05",
"H.	c #058A05",
"I.	c #059305",
"J.	c #039904",
"K.	c #218417",
"L.	c #8B555A",
"M.	c #8C5656",
"N.	c #8B5656",
"O.	c #845656",
"P.	c #795454",
"Q.	c #848384",
"R.	c #3E513E",
"S.	c #063E06",
"T.	c #055305",
"U.	c #046504",
"V.	c #047004",
"W.	c #047204",
"X.	c #066B06",
"Y.	c #34642F",
"Z.	c #7D585A",
"`.	c #805656",
" +	c #825656",
".+	c #7F5656",
"++	c #785858",
"@+	c #7A7272",
"#+	c #5F655F",
"$+	c #344A34",
"%+	c #294F29",
"&+	c #295729",
"*+	c #2F5B2F",
"=+	c #556955",
"-+	c #838184",
";+	c #7C7878",
">+	c #776060",
",+	c #785F5F",
"'+	c #7D7A7A",
")+	c #838283",
"!+	c #807F80",
"~+	c #7E7C7C",
". . . . . . . . . . . . . . . . . . . . . . . . . . . . . . . . ",
". . . . . . . . . . . . . . . . . . . . . . . . . . . . . . . . ",
". . . . . . . . . . . . . . . . . . . . . . . . . . . . . . . . ",
". . . . . . . . . . . . . . . . . . . . . . . . . . . . . . . . ",
". . . . . . . . . . . . + . . . . . . . . . . . . . . . . . . . ",
". . . . . . . . + @ # $ % & * = - - ; > , - - . . . . . . . . . ",
". . . . . . . ' ) ! ~ { ] ^ / ( _ : < [ } | 1 - . . . . . . . . ",
". . . . . . ' 2 3 4 5 6 7 8 9 0 a b c d d e f g - . . . . . . . ",
". . . . . . = h i j k l m n o p q r s s t t u v g - . . . . . . ",
". . . . . w x y z A B C D E F G H I J K J L I t M N . . . . . . ",
". . . . . O P Q R S T U V W X Y Z `  ...+.` @.I #.$.- . . . . . ",
". . . . . %.&.*.=.-.;.>.,.'.X ).!. .~.{.].^./.(._.:.- . . . . . ",
". . . . . <.[.}.|.1.2.3.4.5.6.7.8. ...].~.+.` I #.9.- . . . . . ",
". . . . . O 0.a.b.c.d.e.f.g.h.i.j.`  .^.^.` L s k.l.- . . . . . ",
". . . . . m.n.o.p.q.r.s.t.u.v.w.x.I J J (.y.z.A.B.N . . . . . . ",
". . . . . . C.D.E.F.G.H.I.R J.K.L.u s M.N.r O.P.1 - . . . . . . ",
". . . . . . . Q.R.S.T.U.V.W.X.Y.Z.`. +d d .+++@+- . . . . . . . ",
". . . . . . . . w #+$+%+&+*+=+-+;+: >+,+< : '+- . . . . . . . . ",
". . . . . . . . . )+Q.!+!+@ )+. - - ) ~+, - - . . . . . . . . . ",
". . . . . . . . . . . . . . . . . . . . . . . . . . . . . . . . ",
". . . . . . . . . . . . . . . . . . . . . . . . . . . . . . . . ",
". . . . . . . . . . . . . . . . . . . . . . . . . . . . . . . . ",
". . . . . . . . . . . . . . . . . . . . . . . . . . . . . . . . ",
". . . . . . . . . . . . . . . . . . . . . . . . . . . . . . . . "};
