/* XPM */
static char * object_unglue_xpm[] = {
"32 24 264 2",
"  	c #808080",
". 	c #846B6B",
"+ 	c #866363",
"@ 	c #817A7A",
"# 	c #773838",
"$ 	c #AC0404",
"% 	c #996969",
"& 	c #817E7C",
"* 	c #87766A",
"= 	c #8B6F59",
"- 	c #887568",
"; 	c #827E7B",
"> 	c #7F7F7F",
", 	c #723535",
"' 	c #B90505",
") 	c #A15F54",
"! 	c #8C6C52",
"~ 	c #91612D",
"{ 	c #945C02",
"] 	c #955C02",
"^ 	c #955D02",
"/ 	c #94622C",
"( 	c #8E6D52",
"_ 	c #88776B",
": 	c #827E7D",
"< 	c #7D7C7B",
"[ 	c #712926",
"} 	c #A54B03",
"| 	c #935C02",
"1 	c #965D02",
"2 	c #965E02",
"3 	c #975E02",
"4 	c #985E03",
"5 	c #956431",
"6 	c #8F6F57",
"7 	c #8A7C72",
"8 	c #7B7978",
"9 	c #701C14",
"0 	c #BA0505",
"a 	c #984302",
"b 	c #8C5702",
"c 	c #975E03",
"d 	c #9D6204",
"e 	c #AC6D05",
"f 	c #BA7607",
"g 	c #AC7E53",
"h 	c #80807F",
"i 	c #721C14",
"j 	c #BB0505",
"k 	c #843101",
"l 	c #603D00",
"m 	c #724801",
"n 	c #845201",
"o 	c #935B02",
"p 	c #985F03",
"q 	c #A66905",
"r 	c #B57407",
"s 	c #C27D08",
"t 	c #C67F09",
"u 	c #C57F08",
"v 	c #AA7F59",
"w 	c #817E7D",
"x 	c #85766C",
"y 	c #896C55",
"z 	c #8D6239",
"A 	c #8A6A50",
"B 	c #886C61",
"C 	c #847473",
"D 	c #7B7977",
"E 	c #731B12",
"F 	c #813101",
"G 	c #5D3B00",
"H 	c #5E3B00",
"I 	c #674100",
"J 	c #C68009",
"K 	c #C67F08",
"L 	c #A67F5E",
"M 	c #817F7D",
"N 	c #84766D",
"O 	c #8D6031",
"P 	c #8F5A02",
"Q 	c #905A01",
"R 	c #905A02",
"S 	c #915A02",
"T 	c #915316",
"U 	c #8D5E4A",
"V 	c #876E6A",
"W 	c #817D7D",
"X 	c #777675",
"Y 	c #710801",
"Z 	c #7A3401",
"` 	c #BA7807",
" .	c #C57E08",
"..	c #C47E08",
"+.	c #A27F62",
"@.	c #7E7976",
"#.	c #876C57",
"$.	c #8C6135",
"%.	c #8F5904",
"&.	c #8F5901",
"*.	c #915B02",
"=.	c #925B02",
"-.	c #925C02",
";.	c #935702",
">.	c #905737",
",.	c #815D54",
"'.	c #730300",
").	c #942701",
"!.	c #982E02",
"~.	c #623E00",
"{.	c #BB7807",
"].	c #9C7F69",
"^.	c #716963",
"/.	c #664000",
"(.	c #7D4E01",
"_.	c #8D5901",
":.	c #9D6303",
"<.	c #AF6F05",
"[.	c #B46E06",
"}.	c #960101",
"|.	c #B30303",
"1.	c #D70505",
"2.	c #E61008",
"3.	c #733801",
"4.	c #6D4501",
"5.	c #C07C07",
"6.	c #C37E08",
"7.	c #C37D08",
"8.	c #997F6C",
"9.	c #736D68",
"0.	c #553600",
"a.	c #563600",
"b.	c #633F00",
"c.	c #7C4E01",
"d.	c #8E5902",
"e.	c #975F02",
"f.	c #A96B04",
"g.	c #B97707",
"h.	c #C88109",
"i.	c #D07609",
"j.	c #EE0808",
"k.	c #9D0101",
"l.	c #980000",
"m.	c #9C0801",
"n.	c #792C00",
"o.	c #623900",
"p.	c #734901",
"q.	c #947F70",
"r.	c #746E6A",
"s.	c #573700",
"t.	c #7B4D01",
"u.	c #A26704",
"v.	c #B47306",
"w.	c #C98209",
"x.	c #C98109",
"y.	c #C17208",
"z.	c #A30303",
"A.	c #820201",
"B.	c #6C0300",
"C.	c #850000",
"D.	c #940000",
"E.	c #921300",
"F.	c #8D3701",
"G.	c #BD7307",
"H.	c #C27C0A",
"I.	c #8E7F75",
"J.	c #75706C",
"K.	c #563700",
"L.	c #8B5903",
"M.	c #CA8209",
"N.	c #C78008",
"O.	c #B07322",
"P.	c #790000",
"Q.	c #B70704",
"R.	c #652E00",
"S.	c #512500",
"T.	c #610D00",
"U.	c #7E0000",
"V.	c #910000",
"W.	c #9D1B01",
"X.	c #B94E06",
"Y.	c #C27908",
"Z.	c #C17C0A",
"`.	c #B47D42",
" +	c #87807B",
".+	c #76716E",
"++	c #543500",
"@+	c #8C5A03",
"#+	c #C88108",
"$+	c #B0752B",
"%+	c #7B0000",
"&+	c #B61E1D",
"*+	c #755D54",
"=+	c #60472C",
"-+	c #4F2A00",
";+	c #5B1600",
">+	c #8D0202",
",+	c #BE1606",
"'+	c #C07317",
")+	c #B07D4B",
"!+	c #987F6C",
"~+	c #83807E",
"{+	c #777471",
"]+	c #875603",
"^+	c #C98208",
"/+	c #C68008",
"(+	c #B0742B",
"_+	c #7D0000",
":+	c #B53131",
"<+	c #827E7E",
"[+	c #7D7B7A",
"}+	c #726861",
"|+	c #644E39",
"1+	c #7D4F02",
"2+	c #AB6623",
"3+	c #AA6653",
"4+	c #927F71",
"5+	c #7A7775",
"6+	c #845402",
"7+	c #C78108",
"8+	c #7F0000",
"9+	c #B43131",
"0+	c #817E7E",
"a+	c #7E7E7D",
"b+	c #8C8077",
"c+	c #7A7776",
"d+	c #543606",
"e+	c #AB7028",
"f+	c #810000",
"g+	c #B33232",
"h+	c #553914",
"i+	c #A86C1F",
"j+	c #820000",
"k+	c #B23838",
"l+	c #6A5F57",
"m+	c #573C1C",
"n+	c #835402",
"o+	c #C17E20",
"p+	c #9A6D43",
"q+	c #840000",
"r+	c #B13838",
"s+	c #797673",
"t+	c #66584D",
"u+	c #563910",
"v+	c #835302",
"w+	c #BF7E2C",
"x+	c #A97F5A",
"y+	c #8E8076",
"z+	c #7B7A7A",
"A+	c #855A5A",
"B+	c #9A6666",
"C+	c #635243",
"D+	c #553602",
"E+	c #825302",
"F+	c #BC7F37",
"G+	c #A47F61",
"H+	c #89807A",
"I+	c #7F7E7E",
"J+	c #726C67",
"K+	c #7C5A39",
"L+	c #B77F44",
"M+	c #9E8067",
"N+	c #85807D",
"O+	c #82807F",
"                                                                ",
"                                  . + @                         ",
"                                  # $ %   & * = - ;             ",
"                                > , ' ) ! ~ { ] ^ / ( _ :       ",
"                                < [ ' } | { { ^ 1 2 3 4 5 6 7   ",
"                                8 9 0 a b { ^ ^ 1 c c d e f g   ",
"                  h             8 i j k l m n o p q r s t u v   ",
"            w x y z A B C       D E j F G G H I r J t K u u L   ",
"      M N y O P Q R R S T U V W X Y j Z G G H l ` K u u  ...+.  ",
"  @.#.$.%.&.Q R R *.*.=.=.-.;.>.,.'.j ).!.G G ~.{.u u ......].  ",
"  ^./.(._.Q R S *.*.=.-.| | :.<.[.}.|.1.2.3.G 4.5.u ....6.7.8.  ",
"  9.0.a.b.c.d.*.=.=.-.e.f.g.J h.i.j.k.l.m.n.o.p.s ....7.7.s q.  ",
"  r.0.0.a.s.~.t.P u.v...w.x.h.h.y.z.A.B.C.D.E.F.G.6.7.7.s H.I.  ",
"  J.0.0.a.K.s.s.L.w.M.w.x.h.h.N.O.P.Q.R.S.T.U.V.W.X.Y.s Z.`. +  ",
"  .+++0.a.a.s.s.@+w.w.x.#+#+N.N.$+%+&+*+=+s.-+;+>+,+'+)+!+~+    ",
"  {+++0.0.a.K.s.]+^+#+#+#+N.N./+(+_+:+<+[+}+|+1+2+3+4+          ",
"  5+++++0.a.K.s.6+#+#+7+N.N./+K (+8+9+0+    a+N b+              ",
"  c+d+++0.0.a.K.6+#+N.N.N./+K u e+f+g+0+                        ",
"  8 h+++++0.a.K.6+N.N./+K K u u i+j+k+                          ",
"  a+l+m+++0.0.a.n+N./+K u u  .o+p+q+r+                          ",
"      s+t+u+0.a.v+/+K u u w+x+y+z+A+B+                          ",
"          .+C+D+E+K u F+G+H+                                    ",
"            I+J+K+L+M+N+                                        ",
"                M O+                                            "};
