/* XPM */
static char * object_move_xpm[] = {
"25 25 166 2",
"  	c None",
". 	c #969696",
"+ 	c #969796",
"@ 	c #979797",
"# 	c #989999",
"$ 	c #9B9B9B",
"% 	c #9DA09F",
"& 	c #A2A4A2",
"* 	c #A6ADAC",
"= 	c #AFB2AF",
"- 	c #B2BDBC",
"; 	c #9E9D9D",
"> 	c #989898",
", 	c #999B9B",
"' 	c #9FA09F",
") 	c #A2A6A6",
"! 	c #ADB0AD",
"~ 	c #DCBEBC",
"{ 	c #B48A84",
"] 	c #B49294",
"^ 	c #DCCAC4",
"/ 	c #9C9D9D",
"( 	c #A1A5A3",
"_ 	c #9E9C9C",
": 	c #946A64",
"< 	c #844644",
"[ 	c #9C5254",
"} 	c #944A4C",
"| 	c #8C524C",
"1 	c #AC8A8C",
"2 	c #979898",
"3 	c #9B9C9B",
"4 	c #8C6664",
"5 	c #A44A4C",
"6 	c #B44A4C",
"7 	c #B4464C",
"8 	c #BC4644",
"9 	c #A47E7C",
"0 	c #9D9B9B",
"a 	c #5C6264",
"b 	c #2C3634",
"c 	c #44322C",
"d 	c #843E3C",
"e 	c #841E1C",
"f 	c #B43E3C",
"g 	c #C44244",
"h 	c #BC4244",
"i 	c #A44244",
"j 	c #6C3234",
"k 	c #3C221C",
"l 	c #BCBABC",
"m 	c #969797",
"n 	c #949A94",
"o 	c #141A1C",
"p 	c #1C1A1C",
"q 	c #2C120C",
"r 	c #BC5654",
"s 	c #D44E4C",
"t 	c #A42224",
"u 	c #9C1E1C",
"v 	c #7C2224",
"w 	c #641A1C",
"x 	c #743234",
"y 	c #5C423C",
"z 	c #ACA2A4",
"A 	c #2C2E2C",
"B 	c #1C1E1C",
"C 	c #34120C",
"D 	c #CC4E54",
"E 	c #E44A4C",
"F 	c #DC4E4C",
"G 	c #C44644",
"H 	c #941A1C",
"I 	c #942A2C",
"J 	c #7C1E1C",
"K 	c #6C1A1C",
"L 	c #843634",
"M 	c #7C3A34",
"N 	c #843A3C",
"O 	c #743E3C",
"P 	c #ACA29C",
"Q 	c #646664",
"R 	c #545654",
"S 	c #A4A6A4",
"T 	c #3C3E3C",
"U 	c #24221C",
"V 	c #3C120C",
"W 	c #C44E54",
"X 	c #EC4644",
"Y 	c #DC4A4C",
"Z 	c #CC5254",
"` 	c #740E0C",
" .	c #8C3634",
"..	c #843A34",
"+.	c #7C3A3C",
"@.	c #6C3E3C",
"#.	c #A4AEAC",
"$.	c #FCFEFC",
"%.	c #F4F2F4",
"&.	c #3C1214",
"*.	c #CC4E4C",
"=.	c #7C1614",
"-.	c #A49294",
";.	c #A4AAA4",
">.	c #ACB2B4",
",.	c #9CAAA4",
"'.	c #9CA6A4",
").	c #845E5C",
"!.	c #9C9294",
"~.	c #ACAEAC",
"{.	c #94726C",
"].	c #E44E4C",
"^.	c #C4B6B4",
"/.	c #B45254",
"(.	c #ACAAA4",
"_.	c #D4BAB4",
":.	c #C45A54",
"<.	c #741614",
"[.	c #643634",
"}.	c #4C2E2C",
"|.	c #4C3E3C",
"1.	c #8C8E8C",
"2.	c #9E9B9B",
"3.	c #8C5E5C",
"4.	c #944E4C",
"5.	c #B45E5C",
"6.	c #741E1C",
"7.	c #4C3634",
"8.	c #4C4244",
"9.	c #4C4644",
"0.	c #444244",
"a.	c #545E5C",
"b.	c #9C827C",
"c.	c #5C2224",
"d.	c #542E2C",
"e.	c #444644",
"f.	c #3C4244",
"g.	c #545254",
"h.	c #343A3C",
"i.	c #343E3C",
"j.	c #AC9A9C",
"k.	c #C4B2B4",
"l.	c #9E9F9F",
"m.	c #3C423C",
"n.	c #3C3A3C",
"o.	c #343A34",
"p.	c #343634",
"q.	c #E4E6E4",
"r.	c #646264",
"s.	c #443E3C",
"t.	c #B4BABC",
"u.	c #B4B6B4",
"v.	c #848284",
"w.	c #7C8284",
"x.	c #747674",
"y.	c #6C6E6C",
"z.	c #9CA29C",
"A.	c #9C9A9C",
"B.	c #6C6A6C",
"C.	c #6C7274",
"D.	c #DCE6E4",
"E.	c #F4FAFC",
"F.	c #FCFAFC",
"G.	c #A4AAAC",
"H.	c #ACB6B4",
"I.	c #ACB2AC",
". . . . . . . . . . . . . . . . + @ # $ % & * = - ",
". . . . . . . . . . . ; ; . . . . . . @ > , ' ) ! ",
". . . . . . . . . ; ~ { ] ^ ; . . . . . . @ # / ( ",
". . . . . . ; _ ] : < [ } | 1 ^ ; . . . . . . 2 3 ",
". . . . . . 4 < 5 6 7 8 7 7 5 } 9 0 . . . . . + > ",
". . a b b c d e f g g g g h 7 i j k l . . . . . m ",
". n o o p q r s t u h 7 7 i v w x y z . . . . . . ",
". A p B B C D E F G H I J K L M N O P . . . . . . ",
"Q R S T U V W X E Y Z `  .L ..+.L @.z . . . . . . ",
"#.$.%.n R &.*.X X E Z =. .L L L M O -.. . . . . . ",
";.>.,.'.n ).W X X E s J L L N N +.O !.. . . . . . ",
". . . . ~.{.r F E ].Z =. .+.L +.+.@.!.. . . . . . ",
". . . . . ^.O /.F E Z e L L +.+.O y (.. . . . . . ",
". . . . . . _.| 6 Z :.<.L +.+.[.}.|.1.. . . . . . ",
". . . . . . . 2.3.4.5.6.+.[.}.7.8.9.0.a $ . 1.a.. ",
". . . . . . . . ^ b.| c.d.}.8.0.0.e.e.f.f.g.h.i.. ",
". . . . . . . . . ; j.-.k.9.0.0.e.f.f.T T T h.A . ",
". . . . . . . . . . . #.l.. g.f.0.m.f.T T n.o.p.>.",
". . . . . . . . . . . . >.. q.r.m.T s.T n.h.n.p.n ",
". . . . . . . . . . . . . t.u.v.T s.T T n.n.o.p.w.",
". . . . . . . . . . . . . x.T T s.T T n.n.o.n.p.y.",
". . . . . . . . . . . . z.l.. . l ~.S A.1.v.x.B.C.",
". . . . . . . . . . . . ;.D.q.E.F.$.$.$.$.$.$.$.~.",
". . . . . . . . . . . . . t.t.(.G.G.#.>.H.u.u.t.I.",
". . . . . . . . . . . . . . . . . . . . . . . . . "};
