/* XPM */
static char * object_ungroup_xpm[] = {
"32 24 208 2",
"  	c #808080",
". 	c #7D7979",
"+ 	c #994646",
"@ 	c #AA6868",
"# 	c #7F7E7E",
"$ 	c #97795F",
"% 	c #88807B",
"& 	c #845555",
"* 	c #CB0D0D",
"= 	c #CF3333",
"- 	c #837D7D",
"; 	c #786B61",
"> 	c #C88411",
", 	c #B98350",
"' 	c #83807E",
") 	c #7B6E6E",
"! 	c #AE1717",
"~ 	c #DE0E0E",
"{ 	c #A26161",
"] 	c #747372",
"^ 	c #A47028",
"/ 	c #D89014",
"( 	c #D3890E",
"_ 	c #A07861",
": 	c #7E7D7D",
"< 	c #8F3E3E",
"[ 	c #D60F0F",
"} 	c #C23F3F",
"| 	c #817D7D",
"1 	c #7C7B7B",
"2 	c #68503A",
"3 	c #CD8812",
"4 	c #D78F14",
"5 	c #BC6A0C",
"6 	c #961C12",
"7 	c #A55757",
"8 	c #837E7E",
"9 	c #7E6161",
"0 	c #C00B0B",
"a 	c #D91919",
"b 	c #916E6E",
"c 	c #5C5855",
"d 	c #A06A0B",
"e 	c #D78F13",
"f 	c #AF5508",
"g 	c #940000",
"h 	c #CB0605",
"i 	c #C34F4F",
"j 	c #897B7B",
"k 	c #7D7777",
"l 	c #A12C2C",
"m 	c #DD0F0F",
"n 	c #B15252",
"o 	c #6D6B6A",
"p 	c #5B3D13",
"q 	c #CD8811",
"r 	c #C1803A",
"s 	c #522B4C",
"t 	c #8C0202",
"u 	c #CA0606",
"v 	c #CA4646",
"w 	c #8F7777",
"x 	c #875252",
"y 	c #CE0E0E",
"z 	c #CE2D2D",
"A 	c #867777",
"B 	c #4B443E",
"C 	c #C0823A",
"D 	c #263E73",
"E 	c #312956",
"F 	c #7E0101",
"G 	c #C10505",
"H 	c #D03636",
"I 	c #915F5F",
"J 	c #B21717",
"K 	c #DD0E0E",
"L 	c #9F6464",
"M 	c #817F7E",
"N 	c #7A7A79",
"O 	c #64451E",
"P 	c #CC8811",
"Q 	c #B07628",
"R 	c #5F484D",
"S 	c #232348",
"T 	c #6F040C",
"U 	c #B60404",
"V 	c #D30505",
"W 	c #CE1C36",
"X 	c #BB4447",
"Y 	c #817E7E",
"Z 	c #8A6E55",
"` 	c #AB8462",
" .	c #727170",
"..	c #AA700C",
"+.	c #D68E13",
"@.	c #D68F13",
"#.	c #D28B13",
"$.	c #A76C23",
"%.	c #5F443D",
"&.	c #600206",
"*.	c #A41128",
"=.	c #61468A",
"-.	c #4A5890",
";.	c #6A7289",
">.	c #7E7F81",
",.	c #605B57",
"'.	c #B0740D",
").	c #D08B2A",
"!.	c #907E74",
"~.	c #887464",
"{.	c #D18B12",
"].	c #D38A0F",
"^.	c #987057",
"/.	c #951616",
"(.	c #A01D3A",
"_.	c #003871",
":.	c #00468C",
"<.	c #004C98",
"[.	c #3A5B95",
"}.	c #646F8B",
"|.	c #676564",
"1.	c #6E4914",
"2.	c #DB9114",
"3.	c #BB8043",
"4.	c #857F7D",
"5.	c #988270",
"6.	c #B2875E",
"7.	c #B2885E",
"8.	c #B1865B",
"9.	c #964A31",
"0.	c #D00E0E",
"a.	c #C92D2D",
"b.	c #504347",
"c.	c #252146",
"d.	c #00376F",
"e.	c #00458B",
"f.	c #044C96",
"g.	c #332C3C",
"h.	c #AF740D",
"i.	c #DB9214",
"j.	c #D2890F",
"k.	c #A47B5C",
"l.	c #7B6868",
"m.	c #B50A0A",
"n.	c #DC0D0D",
"o.	c #9B6464",
"p.	c #7D7D7D",
"q.	c #5F5555",
"r.	c #5B0816",
"s.	c #3D2442",
"t.	c #253055",
"u.	c #724B04",
"v.	c #DA9113",
"w.	c #C27C1F",
"x.	c #917E72",
"y.	c #7D7B7B",
"z.	c #963636",
"A.	c #D90F0F",
"B.	c #BB4646",
"C.	c #7E7E7E",
"D.	c #5D5452",
"E.	c #3B2200",
"F.	c #372300",
"G.	c #B97B0F",
"H.	c #CF860D",
"I.	c #B4783E",
"J.	c #805A5A",
"K.	c #C50C0C",
"L.	c #D52121",
"M.	c #8D7272",
"N.	c #58514C",
"O.	c #7D5205",
"P.	c #D88F13",
"Q.	c #DB9113",
"R.	c #D88E12",
"S.	c #C27904",
"T.	c #9B7C68",
"U.	c #7B7272",
"V.	c #A71F1F",
"W.	c #AA5858",
"X.	c #B87A0E",
"Y.	c #CC830B",
"Z.	c #A77A57",
"`.	c #894646",
" +	c #D20E0E",
".+	c #C83232",
"++	c #837979",
"@+	c #D68D11",
"#+	c #B07A49",
"$+	c #7C6666",
"%+	c #B80A0A",
"&+	c #DB0D0D",
"*+	c #986666",
"=+	c #C18237",
"-+	c #876868",
";+	c #CE2929",
">+	c #B74646",
",+	c #807E7E",
"'+	c #8C6C4D",
")+	c #D28A1B",
"!+	c #8C7F77",
"~+	c #8A7676",
"{+	c #887676",
"]+	c #928072",
"^+	c #A5866B",
"/+	c #A78669",
"(+	c #B4885E",
"_+	c #8E8279",
"                                                                ",
"                                                                ",
"                                                                ",
"                                      . + @                     ",
"              # $ %                   & * = -                   ",
"              ; > , '               ) ! ~ {                     ",
"            ] ^ / ( _             : < [ } |                     ",
"          1 2 3 4 5 6 7 8         9 0 a b                       ",
"          c d e 4 f g h i j     k l m n                         ",
"        o p q e e r s t u v w   x y z A                         ",
"        B d e e e C D E F G H I J K L         M M               ",
"      N O P e e e e Q R S T U V W X Y       # Z `               ",
"       ...+.@.e e e e #.$.%.&.*.=.-.;.>.    ,.'.).!.            ",
"      ~.{.+.+.@.e e e e ].^./.(._.:.<.[.}.|.1.+.2.3.4.          ",
"      5.6.6.6.6.7.7.7.7.8.9.0.a.b.c.d.e.f.g.h.i.i.j.k.          ",
"                        l.m.n.o.p.q.r.s.t.u.+.i.i.v.w.x.        ",
"                      y.z.A.B.Y   C.D.E.F.G.i.i.i.i.H.I.4.      ",
"                      J.K.L.M.      N.F.O.P.2.2.2.Q.R.S.T.      ",
"                    U.V.K W.        N.F.X.v.v.v.v.v.v.Y.Z.      ",
"                  # `. +.+++        N.O.e v.v.v.v.v.v.@+#+      ",
"                  $+%+&+*+          N.X.v.v.v.v.v.v.v.v.=+      ",
"                  -+;+>+,+          '+e v.v.v.v.v.v.v.v.)+!+    ",
"                    ~+{+            ]+^+^+^+^+/+(+(+(+(+(+_+    ",
"                                                                "};
