/* XPM */
static char * object_scale_xpm[] = {
"25 25 145 2",
"  	c None",
". 	c #969696",
"+ 	c #979696",
"@ 	c #C4AAAC",
"# 	c #AC8A84",
"$ 	c #946E6C",
"% 	c #8C5E5C",
"& 	c #AC8284",
"* 	c #D4BAB4",
"= 	c #947A74",
"- 	c #946664",
"; 	c #8C4644",
"> 	c #9C4644",
", 	c #AC4A4C",
"' 	c #B44A4C",
") 	c #944244",
"! 	c #9C5A5C",
"~ 	c #CCC2BC",
"{ 	c #8C5654",
"] 	c #842E2C",
"^ 	c #942A2C",
"/ 	c #BC4244",
"( 	c #C44244",
"_ 	c #A44E4C",
": 	c #7C3E3C",
"< 	c #442624",
"[ 	c #ACAAA4",
"} 	c #AC5E5C",
"| 	c #CC5654",
"1 	c #A42224",
"2 	c #9C1E24",
"3 	c #B43E3C",
"4 	c #842A2C",
"5 	c #6C1E1C",
"6 	c #6C2E2C",
"7 	c #643E3C",
"8 	c #B4AAA4",
"9 	c #A48A8C",
"0 	c #D45254",
"a 	c #DC4E4C",
"b 	c #D44A4C",
"c 	c #A42A2C",
"d 	c #741214",
"e 	c #6C1614",
"f 	c #7C2E2C",
"g 	c #7C3A3C",
"h 	c #6C3A3C",
"i 	c #8C8684",
"j 	c #ACB6B4",
"k 	c #9CA2A4",
"l 	c #341E1C",
"m 	c #8C2E2C",
"n 	c #E44A4C",
"o 	c #EC4A4C",
"p 	c #741A1C",
"q 	c #843A3C",
"r 	c #843A34",
"s 	c #6C3A34",
"t 	c #443634",
"u 	c #4C4E4C",
"v 	c #5C625C",
"w 	c #544244",
"x 	c #DC524C",
"y 	c #EC4644",
"z 	c #EC464C",
"A 	c #D44E4C",
"B 	c #743A3C",
"C 	c #A4A6A4",
"D 	c #D4BABC",
"E 	c #AC5654",
"F 	c #9C8E8C",
"G 	c #A6A9AA",
"H 	c #9CA6A4",
"I 	c #6C423C",
"J 	c #A49694",
"K 	c #B4BAB4",
"L 	c #B4BEBC",
"M 	c #847A7C",
"N 	c #3C1E1C",
"O 	c #AC5254",
"P 	c #D4524C",
"Q 	c #6C1A1C",
"R 	c #743E3C",
"S 	c #543234",
"T 	c #443A3C",
"U 	c #4C1614",
"V 	c #A43E3C",
"W 	c #4C2A24",
"X 	c #543A3C",
"Y 	c #9C9A94",
"Z 	c #BCC2BC",
"` 	c #3C3634",
" .	c #341A1C",
"..	c #441614",
"+.	c #843234",
"@.	c #CC5254",
"#.	c #342624",
"$.	c #B4C2BC",
"%.	c #34423C",
"&.	c #ACB2B4",
"*.	c #5C5E5C",
"=.	c #141E1C",
"-.	c #1C1A1C",
";.	c #241E1C",
">.	c #2C1E1C",
",.	c #3C1614",
"'.	c #642624",
").	c #5C3634",
"!.	c #2C2A24",
"~.	c #242A24",
"{.	c #2C2A2C",
"].	c #343634",
"^.	c #8C928C",
"/.	c #ACB2AC",
"(.	c #545A54",
"_.	c #6C7674",
":.	c #141614",
"<.	c #1C1614",
"[.	c #141A14",
"}.	c #1C1A14",
"|.	c #1C1E1C",
"1.	c #847E7C",
"2.	c #6C4E4C",
"3.	c #341A14",
"4.	c #847A74",
"5.	c #545654",
"6.	c #242224",
"7.	c #242624",
"8.	c #1C2624",
"9.	c #A4AAAC",
"0.	c #141214",
"a.	c #ACAEAC",
"b.	c #74726C",
"c.	c #8C8E8C",
"d.	c #1C221C",
"e.	c #24221C",
"f.	c #949A94",
"g.	c #0C120C",
"h.	c #3C3E3C",
"i.	c #444A44",
"j.	c #5C5A5C",
"k.	c #4C4A44",
"l.	c #444A4C",
"m.	c #747A74",
"n.	c #4C5254",
". . . . . . . . . . . . . . . . . . . . . . . . . ",
". . . . . . . . . . . . . . . . . . . . . . . . . ",
". . . . . . . . . . . . . . . . . . . . . . . . . ",
". . . . . . . . + @ # $ % & * . . . . . . . . . . ",
". . . . . . = - ; > , ' ' , ) ! # ~ . . . . . . . ",
". . . . . . { ] ^ / ( ( / / ' _ : < [ . . . . . . ",
". . . . . + } | ( 1 2 3 ' , 4 5 6 7 8 . . . . . . ",
". . . . . 9 , 0 a a b c d e f g g h i j . . . . . ",
". . . . k l m 0 n o n b p q q r r s t u . . . . . ",
". . . . v w 4 x n y z A p g g r g B w u C . . . . ",
". . . . j D E 0 n o y a p g r q g B F G H . . . . ",
". . . . j + } | n z o A p g g r g I J K L . . . . ",
". . . . . M N O P n y a Q : r g R S T j . . . . . ",
". . . . . 8 = U V 0 a b e R : R W X Y Z . . . . . ",
". . . . . C `  ...+.@.@.Q R 7 < #.` v G . . . . . ",
". $.%.&.*.=.-.;.>.,.5 E '.).l l !.~.{.].^./.(.. . ",
". _.:.:.<.[.}.|.;.1.2.N 3.>.4.5.!.6.~.7.8.7.8.9.. ",
". ~.0.:.<.:.<.].a.a.C b.!.c.C /.1.!.d.e.6.e.d.v . ",
"f.g.:.g.:.:.*.Z a.. . H &./.. . H 9.h.|.|.|.|.d.L ",
"i.g.0.:.0.:.j.K . . . . L . . . . k k.|.-.|.-.-._.",
"l.5.5.5.(.5.j.^.. . . . . . . . . m.j.*.j.5.5.5.n.",
"[ &.&./.&./.&.H . . . . . . . . . H /.&././././.j ",
". . . . . . . . . . . . . . . . . . . . . . . . . ",
". . . . . . . . . . . . . . . . . . . . . . . . . ",
". . . . . . . . . . . . . . . . . . . . . . . . . "};
