/* XPM */
static char * object_group_xpm[] = {
"32 24 136 2",
"  	c #808080",
". 	c #7F7E7E",
"+ 	c #9C7653",
"@ 	c #948174",
"# 	c #75675D",
"$ 	c #C88512",
"% 	c #C5853C",
"& 	c #88807B",
"* 	c #727170",
"= 	c #A36E21",
"- 	c #D89014",
"; 	c #D58C11",
"> 	c #B77F4C",
", 	c #83807E",
"' 	c #7C7B7B",
") 	c #68503A",
"! 	c #CD8812",
"~ 	c #D78F14",
"{ 	c #CF8308",
"] 	c #A97E5F",
"^ 	c #57534F",
"/ 	c #A06A0B",
"( 	c #D78F13",
"_ 	c #D48A0F",
": 	c #C97C13",
"< 	c #9C7F6C",
"[ 	c #696766",
"} 	c #593A02",
"| 	c #CD8811",
"1 	c #CF8B2D",
"2 	c #726080",
"3 	c #715C81",
"4 	c #976D6A",
"5 	c #887D7A",
"6 	c #4D4742",
"7 	c #CF8A25",
"8 	c #5F4F66",
"9 	c #004285",
"0 	c #004A93",
"a 	c #3D5791",
"b 	c #636E8A",
"c 	c #7B7D81",
"d 	c #837D79",
"e 	c #7D7D7D",
"f 	c #6E4F2C",
"g 	c #CE8912",
"h 	c #C98619",
"i 	c #91633B",
"j 	c #373D64",
"k 	c #004283",
"l 	c #2B5495",
"m 	c #5C6A8C",
"n 	c #797C82",
"o 	c #816852",
"p 	c #B8844D",
"q 	c #82807E",
"r 	c #757574",
"s 	c #AA700C",
"t 	c #D68E13",
"u 	c #D68F13",
"v 	c #C17D13",
"w 	c #76574C",
"x 	c #1D3965",
"y 	c #004182",
"z 	c #255396",
"A 	c #55668E",
"B 	c #767984",
"C 	c #5E5955",
"D 	c #B0740D",
"E 	c #D98F12",
"F 	c #A07E66",
"G 	c #8A7768",
"H 	c #D18B12",
"I 	c #D58D11",
"J 	c #9E806A",
"K 	c #767676",
"L 	c #575B64",
"M 	c #2B4067",
"N 	c #004080",
"O 	c #1D5298",
"P 	c #526591",
"Q 	c #58575E",
"R 	c #6C4604",
"S 	c #DB9214",
"T 	c #C7842E",
"U 	c #8B7F77",
"V 	c #8F8176",
"W 	c #A3856B",
"X 	c #A4856B",
"Y 	c #8D8179",
"Z 	c #79797A",
"` 	c #5C5F67",
" .	c #2B3F64",
"..	c #003F7E",
"+.	c #044991",
"@.	c #322F48",
"#.	c #AF740D",
"$.	c #AF7A4C",
"%.	c #44454C",
"&.	c #292A42",
"*.	c #784E05",
"=.	c #CA8009",
"-.	c #9D7C66",
";.	c #6B6866",
">.	c #3A2912",
",.	c #372300",
"'.	c #B97B0F",
").	c #D38A10",
"!.	c #BA772B",
"~.	c #8D7E76",
"{.	c #58514C",
"].	c #7D5205",
"^.	c #D88F13",
"/.	c #DB9113",
"(.	c #DA9013",
"_.	c #C67D07",
":.	c #A47B5C",
"<.	c #B87A0E",
"[.	c #DA9113",
"}.	c #D0870E",
"|.	c #AB794F",
"1.	c #605B57",
"2.	c #D99012",
"3.	c #B97C3B",
"4.	c #64605C",
"5.	c #CB8522",
"6.	c #897F79",
"7.	c #93765D",
"8.	c #D99013",
"9.	c #D68D12",
"0.	c #978070",
"a.	c #8A817B",
"b.	c #948376",
"c.	c #978374",
"d.	c #A5866B",
"e.	c #8E8279",
"                                                                ",
"                                                                ",
"                                                                ",
"                                                                ",
"              . + @                                             ",
"              # $ % &                                           ",
"            * = - ; > ,                                         ",
"          ' ) ! ~ - { ]                                         ",
"        . ^ / ( ( ~ _ : <                                       ",
"        [ } | ( ( 1 2 3 4 5                                     ",
"        6 / ( ( ( 7 8 9 0 a b c               ' d               ",
"      e f g ( ( ( ( h i j k 0 l m n         . o p q             ",
"      r s t u ( ( ( ( ( v w x y 0 z A B   . C D E F             ",
"      G H t t u ( ( ( ( I J K L M N 0 O P Q R t S T U           ",
"      V W W W W W X X X X Y     Z `  ...+.@.#.S S ; $.q         ",
"                                    Z %.&.*.t S S S =.-.        ",
"                                    ;.>.,.'.S S S S ).!.~.      ",
"                                    {.,.].^././././.(._.:.      ",
"                                    {.,.<.[.[.[.[.[.[.}.|.      ",
"                                    1.].( [.[.[.[.[.[.2.3.      ",
"                                    4.<.[.[.[.[.[.[.[.[.5.6.    ",
"                                    7.( (.[.[.[.[.[.[.8.9.0.    ",
"                                    a.b.b.b.b.c.d.d.d.d.d.e.    ",
"                                                                "};
