/* XPM */
static char * bool_intersect_xpm[] = {
"25 25 211 2",
"  	c None",
". 	c #C7D3CF",
"+ 	c #9EB5A7",
"@ 	c #6B9576",
"# 	c #72A580",
"$ 	c #6EA272",
"% 	c #4A7E36",
"& 	c #537425",
"* 	c #7A7A32",
"= 	c #B0AB86",
"- 	c #A7A29F",
"; 	c #988886",
"> 	c #A39694",
", 	c #A39794",
"' 	c #9A8A87",
") 	c #988885",
"! 	c #9B8C89",
"~ 	c #A0928F",
"{ 	c #5C8270",
"] 	c #73C088",
"^ 	c #83DA95",
"/ 	c #5FB574",
"( 	c #6EC580",
"_ 	c #6EC171",
": 	c #7ABA66",
"< 	c #698137",
"[ 	c #51491F",
"} 	c #918265",
"| 	c #B2ADA9",
"1 	c #A79B98",
"2 	c #ABA29F",
"3 	c #ABA19E",
"4 	c #A99F9C",
"5 	c #9C8D8A",
"6 	c #9A8B88",
"7 	c #5C7C7D",
"8 	c #58A378",
"9 	c #6BCD80",
"0 	c #60CF71",
"a 	c #69DC81",
"b 	c #61D278",
"c 	c #44B156",
"d 	c #6AC870",
"e 	c #4A6D3B",
"f 	c #4D642F",
"g 	c #4A5F25",
"h 	c #A39D91",
"i 	c #B0AAA7",
"j 	c #ADA5A2",
"k 	c #ACA3A0",
"l 	c #A69A98",
"m 	c #9E8F8C",
"n 	c #B9BBB8",
"o 	c #9BAAB5",
"p 	c #4F887F",
"q 	c #6FC68F",
"r 	c #68DA7B",
"s 	c #5BD96B",
"t 	c #44C757",
"u 	c #44C358",
"v 	c #5AD374",
"w 	c #499854",
"x 	c #598C54",
"y 	c #4E8344",
"z 	c #3B6427",
"A 	c #6C794A",
"B 	c #A89E9B",
"C 	c #A89D9A",
"D 	c #ADA6A3",
"E 	c #998A87",
"F 	c #9F918E",
"G 	c #597285",
"H 	c #54937E",
"I 	c #64C07D",
"J 	c #50C85E",
"K 	c #4CD154",
"L 	c #61E669",
"M 	c #4DCE58",
"N 	c #47BF5E",
"O 	c #2F6F3A",
"P 	c #46854A",
"Q 	c #4C864B",
"R 	c #466C35",
"S 	c #445220",
"T 	c #B1ACA9",
"U 	c #A49895",
"V 	c #A59996",
"W 	c #968684",
"X 	c #38596A",
"Y 	c #6BAB90",
"Z 	c #439C58",
"` 	c #52C15A",
" .	c #55D157",
"..	c #4AC84D",
"+.	c #3EB947",
"@.	c #56C96A",
"#.	c #37753F",
"$.	c #2E773B",
"%.	c #437942",
"&.	c #557943",
"*.	c #31420F",
"=.	c #A99E9B",
"-.	c #AAA09D",
";.	c #A39693",
">.	c #8F8481",
",.	c #284E51",
"'.	c #599272",
").	c #57A365",
"!.	c #59B35C",
"~.	c #4CB04D",
"{.	c #4AB44F",
"].	c #51BF5C",
"^.	c #48B55C",
"/.	c #2E6A35",
"(.	c #3A763D",
"_.	c #3F733A",
":.	c #51733B",
"<.	c #374817",
"[.	c #A29592",
"}.	c #A19491",
"|.	c #948583",
"1.	c #3B605B",
"2.	c #598C6D",
"3.	c #5C9D67",
"4.	c #509C52",
"5.	c #5CB15C",
"6.	c #50AD54",
"7.	c #369841",
"8.	c #45AB58",
"9.	c #376E3C",
"0.	c #467A44",
"a.	c #3B6A34",
"b.	c #536F3E",
"c.	c #384819",
"d.	c #9D8E8B",
"e.	c #A39692",
"f.	c #A49894",
"g.	c #A69A97",
"h.	c #9E908D",
"i.	c #938583",
"j.	c #7B9791",
"k.	c #538165",
"l.	c #4A8452",
"m.	c #5DA25F",
"n.	c #499648",
"o.	c #4A9D4D",
"p.	c #5DB666",
"q.	c #429C52",
"r.	c #336738",
"s.	c #3D6A3D",
"t.	c #3A5E36",
"u.	c #455E36",
"v.	c #404925",
"w.	c #A69B98",
"x.	c #A19390",
"y.	c #968784",
"z.	c #C2D4CF",
"A.	c #356045",
"B.	c #598D5F",
"C.	c #4F8B4F",
"D.	c #5C9F5A",
"E.	c #589F59",
"F.	c #4A9550",
"G.	c #60AE70",
"H.	c #488956",
"I.	c #335636",
"J.	c #556F51",
"K.	c #142B0F",
"L.	c #62624B",
"M.	c #A59A96",
"N.	c #88827F",
"O.	c #A2BBAB",
"P.	c #406A44",
"Q.	c #3E6E3C",
"R.	c #4A8046",
"S.	c #5E985E",
"T.	c #5D9A61",
"U.	c #397746",
"V.	c #569067",
"W.	c #3D5A42",
"X.	c #3C4B3A",
"Y.	c #646555",
"Z.	c #8E807B",
"`.	c #B5B6B3",
" +	c #A3BBA7",
".+	c #395F36",
"++	c #467042",
"@+	c #568154",
"#+	c #406D42",
"$+	c #477550",
"%+	c #396448",
"&+	c #416352",
"*+	c #747970",
"=+	c #928682",
"-+	c #978785",
";+	c #9C8C8A",
">+	c #968683",
",+	c #B7B6B2",
"'+	c #C2D2C6",
")+	c #95AD95",
"!+	c #658265",
"~+	c #668566",
"{+	c #698A6F",
"]+	c #829F8D",
"^+	c #B9CEC7",
"/+	c #C8D4D2",
"(+	c #BABCB9",
"_+	c #9B8B88",
":+	c #9F908D",
"<+	c #B4B1AD",
"[+	c #B7B5B2",
". . . . . . . . . . . . . . . . . . . . . . . . . ",
". . . . . . . . . . . . . . . . . . . . . . . . . ",
". . . . . . . . . . . . . . . . . . . . . . . . . ",
". . . . . . . . . . . . . . . . . . . . . . . . . ",
". . . . . . . . . . . . . . . . . . . . . . . . . ",
". . . . . . . . . . . . . . . . . . . . . . . . . ",
". . . . . + @ # $ % & * = - ; > , ' ) ! ~ . . . . ",
". . . . { ] ^ / ( _ : < [ } | 1 2 3 4 5 6 ~ . . . ",
". . . 7 8 9 0 a b c d e f g h i j , k l m ' n . . ",
". . o p q r s t u v w x y z A B C j 3 D , E F . . ",
". . G H I J K L M N O P Q R S T 3 1 U B V m W . . ",
". . X Y Z `  ...+.@.#.$.%.&.*.=.V -.1 ~ U ;.>.. . ",
". . ,.'.).!.~.{.].^./.(._.:.<.U C V [.> }.}.|.. . ",
". . 1.2.3.4.5.6.7.8.9.0.a.b.c., d.e.f.g.h.;.i.. . ",
". . j.k.l.m.n.o.p.q.r.s.t.u.v.~ w.F ~ x.d.5 y.. . ",
". . z.A.B.C.D.E.F.G.H.I.J.K.L.}.h.M.F 5 f.N.5 . . ",
". . . O.P.Q.R.S.T.U.V.W.X.Y.Z.~ }.) h.E ' V `.. . ",
". . . .  +.+++@+#+$+%+&+*+=+-+;+>+; |.|.w.,+. . . ",
". . . . . '+)+!+~+{+]+^+/+(+> _+d.:+V <+[+. . . . ",
". . . . . . . . . . . . . . . . . . . . . . . . . ",
". . . . . . . . . . . . . . . . . . . . . . . . . ",
". . . . . . . . . . . . . . . . . . . . . . . . . ",
". . . . . . . . . . . . . . . . . . . . . . . . . ",
". . . . . . . . . . . . . . . . . . . . . . . . . ",
". . . . . . . . . . . . . . . . . . . . . . . . . "};
