/* XPM */
static char * shell_xpm[] = {
"32 24 291 2",
"  	c None",
". 	c #808080",
"+ 	c #818081",
"@ 	c #848184",
"# 	c #858185",
"$ 	c #858085",
"% 	c #848084",
"& 	c #838183",
"* 	c #787C78",
"= 	c #557255",
"- 	c #497849",
"; 	c #4A7E49",
"> 	c #567F56",
", 	c #757F75",
"' 	c #847F84",
") 	c #7F7F7F",
"! 	c #767C76",
"~ 	c #346A34",
"{ 	c #006800",
"] 	c #007E00",
"^ 	c #008A00",
"/ 	c #008F00",
"( 	c #0C8A00",
"_ 	c #019D00",
": 	c #189F18",
"< 	c #598A58",
"[ 	c #7E817E",
"} 	c #7E7F7E",
"| 	c #4C684C",
"1 	c #055F05",
"2 	c #007800",
"3 	c #008800",
"4 	c #009400",
"5 	c #00A000",
"6 	c #445F02",
"7 	c #710301",
"8 	c #493B01",
"9 	c #1E9701",
"0 	c #00CE00",
"a 	c #2BA82A",
"b 	c #778476",
"c 	c #526C52",
"d 	c #026002",
"e 	c #007C00",
"f 	c #009A00",
"g 	c #00AB01",
"h 	c #476202",
"i 	c #7D0102",
"j 	c #4D0000",
"k 	c #4E0000",
"l 	c #5E0E00",
"m 	c #377B03",
"n 	c #00E502",
"o 	c #29B428",
"p 	c #7C817C",
"q 	c #6A726A",
"r 	c #035303",
"s 	c #007600",
"t 	c #008B00",
"u 	c #009B00",
"v 	c #00A901",
"w 	c #278602",
"x 	c #8A0D01",
"y 	c #7A0000",
"z 	c #6A0000",
"A 	c #570000",
"B 	c #4B0000",
"C 	c #630800",
"D 	c #378204",
"E 	c #01E803",
"F 	c #33A733",
"G 	c #847E84",
"H 	c #848284",
"I 	c #1A471A",
"J 	c #006600",
"K 	c #008200",
"L 	c #01A201",
"M 	c #07A403",
"N 	c #7D2F03",
"O 	c #9F0001",
"P 	c #920000",
"Q 	c #810000",
"R 	c #6F0000",
"S 	c #600000",
"T 	c #520000",
"U 	c #611401",
"V 	c #20B506",
"W 	c #00DB00",
"X 	c #6E886E",
"Y 	c #827F82",
"Z 	c #818181",
"` 	c #757775",
" .	c #004700",
"..	c #007000",
"+.	c #008700",
"@.	c #019801",
"#.	c #02A202",
"$.	c #377703",
"%.	c #B00904",
"&.	c #B20404",
"*.	c #A50303",
"=.	c #940101",
"-.	c #830000",
";.	c #750000",
">.	c #650000",
",.	c #495603",
"'.	c #08E005",
").	c #33AB32",
"!.	c #877C87",
"~.	c #858385",
"{.	c #495849",
"].	c #005300",
"^.	c #007300",
"/.	c #029902",
"(.	c #099C03",
"_.	c #8B3105",
":.	c #D20509",
"<.	c #C50909",
"[.	c #B70707",
"}.	c #A60606",
"|.	c #930202",
"1.	c #840101",
"2.	c #760000",
"3.	c #5F0000",
"4.	c #680000",
"5.	c #22AA05",
"6.	c #0FC40F",
"7.	c #7B7E7B",
"8.	c #888588",
"9.	c #223E22",
"0.	c #005500",
"a.	c #019501",
"b.	c #109504",
"c.	c #A41403",
"d.	c #CE0108",
"e.	c #D0080C",
"f.	c #C90B0D",
"g.	c #B50A0A",
"h.	c #A00606",
"i.	c #910202",
"j.	c #840000",
"k.	c #8D0001",
"l.	c #AD0003",
"m.	c #369806",
"n.	c #0BC90B",
"o.	c #728473",
"p.	c #817F81",
"q.	c #888688",
"r.	c #1B361B",
"s.	c #005000",
"t.	c #006F00",
"u.	c #008300",
"v.	c #019101",
"w.	c #03A003",
"x.	c #02B007",
"y.	c #2D9209",
"z.	c #635F06",
"A.	c #863D06",
"B.	c #A21D05",
"C.	c #A41605",
"D.	c #A41404",
"E.	c #8E3905",
"F.	c #637307",
"G.	c #1CCD0A",
"H.	c #07DE09",
"I.	c #0DC10C",
"J.	c #758475",
"K.	c #878687",
"L.	c #283A28",
"M.	c #004800",
"N.	c #006700",
"O.	c #007B00",
"P.	c #018C01",
"Q.	c #039903",
"R.	c #05A505",
"S.	c #05B909",
"T.	c #04CD0B",
"U.	c #02DC0D",
"V.	c #01E70E",
"W.	c #00ED0C",
"X.	c #00F00B",
"Y.	c #00EC0A",
"Z.	c #03E60A",
"`.	c #08DF0A",
" +	c #08D308",
".+	c #0CB40C",
"++	c #858585",
"@+	c #424842",
"#+	c #003700",
"$+	c #005D00",
"%+	c #007100",
"&+	c #008100",
"*+	c #008E00",
"=+	c #039B03",
"-+	c #05AC05",
";+	c #08BA08",
">+	c #08C608",
",+	c #09CE09",
"'+	c #09D409",
")+	c #09D709",
"!+	c #09D609",
"~+	c #09D209",
"{+	c #09CF09",
"]+	c #06C205",
"^+	c #0C9F0C",
"/+	c #827E82",
"(+	c #757575",
"_+	c #001E00",
":+	c #004D00",
"<+	c #006400",
"[+	c #007500",
"}+	c #008000",
"|+	c #008D00",
"1+	c #029E02",
"2+	c #03AC03",
"3+	c #04B804",
"4+	c #05C105",
"5+	c #06C606",
"6+	c #07C907",
"7+	c #08C408",
"8+	c #06BB06",
"9+	c #01AC01",
"0+	c #378637",
"a+	c #867F86",
"b+	c #848484",
"c+	c #2F392F",
"d+	c #003200",
"e+	c #006500",
"f+	c #007200",
"g+	c #018E01",
"h+	c #019C01",
"i+	c #02A702",
"j+	c #02B002",
"k+	c #03B603",
"l+	c #05B905",
"m+	c #06B806",
"n+	c #05B105",
"o+	c #03A503",
"p+	c #757D75",
"q+	c #808180",
"r+	c #6D6E6D",
"s+	c #061D06",
"t+	c #006C00",
"u+	c #007D00",
"v+	c #009500",
"w+	c #019E01",
"x+	c #01A301",
"y+	c #02A602",
"z+	c #04A304",
"A+	c #437643",
"B+	c #555755",
"C+	c #041A04",
"D+	c #004500",
"E+	c #018B01",
"F+	c #018501",
"G+	c #356E35",
"H+	c #7D7F7D",
"I+	c #5F605F",
"J+	c #061406",
"K+	c #002000",
"L+	c #003500",
"M+	c #004900",
"N+	c #005700",
"O+	c #006A00",
"P+	c #006E00",
"Q+	c #006900",
"R+	c #005900",
"S+	c #346234",
"T+	c #7C7E7C",
"U+	c #828282",
"V+	c #7B7A7B",
"W+	c #2D2F2D",
"X+	c #071507",
"Y+	c #052305",
"Z+	c #022F02",
"`+	c #023C02",
" @	c #044104",
".@	c #064406",
"+@	c #1F4D1F",
"@@	c #5E6D5E",
"#@	c #878387",
"$@	c #868686",
"%@	c #767576",
"&@	c #585858",
"*@	c #464D46",
"=@	c #445044",
"-@	c #515C51",
";@	c #737673",
">@	c #838283",
",@	c #838383",
"'@	c #848384",
". . . . . . . . . . . . . . . . . . . . . . . . . . . . . . . . ",
". . . . . . . . . . . . . . . . . . . . . . . . . . . . . . . . ",
". . . . . . . . . . . . . + @ # $ % + . . . . . . . . . . . . . ",
". . . . . . . . . . . . & * = - ; > , ' + . . . . . . . . . . . ",
". . . . . . . . . . ) ! ~ { ] ^ / ( _ : < [ . . . . . . . . . . ",
". . . . . . . . . } | 1 2 3 4 5 6 7 8 9 0 a b + . . . . . . . . ",
". . . . . . . . + c d e / f g h i j k l m n o p . . . . . . . . ",
". . . . . . . + q r s t u v w x y z A B C D E F G . . . . . . . ",
". . . . . . . H I J K 4 L M N O P Q R S T U V W X Y . . . . . . ",
". . . . . . Z `  ...+.@.#.$.%.&.*.=.-.;.>.S ,.'.).!.. . . . . . ",
". . . . . . ~.{.].^.3 /.(._.:.<.[.}.|.1.2.3.4.5.6.7.+ . . . . . ",
". . . . . . 8.9.0.^.+.a.b.c.d.e.f.g.h.i.j.k.l.m.n.o.p.. . . . . ",
". . . . . . q.r.s.t.u.v.w.x.y.z.A.B.C.D.E.F.G.H.I.J.p.. . . . . ",
". . . . . . K.L.M.N.O.P.Q.R.S.T.U.V.W.X.Y.Z.`. +.+} + . . . . . ",
". . . . . . ++@+#+$+%+&+*+=+-+;+>+,+'+)+!+~+{+]+^+/+. . . . . . ",
". . . . . . Z (+_+:+<+[+}+|+1+2+3+4+5+6+6+7+8+9+0+a+. . . . . . ",
". . . . . . . b+c+d+s.e+f+] g+h+i+j+k+l+m+n+o+^ p++ . . . . . . ",
". . . . . . . q+r+s+#+s.$+t+u+^ v+w+x+y+z+/.}+A+@ . . . . . . . ",
". . . . . . . . . B+C+d+D+0.J ^.}++.E+P.F+^.G+H+. . . . . . . . ",
". . . . . . . . . Z I+J+K+L+M+N+<+O+P+Q+R+S+T+. . . . . . . . . ",
". . . . . . . . . . U+V+W+X+Y+Z+`+ @.@+@@@#@. . . . . . . . . . ",
". . . . . . . . . . . Z $@%@&@*@=@-@;@#@>@. . . . . . . . . . . ",
". . . . . . . . . . . . . Z ,@'@'@>@Z . . . . . . . . . . . . . ",
". . . . . . . . . . . . . . . . . . . . . . . . . . . . . . . . "};
