/* XPM */
static char * opengl_xpm[] = {
"32 24 107 2",
"  	c #969696",
". 	c #959696",
"+ 	c #8E9498",
"@ 	c #8A9399",
"# 	c #87939A",
"$ 	c #8F9598",
"% 	c #949697",
"& 	c #86929A",
"* 	c #718E9D",
"= 	c #6289A1",
"- 	c #5787A4",
"; 	c #5586A4",
"> 	c #5F89A2",
", 	c #6F8C9F",
"' 	c #7F909B",
") 	c #7C909B",
"! 	c #5E89A2",
"~ 	c #5887A3",
"{ 	c #698C9F",
"] 	c #748D9D",
"^ 	c #7E909B",
"/ 	c #84929A",
"( 	c #869299",
"_ 	c #85929A",
": 	c #82919A",
"< 	c #728D9E",
"[ 	c #6B8B9F",
"} 	c #768D9D",
"| 	c #929597",
"1 	c #8E9497",
"2 	c #6489A0",
"3 	c #668AA1",
"4 	c #939597",
"5 	c #909597",
"6 	c #909598",
"7 	c #5E88A2",
"8 	c #949596",
"9 	c #81919B",
"0 	c #7A8F9C",
"a 	c #8C9498",
"b 	c #8D9398",
"c 	c #84919A",
"d 	c #6A8BA0",
"e 	c #5686A5",
"f 	c #6289A0",
"g 	c #83919A",
"h 	c #678BA0",
"i 	c #8B9399",
"j 	c #638AA1",
"k 	c #6189A1",
"l 	c #6C8C9F",
"m 	c #7A909C",
"n 	c #6288A0",
"o 	c #859299",
"p 	c #6D8D9F",
"q 	c #889298",
"r 	c #959697",
"s 	c #83919B",
"t 	c #8C9398",
"u 	c #5B87A3",
"v 	c #81919A",
"w 	c #80919B",
"x 	c #6389A1",
"y 	c #658AA0",
"z 	c #7E919B",
"A 	c #748D9E",
"B 	c #83929A",
"C 	c #668AA0",
"D 	c #6A8AA0",
"E 	c #798F9D",
"F 	c #708D9E",
"G 	c #6389A2",
"H 	c #6E8C9E",
"I 	c #6D8C9F",
"J 	c #738D9D",
"K 	c #7D8F9B",
"L 	c #768E9D",
"M 	c #5A87A2",
"N 	c #718C9E",
"O 	c #6A8B9F",
"P 	c #5785A3",
"Q 	c #6489A1",
"R 	c #678AA0",
"S 	c #8D9498",
"T 	c #7D909B",
"U 	c #758E9D",
"V 	c #728D9D",
"W 	c #778E9D",
"X 	c #778F9C",
"Y 	c #5D88A2",
"Z 	c #8F9497",
"` 	c #5987A3",
" .	c #82929B",
"..	c #919597",
"+.	c #889299",
"@.	c #6589A1",
"#.	c #949696",
"$.	c #7B909B",
"%.	c #919497",
"&.	c #688B9F",
"*.	c #86939A",
"=.	c #7C909C",
"-.	c #6289A2",
";.	c #5F88A2",
">.	c #6F8C9E",
",.	c #879299",
"'.	c #8A9398",
"                                                                ",
"                                                                ",
"                                                                ",
"                                                                ",
"                . + @ # @ $ %                                   ",
"          & * = - ; ; ; ; ; ; > , ' %                           ",
"      ) ! ; ; ; ~ { ] ^ / ( _ : ) < [ } |                       ",
"  1 2 ; ; ; 3 : .                     4 _ 5                     ",
"6 7 ; ; ~ < ^ 5                           8 9 0 a   b c         ",
"d ; ; e f g _ h i                       . j k l ~ / m >         ",
"; ; ; n o     a p a q g   r s @ 8 t 9 b ' u 8   v w m >         ",
"; ; ; x 5       y l z 9 A A # A B C q D } y   E C F m >         ",
"; ; ; G c     @ H H     I y J * K L   H ' M 4 + N x m >         ",
"O ; ; P Q ' v R S l T 9 U V _ W B X   H r 3 ! O Y x m - 2 2 L : ",
"Z 7 ; ; ` A  .|   H @ c   r / q 8 +   a   . o ' ..+.1 / / / @ 5 ",
"  $ @.; ; ; y 9 #.$.                  | _ %.                    ",
"      K > ; ; ; ~ &.] ^ g *._ : =.< [ L |                       ",
"          ( V -.~ ; ; ; ; ; ; ;.>.' 8                           ",
"                  1 @ ,.'.Z #.                                  ",
"                                                                ",
"                                                                ",
"                                                                ",
"                                                                ",
"                                                                "};
