/* XPM */
static char * panoramic_camera_xpm[] = {
"32 24 251 2",
"  	c #808080",
". 	c #818181",
"+ 	c #7F7F7F",
"@ 	c #7B7B7B",
"# 	c #7E7E7E",
"$ 	c #838383",
"% 	c #787878",
"& 	c #5F5F5F",
"* 	c #414141",
"= 	c #232323",
"- 	c #3F3F3F",
"; 	c #777777",
"> 	c #828282",
", 	c #6C6C6C",
"' 	c #060606",
") 	c #000000",
"! 	c #282828",
"~ 	c #878787",
"{ 	c #898989",
"] 	c #868686",
"^ 	c #858585",
"/ 	c #3B3B3B",
"( 	c #040404",
"_ 	c #454545",
": 	c #323232",
"< 	c #0C0C0C",
"[ 	c #353535",
"} 	c #2D2D2D",
"| 	c #2A2A2A",
"1 	c #848484",
"2 	c #020202",
"3 	c #030303",
"4 	c #5A5A5A",
"5 	c #6B6B6B",
"6 	c #444444",
"7 	c #2E2E2E",
"8 	c #7C7C7C",
"9 	c #818081",
"0 	c #535353",
"a 	c #050505",
"b 	c #3F3E3F",
"c 	c #848084",
"d 	c #7C7E7C",
"e 	c #697F69",
"f 	c #588158",
"g 	c #142414",
"h 	c #051005",
"i 	c #486A48",
"j 	c #6F806F",
"k 	c #838083",
"l 	c #858085",
"m 	c #5B7A5B",
"n 	c #247F24",
"o 	c #108810",
"p 	c #009100",
"q 	c #002C00",
"r 	c #000D00",
"s 	c #046904",
"t 	c #158415",
"u 	c #2A852A",
"v 	c #588558",
"w 	c #848184",
"x 	c #787F78",
"y 	c #2D792D",
"z 	c #038503",
"A 	c #009200",
"B 	c #009C00",
"C 	c #008B00",
"D 	c #002600",
"E 	c #002F00",
"F 	c #003B00",
"G 	c #002800",
"H 	c #043604",
"I 	c #307A30",
"J 	c #7F807F",
"K 	c #828082",
"L 	c #187418",
"M 	c #008600",
"N 	c #009400",
"O 	c #049404",
"P 	c #287C28",
"Q 	c #6C7A6C",
"R 	c #272627",
"S 	c #141214",
"T 	c #7C797C",
"U 	c #001600",
"V 	c #007700",
"W 	c #078207",
"X 	c #728072",
"Y 	c #858185",
"Z 	c #437943",
"` 	c #007B00",
" .	c #008F00",
"..	c #1A8A1A",
"+.	c #5B795B",
"@.	c #888188",
"#.	c #242424",
"$.	c #080808",
"%.	c #898988",
"&.	c #F0F0EF",
"*.	c #FFFFFF",
"=.	c #767576",
"-.	c #001400",
";.	c #026E02",
">.	c #218521",
",.	c #828182",
"'.	c #687768",
").	c #077207",
"!.	c #008100",
"~.	c #118911",
"{.	c #6A826A",
"].	c #161616",
"^.	c #6F6F6F",
"/.	c #191F19",
"(.	c #256B25",
"_.	c #007500",
":.	c #028502",
"<.	c #518451",
"[.	c #838183",
"}.	c #557255",
"|.	c #047004",
"1.	c #007C00",
"2.	c #1D831D",
"3.	c #778077",
"4.	c #6E6E6E",
"5.	c #292929",
"6.	c #151515",
"7.	c #FDFDFD",
"8.	c #515151",
"9.	c #282528",
"0.	c #4F774F",
"a.	c #037303",
"b.	c #248824",
"c.	c #7D807D",
"d.	c #6D7B6D",
"e.	c #076E07",
"f.	c #007900",
"g.	c #0D7F0D",
"h.	c #638063",
"i.	c #656565",
"j.	c #191919",
"k.	c #1C1C1C",
"l.	c #FCFCFB",
"m.	c #F7F6F6",
"n.	c #363336",
"o.	c #367436",
"p.	c #008D00",
"q.	c #308A30",
"r.	c #156815",
"s.	c #007300",
"t.	c #137E13",
"u.	c #5F7E5F",
"v.	c #555555",
"w.	c #222222",
"x.	c #0A0A0A",
"y.	c #272727",
"z.	c #1E1E1E",
"A.	c #F0F1F0",
"B.	c #929292",
"C.	c #2F2D2F",
"D.	c #0F0E0F",
"E.	c #224D22",
"F.	c #0E810E",
"G.	c #029102",
"H.	c #4C874C",
"I.	c #847F84",
"J.	c #667766",
"K.	c #106710",
"L.	c #007600",
"M.	c #0A7D0A",
"N.	c #2F7D2F",
"O.	c #577D57",
"P.	c #7E807E",
"Q.	c #868086",
"R.	c #646464",
"S.	c #7E7D7E",
"T.	c #757375",
"U.	c #131013",
"V.	c #332C33",
"W.	c #0E0F0E",
"X.	c #224222",
"Y.	c #206D20",
"Z.	c #068506",
"`.	c #009600",
" +	c #198619",
".+	c #798179",
"++	c #717B71",
"@+	c #176B17",
"#+	c #007800",
"$+	c #007F00",
"%+	c #048004",
"&+	c #0D7C0D",
"*+	c #397C39",
"=+	c #507C50",
"-+	c #647C64",
";+	c #767E76",
">+	c #787E78",
",+	c #6B7E6B",
"'+	c #294829",
")+	c #004700",
"!+	c #047904",
"~+	c #058A05",
"{+	c #018E01",
"]+	c #009300",
"^+	c #288128",
"/+	c #7B807B",
"(+	c #747A74",
"_+	c #246324",
":+	c #017A01",
"<+	c #007E00",
"[+	c #008200",
"}+	c #008300",
"|+	c #008400",
"1+	c #008000",
"2+	c #058105",
"3+	c #008900",
"4+	c #009000",
"5+	c #019501",
"6+	c #048D04",
"7+	c #397D39",
"8+	c #878287",
"9+	c #697569",
"0+	c #3E6B3E",
"a+	c #1D701D",
"b+	c #077507",
"c+	c #008A00",
"d+	c #008C00",
"e+	c #0A890A",
"f+	c #1E811E",
"g+	c #3A793A",
"h+	c #667966",
"i+	c #787C78",
"j+	c #617661",
"k+	c #567556",
"l+	c #487548",
"m+	c #397539",
"n+	c #2C752C",
"o+	c #1E761E",
"p+	c #1A781A",
"q+	c #237923",
"r+	c #2D7A2D",
"s+	c #397B39",
"t+	c #407B40",
"u+	c #4E7C4E",
"v+	c #637B63",
"w+	c #787D78",
"x+	c #7E7F7E",
"y+	c #7C7F7C",
"z+	c #7A7E7A",
"A+	c #7B7F7B",
"B+	c #7D7F7D",
"                        . + @ #                                 ",
"                    $ % & * = - ; .                             ",
"                  > , = ' ) ) ) ! $ ~ { ]                       ",
"                  ^ / ) ) ) ) ) ( _ : < [ + .                   ",
"                  ] } ) ) ) ) ) ) ) ) ) ) | #                   ",
"                  1 * 2 ) ) ) ) ) ) ) ) ) 3 4                   ",
"                  > 5 ( ) ) ) ) ) ) ) ) ) ) / #                 ",
"                    ] 6 ) ) ) ) ) ) ) ) ) ) 7 8                 ",
"                9 $ 0 a ) ) ) ) ) ) ) ) ) ) b #                 ",
"            c d e f g ) ) ) ) ) ) ) ) ) ) h i j 9 k             ",
"        9 l m n o p q ) ) ) ) ) ) ) ) ) ) r s t u v w 9         ",
"        x y z A B C D ) ) ) ) ) ) ) ) ) ) ) E F G H I J         ",
"      K L M N O P Q R ) ) ) ) ) ) ) ) ) ) 3 S T K U V W X K     ",
"    Y Z `  ...+.@.9 #.) ) ) ) ) ) ) ) ) $.%.&.*.=.-.;.` >.K     ",
"  ,.'.).!.~.{.k   . * ) ) ) ) ) ) ) ) ) ].*.*.*.^./.(._.:.<.c   ",
"  [.}.|.1.2.3.      # 4.5.) ) ) ) ) ) ) 6.*.7.*.8.9.0.a.C b.c.  ",
"  K d.e.f.g.h.9         $ i.j.( ) ) ) ) k.*.l.m._ n.o.f.p.q.c   ",
"    9 r.s.` t.u.k k 9     $ $ v.w.x.y.z.[ A.B.C.D.E.F.p.G.H.I.  ",
"    [.J.K.L.1.M.N.O.P.Q.c k K 1 @ R.S.T.U.V.W.X.Y.Z. .`. +.+9   ",
"        ++@+#+1.$+%+&+*+=+-+;+l Q.c >+,+'+)+!+~+{+]+`.^+/+9     ",
"        9 (+_+e.:+<+[+}+|+|+[+1+2+[+M 3+4+4+p ]+5+6+7+          ",
"          . 8+9+0+a+b+L.1.1+M c+p.p.p.p.d+C e+f+g+h+K           ",
"              ,.w i+j+k+l+m+n+o+p+q+r+s+t+u+v+w+l K             ",
"                    9 9 J x+y+z+z+A+y+B+P.  9                   "};
