/* XPM */
static char * planar_uv_xpm[] = {
"32 24 319 2",
"  	c #808080",
". 	c #82827F",
"+ 	c #84847E",
"@ 	c #81817F",
"# 	c #87877D",
"$ 	c #6D6D89",
"% 	c #565692",
"& 	c #83837F",
"* 	c #818180",
"= 	c #828282",
"- 	c #858585",
"; 	c #717096",
"> 	c #1E1EAC",
", 	c #0000B7",
"' 	c #0B0BB3",
") 	c #4D4D9C",
"! 	c #838386",
"~ 	c #7F7F7F",
"{ 	c #83837E",
"] 	c #7B7B82",
"^ 	c #64658B",
"/ 	c #6A6A95",
"( 	c #9E9CA4",
"_ 	c #BFBCB4",
": 	c #C1BDB8",
"< 	c #9B98B6",
"[ 	c #3938B6",
"} 	c #1414B6",
"| 	c #6C6AB7",
"1 	c #B0ADB9",
"2 	c #C0BDB9",
"3 	c #B1AFA7",
"4 	c #8A8995",
"5 	c #707089",
"6 	c #7E7E7E",
"7 	c #8E8D8A",
"8 	c #51519B",
"9 	c #1515A7",
"0 	c #0808AF",
"a 	c #0909B6",
"b 	c #2423B6",
"c 	c #6665B5",
"d 	c #8B88B5",
"e 	c #3B3AB6",
"f 	c #2121B6",
"g 	c #1111B7",
"h 	c #3736B7",
"i 	c #706EB7",
"j 	c #9794B8",
"k 	c #5250B9",
"l 	c #2827BA",
"m 	c #1717B1",
"n 	c #2828A6",
"o 	c #4C4C94",
"p 	c #747481",
"q 	c #7E7E7D",
"r 	c #848484",
"s 	c #9C9B9A",
"t 	c #AFACAB",
"u 	c #B6B3B1",
"v 	c #B1AEB3",
"w 	c #807EB4",
"x 	c #2625B5",
"y 	c #2A29B5",
"z 	c #7472B5",
"A 	c #B3AFB6",
"B 	c #B4B1B6",
"C 	c #7876B6",
"D 	c #1C1BB7",
"E 	c #0303B7",
"F 	c #4948B7",
"G 	c #9D9BB8",
"H 	c #B9B5B8",
"I 	c #7270B8",
"J 	c #1C1CB9",
"K 	c #0000B9",
"L 	c #1919BA",
"M 	c #7776B8",
"N 	c #B7B4B4",
"O 	c #A4A2A0",
"P 	c #7D7D7E",
"Q 	c #7C7C7C",
"R 	c #8D8C8B",
"S 	c #ACAAA9",
"T 	c #B3B1B2",
"U 	c #A8A5B5",
"V 	c #6968B5",
"W 	c #2322B5",
"X 	c #3939B6",
"Y 	c #9593B6",
"Z 	c #B3B1B6",
"` 	c #B5B2B6",
" .	c #9E9AB7",
"..	c #5553B7",
"+.	c #2F2FB7",
"@.	c #928FB8",
"#.	c #B6B2B8",
"$.	c #BAB6B9",
"%.	c #B4B2B9",
"&.	c #8885B9",
"*.	c #3C3BBA",
"=.	c #9794BA",
"-.	c #BAB6BA",
";.	c #BEBBBB",
">.	c #C3BFBD",
",.	c #C8C4C2",
"'.	c #B5B4B3",
").	c #777777",
"!.	c #7D7D79",
"~.	c #504F8B",
"{.	c #0000A2",
"].	c #0000AF",
"^.	c #0000B8",
"/.	c #1F1EB6",
"(.	c #7978B7",
"_.	c #7B79B7",
":.	c #1615B7",
"<.	c #0202B8",
"[.	c #5957B9",
"}.	c #9997B9",
"|.	c #3E3DB9",
"1.	c #0000BA",
"2.	c #1F1EBF",
"3.	c #7876C9",
"4.	c #D6D4D6",
"5.	c #E8E7E7",
"6.	c #D3D2D2",
"7.	c #797979",
"8.	c #80807D",
"9.	c #7F7F79",
"0.	c #333378",
"a.	c #00007B",
"b.	c #000087",
"c.	c #202098",
"d.	c #8683B1",
"e.	c #AFACBA",
"f.	c #C1BEB8",
"g.	c #AEABB8",
"h.	c #5352B8",
"i.	c #2D2DB9",
"j.	c #9B98B9",
"k.	c #B8B5B9",
"l.	c #BFBCBA",
"m.	c #A7A4B8",
"n.	c #807EB8",
"o.	c #3534C2",
"p.	c #0202D3",
"q.	c #0000DF",
"r.	c #3D3DE6",
"s.	c #E4E3E7",
"t.	c #E9E8E7",
"u.	c #CBCAC6",
"v.	c #7A7A7A",
"w.	c #838380",
"x.	c #5B5B7D",
"y.	c #323279",
"z.	c #42427A",
"A.	c #02027B",
"B.	c #2C2C7C",
"C.	c #85857F",
"D.	c #979694",
"E.	c #B5B2B2",
"F.	c #8B89BA",
"G.	c #3130B9",
"H.	c #0A0AB9",
"I.	c #0606B9",
"J.	c #2A2AB9",
"K.	c #8C89B9",
"L.	c #BFBCB8",
"M.	c #CCCAC7",
"N.	c #E6E4DD",
"O.	c #8E8DE6",
"P.	c #0606E7",
"Q.	c #0000E7",
"R.	c #4545E6",
"S.	c #EBEAE6",
"T.	c #EBEAE7",
"U.	c #9595BD",
"V.	c #7E7E7B",
"W.	c #848480",
"X.	c #58587D",
"Y.	c #000078",
"Z.	c #060679",
"`.	c #28287A",
" +	c #0B0B7A",
".+	c #01017B",
"++	c #2A2A7B",
"@+	c #82827C",
"#+	c #64647C",
"$+	c #000094",
"%+	c #0000B0",
"&+	c #0000BE",
"*+	c #0000CC",
"=+	c #8C8BE4",
"-+	c #EFEEEA",
";+	c #F1F1E8",
">+	c #7A79E7",
",+	c #0202E7",
"'+	c #0404E7",
")+	c #4B4BE6",
"!+	c #8483E5",
"~+	c #0808E7",
"{+	c #3535B7",
"]+	c #86867B",
"^+	c #5C5C7E",
"/+	c #000079",
"(+	c #3D3D79",
"_+	c #6F6F7A",
":+	c #40407B",
"<+	c #3A3A7B",
"[+	c #7F7F7C",
"}+	c #63637D",
"|+	c #00007E",
"1+	c #000091",
"2+	c #0000D3",
"3+	c #0000E6",
"4+	c #0000EC",
"5+	c #9F9FE9",
"6+	c #EDEDE8",
"7+	c #F6F5E7",
"8+	c #8787E7",
"9+	c #3E3EE7",
"0+	c #8786E6",
"a+	c #7E7DE5",
"b+	c #0000E5",
"c+	c #0000E8",
"d+	c #4545AE",
"e+	c #85857C",
"f+	c #797980",
"g+	c #36367B",
"h+	c #353579",
"i+	c #79797A",
"j+	c #7E7E7A",
"k+	c #56567B",
"l+	c #26267C",
"m+	c #5F5F7C",
"n+	c #69697C",
"o+	c #00007D",
"p+	c #0000E2",
"q+	c #0000EA",
"r+	c #0000E9",
"s+	c #A5A4E8",
"t+	c #E1E0E8",
"u+	c #7C7CE7",
"v+	c #8E8EE7",
"w+	c #DEDDE6",
"x+	c #EEEDE6",
"y+	c #8786E5",
"z+	c #5C5C9D",
"A+	c #83837D",
"B+	c #7E7E80",
"C+	c #6B6B7F",
"D+	c #777779",
"E+	c #7B7B7A",
"F+	c #50507A",
"G+	c #05057C",
"H+	c #1E1E7C",
"I+	c #20207D",
"J+	c #0000ED",
"K+	c #1A1AE8",
"L+	c #5150E8",
"M+	c #1111E7",
"N+	c #8282E6",
"O+	c #E6E5E6",
"P+	c #E7E6E7",
"Q+	c #8685E4",
"R+	c #3131B9",
"S+	c #72728C",
"T+	c #7E7E81",
"U+	c #7D7D7C",
"V+	c #51517A",
"W+	c #00007C",
"X+	c #1A1A7C",
"Y+	c #88887C",
"Z+	c #5C5C7D",
"`+	c #151579",
" @	c #2020EE",
".@	c #9594E8",
"+@	c #F9F8E8",
"@@	c #302FE7",
"#@	c #8787E4",
"$@	c #E1E1E0",
"%@	c #B9B9BA",
"&@	c #898987",
"*@	c #6C6C7F",
"=@	c #2B2B7D",
"-@	c #08087B",
";@	c #16167C",
">@	c #84847C",
",@	c #7B7B79",
"'@	c #F6F5ED",
")@	c #F1F0E8",
"!@	c #F9F8E7",
"~@	c #2D2DEA",
"{@	c #1818D0",
"]@	c #7F7EB0",
"^@	c #878886",
"/@	c #7B7B7B",
"(@	c #828280",
"_@	c #7F7F80",
":@	c #63637F",
"<@	c #4B4B7E",
"[@	c #80807C",
"}@	c #7D7D7D",
"|@	c #787878",
"1@	c #EFEEED",
"2@	c #ECEBEB",
"3@	c #F3F2E9",
"4@	c #5251C6",
"5@	c #58589F",
"6@	c #767688",
"7@	c #80807F",
"8@	c #F1F0EF",
"9@	c #C5C4C3",
"0@	c #929191",
"a@	c #7E7E83",
"b@	c #8F8E8E",
"c@	c #7B7C7C",
"d@	c #7E7F7F",
"                                                                ",
"                                                                ",
"                              . +                               ",
"                          @ # $ % . &                           ",
"                  * * = - ; > , , ' ) ! =                       ",
"            ~ { ] ^ / ( _ : < [ } | 1 2 3 4 5 . {               ",
"        6 6 7 8 9 0 a b c d e f g h i j k l m n o p q ~         ",
"      r s t u v w x y z A B C D E F G H I J K L M N O - P       ",
"      Q R S T U V W X Y Z `  ...+.@.#.$.%.&.*.=.-.;.>.,.'.Q     ",
"      6 ).!.~.{.].^.E /.(._.:.^.^.<.[.}.|.1.K ^.2.3.4.5.6.7.    ",
"      8.9.9.0.a.b.c.d.e.f.f.g.h.i.j.k.l.m.n.o.p.q.r.s.t.u.v.    ",
"    w.x.y.7.z.A.a.B.C.D.E.F.G.H.I.J.K.L.M.N.O.P.Q.R.S.T.U.V.    ",
"    W.X.Y.Z.`. +.+++@+Q #+$+%+, 1.&+*+=+-+;+>+,+'+)+!+~+{+]+    ",
"    w.^+Y./+(+_+:+<+[+[+}+a.|+1+2+3+4+5+6+7+8+9+0+a+b+c+d+e+    ",
"    * f+g+/+h+i+j+k+l+m+n+o+|+Y.p+q+r+s+t+u+v+w+x+y+r+b+z+A+    ",
"        B+C+m+D+E+F+a.G+H+I+|+/+J+r+K+L+M+Q.N+O+P+Q+R+S+T+      ",
"          * * ~ U+V+a.W+X+Y+Z+`+ @.@+@@@Q.3+#@$@%@&@A+          ",
"                * *@=@-@;@>@8.,@'@)@!@~@3+{@]@^@/@~             ",
"                  (@_@:@<@[@}@|@1@2@3@4@5@6@8.~                 ",
"                      * _@7@}@|@8@9@0@a@@                       ",
"                              6 b@c@                            ",
"                                d@                              ",
"                                                                ",
"                                                                "};
