/* XPM */
static char * plastiform_xpm[] = {
"32 24 234 2",
"  	c #808080",
". 	c #7F8081",
"+ 	c #81807F",
"@ 	c #84827A",
"# 	c #81817E",
"$ 	c #7F8082",
"% 	c #83827B",
"& 	c #8B856E",
"* 	c #918865",
"= 	c #958A60",
"- 	c #938A65",
"; 	c #8D8A73",
"> 	c #828681",
", 	c #7E8284",
"' 	c #808081",
") 	c #807F81",
"! 	c #878375",
"~ 	c #908864",
"{ 	c #96895C",
"] 	c #978B5B",
"^ 	c #988B5B",
"/ 	c #998E5C",
"( 	c #988C5B",
"_ 	c #8B6041",
": 	c #8D4F39",
"< 	c #8C6555",
"[ 	c #82827D",
"} 	c #81807E",
"| 	c #83817B",
"1 	c #8B856C",
"2 	c #94895C",
"3 	c #978A59",
"4 	c #978A5A",
"5 	c #866845",
"6 	c #720B0A",
"7 	c #920002",
"8 	c #AD0004",
"9 	c #C60004",
"0 	c #C31B15",
"a 	c #9B775D",
"b 	c #86857A",
"c 	c #81817F",
"d 	c #848278",
"e 	c #888370",
"f 	c #8F8664",
"g 	c #958959",
"h 	c #968A58",
"i 	c #968A5A",
"j 	c #998D5C",
"k 	c #89734C",
"l 	c #680606",
"m 	c #AB0409",
"n 	c #C4060C",
"o 	c #DF070D",
"p 	c #F1030B",
"q 	c #DE1211",
"r 	c #A48656",
"s 	c #988F68",
"t 	c #8D8773",
"u 	c #85837B",
"v 	c #848279",
"w 	c #908761",
"x 	c #968957",
"y 	c #958A5A",
"z 	c #988C5C",
"A 	c #9C915F",
"B 	c #623020",
"C 	c #7B0000",
"D 	c #A30307",
"E 	c #BC0B10",
"F 	c #D71016",
"G 	c #EA0E14",
"H 	c #F80B11",
"I 	c #FA060E",
"J 	c #C23D2C",
"K 	c #A09C65",
"L 	c #A29460",
"M 	c #9C9166",
"N 	c #968D6D",
"O 	c #898679",
"P 	c #7F7F81",
"Q 	c #89846F",
"R 	c #958A5B",
"S 	c #968B5A",
"T 	c #9E9361",
"U 	c #460605",
"V 	c #820004",
"W 	c #A30509",
"X 	c #C10E13",
"Y 	c #DE1419",
"Z 	c #EB1218",
"` 	c #F30D14",
" .	c #F60C12",
"..	c #CD1212",
"+.	c #828456",
"@.	c #A09261",
"#.	c #A29561",
"$.	c #A29462",
"%.	c #A29563",
"&.	c #9E9268",
"*.	c #8D8975",
"=.	c #818180",
"-.	c #8D866B",
";.	c #958A5D",
">.	c #9A8D5D",
",.	c #9D9360",
"'.	c #582419",
").	c #750003",
"!.	c #950206",
"~.	c #B30A0E",
"{.	c #D00E14",
"].	c #DF0E14",
"^.	c #E30C12",
"/.	c #E30A10",
"(.	c #BB1212",
"_.	c #71754D",
":.	c #716A46",
"<.	c #867D53",
"[.	c #9D905F",
"}.	c #A49663",
"|.	c #A69862",
"1.	c #A39665",
"2.	c #918B74",
"3.	c #82817F",
"4.	c #84827B",
"5.	c #8F886B",
"6.	c #968C61",
"7.	c #9A8E5C",
"8.	c #9A8E5D",
"9.	c #9A8C5C",
"0.	c #824932",
"a.	c #861C15",
"b.	c #990005",
"c.	c #B50309",
"d.	c #C5070C",
"e.	c #CA090E",
"f.	c #BF0309",
"g.	c #993929",
"h.	c #8A895B",
"i.	c #817A50",
"j.	c #756E4A",
"k.	c #6F6945",
"l.	c #837950",
"m.	c #94885A",
"n.	c #A29461",
"o.	c #9F9469",
"p.	c #978E70",
"q.	c #85847C",
"r.	c #85827A",
"s.	c #8D876F",
"t.	c #988D60",
"u.	c #9C905D",
"v.	c #9C905E",
"w.	c #9E9462",
"x.	c #998256",
"y.	c #955A3C",
"z.	c #981D17",
"A.	c #9E0001",
"B.	c #9F0004",
"C.	c #880F0E",
"D.	c #988659",
"E.	c #989060",
"F.	c #91895B",
"G.	c #8B8357",
"H.	c #837B52",
"I.	c #78714B",
"J.	c #746C47",
"K.	c #7F7959",
"L.	c #86847E",
"M.	c #82817E",
"N.	c #8F886F",
"O.	c #9D915E",
"P.	c #9D925F",
"Q.	c #9E9160",
"R.	c #9D8A5B",
"S.	c #915F40",
"T.	c #782F21",
"U.	c #988156",
"V.	c #9E9663",
"W.	c #9C9362",
"X.	c #9A9160",
"Y.	c #978E5F",
"Z.	c #92895B",
"`.	c #8C8458",
" +	c #857D51",
".+	c #7E7B68",
"++	c #83827D",
"@+	c #938B6C",
"#+	c #9C9061",
"$+	c #9E9260",
"%+	c #9F9260",
"&+	c #A09462",
"*+	c #A29864",
"=+	c #A39764",
"-+	c #A39865",
";+	c #9F9563",
">+	c #9D9462",
",+	c #9A9261",
"'+	c #988F5F",
")+	c #938B5A",
"!+	c #82817B",
"~+	c #7F7F82",
"{+	c #85847A",
"]+	c #948B6D",
"^+	c #9C9165",
"/+	c #A19460",
"(+	c #A19561",
"_+	c #9E915E",
":+	c #877C52",
"<+	c #8B8155",
"[+	c #A59A66",
"}+	c #A09663",
"|+	c #9D9463",
"1+	c #9D9461",
"2+	c #928C6C",
"3+	c #86847A",
"4+	c #928B6F",
"5+	c #9A906C",
"6+	c #7C7765",
"7+	c #333127",
"8+	c #443E26",
"9+	c #A79A65",
"0+	c #A89B66",
"a+	c #A59A65",
"b+	c #9E9467",
"c+	c #7F7F7F",
"d+	c #787878",
"e+	c #605F5A",
"f+	c #887C56",
"g+	c #A59662",
"h+	c #A2966A",
"i+	c #86857C",
"j+	c #818182",
"k+	c #83827C",
"                                                                ",
"                                                                ",
"                                                                ",
"                                                                ",
"                                                                ",
"                      . + @ # .                                 ",
"                . $ % & * = - ; > , '                           ",
"            . ) ! ~ { ] ^ / ( _ : < [ .                         ",
"        } | 1 2 3 4 ] ^ ( 5 6 7 8 9 0 a b c                     ",
"  # d e f g h i i ] ^ j k l 7 m n o p q r s t u . .             ",
"  v w x g y i ] ] ( z A B C D E F G H I J K L M N O . P         ",
"    } Q R S ] ] z z j T U V W X Y Z `  ...+.@.#.$.%.&.*.. P     ",
"      ' =.-.;.z z j >.,.'.).!.~.{.].^./.(._.:.<.[.$.}.|.1.2.3.  ",
"          $ 4.5.6.7.8.8.9.0.a.b.c.d.e.f.g.h.i.j.k.l.m.n.o.p.q.  ",
"            ' ' r.s.t.u.v.w.x.y.z.A.B.C.D.E.F.G.H.I.J.K.L.P     ",
"                    M.N.[.O.P.Q.R.S.T.U.V.W.X.Y.Z.`. +.+'       ",
"                      . ++@+#+$+%+&+*+=+-+;+>+W.,+'+)+!+        ",
"                          ~+{+]+^+/+(+_+:+<+[+}+|+1+2+c         ",
"                            . ' 3+4+5+6+7+8+9+0+a+b+u           ",
"                                  + c c+d+e+f+g+h+i+            ",
"                                          j+  k+P               ",
"                                                                ",
"                                                                ",
"                                                                "};
