/* XPM */
static char * plugin_xpm[] = {
"32 24 338 2",
"  	c #808080",
". 	c #808081",
"+ 	c #7F8183",
"@ 	c #867D6F",
"# 	c #917C59",
"$ 	c #837E78",
"% 	c #7F8083",
"& 	c #7E8185",
"* 	c #807C75",
"= 	c #996C1D",
"- 	c #AF6E02",
"; 	c #A57527",
"> 	c #877E71",
", 	c #7F8082",
"' 	c #83817E",
") 	c #85817D",
"! 	c #81807F",
"~ 	c #837F78",
"{ 	c #9B7A43",
"] 	c #847E74",
"^ 	c #808386",
"/ 	c #696152",
"( 	c #754B02",
"_ 	c #9B6302",
": 	c #AB6D03",
"< 	c #B1730D",
"[ 	c #8E7D63",
"} 	c #7E8082",
"| 	c #56769A",
"1 	c #4071A9",
"2 	c #787F85",
"3 	c #7F7E7B",
"4 	c #956C24",
"5 	c #AA6B00",
"6 	c #B37309",
"7 	c #8D7B60",
"8 	c #453B2C",
"9 	c #654102",
"0 	c #915F07",
"a 	c #996B19",
"b 	c #696E63",
"c 	c #276BB8",
"d 	c #286BB5",
"e 	c #266BB9",
"f 	c #2A6BB7",
"g 	c #6A7B8E",
"h 	c #77726A",
"i 	c #6B490E",
"j 	c #935E01",
"k 	c #A86B02",
"l 	c #B47104",
"m 	c #9C7B46",
"n 	c #7B828A",
"o 	c #3C4D5E",
"p 	c #385978",
"q 	c #2568B8",
"r 	c #2269BE",
"s 	c #3270AB",
"t 	c #58857C",
"u 	c #4B7E8E",
"v 	c #2A6DB6",
"w 	c #276BBA",
"x 	c #53769E",
"y 	c #7B7F84",
"z 	c #7D7D7D",
"A 	c #615B51",
"B 	c #533501",
"C 	c #8D5A02",
"D 	c #936B20",
"E 	c #666D68",
"F 	c #3A6EA9",
"G 	c #2A6DBA",
"H 	c #447B97",
"I 	c #447A94",
"J 	c #266ABA",
"K 	c #518186",
"L 	c #487C92",
"M 	c #72925F",
"N 	c #5D8878",
"O 	c #266BBC",
"P 	c #3D71AD",
"Q 	c #717D8A",
"R 	c #84817E",
"S 	c #6E6C69",
"T 	c #3E2E12",
"U 	c #235791",
"V 	c #296CB9",
"W 	c #276AB7",
"X 	c #286BB6",
"Y 	c #658B6B",
"Z 	c #538283",
"` 	c #2368BE",
" .	c #3874A6",
"..	c #A2AC25",
"+.	c #789658",
"@.	c #3975A6",
"#.	c #256ABF",
"$.	c #3A76A6",
"%.	c #256BBF",
"&.	c #2D6EB8",
"*.	c #607996",
"=.	c #84817D",
"-.	c #828181",
";.	c #666E76",
">.	c #09274A",
",.	c #1E538F",
"'.	c #2769B5",
").	c #276AB9",
"!.	c #3170AD",
"~.	c #709160",
"{.	c #74935C",
"].	c #91A339",
"^.	c #658C6E",
"/.	c #2A6DB8",
"(.	c #608977",
"_.	c #A3AD25",
":.	c #8EA23F",
"<.	c #568583",
"[.	c #2C6EB9",
"}.	c #296EBD",
"|.	c #54779F",
"1.	c #58626D",
"2.	c #092547",
"3.	c #0E2948",
"4.	c #1B4A81",
"5.	c #2768B3",
"6.	c #286CBC",
"7.	c #2268C0",
"8.	c #2B6DB5",
"9.	c #3A76A4",
"0.	c #668C6E",
"a.	c #859D4A",
"b.	c #678D6F",
"c.	c #276CBE",
"d.	c #719364",
"e.	c #6A906D",
"f.	c #276CC0",
"g.	c #2C6FBB",
"h.	c #667B93",
"i.	c #828281",
"j.	c #465464",
"k.	c #082547",
"l.	c #0F2B4B",
"m.	c #0E2949",
"n.	c #163D6B",
"o.	c #2563AA",
"p.	c #276BBB",
"q.	c #3D77A1",
"r.	c #94A536",
"s.	c #4F818C",
"t.	c #2068C7",
"u.	c #246BC1",
"v.	c #1F68C8",
"w.	c #4D8092",
"x.	c #AEB31B",
"y.	c #246BC4",
"z.	c #276EBF",
"A.	c #4B75A6",
"B.	c #737579",
"C.	c #1F3651",
"D.	c #0C2949",
"E.	c #0F2B4C",
"F.	c #0F2C4D",
"G.	c #12355D",
"H.	c #235FA4",
"I.	c #296DBB",
"J.	c #296CBA",
"K.	c #3574AC",
"L.	c #809B50",
"M.	c #799859",
"N.	c #5E897B",
"O.	c #879F49",
"P.	c #A3AE28",
"Q.	c #497F97",
"R.	c #296DBE",
"S.	c #286FBF",
"T.	c #4A75A7",
"U.	c #7D7F82",
"V.	c #818180",
"W.	c #75787B",
"X.	c #283E57",
"Y.	c #112E51",
"Z.	c #235B9D",
"`.	c #286CB9",
" +	c #296DBC",
".+	c #236AC3",
"++	c #3B77A6",
"@+	c #5A8781",
"#+	c #447C9D",
"$+	c #276CC1",
"%+	c #2A6FBD",
"&+	c #276CBC",
"*+	c #587494",
"=+	c #7F8080",
"-+	c #7A7B7D",
";+	c #374A5F",
">+	c #0D294B",
",+	c #0E2C4D",
"'+	c #0F2C4E",
")+	c #102D4E",
"!+	c #1A487E",
"~+	c #235FA3",
"{+	c #2768B2",
"]+	c #286DBE",
"^+	c #276DC4",
"/+	c #286EC2",
"(+	c #2A6FBF",
"_+	c #296DBA",
":+	c #2666B1",
"<+	c #617387",
"[+	c #82817F",
"}+	c #818181",
"|+	c #7E7F7F",
"1+	c #4F5B69",
"2+	c #0E2B4D",
"3+	c #113054",
"4+	c #13345A",
"5+	c #153A65",
"6+	c #19477C",
"7+	c #1F528E",
"8+	c #215A9B",
"9+	c #235EA3",
"0+	c #2764AB",
"a+	c #2868B4",
"b+	c #296BB9",
"c+	c #3A71AF",
"d+	c #6B7A89",
"e+	c #7F7F80",
"f+	c #5B6570",
"g+	c #143050",
"h+	c #103054",
"i+	c #13355E",
"j+	c #143964",
"k+	c #173F6E",
"l+	c #1A477C",
"m+	c #1C4D87",
"n+	c #1F5391",
"o+	c #1E528F",
"p+	c #225A9C",
"q+	c #2766AE",
"r+	c #2868B3",
"s+	c #2E70BB",
"t+	c #5A7593",
"u+	c #85817E",
"v+	c #848382",
"w+	c #666C74",
"x+	c #1F3B5B",
"y+	c #14365E",
"z+	c #174071",
"A+	c #1C4F88",
"B+	c #153C68",
"C+	c #184577",
"D+	c #205796",
"E+	c #2868B2",
"F+	c #296BB7",
"G+	c #2B70BF",
"H+	c #4D739F",
"I+	c #7C7F82",
"J+	c #848381",
"K+	c #7B7C7E",
"L+	c #4A5B6F",
"M+	c #2E4B6C",
"N+	c #234874",
"O+	c #1E4B7F",
"P+	c #1D4F89",
"Q+	c #225693",
"R+	c #234266",
"S+	c #142943",
"T+	c #143D6C",
"U+	c #1F5491",
"V+	c #2662A7",
"W+	c #2868B1",
"X+	c #286AB7",
"Y+	c #286EBF",
"Z+	c #4373AA",
"`+	c #707C88",
" @	c #838281",
".@	c #7B7D7F",
"+@	c #6C747E",
"@@	c #657180",
"#@	c #627283",
"$@	c #657485",
"%@	c #707A85",
"&@	c #636567",
"*@	c #1D2C3C",
"=@	c #0E335E",
"-@	c #1D508B",
";@	c #245FA3",
">@	c #2968B2",
",@	c #2A6BB6",
"'@	c #3772B5",
")@	c #5F7792",
"!@	c #818080",
"~@	c #767677",
"{@	c #2D3742",
"]@	c #0D2E53",
"^@	c #1B4B83",
"/@	c #235B9E",
"(@	c #2968B0",
"_@	c #296AB5",
":@	c #3072BE",
"<@	c #51759E",
"[@	c #7F7F7F",
"}@	c #7D7C7B",
"|@	c #353B43",
"1@	c #122E4F",
"2@	c #18467A",
"3@	c #215899",
"4@	c #2866AE",
"5@	c #2A6BB5",
"6@	c #296CB8",
"7@	c #2A70C2",
"8@	c #4773A5",
"9@	c #797E84",
"0@	c #46494D",
"a@	c #152B44",
"b@	c #133D6D",
"c@	c #1F5593",
"d@	c #2763AA",
"e@	c #2B6AB6",
"f@	c #2A6CB9",
"g@	c #2870C2",
"h@	c #3C72AF",
"i@	c #838382",
"j@	c #606264",
"k@	c #1E2D40",
"l@	c #103661",
"m@	c #1D508C",
"n@	c #2561A5",
"o@	c #2B6BB4",
"p@	c #2B6DB9",
"q@	c #727273",
"r@	c #27313E",
"s@	c #123358",
"t@	c #1B4B82",
"u@	c #235C9F",
"v@	c #2A69B2",
"w@	c #2C6DB9",
"                .                                               ",
"            + @ # $ %                                           ",
"    . & . . * = - ; > ,   ' ) !                                 ",
"  . ~ { ] ^ / ( _ : < [ } | 1 2 !                               ",
"  3 4 5 6 7 } 8 9 0 a b c d e f g                               ",
"  h i j k l m n o p q r s t u v w x y !                         ",
"  z A B C D E F G H I J K L M N O O P Q R                       ",
"    . S T U V W X Y Z `  ...+.@.#.$.%.&.*.=.                    ",
"      -.;.>.,.'.).!.~.{.].^./.(._.:.<.[.}.|.                    ",
"      -.1.2.3.4.5.6.7.8.9.0.a.b.c.c.d.e.f.g.h.                  ",
"      i.j.k.l.m.n.o.}.p.q.r.s.t.u.v.w.x.y.z.A.}                 ",
"        B.C.D.E.F.G.H.I.J.K.L.M.N.O.P.Q.R.S.T.U.                ",
"        V.W.X.E.F.E.Y.Z.`. +.+++@+#+$+R.%+&+*+=+                ",
"          i.-+;+>+,+'+)+!+~+{+]+^+/+(+_+I.:+<+[+                ",
"            }+|+1+F.2+3+4+5+6+7+8+9+~+0+a+b+c+d+R               ",
"                e+f+g+h+i+j+k+l+m+n+o+p+q+r+b+s+t+u+            ",
"                  v+w+x+y+j+z+!+A+,.B+C+D+0+E+F+G+H+I+          ",
"                    J+K+L+M+N+O+P+Q+R+S+T+U+V+W+X+Y+Z+`+'       ",
"                      V. @.@+@@@#@$@%@&@*@=@-@;@>@,@]+'@)@=.    ",
"                              !@!@!@  }+~@{@]@^@/@(@_@_+:@<@[@  ",
"                                          }@|@1@2@3@4@5@6@7@8@9@",
"                                          }+v+0@a@b@c@d@e@f@g@h@",
"                                              i@j@k@l@m@n@o@p@(+",
"                                                  q@r@s@t@u@v@w@"};
