/* XPM */
static char * prim_cylinder_xpm[] = {
"25 25 296 2",
"  	c #969696",
". 	c #969697",
"+ 	c #959698",
"@ 	c #97989A",
"# 	c #98999A",
"$ 	c #989898",
"% 	c #999896",
"& 	c #969799",
"* 	c #959798",
"= 	c #959697",
"- 	c #96999C",
"; 	c #9C968E",
"> 	c #9F8F7A",
", 	c #A28969",
"' 	c #A48660",
") 	c #A58358",
"! 	c #A78458",
"~ 	c #A48359",
"{ 	c #A48862",
"] 	c #A28A6C",
"^ 	c #9E8E78",
"/ 	c #9D968E",
"( 	c #96989B",
"_ 	c #9C9893",
": 	c #A58256",
"< 	c #A97534",
"[ 	c #AA6D1F",
"} 	c #AA650C",
"| 	c #A86104",
"1 	c #A96105",
"2 	c #A96308",
"3 	c #A96104",
"4 	c #AA6307",
"5 	c #AC6810",
"6 	c #AB6E1D",
"7 	c #AA7734",
"8 	c #A58253",
"9 	c #9D9589",
"0 	c #959799",
"a 	c #959696",
"b 	c #9B9B9B",
"c 	c #AB7734",
"d 	c #AA660E",
"e 	c #A96309",
"f 	c #A9630A",
"g 	c #A9640B",
"h 	c #AA640B",
"i 	c #AA650B",
"j 	c #AB650B",
"k 	c #AB650A",
"l 	c #AB640A",
"m 	c #AB6409",
"n 	c #AC680E",
"o 	c #AB7733",
"p 	c #9E9281",
"q 	c #9E8E7A",
"r 	c #AA660F",
"s 	c #AC650B",
"t 	c #AC660B",
"u 	c #AD660B",
"v 	c #AF6A10",
"w 	c #A58357",
"x 	c #959594",
"y 	c #999999",
"z 	c #74777A",
"A 	c #9C6521",
"B 	c #AD670B",
"C 	c #AE670B",
"D 	c #B2711C",
"E 	c #A88D6B",
"F 	c #949494",
"G 	c #757473",
"H 	c #4F422F",
"I 	c #79511B",
"J 	c #A66615",
"K 	c #AA6711",
"L 	c #AE6910",
"M 	c #AF670B",
"N 	c #AF670A",
"O 	c #AE660A",
"P 	c #B06B13",
"Q 	c #B36D13",
"R 	c #B5731E",
"S 	c #B07628",
"T 	c #A48C6D",
"U 	c #95979A",
"V 	c #767575",
"W 	c #473620",
"X 	c #352003",
"Y 	c #785931",
"Z 	c #7F5218",
"` 	c #986524",
" .	c #A66A1D",
"..	c #A7691A",
"+.	c #A96C1C",
"@.	c #B67622",
"#.	c #B6731C",
"$.	c #B87A28",
"%.	c #BC7A23",
"&.	c #BF7B22",
"*.	c #C28536",
"=.	c #A86712",
"-.	c #A38B6C",
";.	c #757575",
">.	c #483721",
",.	c #3A2304",
"'.	c #69491D",
").	c #603804",
"!.	c #7A531F",
"~.	c #916020",
"{.	c #925F1C",
"].	c #97631F",
"^.	c #BD8234",
"/.	c #BA771D",
"(.	c #BC7F2C",
"_.	c #BF7617",
":.	c #BE7412",
"<.	c #BD7C29",
"[.	c #A76917",
"}.	c #A28C70",
"|.	c #483821",
"1.	c #6B4A1E",
"2.	c #623A06",
"3.	c #7B531E",
"4.	c #8E5A16",
"5.	c #8E5812",
"6.	c #925B14",
"7.	c #BA7C2A",
"8.	c #B87012",
"9.	c #BB7C29",
"0.	c #BE7618",
"a.	c #BE7413",
"b.	c #BD7D29",
"c.	c #A76B1A",
"d.	c #A39076",
"e.	c #463721",
"f.	c #3A2204",
"g.	c #6B491E",
"h.	c #7B531F",
"i.	c #8D5A16",
"j.	c #915B15",
"k.	c #BA7C2B",
"l.	c #B77113",
"m.	c #BB7B29",
"n.	c #BD7413",
"o.	c #BC7D29",
"p.	c #A66A1A",
"q.	c #A18F77",
"r.	c #423321",
"s.	c #6A491E",
"t.	c #613A06",
"u.	c #8D5812",
"v.	c #B97C2B",
"w.	c #B66F13",
"x.	c #BA7B29",
"y.	c #BD7518",
"z.	c #BD7313",
"A.	c #BA7B28",
"B.	c #A66A1B",
"C.	c #A18F79",
"D.	c #787978",
"E.	c #423422",
"F.	c #392204",
"G.	c #613906",
"H.	c #7A521F",
"I.	c #8C5915",
"J.	c #8D5711",
"K.	c #905A14",
"L.	c #B56F13",
"M.	c #B97B29",
"N.	c #BC7313",
"O.	c #B87928",
"P.	c #A66C20",
"Q.	c #A19481",
"R.	c #848585",
"S.	c #69491E",
"T.	c #603906",
"U.	c #8B5815",
"V.	c #8C5711",
"W.	c #8F5A14",
"X.	c #B77B2B",
"Y.	c #B46E13",
"Z.	c #B87A29",
"`.	c #BC7418",
" +	c #BC7213",
".+	c #B77A28",
"++	c #A56C1F",
"@+	c #A19280",
"#+	c #858586",
"$+	c #79521F",
"%+	c #8B5611",
"&+	c #8F5914",
"*+	c #B46F13",
"=+	c #BB7417",
"-+	c #BA7212",
";+	c #B67927",
">+	c #A46C22",
",+	c #9F9485",
"'+	c #68491E",
")+	c #5F3806",
"!+	c #79511F",
"~+	c #8A5815",
"{+	c #B26D12",
"]+	c #BA7416",
"^+	c #BA7112",
"/+	c #B47726",
"(+	c #A56D25",
"_+	c #A0978B",
":+	c #67481E",
"<+	c #78511F",
"[+	c #8A5715",
"}+	c #8A5511",
"|+	c #8E5814",
"1+	c #B16D12",
"2+	c #BA7417",
"3+	c #B97112",
"4+	c #B47727",
"5+	c #A46D25",
"6+	c #A0968A",
"7+	c #89898A",
"8+	c #443725",
"9+	c #382104",
"0+	c #5E3806",
"a+	c #895715",
"b+	c #895511",
"c+	c #8E5813",
"d+	c #B97B2A",
"e+	c #B16C12",
"f+	c #B77928",
"g+	c #B97317",
"h+	c #B37727",
"i+	c #A36D26",
"j+	c #9E968C",
"k+	c #9A9B9B",
"l+	c #463927",
"m+	c #67481F",
"n+	c #5D3706",
"o+	c #77511E",
"p+	c #8E5B17",
"q+	c #B77926",
"r+	c #B06C12",
"s+	c #B67928",
"t+	c #B97316",
"u+	c #B17526",
"v+	c #A4702C",
"w+	c #A09E9C",
"x+	c #9C9D9E",
"y+	c #6D6458",
"z+	c #341C00",
"A+	c #66461D",
"B+	c #77501E",
"C+	c #885614",
"D+	c #88540F",
"E+	c #946426",
"F+	c #B06E17",
"G+	c #B06D13",
"H+	c #B57927",
"I+	c #B87316",
"J+	c #B87011",
"K+	c #B07325",
"L+	c #A27841",
"M+	c #9A9A9B",
"N+	c #939290",
"O+	c #726759",
"P+	c #684920",
"Q+	c #583100",
"R+	c #744D1A",
"S+	c #875513",
"T+	c #87540F",
"U+	c #95662A",
"V+	c #AD6B13",
"W+	c #AF6C13",
"X+	c #B57725",
"Y+	c #B87010",
"Z+	c #BA6F0C",
"`+	c #B08C5D",
" @	c #999289",
".@	c #969798",
"+@	c #969695",
"@@	c #948F89",
"#@	c #867763",
"$@	c #896B45",
"%@	c #8A5B1D",
"&@	c #854E07",
"*@	c #936323",
"=@	c #B26E15",
"-@	c #B8833E",
";@	c #B18B58",
">@	c #A29686",
",@	c #999693",
"'@	c #959595",
")@	c #9C9C9B",
"!@	c #9F9F9F",
"~@	c #A09B94",
"{@	c #A19B94",
"]@	c #9B9C9C",
"                                                  ",
"              . + @ # $ % $ # & * .               ",
"          = - ; > , ' ) ! ~ { ] ^ / ( +           ",
"        = _ : < [ } | 1 2 3 4 5 6 7 8 9 0         ",
"      a b c d e f g h i i j j k l m n o p *       ",
"      0 q r i i j j j j j s t t t t u v w x       ",
"      y z A } s t t t t u u u u B B C D E F       ",
"      y G H I J K L M N N O C v P Q R S T U       ",
"      y V W X Y Z `  ...+.@.#.$.%.&.*.=.-.0       ",
"      y ;.>.,.'.).!.~.{.].^./.(._.:.<.[.}.0       ",
"      y ;.|.,.1.2.3.4.5.6.7.8.9.0.a.b.c.d.0       ",
"      y ;.e.f.g.2.h.i.5.j.k.l.m.0.n.o.p.q.0       ",
"      y ;.r.f.s.t.h.i.u.j.v.w.x.y.z.A.B.C.0       ",
"      y D.E.F.s.G.H.I.J.K.v.L.M.y.N.O.P.Q.+       ",
"      $ R.E.F.S.T.H.U.V.W.X.Y.Z.`. +.+++@++       ",
"      $ #+E.F.S.T.$+U.%+&+X.*+$.=+-+;+>+,++       ",
"      $ #+E.F.'+)+!+~+%+&+7.{+$.]+^+/+(+_+=       ",
"      $ #+E.F.:+)+<+[+}+|+7.1+.+2+3+4+5+6+=       ",
"      $ 7+8+9+:+0+<+a+b+c+d+e+f+g+3+h+i+j+=       ",
"        k+l+9+m+n+o+a+b+p+q+r+s+t+8.u+v+w+a       ",
"        x+y+z+A+n+B+C+D+E+F+G+H+I+J+K+L+M+        ",
"          N+O+P+Q+R+S+T+U+V+W+X+Y+Z+`+ @.@        ",
"            +@@@#@$@%@&@*@C =@-@;@>@,@.           ",
"                  '@)@!@~@{@]@                    ",
"                      '@a a                       "};
