/* XPM */
static char * prim_cone_sphere_xpm[] = {
"25 25 235 2",
"  	c #808080",
". 	c #81766F",
"+ 	c #817C78",
"@ 	c #808181",
"# 	c #818384",
"$ 	c #776B63",
"% 	c #836048",
"& 	c #8E6950",
"* 	c #807A76",
"= 	c #808182",
"- 	c #818283",
"; 	c #72645B",
"> 	c #785842",
", 	c #876249",
"' 	c #93684B",
") 	c #8E674B",
"! 	c #807874",
"~ 	c #7F7E7D",
"{ 	c #6F6057",
"] 	c #735540",
"^ 	c #805E46",
"/ 	c #87634A",
"( 	c #91684B",
"_ 	c #94684B",
": 	c #8B664D",
"< 	c #807771",
"[ 	c #808081",
"} 	c #818181",
"| 	c #7E7D7C",
"1 	c #6B5B51",
"2 	c #6E513E",
"3 	c #7A5842",
"4 	c #815D45",
"5 	c #856147",
"6 	c #8D6549",
"7 	c #916649",
"8 	c #916548",
"9 	c #89634A",
"0 	c #80746D",
"a 	c #808283",
"b 	c #7B7B7A",
"c 	c #665346",
"d 	c #745A48",
"e 	c #856752",
"f 	c #91705A",
"g 	c #9A7862",
"h 	c #A07D64",
"i 	c #A88066",
"j 	c #A97F63",
"k 	c #A67A5D",
"l 	c #9C7053",
"m 	c #886148",
"n 	c #7D6F65",
"o 	c #7C7A79",
"p 	c #736458",
"q 	c #887263",
"r 	c #937967",
"s 	c #9A7C69",
"t 	c #A1816C",
"u 	c #A5856F",
"v 	c #AC8972",
"w 	c #B38E73",
"x 	c #BA9175",
"y 	c #BE9275",
"z 	c #C09376",
"A 	c #BE9276",
"B 	c #A67E64",
"C 	c #87796F",
"D 	c #807E7D",
"E 	c #7E6F66",
"F 	c #877263",
"G 	c #8F7766",
"H 	c #967A68",
"I 	c #9C7F6A",
"J 	c #A2836D",
"K 	c #A6866F",
"L 	c #AD8A72",
"M 	c #B38E74",
"N 	c #B89074",
"O 	c #BB9175",
"P 	c #BF9375",
"Q 	c #B68D72",
"R 	c #8F827B",
"S 	c #7A7776",
"T 	c #7A675A",
"U 	c #8E7666",
"V 	c #947967",
"W 	c #9A7D69",
"X 	c #9F816C",
"Y 	c #A3836E",
"Z 	c #A78770",
"` 	c #AE8B73",
" .	c #B89075",
"..	c #BF9376",
"+.	c #C09173",
"@.	c #A18A7B",
"#.	c #6C6C6C",
"$.	c #413B37",
"%.	c #897263",
"&.	c #987C68",
"*.	c #9D7E6A",
"=.	c #A1826C",
"-.	c #AA8871",
";.	c #B08C73",
">.	c #B48E74",
",.	c #B69075",
"'.	c #BC9275",
").	c #C09275",
"!.	c #C19F88",
"~.	c #9E9895",
"{.	c #6D6D6D",
"].	c #2B2B2B",
"^.	c #4A4A4C",
"/.	c #706862",
"(.	c #8B786C",
"_.	c #9A8070",
":.	c #A18672",
"<.	c #A88A75",
"[.	c #AE8E78",
"}.	c #B3917B",
"|.	c #B6947C",
"1.	c #BA977F",
"2.	c #BD9C85",
"3.	c #C0A796",
"4.	c #C3B7B0",
"5.	c #C2C2C2",
"6.	c #9C9998",
"7.	c #2C2C2C",
"8.	c #4B4C4C",
"9.	c #5F6060",
"0.	c #6C6D6E",
"a.	c #777879",
"b.	c #848381",
"c.	c #94918E",
"d.	c #A29D9A",
"e.	c #ADA9A5",
"f.	c #B6B2AE",
"g.	c #BDBCBB",
"h.	c #C2C4C5",
"i.	c #C3C5C6",
"j.	c #C3C3C4",
"k.	c #C1BFBE",
"l.	c #989695",
"m.	c #4C4C4C",
"n.	c #606060",
"o.	c #6E6E6E",
"p.	c #787878",
"q.	c #828283",
"r.	c #929292",
"s.	c #A0A0A1",
"t.	c #ABACAC",
"u.	c #B5B6B6",
"v.	c #BEBEBE",
"w.	c #C1C1C2",
"x.	c #C3C2C1",
"y.	c #C1BEBD",
"z.	c #979494",
"A.	c #2E2E2E",
"B.	c #4B4B4B",
"C.	c #5F5F5F",
"D.	c #A0A0A0",
"E.	c #ABABAB",
"F.	c #B5B5B5",
"G.	c #C1C1C1",
"H.	c #C2C1C1",
"I.	c #C0BDBB",
"J.	c #939290",
"K.	c #2D2D2D",
"L.	c #4A4A4A",
"M.	c #BDBDBD",
"N.	c #C2C1C0",
"O.	c #BFBCBA",
"P.	c #918F8F",
"Q.	c #707070",
"R.	c #313131",
"S.	c #777777",
"T.	c #919191",
"U.	c #9F9F9F",
"V.	c #C0C0C0",
"W.	c #C1C0C0",
"X.	c #BEBBBA",
"Y.	c #8F8E8D",
"Z.	c #7E7E7E",
"`.	c #535353",
" +	c #5E5E5E",
".+	c #AAAAAA",
"++	c #B4B4B4",
"@+	c #B5B3B1",
"#+	c #878686",
"$+	c #65625F",
"%+	c #5F5D5C",
"&+	c #6C6A69",
"*+	c #777776",
"=+	c #919192",
"-+	c #BCBCBC",
";+	c #BCBCBB",
">+	c #B8B6B5",
",+	c #AAA8A6",
"'+	c #888888",
")+	c #7F7F7F",
"!+	c #828383",
"~+	c #746D68",
"{+	c #6A5A50",
"]+	c #705F54",
"^+	c #7A6C63",
"/+	c #847971",
"(+	c #8D847D",
"_+	c #918882",
":+	c #948A84",
"<+	c #8C827A",
"[+	c #7E736B",
"}+	c #78716C",
"|+	c #797877",
"1+	c #7F8080",
"2+	c #7B7774",
"3+	c #6B574A",
"4+	c #6E523F",
"5+	c #715542",
"6+	c #6D5443",
"7+	c #675040",
"8+	c #5F4A3B",
"9+	c #59483D",
"0+	c #726C69",
"a+	c #7F7F80",
"b+	c #6E5C51",
"c+	c #6F5341",
"d+	c #6B5341",
"e+	c #614C3C",
"f+	c #5F5045",
"g+	c #7B7A7A",
"h+	c #828284",
"i+	c #746961",
"j+	c #6B5446",
"k+	c #6A5F57",
"l+	c #7C7976",
"                                                  ",
"                        . + @                     ",
"                    # $ % & * =                   ",
"                  - ; > , ' ) ! @                 ",
"                ~ { ] ^ / ( _ : < [               ",
"            } | 1 2 3 4 5 6 7 8 9 0 a             ",
"          } b c d e f g h i j k l m n a           ",
"          o p q r s t u v w x y z A B C           ",
"        D E F G H I J K L M N O y P P Q R         ",
"        S T U V W X Y Z ` M  .O y ..z +.@.        ",
"        #.$.%.&.*.=.u -.;.>.,.x '.P ).!.~.        ",
"        {.].^./.(._.:.<.[.}.|.1.2.3.4.5.6.        ",
"        {.7.8.9.0.a.b.c.d.e.f.g.h.i.j.k.l.        ",
"        {.7.m.n.o.p.q.r.s.t.u.v.w.5.x.y.z.        ",
"        o.A.B.C.o.p.} r.D.E.F.v.G.5.H.I.J.        ",
"        o.K.L.C.o.p.} r.D.E.F.M.G.G.N.O.P.        ",
"        Q.R.L.C.{.S.} T.U.E.F.M.V.G.W.X.Y.        ",
"        Z.`.L. +{.S.  T.U..+++M.G.V.H.@+#+        ",
"          } $+%+&+*+} =+D.E.u.-+;+>+,+'+)+        ",
"            !+~+{+]+^+/+(+_+:+<+[+}+|+1+          ",
"              @ 2+3+4+5+6+7+8+9+0+)+              ",
"                  a+b+c+d+e+f+g+}                 ",
"                    h+i+j+k+} }                   ",
"                      [ l+                        ",
"                                                  "};
