/* XPM */
static char * prim_torus_angle_xpm[] = {
"25 25 252 2",
"  	c #808080",
". 	c #808181",
"+ 	c #7F8285",
"@ 	c #7E8388",
"# 	c #827D78",
"$ 	c #84786C",
"% 	c #867768",
"& 	c #837C74",
"* 	c #7E8286",
"= 	c #7F8183",
"- 	c #808081",
"; 	c #857666",
"> 	c #8A6C4D",
", 	c #915C27",
"' 	c #974D03",
") 	c #9D4B00",
"! 	c #A14F00",
"~ 	c #A35100",
"{ 	c #A04F00",
"] 	c #A04D00",
"^ 	c #9F4E00",
"/ 	c #9A5917",
"( 	c #91663C",
"_ 	c #89735D",
": 	c #847B72",
"< 	c #7F8182",
"[ 	c #808182",
"} 	c #84796F",
"| 	c #945515",
"1 	c #984F04",
"2 	c #964C01",
"3 	c #AE5A04",
"4 	c #DC750B",
"5 	c #EB800F",
"6 	c #DF7C10",
"7 	c #D87811",
"8 	c #CC7211",
"9 	c #BA670F",
"0 	c #A75B0A",
"a 	c #9A5205",
"b 	c #924C03",
"c 	c #9E5003",
"d 	c #A15203",
"e 	c #9F5407",
"f 	c #966331",
"g 	c #817F7D",
"h 	c #867461",
"i 	c #994B00",
"j 	c #984E01",
"k 	c #9B4F02",
"l 	c #D87108",
"m 	c #FF8A0F",
"n 	c #FB880F",
"o 	c #F1830F",
"p 	c #E47E11",
"q 	c #DA7912",
"r 	c #CE7312",
"s 	c #BB680F",
"t 	c #A65A0A",
"u 	c #975005",
"v 	c #864602",
"w 	c #703A01",
"x 	c #753C02",
"y 	c #A35304",
"z 	c #A25202",
"A 	c #A0550A",
"B 	c #847C74",
"C 	c #808284",
"D 	c #8B5316",
"E 	c #984E02",
"F 	c #A85503",
"G 	c #EA7A08",
"H 	c #FA840D",
"I 	c #FA870F",
"J 	c #F0820F",
"K 	c #E27D11",
"L 	c #D57712",
"M 	c #C06B10",
"N 	c #B4640F",
"O 	c #A05709",
"P 	c #924E04",
"Q 	c #814401",
"R 	c #693701",
"S 	c #4A2600",
"T 	c #6B3702",
"U 	c #A25404",
"V 	c #A25304",
"W 	c #A05509",
"X 	c #7A8482",
"Y 	c #818181",
"Z 	c #636A65",
"` 	c #483C00",
" .	c #9B4E02",
"..	c #994F02",
"+.	c #9C5002",
"@.	c #D56D05",
"#.	c #E47F16",
"$.	c #906538",
"%.	c #7A6752",
"&.	c #635E58",
"*.	c #5D5E5E",
"=.	c #5C5E60",
"-.	c #59595A",
";.	c #5C5854",
">.	c #605244",
",.	c #563C1F",
"'.	c #5C2F00",
").	c #402100",
"!.	c #8D4904",
"~.	c #A15304",
"{.	c #A45204",
"].	c #876804",
"^.	c #579561",
"/.	c #838283",
"(.	c #1E3C1F",
"_.	c #064A03",
":.	c #715403",
"<.	c #9B4F03",
"[.	c #9A4D00",
"}.	c #8C6843",
"|.	c #857C73",
"1.	c #827E79",
"2.	c #807F7E",
"3.	c #80807F",
"4.	c #82807E",
"5.	c #86807A",
"6.	c #897460",
"7.	c #9A4F02",
"8.	c #A45104",
"9.	c #926406",
"0.	c #1ECB11",
"a.	c #3AA63F",
"b.	c #818081",
"c.	c #828182",
"d.	c #123F14",
"e.	c #015405",
"f.	c #016706",
"g.	c #276D06",
"h.	c #745D04",
"i.	c #A14D03",
"j.	c #A14D01",
"k.	c #9C5003",
"l.	c #9A550F",
"m.	c #995816",
"n.	c #985919",
"o.	c #975C20",
"p.	c #985B1C",
"q.	c #9A5918",
"r.	c #9B5814",
"s.	c #9F5409",
"t.	c #A25102",
"u.	c #A84C03",
"v.	c #9D5704",
"w.	c #5D9C0E",
"x.	c #15E216",
"y.	c #0BE114",
"z.	c #2EB433",
"A.	c #817F81",
"B.	c #4D694E",
"C.	c #005800",
"D.	c #026C06",
"E.	c #027B07",
"F.	c #008808",
"G.	c #048F0A",
"H.	c #388109",
"I.	c #6A6C07",
"J.	c #776907",
"K.	c #7E6807",
"L.	c #866507",
"M.	c #8C6206",
"N.	c #8C6407",
"O.	c #856C08",
"P.	c #7F730A",
"Q.	c #797A0A",
"R.	c #65900D",
"S.	c #2EC815",
"T.	c #07F41B",
"U.	c #0CEF19",
"V.	c #10E918",
"W.	c #0CE413",
"X.	c #41B044",
"Y.	c #477248",
"Z.	c #007005",
"`.	c #037D08",
" +	c #038808",
".+	c #05910A",
"++	c #069B0D",
"@+	c #08A410",
"#+	c #0CAB13",
"$+	c #11B716",
"%+	c #14C318",
"&+	c #16CC1A",
"*+	c #17D31A",
"=+	c #15DA1B",
"-+	c #14E01B",
";+	c #12E21A",
">+	c #11E419",
",+	c #10E519",
"'+	c #10EA18",
")+	c #0EEC16",
"!+	c #27CE2E",
"~+	c #7F817F",
"{+	c #858185",
"]+	c #637D64",
"^+	c #247F27",
"/+	c #028708",
"(+	c #009507",
"_+	c #069D0C",
":+	c #0AA410",
"<+	c #0CAD13",
"[+	c #0FB916",
"}+	c #11C619",
"|+	c #12CE1A",
"1+	c #13D61B",
"2+	c #13DC1B",
"3+	c #12E01B",
"4+	c #11E319",
"5+	c #0EE617",
"6+	c #0BED13",
"7+	c #1FDC26",
"8+	c #48B54C",
"9+	c #847D83",
"0+	c #807E7F",
"a+	c #4B7B4E",
"b+	c #168D1B",
"c+	c #0CA212",
"d+	c #0DAA13",
"e+	c #0FB616",
"f+	c #10C218",
"g+	c #12CC19",
"h+	c #13D31A",
"i+	c #13D81A",
"j+	c #13DC1A",
"k+	c #13DD1B",
"l+	c #15DF1C",
"m+	c #39C03E",
"n+	c #728D73",
"o+	c #827E82",
"p+	c #828082",
"q+	c #837F83",
"r+	c #717571",
"s+	c #606C60",
"t+	c #5B705B",
"u+	c #527152",
"v+	c #487246",
"w+	c #4E784C",
"x+	c #5B7A58",
"y+	c #63775F",
"z+	c #6C7668",
"A+	c #7E7E7D",
"B+	c #837D83",
"C+	c #828282",
"                                                  ",
"                                                  ",
"                                                  ",
"                                                  ",
"                                                  ",
"                                                  ",
"            . + @ + # $ % &   @ * =               ",
"      -   ; > , ' ) ! ~ ~ { ] ^ / ( _ : <         ",
"    [ } | 1 2 3 4 5 6 7 8 9 0 a b c d e f g       ",
"    h i j k l m n o p q r s t u v w x y z A B -   ",
"  C D E E F G H I J K L M N O P Q R S T U V W X   ",
"Y Z `  ...+.@.#.$.%.&.*.=.-.;.>.,.'.).!.~.{.].^.  ",
"/.(._.:...<.[.}.|.1.2.  [ . 3.4.5.6.7.V 8.9.0.a.b.",
"c.d.e.f.g.h.i.j.k.l.m.n.o.p.q.r.s.t.u.v.w.x.y.z.A.",
"c.B.C.D.E.F.G.H.I.J.K.L.M.N.O.P.Q.R.S.T.U.V.W.X.  ",
"    Y.Z.`. +.+++@+#+$+%+&+*+=+-+;+>+,+V.'+)+!+~+  ",
"    {+]+^+/+(+_+:+<+[+}+|+1+2+3+;+4+5+6+7+8+9+    ",
"        b.0+a+b+c+d+e+f+g+h+i+j+k+l+m+n+o+        ",
"            p+q+r+s+t+u+v+w+x+y+z+A+B+A.          ",
"                      Y C+Y                       ",
"                                                  ",
"                                                  ",
"                                                  ",
"                                                  ",
"                                                  "};
