/* XPM */
static char * prim_cone_xpm[] = {
"25 25 236 2",
"  	c #969696",
". 	c #999A9A",
"+ 	c #A29F9C",
"@ 	c #9A9896",
"# 	c #959696",
"$ 	c #A8A5A1",
"% 	c #D0BCA2",
"& 	c #AAA195",
"* 	c #959596",
"= 	c #989797",
"- 	c #B9A58B",
"; 	c #E5B16D",
"> 	c #C6A982",
", 	c #999896",
"' 	c #979797",
") 	c #A39D94",
"! 	c #C6995D",
"~ 	c #E5A44C",
"{ 	c #E7AB5C",
"] 	c #A99C8B",
"^ 	c #979695",
"/ 	c #B09470",
"( 	c #CA8D3B",
"_ 	c #E6A247",
": 	c #F0A642",
"< 	c #CAA26E",
"[ 	c #989794",
"} 	c #A39B90",
"| 	c #AD7935",
"1 	c #D09342",
"2 	c #E69C3B",
"3 	c #F1A136",
"4 	c #E8A44B",
"5 	c #A99C8A",
"6 	c #989897",
"7 	c #9D7D51",
"8 	c #B77D32",
"9 	c #D38F35",
"0 	c #E59B3A",
"a 	c #F1A33A",
"b 	c #EE9A2D",
"c 	c #CD9D5C",
"d 	c #969797",
"e 	c #9C9080",
"f 	c #9D6A25",
"g 	c #BE812F",
"h 	c #D49036",
"i 	c #E49A3A",
"j 	c #F39E2E",
"k 	c #F19E31",
"l 	c #E39938",
"m 	c #AC9578",
"n 	c #959697",
"o 	c #969697",
"p 	c #979694",
"q 	c #8B6737",
"r 	c #A56D22",
"s 	c #C4822B",
"t 	c #D59339",
"u 	c #E3942C",
"v 	c #F19F32",
"w 	c #F2A237",
"x 	c #E8962B",
"y 	c #D1964A",
"z 	c #989692",
"A 	c #97989A",
"B 	c #89765D",
"C 	c #926325",
"D 	c #AB7429",
"E 	c #C27B1E",
"F 	c #D79339",
"G 	c #E3942D",
"H 	c #EF9E32",
"I 	c #F3A43C",
"J 	c #EE9726",
"K 	c #DD902B",
"L 	c #B3956F",
"M 	c #939699",
"N 	c #979899",
"O 	c #918C85",
"P 	c #7D592A",
"Q 	c #966017",
"R 	c #B57C30",
"S 	c #C28028",
"T 	c #D88F2F",
"U 	c #E3952E",
"V 	c #EE9D33",
"W 	c #F5A133",
"X 	c #EF9725",
"Y 	c #E4942E",
"Z 	c #CF903F",
"` 	c #9B958C",
" .	c #959698",
"..	c #796245",
"+.	c #885E27",
"@.	c #99641E",
"#.	c #B87722",
"$.	c #C4842F",
"%.	c #D78C29",
"&.	c #E29530",
"*.	c #EC9D34",
"=.	c #F79D26",
"-.	c #F09E34",
";.	c #EB9729",
">.	c #D88922",
",.	c #B89364",
"'.	c #93969B",
").	c #999A9B",
"!.	c #867D73",
"~.	c #705127",
"{.	c #8B5814",
"].	c #A3702B",
"^.	c #B57118",
"/.	c #C78631",
"(.	c #D58A29",
"_.	c #EB9C35",
":.	c #F69D27",
"<.	c #F3A338",
"[.	c #EC911A",
"}.	c #DF912B",
"|.	c #CC8C3B",
"1.	c #A09382",
"2.	c #949699",
"3.	c #735D41",
"4.	c #7D5623",
"5.	c #87530B",
"6.	c #AF772F",
"7.	c #B37019",
"8.	c #CB8933",
"9.	c #D28929",
"0.	c #E99B35",
"a.	c #F59C28",
"b.	c #F7A233",
"c.	c #EC9420",
"d.	c #E79830",
"e.	c #D48218",
"f.	c #B78F5C",
"g.	c #95979A",
"h.	c #98989A",
"i.	c #867E73",
"j.	c #674B25",
"k.	c #815214",
"l.	c #906122",
"m.	c #AD6D19",
"n.	c #B17019",
"o.	c #CD8C34",
"p.	c #D18929",
"q.	c #E39630",
"r.	c #E99A33",
"s.	c #F39D2B",
"t.	c #F89C22",
"u.	c #ED9D34",
"v.	c #EB9018",
"w.	c #DB8F2C",
"x.	c #CA8A39",
"y.	c #A4937E",
"z.	c #959699",
"A.	c #9A9B9D",
"B.	c #80715F",
"C.	c #745123",
"D.	c #7F4E0C",
"E.	c #9C6A28",
"F.	c #AB6B16",
"G.	c #B3792B",
"H.	c #CC8423",
"I.	c #CF882A",
"J.	c #E39631",
"K.	c #EB9422",
"L.	c #F1A139",
"M.	c #F79D25",
"N.	c #F0A037",
"O.	c #EB9019",
"P.	c #E3932B",
"Q.	c #D08626",
"R.	c #AC987E",
"S.	c #969798",
"T.	c #908C86",
"U.	c #866639",
"V.	c #7E4D0D",
"W.	c #A56F28",
"X.	c #A96915",
"Y.	c #B77D31",
"Z.	c #CA811E",
"`.	c #CE872A",
" +	c #EB9523",
".+	c #EFA138",
"++	c #F79C24",
"@+	c #F4A338",
"#+	c #EB911A",
"$+	c #E99221",
"%+	c #CB8F43",
"&+	c #A1988C",
"*+	c #9A9C9E",
"=+	c #968A7B",
"-+	c #907046",
";+	c #A76E24",
">+	c #A66611",
",+	c #BC8030",
"'+	c #C87E1C",
")+	c #CD8628",
"!+	c #EC9522",
"~+	c #EF9F37",
"{+	c #FA9E24",
"]+	c #EB9C36",
"^+	c #D59643",
"/+	c #AD9F8B",
"(+	c #939598",
"_+	c #969695",
":+	c #96989A",
"<+	c #9D9A96",
"[+	c #A08A6D",
"}+	c #A37F50",
"|+	c #BA8C51",
"1+	c #C28637",
"2+	c #CB8D3A",
"3+	c #E49C3C",
"4+	c #E79A35",
"5+	c #E5A24A",
"6+	c #E3A046",
"7+	c #D69E53",
"8+	c #BE9F78",
"9+	c #9E9A94",
"0+	c #929599",
"a+	c #95989B",
"b+	c #9A9B9C",
"c+	c #A0988E",
"d+	c #A39582",
"e+	c #A8967E",
"f+	c #B19A7C",
"g+	c #B09A7D",
"h+	c #AE9C85",
"i+	c #A79B8B",
"j+	c #9B9A99",
"k+	c #92959A",
"l+	c #949698",
"m+	c #949697",
"                                                  ",
"                                                  ",
"                      . + @                       ",
"                    # $ % & *                     ",
"                    = - ; > ,                     ",
"                  ' ) ! ~ { ]                     ",
"                  ^ / ( _ : < [                   ",
"                  } | 1 2 3 4 5                   ",
"                6 7 8 9 0 a b c ^                 ",
"              d e f g h i j k l m n               ",
"            o p q r s t u v w x y z o             ",
"            A B C D E F G H I J K L M             ",
"          N O P Q R S T U V W X Y Z `  .          ",
"          N ..+.@.#.$.%.&.*.=.-.;.>.,.'.          ",
"        ).!.~.{.].^./.(.&._.:.<.[.}.|.1.2.        ",
"      o ' 3.4.5.6.7.8.9.&.0.a.b.c.d.e.f.g.        ",
"      h.i.j.k.l.m.n.o.p.q.r.s.t.u.v.w.x.y.z.      ",
"      A.B.C.D.E.F.G.H.I.J.K.L.M.N.O.P.Q.R.2.      ",
"      S.T.U.V.W.X.Y.Z.`.J. +.+++@+#+$+%+&+n       ",
"        *+=+-+;+>+,+'+)+q.!+~+t.{+]+^+/+(+        ",
"        _+:+<+[+}+|+1+2+3+4+5+6+7+8+9+0+          ",
"            n a+b+c+d+e+f+g+h+i+j+k+n             ",
"                  n  . .l+l+l+m+#                 ",
"                                                  ",
"                                                  "};
