/* XPM */
static char * cone_width_xpm[] = {
"25 25 328 2",
"  	c #808080",
". 	c #7F8181",
"+ 	c #7E8182",
"@ 	c #7E8283",
"# 	c #827D7C",
"$ 	c #827B79",
"% 	c #817C7A",
"& 	c #807E7D",
"* 	c #808182",
"= 	c #808383",
"- 	c #818282",
"; 	c #817F7F",
"> 	c #8C766F",
", 	c #966D5F",
"' 	c #9B6553",
") 	c #996350",
"! 	c #946150",
"~ 	c #8F6050",
"{ 	c #885D4F",
"] 	c #825A4D",
"^ 	c #7D594D",
"/ 	c #7A5D54",
"( 	c #796863",
"_ 	c #7D7977",
": 	c #807F7F",
"< 	c #927166",
"[ 	c #A16754",
"} 	c #A16551",
"| 	c #9E6451",
"1 	c #997163",
"2 	c #957B72",
"3 	c #938079",
"4 	c #92837E",
"5 	c #90817C",
"6 	c #8D7B75",
"7 	c #877169",
"8 	c #7A5B50",
"9 	c #73554B",
"0 	c #6A5149",
"a 	c #695B56",
"b 	c #777575",
"c 	c #7F8182",
"d 	c #8C7067",
"e 	c #A06551",
"f 	c #A16653",
"g 	c #A06652",
"h 	c #9A776D",
"i 	c #92908D",
"j 	c #93908F",
"k 	c #93918F",
"l 	c #949190",
"m 	c #959290",
"n 	c #928B89",
"o 	c #715348",
"p 	c #6C544C",
"q 	c #61514B",
"r 	c #575351",
"s 	c #828282",
"t 	c #808283",
"u 	c #795E56",
"v 	c #9E6350",
"w 	c #A26754",
"x 	c #A16753",
"y 	c #62463C",
"z 	c #767473",
"A 	c #8C8A89",
"B 	c #928F8E",
"C 	c #949191",
"D 	c #979493",
"E 	c #9B9997",
"F 	c #A19F9F",
"G 	c #B0ADAB",
"H 	c #6F5147",
"I 	c #6B544C",
"J 	c #60514C",
"K 	c #614B44",
"L 	c #818283",
"M 	c #818383",
"N 	c #695650",
"O 	c #784534",
"P 	c #945B48",
"Q 	c #A26956",
"R 	c #5C3E35",
"S 	c #414243",
"T 	c #6A6A6B",
"U 	c #979796",
"V 	c #ADADAD",
"W 	c #BFBFBF",
"X 	c #C5C7C7",
"Y 	c #BBB9B9",
"Z 	c #6B5046",
"` 	c #715248",
" .	c #7C4C3C",
"..	c #7B4938",
"+.	c #6B5954",
"@.	c #6E3E2E",
"#.	c #7B4431",
"$.	c #844732",
"%.	c #603425",
"&.	c #4D3B36",
"*.	c #6B5E59",
"=.	c #7E7470",
"-.	c #968D8A",
";.	c #AFA4A0",
">.	c #BFAFAA",
",.	c #C4ACA4",
"'.	c #BD9487",
").	c #904932",
"!.	c #924C34",
"~.	c #894933",
"{.	c #7C4A39",
"].	c #6D5D58",
"^.	c #6D3E2E",
"/.	c #7D4532",
"(.	c #834832",
"_.	c #643321",
":.	c #583428",
"<.	c #714B3E",
"[.	c #83594A",
"}.	c #97695A",
"|.	c #AD7A69",
"1.	c #BB8674",
"2.	c #C18A78",
"3.	c #BC826E",
"4.	c #934931",
"5.	c #914C34",
"6.	c #884933",
"7.	c #6E605B",
"8.	c #6C3E2D",
"9.	c #7C4532",
"0.	c #663322",
"a.	c #563529",
"b.	c #704C3F",
"c.	c #825A4C",
"d.	c #976A5C",
"e.	c #AC7C6C",
"f.	c #BA8877",
"g.	c #C18C79",
"h.	c #BB816E",
"i.	c #904C34",
"j.	c #874933",
"k.	c #7C4E3F",
"l.	c #6F635F",
"m.	c #6C3D2D",
"n.	c #7B4432",
"o.	c #834732",
"p.	c #663423",
"q.	c #563328",
"r.	c #704B3F",
"s.	c #81594C",
"t.	c #976A5B",
"u.	c #AC7B6B",
"v.	c #BA8776",
"w.	c #C08B79",
"x.	c #BA816D",
"y.	c #924931",
"z.	c #874833",
"A.	c #7B5041",
"B.	c #716662",
"C.	c #6A3C2D",
"D.	c #683523",
"E.	c #553428",
"F.	c #6F4B3E",
"G.	c #82594B",
"H.	c #96695B",
"I.	c #AB7B6B",
"J.	c #B98776",
"K.	c #BA806D",
"L.	c #924A31",
"M.	c #904B34",
"N.	c #7B5044",
"O.	c #726A66",
"P.	c #6A3C2C",
"Q.	c #7A4432",
"R.	c #824732",
"S.	c #693523",
"T.	c #543227",
"U.	c #6F4A3E",
"V.	c #81594B",
"W.	c #95695B",
"X.	c #AA7A6B",
"Y.	c #C08B78",
"Z.	c #B87E6B",
"`.	c #8F4B34",
" +	c #864832",
".+	c #7B5346",
"++	c #808282",
"@+	c #818182",
"#+	c #746D6B",
"$+	c #683B2C",
"%+	c #6A3624",
"&+	c #6E4A3E",
"*+	c #81584B",
"=+	c #95695A",
"-+	c #AA7A6A",
";+	c #B98675",
">+	c #B67B67",
",+	c #864732",
"'+	c #7B5448",
")+	c #818181",
"!+	c #76706E",
"~+	c #673A2C",
"{+	c #794432",
"]+	c #814732",
"^+	c #6B3625",
"/+	c #533125",
"(+	c #6D4A3D",
"_+	c #80584B",
":+	c #94685A",
"<+	c #B88675",
"[+	c #C08A79",
"}+	c #B57A66",
"|+	c #924930",
"1+	c #7B574A",
"2+	c #787472",
"3+	c #663A2B",
"4+	c #794332",
"5+	c #6C3725",
"6+	c #523026",
"7+	c #6D493D",
"8+	c #7F574A",
"9+	c #936859",
"0+	c #A9796A",
"a+	c #B88575",
"b+	c #BF8A78",
"c+	c #B47A66",
"d+	c #914930",
"e+	c #8E4B34",
"f+	c #854732",
"g+	c #7B584D",
"h+	c #808181",
"i+	c #797775",
"j+	c #65392B",
"k+	c #784332",
"l+	c #6C3825",
"m+	c #512F24",
"n+	c #6C493D",
"o+	c #936759",
"p+	c #A97969",
"q+	c #B78574",
"r+	c #B47965",
"s+	c #854731",
"t+	c #7B594F",
"u+	c #7C7A79",
"v+	c #64392A",
"w+	c #734131",
"x+	c #784331",
"y+	c #673625",
"z+	c #502F24",
"A+	c #6C483C",
"B+	c #7E574A",
"C+	c #A87969",
"D+	c #BD8978",
"E+	c #B57864",
"F+	c #A35033",
"G+	c #9C4F36",
"H+	c #8A4932",
"I+	c #7B5B51",
"J+	c #7E7D7D",
"K+	c #5E362A",
"L+	c #6D3F30",
"M+	c #764330",
"N+	c #693625",
"O+	c #4F2E23",
"P+	c #7E5649",
"Q+	c #926658",
"R+	c #A87869",
"S+	c #B68474",
"T+	c #BE8978",
"U+	c #B57863",
"V+	c #A34F33",
"W+	c #A35136",
"X+	c #9E4E34",
"Y+	c #805F54",
"Z+	c #808081",
"`+	c #5B3629",
" @	c #764230",
".@	c #6D3927",
"+@	c #4D2E22",
"@@	c #6A473B",
"#@	c #7D5649",
"$@	c #916658",
"%@	c #A77868",
"&@	c #B68473",
"*@	c #BD8A78",
"=@	c #B37460",
"-@	c #A14F34",
";@	c #8E6558",
">@	c #674B42",
",@	c #6C3E2E",
"'@	c #7C4330",
")@	c #6E3D2D",
"!@	c #6D473A",
"~@	c #7C574A",
"{@	c #916759",
"]@	c #A87A6B",
"^@	c #B78675",
"/@	c #B37763",
"(@	c #A6573C",
"_@	c #A45236",
":@	c #A14F35",
"<@	c #88736D",
"[@	c #7E7B79",
"}@	c #764432",
"|@	c #824531",
"1@	c #864631",
"2@	c #894934",
"3@	c #91503A",
"4@	c #99543C",
"5@	c #9C4E34",
"6@	c #9F4E32",
"7@	c #A35236",
"8@	c #A15339",
"9@	c #8F6B5F",
"0@	c #808180",
"a@	c #7D6F6A",
"b@	c #7E5F55",
"c@	c #815344",
"d@	c #854B38",
"e@	c #8B4732",
"f@	c #91472E",
"g@	c #964A30",
"h@	c #9A5037",
"i@	c #9B5841",
"j@	c #966251",
"k@	c #8E6E63",
"l@	c #847B78",
"m@	c #7F8283",
"                                                  ",
"              . + @   # $ % & * = -               ",
"            ; > , ' ) ! ~ { ] ^ / ( _ :           ",
"          < [ } | 1 2 3 4 5 6 7 8 9 0 a b         ",
"      c d e f g h i j j k l l m n o p q r s       ",
"      t u v w x y z A B C D E F G H I J K L       ",
"      M N O P Q R S T   U V W X Y Z `  ...=       ",
"      M +.@.#.$.%.&.*.=.-.;.>.,.'.).!.~.{.t       ",
"      L ].^./.(._.:.<.[.}.|.1.2.3.4.5.6. .t       ",
"      - 7.8.9.(.0.a.b.c.d.e.f.g.h.4.i.j.k.t       ",
"      - l.m.n.o.p.q.r.s.t.u.v.w.x.y.i.z.A.t       ",
"      - B.C.n.o.D.E.F.G.H.I.J.w.K.L.M.z.N.t       ",
"      - O.P.Q.R.S.T.U.V.W.X.J.Y.Z.y.`. +.+++      ",
"      @+#+$+Q.R.%+T.&+*+=+-+;+w.>+y.`.,+'+++      ",
"      )+!+~+{+]+^+/+(+_+:+-+<+[+}+|+`.,+1+++      ",
"      )+2+3+4+]+5+6+7+8+9+0+a+b+c+d+e+f+g+++      ",
"      h+i+j+k+]+l+m+n+8+o+p+q+b+r+L.e+s+t+*       ",
"      h+u+v+w+x+y+z+A+B+o+C+q+D+E+F+G+H+I+*       ",
"        J+K+L+M+N+O+A+P+Q+R+S+T+U+V+W+X+Y+*       ",
"        Z+`+L+ @.@+@@@#@$@%@&@*@=@F+W+-@;@h+      ",
"        - >@,@ @'@)@!@~@{@]@^@/@(@_@W+:@<@        ",
"          [@b.}@'@|@1@2@3@4@5@6@W+7@8@9@h+        ",
"          h+0@a@b@c@d@e@f@g@h@i@j@k@l@m@          ",
"                                                  ",
"                                                  "};
