/* XPM */
static char * prim_round_cylinder_xpm[] = {
"25 25 217 2",
"  	c #969696",
". 	c #959596",
"+ 	c #949495",
"@ 	c #949596",
"# 	c #959697",
"$ 	c #969594",
"% 	c #A1988C",
"& 	c #B7A285",
"* 	c #CAB191",
"= 	c #CAAE8A",
"- 	c #B69C7D",
"; 	c #9C968E",
"> 	c #999A9B",
", 	c #927A5A",
"' 	c #A77635",
") 	c #C28738",
"! 	c #D3933F",
"~ 	c #E19E45",
"{ 	c #E69C3B",
"] 	c #D79540",
"^ 	c #A59786",
"/ 	c #98999A",
"( 	c #8B7E6C",
"_ 	c #976B32",
": 	c #B77826",
"< 	c #D08B33",
"[ 	c #E59329",
"} 	c #F1A238",
"| 	c #F69F27",
"1 	c #F0A440",
"2 	c #D6923A",
"3 	c #969698",
"4 	c #959494",
"5 	c #684A22",
"6 	c #935D16",
"7 	c #BA7C2A",
"8 	c #D79A4A",
"9 	c #EAA140",
"0 	c #F8A93D",
"a 	c #F7B14E",
"b 	c #F89E29",
"c 	c #E69124",
"d 	c #B59469",
"e 	c #94969A",
"f 	c #979798",
"g 	c #7C7974",
"h 	c #725329",
"i 	c #9A6E32",
"j 	c #B3792C",
"k 	c #CC8529",
"l 	c #E3922A",
"m 	c #F49C28",
"n 	c #F8A73A",
"o 	c #F5A337",
"p 	c #E4942B",
"q 	c #C19459",
"r 	c #939598",
"s 	c #979797",
"t 	c #7F7D79",
"u 	c #503108",
"v 	c #895D22",
"w 	c #A6722E",
"x 	c #C08334",
"y 	c #D69641",
"z 	c #E69D3F",
"A 	c #EBA74D",
"B 	c #EB911C",
"C 	c #D88C27",
"D 	c #C09154",
"E 	c #929190",
"F 	c #979898",
"G 	c #74716D",
"H 	c #543B1B",
"I 	c #7E5826",
"J 	c #96682B",
"K 	c #AA6E1E",
"L 	c #C3812A",
"M 	c #D48A2A",
"N 	c #DC8E29",
"O 	c #D98F2D",
"P 	c #CD8A34",
"Q 	c #B98D53",
"R 	c #939394",
"S 	c #989898",
"T 	c #716D6A",
"U 	c #3F2704",
"V 	c #775427",
"W 	c #8A612A",
"X 	c #9A641C",
"Y 	c #B47A2C",
"Z 	c #CD8223",
"` 	c #CF892E",
" .	c #C58128",
"..	c #B28449",
"+.	c #94979C",
"@.	c #706E6A",
"#.	c #3D2506",
"$.	c #6E4B1E",
"%.	c #835A21",
"&.	c #925B13",
"*.	c #AC7021",
"=.	c #BD791F",
"-.	c #C77C1A",
";.	c #CA8326",
">.	c #C17E25",
",.	c #AD8148",
"'.	c #94989C",
").	c #757370",
"!.	c #392305",
"~.	c #6B491E",
"{.	c #7F5721",
"].	c #8E5812",
"^.	c #A86D20",
"/.	c #B8761E",
"(.	c #C37919",
"_.	c #C68025",
":.	c #BC7B24",
"<.	c #AA824D",
"[.	c #95979B",
"}.	c #7C7B78",
"|.	c #352105",
"1.	c #67481D",
"2.	c #7B5421",
"3.	c #895611",
"4.	c #A46A1F",
"5.	c #B4731E",
"6.	c #BE7618",
"7.	c #C27E25",
"8.	c #B87723",
"9.	c #A98659",
"0.	c #7B7A77",
"a.	c #311E05",
"b.	c #64451D",
"c.	c #785220",
"d.	c #855310",
"e.	c #9F681F",
"f.	c #AF6F1C",
"g.	c #BB7820",
"h.	c #BC771C",
"i.	c #B37522",
"j.	c #A48359",
"k.	c #797977",
"l.	c #2E1C04",
"m.	c #60421C",
"n.	c #744F1F",
"o.	c #814F0F",
"p.	c #9B641D",
"q.	c #AA6C19",
"r.	c #B97D2F",
"s.	c #B56D10",
"t.	c #AF7221",
"u.	c #A2845C",
"v.	c #95979A",
"w.	c #838381",
"x.	c #2A1A04",
"y.	c #5C401B",
"z.	c #704C1F",
"A.	c #7C4C0F",
"B.	c #96621C",
"C.	c #A66819",
"D.	c #B57A2D",
"E.	c #B16B0F",
"F.	c #AB6F1F",
"G.	c #A28968",
"H.	c #959799",
"I.	c #888787",
"J.	c #271805",
"K.	c #593E1B",
"L.	c #6B491D",
"M.	c #784A0E",
"N.	c #925F1B",
"O.	c #A16618",
"P.	c #B1772D",
"Q.	c #AC670F",
"R.	c #A66B1F",
"S.	c #9F8B71",
"T.	c #A6A7A8",
"U.	c #2E2314",
"V.	c #5C4423",
"W.	c #67471C",
"X.	c #72450B",
"Y.	c #8D5A19",
"Z.	c #9D6215",
"`.	c #AD742A",
" +	c #AA6A15",
".+	c #A26D26",
"++	c #9D9790",
"@+	c #9E9F9F",
"#+	c #45413C",
"$+	c #423019",
"%+	c #6B5231",
"&+	c #795323",
"*+	c #926830",
"=+	c #9E6D2D",
"-+	c #AB7B3E",
";+	c #9D6822",
">+	c #885F2B",
",+	c #97999B",
"'+	c #959595",
")+	c #9D9D9D",
"!+	c #534E47",
"~+	c #402F1B",
"{+	c #492D08",
"]+	c #694516",
"^+	c #754A11",
"/+	c #865C26",
"(+	c #846031",
"_+	c #9C9994",
":+	c #909090",
"<+	c #6A6764",
"[+	c #4F463B",
"}+	c #584834",
"|+	c #645036",
"1+	c #82735F",
"2+	c #918C85",
"3+	c #929191",
"4+	c #91908F",
"                                                  ",
"                                                  ",
"                      . + @ #                     ",
"                  $ % & * = - ;                   ",
"                > , ' ) ! ~ { ] ^ #               ",
"              / ( _ : < [ } | 1 2 3               ",
"              4 5 6 7 8 9 0 a b c d e             ",
"            f g h i j k l m n o p q r             ",
"            s t u v w x y z A B C D E             ",
"            F G H I J K L M N O P Q R             ",
"            S T U V W X Y L Z `  ...+.            ",
"            S @.#.$.%.&.*.=.-.;.>.,.'.            ",
"            F ).!.~.{.].^./.(._.:.<.[.            ",
"            f }.|.1.2.3.4.5.6.7.8.9.[.            ",
"            f 0.a.b.c.d.e.f.g.h.i.j.[.            ",
"            f k.l.m.n.o.p.q.r.s.t.u.v.            ",
"            s w.x.y.z.A.B.C.D.E.F.G.H.            ",
"            s I.J.K.L.M.N.O.P.Q.R.S.H.            ",
"              T.U.V.W.X.Y.Z.`. +.+++#             ",
"              @+#+$+%+&+*+=+-+;+>+,+              ",
"              '+)+!+~+{+]+^+/+(+_+                ",
"                  :+<+[+}+|+1+2+f                 ",
"                    '+3+4+E '+                    ",
"                                                  ",
"                                                  "};
