/* XPM */
static char * prim_spherical_long_xpm[] = {
"25 25 380 2",
"  	c #808080",
". 	c #818081",
"+ 	c #838083",
"@ 	c #848083",
"# 	c #828082",
"$ 	c #878086",
"% 	c #797E7A",
"& 	c #528054",
"* 	c #2F8533",
"= 	c #0F8914",
"- 	c #0A8E0E",
"; 	c #258C29",
"> 	c #458847",
", 	c #688369",
"' 	c #867F85",
") 	c #847F84",
"! 	c #7A807B",
"~ 	c #637E64",
"{ 	c #208324",
"] 	c #009004",
"^ 	c #029308",
"/ 	c #05930A",
"( 	c #05950A",
"_ 	c #04960A",
": 	c #019707",
"< 	c #05960B",
"[ 	c #3D8B40",
"} 	c #728273",
"| 	c #7C817C",
"1 	c #858085",
"2 	c #5A7C5C",
"3 	c #228226",
"4 	c #0D8C11",
"5 	c #029007",
"6 	c #039309",
"7 	c #04930A",
"8 	c #05940A",
"9 	c #05960A",
"0 	c #05970A",
"a 	c #05970B",
"b 	c #05980B",
"c 	c #06990B",
"d 	c #049A09",
"e 	c #059A0A",
"f 	c #139818",
"g 	c #2B922F",
"h 	c #618863",
"i 	c #837E83",
"j 	c #828182",
"k 	c #29762C",
"l 	c #009403",
"m 	c #039708",
"n 	c #04950A",
"o 	c #03950A",
"p 	c #05980A",
"q 	c #05990B",
"r 	c #059A0B",
"s 	c #069A0B",
"t 	c #04A30C",
"u 	c #07A90D",
"v 	c #09B90F",
"w 	c #0ACD10",
"x 	c #07E20F",
"y 	c #3CBB40",
"z 	c #847D84",
"A 	c #747674",
"B 	c #007501",
"C 	c #038D09",
"D 	c #039609",
"E 	c #218A08",
"F 	c #298708",
"G 	c #039A0A",
"H 	c #069C0B",
"I 	c #06A00C",
"J 	c #0AC010",
"K 	c #4BA60D",
"L 	c #06D612",
"M 	c #0DE715",
"N 	c #0FF316",
"O 	c #10F918",
"P 	c #0AF913",
"Q 	c #728772",
"R 	c #818181",
"S 	c #6A6D6A",
"T 	c #005700",
"U 	c #026F07",
"V 	c #027F08",
"W 	c #038B09",
"X 	c #009509",
"Y 	c #537005",
"Z 	c #616C05",
"` 	c #378007",
" .	c #477A06",
"..	c #2E8909",
"+.	c #00A00B",
"@.	c #02A90C",
"#.	c #4F940A",
"$.	c #5AA60D",
"%.	c #64B00E",
"&.	c #A2A40D",
"*.	c #56D414",
"=.	c #10F919",
"-.	c #11F519",
";.	c #10E618",
">.	c #07D60F",
",.	c #6D886E",
"'.	c #717270",
").	c #004900",
"!.	c #025505",
"~.	c #025D06",
"{.	c #006D07",
"].	c #2C6806",
"^.	c #2C7506",
"/.	c #337A06",
"(.	c #7B5E04",
"_.	c #437C07",
":.	c #3D7F07",
"<.	c #717207",
"[.	c #8F8D0A",
"}.	c #4AC610",
"|.	c #8EB30F",
"1.	c #B7A70F",
"2.	c #3EE217",
"3.	c #7FBD14",
"4.	c #16E117",
"5.	c #0ED115",
"6.	c #0BC412",
"7.	c #03C30A",
"8.	c #788278",
"9.	c #767776",
"0.	c #004800",
"a.	c #015405",
"b.	c #005805",
"c.	c #304603",
"d.	c #2A5404",
"e.	c #2C6005",
"f.	c #675303",
"g.	c #427106",
"h.	c #278A09",
"i.	c #659A13",
"j.	c #78B817",
"k.	c #3FE217",
"l.	c #8EBB13",
"m.	c #AFA110",
"n.	c #49C114",
"o.	c #7B990F",
"p.	c #12C112",
"q.	c #0BC112",
"r.	c #01C209",
"s.	c #817E81",
"t.	c #7C7B7C",
"u.	c #004700",
"v.	c #025605",
"w.	c #015705",
"x.	c #144F05",
"y.	c #423A02",
"z.	c #4E3702",
"A.	c #2C4F04",
"B.	c #3F5204",
"C.	c #565F05",
"D.	c #619012",
"E.	c #75AD16",
"F.	c #99A211",
"G.	c #74A611",
"H.	c #79950E",
"I.	c #A9770A",
"J.	c #62970E",
"K.	c #0DC112",
"L.	c #0BC212",
"M.	c #0AC111",
"N.	c #04BF0B",
"O.	c #887C88",
"P.	c #817F81",
"Q.	c #004400",
"R.	c #015305",
"S.	c #005705",
"T.	c #314103",
"U.	c #1F4B04",
"V.	c #025B05",
"W.	c #244C03",
"X.	c #573302",
"Y.	c #6A3B01",
"Z.	c #6E6105",
"`.	c #8C7A09",
" +	c #C16C0A",
".+	c #A7780A",
"++	c #2EB110",
"@+	c #18BC12",
"#+	c #7A8D0D",
"$+	c #11BF12",
"%+	c #0DB914",
"&+	c #887C87",
"*+	c #858385",
"=+	c #004300",
"-+	c #025705",
";+	c #095505",
">+	c #2D4503",
",+	c #4E3502",
"'+	c #413D02",
")+	c #175204",
"!+	c #0E6606",
"~+	c #287F08",
"{+	c #32A00C",
"]+	c #1FB912",
"^+	c #4CA310",
"/+	c #A2790B",
"(+	c #8C830C",
"_+	c #31B010",
":+	c #0AC011",
"<+	c #18B31E",
"[+	c #877D86",
"}+	c #848284",
"|+	c #004501",
"1+	c #2C4504",
"2+	c #095805",
"3+	c #1F4E04",
"4+	c #4F3702",
"5+	c #623D02",
"6+	c #6A6004",
"7+	c #887709",
"8+	c #B66E0A",
"9+	c #8E830B",
"0+	c #27B511",
"a+	c #3AAC0F",
"b+	c #88840C",
"c+	c #0EBF11",
"d+	c #22AE27",
"e+	c #867D86",
"f+	c #004503",
"g+	c #035705",
"h+	c #184F04",
"i+	c #4B3702",
"j+	c #523502",
"k+	c #1E5004",
"l+	c #056C07",
"m+	c #108C0A",
"n+	c #15B00E",
"o+	c #0FC012",
"p+	c #6E920D",
"q+	c #BC6C08",
"r+	c #61970E",
"s+	c #0EBF12",
"t+	c #0ABF11",
"u+	c #2CA830",
"v+	c #857E85",
"w+	c #034706",
"x+	c #2B4403",
"y+	c #403A02",
"z+	c #1A4F04",
"A+	c #155304",
"B+	c #3D3F02",
"C+	c #5E4002",
"D+	c #785A04",
"E+	c #977007",
"F+	c #A7750B",
"G+	c #5F990E",
"H+	c #2BB211",
"I+	c #748E0C",
"J+	c #85850B",
"K+	c #0CBF11",
"L+	c #09BF11",
"M+	c #36A23B",
"N+	c #847E84",
"O+	c #064809",
"P+	c #085405",
"Q+	c #0B5405",
"R+	c #413B03",
"S+	c #593102",
"T+	c #254B04",
"U+	c #036D07",
"V+	c #05920A",
"W+	c #08B70F",
"X+	c #13BE12",
"Y+	c #8B830B",
"Z+	c #B66E09",
"`+	c #34AD0F",
" @	c #14BB11",
".@	c #09BF10",
"+@	c #419D44",
"@@	c #837F83",
"#@	c #838283",
"$@	c #0A490D",
"%@	c #015605",
"&@	c #1C4B04",
"*@	c #4D3402",
"=@	c #344203",
"-@	c #0D5605",
";@	c #264B04",
">@	c #5C4202",
",@	c #8A5203",
"'@	c #A96707",
")@	c #8D820C",
"!@	c #2DB110",
"~@	c #4CA10F",
"{@	c #A4750A",
"]@	c #5D980D",
"^@	c #08C00F",
"/@	c #4D9650",
"(@	c #827F82",
"_@	c #314F32",
":@	c #004601",
"<@	c #025405",
"[@	c #174D04",
"}@	c #0E5205",
"|@	c #2B4603",
"1@	c #523401",
"2@	c #354303",
"3@	c #106806",
"4@	c #0C900A",
"5@	c #12B20E",
"6@	c #3AAA10",
"7@	c #9F780A",
"8@	c #83850B",
"9@	c #24B410",
"0@	c #43A40E",
"a@	c #08BD0F",
"b@	c #0BA311",
"c@	c #6F8270",
"d@	c #505650",
"e@	c #012F03",
"f@	c #015105",
"g@	c #473702",
"h@	c #4D3501",
"i@	c #115405",
"j@	c #105604",
"k@	c #544603",
"l@	c #934F02",
"m@	c #AA6807",
"n@	c #63950E",
"o@	c #14BB10",
"p@	c #86840B",
"q@	c #A2760A",
"r@	c #22B410",
"s@	c #07B30D",
"t@	c #1C7E20",
"u@	c #787E79",
"v@	c #787678",
"w@	c #3D4C3E",
"x@	c #0F2F03",
"y@	c #164401",
"z@	c #3E3E02",
"A@	c #473A02",
"B@	c #2B5B05",
"C@	c #228608",
"D@	c #35A10D",
"E@	c #798A0C",
"F@	c #937E0A",
"G@	c #44A50F",
"H@	c #399C09",
"I@	c #337F14",
"J@	c #537854",
"K@	c #2D382C",
"L@	c #2C2805",
"M@	c #1B4503",
"N@	c #075905",
"O@	c #415103",
"P@	c #7E5B04",
"Q@	c #8B7809",
"R@	c #37AA0F",
"S@	c #26AA0E",
"T@	c #6C690C",
"U@	c #3C703B",
"V@	c #848185",
"W@	c #737474",
"X@	c #4E4E46",
"Y@	c #172302",
"Z@	c #344701",
"`@	c #486F06",
" #	c #5F8409",
".#	c #3A7601",
"+#	c #517041",
"@#	c #717D74",
"##	c #828283",
"$#	c #7F7D80",
"%#	c #3D493D",
"&#	c #2C4E1F",
"*#	c #3A652F",
"=#	c #737C78",
"-#	c #848184",
";#	c #7F7F7F",
"                                                  ",
"                    . + @ #                       ",
"            . $ % & * = - ; > , ' )               ",
"          ! ~ { ] ^ / / / ( _ : < [ } | .         ",
"    1 2 3 4 5 6 7 8 ( 9 0 a b c c d e f g h i     ",
"  j k l m n n o _ 9 0 p q r s s c t u v w x y z   ",
". A B C 6 D D E F G q r H H H I J K L M N O P Q   ",
"R S T U V W X Y Z `  ...+.@.#.$.%.&.*.=.-.;.>.,.  ",
"R '.).!.~.{.].^./.(._.:.<.[.}.|.1.2.3.4.5.6.7.8.  ",
"  9.0.a.!.b.c.d.e.f.g.h.i.j.k.l.m.n.o.p.q.q.r.s.  ",
"  t.u.a.v.w.x.y.z.A.B.C.D.E.F.G.H.I.J.K.L.M.N.O.  ",
"  P.Q.R.v.S.T.U.V.W.X.Y.Z.`. +.+++@+#+$+M.M.%+&+  ",
"  *+=+R.!.-+;+>+,+'+)+!+~+{+]+^+/+(+_+q.M.:+<+[+  ",
"  }+|+R.!.S.T.1+2+3+4+5+6+7+8+9+0+a+b+c+:+:+d+e+  ",
"  }+f+R.!.v.g+h+i+j+k+l+m+n+o+p+q+r+s+:+:+t+u+v+  ",
"  }+w+R.!.S.x+y+z+A+B+C+D+E+F+G+H+I+J+K+t+L+M+N+  ",
"  }+O+R.!.v.P+Q+R+S+T+U+V+W+X+Y+Z+`+ @:+t+.@+@@@  ",
"  #@$@R.a.%@&@*@=@-@;@>@,@'@)@!@~@{@]@t+L+^@/@(@  ",
"  R _@:@<@%@[@}@|@1@2@3@4@5@6@7@8@9@0@:+a@b@c@    ",
"      d@e@f@Q+g@h@i@j@k@l@m@n@o@p@q@r@s@t@u@      ",
"      #@v@w@x@y@h+z@A@B@C@D@E@F@G@H@I@J@)         ",
"          R j K@L@M@N@O@P@Q@R@S@T@U@V@            ",
"              #@W@X@Y@Z@`@ #.#+#@##               ",
"                  ##$#%#&#*#=#-#                  ",
"                        ;#                        "};
