/* XPM */
static char * prim_vert_subdiv_xpm[] = {
"25 25 332 2",
"  	c #808080",
". 	c #7F8284",
"+ 	c #7F8285",
"@ 	c #808081",
"# 	c #808182",
"$ 	c #827C77",
"% 	c #847768",
"& 	c #8D6236",
"* 	c #905C28",
"= 	c #87725D",
"- 	c #827B73",
"; 	c #807F7E",
"> 	c #867059",
", 	c #8F5B27",
"' 	c #935311",
") 	c #964D01",
"! 	c #974C00",
"~ 	c #974C01",
"{ 	c #994D00",
"] 	c #96510B",
"^ 	c #95581B",
"/ 	c #8D673F",
"( 	c #837A71",
"_ 	c #7E8387",
": 	c #7F8183",
"< 	c #827D78",
"[ 	c #847769",
"} 	c #8C6136",
"| 	c #954C01",
"1 	c #964A00",
"2 	c #954D01",
"3 	c #964D02",
"4 	c #974D02",
"5 	c #974D03",
"6 	c #984E03",
"7 	c #994E03",
"8 	c #994F03",
"9 	c #9B4E01",
"0 	c #9C4C00",
"a 	c #985713",
"b 	c #8C6B4A",
"c 	c #847A70",
"d 	c #817E7A",
"e 	c #7F8081",
"f 	c #818385",
"g 	c #755532",
"h 	c #935010",
"i 	c #9A4B00",
"j 	c #964B00",
"k 	c #954D02",
"l 	c #974E03",
"m 	c #9A4F03",
"n 	c #9B5003",
"o 	c #9C4F01",
"p 	c #A24D05",
"q 	c #A05716",
"r 	c #9E703F",
"s 	c #7E8184",
"t 	c #828487",
"u 	c #5E3A17",
"v 	c #2B4002",
"w 	c #365304",
"x 	c #864902",
"y 	c #924C02",
"z 	c #9C4F04",
"A 	c #995304",
"B 	c #A55405",
"C 	c #43970E",
"D 	c #818A0B",
"E 	c #B06F2C",
"F 	c #7D8185",
"G 	c #828486",
"H 	c #5F3E1B",
"I 	c #313F02",
"J 	c #035505",
"K 	c #4E3201",
"L 	c #444003",
"M 	c #385605",
"N 	c #8E4602",
"O 	c #9D4F03",
"P 	c #9B4E03",
"Q 	c #9E4C03",
"R 	c #9C5105",
"S 	c #64820A",
"T 	c #479E0F",
"U 	c #C36809",
"V 	c #07C413",
"W 	c #868609",
"X 	c #A97136",
"Y 	c #614120",
"Z 	c #323E02",
"` 	c #055605",
" .	c #4F3101",
"..	c #363F02",
"+.	c #005C05",
"@.	c #5C2A01",
"#.	c #454103",
"$.	c #625304",
"%.	c #934D03",
"&.	c #9D5003",
"*.	c #8E5C06",
"=.	c #5F890C",
"-.	c #C76A09",
";.	c #3DAB11",
">.	c #3BAB10",
",.	c #BC6B09",
"'.	c #09C212",
").	c #8D8108",
"!.	c #A47240",
"~.	c #634324",
"{.	c #343C02",
"].	c #4E3202",
"^.	c #373E02",
"/.	c #5E2B01",
"(.	c #304203",
"_.	c #005905",
":.	c #4B3B02",
"<.	c #703A02",
"[.	c #C46007",
"}.	c #49A610",
"|.	c #2FB311",
"1.	c #C46809",
"2.	c #38AC10",
"3.	c #45A510",
"4.	c #B36F0A",
"5.	c #0AC112",
"6.	c #947D07",
"7.	c #9F7548",
"8.	c #7E8183",
"9.	c #828385",
"0.	c #644528",
"a.	c #363B01",
"b.	c #045505",
"c.	c #4D3202",
"d.	c #383D02",
"e.	c #314303",
"f.	c #035805",
"g.	c #483802",
"h.	c #623302",
"i.	c #CC6508",
"j.	c #45A710",
"k.	c #36AE10",
"l.	c #32AE10",
"m.	c #50A00F",
"n.	c #AA730B",
"o.	c #0BC012",
"p.	c #9B7A06",
"q.	c #997652",
"r.	c #64482D",
"s.	c #383A01",
"t.	c #4C3202",
"u.	c #383C02",
"v.	c #304303",
"w.	c #483702",
"x.	c #CD6509",
"y.	c #3FA90F",
"z.	c #3CAA10",
"A.	c #C26809",
"B.	c #2DB110",
"C.	c #5A9A0E",
"D.	c #A1760A",
"E.	c #0BBF12",
"F.	c #A27505",
"G.	c #94795C",
"H.	c #7F8082",
"I.	c #664C31",
"J.	c #3A3801",
"K.	c #035605",
"L.	c #4B3302",
"M.	c #3A3C02",
"N.	c #005B05",
"O.	c #2F4303",
"P.	c #CE6509",
"Q.	c #39AC11",
"R.	c #41A70F",
"S.	c #C16909",
"T.	c #28B210",
"U.	c #64940E",
"V.	c #987B0A",
"W.	c #0CBE12",
"X.	c #A87203",
"Y.	c #8E7A66",
"Z.	c #818384",
"`.	c #674E35",
" +	c #3C3700",
".+	c #4A3302",
"++	c #3A3B02",
"@+	c #5D2A01",
"#+	c #045805",
"$+	c #613302",
"%+	c #CF6509",
"&+	c #32AF10",
"*+	c #47A40F",
"=+	c #BF6808",
"-+	c #23B411",
";+	c #6F900D",
">+	c #907E0B",
",+	c #0BBD11",
"'+	c #AF6E02",
")+	c #897D70",
"!+	c #685139",
"~+	c #3D3600",
"{+	c #025505",
"]+	c #3B3B02",
"^+	c #2F4203",
"/+	c #045705",
"(+	c #493602",
"_+	c #D06509",
":+	c #2CB210",
"<+	c #4CA00F",
"[+	c #BE6808",
"}+	c #1EB611",
"|+	c #79890C",
"1+	c #86820B",
"2+	c #0CBD11",
"3+	c #B66A01",
"4+	c #847F7A",
"5+	c #818284",
"6+	c #69543D",
"7+	c #403500",
"8+	c #493302",
"9+	c #3C3A02",
"0+	c #5D2B01",
"a+	c #2D4203",
"b+	c #D16508",
"c+	c #25B411",
"d+	c #529D0E",
"e+	c #BC6908",
"f+	c #18B811",
"g+	c #83840B",
"h+	c #7E860B",
"i+	c #0DBC11",
"j+	c #BC6602",
"k+	c #818283",
"l+	c #6B5641",
"m+	c #413400",
"n+	c #015505",
"o+	c #483302",
"p+	c #3D3902",
"q+	c #493502",
"r+	c #643403",
"s+	c #D16408",
"t+	c #1FB611",
"u+	c #569A0E",
"v+	c #BB6808",
"w+	c #13BA11",
"x+	c #8E7F0B",
"y+	c #75890C",
"z+	c #0DBB11",
"A+	c #BF6407",
"B+	c #6C5844",
"C+	c #433200",
"D+	c #015605",
"E+	c #473302",
"F+	c #3E3802",
"G+	c #005A05",
"H+	c #5C2B01",
"I+	c #045605",
"J+	c #663603",
"K+	c #19B811",
"L+	c #5C970D",
"M+	c #BA6908",
"N+	c #0EBC11",
"O+	c #98790A",
"P+	c #6D8D0C",
"Q+	c #0EBA11",
"R+	c #C4610A",
"S+	c #808181",
"T+	c #75695F",
"U+	c #493708",
"V+	c #005506",
"W+	c #463302",
"X+	c #2C4203",
"Y+	c #493402",
"Z+	c #693703",
"`+	c #D06408",
" @	c #12BB11",
".@	c #61940D",
"+@	c #B96908",
"@@	c #09BE11",
"#@	c #A2730A",
"$@	c #63910C",
"%@	c #19B413",
"&@	c #B2692F",
"*@	c #818182",
"=@	c #7C7C7A",
"-@	c #4F6E50",
";@	c #533E15",
">@	c #3C3300",
",@	c #5B2B01",
"'@	c #6C3803",
")@	c #D06208",
"!@	c #67910D",
"~@	c #B76808",
"{@	c #02C110",
"]@	c #AE6D03",
"^@	c #768734",
"/@	c #698C68",
"(@	c #808084",
"_@	c #828284",
":@	c #666C59",
"<@	c #055B0F",
"[@	c #5B2C01",
"}@	c #2B4203",
"|@	c #6D3903",
"1@	c #06C011",
"2@	c #6C8D0C",
"3@	c #B66909",
"4@	c #1EB224",
"5@	c #857E71",
"6@	c #808082",
"7@	c #828183",
"8@	c #7D807F",
"9@	c #726254",
"0@	c #3A5320",
"a@	c #005200",
"b@	c #493201",
"c@	c #6F3A03",
"d@	c #D06207",
"e@	c #00C30D",
"f@	c #698E29",
"g@	c #92785C",
"h@	c #828182",
"i@	c #697667",
"j@	c #543A11",
"k@	c #713C04",
"l@	c #BE6811",
"m@	c #5A9463",
"n@	c #827F82",
"o@	c #818183",
"p@	c #7D6F60",
"q@	c #82807E",
"                                                  ",
"                      . + @                       ",
"              @ # $ % & * = - ; # @               ",
"          . + > , ' ) ! ~ { ] ^ / ( _ :           ",
"    @ < [ } | 1 2 3 4 5 6 6 7 8 9 0 a b c d e     ",
"  f g h i j k 3 3 5 l 6 6 7 8 m m n n o p q r s   ",
"  t u v w x y 5 5 l 6 6 7 8 m m n z A B C D E F   ",
"  G H I J K L M N O P 8 8 m m Q R S T U V W X F   ",
"  G Y Z `  ...+.@.#.$.%.8 &.*.=.-.;.>.,.'.).!.s   ",
"  G ~.{.` ].^.+./.(._.:.<.[.}.|.1.2.3.4.5.6.7.8.  ",
"  9.0.a.b.c.d.+./.e.f.g.h.i.j.k.U l.m.n.o.p.q.8.  ",
"  9.r.s.b.t.u.+./.v.f.w.h.x.y.z.A.B.C.D.E.F.G.H.  ",
"  9.I.J.K.L.M.N./.O.f.w.h.P.Q.R.S.T.U.V.W.X.Y.H.  ",
"  Z.`. +K..+++N.@+O.#+w.$+%+&+*+=+-+;+>+,+'+)+e   ",
"  Z.!+~+{+.+]+N.@+^+/+(+h._+:+<+[+}+|+1+2+3+4+    ",
"  5+6+7+{+8+9+N.0+a+/+(+h.b+c+d+e+f+g+h+i+j+e     ",
"  k+l+m+n+o+p+N.0+a+/+q+r+s+t+u+v+w+x+y+z+A+e     ",
"  k+B+C+D+E+F+G+H+a+I+q+J+s+K+L+M+N+O+P+Q+R+e     ",
"  S+T+U+V+W+F+G+H+X+I+Y+Z+`+ @.@+@@@#@$@%@&@@     ",
"    *@=@-@;@>@G+,@X+I+8+'@)@2+!@~@{@]@^@/@(@      ",
"          _@:@<@[@}@` 8+|@)@1@2@3@4@5@6@          ",
"            7@8@9@0@a@b@c@d@e@f@g@6@@             ",
"                  h@i@j@k@l@m@n@                  ",
"                    h@o@p@q@n@                    ",
"                                                  "};
