/* XPM */
static char * prim_height_xpm[] = {
"25 25 275 2",
"  	c None",
". 	c #808080",
"+ 	c #808181",
"@ 	c #7F8283",
"# 	c #80807F",
"$ 	c #827B78",
"% 	c #837874",
"& 	c #837672",
"* 	c #827773",
"= 	c #817976",
"- 	c #807D7C",
"; 	c #808283",
"> 	c #808282",
", 	c #857671",
"' 	c #8F6152",
") 	c #925845",
"! 	c #925440",
"~ 	c #91523D",
"{ 	c #8E503C",
"] 	c #894F3B",
"^ 	c #864F3D",
"/ 	c #825141",
"( 	c #7F574A",
"_ 	c #7D6A63",
": 	c #808383",
"< 	c #7F8282",
"[ 	c #886C63",
"} 	c #994C33",
"| 	c #994E35",
"1 	c #974D34",
"2 	c #964C34",
"3 	c #934C34",
"4 	c #8F4B33",
"5 	c #8A4832",
"6 	c #874732",
"7 	c #834632",
"8 	c #7F4431",
"9 	c #794331",
"0 	c #745247",
"a 	c #818384",
"b 	c #808384",
"c 	c #7D5A4E",
"d 	c #964C33",
"e 	c #984D34",
"f 	c #964D34",
"g 	c #904B33",
"h 	c #834732",
"i 	c #7E4531",
"j 	c #7A4431",
"k 	c #744839",
"l 	c #828384",
"m 	c #6B5751",
"n 	c #8B4A34",
"o 	c #914B34",
"p 	c #934B33",
"q 	c #914B33",
"r 	c #8C4933",
"s 	c #8B4933",
"t 	c #874933",
"u 	c #7E4D3D",
"v 	c #6C5A53",
"w 	c #744230",
"x 	c #824732",
"y 	c #894933",
"z 	c #8E4933",
"A 	c #904A32",
"B 	c #944B32",
"C 	c #954B33",
"D 	c #974C33",
"E 	c #974E35",
"F 	c #954E35",
"G 	c #7D4D3D",
"H 	c #808484",
"I 	c #818383",
"J 	c #6D5C56",
"K 	c #734130",
"L 	c #814834",
"M 	c #884B37",
"N 	c #8C513E",
"O 	c #905744",
"P 	c #965B46",
"Q 	c #9A5B46",
"R 	c #9D5A43",
"S 	c #9B543C",
"T 	c #954F37",
"U 	c #8B4B35",
"V 	c #7D4E3F",
"W 	c #808485",
"X 	c #6F5F5A",
"Y 	c #704A3D",
"Z 	c #7C5A4F",
"` 	c #836358",
" .	c #8B6659",
"..	c #90695A",
"+.	c #9A6C5B",
"@.	c #A26F5C",
"#.	c #A7715E",
"$.	c #AC7460",
"%.	c #AA705B",
"&.	c #9C604B",
"*.	c #815444",
"=.	c #808385",
"-.	c #818282",
";.	c #6F6968",
">.	c #6C5B55",
",.	c #7A6157",
"'.	c #846357",
").	c #8B6558",
"!.	c #906759",
"~.	c #9A6A5A",
"{.	c #A16E5B",
"].	c #A6705D",
"^.	c #AB715E",
"/.	c #AC725F",
"(.	c #AC735F",
"_.	c #986D5F",
":.	c #7E8183",
"<.	c #838383",
"[.	c #555455",
"}.	c #63544F",
"|.	c #7C6157",
"1.	c #846358",
"2.	c #906859",
"3.	c #9A6B5B",
"4.	c #A16E5C",
"5.	c #AB725E",
"6.	c #AC725E",
"7.	c #AA725E",
"8.	c #A3948E",
"9.	c #7D7F7F",
"0.	c #848484",
"a.	c #525252",
"b.	c #2E2E2F",
"c.	c #615754",
"d.	c #7C645C",
"e.	c #88685D",
"f.	c #8F6B5F",
"g.	c #997061",
"h.	c #A27565",
"i.	c #AA7A6A",
"j.	c #AF8474",
"k.	c #B79B91",
"l.	c #BEBBBA",
"m.	c #A7A5A5",
"n.	c #7D7D7D",
"o.	c #585858",
"p.	c #2E2E2E",
"q.	c #515252",
"r.	c #666869",
"s.	c #777677",
"t.	c #858281",
"u.	c #989391",
"v.	c #A8A4A3",
"w.	c #B7B6B6",
"x.	c #C2C5C6",
"y.	c #C5C7C8",
"z.	c #BFBEBE",
"A.	c #A4A2A1",
"B.	c #5C5C5C",
"C.	c #2C2C2C",
"D.	c #676767",
"E.	c #767676",
"F.	c #979898",
"G.	c #A9A9A9",
"H.	c #B7B7B7",
"I.	c #C0C0C0",
"J.	c #C3C3C3",
"K.	c #BEBDBD",
"L.	c #A2A09F",
"M.	c #5F5F5F",
"N.	c #2A2A2A",
"O.	c #505050",
"P.	c #666666",
"Q.	c #757575",
"R.	c #979797",
"S.	c #A8A8A8",
"T.	c #BDBCBC",
"U.	c #A09E9D",
"V.	c #7D7E7E",
"W.	c #828282",
"X.	c #6C6969",
"Y.	c #2B2929",
"Z.	c #4F5050",
"`.	c #656565",
" +	c #969696",
".+	c #B5B5B5",
"++	c #C2C3C3",
"@+	c #BEC0C0",
"#+	c #97908E",
"$+	c #7E7F7F",
"%+	c #818181",
"&+	c #7A7573",
"*+	c #55372D",
"=+	c #574D4A",
"-+	c #636667",
";+	c #737677",
">+	c #959798",
",+	c #A8AAAB",
"'+	c #B7BABB",
")+	c #C2C6C8",
"!+	c #BFBBB9",
"~+	c #A18278",
"{+	c #7D6259",
"]+	c #7A7877",
"^+	c #693C2E",
"/+	c #7B4533",
"(+	c #7F4D3B",
"_+	c #805B4F",
":+	c #846960",
"<+	c #937A72",
"[+	c #A0837A",
"}+	c #A58073",
"|+	c #9F6A58",
"1+	c #92533D",
"2+	c #864833",
"3+	c #7A5F56",
"4+	c #7B7A7A",
"5+	c #673C2C",
"6+	c #784331",
"7+	c #7D4431",
"8+	c #84452F",
"9+	c #89462F",
"0+	c #92482F",
"a+	c #994B30",
"b+	c #9F4C32",
"c+	c #A24F34",
"d+	c #9B4F36",
"e+	c #884732",
"f+	c #7A6058",
"g+	c #808081",
"h+	c #7E7E7E",
"i+	c #61392B",
"j+	c #724130",
"k+	c #7C4431",
"l+	c #834631",
"m+	c #894731",
"n+	c #914B32",
"o+	c #994D34",
"p+	c #9F4F34",
"q+	c #A45236",
"r+	c #A65236",
"s+	c #9E4E33",
"t+	c #80645B",
"u+	c #5F382B",
"v+	c #884731",
"w+	c #914A32",
"x+	c #9E4F34",
"y+	c #A35136",
"z+	c #A45136",
"A+	c #A34E32",
"B+	c #8B6B61",
"C+	c #818182",
"D+	c #74645E",
"E+	c #703F2E",
"F+	c #7C4331",
"G+	c #914A33",
"H+	c #994D33",
"I+	c #A35135",
"J+	c #A45035",
"K+	c #9A5944",
"L+	c #7E736F",
"M+	c #7D584C",
"N+	c #825140",
"O+	c #874F3C",
"P+	c #8F503C",
"Q+	c #96533D",
"R+	c #995841",
"S+	c #995D4A",
"T+	c #8E6D63",
"U+	c #808182",
"V+	c #817875",
"W+	c #837773",
"X+	c #847874",
"Y+	c #827C7A",
"Z+	c #7F8182",
". . . . . . . . . . . . . . . . . . . . . . . . . ",
". . . . . . . + @ # $ % & * = - ; > . . . . . . . ",
". . . . . . @ , ' ) ! ~ { ] ^ / ( _ : . . . . . . ",
". . . . . < [ } | 1 2 3 4 5 6 7 8 9 0 a . . . . . ",
". . . . . b c d | e f 3 g 5 6 h i j k ; . . . . . ",
". . . . . l m j n o 3 p q r s r n t u b . . . . . ",
". . . . . a v w x y z A B C D E F n G H . . . . . ",
". . . . . I J K L M N O P Q R S T U V W . . . . . ",
". . . . . I X Y Z `  ...+.@.#.$.%.&.*.=.. . . . . ",
". . . . . -.;.>.,.'.).!.~.{.].^./.(._.:.. . . . . ",
". . . . . <.[.}.|.1.).2.3.4.].5.6.7.8.9.. . . . . ",
". . . . . 0.a.b.c.d.e.f.g.h.i.j.k.l.m.n.. . . . . ",
". . . . . <.o.p.q.r.s.t.u.v.w.x.y.z.A.n.. . . . . ",
". . . . . <.B.C.a.D.E.<.F.G.H.I.J.K.L.n.. . . . . ",
". . . . . <.M.N.O.P.Q.<.R.S.H.I.J.T.U.V.. . . . . ",
". . . . . W.X.Y.Z.`.Q.W. +S..+I.++@+#+$+. . . . . ",
". . . . . %+&+*+=+-+;+a >+,+'+)+!+~+{+; . . . . . ",
". . . . . %+]+^+/+(+_+:+<+[+}+|+1+2+3+: . . . . . ",
". . . . . + 4+5+6+7+8+9+0+a+b+c+d+e+f+: . . . . . ",
". . . . . g+h+i+j+k+l+m+n+o+p+q+r+s+t+; . . . . . ",
". . . . . . -.u+j+k+l+v+w+o+x+y+z+A+B+@ . . . . . ",
". . . . . . C+D+E+F+l+v+G+H+x+I+J+K++ . . . . . . ",
". . . . . . . -.L+M+N+O+P+Q+R+S+T+U+. . . . . . . ",
". . . . . . . . U+; - V+W+X+Y+Z+< . . . . . . . . ",
". . . . . . . . . . . . . . . . . . . . . . . . . "};
