/* XPM */
static char * prim_rotary_start_xpm[] = {
"25 25 258 2",
"  	c #808080",
". 	c #808082",
"+ 	c #7F8388",
"@ 	c #837970",
"# 	c #8D633A",
"$ 	c #925619",
"% 	c #955211",
"& 	c #7D6315",
"* 	c #545923",
"= 	c #5B715F",
"- 	c #838488",
"; 	c #808081",
"> 	c #818081",
", 	c #837E83",
"' 	c #7E8281",
") 	c #738973",
"! 	c #7B7D63",
"~ 	c #856D45",
"{ 	c #935313",
"] 	c #974900",
"^ 	c #964C00",
"/ 	c #974D02",
"( 	c #984E03",
"_ 	c #9D4E03",
": 	c #984C00",
"< 	c #795312",
"[ 	c #867057",
"} 	c #847A71",
"| 	c #808183",
"1 	c #808182",
"2 	c #648866",
"3 	c #35B132",
"4 	c #57870A",
"5 	c #914F03",
"6 	c #954C02",
"7 	c #964D02",
"8 	c #974E03",
"9 	c #994E03",
"0 	c #9A4F03",
"a 	c #9B4F03",
"b 	c #9B5003",
"c 	c #9A540D",
"d 	c #8E6B48",
"e 	c #817F7D",
"f 	c #5F4219",
"g 	c #834300",
"h 	c #9B4C02",
"i 	c #964C02",
"j 	c #954D02",
"k 	c #974D03",
"l 	c #994F03",
"m 	c #9C5004",
"n 	c #9D4E01",
"o 	c #B45304",
"p 	c #73612D",
"q 	c #5E3C18",
"r 	c #542C01",
"s 	c #592E01",
"t 	c #783E02",
"u 	c #8B4902",
"v 	c #9A4D02",
"w 	c #9B4F04",
"x 	c #9A5505",
"y 	c #8A6908",
"z 	c #77880C",
"A 	c #3BAC11",
"B 	c #1AB926",
"C 	c #827F82",
"D 	c #5E3D19",
"E 	c #572D01",
"F 	c #582D01",
"G 	c #473202",
"H 	c #134304",
"I 	c #7C4302",
"J 	c #9B5004",
"K 	c #9F5204",
"L 	c #9E6F09",
"M 	c #09C313",
"N 	c #0CC113",
"O 	c #0CC013",
"P 	c #25B22B",
"Q 	c #5F3E1B",
"R 	c #562D01",
"S 	c #493202",
"T 	c #004604",
"U 	c #004404",
"V 	c #213F03",
"W 	c #653902",
"X 	c #883F02",
"Y 	c #9B5103",
"Z 	c #AE5B07",
"` 	c #BD6508",
" .	c #C66909",
"..	c #997E0C",
"+.	c #07C313",
"@.	c #2BAF30",
"#.	c #817F81",
"$.	c #5F3F1D",
"%.	c #493102",
"&.	c #004504",
"*.	c #014504",
"=.	c #004F05",
"-.	c #03CB14",
";.	c #5D3903",
">.	c #CB6D0A",
",.	c #C56A09",
"'.	c #C46909",
").	c #C56809",
"!.	c #8C830C",
"~.	c #0CBF13",
"{.	c #30AC34",
"].	c #60401F",
"^.	c #024F05",
"/.	c #09C513",
"(.	c #5F3803",
"_.	c #CA6C09",
":.	c #C36809",
"<.	c #C56709",
"[.	c #80880D",
"}.	c #08C213",
"|.	c #35A93A",
"1.	c #604121",
"2.	c #562C01",
"3.	c #4A3102",
"4.	c #09C413",
"5.	c #623702",
"6.	c #748E0E",
"7.	c #0BBF13",
"8.	c #3AA53F",
"9.	c #624526",
"0.	c #552C00",
"a.	c #4B3102",
"b.	c #653702",
"c.	c #C86B09",
"d.	c #C26809",
"e.	c #C56609",
"f.	c #68930E",
"g.	c #08C113",
"h.	c #0ABF12",
"i.	c #42A146",
"j.	c #64492C",
"k.	c #552B00",
"l.	c #4B3002",
"m.	c #014404",
"n.	c #673602",
"o.	c #C26708",
"p.	c #C46508",
"q.	c #5B980F",
"r.	c #08C013",
"s.	c #0BBE13",
"t.	c #09BE10",
"u.	c #4A9C4E",
"v.	c #654B31",
"w.	c #552C01",
"x.	c #07C413",
"y.	c #6A3502",
"z.	c #C76B09",
"A.	c #C16708",
"B.	c #C56508",
"C.	c #509E0F",
"D.	c #09C012",
"E.	c #0BBE12",
"F.	c #0BBD12",
"G.	c #08BE0F",
"H.	c #539855",
"I.	c #664F36",
"J.	c #542B00",
"K.	c #4B3001",
"L.	c #025005",
"M.	c #6D3502",
"N.	c #C66A08",
"O.	c #43A30F",
"P.	c #09BF12",
"Q.	c #07BF0F",
"R.	c #5B935D",
"S.	c #69533B",
"T.	c #542A00",
"U.	c #4C2F01",
"V.	c #07C412",
"W.	c #6F3402",
"X.	c #C56908",
"Y.	c #C06608",
"Z.	c #C46408",
"`.	c #37A810",
" +	c #09BE12",
".+	c #06BE0E",
"++	c #638F65",
"@+	c #69543E",
"#+	c #532A00",
"$+	c #4D2F01",
"%+	c #014304",
"&+	c #723402",
"*+	c #2CAE11",
"=+	c #0ABE12",
"-+	c #0BBC12",
";+	c #06BF0D",
">+	c #6B8B6C",
",+	c #776F65",
"'+	c #5B3914",
")+	c #743402",
"!+	c #C46908",
"~+	c #BF6608",
"{+	c #C46308",
"]+	c #20B311",
"^+	c #0ABD12",
"/+	c #0ABC11",
"(+	c #02C00A",
"_+	c #748675",
":+	c #79726B",
"<+	c #58320A",
"[+	c #4D2E01",
"}+	c #09C113",
"|+	c #763402",
"1+	c #C46808",
"2+	c #BE6508",
"3+	c #C36207",
"4+	c #14B812",
"5+	c #09BD10",
"6+	c #22B028",
"7+	c #6C8B6E",
"8+	c #818080",
"9+	c #808181",
"0+	c #818282",
"a+	c #726A5E",
"b+	c #0A470E",
"c+	c #004303",
"d+	c #773502",
"e+	c #C26808",
"f+	c #BE6507",
"g+	c #C36202",
"h+	c #20B125",
"i+	c #539757",
"j+	c #738774",
"k+	c #847E84",
"l+	c #838282",
"m+	c #255428",
"n+	c #004202",
"o+	c #025106",
"p+	c #0CB912",
"q+	c #793602",
"r+	c #BF6404",
"s+	c #B66816",
"t+	c #957757",
"u+	c #867D85",
"v+	c #556C56",
"w+	c #004E01",
"x+	c #0CB711",
"y+	c #7A3602",
"z+	c #967756",
"A+	c #838183",
"B+	c #727C72",
"C+	c #718773",
"D+	c #807060",
"E+	c #857F78",
"F+	c #7F8082",
"G+	c #8F8F8F",
"H+	c #909090",
"I+	c #818181",
"                                                  ",
"                                                  ",
"              . + @ # $ % & * = - ;               ",
"    > , ' ) ! ~ { ] ^ / / ( _ : < [ } | 1         ",
"    2 3 4 5 6 6 7 7 / 8 ( ( 9 0 0 a b c d e       ",
"    f g h i j 7 7 k 8 ( ( l l 0 0 b m m n o p .   ",
"    q r s t u v ( 8 ( ( l l 0 0 b w x y z A B C   ",
"    D E E F G H I 9 ( l l 0 0 J K L M N N O P C   ",
"    Q R E E S T U V W X Y l Z `  ...+.N O O @.#.  ",
"    $.R E E %.&.*.T =.-.;.>.,.'.).!.+.O O ~.{.>   ",
"    ].R R E %.&.*.*.^./.(._.'.:.<.[.}.O ~.~.|.    ",
"    1.2.R E 3.&.*.*.^.4.5._.:.:.<.6.}.~.~.7.8.    ",
"    9.0.R E a.&.*.*.^.4.b.c.:.d.e.f.g.7.7.h.i.    ",
"    j.k.2.R l.&.m.*.^./.n.c.d.o.p.q.r.7.s.t.u.    ",
"    v.k.w.R l.U m.m.^.x.y.z.o.A.B.C.D.E.F.G.H.    ",
"    I.J.w.R K.U m.m.L.x.M.N.A.A.p.O.P.F.F.Q.R.    ",
"    S.T.w.w.U.U m.m.L.V.W.X.A.Y.Z.`. +F.F..+++    ",
"    @+#+w.w.$+U %+m.^.V.&+X.Y.Y.Z.*+=+F.-+;+>+    ",
"    ,+'+#+w.$+U %+m.L.x.)+!+Y.~+{+]+^+-+/+(+_+    ",
"        :+<+[+U %+m.L.}+|+1+~+2+3+4+-+5+6+7+8+    ",
"        9+0+a+b+c+%+L.F.d+e+2+f+g+h+i+j+k+>       ",
"              l+m+n+o+p+q+o.r+s+t+u+>             ",
"                  v+w+x+y+A.z+;                   ",
"                  A+B+C+D+E+F+                    ",
"G+H+G+H+H+H+H+G+H+G+H+H+G+H+G+H+H+H+H+G+H+G+H+G+I+"};
