/* XPM */
static char * prim_cube_xpm[] = {
"25 25 201 2",
"  	c #969696",
". 	c #969698",
"+ 	c #95989C",
"@ 	c #9F978E",
"# 	c #A78C68",
"$ 	c #9D9993",
"% 	c #94979C",
"& 	c #959697",
"* 	c #969799",
"= 	c #999590",
"- 	c #A0907C",
"; 	c #A9793B",
"> 	c #A86005",
", 	c #A76005",
"' 	c #A96004",
") 	c #AB7836",
"! 	c #A18C72",
"~ 	c #9A938A",
"{ 	c #979797",
"] 	c #94979B",
"^ 	c #9E9A93",
"/ 	c #A77D47",
"( 	c #A86A1C",
"_ 	c #A8640B",
": 	c #A86309",
"< 	c #A9640B",
"[ 	c #A96309",
"} 	c #AB640A",
"| 	c #AA6A17",
"1 	c #AA7530",
"2 	c #A58C69",
"3 	c #999A9B",
"4 	c #94979A",
"5 	c #979798",
"6 	c #9B9082",
"7 	c #AD7C3C",
"8 	c #AA6101",
"9 	c #A96308",
"0 	c #AA640B",
"a 	c #AA650B",
"b 	c #AB650B",
"c 	c #AB650A",
"d 	c #AB6305",
"e 	c #B0690E",
"f 	c #AD8551",
"g 	c #9D958A",
"h 	c #A2A4A6",
"i 	c #5D3C12",
"j 	c #784F1A",
"k 	c #A66B1D",
"l 	c #AE6709",
"m 	c #AB660A",
"n 	c #AB660B",
"o 	c #AC660B",
"p 	c #AD660B",
"q 	c #AD670B",
"r 	c #AC6609",
"s 	c #AE680E",
"t 	c #B67725",
"u 	c #B56E11",
"v 	c #A89173",
"w 	c #9A9C9E",
"x 	c #573A13",
"y 	c #4B2C04",
"z 	c #4C2F08",
"A 	c #724E1F",
"B 	c #9B6218",
"C 	c #AA6811",
"D 	c #AF680B",
"E 	c #AE670B",
"F 	c #AE670C",
"G 	c #B06B12",
"H 	c #B57421",
"I 	c #B87821",
"J 	c #B46C0E",
"K 	c #B46C0D",
"L 	c #A79276",
"M 	c #959696",
"N 	c #563913",
"O 	c #4D2D05",
"P 	c #4D2E06",
"Q 	c #4D2E05",
"R 	c #503109",
"S 	c #5C3A0C",
"T 	c #7F551F",
"U 	c #AE6D1A",
"V 	c #B3680A",
"W 	c #AF6709",
"X 	c #B26F17",
"Y 	c #B87823",
"Z 	c #B67115",
"` 	c #B66E11",
" .	c #B56E10",
"..	c #B46D10",
"+.	c #B56F12",
"@.	c #A18E75",
"#.	c #969697",
"$.	c #999B9D",
"%.	c #5C421F",
"&.	c #4C2D05",
"*.	c #4E2F06",
"=.	c #4F3006",
"-.	c #4D2E04",
";.	c #4E320D",
">.	c #7A5421",
",.	c #B37626",
"'.	c #B9751A",
").	c #B66E0E",
"!.	c #B66E10",
"~.	c #B36D10",
"{.	c #B56E13",
"].	c #A08D76",
"^.	c #5E4423",
"/.	c #4B2D05",
"(.	c #4D2F06",
"_.	c #4F2F06",
":.	c #503006",
"<.	c #53350C",
"[.	c #A96914",
"}.	c #B76F10",
"|.	c #B36C10",
"1.	c #B46E13",
"2.	c #9D9181",
"3.	c #5E4422",
"4.	c #4C2E06",
"5.	c #55350C",
"6.	c #A86914",
"7.	c #B66F10",
"8.	c #B26C10",
"9.	c #B36E15",
"0.	c #9C9183",
"a.	c #999A9C",
"b.	c #624A2A",
"c.	c #4A2C04",
"d.	c #4C2E05",
"e.	c #56370C",
"f.	c #AB6A15",
"g.	c #B26C0F",
"h.	c #B16B0F",
"i.	c #B26E15",
"j.	c #9C9284",
"k.	c #665033",
"l.	c #4A2C03",
"m.	c #57360D",
"n.	c #AA6A15",
"o.	c #B06F18",
"p.	c #9B9287",
"q.	c #664F32",
"r.	c #56360D",
"s.	c #A96A15",
"t.	c #B36D0F",
"u.	c #B06B0F",
"v.	c #B06F19",
"w.	c #9B9388",
"x.	c #492C03",
"y.	c #4E2F05",
"z.	c #56360B",
"A.	c #B06A0F",
"B.	c #AF6F1C",
"C.	c #9A948B",
"D.	c #979899",
"E.	c #7B6D59",
"F.	c #452600",
"G.	c #4A2D05",
"H.	c #B16C0F",
"I.	c #AF6708",
"J.	c #B07B37",
"K.	c #999794",
"L.	c #99999B",
"M.	c #8A8378",
"N.	c #5A4121",
"O.	c #4B2D06",
"P.	c #A76814",
"Q.	c #B1690D",
"R.	c #AF7221",
"S.	c #A78D6C",
"T.	c #959AA0",
"U.	c #969797",
"V.	c #979695",
"W.	c #8C857D",
"X.	c #614A2A",
"Y.	c #472800",
"Z.	c #B06A0E",
"`.	c #B16A0E",
" +	c #A78B64",
".+	c #99958F",
"++	c #969798",
"@+	c #9A9B9D",
"#+	c #877E71",
"$+	c #5A401E",
"%+	c #56350A",
"&+	c #A96813",
"*+	c #B16C11",
"=+	c #AE7B38",
"-+	c #9F9991",
";+	c #959699",
">+	c #6D5330",
",+	c #AA7633",
"'+	c #9F9383",
")+	c #9A9B9E",
"!+	c #96999D",
"                                                  ",
"                                                  ",
"                        .                         ",
"                    + @ # $ % &                   ",
"              * = - ; > , ' ) ! ~ { &             ",
"          ] ^ / ( _ : < < < [ } | 1 2 3 4         ",
"      5 6 7 8 9 < < 0 0 a a b b b c d e f g       ",
"      h i j k l m n o o o p p p q r s t u v &     ",
"      w x y z A B C D q E E E F G H I J K L M     ",
"      w N O P Q R S T U V W X Y Z `  ...+.@.#.    ",
"      $.%.&.P *.*.=.-.;.>.,.'.).!. ...~.{.].#.    ",
"      $.^./.P (.*._.=.:.<.[.}.!. .....|.1.2.      ",
"      $.3./.4.P (.*.=.=.5.6.7. . ...~.8.9.0.      ",
"      a.b.c.d.P P *.*._.e.f. .....|.g.h.i.j.      ",
"      a.k.l.d.d.Q (.*._.m.n. ...~.g.g.h.o.p.      ",
"      a.q.c./.d.d.Q Q *.r.s...t.g.g.h.u.v.w.      ",
"      a.k.x././.d.Q Q y.z.[.t.g.g.h.h.A.B.C.      ",
"      D.E.F.G././.d.d.Q 5.6.g.H.h.u.A.I.J.K.      ",
"        L.M.N.O.c.&.d.Q 5.P.g.h.h.Q.R.S.T.        ",
"          U.V.W.X.Y.&.&.5.P.h.Z.`. +.+++          ",
"                @+#+$+4.%+&+*+=+-+;+              ",
"                  { V.W.>+,+'+{                   ",
"                        )+!+                      ",
"                                                  ",
"                                                  "};
