/* XPM */
static char * prim_torus_xpm[] = {
"25 25 244 2",
"  	c #969696",
". 	c #959596",
"+ 	c #959697",
"@ 	c #959696",
"# 	c #979798",
"$ 	c #9F9F9F",
"% 	c #A7A199",
"& 	c #A59887",
"* 	c #A49683",
"= 	c #A69A8A",
"- 	c #A59F97",
"; 	c #9E9E9F",
"> 	c #969797",
", 	c #989797",
"' 	c #A39D93",
") 	c #B79F80",
"! 	c #C89C64",
"~ 	c #D0954A",
"{ 	c #D68E30",
"] 	c #DB9A46",
"^ 	c #D8A058",
"/ 	c #D18D34",
"( 	c #C98B3B",
"_ 	c #C58F49",
": 	c #BF965F",
"< 	c #B39979",
"[ 	c #A39A8E",
"} 	c #999794",
"| 	c #9C9893",
"1 	c #B49E80",
"2 	c #C48C46",
"3 	c #D7933B",
"4 	c #E89D3B",
"5 	c #F1A642",
"6 	c #F4AE4E",
"7 	c #F4AB4A",
"8 	c #EDA13E",
"9 	c #DFA050",
"0 	c #D29441",
"a 	c #C98E43",
"b 	c #BF863C",
"c 	c #B87F37",
"d 	c #BD8B4B",
"e 	c #B79467",
"f 	c #A09585",
"g 	c #99938D",
"h 	c #A18157",
"i 	c #B47B31",
"j 	c #D29341",
"k 	c #E69B3C",
"l 	c #EFA340",
"m 	c #F0A94C",
"n 	c #EDAA50",
"o 	c #E5A64F",
"p 	c #D89D4F",
"q 	c #C7904B",
"r 	c #BB8A48",
"s 	c #B28140",
"t 	c #A77737",
"u 	c #A17235",
"v 	c #A8783A",
"w 	c #B9823C",
"x 	c #C49253",
"y 	c #A99882",
"z 	c #949597",
"A 	c #989796",
"B 	c #958065",
"C 	c #A07236",
"D 	c #BA8744",
"E 	c #CB9753",
"F 	c #D99F55",
"G 	c #D99B4A",
"H 	c #D5994B",
"I 	c #C68D41",
"J 	c #B3803F",
"K 	c #9F753C",
"L 	c #8F6B3C",
"M 	c #89673A",
"N 	c #8A683C",
"O 	c #82643C",
"P 	c #866A45",
"Q 	c #9A7340",
"R 	c #B88441",
"S 	c #CD9146",
"T 	c #CC9856",
"U 	c #9F9991",
"V 	c #969697",
"W 	c #918D89",
"X 	c #856841",
"Y 	c #A06F30",
"Z 	c #B37B34",
"` 	c #BC8842",
" .	c #C79E6B",
"..	c #BB9768",
"+.	c #9A7A4F",
"@.	c #927A5A",
"#.	c #8E7F6B",
"$.	c #8B8070",
"%.	c #7A7165",
"&.	c #686054",
"*.	c #52493E",
"=.	c #706860",
"-.	c #99856A",
";.	c #B3884E",
">.	c #C98A38",
",.	c #DA9030",
"'.	c #DB963E",
").	c #B29A7D",
"!.	c #939699",
"~.	c #979898",
"{.	c #8E8882",
"].	c #826744",
"^.	c #9A6A2C",
"/.	c #B17A32",
"(.	c #BB7E2E",
"_.	c #C08943",
":.	c #BF9154",
"<.	c #B79870",
"[.	c #A49E97",
"}.	c #A3A5A8",
"|.	c #A3A19E",
"1.	c #A59D91",
"2.	c #AD987A",
"3.	c #BA9465",
"4.	c #C68D44",
"5.	c #D79033",
"6.	c #E29C3E",
"7.	c #E9982E",
"8.	c #DD983D",
"9.	c #B5976F",
"0.	c #93969A",
"a.	c #979797",
"b.	c #8D8C8B",
"c.	c #685135",
"d.	c #8A632F",
"e.	c #A66F27",
"f.	c #BA8237",
"g.	c #C58837",
"h.	c #CA8D3C",
"i.	c #CC8D3A",
"j.	c #CB8B36",
"k.	c #CA8E3E",
"l.	c #CA852D",
"m.	c #CF9242",
"n.	c #D59137",
"o.	c #DD973C",
"p.	c #E59C3D",
"q.	c #ECA03D",
"r.	c #F2A43F",
"s.	c #F39F31",
"t.	c #E99E3D",
"u.	c #D49340",
"v.	c #AB967A",
"w.	c #949699",
"x.	c #999A9A",
"y.	c #746D64",
"z.	c #654822",
"A.	c #906935",
"B.	c #A8722C",
"C.	c #C08A43",
"D.	c #C7832A",
"E.	c #D3923E",
"F.	c #DA973F",
"G.	c #E19D43",
"H.	c #E99C3A",
"I.	c #EDA94F",
"J.	c #F4A53D",
"K.	c #F5AC4A",
"L.	c #F9A83A",
"M.	c #F9A839",
"N.	c #F4AC4B",
"O.	c #EC992C",
"P.	c #D9963C",
"Q.	c #B88A4E",
"R.	c #9B948B",
"S.	c #8C8C8C",
"T.	c #564B3C",
"U.	c #6D5638",
"V.	c #825A25",
"W.	c #A07032",
"X.	c #AD762F",
"Y.	c #C38C45",
"Z.	c #CE9345",
"`.	c #DA9840",
" +	c #E49B3B",
".+	c #EBA952",
"++	c #F0A43F",
"@+	c #EFA94C",
"#+	c #EEA645",
"$+	c #EA9B31",
"%+	c #E19C40",
"&+	c #CA852C",
"*+	c #B58749",
"=+	c #9E8D77",
"-+	c #96989A",
";+	c #959595",
">+	c #9C9C9D",
",+	c #888888",
"'+	c #756F67",
")+	c #523F27",
"!+	c #6F5635",
"~+	c #7D5929",
"{+	c #9B7138",
"]+	c #AB7B3C",
"^+	c #B98138",
"/+	c #C18230",
"(+	c #CD9347",
"_+	c #D08E37",
":+	c #D09344",
"<+	c #C98B3A",
"[+	c #B97E31",
"}+	c #B07E3B",
"|+	c #9D7746",
"1+	c #9F9486",
"2+	c #959797",
"3+	c #989898",
"4+	c #82807E",
"5+	c #7A766F",
"6+	c #5A4E3F",
"7+	c #59472E",
"8+	c #644B29",
"9+	c #725124",
"0+	c #7E5722",
"a+	c #926E3C",
"b+	c #875C22",
"c+	c #8A6431",
"d+	c #896639",
"e+	c #937C5D",
"f+	c #958877",
"g+	c #95918C",
"h+	c #98999B",
"i+	c #999999",
"j+	c #8D8D8C",
"k+	c #8D8B8A",
"l+	c #837F7C",
"m+	c #807B73",
"n+	c #6D655A",
"o+	c #837B70",
"p+	c #81786C",
"q+	c #8F8981",
"r+	c #94918C",
"s+	c #959392",
"t+	c #969695",
"u+	c #949494",
"                                                  ",
"                                                  ",
"                                                  ",
"                                                  ",
"                                                  ",
"                  . . + + + . @                   ",
"                # $ % & * = - ;                   ",
"        > , ' ) ! ~ { ] ^ / ( _ : < [ }           ",
"      # | 1 2 3 4 5 6 7 8 9 0 a b c d e f         ",
"    > g h i j k l m n o p q r s t u v w x y z     ",
"    A B C D E F G H I J K L M N O P Q R S T U +   ",
"  V W X Y Z `  ...+.@.#.$.%.&.*.=.-.;.>.,.'.).!.  ",
"  ~.{.].^./.(._.:.<.y [.}.|.1.2.3.4.5.6.7.8.9.0.  ",
"  a.b.c.d.e.f.g.h.i.j.k.l.m.n.o.p.q.r.s.t.u.v.w.  ",
"    x.y.z.A.B.C.D.E.F.G.H.I.J.K.L.M.N.O.P.Q.R.+   ",
"    x.S.T.U.V.W.X.Y.Z.`. +.+++@+#+$+%+&+*+=+-+    ",
"    ;+>+,+'+)+!+~+{+]+^+/+(+_+:+<+[+}+|+1+2+      ",
"        3+x.4+5+6+7+8+9+0+a+b+c+d+e+f+g+h+        ",
"            i+. j+k+l+m+n+o+p+q+r+s+  V           ",
"                      t+u+;+;+                    ",
"                                                  ",
"                                                  ",
"                                                  ",
"                                                  ",
"                                                  "};
