/* XPM */
static char * cone_bot_xpm[] = {
"25 25 316 2",
"  	c #808080",
". 	c #7F7F7F",
"+ 	c #8E8E8E",
"@ 	c #7F8080",
"# 	c #7F7F80",
"$ 	c #808180",
"% 	c #828181",
"& 	c #838282",
"* 	c #818181",
"= 	c #828282",
"- 	c #878685",
"; 	c #8C8A89",
"> 	c #8D8C8A",
", 	c #8F8D8B",
"' 	c #908D8C",
") 	c #908E8C",
"! 	c #918E8D",
"~ 	c #908E8D",
"{ 	c #8C8A8A",
"] 	c #868584",
"^ 	c #807F80",
"/ 	c #818080",
"( 	c #898887",
"_ 	c #918F8D",
": 	c #928F8E",
"< 	c #93908E",
"[ 	c #93918F",
"} 	c #94918F",
"| 	c #949190",
"1 	c #959290",
"2 	c #959291",
"3 	c #838383",
"4 	c #888785",
"5 	c #92908E",
"6 	c #93908F",
"7 	c #949290",
"8 	c #969391",
"9 	c #979492",
"0 	c #7C7673",
"a 	c #939290",
"b 	c #959391",
"c 	c #969392",
"d 	c #979695",
"e 	c #948782",
"f 	c #5E4F4A",
"g 	c #4F4542",
"h 	c #969493",
"i 	c #949291",
"j 	c #959594",
"k 	c #969594",
"l 	c #9C877F",
"m 	c #8B5C4C",
"n 	c #808081",
"o 	c #64524C",
"p 	c #29130B",
"q 	c #331D16",
"r 	c #614E47",
"s 	c #7C706A",
"t 	c #8C8581",
"u 	c #918D8B",
"v 	c #938E8C",
"w 	c #948F8D",
"x 	c #95908E",
"y 	c #96908E",
"z 	c #978F8C",
"A 	c #9C8983",
"B 	c #A38277",
"C 	c #A97664",
"D 	c #A46B58",
"E 	c #814D3C",
"F 	c #808181",
"G 	c #6D5A53",
"H 	c #3C1E14",
"I 	c #2F1911",
"J 	c #43271E",
"K 	c #513025",
"L 	c #5C372A",
"M 	c #684235",
"N 	c #764E41",
"O 	c #855A4C",
"P 	c #906252",
"Q 	c #9B6755",
"R 	c #AB705D",
"S 	c #AC735F",
"T 	c #A9715F",
"U 	c #9C6451",
"V 	c #7E4B3A",
"W 	c #705D56",
"X 	c #512B1F",
"Y 	c #2E160E",
"Z 	c #42271E",
"` 	c #533328",
" .	c #5E3B30",
"..	c #684336",
"+.	c #744B3D",
"@.	c #835546",
"#.	c #8F5E4E",
"$.	c #9A6756",
"%.	c #A36D5B",
"&.	c #AA7260",
"*.	c #AB7360",
"=.	c #A7705D",
"-.	c #955B48",
";.	c #7C4A38",
">.	c #705E59",
",.	c #693B2B",
"'.	c #2D130B",
").	c #3F241B",
"!.	c #513226",
"~.	c #5C3A2E",
"{.	c #674235",
"].	c #744B3E",
"^.	c #825547",
"/.	c #8F5E4F",
"(.	c #9B6756",
"_.	c #A9725F",
":.	c #A46C5A",
"<.	c #8E533E",
"[.	c #7B4A3A",
"}.	c #70605B",
"|.	c #724030",
"1.	c #411F14",
"2.	c #391E15",
"3.	c #4E2F24",
"4.	c #5B392D",
"5.	c #654033",
"6.	c #724B3D",
"7.	c #825546",
"8.	c #8E5E4E",
"9.	c #996756",
"0.	c #A36E5C",
"a.	c #A16855",
"b.	c #894A35",
"c.	c #7B4C3C",
"d.	c #71625E",
"e.	c #6E3E2E",
"f.	c #663727",
"g.	c #2E150C",
"h.	c #4C2C22",
"i.	c #5A372C",
"j.	c #643F32",
"k.	c #72493C",
"l.	c #815446",
"m.	c #A8725F",
"n.	c #A8705E",
"o.	c #9B604C",
"p.	c #864631",
"q.	c #7B4E3E",
"r.	c #726561",
"s.	c #6B3D2D",
"t.	c #7E4633",
"u.	c #33160C",
"v.	c #46281E",
"w.	c #58362A",
"x.	c #623E31",
"y.	c #71483B",
"z.	c #805445",
"A.	c #8E5E4D",
"B.	c #A46F5C",
"C.	c #A8715F",
"D.	c #A56F5C",
"E.	c #94543F",
"F.	c #874731",
"G.	c #7B4F40",
"H.	c #736763",
"I.	c #6A3C2D",
"J.	c #7D4633",
"K.	c #542A1B",
"L.	c #3D2016",
"M.	c #553428",
"N.	c #603D30",
"O.	c #6F483A",
"P.	c #805345",
"Q.	c #A46E5C",
"R.	c #A7715E",
"S.	c #A26A57",
"T.	c #8E4B34",
"U.	c #864832",
"V.	c #7B5142",
"W.	c #756965",
"X.	c #693B2C",
"Y.	c #7A4532",
"Z.	c #753F2D",
"`.	c #36190F",
" +	c #533126",
".+	c #5F3B2E",
"++	c #6E4639",
"@+	c #7F5344",
"#+	c #8D5E4E",
"$+	c #A46E5D",
"%+	c #A6705E",
"&+	c #9B5E4A",
"*+	c #8E4B33",
"=+	c #864732",
"-+	c #7B5244",
";+	c #756C69",
">+	c #683B2C",
",+	c #7A4432",
"'+	c #7E4531",
")+	c #462115",
"!+	c #4E2C21",
"~+	c #5E3A2D",
"{+	c #6C4537",
"]+	c #7E5244",
"^+	c #9A6857",
"/+	c #A46F5D",
"(+	c #95523C",
"_+	c #8D4B34",
":+	c #7B5347",
"<+	c #776D6B",
"[+	c #673B2C",
"}+	c #774331",
"|+	c #794331",
"1+	c #5A2D1E",
"2+	c #46261A",
"3+	c #5C382C",
"4+	c #6A4335",
"5+	c #7D5243",
"6+	c #8D5E4F",
"7+	c #9B6857",
"8+	c #A36F5D",
"9+	c #A16754",
"0+	c #A25337",
"a+	c #984E35",
"b+	c #864632",
"c+	c #7B5449",
"d+	c #78716D",
"e+	c #62382B",
"f+	c #6E3F30",
"g+	c #784230",
"h+	c #6A3726",
"i+	c #472418",
"j+	c #5A362A",
"k+	c #694134",
"l+	c #7D5142",
"m+	c #8E5F4F",
"n+	c #9C6A59",
"o+	c #A26E5D",
"p+	c #A15F49",
"q+	c #A45236",
"r+	c #9A4C33",
"s+	c #7E584B",
"t+	c #78716F",
"u+	c #5E382A",
"v+	c #6E4030",
"w+	c #774230",
"x+	c #763F2C",
"y+	c #4A2417",
"z+	c #563327",
"A+	c #674033",
"B+	c #7C5041",
"C+	c #A06C5A",
"D+	c #A15840",
"E+	c #A34F34",
"F+	c #8D5D4D",
"G+	c #797472",
"H+	c #7E4431",
"I+	c #673423",
"J+	c #532E22",
"K+	c #643E32",
"L+	c #7A4F41",
"M+	c #8E6151",
"N+	c #9D6C5C",
"O+	c #A0634F",
"P+	c #A25238",
"Q+	c #A35236",
"R+	c #A34E32",
"S+	c #8F6658",
"T+	c #807F7F",
"U+	c #725C55",
"V+	c #6E4031",
"W+	c #7D4430",
"X+	c #824631",
"Y+	c #854631",
"Z+	c #804632",
"`+	c #874C38",
" @	c #94533E",
".@	c #9B5138",
"+@	c #A04F34",
"@@	c #A25136",
"#@	c #A35136",
"$@	c #9B5943",
"%@	c #837B78",
"&@	c #818283",
"*@	c #7A6A65",
"=@	c #785143",
"-@	c #7D4A39",
";@	c #824733",
">@	c #86452F",
",@	c #8B4730",
"'@	c #924930",
")@	c #974B30",
"!@	c #9C4C32",
"~@	c #A04F35",
"{@	c #A0543B",
"]@	c #9D5A43",
"^@	c #946758",
"/@	c #827D7C",
"(@	c #7F8181",
"_@	c #7E7471",
":@	c #7F6C66",
"<@	c #81675E",
"[@	c #846459",
"}@	c #886256",
"|@	c #8B6557",
"1@	c #8B685D",
"2@	c #8A6E65",
"3@	c #87746D",
"4@	c #817C7A",
"5@	c #7D8182",
"6@	c #7E7E7E",
"7@	c #8D8D8D",
"8@	c #8E8F8F",
"9@	c #8F8E8E",
"0@	c #8E8E8F",
"a@	c #9B9B9B",
"                                              . + ",
"              @ # $ % & & & & *   .           . + ",
"          . = - ; > , ' ) ! ~ ) ' { ] ^       . + ",
"        / ( ~ ! _ : : < < [ } | 1 1 2 : 3     . + ",
"        4 : ! _ : 5 < 6 } } | 7 1 2 8 9 2     . + ",
"        0 a 5 5 < 6 [ } | | 1 2 b c c d e     . + ",
"        f g ) h i } | | 7 2 2 8 c j k l m n   . + ",
"        o p q r s t u v w x y z A B C D E F   . + ",
"        G H I J K L M N O P Q D R S T U V n   . + ",
"        W X Y Z `  ...+.@.#.$.%.&.*.=.-.;.n   . + ",
"        >.,.'.).!.~.{.].^./.(.%._.&.:.<.[.n   . + ",
"        }.|.1.2.3.4.5.6.7.8.9.0._._.a.b.c.n   . + ",
"        d.e.f.g.h.i.j.k.l.8.$.0.m.n.o.p.q.n   . + ",
"        r.s.t.u.v.w.x.y.z.A.$.B.C.D.E.F.G.n   . + ",
"        H.I.J.K.L.M.N.O.P.8.$.Q.R.S.T.U.V.n   . + ",
"        W.X.Y.Z.`. +.+++@+#+(.$+%+&+*+=+-+    . + ",
"        ;+>+,+'+)+!+~+{+]+8.^+/+Q.(+_+=+:+    . + ",
"        <+[+}+|+1+2+3+4+5+6+7+8+9+0+a+b+c+    . + ",
"        d+e+f+g+h+i+j+k+l+m+n+o+p+q+q+r+s+    . + ",
"        t+u+v+w+x+y+z+A+B+m+n+C+D+q+q+E+F+    . + ",
"        G+x.f+w+H+I+J+K+L+M+N+O+P+q+Q+R+S+    . + ",
"        T+U+V+w+W+X+Y+Z+`+ @.@+@@@q+#@$@%@    . + ",
"          &@*@=@-@;@>@,@'@)@!@~@{@]@^@/@F     . + ",
". . . . . . (@. _@:@<@[@}@|@1@2@3@4@5@. . . . 6@7@",
"+ + + + + + + 8@8@8@8@9@9@9@0@8@8@8@+ + + + + 7@a@"};
