/* XPM */
static char * prim_spherical_radius_xpm[] = {
"25 25 315 2",
"  	c #808080",
". 	c #808081",
"+ 	c #808182",
"@ 	c #808181",
"# 	c #818182",
"$ 	c #818487",
"% 	c #79736E",
"& 	c #72573D",
"* 	c #704C27",
"= 	c #715539",
"- 	c #796F65",
"; 	c #818385",
"> 	c #818283",
", 	c #7E7D7C",
"' 	c #7D7770",
") 	c #786551",
"! 	c #754B1F",
"~ 	c #80470D",
"{ 	c #884E12",
"] 	c #854D13",
"^ 	c #7D4812",
"/ 	c #75420E",
"( 	c #724517",
"_ 	c #785D42",
": 	c #7D7369",
"< 	c #7F7B77",
"[ 	c #735E46",
"} 	c #7A4E22",
"| 	c #834D16",
"1 	c #8B5012",
"2 	c #935514",
"3 	c #985815",
"4 	c #985714",
"5 	c #925413",
"6 	c #8C5114",
"7 	c #884F14",
"8 	c #864E14",
"9 	c #844C12",
"0 	c #814B13",
"a 	c #81501E",
"b 	c #85592E",
"c 	c #82766A",
"d 	c #7F8182",
"e 	c #704E2A",
"f 	c #8A4F10",
"g 	c #935613",
"h 	c #995914",
"i 	c #9D5B15",
"j 	c #9F5B14",
"k 	c #A05D16",
"l 	c #9D5D1B",
"m 	c #9A6125",
"n 	c #95591C",
"o 	c #915417",
"p 	c #915314",
"q 	c #955514",
"r 	c #9D5A15",
"s 	c #A55F16",
"t 	c #AB6117",
"u 	c #AB6115",
"v 	c #897664",
"w 	c #6E5D4B",
"x 	c #874D10",
"y 	c #965714",
"z 	c #9A5914",
"A 	c #9D5A12",
"B 	c #9D5D17",
"C 	c #9B6429",
"D 	c #9B6933",
"E 	c #9E6C38",
"F 	c #A06E3A",
"G 	c #A5703A",
"H 	c #AD7237",
"I 	c #B57330",
"J 	c #B56C21",
"K 	c #B66715",
"L 	c #BC6B17",
"M 	c #BF6E19",
"N 	c #BF6D18",
"O 	c #A8621A",
"P 	c #7E8286",
"Q 	c #664A2C",
"R 	c #874F14",
"S 	c #8F5314",
"T 	c #935716",
"U 	c #905F2B",
"V 	c #966839",
"W 	c #9A6A39",
"X 	c #9B6B38",
"Y 	c #A36F3A",
"Z 	c #B97B3B",
"` 	c #C8833C",
" .	c #CE873D",
"..	c #D58B40",
"+.	c #D88C3E",
"@.	c #D0812F",
"#.	c #C16F1A",
"$.	c #BD6D19",
"%.	c #AE6112",
"&.	c #7E7A76",
"*.	c #624529",
"=.	c #7B4914",
"-.	c #844D14",
";.	c #865016",
">.	c #734C22",
",.	c #7B5125",
"'.	c #885C2C",
").	c #986937",
"!.	c #A4713B",
"~.	c #B27A3F",
"{.	c #C58441",
"].	c #D2893E",
"^.	c #DA8F42",
"/.	c #E2984B",
"(.	c #E49B4F",
"_.	c #D99145",
":.	c #B76918",
"<.	c #AF6519",
"[.	c #9F5910",
"}.	c #7E7B77",
"|.	c #61462B",
"1.	c #784714",
"2.	c #7B4A16",
"3.	c #664521",
"4.	c #6D4821",
"5.	c #734C21",
"6.	c #7A4F21",
"7.	c #90602D",
"8.	c #B27A3E",
"9.	c #CF8E49",
"0.	c #DD984F",
"a.	c #E49C52",
"b.	c #DF9A51",
"c.	c #DA9650",
"d.	c #CA8742",
"e.	c #A96217",
"f.	c #A66018",
"g.	c #99560F",
"h.	c #7F7E7F",
"i.	c #818282",
"j.	c #61472E",
"k.	c #774614",
"l.	c #7A4914",
"m.	c #784916",
"n.	c #5F4121",
"o.	c #624321",
"p.	c #674521",
"q.	c #6F4921",
"r.	c #7F5324",
"s.	c #98652D",
"t.	c #CE9150",
"u.	c #D79651",
"v.	c #D69550",
"w.	c #D0924F",
"x.	c #CD8F4F",
"y.	c #C0803E",
"z.	c #A56016",
"A.	c #A45F17",
"B.	c #94520E",
"C.	c #7F8386",
"D.	c #604931",
"E.	c #744613",
"F.	c #794814",
"G.	c #774816",
"H.	c #5D4021",
"I.	c #8B5B29",
"J.	c #BE864B",
"K.	c #CA8F4F",
"L.	c #CA8E4F",
"M.	c #C98E4F",
"N.	c #BC7C3A",
"O.	c #A35E16",
"P.	c #A15D16",
"Q.	c #905313",
"R.	c #7F8387",
"S.	c #604B35",
"T.	c #734413",
"U.	c #784814",
"V.	c #764716",
"W.	c #5B3F20",
"X.	c #614221",
"Y.	c #654421",
"Z.	c #724B22",
"`.	c #875928",
" +	c #BA8449",
".+	c #C78D4D",
"++	c #C88D4E",
"@+	c #C78C4E",
"#+	c #C68C4E",
"$+	c #B77937",
"%+	c #9E5C16",
"&+	c #8C541A",
"*+	c #604C38",
"=+	c #714313",
"-+	c #764714",
";+	c #774817",
">+	c #5A3D20",
",+	c #5E4021",
"'+	c #634421",
")+	c #6F4A22",
"!+	c #865828",
"~+	c #B98349",
"{+	c #C58B4D",
"]+	c #C68B4E",
"^+	c #C48B4D",
"/+	c #C38A4E",
"(+	c #B37534",
"_+	c #9F5D15",
":+	c #9C5A15",
"<+	c #885521",
"[+	c #808386",
"}+	c #604D3A",
"|+	c #7B4915",
"1+	c #794917",
"2+	c #563C20",
"3+	c #593E20",
"4+	c #5C3F21",
"5+	c #6D4921",
"6+	c #845727",
"7+	c #B68149",
"8+	c #C28A4D",
"9+	c #C0884D",
"0+	c #C0894E",
"a+	c #B27432",
"b+	c #A05D15",
"c+	c #9B5B14",
"d+	c #855828",
"e+	c #808385",
"f+	c #6A5D4F",
"g+	c #734312",
"h+	c #7D4A15",
"i+	c #6D4419",
"j+	c #5C3E1E",
"k+	c #5A3E21",
"l+	c #5E4121",
"m+	c #6B4721",
"n+	c #815627",
"o+	c #B48049",
"p+	c #C0884C",
"q+	c #BF884E",
"r+	c #BC8347",
"s+	c #B47736",
"t+	c #A76118",
"u+	c #A25E16",
"v+	c #9B5914",
"w+	c #84603C",
"x+	c #808284",
"y+	c #7C7A7A",
"z+	c #5C360F",
"A+	c #744514",
"B+	c #784713",
"C+	c #754613",
"D+	c #6E4216",
"E+	c #65421C",
"F+	c #674621",
"G+	c #7F5528",
"H+	c #B27F4A",
"I+	c #BD854A",
"J+	c #B3712B",
"K+	c #AC661B",
"L+	c #A86115",
"M+	c #A66016",
"N+	c #8A5013",
"O+	c #7C7164",
"P+	c #818181",
"Q+	c #6F6963",
"R+	c #573A1E",
"S+	c #5C3811",
"T+	c #683E12",
"U+	c #6C4013",
"V+	c #6F4213",
"W+	c #744412",
"X+	c #845421",
"Y+	c #A76C2D",
"Z+	c #AA6115",
"`+	c #A96116",
" @	c #A66017",
".@	c #A45E16",
"+@	c #985814",
"@@	c #804E19",
"#@	c #6E5944",
"$@	c #7A7978",
"%@	c #69625A",
"&@	c #483118",
"*@	c #57330E",
"=@	c #673D12",
"-@	c #7B4813",
";@	c #8C5113",
">@	c #9E5B14",
",@	c #A76016",
"'@	c #A55F17",
")@	c #7C460E",
"!@	c #715941",
"~@	c #7B7772",
"{@	c #838485",
"]@	c #605851",
"^@	c #503922",
"/@	c #583511",
"(@	c #6D4012",
"_@	c #834C13",
":@	c #945513",
"<@	c #975713",
"[@	c #855018",
"}@	c #6F5030",
"|@	c #797775",
"1@	c #818384",
"2@	c #7C7C7B",
"3@	c #6F6A65",
"4@	c #54402C",
"5@	c #532F0A",
"6@	c #643B10",
"7@	c #6F573C",
"8@	c #7A746E",
"9@	c #7F8081",
"0@	c #818284",
"                                                  ",
"                                                  ",
"                    . + + + @                     ",
"                # $ % & * = - ; >                 ",
"          + , ' ) ! ~ { ] ^ / ( _ : < @ .         ",
"        . [ } | 1 2 3 4 5 6 7 8 9 0 a b c d       ",
"      @ e f g h i j k l m n o p q r s t u v .     ",
"    + w x y z A B C D E F G H I J K L M N O P     ",
"    # Q R S T U V W X X Y Z `  ...+.@.#.$.%.&.    ",
"    # *.=.-.;.>.,.'.).!.~.{.].^./.(._.:.<.[.}.    ",
"    > |.1.=.2.3.4.5.6.7.8.9.0.a.b.c.d.e.f.g.h.    ",
"    i.j.k.l.m.n.o.p.q.r.s.t.u.v.w.x.y.z.A.B.C.    ",
"    i.D.E.F.G.H.n.o.p.>.I.J.K.K.L.M.N.O.P.Q.R.    ",
"    i.S.T.U.V.W.H.X.Y.Z.`. +.+++@+#+$+k %+&+C.    ",
"    i.*+=+-+;+>+W.,+'+)+!+~+{+]+^+/+(+_+:+<+[+    ",
"    # }+T.|+1+2+3+4+X.5+6+7+8+8+9+0+a+b+c+d+e+    ",
"    # f+g+|+h+i+j+k+l+m+n+o+p+q+r+s+t+u+v+w+x+    ",
"      y+z+A+1.B+C+D+E+F+G+H+I+J+K+L+M+b+N+O+.     ",
"      P+Q+R+S+T+U+V+W+|+X+Y+Z+`+ @.@+@@@#@.       ",
"        . $@%@&@*@=@V+-@;@>@,@'@h )@!@~@@         ",
"            P+{@]@^@/@(@_@:@<@[@}@|@1@            ",
"                # 2@3@4@5@6@7@8@9@.               ",
"                    . {@9@0@0@                    ",
"                                                  ",
"                                                  "};
