/* XPM */
static char * cone_top_xpm[] = {
"25 25 357 2",
"  	c #808080",
". 	c #7F8181",
"+ 	c #7F8182",
"@ 	c #7E8283",
"# 	c #7F8283",
"$ 	c #808182",
"% 	c #808181",
"& 	c #808283",
"* 	c #808383",
"= 	c #808081",
"- 	c #877A77",
"; 	c #907268",
"> 	c #956B5D",
", 	c #966556",
"' 	c #926352",
") 	c #8E6152",
"! 	c #885F51",
"~ 	c #815D51",
"{ 	c #7E6057",
"] 	c #7B675F",
"^ 	c #7C706E",
"/ 	c #7F7E7E",
"( 	c #807F7F",
"_ 	c #8C7770",
": 	c #9E6957",
"< 	c #A16450",
"[ 	c #9E6451",
"} 	c #9C6452",
"| 	c #986757",
"1 	c #94685A",
"2 	c #8E695C",
"3 	c #8A6659",
"4 	c #846255",
"5 	c #7F5C50",
"6 	c #79574C",
"7 	c #73554B",
"8 	c #6C544B",
"9 	c #6F6561",
"0 	c #7D7C7B",
"a 	c #8E7269",
"b 	c #A26550",
"c 	c #A16653",
"d 	c #9F6653",
"e 	c #9D6450",
"f 	c #987E74",
"g 	c #948C88",
"h 	c #939291",
"i 	c #949393",
"j 	c #959493",
"k 	c #948F8D",
"l 	c #8C807B",
"m 	c #7B5C52",
"n 	c #74564C",
"o 	c #6C554C",
"p 	c #614F49",
"q 	c #5C5754",
"r 	c #7D7E7F",
"s 	c #7E7E7E",
"t 	c #8E675A",
"u 	c #A16652",
"v 	c #A16754",
"w 	c #885746",
"x 	c #6A6B6A",
"y 	c #939190",
"z 	c #93918E",
"A 	c #928E8D",
"B 	c #908D8C",
"C 	c #92908E",
"D 	c #B2B1B0",
"E 	c #9E8982",
"F 	c #705349",
"G 	c #62524B",
"H 	c #55504E",
"I 	c #7B7775",
"J 	c #7F8080",
"K 	c #6C5047",
"L 	c #925B49",
"M 	c #A36855",
"N 	c #66473C",
"O 	c #555556",
"P 	c #818181",
"Q 	c #9B9B9A",
"R 	c #B4B4B3",
"S 	c #CBCBCB",
"T 	c #DFDFDF",
"U 	c #E8E7E7",
"V 	c #C7BEBA",
"W 	c #6D4F45",
"X 	c #6B554C",
"Y 	c #665149",
"Z 	c #774A3B",
"` 	c #7F7875",
" .	c #694F47",
"..	c #6F402F",
"+.	c #854C39",
"@.	c #985B47",
"#.	c #4D3A33",
"$.	c #625D5B",
"%.	c #84817F",
"&.	c #9E9B9A",
"*.	c #BDBAB9",
"=.	c #D5D2D0",
"-.	c #E0DBDA",
";.	c #E4DCDA",
">.	c #DED2CD",
",.	c #81584A",
"'.	c #834E3C",
").	c #8A4933",
"!.	c #7F4937",
"~.	c #7E7977",
"{.	c #818283",
"].	c #695047",
"^.	c #714131",
"/.	c #7D4532",
"(.	c #79402B",
"_.	c #563328",
":.	c #6F5045",
"<.	c #85675D",
"[.	c #9A7A70",
"}.	c #B29185",
"|.	c #C7A195",
"1.	c #D2A89A",
"2.	c #D6A696",
"3.	c #D79E8B",
"4.	c #AC674F",
"5.	c #904A31",
"6.	c #894934",
"7.	c #7E4936",
"8.	c #7E7A79",
"9.	c #818383",
"0.	c #695149",
"a.	c #704031",
"b.	c #7D4632",
"c.	c #6D3A29",
"d.	c #59372C",
"e.	c #735145",
"f.	c #876154",
"g.	c #987062",
"h.	c #AE8172",
"i.	c #C19080",
"j.	c #CD9988",
"k.	c #D29C8A",
"l.	c #D79F8C",
"m.	c #BD7F6A",
"n.	c #8D4931",
"o.	c #7E4837",
"p.	c #7F7C7B",
"q.	c #69534B",
"r.	c #704131",
"s.	c #603526",
"t.	c #5A3A30",
"u.	c #775449",
"v.	c #886356",
"w.	c #997063",
"x.	c #C09080",
"y.	c #C98D78",
"z.	c #94513A",
"A.	c #884934",
"B.	c #7D4937",
"C.	c #7F7D7D",
"D.	c #6A544D",
"E.	c #6F4131",
"F.	c #774230",
"G.	c #553125",
"H.	c #604137",
"I.	c #79564A",
"J.	c #896457",
"K.	c #9A7264",
"L.	c #AD8172",
"M.	c #BF8F7F",
"N.	c #CC9988",
"O.	c #D19B8A",
"P.	c #D69F8C",
"Q.	c #D19783",
"R.	c #9E5E47",
"S.	c #884933",
"T.	c #7C4937",
"U.	c #6B564F",
"V.	c #73402E",
"W.	c #4A2D23",
"X.	c #7B594D",
"Y.	c #896458",
"Z.	c #9B7265",
"`.	c #BE8E7E",
" +	c #CB9887",
".+	c #D19C8A",
"++	c #D59E8B",
"@+	c #D69E8A",
"#+	c #AA6D57",
"$+	c #7B4837",
"%+	c #7F807F",
"&+	c #6B5852",
"*+	c #6F4031",
"=+	c #66392A",
"-+	c #493027",
";+	c #694B40",
">+	c #7C5A4F",
",+	c #8A6559",
"'+	c #9B7365",
")+	c #BD8D7D",
"!+	c #CA9786",
"~+	c #D09B8A",
"{+	c #D49D8B",
"]+	c #D89F8C",
"^+	c #BA7E6A",
"/+	c #8A4B36",
"(+	c #7B4838",
"_+	c #6C5A54",
":+	c #6F4132",
"<+	c #4E2D21",
"[+	c #51372F",
"}+	c #6C4D43",
"|+	c #7E5D50",
"1+	c #AD8072",
"2+	c #BC8C7C",
"3+	c #D09B89",
"4+	c #D49D8A",
"5+	c #D79F8B",
"6+	c #CA917D",
"7+	c #8D4F3A",
"8+	c #7A4838",
"9+	c #6C5C57",
"0+	c #6E4131",
"a+	c #3C241D",
"b+	c #573D34",
"c+	c #6E5045",
"d+	c #805D52",
"e+	c #8A665A",
"f+	c #9C7366",
"g+	c #AD8071",
"h+	c #BB8C7B",
"i+	c #C99685",
"j+	c #D09A88",
"k+	c #D39C8A",
"l+	c #D69E8B",
"m+	c #D59C89",
"n+	c #975B47",
"o+	c #794837",
"p+	c #818385",
"q+	c #6F5F5A",
"r+	c #5C3729",
"s+	c #3A2720",
"t+	c #5B4138",
"u+	c #705248",
"v+	c #805E53",
"w+	c #8B675B",
"x+	c #9B7466",
"y+	c #AC8071",
"z+	c #BA8B7B",
"A+	c #C89684",
"B+	c #CF9A88",
"C+	c #AF7461",
"D+	c #774636",
"E+	c #818486",
"F+	c #818282",
"G+	c #72615D",
"H+	c #42281F",
"I+	c #432F28",
"J+	c #5F443B",
"K+	c #725449",
"L+	c #8C675B",
"M+	c #BA8B7A",
"N+	c #C79584",
"O+	c #CE9987",
"P+	c #D59D8A",
"Q+	c #C68E7B",
"R+	c #764837",
"S+	c #808485",
"T+	c #72635E",
"U+	c #2D1E19",
"V+	c #48342E",
"W+	c #61473F",
"X+	c #815F54",
"Y+	c #8C685C",
"Z+	c #AC7F71",
"`+	c #B9897A",
" @	c #C69483",
".@	c #D29C89",
"+@	c #D49C8A",
"@@	c #CF9884",
"#@	c #895B4C",
"$@	c #7F8384",
"%@	c #828383",
"&@	c #625B58",
"*@	c #2E221F",
"=@	c #4C3831",
"-@	c #634941",
";@	c #75564D",
">@	c #816055",
",@	c #8C695C",
"'@	c #AB7F70",
")@	c #C59382",
"!@	c #CD9886",
"~@	c #D39C89",
"{@	c #D09885",
"]@	c #A37767",
"^@	c #7D8182",
"/@	c #828282",
"(@	c #5D5C5C",
"_@	c #332824",
":@	c #4F3B35",
"<@	c #654C43",
"[@	c #75574D",
"}@	c #826155",
"|@	c #8D695D",
"1@	c #9B7366",
"2@	c #B88979",
"3@	c #C59281",
"4@	c #CC9786",
"5@	c #D19B89",
"6@	c #D19987",
"7@	c #B2897B",
"8@	c #7C7F80",
"9@	c #7D7E7E",
"0@	c #413633",
"a@	c #513E37",
"b@	c #664D45",
"c@	c #76584E",
"d@	c #826156",
"e@	c #9A7366",
"f@	c #B88879",
"g@	c #C39280",
"h@	c #CC9785",
"i@	c #D39B88",
"j@	c #928580",
"k@	c #7E8080",
"l@	c #7F7E7D",
"m@	c #61544E",
"n@	c #77594F",
"o@	c #836256",
"p@	c #8D6A5E",
"q@	c #AA7E70",
"r@	c #C39180",
"s@	c #CC9685",
"t@	c #D19B88",
"u@	c #CF9A89",
"v@	c #C59788",
"w@	c #968782",
"x@	c #7E7F80",
"y@	c #828283",
"z@	c #7B7674",
"A@	c #7C6E69",
"B@	c #826D66",
"C@	c #8A7067",
"D@	c #95766B",
"E@	c #A37F73",
"F@	c #AD877A",
"G@	c #B38C7F",
"H@	c #B38F83",
"I@	c #AC8E84",
"J@	c #9B8983",
"K@	c #838180",
"L@	c #817E7E",
"M@	c #837F7D",
"N@	c #85807E",
"O@	c #86817F",
"P@	c #868180",
"                                                  ",
"              . + @ # $ % % & * & $               ",
"            = - ; > , ' ) ! ~ { ] ^ / %           ",
"        ( _ : < [ } | 1 2 3 4 5 6 7 8 9 0         ",
"      . a b c d e f g h i j k l m n o p q r       ",
"      s t u c v w x y z A B C D E F o G H I %     ",
"      J K L v M N O P Q R S T U V W X Y Z ` %     ",
"      %  ...+.@.#.$.%.&.*.=.-.;.>.,.'.).!.~.%     ",
"      {.].^./.(._.:.<.[.}.|.1.2.3.4.5.6.7.8.%     ",
"      9.0.a.b.c.d.e.f.g.h.i.j.k.l.m.n.6.o.p.=     ",
"      9.q.r.b.s.t.u.v.w.h.x.j.k.l.y.z.A.B.C.      ",
"      9.D.E.F.G.H.I.J.K.L.M.N.O.P.Q.R.S.T./       ",
"      9.U.E.V.W.N X.Y.Z.h.`. +.+++@+#+S.$+%+      ",
"      9.&+*+=+-+;+>+,+'+h.)+!+~+{+]+^+/+(+%       ",
"      {._+:+<+[+}+|+,+'+1+2+!+3+4+5+6+7+8+&       ",
"      {.9+0+a+b+c+d+e+f+g+h+i+j+k+l+m+n+o+p+      ",
"      {.q+r+s+t+u+v+w+x+y+z+A+B+k+l+++C+D+E+      ",
"      F+G+H+I+J+K+v+L+x+y+M+N+O+k+P+++Q+R+S+      ",
"      F+T+U+V+W+7 X+Y+x+Z+`+ @O+.@+@++@@#@$@      ",
"      %@&@*@=@-@;@>@,@x+'@`+)@!@.@~@4+{@]@^@      ",
"      /@(@_@:@<@[@}@|@1@'@2@3@4@5@.@+@6@7@8@      ",
"        9@0@a@b@c@d@|@e@'@f@g@h@5@.@k.i@j@k@      ",
"        P l@m@0.n@o@p@e@q@f@r@s@t@u@v@w@x@        ",
"          = y@z@A@B@C@D@E@F@G@H@I@J@K@x@          ",
"              % % ( L@M@N@O@P@K@J J               "};
