/* XPM */
static char * prim_spherical_subdiv_xpm[] = {
"25 25 261 2",
"  	c #808080",
". 	c #7F807F",
"+ 	c #788579",
"@ 	c #808081",
"# 	c #818081",
"$ 	c #827E81",
"% 	c #627A5F",
"& 	c #33B337",
"* 	c #728C68",
"= 	c #808083",
"- 	c #807F80",
"; 	c #706255",
"> 	c #575916",
", 	c #558D0C",
"' 	c #87761D",
") 	c #876F5A",
"! 	c #837E85",
"~ 	c #7E8181",
"{ 	c #436E46",
"] 	c #246B0F",
"^ 	c #536D0C",
"/ 	c #757614",
"( 	c #788C12",
"_ 	c #42B91C",
": 	c #49A953",
"< 	c #847E86",
"[ 	c #828082",
"} 	c #595339",
"| 	c #335A0D",
"1 	c #069509",
"2 	c #0CB613",
"3 	c #16CF19",
"4 	c #13E81A",
"5 	c #0DF716",
"6 	c #4FAE1B",
"7 	c #8E5F47",
"8 	c #817F84",
"9 	c #818181",
"0 	c #807F7F",
"a 	c #265A26",
"b 	c #434709",
"c 	c #674308",
"d 	c #6E510A",
"e 	c #6E6711",
"f 	c #727B15",
"g 	c #807A13",
"h 	c #99660D",
"i 	c #A35D0D",
"j 	c #817212",
"k 	c #49A549",
"l 	c #7F8080",
"m 	c #767976",
"n 	c #4C4222",
"o 	c #046B07",
"p 	c #078409",
"q 	c #368011",
"r 	c #6D7F25",
"s 	c #918132",
"t 	c #A68537",
"u 	c #A58D33",
"v 	c #8F9C29",
"w 	c #56BA1A",
"x 	c #15EF16",
"y 	c #2BC712",
"z 	c #727D47",
"A 	c #807E7C",
"B 	c #828081",
"C 	c #6C756B",
"D 	c #2C521F",
"E 	c #755933",
"F 	c #6F682E",
"G 	c #2A8716",
"H 	c #12A010",
"I 	c #10B113",
"J 	c #10C418",
"K 	c #11D51A",
"L 	c #12E21B",
"M 	c #16EB1B",
"N 	c #1EED1B",
"O 	c #3DDD21",
"P 	c #A4A434",
"Q 	c #A58A2A",
"R 	c #5C9849",
"S 	c #7E827B",
"T 	c #808181",
"U 	c #7F7775",
"V 	c #46592F",
"W 	c #026705",
"X 	c #446F20",
"Y 	c #7C6C30",
"Z 	c #9C6B39",
"` 	c #9A7538",
" .	c #868633",
"..	c #7D9632",
"+.	c #7EA233",
"@.	c #85A734",
"#.	c #9BA436",
"$.	c #BE963B",
"%.	c #DA8A40",
"&.	c #C1983B",
"*.	c #61C727",
"=.	c #16DA0F",
"-.	c #948555",
";.	c #81807F",
">.	c #818283",
",.	c #77695E",
"'.	c #6D5730",
").	c #376F1A",
"!.	c #018908",
"~.	c #13920E",
"{.	c #3D911D",
"].	c #608F29",
"^.	c #798F31",
"/.	c #8B9236",
"(.	c #969738",
"_.	c #989D38",
":.	c #92A735",
"<.	c #81B430",
"[.	c #5FCA28",
"}.	c #28E91C",
"|.	c #0FF417",
"1.	c #61C527",
"2.	c #C88635",
"3.	c #87817B",
"4.	c #838384",
"5.	c #5D5853",
"6.	c #6B4B2E",
"7.	c #886635",
"8.	c #6C732A",
"9.	c #47871F",
"0.	c #259D16",
"a.	c #12B014",
"b.	c #0DBE16",
"c.	c #13CA1A",
"d.	c #17D41C",
"e.	c #16DD1B",
"f.	c #10E81A",
"g.	c #15EB1A",
"h.	c #2BE31E",
"i.	c #5DCC27",
"j.	c #96AF30",
"k.	c #D08D35",
"l.	c #CD945C",
"m.	c #878481",
"n.	c #848484",
"o.	c #505050",
"p.	c #36322E",
"q.	c #6D5742",
"r.	c #94673E",
"s.	c #9E7035",
"t.	c #987834",
"u.	c #958035",
"v.	c #938836",
"w.	c #919237",
"x.	c #919A37",
"y.	c #989D37",
"z.	c #A49B38",
"A.	c #B09A37",
"B.	c #BC9636",
"C.	c #CE8E35",
"D.	c #D88F49",
"E.	c #CEA67F",
"F.	c #BBB0A5",
"G.	c #838382",
"H.	c #515151",
"I.	c #2E2F2F",
"J.	c #4D4D4C",
"K.	c #615E5C",
"L.	c #766C62",
"M.	c #8D745C",
"N.	c #9D7A56",
"O.	c #AA7E51",
"P.	c #B5834F",
"Q.	c #BD884F",
"R.	c #C28C52",
"S.	c #C79159",
"T.	c #CA9A69",
"U.	c #CAA57F",
"V.	c #C6B4A1",
"W.	c #C3BEB7",
"X.	c #C2BFBC",
"Y.	c #B7B3B1",
"Z.	c #828282",
"`.	c #2E2E2E",
" +	c #4C4C4C",
".+	c #5E5E5E",
"++	c #6B6B6C",
"@+	c #747575",
"#+	c #7D7E7E",
"$+	c #88898A",
"%+	c #979899",
"&+	c #A2A3A4",
"*+	c #ADAEAE",
"=+	c #B5B6B6",
"-+	c #BDBDBE",
";+	c #C0C1C1",
">+	c #C1C1C1",
",+	c #C0BFBE",
"'+	c #B5B0AE",
")+	c #525252",
"!+	c #6B6B6B",
"~+	c #757575",
"{+	c #7D7D7D",
"]+	c #898989",
"^+	c #979797",
"/+	c #A3A3A3",
"(+	c #ADADAD",
"_+	c #B5B5B5",
":+	c #BCBCBC",
"<+	c #C1C0C0",
"[+	c #C1BFBD",
"}+	c #B1AEAC",
"|+	c #535353",
"1+	c #2F2F2F",
"2+	c #6A6A6A",
"3+	c #ACACAC",
"4+	c #C0C0C0",
"5+	c #C0BEBD",
"6+	c #AFACAA",
"7+	c #4B4B4B",
"8+	c #5D5D5D",
"9+	c #747474",
"0+	c #888888",
"a+	c #969696",
"b+	c #C0BFC0",
"c+	c #BFBDBC",
"d+	c #ADA9A7",
"e+	c #838383",
"f+	c #575757",
"g+	c #313131",
"h+	c #7C7C7C",
"i+	c #A2A2A2",
"j+	c #B4B4B4",
"k+	c #BBBBBB",
"l+	c #C0BFBF",
"m+	c #BFBDBB",
"n+	c #AAA6A5",
"o+	c #727272",
"p+	c #434343",
"q+	c #494949",
"r+	c #ABABAB",
"s+	c #BFBFBF",
"t+	c #C1BFBE",
"u+	c #9A9898",
"v+	c #767676",
"w+	c #5C5C5C",
"x+	c #5B5B5B",
"y+	c #696969",
"z+	c #737373",
"A+	c #C0C0BF",
"B+	c #A2A2A1",
"C+	c #7A7A7A",
"D+	c #878787",
"E+	c #959595",
"F+	c #BABABA",
"G+	c #B7B7B7",
"H+	c #868686",
"I+	c #8A8A8A",
"J+	c #8C8C8C",
"K+	c #7E7E7E",
"L+	c #7F7F7F",
"                                                  ",
"                      . + @                       ",
"                  # $ % & * =                     ",
"                # - ; > , ' ) !                   ",
"                ~ { ] ^ / ( _ : <                 ",
"              [ } | 1 2 3 4 5 6 7 8 @             ",
"          9 0 a b c d e f g h i j k l             ",
"        9 m n o p q r s t u v w x y z A           ",
"      B C D E F G H I J K L M N O P Q R S         ",
"    T U V W X Y Z `  ...+.@.#.$.%.&.*.=.-.;.      ",
"    >.,.'.).!.~.{.].^./.(._.:.<.[.}.|.1.2.3.      ",
"    4.5.6.7.8.9.0.a.b.c.d.e.f.g.h.i.j.k.l.m.      ",
"    n.o.p.q.r.s.t.u.v.w.x.y.z.A.B.C.D.E.F.G.      ",
"    n.H.I.J.K.L.M.N.O.P.Q.R.S.T.U.V.W.X.Y.Z.      ",
"    n.H.`. +.+++@+#+$+%+&+*+=+-+;+>+>+,+'+9       ",
"    n.)+`. +.+!+~+{+]+^+/+(+_+:+>+>+<+[+}+        ",
"    n.|+1+ +.+2+~+{+]+^+/+3+_+:+4+>+<+5+6+        ",
"    n.|+1+7+8+!+9+{+0+a+/+3+_+:+4+4+b+c+d+        ",
"    e+f+g+7+8+!+9+h+0+^+i+3+j+k+4+4+l+m+n+        ",
"    9 o+p+q+8+2+9+{+0+a+i+r+j+k+s+s+l+t+u+        ",
"        v+w+x+y+z+h+0+a+i+r+j+k+s+4+A+B+e+        ",
"          9 C+z+~+h+D+E+i+r+j+F+G+/+]+            ",
"              9 9   9 H+I+J+I+e+{+K+L+            ",
"                      L+L+L+L+                    ",
"                                                  "};
