/* XPM */
static char * prim_spherical_lat_xpm[] = {
"25 25 377 2",
"  	c #808080",
". 	c #7E807E",
"+ 	c #7C807D",
"@ 	c #828082",
"# 	c #868086",
"$ 	c #607D61",
"% 	c #258328",
"& 	c #0E8B12",
"* 	c #078F0D",
"= 	c #119016",
"- 	c #2B8D2F",
"; 	c #658466",
"> 	c #867F86",
", 	c #848084",
"' 	c #807E80",
") 	c #5A7F5C",
"! 	c #338336",
"~ 	c #0B880F",
"{ 	c #008F04",
"] 	c #038F09",
"^ 	c #05900A",
"/ 	c #04910A",
"( 	c #05920A",
"_ 	c #049309",
": 	c #009505",
"< 	c #0C9311",
"[ 	c #328D35",
"} 	c #568657",
"| 	c #798079",
"1 	c #818081",
"2 	c #6E7E6F",
"3 	c #308333",
"4 	c #008C04",
"5 	c #019007",
"6 	c #04920A",
"7 	c #04930A",
"8 	c #05940A",
"9 	c #05950A",
"0 	c #05970A",
"a 	c #05970B",
"b 	c #05980B",
"c 	c #06990B",
"d 	c #069A0B",
"e 	c #069C0B",
"f 	c #049C0A",
"g 	c #009D06",
"h 	c #209924",
"i 	c #5C915E",
"j 	c #627162",
"k 	c #008805",
"l 	c #039409",
"m 	c #049609",
"n 	c #04980A",
"o 	c #05990A",
"p 	c #059A0B",
"q 	c #059B0B",
"r 	c #069D0B",
"s 	c #069E0C",
"t 	c #05A00C",
"u 	c #07A10C",
"v 	c #08A90D",
"w 	c #0AC210",
"x 	c #0CDC13",
"y 	c #0DEE15",
"z 	c #2CCA32",
"A 	c #837D83",
"B 	c #225824",
"C 	c #028107",
"D 	c #038D09",
"E 	c #039609",
"F 	c #029809",
"G 	c #1A8D08",
"H 	c #726404",
"I 	c #208D0A",
"J 	c #019D0B",
"K 	c #029E0B",
"L 	c #039F0B",
"M 	c #00A10C",
"N 	c #169C0C",
"O 	c #917407",
"P 	c #2FBB0F",
"Q 	c #0DE414",
"R 	c #0FF217",
"S 	c #10F818",
"T 	c #11F719",
"U 	c #0DED15",
"V 	c #79837A",
"W 	c #1F4B21",
"X 	c #026105",
"Y 	c #026F07",
"Z 	c #037D08",
"` 	c #038909",
" .	c #098F08",
"..	c #9A4C02",
"+.	c #5B6C05",
"@.	c #009B0A",
"#.	c #5D6E06",
"$.	c #547607",
"%.	c #468A09",
"&.	c #957B08",
"*.	c #12D512",
"=.	c #89B00F",
"-.	c #E98C0C",
";.	c #0BFC19",
">.	c #11F619",
",.	c #10EA18",
"'.	c #0FDA16",
").	c #0BCA12",
"!.	c #7A827A",
"~.	c #244C26",
"{.	c #015B04",
"].	c #025E05",
"^.	c #025F06",
"/.	c #026807",
"(.	c #206706",
"_.	c #824501",
":.	c #0D8808",
"<.	c #487306",
"[.	c #965302",
"}.	c #5E7D09",
"|.	c #73A30E",
"1.	c #C3980C",
"2.	c #D9970E",
"3.	c #00FF1A",
"4.	c #F1860D",
"5.	c #45CB15",
"6.	c #0DD416",
"7.	c #0CCB14",
"8.	c #0CCA13",
"9.	c #09C610",
"0.	c #7F807E",
"a.	c #294D2B",
"b.	c #015904",
"c.	c #025C05",
"d.	c #025D05",
"e.	c #1F5204",
"f.	c #613401",
"g.	c #007007",
"h.	c #6A4A02",
"i.	c #6C5C04",
"j.	c #499D13",
"k.	c #73B91A",
"l.	c #9DB013",
"m.	c #F2820D",
"n.	c #1CD916",
"o.	c #A5870D",
"p.	c #4AAE11",
"q.	c #0BCA13",
"r.	c #0CC913",
"s.	c #0CC813",
"t.	c #08C20F",
"u.	c #837E83",
"v.	c #2F4E30",
"w.	c #005803",
"x.	c #025B05",
"y.	c #1D5004",
"z.	c #5D3201",
"A.	c #006106",
"B.	c #5F3501",
"C.	c #385905",
"D.	c #1F910D",
"E.	c #51A812",
"F.	c #A78B0E",
"G.	c #D1700A",
"H.	c #1BC313",
"I.	c #A67F0C",
"J.	c #3BB311",
"K.	c #0BC813",
"L.	c #0CC713",
"M.	c #0BC612",
"N.	c #10B917",
"O.	c #847E84",
"P.	c #355036",
"Q.	c #005603",
"R.	c #025905",
"S.	c #1D4F04",
"T.	c #5B3101",
"U.	c #006005",
"V.	c #5E3401",
"W.	c #305404",
"X.	c #12860A",
"Y.	c #49970C",
"Z.	c #9E820D",
"`.	c #CC6D0A",
" +	c #17C413",
".+	c #AE7A0B",
"++	c #2CB812",
"@+	c #0AC613",
"#+	c #0BC512",
"$+	c #0AC412",
"%+	c #1EB023",
"&+	c #3A513B",
"*+	c #005403",
"=+	c #025805",
"-+	c #025A05",
";+	c #1B4E04",
">+	c #5A3001",
",+	c #005F05",
"'+	c #5D3301",
")+	c #2E5404",
"!+	c #0F870A",
"~+	c #4D940C",
"{+	c #98830D",
"]+	c #CA6C09",
"^+	c #12C413",
"/+	c #B6730A",
"(+	c #1CBD11",
"_+	c #0BC412",
":+	c #0BC312",
"<+	c #09C211",
"[+	c #2BA72F",
"}+	c #837F83",
"|+	c #3F5340",
"1+	c #005102",
"2+	c #025705",
"3+	c #1B4D04",
"4+	c #593001",
"5+	c #005E05",
"6+	c #5C3101",
"7+	c #2C5404",
"8+	c #0C8708",
"9+	c #51910B",
"0+	c #91850C",
"a+	c #C76B09",
"b+	c #0EC412",
"c+	c #BC6E09",
"d+	c #0FC112",
"e+	c #0AC212",
"f+	c #0AC011",
"g+	c #09BF10",
"h+	c #379F3B",
"i+	c #827F82",
"j+	c #455545",
"k+	c #005002",
"l+	c #025505",
"m+	c #025605",
"n+	c #1A4C04",
"o+	c #572F01",
"p+	c #005C05",
"q+	c #5C3001",
"r+	c #2A5405",
"s+	c #0D8609",
"t+	c #538E0B",
"u+	c #8B860C",
"v+	c #C66A09",
"w+	c #0AC312",
"x+	c #C36808",
"y+	c #02C512",
"z+	c #0ABE11",
"A+	c #08BD0F",
"B+	c #459748",
"C+	c #4A574B",
"D+	c #004D01",
"E+	c #015305",
"F+	c #015405",
"G+	c #194B04",
"H+	c #562E01",
"I+	c #005B05",
"J+	c #5B2F01",
"K+	c #275405",
"L+	c #118309",
"M+	c #568D0A",
"N+	c #85870D",
"O+	c #05C311",
"P+	c #C36608",
"Q+	c #02C311",
"R+	c #0ABD11",
"S+	c #09BB10",
"T+	c #07BB0E",
"U+	c #539055",
"V+	c #817F81",
"W+	c #4F5A4F",
"X+	c #004B01",
"Y+	c #015205",
"Z+	c #184904",
"`+	c #542D01",
" @	c #005905",
".@	c #5B2E01",
"+@	c #255405",
"@@	c #168009",
"#@	c #588A0A",
"$@	c #7F880D",
"%@	c #C16708",
"&@	c #01C312",
"*@	c #C36408",
"=@	c #02C011",
"-@	c #09B910",
";@	c #07B80E",
">@	c #5F8A61",
",@	c #6A6D6A",
"'@	c #004300",
")@	c #015105",
"!@	c #184804",
"~@	c #532C00",
"{@	c #005805",
"]@	c #5A2D01",
"^@	c #225405",
"/@	c #1B7D08",
"(@	c #5A8809",
"_@	c #78890D",
":@	c #BE6608",
"<@	c #01C111",
"[@	c #BF6307",
"}@	c #02BD10",
"|@	c #09B810",
"1@	c #06B20D",
"2@	c #788279",
"3@	c #838383",
"4@	c #364436",
"5@	c #034006",
"6@	c #014E04",
"7@	c #174704",
"8@	c #512C00",
"9@	c #005705",
"0@	c #592C01",
"a@	c #205505",
"b@	c #1F7A08",
"c@	c #5C8509",
"d@	c #728B0C",
"e@	c #BC6407",
"f@	c #08BA10",
"g@	c #B56507",
"h@	c #03BA10",
"i@	c #08B50E",
"j@	c #08A10E",
"k@	c #377639",
"l@	c #747574",
"m@	c #29392A",
"n@	c #003700",
"o@	c #174604",
"p@	c #502B00",
"q@	c #005505",
"r@	c #582A01",
"s@	c #1E5405",
"t@	c #247607",
"u@	c #5E8409",
"v@	c #6C8B0C",
"w@	c #B96307",
"x@	c #10B50F",
"y@	c #AC6707",
"z@	c #00AB0B",
"A@	c #257829",
"B@	c #767D77",
"C@	c #858485",
"D@	c #6B6B6B",
"E@	c #363F2E",
"F@	c #321800",
"G@	c #005205",
"H@	c #1D5305",
"I@	c #287307",
"J@	c #608109",
"K@	c #668C0C",
"L@	c #B06707",
"M@	c #19A108",
"N@	c #7C551A",
"O@	c #607862",
"P@	c #838384",
"Q@	c #727374",
"R@	c #1C3720",
"S@	c #412201",
"T@	c #1C4F04",
"U@	c #2D7107",
"V@	c #628009",
"W@	c #5D8709",
"X@	c #775F11",
"Y@	c #566F51",
"Z@	c #828488",
"`@	c #787677",
" #	c #252F1D",
".#	c #1F4803",
"+#	c #465501",
"@#	c #566942",
"##	c #80807F",
"$#	c #828283",
"%#	c #757575",
"&#	c #7A7A7A",
"*#	c #828183",
"                                                  ",
"                      . + .                       ",
"              @ # $ % & * = - ; > @               ",
"        , ' ) ! ~ { ] ^ / ( _ : < [ } | > 1       ",
"    1 2 3 4 5 6 6 7 8 9 0 a b c d e f g h i       ",
"    j k l m n 0 0 n o p q e r s t u v w x y z A   ",
"    B C D l E F G H I J K L M N O P Q R S T U V   ",
"    W X Y Z `  ...+.@.#.$.%.&.*.=.-.;.>.,.'.).!.  ",
"    ~.{.].^./.(._.:.<.[.}.|.1.2.3.4.5.6.7.8.9.0.  ",
"    a.b.c.d.].e.f.g.h.i.j.k.l.m.n.o.p.q.r.s.t.u.  ",
"    v.w.x.x.d.y.z.A.B.C.D.E.F.G.H.I.J.K.L.M.N.O.  ",
"    P.Q.R.x.c.S.T.U.V.W.X.Y.Z.`. +.+++@+#+$+%+u.  ",
"    &+*+=+R.-+;+>+,+'+)+!+~+{+]+^+/+(+_+:+<+[+}+  ",
"    |+1+2+2+=+3+4+5+6+7+8+9+0+a+b+c+d+e+f+g+h+i+  ",
"    j+k+l+m+2+n+o+p+q+r+s+t+u+v+w+x+y+f+z+A+B+i+  ",
"    C+D+E+F+l+G+H+I+J+K+L+M+N+x+O+P+Q+R+S+T+U+V+  ",
"    W+X+Y+E+F+Z+`+ @.@+@@@#@$@%@&@*@=@S+-@;@>@1   ",
"    ,@'@)@Y+Y+!@~@{@]@^@/@(@_@:@<@[@}@|@|@1@2@    ",
"    3@4@5@6@)@7@8@9@0@a@b@c@d@e@f@g@h@i@j@k@      ",
"        l@m@n@o@p@q@r@s@t@u@v@w@x@y@z@A@B@1       ",
"          C@D@E@F@G@r@H@I@J@K@L@M@N@O@,           ",
"              P@Q@R@S@T@U@V@W@X@Y@Z@              ",
"                    `@ #.#+#@###                  ",
"                      $#%#&#*#                    ",
"                                                  "};
