/* XPM */
static char * projector_light_xpm[] = {
"32 24 49 1",
" 	c #808080",
".	c #3CB5E1",
"+	c #3BB3DE",
"@	c #3BB4DF",
"#	c #3BB5E0",
"$	c #3CB5E0",
"%	c #3CB6E1",
"&	c #3CB7E2",
"*	c #3DB7E3",
"=	c #3DB8E3",
"-	c #3DB8E4",
";	c #38ABD5",
">	c #38ACD6",
",	c #3CB6E2",
"'	c #3DB9E4",
")	c #3EB9E5",
"!	c #3EBAE6",
"~	c #3FBBE7",
"{	c #FFFFFF",
"]	c #39ADD7",
"^	c #38ADD8",
"/	c #38AED8",
"(	c #39AED9",
"_	c #3DB9E5",
":	c #3FBBE8",
"<	c #63FFFF",
"[	c #62FFFF",
"}	c #39AFD9",
"|	c #39AFDA",
"1	c #39B0DB",
"2	c #3AB0DC",
"3	c #3EBAE5",
"4	c #3EBBE7",
"5	c #FCFCFC",
"6	c #3AB1DC",
"7	c #3AB1DD",
"8	c #3AB2DD",
"9	c #3AB2DE",
"0	c #3AB3DE",
"a	c #3BB3DF",
"b	c #3BB4E0",
"c	c #5FFFFF",
"d	c #5EFFFF",
"e	c #61FFFF",
"f	c #FEFEFE",
"g	c #60FFFF",
"h	c #5DFFFF",
"i	c #5CFFFF",
"j	c #5BFFFF",
"                                ",
"              .                 ",
"         +@#$%%&*=-             ",
"    ;;>+@@#.%,&=-')!!~          ",
"    {>]^/(%,&*=-_)!!~:<[        ",
"     {{{}||12--_3!4~<<[[{       ",
"     {{{{516789!!4~<<[[[[       ",
"      {{{{{{90abb<<<[[[[[{      ",
"      {{{{{{{{{ccd<[[[[[e{      ",
"       {{{{{{{{{dd[[[[[eee      ",
"       {{{{{{{f{ddd[[[eeee      ",
"        {{{{{{{{ddd[[eeeegg     ",
"        {{{{{{{{{ddheeeeggg     ",
"         {{{{{{{{hhheeegggg     ",
"         {{{{{{{{{hhheegggc     ",
"          {{{{{{{{hhhegggg      ",
"           {{{{{{{{hhigggc      ",
"             {{{{{{iiiggc       ",
"              {{{{{{iigcc       ",
"                {{{{iiic        ",
"                  {{{iic        ",
"                   {{jjj        ",
"                     {j         ",
"                                "};
