/* XPM */
static char * quad_subdiv_xpm[] = {
"32 24 263 2",
"  	c #808080",
". 	c #818081",
"+ 	c #848084",
"@ 	c #827F82",
"# 	c #6F7B70",
"$ 	c #587F5C",
"% 	c #4B7C4F",
"& 	c #5F7860",
"* 	c #788078",
"= 	c #848184",
"- 	c #828082",
"; 	c #888088",
"> 	c #747D74",
", 	c #4E7C4E",
"' 	c #2D8431",
") 	c #16901C",
"! 	c #379209",
"~ 	c #3C6700",
"{ 	c #114B05",
"] 	c #195D1E",
"^ 	c #3B6E3C",
"/ 	c #677C67",
"( 	c #868186",
"_ 	c #7F7E7F",
": 	c #537753",
"< 	c #207F23",
"[ 	c #05790C",
"} 	c #005E04",
"| 	c #2C8606",
"1 	c #B48D09",
"2 	c #D48D0A",
"3 	c #8F5D04",
"4 	c #553600",
"5 	c #433D00",
"6 	c #095102",
"7 	c #087209",
"8 	c #176F19",
"9 	c #4F7850",
"0 	c #7F817F",
"a 	c #838183",
"b 	c #627862",
"c 	c #2C752C",
"d 	c #058502",
"e 	c #199A04",
"f 	c #589A09",
"g 	c #A38A0A",
"h 	c #676305",
"i 	c #124C01",
"j 	c #0D5A01",
"k 	c #667906",
"l 	c #716003",
"m 	c #255802",
"n 	c #0B7C05",
"o 	c #0C9107",
"p 	c #277905",
"q 	c #2C4600",
"r 	c #084700",
"s 	c #065802",
"t 	c #356F34",
"u 	c #687C68",
"v 	c #7E807E",
"w 	c #325C2C",
"x 	c #005900",
"y 	c #1A7604",
"z 	c #978008",
"A 	c #D3870A",
"B 	c #E18A0A",
"C 	c #CA8809",
"D 	c #988108",
"E 	c #1E6C04",
"F 	c #007904",
"G 	c #096C03",
"H 	c #006C03",
"I 	c #1A6C04",
"J 	c #4D4801",
"K 	c #633600",
"L 	c #663800",
"M 	c #5D3C00",
"N 	c #2F4600",
"O 	c #007700",
"P 	c #578256",
"Q 	c #818284",
"R 	c #6B644D",
"S 	c #433A03",
"T 	c #263F00",
"U 	c #0D4E00",
"V 	c #2D6103",
"W 	c #4F7305",
"X 	c #308405",
"Y 	c #2A9208",
"Z 	c #599108",
"` 	c #969209",
" .	c #765F05",
"..	c #323B00",
"+.	c #184700",
"@.	c #0E4B00",
"#.	c #215200",
"$.	c #325301",
"%.	c #196A03",
"&.	c #0B8205",
"*.	c #398A07",
"=.	c #708911",
"-.	c #7F8265",
";.	c #808081",
">.	c #71654F",
",.	c #5A3A03",
"'.	c #573800",
").	c #523900",
"!.	c #333E00",
"~.	c #074500",
"{.	c #005801",
"].	c #377304",
"^.	c #AD8608",
"/.	c #DD8A09",
"(.	c #885404",
"_.	c #5A3600",
":.	c #464300",
"<.	c #126002",
"[.	c #008105",
"}.	c #0F8F07",
"|.	c #5A8B08",
"1.	c #AB8309",
"2.	c #BD8009",
"3.	c #BA801B",
"4.	c #8B806E",
"5.	c #593A03",
"6.	c #583800",
"7.	c #593800",
"8.	c #5B3800",
"9.	c #5C3800",
"0.	c #3B3C00",
"a.	c #0E4200",
"b.	c #005100",
"c.	c #376D03",
"d.	c #4C6003",
"e.	c #116D02",
"f.	c #0A8A06",
"g.	c #299507",
"h.	c #7D8908",
"i.	c #C48009",
"j.	c #CB7F09",
"k.	c #C67F09",
"l.	c #C57F08",
"m.	c #B97E1B",
"n.	c #8A806F",
"o.	c #593903",
"p.	c #5A3900",
"q.	c #5D3900",
"r.	c #423C00",
"s.	c #1C3D00",
"t.	c #1F7905",
"u.	c #5B9209",
"v.	c #9E8609",
"w.	c #D07F09",
"x.	c #CC7F09",
"y.	c #C57F09",
"z.	c #C47E07",
"A.	c #B67F20",
"B.	c #878074",
"C.	c #71644F",
"D.	c #583903",
"E.	c #593900",
"F.	c #5B3900",
"G.	c #5D3A00",
"H.	c #956D07",
"I.	c #D08109",
"J.	c #CA8009",
"K.	c #C47F08",
"L.	c #C47E08",
"M.	c #B47E23",
"N.	c #858076",
"O.	c #818283",
"P.	c #726754",
"Q.	c #583904",
"R.	c #573700",
"S.	c #5B3A00",
"T.	c #A66A07",
"U.	c #C98209",
"V.	c #C37E08",
"W.	c #C37D07",
"X.	c #B37E26",
"Y.	c #848079",
"Z.	c #746B5B",
"`.	c #593A05",
" +	c #A56B06",
".+	c #C88108",
"++	c #C37D08",
"@+	c #C27D07",
"#+	c #B07E29",
"$+	c #82807C",
"%+	c #583A05",
"&+	c #AF7007",
"*+	c #C78008",
"=+	c #C27D08",
"-+	c #AE7E2C",
";+	c #746A5B",
">+	c #573600",
",+	c #B17206",
"'+	c #C17D08",
")+	c #C27C07",
"!+	c #AB7D30",
"~+	c #7E8084",
"{+	c #583905",
"]+	c #563700",
"^+	c #B07106",
"/+	c #C67F08",
"(+	c #C17C08",
"_+	c #C17C07",
":+	c #AA7D30",
"<+	c #7D8085",
"[+	c #573804",
"}+	c #583700",
"|+	c #C07C07",
"1+	c #A57D3A",
"2+	c #818182",
"3+	c #79746B",
"4+	c #614A23",
"5+	c #573702",
"6+	c #553500",
"7+	c #AF7106",
"8+	c #C27C04",
"9+	c #BE7B0A",
"0+	c #9D7E49",
"a+	c #7E7C78",
"b+	c #736959",
"c+	c #604920",
"d+	c #553400",
"e+	c #B87707",
"f+	c #C37C03",
"g+	c #AA7D31",
"h+	c #927F5E",
"i+	c #848078",
"j+	c #7F7E7C",
"k+	c #756B5B",
"l+	c #5D4111",
"m+	c #573500",
"n+	c #BB7907",
"o+	c #C27C05",
"p+	c #C17C04",
"q+	c #8A7F6D",
"r+	c #808181",
"s+	c #828385",
"t+	c #716651",
"u+	c #5D4110",
"v+	c #593901",
"w+	c #543500",
"x+	c #BB7807",
"y+	c #BF7C0B",
"z+	c #AA7E30",
"A+	c #877F73",
"B+	c #807F7E",
"C+	c #6E5F46",
"D+	c #5D4418",
"E+	c #B07819",
"F+	c #A67E3C",
"G+	c #89806F",
"H+	c #7D8086",
"I+	c #7F8081",
"J+	c #818385",
"K+	c #7B7872",
"L+	c #877E6E",
"M+	c #7E8083",
"N+	c #7F8082",
"                              .   .                             ",
"                      . + @ # $ % & * = -                       ",
"                  = ; > , ' ) ! ~ { ] ^ / ( =                   ",
"            . = _ : < [ } | 1 2 3 4 5 6 7 8 9 0 a .             ",
"          - b c d e f g h i j k l m n o p q r s t u v           ",
"          . w x y z A B C D E F G H I J K L M N x O P           ",
"          Q R S T U V W X Y Z `  ...+.@.#.$.%.&.*.=.-.;.        ",
"          Q >.,.'.).!.~.{.].^./.(._.:.<.[.}.|.1.2.3.4.          ",
"          Q >.5.6.7.8.9.0.a.b.c.d.e.f.g.h.i.j.k.l.m.n.          ",
"          Q >.o.6.7.7.p.q.q.r.s.t.u.v.w.x.k.y.l.z.A.B.          ",
"          Q C.D.6.6.7.E.p.F.G.8.H.I.J.k.l.l.K.L.z.M.N.          ",
"          O.P.Q.R.6.7.E.p.p.S.6.T.U.l.l.l.K.L.V.W.X.Y.          ",
"          O.Z.`.R.6.7.7.E.p.F.6. +.+l.l.K.L.V.++@+#+$+          ",
"          O.Z.%+R.R.6.7.E.p.p.R.&+*+l.L.L.V.++=+@+-+            ",
"          O.;+%+R.R.6.6.7.E.p.>+,+*+L.V.V.++=+'+)+!+~+          ",
"          O.;+{+]+R.6.6.7.7.p.]+^+/+V.V.++=+(+(+_+:+<+          ",
"          O.;+[+]+R.}+6.6.7.p.]+^+l.V.++=+=+(+_+|+1+<+          ",
"          2+3+4+5+6+R.6.6.7.E.]+7+l.++=+=+(+_+8+9+0+~+          ",
"            O.a+b+c+d+>+6.6.7.4 e+V.=+_+_+f+|+g+h+i+;.          ",
"                  j+k+l+m+6.7.4 n+V.(+o+p+g+q+$+;.              ",
"                    r+s+t+u+v+w+x+=+y+z+A+<+                    ",
"                        Q B+C+D+E+F+G+H+I+                      ",
"                          ;.J+K+L+M+N+                          ",
"                                                                "};
