/* XPM */
static char * radial_array_xpm[] = {
"32 24 319 2",
"  	c #808080",
". 	c #808081",
"+ 	c #808182",
"@ 	c #7C7975",
"# 	c #807562",
"$ 	c #867862",
"% 	c #837D74",
"& 	c #7F8081",
"* 	c #766E62",
"= 	c #79581D",
"- 	c #96620A",
"; 	c #B6760B",
"> 	c #C2841F",
", 	c #948060",
"' 	c #7E7C7A",
") 	c #664711",
"! 	c #986001",
"~ 	c #B77707",
"{ 	c #D88B0A",
"] 	c #F29A08",
"^ 	c #E19111",
"/ 	c #868178",
"( 	c #818181",
"_ 	c #6C675E",
": 	c #6D4200",
"< 	c #A46906",
"[ 	c #C98510",
"} 	c #E79914",
"| 	c #F5A00E",
"1 	c #FC9E04",
"2 	c #9C8156",
"3 	c #7F8082",
"4 	c #808183",
"5 	c #7F8185",
"6 	c #808285",
"7 	c #625D55",
"8 	c #643D00",
"9 	c #976104",
"0 	c #BF7E0D",
"a 	c #DD9110",
"b 	c #E6970E",
"c 	c #EA9405",
"d 	c #9D7D4B",
"e 	c #7F8183",
"f 	c #818284",
"g 	c #786B58",
"h 	c #876A3D",
"i 	c #90754A",
"j 	c #716C63",
"k 	c #402900",
"l 	c #794D00",
"m 	c #9E6605",
"n 	c #BB7906",
"o 	c #C68008",
"p 	c #BA7603",
"q 	c #857A67",
"r 	c #7C705F",
"s 	c #857356",
"t 	c #807B74",
"u 	c #7E8083",
"v 	c #828486",
"w 	c #66512C",
"x 	c #8D5A03",
"y 	c #B57304",
"z 	c #D78908",
"A 	c #D08713",
"B 	c #544327",
"C 	c #3D2600",
"D 	c #6E4600",
"E 	c #8A5801",
"F 	c #8B5700",
"G 	c #735827",
"H 	c #6D4D16",
"I 	c #996207",
"J 	c #BC7707",
"K 	c #D2860C",
"L 	c #987F58",
"M 	c #828384",
"N 	c #686157",
"O 	c #7A4C00",
"P 	c #A96D06",
"Q 	c #D0880D",
"R 	c #F39D0D",
"S 	c #FEA30B",
"T 	c #C48A2D",
"U 	c #4C4A46",
"V 	c #382A10",
"W 	c #4D3610",
"X 	c #645742",
"Y 	c #624B27",
"Z 	c #8B5800",
"` 	c #B07106",
" .	c #D68B0C",
"..	c #F69D0B",
"+.	c #F49702",
"@.	c #857F76",
"#.	c #838487",
"$.	c #57482D",
"%.	c #825200",
"&.	c #AE7108",
"*.	c #D68E13",
"=.	c #F29F12",
"-.	c #FCA40E",
";.	c #C78314",
">.	c #7F5E26",
",.	c #9C6814",
"'.	c #B47817",
").	c #A4772F",
"!.	c #704B0E",
"~.	c #935E02",
"{.	c #BB7B0E",
"].	c #DE9414",
"^.	c #F59F0F",
"/.	c #FDA109",
"(.	c #A78145",
"_.	c #7D8085",
":.	c #848586",
"<.	c #4D4434",
"[.	c #6D4400",
"}.	c #986104",
"|.	c #BF7D0B",
"1.	c #D68C0C",
"2.	c #D88C0B",
"3.	c #7B4E02",
"4.	c #935D00",
"5.	c #B97705",
"6.	c #DF8F08",
"7.	c #F39906",
"8.	c #B97304",
"9.	c #885602",
"0.	c #AA6E08",
"a.	c #CE880D",
"b.	c #DE910D",
"c.	c #E39108",
"d.	c #9B7A42",
"e.	c #7E8085",
"f.	c #757576",
"g.	c #432B00",
"h.	c #825101",
"i.	c #9F6303",
"j.	c #B27004",
"k.	c #865604",
"l.	c #6F4700",
"m.	c #A76C06",
"n.	c #CC8712",
"o.	c #EA9B12",
"p.	c #FDA30E",
"q.	c #F59B09",
"r.	c #6C4301",
"s.	c #7D4F02",
"t.	c #9E6404",
"u.	c #B17106",
"v.	c #A26804",
"w.	c #817C72",
"x.	c #66583F",
"y.	c #835200",
"z.	c #A96B02",
"A.	c #CC8205",
"B.	c #E59007",
"C.	c #BA7304",
"D.	c #714800",
"E.	c #9D6606",
"F.	c #C6830F",
"G.	c #E29512",
"H.	c #EE9B0E",
"I.	c #D58809",
"J.	c #6A4401",
"K.	c #935D01",
"L.	c #B57204",
"M.	c #D48505",
"N.	c #C78115",
"O.	c #858076",
"P.	c #818182",
"Q.	c #706E6A",
"R.	c #6D4603",
"S.	c #9F6604",
"T.	c #C07D0B",
"U.	c #E2940F",
"V.	c #F89F0C",
"W.	c #F99E0B",
"X.	c #9E6302",
"Y.	c #7B4F01",
"Z.	c #A76C05",
"`.	c #C27D08",
" +	c #C88109",
".+	c #7C4F04",
"++	c #875501",
"@+	c #AC6F05",
"#+	c #CA830C",
"$+	c #E9960B",
"%+	c #F99E08",
"&+	c #C88924",
"*+	c #7C7F84",
"=+	c #61594B",
"-+	c #744B04",
";+	c #A16804",
">+	c #C88410",
",+	c #E79A15",
"'+	c #F5A010",
")+	c #F8A00C",
"!+	c #A76905",
"~+	c #452B00",
"{+	c #754A00",
"]+	c #8F5B01",
"^+	c #7E4F00",
"/+	c #5E3C00",
"(+	c #8E5A02",
"_+	c #B5760B",
":+	c #D78F14",
"<+	c #EC9B11",
"[+	c #F69F0D",
"}+	c #E3920F",
"|+	c #837E75",
"1+	c #828383",
"2+	c #5E5A51",
"3+	c #644104",
"4+	c #905B03",
"5+	c #B57509",
"6+	c #D48B0D",
"7+	c #DF910C",
"8+	c #DE8F0A",
"9+	c #A7792E",
"0+	c #52514E",
"a+	c #462E05",
"b+	c #5A3E12",
"c+	c #625B4F",
"d+	c #553F17",
"e+	c #815100",
"f+	c #A56B07",
"g+	c #C9850E",
"h+	c #DD910E",
"i+	c #E1920D",
"j+	c #CD860F",
"k+	c #837A6E",
"l+	c #757577",
"m+	c #412E0D",
"n+	c #6C4400",
"o+	c #905B01",
"p+	c #AE6F04",
"q+	c #B87706",
"r+	c #A76D09",
"s+	c #745827",
"t+	c #815409",
"u+	c #AD6C03",
"v+	c #CB8005",
"w+	c #B87D21",
"x+	c #4F3C1D",
"y+	c #603C00",
"z+	c #855502",
"A+	c #A86C04",
"B+	c #BE7A06",
"C+	c #BD7907",
"D+	c #996A1B",
"E+	c #7E8185",
"F+	c #848485",
"G+	c #61605E",
"H+	c #413217",
"I+	c #523400",
"J+	c #6E4500",
"K+	c #7A520E",
"L+	c #6B542B",
"M+	c #694609",
"N+	c #9F6502",
"O+	c #C67F0A",
"P+	c #EB980B",
"Q+	c #FEA006",
"R+	c #A4711F",
"S+	c #413218",
"T+	c #4A2D00",
"U+	c #704600",
"V+	c #815B18",
"W+	c #7A756B",
"X+	c #838383",
"Y+	c #727273",
"Z+	c #636059",
"`+	c #6A6357",
" @	c #747068",
".@	c #635C4F",
"+@	c #774900",
"@@	c #A96E08",
"#@	c #D18B13",
"$@	c #F09E13",
"%@	c #FFA40D",
"&@	c #E09315",
"*@	c #777269",
"=@	c #5A564F",
"-@	c #5C513F",
";@	c #6C614E",
">@	c #797772",
",@	c #808181",
"'@	c #828283",
")@	c #5B5447",
"!@	c #6C4200",
"~@	c #9D6504",
"{@	c #C5820D",
"]@	c #DE910F",
"^@	c #E8960B",
"/@	c #CA840E",
"(@	c #858078",
"_@	c #7E7E7E",
":@	c #72706D",
"<@	c #472D00",
"[@	c #7A4E00",
"}@	c #A16703",
"|@	c #BC7804",
"1@	c #967030",
"2@	c #807F7C",
"3@	c #7F7F7F",
"4@	c #575149",
"5@	c #46300B",
"6@	c #623C00",
"7@	c #7B4F03",
"8@	c #7E5B1F",
"9@	c #7C776C",
"0@	c #7F7F80",
"a@	c #6A6967",
"b@	c #665F55",
"c@	c #70685B",
"d@	c #7A7774",
"                              . .                               ",
"                          + @ # $ % &                           ",
"                          * = - ; > ,                           ",
"                        ' ) ! ~ { ] ^ /                         ",
"                      ( _ : < [ } | 1 2 3                       ",
"                  4 5 6 7 8 9 0 a b c d 5 e .                   ",
"                f g h i j k l m n o p q r s t u                 ",
"              v w x y z A B C D E F G H I J K L 3               ",
"            M N O P Q R S T U V W X Y Z `  ...+.@.&             ",
"            #.$.%.&.*.=.-.;.>.,.'.).!.~.{.].^./.(._.            ",
"            :.<.[.}.|.1.2.3.4.5.6.7.8.9.0.a.b.c.d.e.            ",
"            ( f.g.h.i.j.k.l.m.n.o.p.q.r.s.t.u.v.w..             ",
"            f x.y.z.A.B.C.D.E.F.G.H.I.J.K.L.M.N.O.&             ",
"          P.Q.R.S.T.U.V.W.X.Y.Z.`. +.+++@+#+$+%+&+*+            ",
"          M =+-+;+>+,+'+)+!+~+{+]+^+/+(+_+:+<+[+}+|+&           ",
"          1+2+3+4+5+6+7+8+9+0+a+b+c+d+e+f+g+h+i+j+k+3           ",
"          ( l+m+n+o+p+q+r+s+t+u+v+w+x+y+z+A+B+C+D+E+            ",
"            F+G+H+I+J+K+L+M+N+O+P+Q+R+S+T+U+%.V+W++             ",
"              X+Y+Z+`+ @.@+@@@#@$@%@&@*@=@-@;@>@4               ",
"                  ( ,@'@)@!@~@{@]@^@/@(@  _@                    ",
"                        :@<@[@}@5.|@1@2@                        ",
"                        3@4@5@6@7@8@9@.                         ",
"                          0@a@b@c@d@+                           ",
"                            . ,@.                               "};
