/* XPM */
static char * render_scene_xpm[] = {
"32 24 377 2",
"  	c #8B0000",
". 	c #8C0000",
"+ 	c #8D0000",
"@ 	c #8E0000",
"# 	c #8F0000",
"$ 	c #930000",
"% 	c #896D6D",
"& 	c #808080",
"* 	c #7B7B7C",
"= 	c #424B5E",
"- 	c #00356A",
"; 	c #003F7F",
"> 	c #00478D",
", 	c #004D99",
"' 	c #0153A5",
") 	c #025AB0",
"! 	c #0362BE",
"~ 	c #0569CC",
"{ 	c #066FD6",
"] 	c #0773DC",
"^ 	c #A20101",
"/ 	c #B30101",
"( 	c #8D6D6D",
"_ 	c #7F7F7F",
": 	c #50555F",
"< 	c #003162",
"[ 	c #003D7A",
"} 	c #00468C",
"| 	c #0152A3",
"1 	c #0358AB",
"2 	c #045FB8",
"3 	c #0567C7",
"4 	c #066ED3",
"5 	c #0773DE",
"6 	c #0878E5",
"7 	c #097AE9",
"8 	c #850000",
"9 	c #900000",
"0 	c #980101",
"a 	c #9D0101",
"b 	c #A40202",
"c 	c #B40404",
"d 	c #C40606",
"e 	c #D10606",
"f 	c #C20303",
"g 	c #6A6B6D",
"h 	c #072B53",
"i 	c #003871",
"j 	c #004385",
"k 	c #004B95",
"l 	c #0252A2",
"m 	c #0459AC",
"n 	c #075EB5",
"o 	c #0865C0",
"p 	c #096CCE",
"q 	c #0972DA",
"r 	c #0977E4",
"s 	c #097BEB",
"t 	c #097EF0",
"u 	c #790000",
"v 	c #860000",
"w 	c #990101",
"x 	c #A80202",
"y 	c #B40303",
"z 	c #BE0404",
"A 	c #CC0707",
"B 	c #D30808",
"C 	c #D20707",
"D 	c #C20302",
"E 	c #837C77",
"F 	c #8A7262",
"G 	c #897567",
"H 	c #807D7B",
"I 	c #414754",
"J 	c #00305F",
"K 	c #003C79",
"L 	c #00468B",
"M 	c #014E9B",
"N 	c #0456A8",
"O 	c #085EB3",
"P 	c #0B65BD",
"Q 	c #0D6CCA",
"R 	c #0D71D4",
"S 	c #0D76DF",
"T 	c #0B7AE7",
"U 	c #0A7DEE",
"V 	c #0A7FF3",
"W 	c #780000",
"X 	c #A70202",
"Y 	c #BD0404",
"Z 	c #C30606",
"` 	c #CB0707",
" .	c #D20808",
"..	c #C10202",
"+.	c #8F6A67",
"@.	c #887567",
"#.	c #8F6A4B",
"$.	c #95601F",
"%.	c #975E02",
"&.	c #93612C",
"*.	c #724B31",
"=.	c #433D5D",
"-.	c #043E7C",
";.	c #00478E",
">.	c #02509D",
",.	c #0659AB",
"'.	c #0B61B7",
").	c #0F69C3",
"!.	c #1171D0",
"~.	c #1176DA",
"{.	c #1079E1",
"].	c #0E7BE8",
"^.	c #0C7EEE",
"/.	c #0B80F2",
"(.	c #770000",
"_.	c #840000",
":.	c #970101",
"<.	c #A60101",
"[.	c #B30202",
"}.	c #BC0404",
"|.	c #C30605",
"1.	c #CF1408",
"2.	c #C23305",
"3.	c #AA4802",
"4.	c #965B18",
"5.	c #955D02",
"6.	c #965D02",
"7.	c #965E02",
"8.	c #985E02",
"9.	c #985F02",
"0.	c #995F02",
"a.	c #965E16",
"b.	c #81574B",
"c.	c #5C5177",
"d.	c #24519A",
"e.	c #0759AB",
"f.	c #0C62B7",
"g.	c #106AC4",
"h.	c #1373D2",
"i.	c #1378DC",
"j.	c #117AE2",
"k.	c #0F7BE6",
"l.	c #0D7DEB",
"m.	c #0B7EEF",
"n.	c #830000",
"o.	c #960000",
"p.	c #B20202",
"q.	c #BA2405",
"r.	c #B04304",
"s.	c #A15402",
"t.	c #955C02",
"u.	c #9A6002",
"v.	c #9A6003",
"w.	c #9B6104",
"x.	c #8F5F45",
"y.	c #705D7E",
"z.	c #4260A7",
"A.	c #0F69C2",
"B.	c #1271D0",
"C.	c #1276DA",
"D.	c #1179E0",
"E.	c #0F79E3",
"F.	c #0C79E5",
"G.	c #0B7BE9",
"H.	c #760000",
"I.	c #820000",
"J.	c #950000",
"K.	c #A50101",
"L.	c #B10202",
"M.	c #BB0303",
"N.	c #942E02",
"O.	c #764901",
"P.	c #8B5702",
"Q.	c #9B6103",
"R.	c #9C6103",
"S.	c #A16503",
"T.	c #AA6F30",
"U.	c #616AA8",
"V.	c #0F6CC9",
"W.	c #0F72D3",
"X.	c #0F75DA",
"Y.	c #0D75DD",
"Z.	c #0B75DF",
"`.	c #0B76E0",
" +	c #750000",
".+	c #810000",
"++	c #A40101",
"@+	c #B00202",
"#+	c #BA0303",
"$+	c #902902",
"%+	c #573700",
"&+	c #5B3A00",
"*+	c #744801",
"=+	c #996002",
"-+	c #A56804",
";+	c #B37206",
">+	c #BF7A07",
",+	c #C27D08",
"'+	c #6E689A",
")+	c #0A65BF",
"!+	c #0B6AC9",
"~+	c #0B6ED0",
"{+	c #0A70D4",
"]+	c #0A70D7",
"^+	c #0970D6",
"/+	c #740000",
"(+	c #800000",
"_+	c #920000",
":+	c #A30101",
"<+	c #AF0202",
"[+	c #B90303",
"}+	c #902802",
"|+	c #563700",
"1+	c #583700",
"2+	c #714701",
"3+	c #895501",
"4+	c #9D6203",
"5+	c #AA6C05",
"6+	c #B87606",
"7+	c #C27C08",
"8+	c #C17C08",
"9+	c #5C5F96",
"0+	c #065CB2",
"a+	c #0762BC",
"b+	c #0766C4",
"c+	c #0768C9",
"d+	c #076ACC",
"e+	c #086ACC",
"f+	c #730000",
"g+	c #7F0000",
"h+	c #910000",
"i+	c #8F2802",
"j+	c #583800",
"k+	c #5A3900",
"l+	c #6E4501",
"m+	c #875501",
"n+	c #975F03",
"o+	c #A06504",
"p+	c #AF6F05",
"q+	c #BD7A07",
"r+	c #C37E08",
"s+	c #C37D08",
"t+	c #C07C0E",
"u+	c #55578C",
"v+	c #0253A3",
"w+	c #0359AE",
"x+	c #045DB6",
"y+	c #0460BB",
"z+	c #0662BE",
"A+	c #0763BE",
"B+	c #720000",
"C+	c #7E0000",
"D+	c #A10101",
"E+	c #AE0101",
"F+	c #B80303",
"G+	c #922702",
"H+	c #563600",
"I+	c #593800",
"J+	c #593900",
"K+	c #855402",
"L+	c #C17C07",
"M+	c #BE7A15",
"N+	c #4D4F7F",
"O+	c #004A94",
"P+	c #01509E",
"Q+	c #0254A6",
"R+	c #0358AC",
"S+	c #045AAE",
"T+	c #0559AC",
"U+	c #710000",
"V+	c #7D0000",
"W+	c #A00101",
"X+	c #AD0101",
"Y+	c #B70303",
"Z+	c #952602",
"`+	c #875602",
" @	c #C07C07",
".@	c #C07B07",
"+@	c #B67624",
"@@	c #334273",
"#@	c #004182",
"$@	c #00478C",
"%@	c #014B94",
"&@	c #024E99",
"*@	c #034E9A",
"=@	c #034C95",
"-@	c #700000",
";@	c #7C0000",
">@	c #9F0000",
",@	c #AC0101",
"'@	c #942602",
")@	c #553600",
"!@	c #895803",
"~@	c #BF7B07",
"{@	c #B27422",
"]@	c #1F345F",
"^@	c #00366D",
"/@	c #003B77",
"(@	c #003F7D",
"_@	c #014180",
":@	c #01407E",
"<@	c #013B75",
"[@	c #7B0000",
"}@	c #9E0000",
"|@	c #AB0101",
"1@	c #B60202",
"2@	c #895703",
"3@	c #C27D07",
"4@	c #AE7019",
"5@	c #002244",
"6@	c #002851",
"7@	c #002D5A",
"8@	c #002F5F",
"9@	c #1A345B",
"0@	c #555B69",
"a@	c #733F3F",
"b@	c #7B1D1D",
"c@	c #8C0202",
"d@	c #9D0000",
"e@	c #AA0101",
"f@	c #B50202",
"g@	c #932605",
"h@	c #895702",
"i@	c #BE7A07",
"j@	c #AB6F1D",
"k@	c #262B32",
"l@	c #101D2F",
"m@	c #252F3F",
"n@	c #3F4551",
"o@	c #595C63",
"p@	c #747476",
"q@	c #7F7979",
"r@	c #837373",
"s@	c #8A6C6C",
"t@	c #8E6D6D",
"u@	c #8D7373",
"v@	c #766059",
"w@	c #885702",
"x@	c #AF7B46",
"y@	c #7B7B7B",
"z@	c #777777",
"A@	c #706863",
"B@	c #543500",
"C@	c #8E5B03",
"D@	c #BD7907",
"E@	c #AC7B4C",
"F@	c #76716E",
"G@	c #594128",
"H@	c #905C03",
"I@	c #A77C54",
"J@	c #7B7977",
"K@	c #6A5E55",
"L@	c #583C1A",
"M@	c #B67A31",
"N@	c #9E7D62",
"O@	c #85807C",
"P@	c #797573",
"Q@	c #66584C",
"R@	c #57390F",
"S@	c #A07D60",
"T@	c #877F7A",
"U@	c #80807F",
"V@	c #75706C",
"W@	c #614E3D",
"X@	c #563701",
"Y@	c #8F5C03",
"Z@	c #B87B2C",
"`@	c #A27D5D",
" #	c #7E7E7D",
".#	c #716A64",
"+#	c #5E4731",
"@#	c #955F03",
"##	c #B97B2C",
"$#	c #A37D5C",
"%#	c #897F79",
"&#	c #7D7B7A",
"*#	c #8A7566",
"    . . . + + @ @ # $ % & & & & & & & * = - ; > , ' ) ! ~ { ] ] ",
". . . + + @ @ @ # ^ / ( & & & & & & _ : < [ } , | 1 2 3 4 5 6 7 ",
"8   9 $ 0 a b c d e f ( & & & & & & g h i j k l m n o p q r s t ",
"u v w x y z d A B C D ( & & E F G H I J K L M N O P Q R S T U V ",
"W 8 0 X y Y Z `  .e ..+.@.#.$.%.%.&.*.=.-.;.>.,.'.).!.~.{.].^./.",
"(._.:.<.[.}.|.` 1.2.3.4.5.6.7.%.8.9.0.a.b.c.d.e.f.g.h.i.j.k.l.m.",
"(.n.o.<.p.}.q.r.s.t.5.5.6.7.%.8.9.0.0.u.v.w.x.y.z.A.B.C.D.E.F.G.",
"H.I.J.K.L.M.N.O.P.5.6.7.%.%.8.9.0.0.u.v.Q.Q.R.S.T.U.V.W.X.Y.Z.`.",
" +.+$ ++@+#+$+%+&+*+P.7.%.9.9.0.=+u.v.Q.Q.-+;+>+,+'+)+!+~+{+]+^+",
"/+(+_+:+<+[+}+|+%+1+&+2+3+%.0.=+v.v.4+5+6+7+,+,+8+9+0+a+b+c+d+e+",
"f+g+h+^ <+[+i+|+%+%+j+j+k+l+m+n+o+p+q+r+s+,+,+8+t+u+v+w+x+y+z+A+",
"B+C+9 D+E+F+G+H+|+%+1+j+I+J+k+K+8+r+r+,+,+,+8+L+M+N+O+P+Q+R+S+T+",
"U+V+# W+X+Y+Z+H+|+%+%+j+j+I+k+`+r+r+,+,+8+L+ @.@+@@@#@$@%@&@*@=@",
"-@;@@ >@,@Y+'@)@H+|+%+1+j+I+J+!@s+,+,+L+L+ @.@~@{@]@^@/@(@_@:@<@",
"-@[@+ }@|@1@'@)@H+|+%+%+j+j+I+2@,+3@L+L+ @.@~@~@4@5@6@7@8@J 9@0@",
"a@b@c@d@e@f@g@)@)@H+|+%+1+j+I+h@3@L+L+ @.@~@~@i@j@k@l@m@n@o@p@& ",
"& q@r@s@t@u@v@)@)@H+|+%+%+j+j+w@L+L+ @.@~@~@i@i@x@y@z@y@& & & & ",
"& & & & & & A@B@)@)@H+|+%+1+j+C@L+ @.@~@~@i@i@D@E@& & & & & & & ",
"& & & & & & F@G@)@)@H+|+%+%+j+H@ @.@~@~@i@i@D@D@I@& & & & & & & ",
"& & & & & & & J@K@L@)@H+|+%+1+H@.@~@>+i@i@D@M@N@O@& & & & & & & ",
"& & & & & & & & & P@Q@R@|+%+%+H@~@>+i@i@M@S@T@& & & & & & & & & ",
"& & & & & & & & & & U@V@W@X@%+Y@>+i@Z@`@T@& & & & & & & & & & & ",
"& & & & & & & & & & & &  #.#+#@###$#%#& & & & & & & & & & & & & ",
"& & & & & & & & & & & & & & &#*#%#& & & & & & & & & & & & & & & "};
