/* XPM */
static char * lasso_select_xpm[] = {
"32 24 337 2",
"  	c #808080",
". 	c #828282",
"+ 	c #7D7D7D",
"@ 	c #727272",
"# 	c #767575",
"$ 	c #797877",
"% 	c #7B7978",
"& 	c #74797C",
"* 	c #6D777C",
"= 	c #6D777D",
"- 	c #767B7E",
"; 	c #82807F",
"> 	c #83817F",
", 	c #7E7E7E",
"' 	c #616060",
") 	c #595755",
"! 	c #5C5957",
"~ 	c #5E5B59",
"{ 	c #3C4E5B",
"] 	c #244E69",
"^ 	c #1D567C",
"/ 	c #175A84",
"( 	c #175E8B",
"_ 	c #216693",
": 	c #306C92",
"< 	c #587688",
"[ 	c #84807D",
"} 	c #818080",
"| 	c #838383",
"1 	c #565555",
"2 	c #464443",
"3 	c #575452",
"4 	c #404448",
"5 	c #113C56",
"6 	c #044670",
"7 	c #025084",
"8 	c #035A93",
"9 	c #04619E",
"0 	c #0569A9",
"a 	c #0671B6",
"b 	c #0876BC",
"c 	c #0B77BC",
"d 	c #2274A8",
"e 	c #777E82",
"f 	c #797979",
"g 	c #434343",
"h 	c #524F4E",
"i 	c #3F4549",
"j 	c #013253",
"k 	c #014877",
"l 	c #02538A",
"m 	c #035C96",
"n 	c #0363A0",
"o 	c #056AAC",
"p 	c #0674BB",
"q 	c #077DC8",
"r 	c #0983D2",
"s 	c #0A87D7",
"t 	c #0986D5",
"u 	c #0F7CC0",
"v 	c #6A7D89",
"w 	c #81807F",
"x 	c #676767",
"y 	c #383838",
"z 	c #4F4D4C",
"A 	c #053250",
"B 	c #014775",
"C 	c #025489",
"D 	c #035D98",
"E 	c #0464A4",
"F 	c #066AAB",
"G 	c #0872B9",
"H 	c #097CC7",
"I 	c #0A84D4",
"J 	c #0A8ADD",
"K 	c #0B8FE4",
"L 	c #0C92E7",
"M 	c #0A8EE1",
"N 	c #1D81BF",
"O 	c #737F86",
"P 	c #686868",
"Q 	c #363636",
"R 	c #514D4B",
"S 	c #003E67",
"T 	c #025082",
"U 	c #035B94",
"V 	c #0463A2",
"W 	c #076CAE",
"X 	c #0A73B8",
"Y 	c #0D7CC5",
"Z 	c #0D84D1",
"` 	c #0D8BDD",
" .	c #0D90E5",
"..	c #0C94EC",
"+.	c #0E97EF",
"@.	c #0E96EE",
"#.	c #098EE1",
"$.	c #427FA6",
"%.	c #7E8081",
"&.	c #6F6F6F",
"*.	c #3C3C3C",
"=.	c #524D4B",
"-.	c #0D476C",
";.	c #01558A",
">.	c #045F9A",
",.	c #0669A9",
"'.	c #0B72B6",
").	c #0F7BC2",
"!.	c #1285D1",
"~.	c #138CDA",
"{.	c #1290E4",
"].	c #1095EC",
"^.	c #0F97F1",
"/.	c #0E9AF4",
"(.	c #0F9BF3",
"_.	c #0D95ED",
":.	c #1083CC",
"<.	c #7A8084",
"[.	c #777777",
"}.	c #3E3E3E",
"|.	c #334F62",
"1.	c #00568E",
"2.	c #05619D",
"3.	c #096BAD",
"4.	c #0E75BA",
"5.	c #1380C8",
"6.	c #168BD8",
"7.	c #1691E3",
"8.	c #1595E8",
"9.	c #1297EE",
"0.	c #1199F3",
"a.	c #0F9BF5",
"b.	c #0F98F0",
"c.	c #0289DF",
"d.	c #5C7D92",
"e.	c #3A3731",
"f.	c #383837",
"g.	c #4F5050",
"h.	c #16557E",
"i.	c #03619E",
"j.	c #0A6CAC",
"k.	c #0F76BA",
"l.	c #1482CB",
"m.	c #178DDA",
"n.	c #1894E5",
"o.	c #1796EB",
"p.	c #1597ED",
"q.	c #1298F1",
"r.	c #109AF3",
"s.	c #0F97EE",
"t.	c #078BE0",
"u.	c #3F7AA0",
"v.	c #83807F",
"w.	c #45371E",
"x.	c #2A261E",
"y.	c #4A4A4A",
"z.	c #405463",
"A.	c #085E96",
"B.	c #0969A8",
"C.	c #0E73B6",
"D.	c #1280C8",
"E.	c #168BD7",
"F.	c #1891E2",
"G.	c #1695E8",
"H.	c #1496EB",
"I.	c #1195EC",
"J.	c #1097EE",
"K.	c #0F93E9",
"L.	c #0788DA",
"M.	c #3375A0",
"N.	c #84817F",
"O.	c #797A7B",
"P.	c #453721",
"Q.	c #422A03",
"R.	c #323437",
"S.	c #565453",
"T.	c #34576E",
"U.	c #0764A0",
"V.	c #0B6EAE",
"W.	c #0F7AC0",
"X.	c #1384D0",
"Y.	c #148CDA",
"Z.	c #138FE1",
"`.	c #1291E4",
" +	c #1091E4",
".+	c #0F91E5",
"++	c #0E8DE0",
"@+	c #0782D2",
"#+	c #255F86",
"$+	c #807E7C",
"%+	c #828283",
"&+	c #433A2D",
"*+	c #4B3000",
"=+	c #3A290D",
"-+	c #3B3C3D",
";+	c #5C5753",
">+	c #325872",
",+	c #0766A3",
"'+	c #0A72B6",
")+	c #0D7CC4",
"!+	c #0E82CF",
"~+	c #0F87D6",
"{+	c #0F8ADA",
"]+	c #0E8ADB",
"^+	c #0E89DA",
"/+	c #0E89D8",
"(+	c #0C84D2",
"_+	c #0577C2",
":+	c #2D536C",
"<+	c #706D6B",
"[+	c #838484",
"}+	c #4F4D48",
"|+	c #392502",
"1+	c #593900",
"2+	c #3F2D0F",
"3+	c #414140",
"4+	c #605A56",
"5+	c #365A72",
"6+	c #0C66A1",
"7+	c #0771B8",
"8+	c #0A78C1",
"9+	c #0B7DC8",
"0+	c #0B81CD",
"a+	c #0C82D0",
"b+	c #0C81CE",
"c+	c #0C7EC8",
"d+	c #0978C0",
"e+	c #0365A5",
"f+	c #333E46",
"g+	c #5F5C5B",
"h+	c #818181",
"i+	c #767778",
"j+	c #281C0A",
"k+	c #472D00",
"l+	c #5C3A00",
"m+	c #3F2E0F",
"n+	c #3F4041",
"o+	c #5E5C5C",
"p+	c #4C5E6A",
"q+	c #1E618D",
"r+	c #036EB4",
"s+	c #0673BA",
"t+	c #0876BE",
"u+	c #0A76BE",
"v+	c #0971B5",
"w+	c #0467A7",
"x+	c #0C466B",
"y+	c #3A3A3B",
"z+	c #585554",
"A+	c #848484",
"B+	c #514F4E",
"C+	c #251500",
"D+	c #492E00",
"E+	c #432E0A",
"F+	c #2F2F30",
"G+	c #535354",
"H+	c #5F5F5F",
"I+	c #3C5B70",
"J+	c #09619B",
"K+	c #026BB0",
"L+	c #066CAE",
"M+	c #0769AA",
"N+	c #06629D",
"O+	c #0D5889",
"P+	c #2C3E49",
"Q+	c #454341",
"R+	c #5E5D5B",
"S+	c #858686",
"T+	c #373430",
"U+	c #281900",
"V+	c #422A00",
"W+	c #553600",
"X+	c #563700",
"Y+	c #32291A",
"Z+	c #5C5B59",
"`+	c #5F5B57",
" @	c #465660",
".@	c #22587C",
"+@	c #0F5481",
"@@	c #0F4C73",
"#@	c #264153",
"$@	c #484543",
"%@	c #545250",
"&@	c #646362",
"*@	c #3D3B37",
"=@	c #221804",
"-@	c #301E00",
";@	c #472C00",
">@	c #573700",
",@	c #3E2B09",
"'@	c #3D3529",
")@	c #454340",
"!@	c #504F4F",
"~@	c #5D5753",
"{@	c #5C5550",
"]@	c #5C5551",
"^@	c #585451",
"/@	c #454544",
"(@	c #545253",
"_@	c #676565",
":@	c #7F7F7F",
"<@	c #7E7F7F",
"[@	c #5E5E5D",
"}@	c #343029",
"|@	c #1A1000",
"1@	c #271500",
"2@	c #3B2200",
"3@	c #392300",
"4@	c #342000",
"5@	c #352B19",
"6@	c #3E3D3C",
"7@	c #4B4B4B",
"8@	c #4D4D4D",
"9@	c #393939",
"0@	c #5E5D5D",
"a@	c #6F6E6D",
"b@	c #7C7C7C",
"c@	c #777776",
"d@	c #656361",
"e@	c #5A5650",
"f@	c #5C5850",
"g@	c #6E6963",
"h@	c #7B7A78",
"i@	c #7B7B7A",
"j@	c #7B7B7B",
"k@	c #4F4F4F",
"l@	c #4E4D4D",
"m@	c #666665",
"n@	c #818282",
"o@	c #3D3D3D",
"p@	c #5E5D5C",
"q@	c #757474",
"r@	c #636363",
"s@	c #6A6969",
"t@	c #464646",
"u@	c #505050",
"v@	c #525252",
"                                                                ",
"              . + @ # $ % & * = - ; >                           ",
"            , ' ) ! ~ { ] ^ / ( _ : < [ }                       ",
"          | 1 2 3 4 5 6 7 8 9 0 a b c d e ;                     ",
"          f g h i j k l m n o p q r s t u v w                   ",
"          x y z A B C D E F G H I J K L M N O                   ",
"          P Q R S T U V W X Y Z `  ...+.@.#.$.%.                ",
"          &.*.=.-.;.>.,.'.).!.~.{.].^./.(._.:.<.                ",
"          [.}.2 |.1.2.3.4.5.6.7.8.9.0.a.a.b.c.d.w               ",
"          , e.f.g.h.i.j.k.l.m.n.o.p.q.r.r.s.t.u.v.              ",
"          f w.x.y.z.A.B.C.D.E.F.G.H.I.J.s.K.L.M.N.              ",
"          O.P.Q.R.S.T.U.V.W.X.Y.Z.`. +.+.+++@+#+$+              ",
"          %+&+*+=+-+;+>+,+'+)+!+~+{+]+^+/+(+_+:+<+.             ",
"          [+}+|+1+2+3+4+5+6+7+8+9+0+a+b+c+d+e+f+g+|             ",
"          h+i+j+k+l+m+n+o+p+q+r+s+t+d+u+v+w+x+y+z+[+            ",
"            A+B+C+D+l+E+F+G+H+I+J+K+L+M+N+O+P+Q+R+|             ",
"              S+T+U+V+W+X+Y+g Z+`+ @.@+@@@#@$@%@&@.             ",
"                h+*@=@-@;@>@,@'@)@!@~@{@]@^@/@(@_@:@            ",
"                  <@[@}@|@1@2@3@4@5@6@7@7@8@g 9@0@a@.           ",
"                      b@c@d@e@f@g@h@i@j@b@b@  k@l@m@b@          ",
"                          h+. n@h+            A+o@p@q@          ",
"                                              h+r@y.s@:@        ",
"                                                j@t@H+,         ",
"                                                + u@v@+         "};
