/* XPM */
static char * select_freehand_xpm[] = {
"32 24 399 2",
"  	c #808080",
". 	c #808181",
"+ 	c #7E7E7E",
"@ 	c #808182",
"# 	c #75736F",
"$ 	c #625647",
"% 	c #818285",
"& 	c #808387",
"* 	c #808286",
"= 	c #7F8184",
"- 	c #808081",
"; 	c #828383",
"> 	c #7C7C7C",
", 	c #62584B",
"' 	c #5D472C",
") 	c #6C4D2A",
"! 	c #818284",
"~ 	c #7B7975",
"{ 	c #74644A",
"] 	c #795D2F",
"^ 	c #805F2B",
"/ 	c #846431",
"( 	c #86704D",
"_ 	c #7F7E79",
": 	c #7F8183",
"< 	c #828385",
"[ 	c #67625C",
"} 	c #57432A",
"| 	c #684C2A",
"1 	c #795933",
"2 	c #88673D",
"3 	c #7A7872",
"4 	c #67532F",
"5 	c #6B4200",
"6 	c #835100",
"7 	c #925B00",
"8 	c #9D6200",
"9 	c #AB6B01",
"0 	c #B67100",
"a 	c #B77102",
"b 	c #9E773A",
"c 	c #848079",
"d 	c #7F7F7F",
"e 	c #767470",
"f 	c #5A4A37",
"g 	c #614524",
"h 	c #765630",
"i 	c #84633A",
"j 	c #8F6D42",
"k 	c #947145",
"l 	c #70695C",
"m 	c #61420C",
"n 	c #784B00",
"o 	c #8B5801",
"p 	c #965F01",
"q 	c #A06602",
"r 	c #AF6E03",
"s 	c #BF7803",
"t 	c #CC8105",
"u 	c #D58606",
"v 	c #D88600",
"w 	c #C27F14",
"x 	c #8F7F64",
"y 	c #7F8081",
"z 	c #808180",
"A 	c #818480",
"B 	c #7F837F",
"C 	c #74736E",
"D 	c #665B4E",
"E 	c #5B4226",
"F 	c #6F502A",
"G 	c #806037",
"H 	c #8C6A40",
"I 	c #937044",
"J 	c #926E42",
"K 	c #89663B",
"L 	c #818181",
"M 	c #736F68",
"N 	c #5C3E08",
"O 	c #794C00",
"P 	c #8E5A01",
"Q 	c #9B6201",
"R 	c #A56903",
"S 	c #AD6F04",
"T 	c #BB7705",
"U 	c #CB8106",
"V 	c #D78906",
"W 	c #E18F06",
"X 	c #E89308",
"Y 	c #E89206",
"Z 	c #CE8614",
"` 	c #8F8169",
" .	c #818882",
"..	c #787378",
"+.	c #774379",
"@.	c #832A86",
"#.	c #634438",
"$.	c #684B27",
"%.	c #7C5C35",
"&.	c #8A683E",
"*.	c #926F44",
"=.	c #926F42",
"-.	c #8C683D",
";.	c #816036",
">.	c #6F522C",
",.	c #818384",
"'.	c #4E370E",
").	c #6F4600",
"!.	c #895701",
"~.	c #996101",
"{.	c #A66A03",
"].	c #B07106",
"^.	c #BB7908",
"/.	c #C98209",
"(.	c #D3890A",
"_.	c #DF8F09",
":.	c #E99409",
"<.	c #F09909",
"[.	c #F39A09",
"}.	c #F19905",
"|.	c #AB712F",
"1.	c #6E2A6C",
"2.	c #7A0880",
"3.	c #8F0395",
"4.	c #AA02B5",
"5.	c #9F2987",
"6.	c #846836",
"7.	c #916E43",
"8.	c #937043",
"9.	c #8E6A3E",
"0.	c #836237",
"a.	c #765730",
"b.	c #5D4221",
"c.	c #544635",
"d.	c #848484",
"e.	c #555654",
"f.	c #533703",
"g.	c #7D4F00",
"h.	c #905B01",
"i.	c #A06603",
"j.	c #AE7006",
"k.	c #B9790A",
"l.	c #C8830D",
"m.	c #D48C0F",
"n.	c #DD910E",
"o.	c #E5950D",
"p.	c #ED990B",
"q.	c #F49D0A",
"r.	c #F49B0B",
"s.	c #BB6426",
"t.	c #780675",
"u.	c #8F0197",
"v.	c #A606AE",
"w.	c #B90CC1",
"x.	c #C710D0",
"y.	c #D80AE6",
"z.	c #A45A69",
"A.	c #8E6D3C",
"B.	c #876338",
"C.	c #795931",
"D.	c #684D2B",
"E.	c #54412A",
"F.	c #655F59",
"G.	c #818182",
"H.	c #858382",
"I.	c #132F46",
"J.	c #183B4D",
"K.	c #5F5021",
"L.	c #8F5E06",
"M.	c #A86900",
"N.	c #B57404",
"O.	c #C27E0B",
"P.	c #D08A10",
"Q.	c #DD9313",
"R.	c #E59813",
"S.	c #E99A10",
"T.	c #F29E0D",
"U.	c #E7920F",
"V.	c #A3493A",
"W.	c #720082",
"X.	c #9702A1",
"Y.	c #B10AB9",
"Z.	c #BF10C8",
"`.	c #CD13D7",
" +	c #D915E3",
".+	c #DE12E9",
"++	c #CA21C1",
"@+	c #7D5B34",
"#+	c #684C26",
"$+	c #5C472E",
"%+	c #5C5247",
"&+	c #777776",
"*+	c #838485",
"=+	c #727373",
"-+	c #072B45",
";+	c #003C6A",
">+	c #074B79",
",+	c #28586C",
"'+	c #516456",
")+	c #7C713F",
"!+	c #A47D2B",
"~+	c #D08C16",
"{+	c #E19615",
"]+	c #E99A15",
"^+	c #ED9C13",
"/+	c #EF9F0C",
"(+	c #862F46",
"_+	c #7C008B",
":+	c #9D05A5",
"<+	c #AC0AB4",
"[+	c #B80FC1",
"}+	c #CD15D6",
"|+	c #D614DF",
"1+	c #D611E0",
"2+	c #CC0DD7",
"3+	c #C20BCB",
"4+	c #7F2966",
"5+	c #5D5542",
"6+	c #726F6C",
"7+	c #818283",
"8+	c #828282",
"9+	c #6D6A65",
"0+	c #0A2A41",
"a+	c #003A66",
"b+	c #00487E",
"c+	c #005391",
"d+	c #045D9D",
"e+	c #0D68A8",
"f+	c #1673B4",
"g+	c #8B8657",
"h+	c #E09413",
"i+	c #E69914",
"j+	c #F0A010",
"k+	c #A2572A",
"l+	c #730475",
"m+	c #9A04A1",
"n+	c #A90AB1",
"o+	c #B30DBB",
"p+	c #BB0FC4",
"q+	c #C40FCD",
"r+	c #CB0ED4",
"s+	c #BE0AC7",
"t+	c #B409BC",
"u+	c #97069F",
"v+	c #774279",
"w+	c #7E827D",
"x+	c #6B6865",
"y+	c #28291E",
"z+	c #0D3852",
"A+	c #0F4669",
"B+	c #055085",
"C+	c #045A97",
"D+	c #0562A7",
"E+	c #096DB8",
"F+	c #1479C2",
"G+	c #7C886A",
"H+	c #DD9413",
"I+	c #CA7F15",
"J+	c #701656",
"K+	c #83018A",
"L+	c #94049B",
"M+	c #A80BB0",
"N+	c #AE0AB6",
"O+	c #B009B9",
"P+	c #AD07B6",
"Q+	c #AB06B3",
"R+	c #A305AB",
"S+	c #800786",
"T+	c #6C426E",
"U+	c #737375",
"V+	c #332306",
"W+	c #5A3600",
"X+	c #6E4600",
"Y+	c #5C5024",
"Z+	c #44574D",
"`+	c #285D77",
" @	c #0465AE",
".@	c #0870BE",
"+@	c #0379D2",
"@@	c #61847F",
"#@	c #AE701D",
"$@	c #720E5F",
"%@	c #7F0185",
"&@	c #86038D",
"*@	c #95059C",
"=@	c #9D04A5",
"-@	c #97039F",
";@	c #8C0093",
">@	c #7F0085",
",@	c #6F1773",
"'@	c #736074",
")@	c #828782",
"!@	c #848586",
"~@	c #30281A",
"{@	c #452C00",
"]@	c #623E00",
"^@	c #774A00",
"/@	c #885300",
"(@	c #855A0B",
"_@	c #285F7A",
":@	c #0066B6",
"<@	c #066FBC",
"[@	c #0475C8",
"}@	c #2F6985",
"|@	c #3D1441",
"1@	c #630063",
"2@	c #660067",
"3@	c #710073",
"4@	c #770081",
"5@	c #630069",
"6@	c #611C64",
"7@	c #6C4A6D",
"8@	c #797279",
"9@	c #818280",
"0@	c #555352",
"a@	c #2A1A00",
"b@	c #503200",
"c@	c #654000",
"d@	c #734900",
"e@	c #805101",
"f@	c #7C5A15",
"g@	c #345E6D",
"h@	c #0063B0",
"i@	c #0069BB",
"j@	c #026EBC",
"k@	c #0665AC",
"l@	c #1B285E",
"m@	c #211B50",
"n@	c #262153",
"o@	c #52242A",
"p@	c #74656D",
"q@	c #7D7A7D",
"r@	c #848585",
"s@	c #272218",
"t@	c #352100",
"u@	c #503300",
"v@	c #613E00",
"w@	c #6D4600",
"x@	c #7F5000",
"y@	c #8E5A00",
"z@	c #8F610C",
"A@	c #906614",
"B@	c #32657A",
"C@	c #0A66A7",
"D@	c #0468B0",
"E@	c #0263A9",
"F@	c #19597B",
"G@	c #6F6342",
"H@	c #807F7C",
"I@	c #6F6F6F",
"J@	c #221B0E",
"K@	c #311E00",
"L@	c #492E00",
"M@	c #573800",
"N@	c #684300",
"O@	c #865400",
"P@	c #8F5A00",
"Q@	c #995E00",
"R@	c #685D30",
"S@	c #1A5679",
"T@	c #004B83",
"U@	c #2A4B5D",
"V@	c #7B766F",
"W@	c #666665",
"X@	c #252016",
"Y@	c #221400",
"Z@	c #392400",
"`@	c #4C3100",
" #	c #5D3C00",
".#	c #6A4400",
"+#	c #724901",
"@#	c #774B01",
"##	c #7A4A00",
"$#	c #543D0C",
"%#	c #24465C",
"&#	c #717372",
"*#	c #828181",
"=#	c #7A7A7A",
"-#	c #43423F",
";#	c #110A00",
">#	c #1E1100",
",#	c #332000",
"'#	c #412800",
")#	c #492D00",
"!#	c #482B00",
"~#	c #4A3006",
"{#	c #685C49",
"]#	c #7C7D7E",
"^#	c #818080",
"/#	c #838383",
"(#	c #5C5C5B",
"_#	c #48443F",
":#	c #484339",
"<#	c #524C40",
"[#	c #69665F",
"}#	c #818282",
"|#	c #858585",
"1#	c #848485",
"2#	c #828283",
"                                                            . + ",
"                                                        . @ # $ ",
"                . % & & * = -                         ; > , ' ) ",
"              ! ~ { ] ^ / ( _ :                   - < [ } | 1 2 ",
"            3 4 5 6 7 8 9 0 a b c               d e f g h i j k ",
"        - l m n o p q r s t u v w x y   z A B C D E F G H I J K ",
"      L M N O P Q R S T U V W X Y Z `  ...+.@.#.$.%.&.*.=.-.;.>.",
"      ,.'.).!.~.{.].^./.(._.:.<.[.}.|.1.2.3.4.5.6.7.8.9.0.a.b.c.",
"    d.e.f.g.h.i.j.k.l.m.n.o.p.q.r.s.t.u.v.w.x.y.z.A.B.C.D.E.F.G.",
"    H.I.J.K.L.M.N.O.P.Q.R.S.T.U.V.W.X.Y.Z.`. +.+++@+#+$+%+&+*+  ",
"  L =+-+;+>+,+'+)+!+~+{+]+^+/+(+_+:+<+[+}+|+1+2+3+4+5+6+7+L     ",
"  8+9+0+a+b+c+d+e+f+g+h+i+j+k+l+m+n+o+p+q+r+s+t+u+v+w+          ",
"  8+x+y+z+A+B+C+D+E+F+G+H+I+J+K+L+M+N+O+P+Q+R+S+T+A             ",
"  L U+V+W+X+Y+Z+`+ @.@+@@@#@$@%@&@*@=@-@;@>@,@'@)@              ",
"    !@~@{@]@^@/@(@_@:@<@[@}@|@1@2@3@4@5@6@7@8@9@                ",
"    d.0@a@b@c@d@e@f@g@h@i@j@k@l@m@n@o@p@q@d                     ",
"      r@s@t@u@v@w@x@y@z@A@B@C@D@E@F@G@H@                        ",
"      L I@J@K@L@M@N@O O@P@Q@R@S@T@U@V@-                         ",
"        - W@X@Y@Z@`@ #.#+#@###$#%#&#*#                          ",
"            =#-#;#>#,#'#)#!#~#{#]#^#                            ",
"              /#L (#_#:#<#[#- }#                                ",
"                  /#|#!@1#2#                                    ",
"                                                                ",
"                                                                "};
