/* XPM */
static char * select_named_xpm[] = {
"32 24 366 2",
"  	c #808080",
". 	c #828282",
"+ 	c #838383",
"@ 	c #7A7A7A",
"# 	c #797979",
"$ 	c #818181",
"% 	c #848484",
"& 	c #6A6A6A",
"* 	c #535251",
"= 	c #403F3F",
"- 	c #555454",
"; 	c #727272",
"> 	c #504F4F",
", 	c #353433",
"' 	c #313030",
") 	c #2F2E2D",
"! 	c #2F2E2E",
"~ 	c #323030",
"{ 	c #353333",
"] 	c #434241",
"^ 	c #666565",
"/ 	c #828281",
"( 	c #80807F",
"_ 	c #7C7E7C",
": 	c #757575",
"< 	c #595858",
"[ 	c #3A3938",
"} 	c #2B2A2A",
"| 	c #2E2D2C",
"1 	c #31302F",
"2 	c #323130",
"3 	c #333231",
"4 	c #343332",
"5 	c #363434",
"6 	c #353332",
"7 	c #3C3A39",
"8 	c #5A5959",
"9 	c #787877",
"0 	c #7D7D7D",
"a 	c #7F7F7F",
"b 	c #6C7A6C",
"c 	c #2C5E2B",
"d 	c #1E3A1D",
"e 	c #292E28",
"f 	c #312C30",
"g 	c #323131",
"h 	c #333232",
"i 	c #343333",
"j 	c #363534",
"k 	c #373635",
"l 	c #383736",
"m 	c #3A3837",
"n 	c #3B3938",
"o 	c #383635",
"p 	c #363332",
"q 	c #605E5D",
"r 	c #959293",
"s 	c #8D8B8D",
"t 	c #5B635B",
"u 	c #0A3F0A",
"v 	c #035804",
"w 	c #0B5C0B",
"x 	c #1C4D1B",
"y 	c #303530",
"z 	c #373135",
"A 	c #363435",
"B 	c #363535",
"C 	c #373636",
"D 	c #383737",
"E 	c #3B3A39",
"F 	c #3C3B3A",
"G 	c #393736",
"H 	c #605E5C",
"I 	c #A6A0A1",
"J 	c #D5CBD0",
"K 	c #C3CDBE",
"L 	c #7B937A",
"M 	c #7E807E",
"N 	c #626262",
"O 	c #1E1F1E",
"P 	c #1F251F",
"Q 	c #133913",
"R 	c #035803",
"S 	c #036903",
"T 	c #185618",
"U 	c #343A33",
"V 	c #3A3539",
"W 	c #393838",
"X 	c #3A3939",
"Y 	c #393837",
"Z 	c #7A7776",
"` 	c #CEC9C9",
" .	c #F0E8EC",
"..	c #AEC5AB",
"+.	c #479646",
"@.	c #0E8C0E",
"#.	c #358C35",
"$.	c #7C817C",
"%.	c #646464",
"&.	c #202020",
"*.	c #212121",
"=.	c #222022",
"-.	c #222222",
";.	c #143714",
">.	c #045904",
",.	c #006C00",
"'.	c #155C15",
").	c #314330",
"!.	c #393C38",
"~.	c #555453",
"{.	c #989695",
"].	c #E1E0DD",
"^.	c #E3E9DF",
"/.	c #94BC93",
"(.	c #238923",
"_.	c #008900",
":.	c #059305",
"<.	c #049304",
"[.	c #338B33",
"}.	c #636363",
"|.	c #1E1E1E",
"1.	c #242024",
"2.	c #242124",
"3.	c #173517",
"4.	c #095109",
"5.	c #026702",
"6.	c #0C650B",
"7.	c #9BAF98",
"8.	c #DDE0DA",
"9.	c #B3D2B1",
"0.	c #66AA64",
"a.	c #128812",
"b.	c #008800",
"c.	c #079307",
"d.	c #079207",
"e.	c #039203",
"f.	c #3E8A3D",
"g.	c #1F1F1F",
"h.	c #232323",
"i.	c #242224",
"j.	c #242424",
"k.	c #1A2C1A",
"l.	c #357336",
"m.	c #72B071",
"n.	c #349534",
"o.	c #0A8D0A",
"p.	c #008F00",
"q.	c #059405",
"r.	c #079106",
"s.	c #039202",
"t.	c #438943",
"u.	c #7F807F",
"v.	c #656565",
"w.	c #1C1C1D",
"x.	c #1D1D1D",
"y.	c #191919",
"z.	c #717171",
"A.	c #618B61",
"B.	c #008300",
"C.	c #019301",
"D.	c #019101",
"E.	c #019001",
"F.	c #019000",
"G.	c #018F00",
"H.	c #458445",
"I.	c #7C7D7C",
"J.	c #7D7E7E",
"K.	c #7E7E7E",
"L.	c #666666",
"M.	c #333333",
"N.	c #888888",
"O.	c #9B9B9B",
"P.	c #9B9B9A",
"Q.	c #999998",
"R.	c #BCBCBC",
"S.	c #ADC0AD",
"T.	c #8DC38D",
"U.	c #8BC38B",
"V.	c #89C189",
"W.	c #8CC38C",
"X.	c #89C089",
"Y.	c #8DC48C",
"Z.	c #90C78F",
"`.	c #8EC68D",
" +	c #ADC2AD",
".+	c #C0C0C0",
"++	c #C1C1C1",
"@+	c #BCB3B3",
"#+	c #AFA7A7",
"$+	c #3C3C3C",
"%+	c #B4B4B4",
"&+	c #CCCCCC",
"*+	c #CCCCCB",
"=+	c #C3C3C2",
"-+	c #C7C5C6",
";+	c #C7C2C6",
">+	c #AEAAAE",
",+	c #A19DA1",
"'+	c #AFABAF",
")+	c #AAA6AB",
"!+	c #BFBABE",
"~+	c #C3BEC2",
"{+	c #C4C0C4",
"]+	c #CAC5C9",
"^+	c #C5C5C4",
"/+	c #C2C3C2",
"(+	c #B8A8A8",
"_+	c #A99B9B",
":+	c #3A3A3A",
"<+	c #ACACAC",
"[+	c #C3C3C3",
"}+	c #C4C4C4",
"|+	c #B1B1B1",
"1+	c #B9B9B9",
"2+	c #AEAEAE",
"3+	c #B8B8B8",
"4+	c #BBBBBB",
"5+	c #B3B3B3",
"6+	c #B6B6B6",
"7+	c #ADADAD",
"8+	c #B0B1B1",
"9+	c #B8B9B9",
"0+	c #696969",
"a+	c #1C1C1C",
"b+	c #363636",
"c+	c #999999",
"d+	c #A4A4A4",
"e+	c #929292",
"f+	c #AFAFAF",
"g+	c #C8C8C9",
"h+	c #DADBDB",
"i+	c #C6C8C8",
"j+	c #E5E6E6",
"k+	c #FBFBFB",
"l+	c #F6F6F6",
"m+	c #CFCFCF",
"n+	c #D1D1D2",
"o+	c #CACBCC",
"p+	c #EBEBEB",
"q+	c #FDFDFD",
"r+	c #E4E4E4",
"s+	c #D3D4D5",
"t+	c #D7D7D8",
"u+	c #D8D9D9",
"v+	c #F1F1F1",
"w+	c #1B1B1B",
"x+	c #AAAAAA",
"y+	c #BFBFC0",
"z+	c #C6C7C6",
"A+	c #D1D2D2",
"B+	c #CACBCB",
"C+	c #E1E1E0",
"D+	c #EDEDED",
"E+	c #E9E9E9",
"F+	c #C8C9C8",
"G+	c #CECFCE",
"H+	c #CBCCCC",
"I+	c #E3E4E3",
"J+	c #EFEFEF",
"K+	c #DADADA",
"L+	c #CDCECD",
"M+	c #D0D0D0",
"N+	c #DCDCDC",
"O+	c #E7E7E7",
"P+	c #1A1A1A",
"Q+	c #353535",
"R+	c #9F9F9F",
"S+	c #9A9A9A",
"T+	c #9D9D9D",
"U+	c #C5C5C5",
"V+	c #D4D4D5",
"W+	c #D3D4D4",
"X+	c #F0F0F0",
"Y+	c #F2F2F2",
"Z+	c #EEEEEE",
"`+	c #C9C9C9",
" @	c #CACCCC",
".@	c #F5F4F5",
"+@	c #F4F4F4",
"@@	c #DDDDDD",
"#@	c #CECFCF",
"$@	c #CFD0D0",
"%@	c #DBDCDC",
"&@	c #F5F5F5",
"*@	c #787878",
"=@	c #454545",
"-@	c #181818",
";@	c #343434",
">@	c #A3A3A3",
",@	c #A6A6A6",
"'@	c #C5C6C5",
")@	c #E0E0E0",
"!@	c #C7C8C7",
"~@	c #CDCECE",
"{@	c #D5D5D4",
"]@	c #CCCDCD",
"^@	c #D1D2D1",
"/@	c #B5B5B5",
"(@	c #8A8A8A",
"_@	c #979797",
":@	c #C8C8C8",
"<@	c #BCBDBE",
"[@	c #DEDEDF",
"}@	c #BCBEBF",
"|@	c #FEFEFE",
"1@	c #F9F9F9",
"2@	c #CDCFCF",
"3@	c #E9E9EA",
"4@	c #FFFFFF",
"5@	c #E8E8E8",
"6@	c #C8C9CA",
"7@	c #C7C9C9",
"8@	c #F3F3F3",
"9@	c #747474",
"0@	c #BEBEBE",
"a@	c #D2D2D1",
"b@	c #DDDDDC",
"c@	c #DEDEDD",
"d@	c #E0E0DF",
"e@	c #E3E3E2",
"f@	c #E4E3E3",
"g@	c #CDCDCB",
"h@	c #BDBDBB",
"i@	c #B0B0B0",
"j@	c #B4B4B3",
"k@	c #BFBFBE",
"l@	c #C4C4C3",
"m@	c #C7C7C6",
"n@	c #8B8B8B",
"o@	c #BDBDBD",
"p@	c #A1A1A1",
"q@	c #9E9E9E",
"r@	c #A2A2A2",
"s@	c #BFBFBF",
"t@	c #D5D6D6",
"u@	c #F6F6F5",
"v@	c #F8F8F8",
"w@	c #FAFAF9",
"x@	c #D0D0CF",
"y@	c #A8A8A8",
"z@	c #989898",
"A@	c #CACAC9",
"B@	c #B4B5B5",
"C@	c #E4E4E3",
"D@	c #D8D8D7",
"E@	c #E6E7E5",
"F@	c #EBECEB",
"G@	c #EEEEED",
"H@	c #EFEFEE",
"I@	c #F0F0EF",
"J@	c #C0C0BF",
"K@	c #B7B7B7",
"L@	c #C2C2C1",
"M@	c #CBCBCB",
"N@	c #D2D2D2",
"O@	c #898989",
"P@	c #ABABAB",
"Q@	c #868686",
"R@	c #D0D2D1",
"S@	c #D0D2D2",
"T@	c #F1F1F2",
"U@	c #B2B2B1",
"V@	c #969696",
"W@	c #8D8D8D",
"X@	c #BFC1C0",
"Y@	c #E5E5E4",
"                                                                ",
"                          . + @ # + $                           ",
"                    $ % $ & * = = - ; % .                       ",
"                . + ; > , ' ) ) ! ~ { ] ^ / .                   ",
"          ( _ : < [ } | ! 1 ~ 2 3 4 { 5 6 7 8 9 0 a             ",
"          b c d e f ' g h 4 i j j k l m n 7 o p q r s           ",
"          t u v w x y z A B C l D [ E F G l H I J K L M         ",
"        $ N O P Q R S T U V W X E F Y F Z `  ...+.@.#.$.        ",
"        $ %.&.*.=.-.;.>.,.'.).!.] ~.{.].^./.(._.:.<.[.$.        ",
"        $ }.|.&.*.-.1.2.3.4.5.6.7.8.9.0.a.b.<.c.d.e.f.M         ",
"        $ }.|.g.&.*.-.h.i.j.k.l.m.n.o.p.q.c.c.d.r.s.t.u.        ",
"        $ v.*.g.g.&.w.x.|.|.y.z.A.B.C.D.D.E.E.F.G.p.H.I.0 0 J.K.",
"        $ L.*.|.g.M.N.O.P.O.Q.R.S.T.U.V.W.X.Y.Z.Z.`. +.+.+++@+#+",
"        $ L.*.x.x.$+%+&+*+*+&+=+-+;+>+,+'+)+!+~+{+]+-+^+^+/+(+_+",
"        $ v.g.x.x.:+<+[+}+}+[+|+1+|+2+3+3+1+4+2+5+6+6+1+3+7+8+9+",
"          0+-.a+x.b+c+d+O.e+f+g+h+i+j+k+l+m+n+o+p+q+r+s+t+u+v+k+",
"          & h.w+a+b+d+2+<+x+y+z+A+B+C+D+E+F+G+H+I+J+K+L+M+N+O+D+",
"          & -.P+w+Q+c+R+S+T+3+U+V+W+X+Y+Z+`+ @h+.@+@@@#@$@%@&@Y+",
"          *@=@a+-@;@>@2+,@|+R.'@m+H+)@O+r+!@~@B+r+E+{@~@]@^@r+O+",
"            K.& b+;@,@/@(@_@:@<@[@}@j+|@1@`+2@~@3@4@5@6@s+7@8@4@",
"              $ $ 9@7+4+R.R.0@a@b@c@b@d@d@d@e@f@g@h@i@j@k@^+l@m@",
"                  n@o@p@q@r@s@c@]@B+t@u@v@v@v@w@x@j@y@z@A@B@F+C@",
"                  n@/@R..+s@o@D@E@F@G@H@H@H@H@I@{@J@K@s@L@U+M@N@",
"                  O@K@P@Q@c+0@N+R@S@T@4@|@|@|@4@N@U@V@W@&+X@g+Y@"};
