/* XPM */
static char * rectangle_select_xpm[] = {
"32 24 445 2",
"  	c #808080",
". 	c #807F80",
"+ 	c #808180",
"@ 	c #808380",
"# 	c #874985",
"$ 	c #874986",
"% 	c #864B86",
"& 	c #845583",
"* 	c #845484",
"= 	c #855484",
"- 	c #855584",
"; 	c #835A82",
"> 	c #835B82",
", 	c #835C82",
"' 	c #836082",
") 	c #836182",
"! 	c #836282",
"~ 	c #836782",
"{ 	c #836682",
"] 	c #7E867E",
"^ 	c #A500A3",
"/ 	c #A300A2",
"( 	c #A200A2",
"_ 	c #A102A0",
": 	c #A103A0",
"< 	c #A204A0",
"[ 	c #9F089E",
"} 	c #9F099D",
"| 	c #9F099E",
"1 	c #A0099F",
"2 	c #A00A9E",
"3 	c #9D0F9B",
"4 	c #9D109B",
"5 	c #9E0C9D",
"6 	c #856E85",
"7 	c #808280",
"8 	c #AC00AC",
"9 	c #A904AA",
"0 	c #A905A9",
"a 	c #AD00AD",
"b 	c #B000AE",
"c 	c #B200AE",
"d 	c #B200AD",
"e 	c #B200AC",
"f 	c #B100AC",
"g 	c #AF00AC",
"h 	c #AC00AD",
"i 	c #AC01AC",
"j 	c #886988",
"k 	c #7F827F",
"l 	c #AB00AB",
"m 	c #A216A2",
"n 	c #847284",
"o 	c #7D857D",
"p 	c #727D79",
"q 	c #425170",
"r 	c #144171",
"s 	c #0E4880",
"t 	c #104F8B",
"u 	c #125291",
"v 	c #234F9C",
"w 	c #284E9C",
"x 	c #555B93",
"y 	c #83678B",
"z 	c #896689",
"A 	c #8E5B8D",
"B 	c #8E598E",
"C 	c #875087",
"D 	c #9C139C",
"E 	c #837883",
"F 	c #A803A8",
"G 	c #A311A2",
"H 	c #866A85",
"I 	c #818080",
"J 	c #797B7C",
"K 	c #425968",
"L 	c #023C60",
"M 	c #004876",
"N 	c #015589",
"O 	c #025D95",
"P 	c #03639E",
"Q 	c #046AAA",
"R 	c #0473B5",
"S 	c #0578BD",
"T 	c #0077BE",
"U 	c #1376AF",
"V 	c #537D91",
"W 	c #7D837F",
"X 	c #7F837F",
"Y 	c #7F847F",
"Z 	c #777377",
"` 	c #961996",
" .	c #817E81",
"..	c #7E857E",
"+.	c #A50BA5",
"@.	c #A30DA2",
"#.	c #866786",
"$.	c #7D7D7E",
"%.	c #29495E",
"&.	c #003E67",
"*.	c #014D7F",
"=.	c #02568D",
"-.	c #035D97",
";.	c #0363A1",
">.	c #056BAC",
",.	c #0673B9",
"'.	c #077BC6",
").	c #0981CE",
"!.	c #0A86D4",
"~.	c #0986D6",
"{.	c #0A80CA",
"].	c #3F7BA0",
"^.	c #80807F",
"/.	c #7C6D7C",
"(.	c #991599",
"_.	c #7E877E",
":.	c #A50AA5",
"<.	c #A20DA1",
"[.	c #868583",
"}.	c #2A4456",
"|.	c #003D65",
"1.	c #024D7E",
"2.	c #02568E",
"3.	c #035E9A",
"4.	c #0465A3",
"5.	c #0569AB",
"6.	c #0772B8",
"7.	c #087AC5",
"8.	c #0982D0",
"9.	c #0A88DA",
"0.	c #0B8DE1",
"a.	c #0C90E4",
"b.	c #0C8FE3",
"c.	c #0785D6",
"d.	c #4D7B99",
"e.	c #83817F",
"f.	c #786778",
"g.	c #950E95",
"h.	c #A70AA7",
"i.	c #A20DA2",
"j.	c #8B6A89",
"k.	c #505C62",
"l.	c #003356",
"m.	c #024877",
"n.	c #02548A",
"o.	c #035E99",
"p.	c #0465A4",
"q.	c #076CAE",
"r.	c #0A72B6",
"s.	c #0B79C2",
"t.	c #0C82CF",
"u.	c #0C88DA",
"v.	c #0C8DE2",
"w.	c #0C91E8",
"x.	c #0C95EC",
"y.	c #0E96ED",
"z.	c #0D93E8",
"A.	c #0583D2",
"B.	c #727E86",
"C.	c #7F677D",
"D.	c #9B0D9B",
"E.	c #A510A5",
"F.	c #A211A2",
"G.	c #A30DA3",
"H.	c #846382",
"I.	c #0D3147",
"J.	c #024068",
"K.	c #024E80",
"L.	c #035991",
"M.	c #04629F",
"N.	c #076BAB",
"O.	c #0E7AC0",
"P.	c #1082CD",
"Q.	c #1089D7",
"R.	c #108EE1",
"S.	c #0F92E8",
"T.	c #0D98F1",
"U.	c #0E99F3",
"V.	c #0F98F0",
"W.	c #0B8FE4",
"X.	c #277DB2",
"Y.	c #816178",
"Z.	c #990798",
"`.	c #A01CA0",
" +	c #7F857F",
".+	c #9E1A9E",
"++	c #A50EA4",
"@+	c #5C4369",
"#+	c #043351",
"$+	c #02446F",
"%+	c #025185",
"&+	c #035C95",
"*+	c #0566A3",
"=+	c #0A6EB0",
"-+	c #0E76BB",
";+	c #1280C8",
">+	c #148AD6",
",+	c #158FDF",
"'+	c #1493E5",
")+	c #1296EC",
"!+	c #1098F0",
"~+	c #0F9AF4",
"{+	c #0F9BF5",
"]+	c #0F9AF3",
"^+	c #0E94EA",
"/+	c #0F84CD",
"(+	c #6E5B84",
"_+	c #9D039B",
":+	c #9D259D",
"<+	c #A80AA5",
"[+	c #3D2657",
"}+	c #013454",
"|+	c #024572",
"1+	c #025287",
"2+	c #045C97",
"3+	c #0766A5",
"4+	c #0B70B2",
"5+	c #1079BE",
"6+	c #1484CD",
"7+	c #178DDB",
"8+	c #1893E4",
"9+	c #1696EA",
"0+	c #1497ED",
"a+	c #1298F1",
"b+	c #1099F3",
"c+	c #0E95EC",
"d+	c #0E88D4",
"e+	c #505693",
"f+	c #9E0099",
"g+	c #9A2C9A",
"h+	c #A2049F",
"i+	c #2F1B4F",
"j+	c #003555",
"k+	c #024571",
"l+	c #045C94",
"m+	c #0766A2",
"n+	c #0B6FB0",
"o+	c #1078BD",
"p+	c #1584CD",
"q+	c #1893E5",
"r+	c #1896EA",
"s+	c #1597EB",
"t+	c #1397ED",
"u+	c #1198F1",
"v+	c #1099F2",
"w+	c #0F94E9",
"x+	c #0B86D5",
"y+	c #3E509E",
"z+	c #A3009C",
"A+	c #953995",
"B+	c #9C209C",
"C+	c #A1049F",
"D+	c #2B1B4B",
"E+	c #00334F",
"F+	c #00456C",
"G+	c #005180",
"H+	c #005B90",
"I+	c #02659E",
"J+	c #066EAB",
"K+	c #0B78B9",
"L+	c #0F84CA",
"M+	c #128DD8",
"N+	c #1393E1",
"O+	c #1397E7",
"P+	c #1198EB",
"Q+	c #0F97EB",
"R+	c #0E97EB",
"S+	c #0D97ED",
"T+	c #0D96EC",
"U+	c #0B91E3",
"V+	c #0784CF",
"W+	c #394A9B",
"X+	c #A1009A",
"Y+	c #914091",
"Z+	c #992999",
"`+	c #A300A1",
" @	c #610D6E",
".@	c #481A6E",
"+@	c #49227D",
"@@	c #432C87",
"#@	c #3C368E",
"$@	c #3E3B97",
"%@	c #40409E",
"&@	c #4346A8",
"*@	c #4151B3",
"=@	c #3B5EBF",
"-@	c #3B63C6",
";@	c #3B66CB",
">@	c #3A67CE",
",@	c #2D72D3",
"'@	c #2B74D5",
")@	c #2C73D4",
"!@	c #2A6ECD",
"~@	c #2864BA",
"{@	c #523689",
"]@	c #A400A0",
"^@	c #904C90",
"/@	c #982898",
"(@	c #A400A4",
"_@	c #9F019E",
":@	c #9E029E",
"<@	c #9D029C",
"[@	c #9D039D",
"}@	c #9C039E",
"|@	c #9C049E",
"1@	c #9C059E",
"2@	c #9B069E",
"3@	c #9B079F",
"4@	c #9B07A0",
"5@	c #9A09A1",
"6@	c #9A0AA1",
"7@	c #9B0AA1",
"8@	c #9A099F",
"9@	c #9E059E",
"0@	c #A700A7",
"a@	c #8D568D",
"b@	c #962E96",
"c@	c #A205A2",
"d@	c #A007A1",
"e@	c #9B0199",
"f@	c #9D0399",
"g@	c #9F0499",
"h@	c #A0059B",
"i@	c #A1059B",
"j@	c #A3059C",
"k@	c #A3069C",
"l@	c #A4069C",
"m@	c #A4069D",
"n@	c #A5059E",
"o@	c #A5069E",
"p@	c #A504A0",
"q@	c #A404A0",
"r@	c #A303A1",
"s@	c #A304A3",
"t@	c #A500A5",
"u@	c #895F89",
"v@	c #817D81",
"w@	c #857285",
"x@	c #827083",
"y@	c #351C22",
"z@	c #492311",
"A@	c #5F3013",
"B@	c #72361D",
"C@	c #7E3B21",
"D@	c #864121",
"E@	c #914822",
"F@	c #9D5122",
"G@	c #A6502B",
"H@	c #AC5033",
"I@	c #B15433",
"J@	c #B55733",
"K@	c #B85835",
"L@	c #B65736",
"M@	c #B14945",
"N@	c #AA4643",
"O@	c #9F3D3E",
"P@	c #8E3F62",
"Q@	c #8E5192",
"R@	c #914391",
"S@	c #847484",
"T@	c #838584",
"U@	c #5B5B58",
"V@	c #1D1100",
"W@	c #432C00",
"X@	c #563900",
"Y@	c #664200",
"Z@	c #714900",
"`@	c #7F5200",
" #	c #8D5C00",
".#	c #9A6400",
"+#	c #A36A00",
"@#	c #AA6F00",
"##	c #AF7301",
"$#	c #B27502",
"%#	c #B07402",
"&#	c #AA7001",
"*#	c #9A6500",
"=#	c #7F5501",
"-#	c #7E7D70",
";#	c #7F8481",
">#	c #818182",
",#	c #44423F",
"'#	c #201100",
")#	c #412A00",
"!#	c #523500",
"~#	c #5F3C00",
"{#	c #6D4500",
"]#	c #7C4F01",
"^#	c #885601",
"/#	c #915C01",
"(#	c #986101",
"_#	c #9C6403",
":#	c #9C6503",
"<#	c #996204",
"[#	c #8F5B02",
"}#	c #754900",
"|#	c #796E5D",
"1#	c #808181",
"2#	c #7F7F7F",
"3#	c #3A3834",
"4#	c #201400",
"5#	c #372200",
"6#	c #462C00",
"7#	c #563700",
"8#	c #664100",
"9#	c #714800",
"0#	c #7A4E01",
"a#	c #815201",
"b#	c #845402",
"c#	c #825302",
"d#	c #6B4504",
"e#	c #6E614A",
"f#	c #808081",
"g#	c #7E7F7F",
"h#	c #474644",
"i#	c #251F13",
"j#	c #1E1200",
"k#	c #331F00",
"l#	c #533500",
"m#	c #5D3A00",
"n#	c #613D00",
"o#	c #5F3B00",
"p#	c #5B3A01",
"q#	c #5E451C",
"r#	c #6D6556",
"s#	c #818283",
"t#	c #818181",
"u#	c #828383",
"v#	c #6C6C6D",
"w#	c #51504D",
"x#	c #343029",
"y#	c #2E2514",
"z#	c #34250D",
"A#	c #3C2C0E",
"B#	c #463416",
"C#	c #574830",
"D#	c #6B6356",
"E#	c #797673",
"F#	c #828384",
"G#	c #7C7C7C",
"H#	c #7A7979",
"I#	c #7A7978",
"J#	c #7A7A78",
"K#	c #7B7B79",
"L#	c #7E7D7D",
"          . .   + + + + + + + + + + + + + + + + + + + +         ",
"      @ # $ $ % & * = = - ; ; ; > , ' ) ) ) ! ~ ~ ~ ~ { .       ",
"      ] ^ / / / ( ( / / / _ _ _ : < [ } | 1 2 3 4 4 4 5 6 7     ",
"      ] 8 9 0 8 8 8 8 a b c d d e f f g h a 8 a a a i a j k     ",
"      ] l m n ] ] ] o p q r s t u v w x y z A B B C D a E +     ",
"      ] F G H   I J K L M N O P Q R S T U V W X Y Z ` a  .+     ",
"      ..+.@.#.+ $.%.&.*.=.-.;.>.,.'.).!.~.{.].^.  /.(.8 _.      ",
"      ..:.<.#.[.}.|.1.2.3.4.5.6.7.8.9.0.a.b.c.d.e.f.g.h...      ",
"      ..:.i.j.k.l.m.n.o.p.q.r.s.t.u.v.w.x.y.z.A.B.C.D.E...      ",
"      ..F.G.H.I.J.K.L.M.N.r.O.P.Q.R.S.y.T.U.V.W.X.Y.Z.`.Y       ",
"       +.+++@+#+$+%+&+*+=+-+;+>+,+'+)+!+~+{+]+^+/+(+_+:+Y       ",
"       +.+<+[+}+|+1+2+3+4+5+6+7+8+9+0+a+b+~+]+c+d+e+f+g+Y       ",
"       +.+h+i+j+k+%+l+m+n+o+p+7+q+r+s+t+u+v+V.w+x+y+z+A+X       ",
"      Y B+C+D+E+F+G+H+I+J+K+L+M+N+O+P+Q+R+S+T+U+V+W+X+Y+X       ",
"      Y Z+`+ @.@+@@@#@$@%@&@*@=@-@;@>@>@,@'@)@!@~@{@]@^@k       ",
"      Y /@(@_@:@<@[@}@}@|@1@2@3@4@4@4@4@5@6@6@7@8@9@0@a@7       ",
"      Y b@c@d@e@f@g@h@i@j@k@l@m@n@o@o@o@o@p@p@q@r@s@t@u@+       ",
"        v@w@x@y@z@A@B@C@D@E@F@G@H@I@J@K@L@M@N@O@P@Q@R@S@        ",
"        + + T@U@V@W@X@Y@Z@`@ #.#+#@###$#%#&#*#=#-#;#Y +         ",
"              >#,#'#)#!#~#{#]#^#/#(#_#:#<#[#}#|#1#              ",
"                2#3#4#5#6#7#8#9#0#a#b#c#0#d#e#^.                ",
"                f#g#h#i#j#k#6#l#m#n#o#p#q#r#s#                  ",
"                  t#u#v#w#x#y#z#A#B#C#D#E#F#                    ",
"                          G#H#I#J#K#L#                          "};
