/* XPM */
static char * select_face_xpm[] = {
"32 24 236 2",
"  	c #808080",
". 	c #818181",
"+ 	c #7F7F7F",
"@ 	c #828282",
"# 	c #767676",
"$ 	c #6A6969",
"% 	c #545453",
"& 	c #585757",
"* 	c #6E6E6D",
"= 	c #7D7D7D",
"- 	c #858585",
"; 	c #7B7B7B",
"> 	c #626261",
", 	c #4B4A49",
"' 	c #3D3C3B",
") 	c #302F2F",
"! 	c #2C2A2A",
"~ 	c #2C2B2A",
"{ 	c #363534",
"] 	c #464443",
"^ 	c #5C5A5A",
"/ 	c #777676",
"( 	c #696868",
"_ 	c #484848",
": 	c #343333",
"< 	c #31302F",
"[ 	c #2F2E2E",
"} 	c #302F2E",
"| 	c #323130",
"1 	c #333231",
"2 	c #343232",
"3 	c #373534",
"4 	c #3C3A39",
"5 	c #6D6C6C",
"6 	c #838382",
"7 	c #616161",
"8 	c #333333",
"9 	c #2C2B2B",
"0 	c #2E2D2D",
"a 	c #30302F",
"b 	c #313030",
"c 	c #333232",
"d 	c #343332",
"e 	c #353433",
"f 	c #373635",
"g 	c #393736",
"h 	c #3A3837",
"i 	c #3B3938",
"j 	c #434140",
"k 	c #666463",
"l 	c #848383",
"m 	c #6C6C6C",
"n 	c #6E6E6E",
"o 	c #747474",
"p 	c #595958",
"q 	c #434242",
"r 	c #323231",
"s 	c #323131",
"t 	c #363535",
"u 	c #373636",
"v 	c #383737",
"w 	c #393837",
"x 	c #3A3938",
"y 	c #3C3B3A",
"z 	c #4D4B4A",
"A 	c #726E6E",
"B 	c #A49EA0",
"C 	c #C5C5C0",
"D 	c #8C938B",
"E 	c #7F807F",
"F 	c #5A5A5A",
"G 	c #242424",
"H 	c #404040",
"I 	c #666666",
"J 	c #737373",
"K 	c #515050",
"L 	c #343433",
"M 	c #393838",
"N 	c #3B3A39",
"O 	c #383736",
"P 	c #5F5D5C",
"Q 	c #A29E9E",
"R 	c #D8CED4",
"S 	c #CAD2C5",
"T 	c #85B482",
"U 	c #3D9A3C",
"V 	c #3E8B3D",
"W 	c #7C807C",
"X 	c #5E5E5E",
"Y 	c #1D1D1D",
"Z 	c #212121",
"` 	c #323232",
" .	c #868686",
"..	c #888888",
"+.	c #5B5B5B",
"@.	c #383837",
"#.	c #3D3D3C",
"$.	c #787674",
"%.	c #CDC9CA",
"&.	c #EDE8EA",
"*.	c #BCCDBA",
"=.	c #4B964A",
"-.	c #158814",
";.	c #0A910A",
">.	c #039103",
",.	c #2D8C2D",
"'.	c #7C817C",
").	c #5D5D5D",
"!.	c #202020",
"~.	c #222222",
"{.	c #1F1F1F",
"].	c #2C2C2C",
"^.	c #878787",
"/.	c #8C8C8C",
"(.	c #666665",
"_.	c #959392",
":.	c #DDDCD9",
"<.	c #E7EBE4",
"[.	c #97BD95",
"}.	c #2C872B",
"|.	c #007E00",
"1.	c #049104",
"2.	c #079407",
"3.	c #079207",
"4.	c #049204",
"5.	c #348B33",
"6.	c #7D817C",
"7.	c #5C5C5C",
"8.	c #2B2B2B",
"9.	c #505050",
"0.	c #A6A5A6",
"a.	c #C9D8C7",
"b.	c #69A968",
"c.	c #158515",
"d.	c #008500",
"e.	c #039304",
"f.	c #089407",
"g.	c #079307",
"h.	c #3B8A3A",
"i.	c #7D807D",
"j.	c #606060",
"k.	c #1C1C1C",
"l.	c #232323",
"m.	c #1B1B1B",
"n.	c #888688",
"o.	c #568455",
"p.	c #007B00",
"q.	c #059505",
"r.	c #079106",
"s.	c #029102",
"t.	c #438843",
"u.	c #7E807E",
"v.	c #626262",
"w.	c #1E1E1E",
"x.	c #898789",
"y.	c #407440",
"z.	c #018801",
"A.	c #069106",
"B.	c #019101",
"C.	c #488848",
"D.	c #8A888A",
"E.	c #3E723E",
"F.	c #028802",
"G.	c #079206",
"H.	c #069006",
"I.	c #518651",
"J.	c #908E90",
"K.	c #3D713D",
"L.	c #028801",
"M.	c #079406",
"N.	c #069206",
"O.	c #029002",
"P.	c #558655",
"Q.	c #818081",
"R.	c #646464",
"S.	c #018900",
"T.	c #069306",
"U.	c #068F06",
"V.	c #058F05",
"W.	c #5B855B",
"X.	c #656565",
"Y.	c #1A1A1A",
"Z.	c #918F91",
"`.	c #2C662C",
" +	c #038E03",
".+	c #088E08",
"++	c #5D845D",
"@+	c #191919",
"#+	c #929092",
"$+	c #256125",
"%+	c #068E06",
"&+	c #0D8D0D",
"*+	c #628462",
"=+	c #6F6F6F",
"-+	c #2D2D2D",
";+	c #256025",
">+	c #038D03",
",+	c #038E02",
"'+	c #108D10",
")+	c #688368",
"!+	c #717171",
"~+	c #4D4D4D",
"{+	c #928F92",
"]+	c #039003",
"^+	c #008F00",
"/+	c #2A892A",
"(+	c #7E7E7E",
"_+	c #757575",
":+	c #444444",
"<+	c #1A591A",
"[+	c #049304",
"}+	c #018F00",
"|+	c #208B20",
"1+	c #668366",
"2+	c #838383",
"3+	c #6B6B6B",
"4+	c #393939",
"5+	c #939093",
"6+	c #0E520E",
"7+	c #059405",
"8+	c #0A8F09",
"9+	c #1B8C1B",
"0+	c #618461",
"a+	c #848084",
"b+	c #3A3A3A",
"c+	c #949194",
"d+	c #0B500B",
"e+	c #099308",
"f+	c #278B27",
"g+	c #578557",
"h+	c #857F85",
"i+	c #838083",
"j+	c #7A7A7A",
"k+	c #7A797A",
"l+	c #526E52",
"m+	c #5C865C",
"                            . + + .                             ",
"                    . @ @ # $ % & * = @ .                       ",
"                @ - ; > , ' ) ! ~ { ] ^ / - @                   ",
"            @ . ( _ : < [ } < | 1 2 2 3 4 , 5 6 .               ",
"            7 8 9 0 a b | c d : e 3 f g h i g j k l @           ",
"        + m n o p q r s e { t u v w x y i w z A B C D E         ",
"          F G H I = J K c L v M x N O d P Q R S T U V W         ",
"          X Y Z G ` X  ...+.x M @.#.$.%.&.*.=.-.;.>.,.'.        ",
"          ).Y !.Z ~.{.].F ^./.(._.:.<.[.}.|.1.2.3.4.5.6.        ",
"          7.Y !.!.Z ~.~.!.8.9.0.a.b.c.d.e.f.g.3.3.>.h.i.        ",
"        . j.k.{.!.Z ~.~.l.l.m.n.o.p.q.2.g.g.3.r.r.s.t.u.        ",
"        . v.Y w.{.!.Z ~.~.l.k.x.y.z.2.g.g.3.r.A.A.B.C.E         ",
"        . v.k.w.w.{.Z Z ~.l.k.D.E.F.2.g.G.G.A.A.H.B.I.          ",
"        . 7 m.Y w.{.!.Z Z ~.m.J.K.L.M.G.N.A.A.H.H.O.P.Q.        ",
"        . R.Y k.Y w.{.!.!.~.m.J.K.S.T.A.A.A.H.H.U.V.W.Q.        ",
"        . X.w.k.k.Y {.{.!.Z Y.Z.`. +N.A.A.H.H.U.U..+++Q.        ",
"        . X.w.m.k.Y Y {.{.!.@+#+$+ +A.A.H.H.U.U.%+&+*+Q.        ",
"          =+-+Y.Y.k.Y w.{.!.@+#+;+>+A.H.H.U.U.%+,+'+)+Q.        ",
"          + !+~+l.Y.m.Y w.w.k.{+;+]+H.H.U.U. +^+/+++W           ",
"            . (+_+:+!.k.Y w.Y #+<+[+H.U.V.}+|+1+W               ",
"                  2+3+4+l.Y k.5+6+7+V.8+9+0+a+Q.                ",
"                    @ @ 7 b+!.c+d+e+f+g+h+i+                    ",
"                        @ j+X k+l+m+'.i+                        ",
"                              (+                                "};
