/* XPM */
static char * axes_xpm[] = {
"32 24 63 1",
" 	c #808080",
".	c #7F0303",
"+	c #ED0D0D",
"@	c #A40707",
"#	c #EC1414",
"$	c #670202",
"%	c #C80B0B",
"&	c #690202",
"*	c #C80C0C",
"=	c #6B0202",
"-	c #C70C0C",
";	c #6D0202",
">	c #C60C0C",
",	c #6E0202",
"'	c #700202",
")	c #720202",
"!	c #730202",
"~	c #740202",
"{	c #750202",
"]	c #C70B0B",
"^	c #03BF03",
"/	c #770202",
"(	c #020299",
"_	c #007700",
":	c #05DC04",
"<	c #0BFD0A",
"[	c #0AE60A",
"}	c #018201",
"|	c #000049",
"1	c #000085",
"2	c #00009B",
"3	c #02029E",
"4	c #02A601",
"5	c #07EE06",
"6	c #0CFC0B",
"7	c #08D108",
"8	c #004600",
"9	c #00003F",
"0	c #000082",
"a	c #00009C",
"b	c #0202A2",
"c	c #01A101",
"d	c #03CA02",
"e	c #09F908",
"f	c #0CF50B",
"g	c #04B204",
"h	c #000035",
"i	c #00007E",
"j	c #01019D",
"k	c #0201A3",
"l	c #01A201",
"m	c #12DD12",
"n	c #0CDF0C",
"o	c #018A01",
"p	c #00002B",
"q	c #00007A",
"r	c #1313D4",
"s	c #0A0AE4",
"t	c #001300",
"u	c #005800",
"v	c #000079",
"w	c #0101A5",
"x	c #0D0DDC",
"                                ",
"                                ",
"                                ",
"               .+               ",
"               @#               ",
"               $%               ",
"               &*               ",
"               =-               ",
"               ;>               ",
"               ,>               ",
"               '-               ",
"               )-               ",
"               !-               ",
"               ~-               ",
"               {]               ",
"              ^/](              ",
"           _:<[}|123            ",
"         45678    90ab          ",
"      cdefg         hijk        ",
"     lmno             pqrs      ",
"     tu                 vwx     ",
"                                ",
"                                ",
"                                "};
