/* XPM */
static char * uv_shrinkwrap_xpm[] = {
"32 24 346 2",
"  	c #808080",
". 	c #7E7E80",
"+ 	c #828280",
"@ 	c #81817F",
"# 	c #7D7D7E",
"$ 	c #6E6E83",
"% 	c #6E6E8A",
"& 	c #5A5A90",
"* 	c #7A7993",
"= 	c #6A6993",
"- 	c #75758F",
"; 	c #757587",
"> 	c #80807F",
", 	c #838380",
"' 	c #60607A",
") 	c #54547F",
"! 	c #42428E",
"~ 	c #5D5D9F",
"{ 	c #4C4CAE",
"] 	c #7A78B8",
"^ 	c #4342C0",
"/ 	c #7675CA",
"( 	c #6261CD",
"_ 	c #8482C7",
": 	c #8885B1",
"< 	c #8D8C8A",
"[ 	c #7D7E7D",
"} 	c #7F7F80",
"| 	c #525278",
"1 	c #6D6D86",
"2 	c #5F5F9D",
"3 	c #3939AD",
"4 	c #4C4CB7",
"5 	c #3D3EC1",
"6 	c #D0CFC9",
"7 	c #1212D7",
"8 	c #908EE1",
"9 	c #9896EA",
"0 	c #827FEF",
"a 	c #4E4BEE",
"b 	c #5856DD",
"c 	c #9A989B",
"d 	c #818180",
"e 	c #626276",
"f 	c #6F6F85",
"g 	c #4646A2",
"h 	c #0000B2",
"i 	c #6D6DBF",
"j 	c #C3C3C7",
"k 	c #5353CC",
"l 	c #3E3DD7",
"m 	c #9897E2",
"n 	c #000000",
"o 	c #FFFFFF",
"p 	c #DFDFDF",
"q 	c #848481",
"r 	c #575771",
"s 	c #32327E",
"t 	c #4848A0",
"u 	c #6565C0",
"v 	c #D6D6CA",
"w 	c #9898D2",
"x 	c #0707D8",
"y 	c #0000E2",
"z 	c #F1F1F1",
"A 	c #828281",
"B 	c #6B6B74",
"C 	c #040473",
"D 	c #515195",
"E 	c #6666AC",
"F 	c #5555BC",
"G 	c #D1D1C9",
"H 	c #D6D6D2",
"I 	c #6161D9",
"J 	c #0000E0",
"K 	c #0000ED",
"L 	c #E1E1D4",
"M 	c #29296A",
"N 	c #2A2A83",
"O 	c #A1A1A0",
"P 	c #9E9EB3",
"Q 	c #2727C2",
"R 	c #3030CF",
"S 	c #7171D6",
"T 	c #4D4DDE",
"U 	c #1818E7",
"V 	c #0000F3",
"W 	c #FFFFFB",
"X 	c #FAF9F8",
"Y 	c #DDDBF1",
"Z 	c #707075",
"` 	c #18186B",
" .	c #7F7F8C",
"..	c #A5A5A5",
"+.	c #6E6EB8",
"@.	c #0000C6",
"#.	c #0000D0",
"$.	c #1E1ED9",
"%.	c #F6F6E0",
"&.	c #F4F4EB",
"*.	c #FFFFF4",
"=.	c #818088",
"-.	c #71716F",
";.	c #43436B",
">.	c #8C8C90",
",.	c #A2A2A7",
"'.	c #2828B9",
").	c #0000D1",
"!.	c #7777DA",
"~.	c #E9E9E1",
"{.	c #EDEDED",
"].	c #4545CE",
"^.	c #D4D4D1",
"/.	c #9F9FFF",
"(.	c #B8B7E2",
"_.	c #1817F7",
":.	c #7A7AF2",
"<.	c #666599",
"[.	c #7F7F7F",
"}.	c #676767",
"|.	c #1F1F6D",
"1.	c #2E2E91",
"2.	c #6D6DA7",
"3.	c #0000B8",
"4.	c #0000C5",
"5.	c #0000CF",
"6.	c #B5B5D8",
"7.	c #E3E3E0",
"8.	c #EEEEED",
"9.	c #F6F6F8",
"0.	c #0000FF",
"a.	c #0707E9",
"b.	c #0000F1",
"c.	c #5A5AFF",
"d.	c #FEFEF6",
"e.	c #FFFFF9",
"f.	c #F8F8FF",
"g.	c #2A29E9",
"h.	c #7D7DFF",
"i.	c #7272FB",
"j.	c #4D4DA2",
"k.	c #595963",
"l.	c #0E0E6C",
"m.	c #00008E",
"n.	c #5252A3",
"o.	c #9696B4",
"p.	c #5353C1",
"q.	c #1111CB",
"r.	c #E4E4D4",
"s.	c #E6E6DE",
"t.	c #EAEAF6",
"u.	c #0000FE",
"v.	c #1C1CFF",
"w.	c #C8C8FF",
"x.	c #5D5DFF",
"y.	c #BEBEFF",
"z.	c #FEFEFF",
"A.	c #ACABFC",
"B.	c #5252A4",
"C.	c #515161",
"D.	c #080867",
"E.	c #000088",
"F.	c #77779E",
"G.	c #B3B3AF",
"H.	c #C4C4BC",
"I.	c #B0B0C6",
"J.	c #0000CE",
"K.	c #2727D9",
"L.	c #4343E7",
"M.	c #5757F2",
"N.	c #9A9AFB",
"O.	c #B0B0FF",
"P.	c #E1E1FF",
"Q.	c #8C8CFF",
"R.	c #FFFFFE",
"S.	c #BAB8F4",
"T.	c #5D5CA2",
"U.	c #4D4D61",
"V.	c #03035C",
"W.	c #000080",
"X.	c #8A8A96",
"Y.	c #A8A8A7",
"Z.	c #B9B9B4",
"`.	c #8484BF",
" +	c #0000C7",
".+	c #0000D4",
"++	c #0000E1",
"@+	c #0B0BEC",
"#+	c #FFFFF5",
"$+	c #FFFFFC",
"%+	c #0606FF",
"&+	c #5F5EFE",
"*+	c #FFFFF8",
"=+	c #CAC7E5",
"-+	c #787899",
";+	c #626268",
">+	c #363650",
",+	c #1A1A74",
"'+	c #91918C",
")+	c #A2A29D",
"!+	c #B2B2AB",
"~+	c #6A6AB5",
"{+	c #0000BF",
"]+	c #0000CD",
"^+	c #0000D9",
"/+	c #1111E4",
"(+	c #F7F7ED",
"_+	c #F5F5F5",
":+	c #FAFAFA",
"<+	c #1313FD",
"[+	c #0000FC",
"}+	c #0000F8",
"|+	c #4B4AF3",
"1+	c #D2D1EB",
"2+	c #6F6DCE",
"3+	c #87868E",
"4+	c #6E6E71",
"5+	c #48484B",
"6+	c #646464",
"7+	c #1A1A7F",
"8+	c #5D5D91",
"9+	c #A2A29F",
"0+	c #5858AA",
"a+	c #0000B4",
"b+	c #0000C2",
"c+	c #1414DA",
"d+	c #EDEDE3",
"e+	c #EDEDEB",
"f+	c #F3F3F0",
"g+	c #FFFFF3",
"h+	c #0B0BF3",
"i+	c #0000F0",
"j+	c #2C2CEB",
"k+	c #6464E4",
"l+	c #0909D9",
"m+	c #3333B3",
"n+	c #888882",
"o+	c #808081",
"p+	c #49494B",
"q+	c #545450",
"r+	c #0A0A6D",
"s+	c #000082",
"t+	c #000091",
"u+	c #4A4A9C",
"v+	c #6464A7",
"w+	c #4F4FB6",
"x+	c #3F3FC3",
"y+	c #4A4ACF",
"z+	c #B0B0D8",
"A+	c #A0A0DF",
"B+	c #9191E4",
"C+	c #7474E6",
"D+	c #9898E6",
"E+	c #D6D6E2",
"F+	c #EEEEDB",
"G+	c #7373D1",
"H+	c #0000C0",
"I+	c #575694",
"J+	c #83837E",
"K+	c #828282",
"L+	c #6C6C6D",
"M+	c #38383C",
"N+	c #1B1B56",
"O+	c #00006E",
"P+	c #00007F",
"Q+	c #3D3D8D",
"R+	c #A1A198",
"S+	c #AFAFA7",
"T+	c #C3C3B5",
"U+	c #A2A2C0",
"V+	c #0000C9",
"W+	c #0000D7",
"X+	c #D3D3D6",
"Y+	c #D5D5D2",
"Z+	c #D4D4C9",
"`+	c #3333B9",
" @	c #21219C",
".@	c #7A7A80",
"+@	c #848483",
"@@	c #585860",
"#@	c #080831",
"$@	c #0E0E56",
"%@	c #00006A",
"&@	c #292979",
"*@	c #8A8A84",
"=@	c #959595",
"-@	c #A6A6A3",
";@	c #8C8CAE",
">@	c #0000BE",
",@	c #0808C3",
"'@	c #D0D0C2",
")@	c #C3C3BB",
"!@	c #A1A1AF",
"~@	c #545494",
"{@	c #757581",
"]@	c #52525D",
"^@	c #21212E",
"/@	c #3B3B4E",
"(@	c #36365F",
"_@	c #55556D",
":@	c #76767E",
"<@	c #94948D",
"[@	c #7E7E98",
"}@	c #0000A1",
"|@	c #0000A8",
"1@	c #0303AB",
"2@	c #3131AC",
"3@	c #6B6BA7",
"4@	c #28289D",
"5@	c #474787",
"6@	c #818181",
"7@	c #5B5B5F",
"8@	c #303031",
"9@	c #42423E",
"0@	c #02024E",
"a@	c #000060",
"b@	c #000071",
"c@	c #1E1E7D",
"d@	c #808086",
"e@	c #8B8B8C",
"f@	c #9C9C8D",
"g@	c #34348B",
"h@	c #000083",
"i@	c #1F1F76",
"j@	c #73737B",
"k@	c #848484",
"l@	c #717172",
"m@	c #444447",
"n@	c #29293A",
"o@	c #08083B",
"p@	c #010146",
"q@	c #181853",
"r@	c #57575C",
"s@	c #585862",
"t@	c #5B5B67",
"u@	c #252569",
"v@	c #44446F",
"w@	c #79797D",
"x@	c #717173",
"y@	c #636368",
"z@	c #595962",
"A@	c #545460",
"B@	c #575764",
"C@	c #61616D",
"D@	c #6D6D73",
"E@	c #7C7C7A",
"                              .                                 ",
"                    + @ # $ % & * = - ; # >                     ",
"                  , ' ) ! ~ { ] ^ / ( _ : < [                   ",
"                } | 1 2 3 4 5 6 7 8 9 0 a b c >                 ",
"              d e f g h i j k l m n n n 0 n o n o n p           ",
"            q r s t h u v w x y n n o o o n o n o n z           ",
"          A B C D E F G H I J K L n n n o n n n n n o           ",
"          @ M N O P Q R S T U V W X Y n o o n o n p o           ",
"          Z `  ...+.@.#.$.%.&.*.n n n n o o n o n p =.          ",
"          -.;.>.,.'.@.).!.~.{.W ].o o o ^.W /.(._.:.<.>         ",
"        [.}.|.1.2.3.4.5.6.7.8.9.0.a.b.c.d.e.f.g.h.i.j.@         ",
"        [.k.l.m.n.o.p.q.r.s.&.t.u.0.0.v.o w.x.y.z.A.B.@         ",
"        [.C.D.E.F.G.H.I.J.K.L.M.N.O.y.P.0.0.0.Q.R.S.T.          ",
"        [.U.V.W.X.Y.Z.`. +.+++@+#+$+o o %+0.0.&+*+=+-+>         ",
"          ;+>+,+'+)+!+~+{+]+^+/+(+_+:+$+<+[+}+|+1+2+3+          ",
"          4+5+6+7+8+9+0+a+b+#.c+d+e+f+g+h+i+j+k+l+m+n+          ",
"          o+p+q+r+s+t+u+v+w+x+y+z+A+B+C+D+E+F+G+H+I+J+          ",
"          K+L+M+N+O+P+Q+R+S+T+U+V+#..+W+X+Y+Z+`+ @.@d           ",
"            +@@@#@$@%@&@*@=@-@;@3.>@b+,@'@)@!@~@{@+             ",
"              d ]@^@/@(@_@:@<@[@}@|@1@2@3@4@5@#                 ",
"                6@7@8@9@0@a@b@c@d@e@f@g@h@i@j@                  ",
"                  k@l@m@n@o@p@q@r@s@t@u@v@w@A                   ",
"                    6@K+x@y@z@A@B@C@D@E@q d                     ",
"                          6@  > }                               "};
