/* XPM */
static char * sky_light_xpm[] = {
"32 24 21 1",
" 	c #808080",
".	c #1D5B71",
"+	c #4EE5FF",
"@	c #47D2FF",
"#	c #54F6FF",
"$	c #52F1FF",
"%	c #59FFFF",
"&	c #57FCFF",
"*	c #5BFFFF",
"=	c #58FFFF",
"-	c #B1B1B1",
";	c #FFFFFF",
">	c #57FFFF",
",	c #DBDBDB",
"'	c #5AFFFF",
")	c #50EDFF",
"!	c #ECECEC",
"~	c #55FAFF",
"{	c #F7F7F7",
"]	c #E6E5E5",
"^	c #D8D7D7",
"                                ",
"                                ",
"                 .              ",
"                  .+@           ",
"                   .#$          ",
"                    .%&         ",
"                    ..*=        ",
"                    -;.*>       ",
"                   ,;;..')      ",
"                  !;;  ..~      ",
"                 {;;    .%      ",
"                ;;;      .      ",
"               ;;;              ",
"              ;;;               ",
"             ;;;                ",
"            ;;;                 ",
"           ;;]                  ",
"          ;;^                   ",
"         ;;                     ",
"        ;;                      ",
"       ;;                       ",
"      ;;                        ",
"                                ",
"                                "};
