/* XPM */
static char * spline_array_xpm[] = {
"32 24 317 2",
"  	c #808080",
". 	c #808081",
"+ 	c #808181",
"@ 	c #7B7770",
"# 	c #7F6E51",
"$ 	c #8D744A",
"% 	c #917D5D",
"& 	c #827F7A",
"* 	c #7F8081",
"= 	c #818283",
"- 	c #808286",
"; 	c #7F8185",
"> 	c #808182",
", 	c #77736C",
"' 	c #735012",
") 	c #975E00",
"! 	c #BD7600",
"~ 	c #D88908",
"{ 	c #BB8938",
"] 	c #84807A",
"^ 	c #828385",
"/ 	c #766D5F",
"( 	c #83673B",
"_ 	c #8E7042",
": 	c #837F79",
"< 	c #58421C",
"[ 	c #8F5A00",
"} 	c #B47509",
"| 	c #D58C0F",
"1 	c #F19C0C",
"2 	c #F79C0A",
"3 	c #A18558",
"4 	c #7F8082",
"5 	c #695531",
"6 	c #865300",
"7 	c #AB6C00",
"8 	c #CE8102",
"9 	c #DE8B07",
"0 	c #7A4C00",
"a 	c #8F5B03",
"b 	c #B8790D",
"c 	c #DC9315",
"d 	c #EC9B10",
"e 	c #F89E08",
"f 	c #B38843",
"g 	c #81807E",
"h 	c #828284",
"i 	c #665D4E",
"j 	c #794D01",
"k 	c #A66B04",
"l 	c #C5810C",
"m 	c #E4940D",
"n 	c #F89F0A",
"o 	c #E99308",
"p 	c #835301",
"q 	c #A26907",
"r 	c #C6810C",
"s 	c #D68B0C",
"t 	c #D98A06",
"u 	c #A17E45",
"v 	c #818284",
"w 	c #5A4A2D",
"x 	c #7F5000",
"y 	c #AA6E07",
"z 	c #D08A12",
"A 	c #E99A13",
"B 	c #F59F0E",
"C 	c #EF990B",
"D 	c #835100",
"E 	c #784C01",
"F 	c #9D6503",
"G 	c #AD6F05",
"H 	c #9C670B",
"I 	c #836C47",
"J 	c #827969",
"K 	c #7B7F85",
"L 	c #838485",
"M 	c #50442D",
"N 	c #6E4500",
"O 	c #986104",
"P 	c #BD7C0B",
"Q 	c #D78D0D",
"R 	c #DE910C",
"S 	c #D68A0C",
"T 	c #5E4011",
"U 	c #301E00",
"V 	c #573600",
"W 	c #613D01",
"X 	c #734902",
"Y 	c #A16707",
"Z 	c #C57E0B",
"` 	c #C4831E",
" .	c #858078",
"..	c #838383",
"+.	c #585550",
"@.	c #4C3104",
"#.	c #744901",
"$.	c #986102",
"%.	c #B27205",
"&.	c #B67607",
"*.	c #A26C10",
"=.	c #817D77",
"-.	c #737475",
";.	c #6B6B69",
">.	c #5A3F10",
",.	c #945E01",
"'.	c #BA7808",
").	c #E2910B",
"!.	c #FBA009",
"~.	c #CB8E2C",
"{.	c #7F7F7F",
"].	c #464137",
"^.	c #3E2A09",
"/.	c #593800",
"(.	c #714800",
"_.	c #795413",
":.	c #776B56",
"<.	c #818285",
"[.	c #838484",
"}.	c #686764",
"|.	c #633D00",
"1.	c #9D6505",
"2.	c #C48211",
"3.	c #E59813",
"4.	c #FAA10D",
"5.	c #E3971A",
"6.	c #8D806C",
"7.	c #818180",
"8.	c #818487",
"9.	c #5B5040",
"0.	c #65491A",
"a.	c #735625",
"b.	c #736F69",
"c.	c #808285",
"d.	c #828383",
"e.	c #646260",
"f.	c #543400",
"g.	c #8D5A03",
"h.	c #B3750B",
"i.	c #D1890D",
"j.	c #DF900C",
"k.	c #CC8817",
"l.	c #897D6A",
"m.	c #818385",
"n.	c #66522E",
"o.	c #895806",
"p.	c #AE6F05",
"q.	c #CE8308",
"r.	c #CC8515",
"s.	c #847D74",
"t.	c #2F2006",
"u.	c #664000",
"v.	c #8C5902",
"w.	c #AA6D04",
"x.	c #B27306",
"y.	c #946C29",
"z.	c #807F7E",
"A.	c #7F7E7C",
"B.	c #807D79",
"C.	c #817E79",
"D.	c #828281",
"E.	c #665D4D",
"F.	c #7A4E03",
"G.	c #A66A04",
"H.	c #C7810A",
"I.	c #EA970B",
"J.	c #FCA009",
"K.	c #CE8B1F",
"L.	c #818181",
"M.	c #6C6B6A",
"N.	c #2E210B",
"O.	c #533605",
"P.	c #6E4806",
"Q.	c #70511A",
"R.	c #7A7770",
"S.	c #79746D",
"T.	c #785E30",
"U.	c #916112",
"V.	c #A86F13",
"W.	c #A97F3B",
"X.	c #674B1D",
"Y.	c #835300",
"Z.	c #AE7109",
"`.	c #D48C13",
" +	c #EE9D12",
".+	c #FCA30D",
"++	c #E9960F",
"@+	c #867C6D",
"#+	c #818282",
"$+	c #777879",
"%+	c #62605D",
"&+	c #67645D",
"*+	c #7E7F82",
"=+	c #818182",
"-+	c #7D7C79",
";+	c #6A4C18",
">+	c #945C00",
",+	c #B67504",
"'+	c #DB8B06",
")+	c #EF9605",
"!+	c #BA7404",
"~+	c #7A4E01",
"{+	c #9F6605",
"]+	c #C5810D",
"^+	c #DC900E",
"/+	c #E6950C",
"(+	c #D2880D",
"_+	c #837A6B",
":+	c #828283",
"<+	c #828386",
"[+	c #7F663F",
"}+	c #866D46",
"|+	c #807D7A",
"1+	c #6A6358",
"2+	c #774900",
"3+	c #A96D06",
"4+	c #CD8710",
"5+	c #EB9B12",
"6+	c #F99E09",
"7+	c #7B4D01",
"8+	c #7B4F00",
"9+	c #A26703",
"0+	c #B97706",
"a+	c #BB7807",
"b+	c #986A1A",
"c+	c #7E8083",
"d+	c #7D7E7E",
"e+	c #695127",
"f+	c #8A5500",
"g+	c #AE6D00",
"h+	c #CD7F01",
"i+	c #CF8207",
"j+	c #755524",
"k+	c #764A00",
"l+	c #A56B06",
"m+	c #CE8812",
"n+	c #E79A13",
"o+	c #F39E0F",
"p+	c #F59D0B",
"q+	c #704B0E",
"r+	c #442D04",
"s+	c #6B4502",
"t+	c #805204",
"u+	c #754F0D",
"v+	c #7B7772",
"w+	c #808183",
"x+	c #67573C",
"y+	c #855400",
"z+	c #AB6E04",
"A+	c #CA830A",
"B+	c #EA960B",
"C+	c #DE8B04",
"D+	c #704600",
"E+	c #B57407",
"F+	c #CE860A",
"G+	c #D78B0B",
"H+	c #CA7F01",
"I+	c #8D7D62",
"J+	c #5A5A5A",
"K+	c #564E42",
"L+	c #635A4B",
"M+	c #7A7B7B",
"N+	c #797978",
"O+	c #664C1E",
"P+	c #915C00",
"Q+	c #B7770A",
"R+	c #DC9313",
"S+	c #F3A013",
"T+	c #FEA40E",
"U+	c #F29B0B",
"V+	c #7E4E00",
"W+	c #5A3800",
"X+	c #8B5901",
"Y+	c #A56902",
"Z+	c #A46700",
"`+	c #8A6321",
" @	c #807E7A",
".@	c #838384",
"+@	c #757573",
"@@	c #5F461A",
"#@	c #895700",
"$@	c #AE7108",
"%@	c #D68D10",
"&@	c #E99911",
"*@	c #F09C0E",
"=@	c #E5940D",
"-@	c #916E35",
";@	c #383328",
">@	c #3D2400",
",@	c #67502A",
"'@	c #7C7973",
")@	c #7D7E80",
"!@	c #524329",
"~@	c #925D02",
"{@	c #B87705",
"]@	c #CB8308",
"^@	c #CE8609",
"/@	c #BA780B",
"(@	c #86755B",
"_@	c #838587",
":@	c #7E7F81",
"<@	c #828384",
"[@	c #666561",
"}@	c #44300D",
"|@	c #613C00",
"1@	c #8A5700",
"2@	c #9C6200",
"3@	c #81622D",
"4@	c #7F8083",
"5@	c #6A6866",
"6@	c #4B4233",
"7@	c #503D1A",
"8@	c #634C23",
"9@	c #73654E",
"0@	c #7D7C7B",
"a@	c #7D7D7D",
"b@	c #7B7B7A",
"                                                .               ",
"                                        + @ # $ % & *           ",
"                                = - ; > , ' ) ! ~ { ]           ",
"                              ^ / ( _ : < [ } | 1 2 3           ",
"                            4 5 6 7 8 9 0 a b c d e f g         ",
"                          h i j k l m n o p q r s t u           ",
"                          v w x y z A B C D E F G H I J K *     ",
"                          L M N O P Q R S T U V W X Y Z `  .*   ",
"                          ..+.@.#.$.%.&.*.=.-.;.>.,.'.).!.~.{.  ",
"                            > ].^./.(._.:.<.[.}.|.1.2.3.4.5.6.  ",
"                            7.8.9.0.a.b.c.  d.e.f.g.h.i.j.k.l.  ",
"                            m.n.o.p.q.r.s.*   . t.u.v.w.x.y.z.  ",
"                    A.B.C.D.E.F.G.H.I.J.K.K   L.M.N.O.P.Q.R.>   ",
"                  S.T.U.V.W.X.Y.Z.`. +.+++@+4   #+$+%+&+*+=+    ",
"        = c.; . -+;+>+,+'+)+!+~+{+]+^+/+(+_+4     L.:+:+        ",
"      <+/ [+}+|+1+2+3+4+5+.+6+7+8+9+0+a+b+c+                    ",
"  . d+e+f+g+h+i+j+k+l+m+n+o+p+q+r+s+t+u+v+>                     ",
"  w+x+y+z+A+B+6+C+D+v.E+F+G+H+I+J+K+L+M+=+                      ",
"  N+O+P+Q+R+S+T+U+V+W+X+Y+Z+`+ @...@h +                         ",
"  +@@@#@$@%@&@*@=@-@;@>@f.,@'@                                  ",
"  )@!@N ~@{@]@^@/@(@_@* :@<@                                    ",
"  d.[@}@|@1@2@,.3@4@                                            ",
"    = 5@6@7@8@9@0@+                                             ",
"      L.a@b@0@                                                  "};
