/* XPM */
static char * spot_light_xpm[] = {
"32 24 73 1",
" 	c #808080",
".	c #DEDDDC",
"+	c #FFFFFF",
"@	c #E9E9E9",
"#	c #339CC2",
"$	c #41C7F7",
"%	c #49DFFF",
"&	c #56FDFF",
"*	c #339EC5",
"=	c #3EBEEC",
"-	c #47D9FF",
";	c #52F5FF",
">	c #58FFFF",
",	c #62FFFF",
"'	c #68FFFF",
")	c #34A0C7",
"!	c #3DBCEA",
"~	c #45D3FF",
"{	c #4EEBFF",
"]	c #55FDFF",
"^	c #5BFFFF",
"/	c #63FFFF",
"(	c #5FFFFF",
"_	c #339CC3",
":	c #3DBAE8",
"<	c #42CBFD",
"[	c #4BE3FF",
"}	c #52F4FF",
"|	c #5DFFFF",
"1	c #64FFFF",
"2	c #67FFFF",
"3	c #3299BE",
"4	c #3CB9E6",
"5	c #41C8F9",
"6	c #49DEFF",
"7	c #55FCFF",
"8	c #5AFFFF",
"9	c #65FFFF",
"0	c #3195BA",
"a	c #3BB7E4",
"b	c #47D8FF",
"c	c #57FFFF",
"d	c #5CFFFF",
"e	c #61FFFF",
"f	c #60FFFF",
"g	c #2E8EB1",
"h	c #3BB5E2",
"i	c #42CAFC",
"j	c #49DCFF",
"k	c #51EAFF",
"l	c #54FBFF",
"m	c #5EFFFF",
"n	c #66FFFF",
"o	c #3196BB",
"p	c #44D0FF",
"q	c #4BE1FF",
"r	c #54EFFF",
"s	c #5DFEFF",
"t	c #69FFFF",
"u	c #349FC6",
"v	c #3FC1F0",
"w	c #45D4FF",
"x	c #4EE5FF",
"y	c #56F3FF",
"z	c #21657D",
"A	c #21657E",
"B	c #20647D",
"C	c #55F6FF",
"D	c #58FDFF",
"E	c #4EE7FF",
"F	c #52F1FF",
"G	c #41C5F4",
"H	c #20647C",
"                                ",
"                                ",
"                                ",
"                .++             ",
"               @++++            ",
"              #$%&+++           ",
"             *=-;>,'+           ",
"            )!~{]^/'(           ",
"           _:<[}>|12(           ",
"          3456{78(92(           ",
"         0a$b[}cde92f           ",
"        ghijk{l8m,n2(           ",
"        o!pqrs9tf/nnm           ",
"        uvwxyf2t'9n9|           ",
"        z+++A/'t2/e(d           ",
"        B++++++A9,fdC           ",
"         B+++++++A(DE           ",
"           B++++++AFG           ",
"             H+++++z            ",
"                 BB             ",
"                                ",
"                                ",
"                                ",
"                                "};
