/* XPM */
static char * standalone_deformation_xpm[] = {
"32 24 396 2",
"  	c #808080",
". 	c #7E817E",
"+ 	c #7D817D",
"@ 	c #7C817C",
"# 	c #798179",
"$ 	c #748174",
"% 	c #738173",
"& 	c #768076",
"* 	c #788078",
"= 	c #7C7F7C",
"- 	c #7D7F7D",
"; 	c #7E7F7E",
"> 	c #7F807F",
", 	c #818081",
"' 	c #778277",
") 	c #6C876C",
"! 	c #5F8B5F",
"~ 	c #558D55",
"{ 	c #4E8B4E",
"] 	c #4B894B",
"^ 	c #4B864B",
"/ 	c #4B834B",
"( 	c #4B7F4B",
"_ 	c #4A7A4A",
": 	c #4C754C",
"< 	c #537453",
"[ 	c #5B745B",
"} 	c #677667",
"| 	c #737A73",
"1 	c #828082",
"2 	c #6D826D",
"3 	c #558A55",
"4 	c #4F904E",
"5 	c #4F8F4F",
"6 	c #508E4F",
"7 	c #508B50",
"8 	c #4E8B53",
"9 	c #4C8751",
"0 	c #4C7E4C",
"a 	c #4C7B4D",
"b 	c #487A52",
"c 	c #4A754F",
"d 	c #4C724D",
"e 	c #4B6F4B",
"f 	c #4A6A4A",
"g 	c #4F684F",
"h 	c #5C685C",
"i 	c #7D7D7D",
"j 	c #817F81",
"k 	c #538353",
"l 	c #4F8C4F",
"m 	c #508F50",
"n 	c #508E51",
"o 	c #4F884E",
"p 	c #575F26",
"q 	c #71510A",
"r 	c #835907",
"s 	c #956308",
"t 	c #946A12",
"u 	c #687037",
"v 	c #4B724E",
"w 	c #4C6F4C",
"x 	c #4C6B4C",
"y 	c #4C664C",
"z 	c #4B5D4B",
"A 	c #5F645F",
"B 	c #838283",
"C 	c #868286",
"D 	c #416B41",
"E 	c #509051",
"F 	c #4E7B42",
"G 	c #614506",
"H 	c #855200",
"I 	c #955F01",
"J 	c #A56802",
"K 	c #BA7603",
"L 	c #CD8104",
"M 	c #D88401",
"N 	c #9B781F",
"O 	c #4E6F4B",
"P 	c #4B6B4C",
"Q 	c #4C654C",
"R 	c #556555",
"S 	c #878487",
"T 	c #335933",
"U 	c #467F46",
"V 	c #519152",
"W 	c #4B7C43",
"X 	c #5D4105",
"Y 	c #865400",
"Z 	c #9D6302",
"` 	c #AA6D04",
" .	c #B97705",
"..	c #CB8207",
"+.	c #DC8C06",
"@.	c #E89307",
"#.	c #EF9404",
"$.	c #A87E1D",
"%.	c #4A6A4C",
"&.	c #4D644D",
"*.	c #3E653E",
"=.	c #4D704D",
"-.	c #848184",
";.	c #355A35",
">.	c #467F45",
",.	c #4F8D50",
"'.	c #4D501C",
").	c #744A00",
"!.	c #935D01",
"~.	c #A96C04",
"{.	c #B97809",
"].	c #CD860D",
"^.	c #DB8F0E",
"/.	c #E5940B",
"(.	c #F09A0A",
"_.	c #F69D0A",
":.	c #EA9409",
"<.	c #7A7134",
"[.	c #4A634F",
"}.	c #386738",
"|.	c #557155",
"1.	c #838183",
"2.	c #858385",
"3.	c #3D5E3D",
"4.	c #457E45",
"5.	c #4B7B43",
"6.	c #53410B",
"7.	c #7C4E01",
"8.	c #986202",
"9.	c #AD7008",
"0.	c #C2800E",
"a.	c #D99013",
"b.	c #E69914",
"c.	c #EB9B10",
"d.	c #F19D0C",
"e.	c #F79F0C",
"f.	c #F49B0A",
"g.	c #AB7E1E",
"h.	c #4B624F",
"i.	c #366836",
"j.	c #5A735A",
"k.	c #3E5E3E",
"l.	c #437D44",
"m.	c #48723C",
"n.	c #523904",
"o.	c #7C4F01",
"p.	c #965F02",
"q.	c #AB6F08",
"r.	c #C2800F",
"s.	c #D99015",
"t.	c #E89A15",
"u.	c #EC9C13",
"v.	c #EE9B0F",
"w.	c #F29D0D",
"x.	c #EF9A0B",
"y.	c #B98117",
"z.	c #556248",
"A.	c #356835",
"B.	c #617561",
"C.	c #3F5E3F",
"D.	c #427B42",
"E.	c #456E3A",
"F.	c #493102",
"G.	c #8D5A02",
"H.	c #A16806",
"I.	c #B8780C",
"J.	c #CF8910",
"K.	c #DE9312",
"L.	c #E5970F",
"M.	c #E5960D",
"N.	c #E6960D",
"O.	c #E3920B",
"P.	c #AF7A16",
"Q.	c #326832",
"R.	c #667666",
"S.	c #828182",
"T.	c #858285",
"U.	c #436143",
"V.	c #427A42",
"W.	c #457542",
"X.	c #3E3109",
"Y.	c #654000",
"Z.	c #7F5100",
"`.	c #925D02",
" +	c #A86C06",
".+	c #BE7B0A",
"++	c #CD860B",
"@+	c #D58B0B",
"#+	c #D78C0B",
"$+	c #D38A0C",
"%+	c #CD8308",
"&+	c #956E19",
"*+	c #4E604D",
"=+	c #2F682F",
"-+	c #6D786D",
";+	c #446144",
">+	c #4A7A42",
",+	c #2C2609",
"'+	c #4D3100",
")+	c #6B4400",
"!+	c #7E5000",
"~+	c #935D02",
"{+	c #A86B04",
"]+	c #B77505",
"^+	c #BF7B06",
"/+	c #C27E08",
"(+	c #BB7A09",
"_+	c #AC6E05",
":+	c #7A6422",
"<+	c #496250",
"[+	c #2E682E",
"}+	c #747B74",
"|+	c #456145",
"1+	c #3F763F",
"2+	c #4D5A26",
"3+	c #523000",
"4+	c #392400",
"5+	c #513300",
"6+	c #644000",
"7+	c #794D00",
"8+	c #8D5A01",
"9+	c #9C6302",
"0+	c #A46903",
"a+	c #A66B05",
"b+	c #9E6505",
"c+	c #9C6303",
"d+	c #C78511",
"e+	c #5E6542",
"f+	c #2D662E",
"g+	c #797D79",
"h+	c #848284",
"i+	c #496349",
"j+	c #3E6E3A",
"k+	c #4B3808",
"l+	c #7A4D00",
"m+	c #885601",
"n+	c #774C02",
"o+	c #724904",
"p+	c #7C5004",
"q+	c #8B5A05",
"r+	c #986205",
"s+	c #A46A06",
"t+	c #B37307",
"u+	c #CE8308",
"v+	c #FAA00B",
"w+	c #ED9507",
"x+	c #7B6D31",
"y+	c #2C642D",
"z+	c #7F7F7F",
"A+	c #4B644B",
"B+	c #375F2F",
"C+	c #4F2E00",
"D+	c #794D01",
"E+	c #A86D05",
"F+	c #B9790B",
"G+	c #C58311",
"H+	c #D38C13",
"I+	c #DE9313",
"J+	c #E99A12",
"K+	c #F5A00F",
"L+	c #FAA20D",
"M+	c #F89F0C",
"N+	c #F09708",
"O+	c #927420",
"P+	c #30642C",
"Q+	c #858185",
"R+	c #325529",
"S+	c #4E2E00",
"T+	c #764B01",
"U+	c #8E5A02",
"V+	c #A16705",
"W+	c #B2740A",
"X+	c #C78410",
"Y+	c #DA9114",
"Z+	c #E59814",
"`+	c #EA9B12",
" @	c #EB9A0F",
".@	c #EF9B0D",
"+@	c #F09A0C",
"@@	c #E89308",
"#@	c #95741A",
"$@	c #366631",
"%@	c #506750",
"&@	c #31572A",
"*@	c #442700",
"=@	c #6D4500",
"-@	c #855401",
";@	c #976003",
">@	c #A86C07",
",@	c #BD7C0C",
"'@	c #CE880F",
")@	c #DB9110",
"!@	c #E1940F",
"~@	c #E2940D",
"{@	c #E2940C",
"]@	c #E2930C",
"^@	c #D88807",
"/@	c #856E19",
"(@	c #3D6839",
"_@	c #526752",
":@	c #366533",
"<@	c #342301",
"[@	c #5F3C00",
"}@	c #784C01",
"|@	c #8A5702",
"1@	c #996303",
"2@	c #AE7106",
"3@	c #BF7C09",
"4@	c #CC840A",
"5@	c #D3890B",
"6@	c #D58B0A",
"7@	c #D38A0B",
"8@	c #CF860A",
"9@	c #C17904",
"0@	c #686523",
"a@	c #3F693F",
"b@	c #516651",
"c@	c #3D6A3C",
"d@	c #3E3B27",
"e@	c #472B00",
"f@	c #664100",
"g@	c #885701",
"h@	c #9C6402",
"i@	c #AC6E04",
"j@	c #B87605",
"k@	c #C17C06",
"l@	c #C47F07",
"m@	c #C27D09",
"n@	c #B67507",
"o@	c #9C660C",
"p@	c #4F6133",
"q@	c #456B46",
"r@	c #586A58",
"s@	c #5D6C5E",
"t@	c #646260",
"u@	c #2F2006",
"v@	c #4E3100",
"w@	c #633F00",
"x@	c #875601",
"y@	c #986101",
"z@	c #A36802",
"A@	c #AB6D04",
"B@	c #AD7005",
"C@	c #A86C05",
"D@	c #956003",
"E@	c #7D6134",
"F@	c #637B65",
"G@	c #4E6E4E",
"H@	c #828282",
"I@	c #666B66",
"J@	c #606960",
"K@	c #858485",
"L@	c #464340",
"M@	c #2D1E04",
"N@	c #442B00",
"O@	c #583800",
"P@	c #6D4600",
"Q@	c #7E5001",
"R@	c #895801",
"S@	c #8F5C02",
"T@	c #825302",
"U@	c #6E4F1A",
"V@	c #7F7D7F",
"W@	c #69816A",
"X@	c #5D785D",
"Y@	c #6E716E",
"Z@	c #5C665C",
"`@	c #848485",
" #	c #4D4C4A",
".#	c #2E2516",
"+#	c #2C1C00",
"@#	c #412800",
"##	c #553500",
"$#	c #603B00",
"%#	c #623D00",
"&#	c #63430B",
"*#	c #665332",
"=#	c #828183",
"-#	c #658065",
";#	c #6A7F6A",
">#	c #6D726D",
",#	c #818181",
"'#	c #848484",
")#	c #707071",
"!#	c #595754",
"~#	c #4C473D",
"{#	c #4C4231",
"]#	c #564A37",
"^#	c #645A4A",
"/#	c #726E66",
"(#	c #808082",
"_#	c #808081",
":#	c #6A806A",
"<#	c #7A807A",
"[#	c #7E7E7E",
"}#	c #7E7E7D",
"                    . + @ # $ % & * = - ; >                     ",
"              , ' ) ! ~ { ] ^ / ( _ : < [ } | >                 ",
"            1 2 3 4 5 6 7 8 9 0 a b c d e f g h i               ",
"            j k l m m n o p q r s t u v w x y z A B             ",
"            C D l m E F G H I J K L M N O P Q z R B             ",
"            S T U V W X Y Z `  ...+.@.#.$.%.&.*.=.-.            ",
"            S ;.>.,.'.).!.~.{.].^./.(._.:.<.[.}.|.1.            ",
"            2.3.4.5.6.7.8.9.0.a.b.c.d.e.f.g.h.i.j.1.            ",
"            2.k.l.m.n.o.p.q.r.s.t.u.v.w.x.y.z.A.B.1.            ",
"            2.C.D.E.F.).G.H.I.J.K.L.M.N.O.P.z.Q.R.S.            ",
"            T.U.V.W.X.Y.Z.`. +.+++@+#+$+%+&+*+=+-+S.            ",
"            T.;+V.>+,+'+)+!+~+{+]+^+/+(+_+:+<+[+}+,             ",
"            T.|+1+2+3+4+5+6+7+8+9+0+a+b+c+d+e+f+g+,             ",
"            h+i+j+k+l+m+n+o+p+q+r+s+t+u+v+w+x+y+z+              ",
"            h+A+B+C+D+`.E+F+G+H+I+J+K+L+M+N+O+P+Q+              ",
"            h+A+R+S+T+U+V+W+X+Y+Z+`+ @.@+@@@#@$@-.              ",
"            h+%@&@*@=@-@;@>@,@'@)@!@~@{@]@^@/@(@1.              ",
"            h+_@:@<@[@}@|@1@2@3@4@5@6@7@8@9@0@a@1.              ",
"            h+b@c@d@e@f@7+g@h@i@j@k@l@m@n@o@p@q@1.              ",
"            B r@s@t@u@v@w@).x@y@z@A@B@C@D@E@F@G@S.              ",
"            H@I@J@K@L@M@N@O@P@Q@R@S@U+T@U@V@W@X@1               ",
"            S.Y@Z@B `@ #.#+#@###$#%#&#*#i =#-#;#,               ",
"              ; >#,#  '#)#!#~#{#]#^#/#(#_#, :#<#                ",
"                >           [#i }#z+_#      >                   "};
