/* XPM */
static char * subdivision_object_xpm[] = {
"32 24 381 2",
"  	c #808080",
". 	c #7F7F80",
"+ 	c #7D7C7E",
"@ 	c #7A787C",
"# 	c #78767A",
"$ 	c #7E7D7E",
"% 	c #716C78",
"& 	c #695E76",
"* 	c #6B5E7A",
"= 	c #6C5F7C",
"- 	c #6D607B",
"; 	c #746C7D",
"> 	c #7D7B7F",
", 	c #818181",
"' 	c #706978",
") 	c #6E607F",
"! 	c #766689",
"~ 	c #78688D",
"{ 	c #7A698E",
"] 	c #7A698D",
"^ 	c #77668A",
"/ 	c #756980",
"( 	c #808180",
"_ 	c #818180",
": 	c #78757A",
"< 	c #6E607E",
"[ 	c #78678C",
"} 	c #7D6C93",
"| 	c #806E96",
"1 	c #806F98",
"2 	c #806E95",
"3 	c #7F6D94",
"4 	c #7A688B",
"5 	c #78717F",
"6 	c #818281",
"7 	c #6C6375",
"8 	c #746586",
"9 	c #7B6A8F",
"0 	c #806D92",
"a 	c #866E8C",
"b 	c #886E88",
"c 	c #836F95",
"d 	c #816E97",
"e 	c #7E6D93",
"f 	c #746682",
"g 	c #7A797C",
"h 	c #6E6177",
"i 	c #7B6473",
"j 	c #836263",
"k 	c #8C6047",
"l 	c #966032",
"m 	c #9B6236",
"n 	c #956652",
"o 	c #8C6A72",
"p 	c #836A84",
"q 	c #776788",
"r 	c #79777D",
"s 	c #74717A",
"t 	c #68545D",
"u 	c #704928",
"v 	c #885523",
"w 	c #925C2B",
"x 	c #966035",
"y 	c #99623A",
"z 	c #9B623B",
"A 	c #A46D49",
"B 	c #987066",
"C 	c #757081",
"D 	c #706A7B",
"E 	c #644D4F",
"F 	c #5A3A1F",
"G 	c #623F26",
"H 	c #764C2C",
"I 	c #935E34",
"J 	c #996339",
"K 	c #AB6F3D",
"L 	c #BB7A40",
"M 	c #C17D40",
"N 	c #A27461",
"O 	c #746D85",
"P 	c #7B7B7C",
"Q 	c #6F667E",
"R 	c #644C4B",
"S 	c #5B3B22",
"T 	c #5F3E28",
"U 	c #63402C",
"V 	c #654233",
"W 	c #C27F3E",
"X 	c #C17E40",
"Y 	c #C17E41",
"Z 	c #C27E41",
"` 	c #A27564",
" .	c #756B8A",
"..	c #7E7C7F",
"+.	c #77747B",
"@.	c #706483",
"#.	c #674E50",
"$.	c #5C3B23",
"%.	c #603E29",
"&.	c #65422E",
"*.	c #664333",
"=.	c #C3803F",
"-.	c #C07D40",
";.	c #A27569",
">.	c #77698E",
",.	c #7D7981",
"'.	c #807F80",
").	c #72687D",
"!.	c #76678D",
"~.	c #6B5056",
"{.	c #5F3D27",
"].	c #623F2C",
"^.	c #674331",
"/.	c #664335",
"(.	c #C3803E",
"_.	c #C17E42",
":.	c #C37E41",
"<.	c #9D7470",
"[.	c #796992",
"}.	c #797082",
"|.	c #70677A",
"1.	c #746587",
"2.	c #7D6D99",
"3.	c #6C535C",
"4.	c #5F3D2A",
"5.	c #65422F",
"6.	c #694534",
"7.	c #684436",
"8.	c #BF7D40",
"9.	c #C07D42",
"0.	c #C27E40",
"a.	c #9B7371",
"b.	c #796A94",
"c.	c #756585",
"d.	c #77737C",
"e.	c #6F6679",
"f.	c #746481",
"g.	c #7D677F",
"h.	c #896256",
"i.	c #925D2F",
"j.	c #805231",
"k.	c #6D4835",
"l.	c #6A4635",
"m.	c #6D4838",
"n.	c #BE7D40",
"o.	c #BB7B3E",
"p.	c #B0713C",
"q.	c #9C6849",
"r.	c #856874",
"s.	c #796785",
"t.	c #6E607C",
"u.	c #78747B",
"v.	c #6A6070",
"w.	c #7A5D61",
"x.	c #8A5E44",
"y.	c #915B29",
"z.	c #945D2B",
"A.	c #966031",
"B.	c #9C6437",
"C.	c #9B6439",
"D.	c #865739",
"E.	c #7E5339",
"F.	c #B7783E",
"G.	c #AD703C",
"H.	c #A06739",
"I.	c #9C6337",
"J.	c #9E6335",
"K.	c #9F6333",
"L.	c #966446",
"M.	c #856464",
"N.	c #756170",
"O.	c #77717C",
"P.	c #7C7B7D",
"Q.	c #6D637B",
"R.	c #6C596C",
"S.	c #6A4429",
"T.	c #7F502A",
"U.	c #955F31",
"V.	c #9A6235",
"W.	c #9B6338",
"X.	c #9C643A",
"Y.	c #A0673C",
"Z.	c #AF723E",
"`.	c #AE723D",
" +	c #794F37",
".+	c #8D5B37",
"++	c #9E6537",
"@+	c #9D6436",
"#+	c #9B6334",
"$+	c #9B6235",
"%+	c #9B6233",
"&+	c #A46734",
"*+	c #A36D47",
"=+	c #77657B",
"-+	c #76717D",
";+	c #6E6578",
">+	c #76678C",
",+	c #755E75",
"'+	c #614031",
")+	c #654232",
"!+	c #714936",
"~+	c #915D3B",
"{+	c #A1683C",
"]+	c #B17440",
"^+	c #BD7B40",
"/+	c #B8783F",
"(+	c #664435",
"_+	c #6B4634",
":+	c #724A33",
"<+	c #8E5B33",
"[+	c #9D6434",
"}+	c #9F6633",
"|+	c #AC6F37",
"1+	c #B3743A",
"2+	c #7D6A88",
"3+	c #736485",
"4+	c #7D7A7F",
"5+	c #757179",
"6+	c #716383",
"7+	c #806E97",
"8+	c #7B637E",
"9+	c #654437",
"0+	c #694537",
"a+	c #6B463A",
"b+	c #65433B",
"c+	c #BA7A42",
"d+	c #C07D41",
"e+	c #BE7D41",
"f+	c #BF7D3F",
"g+	c #B6783D",
"h+	c #644232",
"i+	c #674330",
"j+	c #65412E",
"k+	c #64412F",
"l+	c #815431",
"m+	c #B67837",
"n+	c #B47639",
"o+	c #B5763B",
"p+	c #B27644",
"q+	c #806D93",
"r+	c #7C6A90",
"s+	c #756981",
"t+	c #6E6678",
"u+	c #79688C",
"v+	c #83709C",
"w+	c #816989",
"x+	c #69463B",
"y+	c #6A463A",
"z+	c #6C473C",
"A+	c #66433B",
"B+	c #B97840",
"C+	c #BE7C40",
"D+	c #BC7B3E",
"E+	c #BC7A3C",
"F+	c #AD7138",
"G+	c #603E2C",
"H+	c #613F2A",
"I+	c #613F2B",
"J+	c #85562F",
"K+	c #B47634",
"L+	c #B37538",
"M+	c #B6773C",
"N+	c #B37746",
"O+	c #806E9B",
"P+	c #806D96",
"Q+	c #776589",
"R+	c #7A787D",
"S+	c #818280",
"T+	c #84709C",
"U+	c #806989",
"V+	c #674538",
"W+	c #694538",
"X+	c #654239",
"Y+	c #B5763D",
"Z+	c #BB7A3C",
"`+	c #B9783B",
" @	c #B97839",
".@	c #A56B32",
"+@	c #5D3B28",
"@@	c #5E3C26",
"#@	c #5E3C25",
"$@	c #81542B",
"%@	c #B07331",
"&@	c #B07335",
"*@	c #B5763C",
"=@	c #B37745",
"-@	c #7E6EA0",
";@	c #78688B",
">@	c #75717B",
",@	c #766688",
"'@	c #806D97",
")@	c #826C93",
"!@	c #674740",
"~@	c #654030",
"{@	c #674335",
"]@	c #603F35",
"^@	c #B27338",
"/@	c #B77637",
"(@	c #B57534",
"_@	c #B6752D",
":@	c #9A6941",
"<@	c #583A25",
"[@	c #59381E",
"}@	c #5A3A20",
"|@	c #593921",
"1@	c #805226",
"2@	c #AC702C",
"3@	c #AC7031",
"4@	c #B27334",
"5@	c #AB744B",
"6@	c #7C6D9D",
"7@	c #7C6B91",
"8@	c #7D7C7F",
"9@	c #7D7C7D",
"0@	c #6C607A",
"a@	c #79688B",
"b@	c #7E6C93",
"c@	c #84719E",
"d@	c #765C70",
"e@	c #644338",
"f@	c #5C3B2E",
"g@	c #AC6F30",
"h@	c #AE7233",
"i@	c #A46F3F",
"j@	c #85686E",
"k@	c #746588",
"l@	c #6F617C",
"m@	c #5E4740",
"n@	c #56391F",
"o@	c #55361B",
"p@	c #83541F",
"q@	c #A66C26",
"r@	c #A46C30",
"s@	c #926C61",
"t@	c #7D6B93",
"u@	c #76678A",
"v@	c #6E6579",
"w@	c #77737A",
"x@	c #6C6079",
"y@	c #716281",
"z@	c #7A6A90",
"A@	c #776485",
"B@	c #614A50",
"C@	c #926642",
"D@	c #7E6262",
"E@	c #6B607C",
"F@	c #6A6079",
"G@	c #6B6275",
"H@	c #695F74",
"I@	c #685E76",
"J@	c #625461",
"K@	c #574138",
"L@	c #77522A",
"M@	c #88654A",
"N@	c #74637A",
"O@	c #726489",
"P@	c #756688",
"Q@	c #6C617B",
"R@	c #79777B",
"S@	c #77757A",
"T@	c #716B77",
"U@	c #6A6074",
"V@	c #716A7A",
"W@	c #736E7A",
"X@	c #75737D",
"Y@	c #777579",
"Z@	c #78777A",
"`@	c #79787B",
" #	c #757379",
".#	c #706B75",
"+#	c #6A6167",
"@#	c #635C70",
"##	c #63596F",
"$#	c #665A72",
"%#	c #6D6577",
"&#	c #78757B",
"*#	c #7F7F7F",
"=#	c #7E7E7F",
"-#	c #7F7E7F",
";#	c #7C7C7D",
">#	c #7E7D7F",
"                          . + @ # + .                           ",
"                        $ % & * = - ; >                         ",
"                      , ' ) ! ~ { ] ^ / (                       ",
"                    _ : < [ } | 1 2 3 4 5 _                     ",
"                    6 7 8 9 0 a b c d e f (                     ",
"                  ( g h i j k l m n o p q r (                   ",
"                  , s t u v w x y y z A B C _                   ",
"                  _ D E F G H I J K L M N O (                   ",
"                  P Q R S T U V W X Y Z `  ...                  ",
"                  +.@.#.$.%.&.*.=.-.Y Z ;.>.,.                  ",
"                '.).!.~.{.].^./.(.-._.:.<.[.}.                  ",
"              _ |.1.2.3.4.5.6.7.=.8.9.0.a.b.c.d._               ",
"            $ e.f.g.h.i.j.k.l.m.=.n.o.p.q.r.s.t.u.              ",
"          g v.w.x.y.z.A.B.C.D.E.F.G.H.I.J.K.L.M.N.O.'.          ",
"        P.Q.R.S.T.U.V.W.X.Y.Z.`. +.+++@+#+$+%+&+*+=+-+          ",
"      6 ;+>+,+'+)+!+~+{+]+^+8./+(+_+:+<+[+}+|+1+]+2+3+4+        ",
"    , 5+6+7+8+9+0+a+b+c+d+e+f+g+h+i+j+k+l+m+n+o+p+q+r+s+(       ",
"    6 t+u+v+w+x+y+z+A+B+C+D+E+F+G+H+H+I+J+K+L+M+N+O+P+Q+R+(     ",
"    S+|.] T+U+V+W+y+X+Y+Z+`+ @.@+@@@#@@@$@%@&@*@=@-@P+;@d._     ",
"    _ >@,@'@)@!@~@{@]@^@/@(@_@:@<@[@}@|@1@2@3@4@5@6@7@3+8@      ",
"      9@0@a@b@c@d@e@f@g@h@i@j@k@l@m@n@o@p@q@r@s@t@7@u@v@_       ",
"      , w@x@y@,@z@A@B@C@D@E@F@G@H@I@J@K@L@M@N@O@P@3+Q@R@        ",
"          S@T@G@U@v@V@W@X@Y@Z@g `@Y@ #.#+#@###$#& %#&#          ",
"            *#=#$ -#*#                *#=#$ ;#g >#-#            "};
