/* XPM */
static char * sweep_xpm[] = {
"32 25 156 2",
"  	c #969696",
". 	c #A77F7F",
"+ 	c #E72222",
"@ 	c #939A9A",
"# 	c #9D8D8E",
"$ 	c #E92122",
"% 	c #C63D38",
"& 	c #E20F07",
"* 	c #E32626",
"= 	c #AD7576",
"- 	c #A58282",
"; 	c #C44F4B",
"> 	c #D51905",
", 	c #6C3A00",
"' 	c #5C3B02",
") 	c #6C3502",
"! 	c #844000",
"~ 	c #DA2004",
"{ 	c #C25752",
"] 	c #989395",
"^ 	c #949B9B",
"/ 	c #E00D08",
"( 	c #E41301",
"_ 	c #9E4603",
": 	c #7D4F03",
"< 	c #744802",
"[ 	c #764A03",
"} 	c #8E5904",
"| 	c #DF2502",
"1 	c #E92602",
"2 	c #F42E00",
"3 	c #AEA78C",
"4 	c #979798",
"5 	c #969697",
"6 	c #544F46",
"7 	c #A50700",
"8 	c #B10300",
"9 	c #C52A02",
"0 	c #8C5403",
"a 	c #A74302",
"b 	c #E02602",
"c 	c #F92F05",
"d 	c #FFB013",
"e 	c #FEA712",
"f 	c #FDA511",
"g 	c #FFA91A",
"h 	c #B1A188",
"i 	c #979797",
"j 	c #959696",
"k 	c #817662",
"l 	c #1F1507",
"m 	c #180F00",
"n 	c #290F00",
"o 	c #B50200",
"p 	c #FA480D",
"q 	c #FE9C11",
"r 	c #FDA513",
"s 	c #FDA512",
"t 	c #FDA411",
"u 	c #FFAA1C",
"v 	c #B0A28B",
"w 	c #97999C",
"x 	c #805816",
"y 	c #774B02",
"z 	c #7B5E2C",
"A 	c #241B0E",
"B 	c #2D0F01",
"C 	c #3A2D16",
"D 	c #FFAA13",
"E 	c #F2AB32",
"F 	c #E89B1D",
"G 	c #E79F28",
"H 	c #91959B",
"I 	c #968C79",
"J 	c #764B02",
"K 	c #784E07",
"L 	c #794F07",
"M 	c #7A4E05",
"N 	c #7D5C23",
"O 	c #2C2314",
"P 	c #78561D",
"Q 	c #FFA611",
"R 	c #FDA717",
"S 	c #EDA937",
"T 	c #E89710",
"U 	c #E9970F",
"V 	c #EA9609",
"W 	c #AD9D85",
"X 	c #969798",
"Y 	c #886C3C",
"Z 	c #7A4F07",
"` 	c #7A5007",
" .	c #7B5007",
"..	c #7C571A",
"+.	c #CF9D49",
"@.	c #E9A026",
"#.	c #EA980E",
"$.	c #E8970F",
"%.	c #E8960E",
"&.	c #C89D58",
"*.	c #959596",
"=.	c #A0A1A3",
"-.	c #734700",
";.	c #7A4F05",
">.	c #BD8320",
",.	c #E9980F",
"'.	c #E8960F",
").	c #E79D22",
"!.	c #91969D",
"~.	c #918267",
"{.	c #764C04",
"].	c #774E07",
"^.	c #794E05",
"/.	c #C08520",
"(.	c #E9970E",
"_.	c #E7960F",
":.	c #EA9508",
"<.	c #A89D8A",
"[.	c #968362",
"}.	c #744900",
"|.	c #C08420",
"1.	c #E7960E",
"2.	c #E7940C",
"3.	c #C8A160",
"4.	c #959595",
"5.	c #969797",
"6.	c #989592",
"7.	c #8D6F3F",
"8.	c #E7960C",
"9.	c #E89B1B",
"0.	c #AC9F89",
"a.	c #989796",
"b.	c #989590",
"c.	c #8A6B37",
"d.	c #774C01",
"e.	c #E8970E",
"f.	c #E8950B",
"g.	c #E59D22",
"h.	c #979899",
"i.	c #99948C",
"j.	c #866328",
"k.	c #784C02",
"l.	c #C68821",
"m.	c #E99509",
"n.	c #DF9F34",
"o.	c #969799",
"p.	c #97989A",
"q.	c #979185",
"r.	c #825F21",
"s.	c #CC8817",
"t.	c #DBA03E",
"u.	c #A59C8C",
"v.	c #959699",
"w.	c #98999B",
"x.	c #9E9991",
"y.	c #94969A",
"                                                                ",
"                                                                ",
"                                                                ",
"                                                                ",
"                        . + @                                   ",
"                      # $ % & * =                               ",
"                  - ; > , ' ) ! ~ { ]                           ",
"                ^ / ( _ : < [ } | 1 2 3 4                       ",
"                5 6 7 8 9 0 a b c d e f g h i                   ",
"                j k l m n o p q r r s s s t u v                 ",
"                w x y z A B C D s s s s t E F G H               ",
"                I J K L M N O P Q s R S T U U V W               ",
"              X Y K K L Z `  ...+.@.#.U U U $.%.&.*.            ",
"              =.-.K K L Z `  .;.>.#.,.U U $.$.'.).!.            ",
"              ~.{.].K L Z `  .^./.(.U U $.$.'._.:.<.            ",
"            j [.}.K K L L Z ` M |.(.U $.$.'._.1.2.3.4.          ",
"              5.6.7.J L L Z ` M |.(.$.$.$._.8.9.0.a.            ",
"                  4 b.c.d.Z ` M |.e.$.$.f.g.<.i                 ",
"                      h.i.j.k.^.l.$.m.n.<.o.                    ",
"                          p.q.r.s.t.u.v.                        ",
"                              w.x.y.                            ",
"                                                                ",
"                                                                ",
"                                                                ",
"                                                                "};
