/* XPM */
static char * taper_object_xpm[] = {
"32 24 382 2",
"  	c #808080",
". 	c #808081",
"+ 	c #807F7E",
"@ 	c #827663",
"# 	c #81725C",
"$ 	c #7E7465",
"% 	c #7F7A73",
"& 	c #808181",
"* 	c #808184",
"= 	c #808182",
"- 	c #817F7C",
"; 	c #8C6A30",
"> 	c #8E5D0A",
", 	c #895704",
"' 	c #9A650F",
") 	c #AF781E",
"! 	c #98702E",
"~ 	c #856C46",
"{ 	c #817664",
"] 	c #7F8082",
"^ 	c #7F8287",
"/ 	c #7F8184",
"( 	c #916923",
"_ 	c #975F00",
": 	c #945E00",
"< 	c #AD6D04",
"[ 	c #C87D05",
"} 	c #B77404",
"| 	c #A06403",
"1 	c #9B6305",
"2 	c #986109",
"3 	c #916010",
"4 	c #89662F",
"5 	c #827258",
"6 	c #7F7F7F",
"7 	c #7F8285",
"8 	c #907341",
"9 	c #A06400",
"0 	c #9C6401",
"a 	c #AA6B03",
"b 	c #C67E08",
"c 	c #A4711E",
"d 	c #A36700",
"e 	c #A56803",
"f 	c #A46703",
"g 	c #A36603",
"h 	c #A16402",
"i 	c #9D6200",
"j 	c #975D00",
"k 	c #8E6423",
"l 	c #866F4B",
"m 	c #827B71",
"n 	c #817E79",
"o 	c #807F7D",
"p 	c #867D6D",
"q 	c #A56B08",
"r 	c #A66A02",
"s 	c #A86B03",
"t 	c #C27A05",
"u 	c #9F804C",
"v 	c #967640",
"w 	c #A96A00",
"x 	c #A66902",
"y 	c #A66903",
"z 	c #A66A03",
"A 	c #A66904",
"B 	c #A56904",
"C 	c #A56701",
"D 	c #A26400",
"E 	c #9C5F00",
"F 	c #956519",
"G 	c #8A6B38",
"H 	c #857354",
"I 	c #817F7D",
"J 	c #997436",
"K 	c #A96D04",
"L 	c #AA6D04",
"M 	c #B87401",
"N 	c #AD7F33",
"O 	c #81807E",
"P 	c #B17207",
"Q 	c #B07104",
"R 	c #AE6F04",
"S 	c #AB6E03",
"T 	c #AA6C03",
"U 	c #A86B02",
"V 	c #A76B03",
"W 	c #A86B04",
"X 	c #9D6302",
"Y 	c #985E00",
"Z 	c #925A00",
"` 	c #85755B",
" .	c #867D6E",
"..	c #A37018",
"+.	c #AC6F05",
"@.	c #BC7B10",
"#.	c #8F8068",
"$.	c #947D57",
"%.	c #B97705",
"&.	c #B77608",
"*.	c #B67607",
"=.	c #B47507",
"-.	c #B27306",
";.	c #B07105",
">.	c #AE7004",
",.	c #AC6E04",
"'.	c #A86C03",
").	c #9D6303",
"!.	c #7F5103",
"~.	c #462D01",
"{.	c #7A4B00",
"].	c #876E43",
"^.	c #808183",
"/.	c #8D7958",
"(.	c #A96D05",
"_.	c #B27F2C",
":.	c #7D8186",
"<.	c #A97B2C",
"[.	c #BB7A09",
"}.	c #BB7A0A",
"|.	c #BA790A",
"1.	c #BA7809",
"2.	c #B97808",
"3.	c #B87708",
"4.	c #B47506",
"5.	c #B37305",
"6.	c #B17105",
"7.	c #A26703",
"8.	c #7B4E03",
"9.	c #2C1C00",
"0.	c #1B1100",
"a.	c #5C3800",
"b.	c #857251",
"c.	c #92733D",
"d.	c #A56800",
"e.	c #A56905",
"f.	c #B87609",
"g.	c #9E7F4D",
"h.	c #7D8085",
"i.	c #B57A15",
"j.	c #BA7A0B",
"k.	c #BB7A0B",
"l.	c #BC7B0B",
"m.	c #BD7B0B",
"n.	c #BD7C0C",
"o.	c #BC7B0A",
"p.	c #BA7909",
"q.	c #B07107",
"r.	c #875603",
"s.	c #573600",
"t.	c #4F3200",
"u.	c #442B00",
"v.	c #6C4200",
"w.	c #82796C",
"x.	c #817F7A",
"y.	c #946921",
"z.	c #9D6401",
"A.	c #9E6504",
"B.	c #BF7B0D",
"C.	c #898071",
"D.	c #897E6C",
"E.	c #B27710",
"F.	c #B7780B",
"G.	c #B9790B",
"H.	c #BB7A0C",
"I.	c #BC7B0C",
"J.	c #BE7C0C",
"K.	c #BE7D0D",
"L.	c #BE7D0C",
"M.	c #BE7C0B",
"N.	c #976105",
"O.	c #774C01",
"P.	c #6E4601",
"Q.	c #694201",
"R.	c #623D00",
"S.	c #7D5410",
"T.	c #817E78",
"U.	c #90600D",
"V.	c #945E01",
"W.	c #9C6303",
"X.	c #BF7D13",
"Y.	c #7B818A",
"Z.	c #8F7A56",
"`.	c #AC720D",
" +	c #B17409",
".+	c #B3750B",
"++	c #B8790C",
"@+	c #BC7C0C",
"#+	c #C07E0D",
"$+	c #AA6F09",
"%+	c #8C5903",
"&+	c #885702",
"*+	c #835302",
"=+	c #7D4F02",
"-+	c #7B4C00",
";+	c #836636",
">+	c #807E77",
",+	c #875400",
"'+	c #895701",
")+	c #9F6502",
"!+	c #B37D25",
"~+	c #7B818B",
"{+	c #907545",
"]+	c #A46A08",
"^+	c #A86D07",
"/+	c #AC6F08",
"(+	c #AF7209",
"_+	c #B2740A",
":+	c #B5770B",
"<+	c #BB7B0D",
"[+	c #B9790C",
"}+	c #935E04",
"|+	c #9D6606",
"1+	c #996205",
"2+	c #945F04",
"3+	c #8F5C03",
"4+	c #8B5904",
"5+	c #83755B",
"6+	c #7F7B74",
"7+	c #7A4A00",
"8+	c #7D4E01",
"9+	c #A16501",
"0+	c #AC7E32",
"a+	c #7C828B",
"b+	c #8C6E38",
"c+	c #996204",
"d+	c #A16806",
"e+	c #A56B07",
"f+	c #A96E08",
"g+	c #AD7008",
"h+	c #B0730A",
"i+	c #9B6405",
"j+	c #A86D09",
"k+	c #AC710A",
"l+	c #A76E09",
"m+	c #A46B08",
"n+	c #9F6806",
"o+	c #8F651E",
"p+	c #817C75",
"q+	c #6B4100",
"r+	c #6E4600",
"s+	c #9D6301",
"t+	c #A97E37",
"u+	c #86652F",
"v+	c #8D5902",
"w+	c #915D02",
"x+	c #965F03",
"y+	c #9A6304",
"z+	c #9E6505",
"A+	c #A26906",
"B+	c #A76B07",
"C+	c #A36907",
"D+	c #A06707",
"E+	c #B97A0D",
"F+	c #B6780D",
"G+	c #B4760D",
"H+	c #B1740C",
"I+	c #A96F0C",
"J+	c #856D44",
"K+	c #7D7B77",
"L+	c #5B3800",
"M+	c #5D3C00",
"N+	c #B17D29",
"O+	c #7C5E2C",
"P+	c #7F5000",
"Q+	c #845401",
"R+	c #8D5A02",
"S+	c #925D03",
"T+	c #976003",
"U+	c #945E03",
"V+	c #B4760B",
"W+	c #BB7C0E",
"X+	c #996612",
"Y+	c #7F7E7D",
"Z+	c #7D7B79",
"`+	c #513A14",
" @	c #492D00",
".@	c #825202",
"+@	c #BD7C11",
"@@	c #818080",
"#@	c #735524",
"$@	c #754A01",
"%@	c #7A4E01",
"&@	c #7F5101",
"*@	c #845501",
"=@	c #895702",
"-@	c #9A6305",
";@	c #B77709",
">@	c #BB7B0C",
",@	c #BD7C0E",
"'@	c #B07209",
")@	c #816E4E",
"!@	c #808185",
"~@	c #7F7E7E",
"{@	c #534939",
"]@	c #2F1C00",
"^@	c #533501",
"/@	c #C47D08",
"(@	c #A4701D",
"_@	c #6E4501",
":@	c #5C3A00",
"<@	c #634000",
"[@	c #6A4300",
"}@	c #704700",
"|@	c #764B01",
"1@	c #7B4E01",
"2@	c #825201",
"3@	c #BA7606",
"4@	c #BA7808",
"5@	c #B77505",
"6@	c #8E6725",
"7@	c #7F8286",
"8@	c #6E6D6B",
"9@	c #221B10",
"0@	c #140B00",
"a@	c #A76902",
"b@	c #C17902",
"c@	c #764B02",
"d@	c #482D00",
"e@	c #4E3100",
"f@	c #563600",
"g@	c #5E3C00",
"h@	c #644000",
"i@	c #6A4400",
"j@	c #805102",
"k@	c #AF6E03",
"l@	c #BA7604",
"m@	c #BB7705",
"n@	c #BB7604",
"o@	c #9C670F",
"p@	c #817B6F",
"q@	c #747373",
"r@	c #454544",
"s@	c #3F3016",
"t@	c #BA7300",
"u@	c #965D00",
"v@	c #2C1B00",
"w@	c #332000",
"x@	c #3D2700",
"y@	c #472D00",
"z@	c #503200",
"A@	c #593800",
"B@	c #845402",
"C@	c #AF6F04",
"D@	c #B97405",
"E@	c #BB7505",
"F@	c #A66A04",
"G@	c #837255",
"H@	c #828282",
"I@	c #838384",
"J@	c #817D75",
"K@	c #92846C",
"L@	c #322F2A",
"M@	c #151006",
"N@	c #1E1302",
"O@	c #281900",
"P@	c #342100",
"Q@	c #422A00",
"R@	c #845302",
"S@	c #A16403",
"T@	c #AE6D05",
"U@	c #A56805",
"V@	c #836838",
"W@	c #878888",
"X@	c #6B6C6C",
"Y@	c #464545",
"Z@	c #2C2824",
"`@	c #1F180E",
" #	c #1E1200",
".#	c #7C4D00",
"+#	c #8C5700",
"@#	c #8E5902",
"##	c #836635",
"$#	c #848484",
"%#	c #7C7C7C",
"&#	c #676767",
"*#	c #52504D",
"=#	c #6D5329",
"-#	c #896322",
";#	c #818181",
">#	c #7E7D7B",
",#	c #817E7B",
"                    . . .                                       ",
"                . + @ # $ % & * =                               ",
"                - ; > , ' ) ! ~ { ] ^ * .                       ",
"              / ( _ : < [ } | 1 2 3 4 5 6 7 =                   ",
"            / 8 9 0 a b c d e e f g h i j k l m n o             ",
"          ] p q r s t u v w r r x y z A B C D E F G H I         ",
"          ] J K L M N O P Q R S T U V V s s W W X Y Z ` .       ",
"           ...L +.@.#.$.%.&.*.=.-.;.>.,.T '.T ).!.~.{.].^.      ",
"        . /.W (.;._.:.<.[.}.|.1.2.3.*.4.5.6.7.8.9.0.a.b.=       ",
"        O c.d.e.f.g.h.i.j.k.l.m.n.l.o.[.p.q.r.s.t.u.v.w.        ",
"        x.y.z.A.B.C.D.E.F.G.H.I.n.J.K.L.M.N.O.P.Q.R.S.n         ",
"        T.U.V.W.X.Y.Z.`. +.+F.++H.@+K.#+$+%+&+*+=+-+;+o         ",
"        >+,+'+)+!+~+{+]+^+/+(+_+:+++<+[+}+|+1+2+3+4+5+.         ",
"        6+7+8+9+0+a+b+c+A.d+e+f+g+h+:+i+j+k+l+m+n+o+p+          ",
"        6+q+r+s+t+a+u+v+w+x+y+z+A+B+C+D+E+F+G+H+I+J+*           ",
"        K+L+M+V.N+a+O+P+Q+'+R+S+T+i+U+V+<+<+W+W+X+Y+.           ",
"        Z+`+ @.@+@@@#@r+$@%@&@*@=@R+-@;@G.>@,@'@)@!@            ",
"        ~@{@]@^@/@(@_@:@<@[@}@|@1@2@A 3@4@|.5@6@7@              ",
"          8@9@0@a@b@c@d@e@f@g@h@i@j@k@l@m@n@o@p@.               ",
"            q@r@s@t@u@v@w@x@y@z@A@B@C@D@E@F@G@                  ",
"              H@I@J@K@L@M@N@O@P@Q@R@S@T@U@V@.                   ",
"                  . ] W@X@Y@Z@`@ #.#+#@###  .                   ",
"                        H@$#%#&#*#=#-#G@  .                     ",
"                              ;#  >#,#                          "};
