/* XPM */
static char * text_xpm[] = {
"32 24 203 2",
"  	c #818181",
". 	c #808080",
"+ 	c #848484",
"@ 	c #808181",
"# 	c #817E7A",
"$ 	c #817D77",
"% 	c #808081",
"& 	c #81807E",
"* 	c #837C73",
"= 	c #807F7E",
"- 	c #7A7D82",
"; 	c #87632A",
"> 	c #956A24",
", 	c #8A8070",
"' 	c #7F8081",
") 	c #7E7972",
"! 	c #916825",
"~ 	c #887961",
"{ 	c #818283",
"] 	c #6E685F",
"^ 	c #A16807",
"/ 	c #A86B03",
"( 	c #9C7840",
"_ 	c #7E8185",
": 	c #847D71",
"< 	c #A26D12",
"[ 	c #8B7A5D",
"} 	c #808082",
"| 	c #808182",
"1 	c #7F8082",
"2 	c #7F8083",
"3 	c #7A6032",
"4 	c #9F6B11",
"5 	c #987434",
"6 	c #A57017",
"7 	c #877F74",
"8 	c #7E786D",
"9 	c #9C680F",
"0 	c #8B7756",
"a 	c #80796B",
"b 	c #8C7755",
"c 	c #8A7F6D",
"d 	c #82807E",
"e 	c #7F7F7E",
"f 	c #7F796F",
"g 	c #8A724A",
"h 	c #957644",
"i 	c #8D7F68",
"j 	c #76736F",
"k 	c #916211",
"l 	c #95753D",
"m 	c #877C6A",
"n 	c #AA6B00",
"o 	c #927A54",
"p 	c #7F796E",
"q 	c #9D6B16",
"r 	c #835C16",
"s 	c #8F5700",
"t 	c #A56800",
"u 	c #B77100",
"v 	c #A17C43",
"w 	c #7E8084",
"x 	c #7E7E7F",
"y 	c #6F5F44",
"z 	c #885400",
"A 	c #A06501",
"B 	c #A76C08",
"C 	c #B87100",
"D 	c #987C4F",
"E 	c #7F8080",
"F 	c #7A6C55",
"G 	c #996100",
"H 	c #867E6F",
"I 	c #81807F",
"J 	c #9E6F20",
"K 	c #A47322",
"L 	c #82807C",
"M 	c #817A6E",
"N 	c #9C6B16",
"O 	c #9E6604",
"P 	c #917951",
"Q 	c #8A7A61",
"R 	c #987130",
"S 	c #AC6D02",
"T 	c #887E6E",
"U 	c #706D68",
"V 	c #7F5409",
"W 	c #A06E1A",
"X 	c #8A7B60",
"Y 	c #877C68",
"Z 	c #98712D",
"` 	c #A96C05",
" .	c #7E7D7C",
"..	c #7E5F2B",
"+.	c #9F6D18",
"@.	c #887860",
"#.	c #86785F",
"$.	c #947136",
"%.	c #AC6A00",
"&.	c #8C7D67",
"*.	c #7E776D",
"=.	c #9A6710",
"-.	c #917648",
";.	c #7F7B76",
">.	c #A36A08",
",.	c #90784E",
"'.	c #756B59",
").	c #945B00",
"!.	c #877D6C",
"~.	c #847D72",
"{.	c #897B62",
"].	c #7D7872",
"^.	c #8A5802",
"/.	c #A36702",
"(.	c #A06400",
"_.	c #A16603",
":.	c #A56801",
"<.	c #A57423",
"[.	c #7F8184",
"}.	c #807A6E",
"|.	c #9D680E",
"1.	c #877C6C",
"2.	c #6D7178",
"3.	c #9E6709",
"4.	c #957339",
"5.	c #807158",
"6.	c #9A6307",
"7.	c #827F78",
"8.	c #7F7F7C",
"9.	c #837F78",
"0.	c #828283",
"a.	c #6D5D42",
"b.	c #A46905",
"c.	c #967233",
"d.	c #94743D",
"e.	c #937541",
"f.	c #917647",
"g.	c #9B6F24",
"h.	c #A96A00",
"i.	c #8C7E6A",
"j.	c #807A6F",
"k.	c #9D680F",
"l.	c #937B53",
"m.	c #7D8087",
"n.	c #808285",
"o.	c #615C52",
"p.	c #9E6603",
"q.	c #8F774D",
"r.	c #867861",
"s.	c #9F6708",
"t.	c #8B7F6A",
"u.	c #7E8186",
"v.	c #7C7E81",
"w.	c #74592F",
"x.	c #AA6B05",
"y.	c #7A7D80",
"z.	c #81550A",
"A.	c #9C7128",
"B.	c #7F8183",
"C.	c #7F8185",
"D.	c #7E8187",
"E.	c #887B66",
"F.	c #A36905",
"G.	c #A37324",
"H.	c #7C7872",
"I.	c #966614",
"J.	c #AD6F08",
"K.	c #AC7E38",
"L.	c #85683A",
"M.	c #7D530C",
"N.	c #A06808",
"O.	c #837D74",
"P.	c #9E6C14",
"Q.	c #AE7516",
"R.	c #A57A36",
"S.	c #846128",
"T.	c #875500",
"U.	c #9A6D21",
"V.	c #818284",
"W.	c #6C6354",
"X.	c #A46700",
"Y.	c #8E774F",
"Z.	c #9B6E1F",
"`.	c #A56904",
" +	c #907A57",
".+	c #9F6A10",
"++	c #977131",
"@+	c #A86800",
"#+	c #A36600",
"$+	c #9F680C",
"%+	c #897A62",
"&+	c #887A63",
"*+	c #A16B11",
"=+	c #986E27",
"-+	c #837E76",
";+	c #8A7A5E",
">+	c #817F7B",
",+	c #827F7A",
"'+	c #857D70",
")+	c #847E73",
"!+	c #837F77",
"~+	c #877C6B",
"{+	c #827F7B",
"  . .   . .   . . . . . .   . . . . . . . . . . . . . . . . . + ",
". . . . . . . . . . . . . . . . . . . . . . . . . . . . . . . . ",
". . . . . . . . . . . . . . . . . . . . . . . . . . . . . . .   ",
". . . . . . . . . . . . . . . . . . . . . . . . . . . . . . . . ",
". . . . . . . . . . . . . . . . . . . . . . . . . . . . . . .   ",
". . . . . . @ # $ % . . . & * = . . . . . . . . . . . . . . . . ",
". . . . . . - ; > , ' . . ) ! ~ % . . . . . . . . . . . . . . . ",
". . . . . { ] ^ / ( _ . . : < [ } } . . . . . . | 1 % . . . . . ",
". . . . . 2 3 4 5 6 7 . . 8 9 0 a b c d . . e f g h i & . . . . ",
". . . . . j k l m n o . . p q r s t u v w x y z A B C D 1 . . . ",
". . . . E F G H I J K L . M N O P Q R S T U V W X Y Z ` } . . . ",
". . . .  ...+.@.#.$.%.&.% *.=.-.} } ;.>.,.'.).!.% } ~.{.% . . . ",
". . . . ].^./.(.(._.:.<.[.}.|.1..   2.3.4.5.6.7.. . 8.9.. . . . ",
". . . 0.a.b.c.d.e.f.g.h.i.j.k.l.m.n.o.p.q.r.s.t.u.v.w.x.} . . . ",
". . . y.z.A.B.C.[.D.E.F.G.H.I.J.K.L.M.N.7.O.P.Q.R.S.T.U.1 . . . ",
". . V.W.X.Y.[.. . . u.Z.`. +.+++@+#+$+%+% % &+*+@+#+=+-+. . . . ",
". . % : ;+>+. . . . . ,+'+9.)+1 !+~+} % . . % _ ,+{+C.. . . . . ",
". . . % B.% . . . . . % 1 % % . % 1 . . . . . . % % . . . . . . ",
". . . . . . . . . . . . . . . . . . . . . . . . . . . . . . . . ",
". . . . . . . . . . . . . . . . . . . . . . . . . . . . . . . . ",
". . . . . . . . . . . . . . . . . . . . . . . . . . . . . . . . ",
". . . . . . . . . . . . . . . . . . . . . . . . . . . . . . . . ",
". . . . . . . . . . . . . . . . . . . . . . . . . . . . . . . . ",
". . . . . . . . . . . . . . . . . .   . . . . . .   . .   . .   "};
