/* XPM */
static char * tip_xpm[] = {
"32 24 121 2",
"  	c #969696",
". 	c #959697",
"+ 	c #97999B",
"@ 	c #FF0000",
"# 	c #95989A",
"$ 	c #959696",
"% 	c #95979A",
"& 	c #9B9894",
"* 	c #FE0201",
"= 	c #999998",
"- 	c #959597",
"; 	c #969799",
"> 	c #A0937C",
", 	c #A17424",
"' 	c #9E690C",
") 	c #D39428",
"! 	c #FFAA12",
"~ 	c #E9A93B",
"{ 	c #A19C92",
"] 	c #949597",
"^ 	c #9A9791",
"/ 	c #A3854E",
"( 	c #A06907",
"_ 	c #A06A0B",
": 	c #9E680B",
"< 	c #D29429",
"[ 	c #FFA810",
"} 	c #FFAB1A",
"| 	c #BFA475",
"1 	c #979695",
"2 	c #969697",
"3 	c #969798",
"4 	c #999793",
"5 	c #9F8B69",
"6 	c #A2711D",
"7 	c #9F6705",
"8 	c #A06A0C",
"9 	c #9F680B",
"0 	c #D59628",
"a 	c #FFAA11",
"b 	c #FFA813",
"c 	c #FFA812",
"d 	c #FFA90E",
"e 	c #E0A849",
"f 	c #AA9D86",
"g 	c #949699",
"h 	c #96999F",
"i 	c #9F927C",
"j 	c #A07934",
"k 	c #A06A0D",
"l 	c #9F680A",
"m 	c #9F6A0C",
"n 	c #9E690B",
"o 	c #DD9B29",
"p 	c #FFA911",
"q 	c #FFA90F",
"r 	c #F5A825",
"s 	c #CAA464",
"t 	c #94989D",
"u 	c #9B9994",
"v 	c #A17F44",
"w 	c #9E6B11",
"x 	c #9F690C",
"y 	c #A16B0C",
"z 	c #DE9C2A",
"A 	c #FFA811",
"B 	c #FEA815",
"C 	c #EBA937",
"D 	c #A49D90",
"E 	c #98999A",
"F 	c #A18E6F",
"G 	c #A1711E",
"H 	c #9F6A0F",
"I 	c #9F690B",
"J 	c #A16B0D",
"K 	c #DE9B29",
"L 	c #FEA814",
"M 	c #F9A81C",
"N 	c #D5A85A",
"O 	c #999A9B",
"P 	c #959799",
"Q 	c #9A9A9A",
"R 	c #A08962",
"S 	c #A1782F",
"T 	c #A06909",
"U 	c #FFA912",
"V 	c #EEA82F",
"W 	c #D2A559",
"X 	c #A59E91",
"Y 	c #90959D",
"Z 	c #96989A",
"` 	c #9A968E",
" .	c #9F8D6E",
"..	c #A4792F",
"+.	c #A26905",
"@.	c #A16A0B",
"#.	c #DF9C29",
"$.	c #FFA80F",
"%.	c #FFA90B",
"&.	c #ECAA3B",
"*.	c #C0A26D",
"=.	c #A39B8D",
"-.	c #93969A",
";.	c #969797",
">.	c #989590",
",.	c #A29172",
"'.	c #A57420",
").	c #9F6808",
"!.	c #E9A329",
"~.	c #FFAA0E",
"{.	c #EEAB38",
"].	c #B5A183",
"^.	c #9B9791",
"/.	c #9A9B9C",
"(.	c #A28A61",
"_.	c #DAA549",
":.	c #B9A37D",
"<.	c #94979C",
"[.	c #959596",
"}.	c #93979E",
"|.	c #939598",
"                                                                ",
"                                                                ",
"                                                                ",
"                                                                ",
"                                                                ",
"                            . + @ # $                           ",
"                          % & * @ @ = -                         ",
"                        ; > , ' ) ! ~ { ]                       ",
"                      ^ / ( _ : < ! [ } | 1 2                   ",
"                3 4 5 6 7 8 8 9 0 a b c d e f g                 ",
"            $ h i j k l m 8 8 n o p b b b q r s t ]             ",
"          2 u v w ' x m 8 8 y n z p b b b c A B C D ]           ",
"            E F G H I 8 8 8 J ' K p b b b c A L M N O           ",
"              P Q R S y T J J x K p b b [ U V W X Y             ",
"                  Z `  ...+.@.x #.p $.%.&.*.=.-.-               ",
"                      ;.>.,.'.).!.~.{.].^.;.                    ",
"                          . /.(._.:.<.[.                        ",
"                              % }.|.                            ",
"                                                                ",
"                                                                ",
"                                                                ",
"                                                                ",
"                                                                ",
"                                                                "};
