/* XPM */
static char * tool_edit_extrude_xpm[] = {
"25 25 6 1",
" 	c None",
".	c #C7D3CF",
"+	c #000000",
"@	c #FFFFFF",
"#	c #00CADC",
"$	c #00D40F",
".........................",
".........................",
".........................",
"..++++++++++++...........",
"..++@@@@@@@@@@+..........",
"..++@@@@@@@@@@+..........",
"..+@+@@@@@@@@@@+.........",
"..+@+@@@@@@@@@@+.........",
"..+@@#############.......",
"..+@@#@####@@@@@#.####...",
"..+@@#@@@@@#$$$$$$$$$$$$.",
"..+@@#@@@@@@$@@@@@@@@@@$.",
"..+@@#@@@@@@$@@@@@@@@@@$.",
"..+@@#@@@@@@$@@@@@@@@@@$.",
"..+@@#@@@@@@$@@@@@@@@@@$.",
"...+@#@@@@@@$@@@@@@@@@@$.",
"...+@#@@@@@@$@@@@@@@@@@$.",
"....+#@@@@@@$@@@@@@@@@@$.",
"....+#@@@@@@$@@@@@@@@@@$.",
".....#######$@@@@@@@@@@$.",
".......####.$@@@@@@@@@@$.",
"...........#$$$$$$$$$$$$.",
".........................",
".........................",
"........................."};
