/* XPM */
static char * triangle_subdiv_xpm[] = {
"32 24 269 2",
"  	c #808080",
". 	c #838083",
"+ 	c #848084",
"@ 	c #757C75",
"# 	c #727F72",
"$ 	c #818181",
"% 	c #848184",
"& 	c #818081",
"* 	c #828182",
"= 	c #878087",
"- 	c #817E81",
"; 	c #5B785C",
"> 	c #327F39",
", 	c #138F21",
"' 	c #19681A",
") 	c #28652C",
"! 	c #537854",
"~ 	c #7E817E",
"{ 	c #878287",
"] 	c #828082",
"^ 	c #838183",
"/ 	c #667865",
"( 	c #307A31",
"_ 	c #09870F",
": 	c #11990D",
"< 	c #55950A",
"[ 	c #AD910A",
"} 	c #684B02",
"| 	c #2C3F00",
"1 	c #0B4904",
"2 	c #08580A",
"3 	c #357036",
"4 	c #6D7F6D",
"5 	c #858185",
"6 	c #7B7F7B",
"7 	c #6B7D6B",
"8 	c #3B763B",
"9 	c #10800F",
"0 	c #049502",
"a 	c #379A08",
"b 	c #8C910A",
"c 	c #D0880A",
"d 	c #D7870A",
"e 	c #D68B0A",
"f 	c #704A02",
"g 	c #5B3900",
"h 	c #5D3C00",
"i 	c #3F3F00",
"j 	c #134300",
"k 	c #004F00",
"l 	c #1B661A",
"m 	c #547754",
"n 	c #797E79",
"o 	c #7D807D",
"p 	c #797D79",
"q 	c #28652A",
"r 	c #006300",
"s 	c #007F00",
"t 	c #098603",
"u 	c #338004",
"v 	c #427803",
"w 	c #507C05",
"x 	c #4A7C05",
"y 	c #497C05",
"z 	c #4B7E05",
"A 	c #296602",
"B 	c #285D01",
"C 	c #2A5D01",
"D 	c #2C5D01",
"E 	c #2F5C02",
"F 	c #1F5D02",
"G 	c #065A00",
"H 	c #005F00",
"I 	c #096A09",
"J 	c #347A36",
"K 	c #718172",
"L 	c #7E807F",
"M 	c #4B552E",
"N 	c #1A4500",
"O 	c #005300",
"P 	c #086701",
"Q 	c #487C05",
"R 	c #8B8708",
"S 	c #8F8607",
"T 	c #878507",
"U 	c #868507",
"V 	c #878607",
"W 	c #3E6202",
"X 	c #305901",
"Y 	c #325A01",
"Z 	c #345A01",
"` 	c #375902",
" .	c #2B5F01",
"..	c #0B7002",
"+.	c #007E04",
"@.	c #008804",
"#.	c #298810",
"$.	c #708267",
"%.	c #808081",
"&.	c #828385",
"*.	c #6A5838",
"=.	c #553901",
"-.	c #4C3900",
";.	c #224100",
">.	c #084B00",
",.	c #166002",
"'.	c #747C06",
").	c #CE880A",
"!.	c #DC890A",
"~.	c #DA8B09",
"{.	c #704802",
"].	c #5A3900",
"^.	c #603700",
"/.	c #4F4101",
"(.	c #275902",
"_.	c #067C04",
":.	c #088F06",
"<.	c #518B08",
"[.	c #A48308",
"}.	c #AE8024",
"|.	c #848078",
"1.	c #695738",
"2.	c #583801",
"3.	c #593800",
"4.	c #5C3800",
"5.	c #533A00",
"6.	c #293D00",
"7.	c #024500",
"8.	c #075A01",
"9.	c #637505",
"0.	c #C58709",
"a.	c #5E4102",
"b.	c #414900",
"c.	c #156B03",
"d.	c #0B8705",
"e.	c #209508",
"f.	c #728B09",
"g.	c #C18009",
"h.	c #CA7E09",
"i.	c #C67F08",
"j.	c #B37F27",
"k.	c #83807A",
"l.	c #583800",
"m.	c #5E3900",
"n.	c #583900",
"o.	c #333C00",
"p.	c #0E4300",
"q.	c #0F5A01",
"r.	c #147404",
"s.	c #1F8C06",
"t.	c #549008",
"u.	c #968709",
"v.	c #CD7F09",
"w.	c #C67F09",
"x.	c #C57F09",
"y.	c #C47F07",
"z.	c #B17F2A",
"A.	c #81807E",
"B.	c #6A5738",
"C.	c #593900",
"D.	c #573A00",
"E.	c #3B3900",
"F.	c #738608",
"G.	c #AE8509",
"H.	c #CB8009",
"I.	c #CA8009",
"J.	c #C57F08",
"K.	c #C47E08",
"L.	c #C47E07",
"M.	c #AF7F2C",
"N.	c #695737",
"O.	c #573701",
"P.	c #5B3A00",
"Q.	c #583700",
"R.	c #BF7C08",
"S.	c #C88109",
"T.	c #C37E08",
"U.	c #AC7E31",
"V.	c #7D8085",
"W.	c #818284",
"X.	c #6D5D43",
"Y.	c #583802",
"Z.	c #573700",
"`.	c #563700",
" +	c #BE7C08",
".+	c #C78009",
"++	c #C47F08",
"@+	c #C37D07",
"#+	c #AB7E32",
"$+	c #6C5E44",
"%+	c #C37D08",
"&+	c #C27D08",
"*+	c #A67F3B",
"=+	c #6C5D44",
"-+	c #573802",
";+	c #CB8308",
">+	c #C17C09",
",+	c #A37E40",
"'+	c #7E8084",
")+	c #6D5D44",
"!+	c #563600",
"~+	c #CA8208",
"{+	c #C17C08",
"]+	c #C07C0A",
"^+	c #9E7E47",
"/+	c #6C5D43",
"(+	c #573702",
"_+	c #553600",
":+	c #C98108",
"<+	c #BF7C09",
"[+	c #9D7E49",
"}+	c #6E614B",
"|+	c #553500",
"1+	c #C17C07",
"2+	c #C07C06",
"3+	c #C07B07",
"4+	c #997E52",
"5+	c #7E8083",
"6+	c #7D7A76",
"7+	c #716551",
"8+	c #5E451A",
"9+	c #543200",
"0+	c #573600",
"a+	c #C88108",
"b+	c #C37B02",
"c+	c #C07B08",
"d+	c #A67D38",
"e+	c #887F71",
"f+	c #7F8081",
"g+	c #7E7C79",
"h+	c #716550",
"i+	c #5A3C09",
"j+	c #563500",
"k+	c #613E01",
"l+	c #C78008",
"m+	c #C27C05",
"n+	c #C07C07",
"o+	c #A57E3A",
"p+	c #878072",
"q+	c #82807D",
"r+	c #818183",
"s+	c #807F7E",
"t+	c #6C5C40",
"u+	c #5A3D08",
"v+	c #583902",
"w+	c #613D01",
"x+	c #C68008",
"y+	c #C27D07",
"z+	c #C07C08",
"A+	c #BE7C0D",
"B+	c #A67E38",
"C+	c #858077",
"D+	c #828386",
"E+	c #7E7C78",
"F+	c #6C5B3F",
"G+	c #5E4213",
"H+	c #603C00",
"I+	c #C78005",
"J+	c #B57D1D",
"K+	c #A27E41",
"L+	c #868075",
"M+	c #7C8087",
"N+	c #808181",
"O+	c #818283",
"P+	c #7A766F",
"Q+	c #736346",
"R+	c #9A8054",
"S+	c #878073",
"T+	c #80807F",
"                                                                ",
"                          . + @ # $ % &                         ",
"                    * = - ; > , ' ) ! ~ { ]                     ",
"              & ^ . / ( _ : < [ } | 1 2 3 4 5 ]                 ",
"            6 7 8 9 0 a b c d e f g h i j k l m n o             ",
"          p q r s t u v w x y z A B C D E F G H I J K           ",
"          L M N O P Q R S T U V W X Y Z `  ...+.@.#.$.%.        ",
"          &.*.=.-.;.>.,.'.).!.~.{.].^./.(._.:.<.[.}.|.          ",
"          &.1.2.3.4.5.6.7.8.9.0.a.b.c.d.e.f.g.h.i.j.k.          ",
"          &.1.2.l.3.].m.n.o.p.q.r.s.t.u.v.v.w.x.y.z.A.          ",
"          &.B.2.l.3.C.].g m.D.E.F.G.H.I.w.J.J.K.L.M.            ",
"          &.N.O.l.l.3.C.].].P.Q.R.S.w.J.J.J.K.T.L.U.V.          ",
"          W.X.Y.Z.l.3.C.].].P.`. +.+J.J.++K.T.T.@+#+V.          ",
"          W.$+Y.Z.l.l.3.C.].g `.T.i.J.++K.T.T.%+&+*+V.          ",
"          W.=+-+Z.Q.l.3.3.].].`.;+J.++K.T.%+&+&+>+,+'+          ",
"          W.)+-+Z.Z.l.l.3.C.].!+~+K.K.T.%+&+&+{+]+^+'+          ",
"          W./+(+`.Z.l.l.3.3.]._+:+K.T.%+&+&+{+{+<+[+'+          ",
"          W.}+!+|+Z.Z.l.l.3.].|+:+T.%+&+&+{+1+2+3+4+5+          ",
"          %.6+7+8+9+0+Q.l.3.3.].a+%+&+{+1+1+b+c+d+e+f+          ",
"                g+h+i+j+l.l.Q.k+l+&+1+1+m+n+o+p+q+              ",
"                  r+s+t+u+v+Z.w+x+y+z+A+B+C+'+                  ",
"                    %.D+E+F+G+H+I+J+K+L+M+f+                    ",
"                        N+O+P+Q+R+S+5+f+                        ",
"                            %.T+                                "};
