/* XPM */
static char * uv_unwrap_xpm[] = {
"32 24 244 2",
"  	c #808080",
". 	c #818181",
"+ 	c #7F7F7F",
"@ 	c #838383",
"# 	c #8C8C8B",
"$ 	c #979695",
"% 	c #A09E9D",
"& 	c #919190",
"* 	c #878686",
"= 	c #7E7E7E",
"- 	c #989796",
"; 	c #ADABAA",
"> 	c #B4B1B0",
", 	c #BBB8B5",
"' 	c #BBB8B6",
") 	c #B9B6B4",
"! 	c #AFACAA",
"~ 	c #A19F9F",
"{ 	c #8F8F8E",
"] 	c #80807F",
"^ 	c #949392",
"/ 	c #B3B0AF",
"( 	c #BBB8B7",
"_ 	c #B9B6B5",
": 	c #B9B5B5",
"< 	c #C9C7C5",
"[ 	c #E0DEDD",
"} 	c #C7C7C6",
"| 	c #7D7D81",
"1 	c #828283",
"2 	c #7C7C7C",
"3 	c #919191",
"4 	c #C6C4C3",
"5 	c #E9E9E7",
"6 	c #EFEEED",
"7 	c #EDECEB",
"8 	c #C9C9C7",
"9 	c #7F7E87",
"0 	c #8C8B91",
"a 	c #4645A2",
"b 	c #9896B0",
"c 	c #7C7D7A",
"d 	c #828282",
"e 	c #CECDCC",
"f 	c #F0EFEE",
"g 	c #ECEBEB",
"h 	c #ECEAEA",
"i 	c #D2D0D6",
"j 	c #6B69A4",
"k 	c #7E7D92",
"l 	c #8A8A85",
"m 	c #84847D",
"n 	c #82827F",
"o 	c #5B5B92",
"p 	c #5351B1",
"q 	c #8B89BA",
"r 	c #2A29BB",
"s 	c #8E8BB6",
"t 	c #7C7C79",
"u 	c #7B7B7B",
"v 	c #7D7D7D",
"w 	c #CDCCCC",
"x 	c #ECEBE9",
"y 	c #EAE9E8",
"z 	c #C9C6DA",
"A 	c #2E2CC6",
"B 	c #6E6CC3",
"C 	c #7C7AB8",
"D 	c #3B3CA4",
"E 	c #787885",
"F 	c #7C7C82",
"G 	c #86868D",
"H 	c #5453AF",
"I 	c #1111BC",
"J 	c #9C98B7",
"K 	c #78787A",
"L 	c #7B7B7A",
"M 	c #CFCECD",
"N 	c #EEEDEC",
"O 	c #EAE9E9",
"P 	c #E9E7E8",
"Q 	c #C7C3D7",
"R 	c #4B49C5",
"S 	c #625FC9",
"T 	c #B1ADB5",
"U 	c #73738F",
"V 	c #7F7F80",
"W 	c #7C7C7E",
"X 	c #9C9B98",
"Y 	c #A09DB8",
"Z 	c #5B5B8F",
"` 	c #7E7D7D",
" .	c #7D7D7C",
"..	c #D0D0D0",
"+.	c #EEECEB",
"@.	c #EAE8E7",
"#.	c #DDDCE4",
"$.	c #BBB8D2",
"%.	c #9C99B5",
"&.	c #6A6A8D",
"*.	c #7F7F7D",
"=.	c #84847E",
"-.	c #888881",
";.	c #88878D",
">.	c #4A4A9E",
",.	c #8482B3",
"'.	c #9D9ABE",
").	c #3534C1",
"!.	c #8E8CAF",
"~.	c #5F5F92",
"{.	c #7B7B87",
"].	c #CAC9CD",
"^.	c #B7B6E3",
"/.	c #C8C6D4",
"(.	c #514FC6",
"_.	c #5350C2",
":.	c #918EB3",
"<.	c #565699",
"[.	c #77778A",
"}.	c #82827E",
"|.	c #81817F",
"1.	c #818180",
"2.	c #797984",
"3.	c #44449C",
"4.	c #4747AC",
"5.	c #8987B8",
"6.	c #2422BF",
"7.	c #6A68BF",
"8.	c #6B69BF",
"9.	c #2928C0",
"0.	c #8C89C2",
"a.	c #2F2FC1",
"b.	c #7372B7",
"c.	c #A2A0C9",
"d.	c #4645C7",
"e.	c #A8A5C3",
"f.	c #4F4DC4",
"g.	c #5B59C5",
"h.	c #9592C7",
"i.	c #2524C8",
"j.	c #A5A2BC",
"k.	c #9694AA",
"l.	c #6C6C8C",
"m.	c #7C7C7D",
"n.	c #4C4B98",
"o.	c #8B88BF",
"p.	c #AEABBF",
"q.	c #5150BF",
"r.	c #9390C0",
"s.	c #5351C0",
"t.	c #B4B0C3",
"u.	c #4A48BD",
"v.	c #52529C",
"w.	c #626295",
"x.	c #3D3CBD",
"y.	c #A8A5C6",
"z.	c #6866C5",
"A.	c #5352C5",
"B.	c #9390C6",
"C.	c #2C2CC7",
"D.	c #7A78C7",
"E.	c #726FC8",
"F.	c #2F2FC6",
"G.	c #A29FB2",
"H.	c #94938D",
"I.	c #83837C",
"J.	c #838385",
"K.	c #4646AD",
"L.	c #0607BF",
"M.	c #908DC0",
"N.	c #2221C0",
"O.	c #1D1DB9",
"P.	c #85849D",
"Q.	c #868680",
"R.	c #85867F",
"S.	c #A3A19F",
"T.	c #3B3BC1",
"U.	c #2B2AC5",
"V.	c #8986C7",
"W.	c #201FC7",
"X.	c #5957C8",
"Y.	c #8582C8",
"Z.	c #2E2DC9",
"`.	c #9A97CA",
" +	c #605ECC",
".+	c #2828B6",
"++	c #78788F",
"@+	c #858483",
"#+	c #7E7D7E",
"$+	c #989797",
"%+	c #B6B3AE",
"&+	c #9C9A9B",
"*+	c #777682",
"=+	c #80807D",
"-+	c #7E7E7D",
";+	c #787883",
">+	c #7E7DA3",
",+	c #BCB9BB",
"'+	c #4341C9",
")+	c #5958C9",
"!+	c #A8A5C9",
"~+	c #3635C9",
"{+	c #8583C9",
"]+	c #9894CA",
"^+	c #3130CC",
"/+	c #A39ECE",
"(+	c #8886B6",
"_+	c #4F4F9A",
":+	c #70708A",
"<+	c #7F7F7E",
"[+	c #818081",
"}+	c #828289",
"|+	c #49499E",
"1+	c #5251BF",
"2+	c #BAB7CE",
"3+	c #504ECA",
"4+	c #7977CA",
"5+	c #BCB8CA",
"6+	c #4E4DCA",
"7+	c #928ECB",
"8+	c #9A97CF",
"9+	c #3434C8",
"0+	c #5E5E92",
"a+	c #828185",
"b+	c #8E8C9F",
"c+	c #2625C7",
"d+	c #0908CB",
"e+	c #8885CA",
"f+	c #1D1DCB",
"g+	c #1919CF",
"h+	c #9B98B6",
"i+	c #818087",
"j+	c #7E7E81",
"k+	c #81817E",
"l+	c #757583",
"m+	c #706FAB",
"n+	c #D4D1C8",
"o+	c #B3B0C6",
"p+	c #66669F",
"q+	c #7C7C7F",
"r+	c #81817C",
"s+	c #898889",
"t+	c #92918E",
"u+	c #82827D",
"                                                                ",
"                                                                ",
"                                                                ",
"                                                                ",
"                          .                                     ",
"                  + @ # $ % & * = +                             ",
"                . - ; > , ' ) ! ~ {                             ",
"                  ] ^ / ( _ : < [ } +                           ",
"              | 1 2 2 2 3 4 5 6 7 8 =                           ",
"          9 0 a b c 2 = d e f g h i j k l m                     ",
"      n o p q r s t u v d w 6 x y z A B C D E                   ",
"        F G H I J K L 2 d M N O P Q R S T U V                   ",
"          ] W X Y Z `  .d ..+.@.#.$.%.&.*.]                     ",
"      =.-.;.>.,.'.).!.~.{.].^./.(._.:.<.[.}.|.                  ",
"  1.2.3.4.5.6.7.8.9.0.a.b.c.d.e.f.g.h.i.j.k.l.m.+               ",
"    n n.o.p.q.p.r.s.t.u.v.w.x.y.z.A.B.C.D.E.F.G.H.I.1.          ",
"      n J.K.L.M.N.O.P.Q.n |.R.S.T.U.V.W.X.Y.Z.`. +.+++@+        ",
"        ] #+$+%+&+*+=+        -+;+>+,+'+)+!+~+{+]+^+/+(+_+:+    ",
"            <+[+<+1.            |.}.}+|+1+2+3+4+5+6+7+8+9+0+n   ",
"                                      V a+b+c+d+e+f+g+h+i+j+    ",
"                                          k+l+m+n+o+p+q+        ",
"                                            1.r+s+t+u+          ",
"                                                + +             ",
"                                                                "};
