/* XPM */
static char * view_right_xpm[] = {
"25 25 619 2",
"  	c None",
". 	c #99A0FA",
"+ 	c #96A3F1",
"@ 	c #93A8E1",
"# 	c #8DADD6",
"$ 	c #8BAFD3",
"% 	c #88B0D4",
"& 	c #86AEDF",
"* 	c #88ADE1",
"= 	c #8BADDD",
"- 	c #8BABD4",
"; 	c #91B0CC",
"> 	c #90AECA",
", 	c #85A3C9",
"' 	c #87A4DE",
") 	c #92ACFF",
"! 	c #8DB1FF",
"~ 	c #78B0E3",
"{ 	c #94B8D8",
"] 	c #B095B6",
"^ 	c #B05672",
"/ 	c #CD2B43",
"( 	c #F92939",
"_ 	c #FF2933",
": 	c #FF201F",
"< 	c #FF271E",
"[ 	c #99A1F4",
"} 	c #96A4EB",
"| 	c #92A9DD",
"1 	c #8FACD4",
"2 	c #8BAED4",
"3 	c #88AFD8",
"4 	c #89AEE2",
"5 	c #8BAEE4",
"6 	c #89A7DB",
"7 	c #9DB8E3",
"8 	c #95B0CD",
"9 	c #8DA7C0",
"0 	c #9FB7D9",
"a 	c #9CB3E5",
"b 	c #88A0EA",
"c 	c #84A4EF",
"d 	c #80B4E4",
"e 	c #8CB0D2",
"f 	c #AD9EBF",
"g 	c #C8819F",
"h 	c #D5536D",
"i 	c #DC2D3E",
"j 	c #F2252C",
"k 	c #FF302E",
"l 	c #FF2B20",
"m 	c #98A5E9",
"n 	c #96A6E2",
"o 	c #92AAD8",
"p 	c #8EACD2",
"q 	c #8BAED6",
"r 	c #8AAFDC",
"s 	c #8EAEE9",
"t 	c #91ADEC",
"u 	c #95ABE5",
"v 	c #94A9D6",
"w 	c #8C9DB9",
"x 	c #94A5B9",
"y 	c #A5B6CA",
"z 	c #95A6C4",
"A 	c #8698CA",
"B 	c #95AEE4",
"C 	c #89B4DF",
"D 	c #88ABD1",
"E 	c #9FA7CC",
"F 	c #BFA4C5",
"G 	c #CA84A0",
"H 	c #BF5265",
"I 	c #C8373E",
"J 	c #E1362F",
"K 	c #F13220",
"L 	c #99A9DD",
"M 	c #95AAD9",
"N 	c #91AAD2",
"O 	c #8EACD0",
"P 	c #8CADD6",
"Q 	c #8EAEE1",
"R 	c #91ADEE",
"S 	c #97ACEF",
"T 	c #919FDC",
"U 	c #A0ABD9",
"V 	c #9EA5BF",
"W 	c #868E99",
"X 	c #6F767C",
"Y 	c #677079",
"Z 	c #81899E",
"` 	c #A7B6D5",
" .	c #92AED3",
"..	c #92AFD7",
"+.	c #96A9D1",
"@.	c #A2A2C8",
"#.	c #B69BBE",
"$.	c #C488A2",
"%.	c #C15C6C",
"&.	c #BC3134",
"*.	c #E3352A",
"=.	c #97ABD0",
"-.	c #93ABCF",
";.	c #90ADCD",
">.	c #8EACCE",
",.	c #90ABE0",
"'.	c #95AAED",
").	c #9BA8EC",
"!.	c #959AD4",
"~.	c #B4B3DD",
"{.	c #AEABBC",
"].	c #6F6B6A",
"^.	c #3C382C",
"/.	c #4D4A3B",
"(.	c #7D7A71",
"_.	c #929397",
":.	c #9CA8C2",
"<.	c #9EB0D6",
"[.	c #99ACD7",
"}.	c #94A1CE",
"|.	c #A5A3D2",
"1.	c #C4A5D1",
"2.	c #CB81A6",
"3.	c #C54D68",
"4.	c #DE3643",
"5.	c #94ABCB",
"6.	c #93ACCB",
"7.	c #90ADCB",
"8.	c #8FADCF",
"9.	c #90ABD6",
"0.	c #92A9DB",
"a.	c #96A6E1",
"b.	c #9CA2DC",
"c.	c #A09CCE",
"d.	c #B3A8C8",
"e.	c #7A6B72",
"f.	c #59493C",
"g.	c #7B6C4F",
"h.	c #6E5E3C",
"i.	c #5F502F",
"j.	c #968978",
"k.	c #A09AA6",
"l.	c #A2A3C2",
"m.	c #A0ACD2",
"n.	c #9EACD9",
"o.	c #A0AADF",
"p.	c #ACA5D9",
"q.	c #BF97C9",
"r.	c #D589B0",
"s.	c #B8415D",
"t.	c #91A9CB",
"u.	c #91ABCC",
"v.	c #91AED0",
"w.	c #91ADD2",
"x.	c #92ABD3",
"y.	c #92A7D2",
"z.	c #97A2CF",
"A.	c #9D9FC6",
"B.	c #B4AAC5",
"C.	c #5B4752",
"D.	c #886D64",
"E.	c #B6987C",
"F.	c #71542C",
"G.	c #806132",
"H.	c #BD9E6F",
"I.	c #967957",
"J.	c #99807C",
"K.	c #9C8B9D",
"L.	c #A29EB9",
"M.	c #A5AAD0",
"N.	c #9DA9D9",
"O.	c #98A4D8",
"P.	c #A2A5D8",
"Q.	c #B4ADD9",
"R.	c #B69EC2",
"S.	c #90A9D1",
"T.	c #91ADD5",
"U.	c #94ADD5",
"V.	c #94ACD2",
"W.	c #96A6C7",
"X.	c #9AA1BB",
"Y.	c #9F9DAB",
"Z.	c #574748",
"`.	c #A78D80",
" +	c #D5B296",
".+	c #B68C64",
"++	c #875D2B",
"@+	c #895E27",
"#+	c #B58A53",
"$+	c #DAB588",
"%+	c #876C57",
"&+	c #8D7E7B",
"*+	c #979299",
"=+	c #989DB1",
"-+	c #96A5C6",
";+	c #94ABD5",
">+	c #90ACDB",
",+	c #8AA9D8",
"'+	c #91ACD9",
")+	c #97B1E4",
"!+	c #95AFE2",
"~+	c #8EA5D7",
"{+	c #8BA2CC",
"]+	c #98ACCD",
"^+	c #99A8BB",
"/+	c #767B7E",
"(+	c #4D4739",
"_+	c #B39F84",
":+	c #DDBD96",
"<+	c #D8AE7E",
"[+	c #AC7A47",
"}+	c #8E5923",
"|+	c #8F5820",
"1+	c #B27B43",
"2+	c #D9B17E",
"3+	c #CFC39B",
"4+	c #999E80",
"5+	c #6A735E",
"6+	c #697871",
"7+	c #99ADB4",
"8+	c #A2BCD3",
"9+	c #86A6CC",
"0+	c #88ACDC",
"a+	c #8AADE7",
"b+	c #90A8E4",
"c+	c #839CD5",
"d+	c #93A9E2",
"e+	c #A8BDEC",
"f+	c #889BB9",
"g+	c #59666E",
"h+	c #6F7261",
"i+	c #B0A883",
"j+	c #CAB580",
"k+	c #E0BC7E",
"l+	c #CE9E60",
"m+	c #A56D30",
"n+	c #91541D",
"o+	c #91521C",
"p+	c #A86933",
"q+	c #C0915D",
"r+	c #C3B682",
"s+	c #C3C999",
"t+	c #B0B891",
"u+	c #728066",
"v+	c #607468",
"w+	c #85A1A5",
"x+	c #97B9D2",
"y+	c #8BB0DA",
"z+	c #87AEE7",
"A+	c #92A7EA",
"B+	c #8DA2E3",
"C+	c #97ABE8",
"D+	c #9DB2E1",
"E+	c #8696B0",
"F+	c #727C7B",
"G+	c #989977",
"H+	c #D9CF94",
"I+	c #DBC379",
"J+	c #D7B061",
"K+	c #B8843B",
"L+	c #995C1B",
"M+	c #935019",
"N+	c #97511E",
"O+	c #9F5926",
"P+	c #A66C3A",
"Q+	c #D3B47E",
"R+	c #D1C18D",
"S+	c #D1C99A",
"T+	c #ADAF88",
"U+	c #818E74",
"V+	c #859D90",
"W+	c #98B6C0",
"X+	c #89ACC8",
"Y+	c #8CAEDE",
"Z+	c #96ABEC",
"`+	c #99ACEE",
" @	c #92A6E3",
".@	c #8A9CCC",
"+@	c #97A6BD",
"@@	c #B3BDB5",
"#@	c #C5C498",
"$@	c #C7BA74",
"%@	c #DAC069",
"&@	c #C29A42",
"*@	c #A1691C",
"=@	c #935210",
"-@	c #9A531D",
";@	c #9F5524",
">@	c #9D5523",
",@	c #995A27",
"'@	c #C99A62",
")@	c #C8A771",
"!@	c #CCB583",
"~@	c #D4C89E",
"{@	c #BEC1A4",
"]@	c #9BA99C",
"^@	c #92A9AF",
"/@	c #8EACC4",
"(@	c #8EAED7",
"_@	c #93A7E2",
":@	c #90A4DF",
"<@	c #8EA1DC",
"[@	c #96A7D5",
"}@	c #A5B1C9",
"|@	c #B4BBB3",
"1@	c #C1BF8F",
"2@	c #CABC73",
"3@	c #D1B65B",
"4@	c #AE8529",
"5@	c #945B0E",
"6@	c #965213",
"7@	c #9F5623",
"8@	c #A25829",
"9@	c #9E5723",
"0@	c #98551E",
"a@	c #9E6226",
"b@	c #E4B178",
"c@	c #DFB487",
"d@	c #C7AA88",
"e@	c #C3B3A3",
"f@	c #A8A7A5",
"g@	c #9CA8B6",
"h@	c #9EB3CE",
"i@	c #91ADD4",
"j@	c #90A6D7",
"k@	c #93A7DA",
"l@	c #97A8DE",
"m@	c #9BA9D6",
"n@	c #A0AAC3",
"o@	c #ACB1AA",
"p@	c #BFBB8C",
"q@	c #D0C279",
"r@	c #D2B45C",
"s@	c #A87C23",
"t@	c #91570E",
"u@	c #9B571A",
"v@	c #A15726",
"w@	c #9F5526",
"x@	c #9E5721",
"y@	c #975719",
"z@	c #87520C",
"A@	c #ECBF7E",
"B@	c #E3B989",
"C@	c #C5A388",
"D@	c #CBB3AF",
"E@	c #B0A4B2",
"F@	c #9FA0BE",
"G@	c #9EACD1",
"H@	c #93ACD5",
"I@	c #93A9D0",
"J@	c #9CB2DB",
"K@	c #9CAEDE",
"L@	c #93A2CD",
"M@	c #9CA6BF",
"N@	c #B6BBB7",
"O@	c #C8C399",
"P@	c #CDBC77",
"Q@	c #DABA67",
"R@	c #A77826",
"S@	c #905511",
"T@	c #9D581F",
"U@	c #9E5624",
"V@	c #9C5221",
"W@	c #9E581D",
"X@	c #925C14",
"Y@	c #846912",
"Z@	c #CEBD6D",
"`@	c #CFB884",
" #	c #D4B9A4",
".#	c #DBC1CC",
"+#	c #B29EC1",
"@#	c #A39BCC",
"##	c #99A0D6",
"$#	c #93AADC",
"%#	c #8FACD6",
"&#	c #93A9D8",
"*#	c #99ABD1",
"=#	c #A1AEC1",
"-#	c #AEB3AD",
";#	c #C0BB95",
">#	c #D3C183",
",#	c #DFBF74",
"'#	c #A6782B",
")#	c #8D5313",
"!#	c #9A581E",
"~#	c #9C5422",
"{#	c #99511F",
"]#	c #9F5820",
"^#	c #946017",
"/#	c #7F6A0D",
"(#	c #C3BC62",
"_#	c #D0C186",
":#	c #D2BEA3",
"<#	c #C1ACB3",
"[#	c #A594B6",
"}#	c #B1AADD",
"|#	c #9EA4DE",
"1#	c #88B2EE",
"2#	c #8AB1E8",
"3#	c #8DAFDC",
"4#	c #90ABC9",
"5#	c #9BADB7",
"6#	c #AEB6A9",
"7#	c #C0BC97",
"8#	c #CBBC83",
"9#	c #D6B977",
"0#	c #A07530",
"a#	c #925D1B",
"b#	c #96581B",
"c#	c #995621",
"d#	c #A35B29",
"e#	c #9D5324",
"f#	c #915519",
"g#	c #886A12",
"h#	c #C6B95B",
"i#	c #CDBF78",
"j#	c #D0C597",
"k#	c #CDC6B6",
"l#	c #AAA9B1",
"m#	c #A1A7C7",
"n#	c #99A7D6",
"o#	c #91AAE2",
"p#	c #7EA7E7",
"q#	c #83AAE1",
"r#	c #89AAD5",
"s#	c #90AAC1",
"t#	c #A0AFB2",
"u#	c #B6BAA9",
"v#	c #CBC39F",
"w#	c #D7C390",
"x#	c #DAB87B",
"y#	c #A07330",
"z#	c #925B1A",
"A#	c #96591A",
"B#	c #98531A",
"C#	c #A05625",
"D#	c #A15227",
"E#	c #9D5B27",
"F#	c #8E6919",
"G#	c #D2BC67",
"H#	c #D4C37E",
"I#	c #C9BC8F",
"J#	c #BAB59F",
"K#	c #9A9B9F",
"L#	c #9CA3BD",
"M#	c #92A6E1",
"N#	c #92B0E6",
"O#	c #96B1E0",
"P#	c #99ADD0",
"Q#	c #9DAABD",
"R#	c #A7ABAC",
"S#	c #B9B2A2",
"T#	c #CAB695",
"U#	c #D5B586",
"V#	c #E2B87E",
"W#	c #A77133",
"X#	c #9A5A1D",
"Y#	c #A15B1F",
"Z#	c #9E511B",
"`#	c #A04E1C",
" $	c #9F4B1D",
".$	c #9F5725",
"+$	c #845618",
"@$	c #CEB072",
"#$	c #D6BC8B",
"$$	c #CFBA9B",
"%$	c #C8B9B2",
"&$	c #AEA6B3",
"*$	c #AEADCF",
"=$	c #A5ABDD",
"-$	c #9EA8E6",
";$	c #8EA8CD",
">$	c #92A9C9",
",$	c #97A9BF",
"'$	c #9DA7B0",
")$	c #ABACA6",
"!$	c #BDB5A0",
"~$	c #CEBA97",
"{$	c #D9BA8B",
"]$	c #DEB57D",
"^$	c #A06C30",
"/$	c #95591B",
"($	c #A05E21",
"_$	c #A0581E",
":$	c #9E531C",
"<$	c #9B4E1A",
"[$	c #9C5925",
"}$	c #8F662E",
"|$	c #D2B684",
"1$	c #D1BA91",
"2$	c #C8B79D",
"3$	c #C7BDB4",
"4$	c #AFACB5",
"5$	c #A8A9C5",
"6$	c #949CC3",
"7$	c #97A5D6",
"8$	c #90B2BE",
"9$	c #95B3BB",
"0$	c #98B2B3",
"a$	c #9BAFA6",
"b$	c #A5B19D",
"c$	c #B7B899",
"d$	c #C4BB92",
"e$	c #CCBB87",
"f$	c #D6B97F",
"g$	c #937030",
"h$	c #845915",
"i$	c #8F5E1B",
"j$	c #985E1E",
"k$	c #975B1C",
"l$	c #966628",
"m$	c #856B32",
"n$	c #C4B884",
"o$	c #C1B88D",
"p$	c #B8B594",
"q$	c #B7BAA7",
"r$	c #A2ADA5",
"s$	c #A2B3BA",
"t$	c #98AFBF",
"u$	c #97B1C8",
"v$	c #83B8A8",
"w$	c #86B9A6",
"x$	c #8BB8A1",
"y$	c #8EB799",
"z$	c #99B994",
"A$	c #A9C092",
"B$	c #B5C38E",
"C$	c #BDC387",
"D$	c #CAC988",
"E$	c #8C843C",
"F$	c #79691E",
"G$	c #776417",
"H$	c #755E10",
"I$	c #7E6515",
"J$	c #7F6415",
"K$	c #7D6B1F",
"L$	c #6A6B25",
"M$	c #B1C07D",
"N$	c #BCCE92",
"O$	c #BAD19B",
"P$	c #B0CDA1",
"Q$	c #8EB28E",
"R$	c #8DB89C",
"S$	c #8CBBA7",
"T$	c #86B9AA",
"U$	c #469A69",
"V$	c #4C9E6D",
"W$	c #55A36F",
"X$	c #5FA871",
"Y$	c #70B177",
"Z$	c #84BF7F",
"`$	c #95C883",
" %	c #9EC981",
".%	c #9BC072",
"+%	c #718E3A",
"@%	c #69832A",
"#%	c #667B20",
"$%	c #5C7011",
"%%	c #657714",
"&%	c #657513",
"*%	c #5E7614",
"=%	c #608929",
"-%	c #97CD6F",
";%	c #96CE73",
">%	c #94D07A",
",%	c #86CA77",
"'%	c #59A253",
")%	c #4E9C51",
"!%	c #499C56",
"~%	c #4DA460",
"{%	c #2D9C4F",
"]%	c #309C50",
"^%	c #329A4D",
"/%	c #309547",
"(%	c #369446",
"_%	c #409748",
":%	c #469844",
"<%	c #4B9540",
"[%	c #599E45",
"}%	c #448426",
"|%	c #54902E",
"1%	c #5A932C",
"2%	c #528A1D",
"3%	c #5C9222",
"4%	c #5B901E",
"5%	c #528C1B",
"6%	c #3D8613",
"7%	c #57A736",
"8%	c #398D1D",
"9%	c #3A9423",
"0%	c #46A638",
"a%	c #329528",
"b%	c #329C30",
"c%	c #34A136",
"d%	c #2D9E34",
"e%	c #21A23E",
"f%	c #24A03E",
"g%	c #269F3E",
"h%	c #2A9D3E",
"i%	c #2D9C3D",
"j%	c #319A3B",
"k%	c #359939",
"l%	c #399834",
"m%	c #3C9730",
"n%	c #3F962B",
"o%	c #409726",
"p%	c #429720",
"q%	c #43971D",
"r%	c #459719",
"s%	c #429819",
"t%	c #3D9C1E",
"u%	c #399E1E",
"v%	c #369F1F",
"w%	c #33A01F",
"x%	c #2FA21F",
"y%	c #2CA41F",
"z%	c #29A521",
"A%	c #27A621",
"B%	c #24A821",
". + @ # $ % & * = - ; > , ' ) ! ~ { ] ^ / ( _ : < ",
"[ } | 1 2 3 4 5 6 7 8 9 0 a b c d e f g h i j k l ",
"m n o p q r s t u v w x y z A B C D E F G H I J K ",
"L M N O P Q R S T U V W X Y Z `  ...+.@.#.$.%.&.*.",
"=.-.;.>.# ,.'.).!.~.{.].^./.(._.:.<.[.}.|.1.2.3.4.",
"5.6.7.8.9.0.a.b.c.d.e.f.g.h.i.j.k.l.m.n.o.p.q.r.s.",
"t.u.v.w.x.y.z.A.B.C.D.E.F.G.H.I.J.K.L.M.N.O.P.Q.R.",
"S.N T.U.V.W.X.Y.Z.`. +.+++@+#+$+%+&+*+=+-+;+>+,+'+",
")+!+~+{+]+^+/+(+_+:+<+[+}+|+1+2+3+4+5+6+7+8+9+0+a+",
"b+c+d+e+f+g+h+i+j+k+l+m+n+o+p+q+r+s+t+u+v+w+x+y+z+",
"A+B+C+D+E+F+G+H+I+J+K+L+M+N+O+P+Q+R+S+T+U+V+W+X+Y+",
"Z+`+ @.@+@@@#@$@%@&@*@=@-@;@>@,@'@)@!@~@{@]@^@/@(@",
"_@:@<@[@}@|@1@2@3@4@5@6@7@8@9@0@a@b@c@d@e@f@g@h@i@",
"j@k@l@m@n@o@p@q@r@s@t@u@v@w@x@y@z@A@B@C@D@E@F@G@H@",
"I@J@K@L@M@N@O@P@Q@R@S@T@U@V@W@X@Y@Z@`@ #.#+#@###$#",
"%#9.&#*#=#-#;#>#,#'#)#!#~#{#]#^#/#(#_#:#<#[#}#|#d+",
"1#2#3#4#5#6#7#8#9#0#a#b#c#d#e#f#g#h#i#j#k#l#m#n#o#",
"p#q#r#s#t#u#v#w#x#y#z#A#B#C#D#E#F#G#H#I#J#K#L#m@M#",
"N#O#P#Q#R#S#T#U#V#W#X#Y#Z#`# $.$+$@$#$$$%$&$*$=$-$",
";$>$,$'$)$!$~${$]$^$/$($_$:$<$[$}$|$1$2$3$4$5$6$7$",
"8$9$0$a$b$c$d$e$f$g$h$i$a#j$k$l$m$n$o$p$q$r$s$t$u$",
"v$w$x$y$z$A$B$C$D$E$F$G$H$I$J$K$L$M$N$O$P$Q$R$S$T$",
"U$V$W$X$Y$Z$`$ %.%+%@%#%$%%%&%*%=%-%;%>%,%'%)%!%~%",
"{%]%^%/%(%_%:%<%[%}%|%1%2%3%4%5%6%7%8%9%0%a%b%c%d%",
"e%e%f%g%h%i%j%k%l%m%n%o%p%q%r%s%t%u%v%w%x%y%z%A%B%"};
