/* XPM */
static char * view_move_xpm[] = {
"25 25 234 2",
"  	c None",
". 	c #969696",
"+ 	c #76948A",
"@ 	c #549981",
"# 	c #2EB586",
"$ 	c #489C7F",
"% 	c #30BE8C",
"& 	c #49A585",
"* 	c #2CAF81",
"= 	c #3DA480",
"- 	c #2DA47A",
"; 	c #4D5351",
"> 	c #383B3A",
", 	c #393C3B",
"' 	c #474B4A",
") 	c #4D5452",
"! 	c #4E5553",
"~ 	c #606765",
"{ 	c #99A19E",
"] 	c #32A47C",
"^ 	c #37A37D",
"/ 	c #78807D",
"( 	c #171918",
"_ 	c #191B1A",
": 	c #1B1D1C",
"< 	c #1D1E1E",
"[ 	c #1E201F",
"} 	c #3E403F",
"| 	c #E3E3E3",
"1 	c #B5B7B6",
"2 	c #2CAA7E",
"3 	c #44A482",
"4 	c #B2BCB8",
"5 	c #202120",
"6 	c #1A1C1B",
"7 	c #1D1F1E",
"8 	c #1F2120",
"9 	c #202221",
"0 	c #222423",
"a 	c #464646",
"b 	c #575959",
"c 	c #2EB888",
"d 	c #50A588",
"e 	c #4A4F4D",
"f 	c #575757",
"g 	c #909090",
"h 	c #2D2D2D",
"i 	c #202020",
"j 	c #212322",
"k 	c #232524",
"l 	c #242625",
"m 	c #272928",
"n 	c #232A28",
"o 	c #31C28F",
"p 	c #5DA68D",
"q 	c #BAB9BA",
"r 	c #FDFDFD",
"s 	c #E9E9E9",
"t 	c #949293",
"u 	c #404040",
"v 	c #252726",
"w 	c #2A2C2B",
"x 	c #253630",
"y 	c #31C591",
"z 	c #306B56",
"A 	c #8D9592",
"B 	c #9DA2A0",
"C 	c #A9AFAD",
"D 	c #A4ACA9",
"E 	c #8D9391",
"F 	c #9F9D9E",
"G 	c #5A5859",
"H 	c #292A29",
"I 	c #2C2E2D",
"J 	c #274239",
"K 	c #32C591",
"L 	c #2C5949",
"M 	c #373838",
"N 	c #5E6261",
"O 	c #999E9C",
"P 	c #A6A4A5",
"Q 	c #7B7879",
"R 	c #2E3130",
"S 	c #2F2C42",
"T 	c #3C2A7F",
"U 	c #504D5D",
"V 	c #932F47",
"W 	c #3E3A3D",
"X 	c #404143",
"Y 	c #444748",
"Z 	c #949E9C",
"` 	c #9BA2A0",
" .	c #7A7290",
"..	c #483595",
"+.	c #4E32C1",
"@.	c #472EAF",
"#.	c #6C2B58",
"$.	c #F73864",
"%.	c #D5345A",
"&.	c #5A3841",
"*.	c #444547",
"=.	c #414243",
"-.	c #686E6D",
";.	c #7C7B9E",
">.	c #4A37A0",
",.	c #4E32C3",
"'.	c #472FAB",
").	c #71659F",
"!.	c #47474C",
"~.	c #3B3D3C",
"{.	c #58353E",
"].	c #D6345A",
"^.	c #F63864",
"/.	c #8D3449",
"(.	c #454346",
"_.	c #464749",
":.	c #494B4B",
"<.	c #9EA6A4",
"[.	c #969EA1",
"}.	c #75729D",
"|.	c #4934A5",
"1.	c #4933A8",
"2.	c #716C9C",
"3.	c #9DA6A5",
"4.	c #BAB7B8",
"5.	c #5E5F5F",
"6.	c #433D3F",
"7.	c #9C334C",
"8.	c #FB3966",
"9.	c #C73456",
"0.	c #553D44",
"a.	c #464748",
"b.	c #404142",
"c.	c #717876",
"d.	c #8F9794",
"e.	c #6A6F6E",
"f.	c #A2AAB0",
"g.	c #4830AF",
"h.	c #4935A2",
"i.	c #78769D",
"j.	c #A2A7A6",
"k.	c #9FA0A0",
"l.	c #E9E7E8",
"m.	c #787978",
"n.	c #414343",
"o.	c #673643",
"p.	c #E0355D",
"q.	c #EF3661",
"r.	c #7D3547",
"s.	c #404242",
"t.	c #494C4B",
"u.	c #575A5A",
"v.	c #373939",
"w.	c #9297A7",
"x.	c #5A4E9A",
"y.	c #5C5785",
"z.	c #A0A2A1",
"A.	c #EFEFEF",
"B.	c #949594",
"C.	c #424443",
"D.	c #414244",
"E.	c #473D41",
"F.	c #AD324F",
"G.	c #FE3967",
"H.	c #C93154",
"I.	c #42383C",
"J.	c #3B3C3E",
"K.	c #3A3B3D",
"L.	c #393B3A",
"M.	c #353837",
"N.	c #9FA4A2",
"O.	c #E9EAE9",
"P.	c #B2B2B2",
"Q.	c #464647",
"R.	c #414242",
"S.	c #3F4140",
"T.	c #7E3042",
"U.	c #DB3259",
"V.	c #6B303E",
"W.	c #393B3B",
"X.	c #373938",
"Y.	c #2F3130",
"Z.	c #A3A7A6",
"`.	c #A5AAA8",
" +	c #DFE0DF",
".+	c #4F5050",
"++	c #3D3E3D",
"@+	c #3A3B3B",
"#+	c #3A3C3B",
"$+	c #343635",
"%+	c #9DA6A3",
"&+	c #A8B0AD",
"*+	c #7C7C7C",
"=+	c #3F3F3F",
"-+	c #3E3E3E",
";+	c #383A39",
">+	c #363837",
",+	c #363737",
"'+	c #89918E",
")+	c #777D7B",
"!+	c #3D3E3E",
"~+	c #3C3D3D",
"{+	c #393A3A",
"]+	c #363736",
"^+	c #767D7A",
"/+	c #929A97",
"(+	c #A7A7A7",
"_+	c #B7B7B7",
":+	c #ADADAD",
"<+	c #A2A2A2",
"[+	c #979797",
"}+	c #8C8C8C",
"|+	c #818181",
"1+	c #767676",
"2+	c #6C6C6C",
"3+	c #606060",
"4+	c #545555",
"5+	c #5D6462",
"6+	c #A2AAA7",
"7+	c #FAF9F9",
"8+	c #FAFAFA",
"9+	c #A4ABA9",
"0+	c #A4ADAA",
"a+	c #A2ACA9",
"b+	c #A7B0AD",
"c+	c #A7AFAC",
"d+	c #ACB3B1",
"e+	c #ADB3B1",
"f+	c #AEB3B1",
"g+	c #AEB2B1",
"h+	c #B4B8B7",
"i+	c #B4B6B6",
"j+	c #B8BABA",
"k+	c #A5AFAC",
". . . . . . . . . . . + . . . . . . . . . . . . . ",
". . . . . . . . . . @ # . . . . . . . . . . . . . ",
". . . . . . . . . . $ % . . . . . . . . . . . . . ",
". . . . . . . . . . & * . . . . . . . . . . . . . ",
". . . . . . . . . . = - . . . . . . . . . . . . . ",
". . ; > , ' ) ! ~ { ] ^ . . . . . . . . . . . . . ",
". / ( _ : < [ } | 1 2 3 . . . . . . . . . . . . . ",
"4 5 6 : 7 8 9 0 a b c d . . . . . . . . . . . . . ",
"e f g h i j k l m n o p . . . . . . . . . . . . . ",
"q r s t u k v m w x y z A . . . . . . . . . . . . ",
"B C D E F G H w I J K L M N . . . . . . . . . . . ",
". . . . O P Q R S T U V W X Y Z . . . . . . . . . ",
". . . . . `  ...+.@.#.$.%.&.*.=.-.. . . . . . . . ",
". . . . ;.>.,.'.).!.~.{.].^./.(._.:.<.. . . . . . ",
". [.}.|.,.1.2.3.P 4.5.} 6.7.8.9.0.a.b.c.. . d.e.. ",
"f.g.,.h.i.j.. . . k.l.m.b.n.o.p.q.r.X s.t.u.v.t.. ",
"w.x.y.. . . . . . . z.A.B.C.D.E.F.G.H.I.J.K.L.M.. ",
". . . . . . . . . . . N.O.P.Q.R.S.T.U.V.~.W.X.Y.Z.",
". . . . . . . . . . . . `. +. .+S.++@+#+~.L.X.$+%+",
". . . . . . . . . . . . . &+. *+=+=+-+~.#+;+>+,+'+",
". . . . . . . . . . . . . )+!+=+=+=+-+~+@+{+M ]+^+",
". . . . . . . . . . . . /+(+_+:+<+[+}+|+1+2+3+4+5+",
". . . . . . . . . . . . 6+7+8+r r r r r r r r r 9+",
". . . . . . . . . . . . . 0+a+b+c+d+e+f+g+h+i+j+k+",
". . . . . . . . . . . . . . . . . . . . . . . . . "};
