/* XPM */
static char * view_top_xpm[] = {
"25 25 581 2",
"  	c None",
". 	c #26A41D",
"+ 	c #2AA21D",
"@ 	c #309D1C",
"# 	c #339C1C",
"$ 	c #329D1C",
"% 	c #2CA11D",
"& 	c #21A81E",
"* 	c #1AAB1E",
"= 	c #19AA1F",
"- 	c #1CA91F",
"; 	c #25A421",
"> 	c #29A221",
", 	c #2CA023",
"' 	c #27A223",
") 	c #20A525",
"! 	c #1CA823",
"~ 	c #20AE26",
"{ 	c #399F22",
"] 	c #6A8222",
"^ 	c #9D641F",
"/ 	c #D04621",
"( 	c #F1321F",
"_ 	c #FF271F",
": 	c #FF231F",
"< 	c #FF2522",
"[ 	c #25A721",
"} 	c #29A521",
"| 	c #32A121",
"1 	c #359D20",
"2 	c #359F21",
"3 	c #2FA221",
"4 	c #25A922",
"5 	c #1FAC22",
"6 	c #1EAB21",
"7 	c #21A923",
"8 	c #29A523",
"9 	c #2FA223",
"0 	c #2FA125",
"a 	c #2CA325",
"b 	c #25A627",
"c 	c #20A925",
"d 	c #21AB24",
"e 	c #33A021",
"f 	c #5B8A22",
"g 	c #847220",
"h 	c #B25720",
"i 	c #D34320",
"j 	c #ED3420",
"k 	c #FB2B1F",
"l 	c #FF2A23",
"m 	c #1FAB24",
"n 	c #24A723",
"o 	c #2EA223",
"p 	c #33A023",
"q 	c #359F23",
"r 	c #31A123",
"s 	c #28A523",
"t 	c #28A525",
"u 	c #31A125",
"v 	c #359F25",
"w 	c #359E27",
"x 	c #31A027",
"y 	c #29A427",
"z 	c #25A625",
"A 	c #23A622",
"B 	c #2AA320",
"C 	c #3B991F",
"D 	c #548C21",
"E 	c #747821",
"F 	c #96641F",
"G 	c #BE4E20",
"H 	c #DC3D1F",
"I 	c #F53121",
"J 	c #1CA926",
"K 	c #23A624",
"L 	c #309F26",
"M 	c #389B24",
"N 	c #3C9926",
"O 	c #3B9A24",
"P 	c #349E24",
"Q 	c #309E23",
"R 	c #349C23",
"S 	c #3D9823",
"T 	c #419523",
"U 	c #419525",
"V 	c #3D9725",
"W 	c #349B25",
"X 	c #2F9F21",
"Y 	c #2EA120",
"Z 	c #389C20",
"` 	c #4D8F21",
" .	c #6D7C21",
"..	c #99621F",
"+.	c #C14C20",
"@.	c #E4391F",
"#.	c #1FA626",
"$.	c #27A426",
"%.	c #389C28",
"&.	c #459728",
"*.	c #4D942A",
"=.	c #509329",
"-.	c #4B9428",
";.	c #499528",
">.	c #4E9328",
",.	c #568F26",
"'.	c #598E26",
").	c #559026",
"!.	c #4C9426",
"~.	c #479724",
"{.	c #479822",
"].	c #409B22",
"^.	c #3B9B20",
"/.	c #558A20",
"(.	c #7F731F",
"_.	c #AC5C21",
":.	c #D4421D",
"<.	c #28A527",
"[.	c #34A229",
"}.	c #489A2B",
"|.	c #58952D",
"1.	c #668F2F",
"2.	c #6B8D2E",
"3.	c #6A8E2E",
"4.	c #688D2D",
"5.	c #6E8C2C",
"6.	c #75882C",
"7.	c #78872A",
"8.	c #77882A",
"9.	c #728A2A",
"0.	c #6A8F28",
"a.	c #669128",
"b.	c #658E26",
"c.	c #5D9125",
"d.	c #4A9723",
"e.	c #3C9A20",
"f.	c #48921F",
"g.	c #648421",
"h.	c #837421",
"i.	c #A35D1F",
"j.	c #419C27",
"k.	c #59942A",
"l.	c #6E8E2D",
"m.	c #7F8731",
"n.	c #898430",
"o.	c #8A8430",
"p.	c #89832F",
"q.	c #8A822F",
"r.	c #8D812F",
"s.	c #947D2D",
"t.	c #977C2B",
"u.	c #967D29",
"v.	c #908029",
"w.	c #898428",
"x.	c #888429",
"y.	c #8D832E",
"z.	c #86822B",
"A.	c #768528",
"B.	c #648824",
"C.	c #538E22",
"D.	c #479422",
"E.	c #469721",
"F.	c #499622",
"G.	c #528B20",
"H.	c #37991E",
"I.	c #479621",
"J.	c #608D26",
"K.	c #79862A",
"L.	c #907F2D",
"M.	c #9B7B30",
"N.	c #9C7A30",
"O.	c #9D792F",
"P.	c #9E782F",
"Q.	c #A1772D",
"R.	c #A6742B",
"S.	c #A97329",
"T.	c #A87428",
"U.	c #A47726",
"V.	c #9B7B26",
"W.	c #9A7B28",
"X.	c #A27C33",
"Y.	c #9B7B32",
"Z.	c #8D7A2D",
"`.	c #797D26",
" +	c #618724",
".+	c #4A9222",
"++	c #36A024",
"@+	c #2CA824",
"#+	c #27A623",
"$+	c #3D9D1F",
"%+	c #46941C",
"&+	c #699026",
"*+	c #878A2F",
"=+	c #977A2A",
"-+	c #A3742C",
";+	c #A97732",
">+	c #A7722E",
",+	c #A8732D",
"'+	c #AB722D",
")+	c #AF702B",
"!+	c #B26F29",
"~+	c #B07028",
"{+	c #AC7326",
"]+	c #A67526",
"^+	c #A17829",
"/+	c #99712B",
"(+	c #A27F3B",
"_+	c #927730",
":+	c #787322",
"<+	c #5D7A1D",
"[+	c #4A8C20",
"}+	c #3CA429",
"|+	c #21A31F",
"1+	c #39A01D",
"2+	c #44981E",
"3+	c #679026",
"4+	c #858A2E",
"5+	c #987B2D",
"6+	c #A5742F",
"7+	c #AA7533",
"8+	c #A87130",
"9+	c #AC7735",
"0+	c #AD7633",
"a+	c #B17431",
"b+	c #B4732F",
"c+	c #B4742D",
"d+	c #B0762C",
"e+	c #AA792C",
"f+	c #A87A2F",
"g+	c #A9793B",
"h+	c #9F773C",
"i+	c #8F7634",
"j+	c #737126",
"k+	c #5A781E",
"l+	c #4A8B23",
"m+	c #399C25",
"n+	c #2DA927",
"o+	c #20AA23",
"p+	c #2EA31E",
"q+	c #5C9223",
"r+	c #907D2E",
"s+	c #A07934",
"t+	c #A57938",
"u+	c #A5793A",
"v+	c #9B7433",
"w+	c #9B7431",
"x+	c #9F7231",
"y+	c #A2712F",
"z+	c #A2712C",
"A+	c #A1722A",
"B+	c #9B752A",
"C+	c #9C742F",
"D+	c #AB6F3D",
"E+	c #A87445",
"F+	c #9B874A",
"G+	c #647026",
"H+	c #4A781E",
"I+	c #529D36",
"J+	c #399624",
"K+	c #2A961C",
"L+	c #26A520",
"M+	c #349E20",
"N+	c #488619",
"O+	c #586F14",
"P+	c #726419",
"Q+	c #806120",
"R+	c #825E22",
"S+	c #826227",
"T+	c #84672B",
"U+	c #82682B",
"V+	c #866629",
"W+	c #886627",
"X+	c #8B6526",
"Y+	c #896624",
"Z+	c #856822",
"`+	c #896527",
" @	c #955730",
".@	c #8F5933",
"+@	c #6E5D27",
"@@	c #071B00",
"#@	c #002C00",
"$@	c #3C8824",
"%@	c #40982A",
"&@	c #379824",
"*@	c #24A526",
"=@	c #309C24",
"-@	c #34720D",
";@	c #344C00",
">@	c #483D00",
",@	c #523500",
"'@	c #4D2F00",
")@	c #4F3502",
"!@	c #433200",
"~@	c #423200",
"{@	c #453100",
"]@	c #473000",
"^@	c #4A2F00",
"/@	c #4A3000",
"(@	c #463200",
"_@	c #4D2D00",
":@	c #612908",
"<@	c #602E0D",
"[@	c #4A3C0B",
"}@	c #000E00",
"|@	c #002900",
"1@	c #408A2B",
"2@	c #469931",
"3@	c #409D2B",
"4@	c #389D25",
"5@	c #28A42C",
"6@	c #359B2D",
"7@	c #2F6A0E",
"8@	c #283D00",
"9@	c #413200",
"0@	c #4B2C00",
"a@	c #442500",
"b@	c #472E05",
"c@	c #403106",
"d@	c #3E3306",
"e@	c #403108",
"f@	c #433006",
"g@	c #472F03",
"h@	c #472F01",
"i@	c #442000",
"j@	c #412301",
"k@	c #4E4A1B",
"l@	c #45591C",
"m@	c #4A782D",
"n@	c #5B9D43",
"o@	c #41932D",
"p@	c #379827",
"q@	c #339F27",
"r@	c #2E9E30",
"s@	c #409A36",
"t@	c #386716",
"u@	c #323B00",
"v@	c #4F3709",
"w@	c #5A320E",
"x@	c #4F2B0B",
"y@	c #543717",
"z@	c #422F0F",
"A@	c #3F300F",
"B@	c #422F11",
"C@	c #452E0F",
"D@	c #492C0E",
"E@	c #4A2B0C",
"F@	c #492C0A",
"G@	c #42300A",
"H@	c #413F19",
"I@	c #2D350C",
"J@	c #384112",
"K@	c #50632B",
"L@	c #5B803A",
"M@	c #4F8934",
"N@	c #3B912C",
"O@	c #35A22D",
"P@	c #349933",
"Q@	c #45993B",
"R@	c #376618",
"S@	c #2A3800",
"T@	c #463507",
"U@	c #4F2E0B",
"V@	c #411F03",
"W@	c #46280C",
"X@	c #462E14",
"Y@	c #442E16",
"Z@	c #472D12",
"`@	c #472E10",
" #	c #462F0F",
".#	c #3C340F",
"+#	c #293A0D",
"@#	c #203C09",
"##	c #274009",
"$#	c #466426",
"%#	c #578338",
"&#	c #4B8B34",
"*#	c #3F9C32",
"=#	c #2FA22B",
"-#	c #22A727",
";#	c #429C38",
">#	c #409031",
",#	c #356F1B",
"'#	c #234701",
")#	c #273200",
"!#	c #393204",
"~#	c #483612",
"{#	c #4B3214",
"]#	c #462A12",
"^#	c #452911",
"/#	c #432910",
"(#	c #402B10",
"_#	c #3E2D0F",
":#	c #3C320F",
"<#	c #39350F",
"[#	c #33390B",
"}#	c #2A3F06",
"|#	c #1C3C00",
"1#	c #234802",
"2#	c #3A6D1E",
"3#	c #4C8E36",
"4#	c #469C37",
"5#	c #349E2F",
"6#	c #28A229",
"7#	c #24A727",
"8#	c #37982D",
"9#	c #359029",
"0#	c #2A7719",
"a#	c #195704",
"b#	c #194200",
"c#	c #263E02",
"d#	c #333909",
"e#	c #363107",
"f#	c #3C2F0C",
"g#	c #423512",
"h#	c #443C17",
"i#	c #3F3D16",
"j#	c #333A0E",
"k#	c #2A3807",
"l#	c #253C06",
"m#	c #254106",
"n#	c #294906",
"o#	c #1D4700",
"p#	c #205503",
"q#	c #34761C",
"r#	c #3F942F",
"s#	c #3C9F32",
"t#	c #30A32C",
"u#	c #29A72A",
"v#	c #22A825",
"w#	c #2CA62D",
"x#	c #2FA42F",
"y#	c #2F992B",
"z#	c #2A8621",
"A#	c #307A21",
"B#	c #3E7929",
"C#	c #48732C",
"D#	c #486B2B",
"E#	c #516D32",
"F#	c #5D793E",
"G#	c #68864A",
"H#	c #638646",
"I#	c #517C37",
"J#	c #42742B",
"K#	c #3F7529",
"L#	c #417A2B",
"M#	c #3E7524",
"N#	c #36721C",
"O#	c #34791E",
"P#	c #3C8C2B",
"Q#	c #3C9C31",
"R#	c #329F2C",
"S#	c #28A025",
"T#	c #22A324",
"U#	c #21A925",
"V#	c #18A41F",
"W#	c #1FA723",
"X#	c #26A427",
"Y#	c #2B9E29",
"Z#	c #34992F",
"`#	c #409A38",
" $	c #4A963C",
".$	c #4B913B",
"+$	c #529140",
"@$	c #5E9D4C",
"#$	c #69A955",
"$$	c #64A851",
"%$	c #569F45",
"&$	c #479738",
"*$	c #429634",
"=$	c #459937",
"-$	c #4B9B3A",
";$	c #469635",
">$	c #419732",
",$	c #3F9F34",
"'$	c #37A230",
")$	c #2C9F26",
"!$	c #229F21",
"~$	c #1DA320",
"{$	c #14A91A",
"]$	c #17AA1C",
"^$	c #1BA81E",
"/$	c #1EA421",
"($	c #24A024",
"_$	c #2C9F2A",
":$	c #319B2D",
"<$	c #33962C",
"[$	c #34952C",
"}$	c #3A9931",
"|$	c #3EA033",
"1$	c #389C2C",
"2$	c #319825",
"3$	c #2C9821",
"4$	c #369C2C",
"5$	c #329D2B",
"6$	c #32A12B",
"7$	c #2CA228",
"8$	c #25A224",
"9$	c #23A423",
"0$	c #23A924",
"a$	c #1FB120",
"b$	c #21B020",
"c$	c #21AE21",
"d$	c #22AB20",
"e$	c #25A824",
"f$	c #28A628",
"g$	c #2AA529",
"h$	c #2DA32B",
"i$	c #2EA12A",
"j$	c #2EA027",
"k$	c #2EA026",
"l$	c #30A324",
"m$	c #30A322",
"n$	c #2EA11E",
"o$	c #2CA11F",
"p$	c #279F23",
"q$	c #25A024",
"r$	c #26A124",
"s$	c #25A222",
"t$	c #24A322",
"u$	c #23A521",
"v$	c #24AA23",
"w$	c #22A821",
"x$	c #24A517",
"y$	c #23A318",
"z$	c #24A41B",
"A$	c #27A422",
"B$	c #29A425",
"C$	c #2CA526",
"D$	c #2CA323",
"E$	c #2FA31E",
"F$	c #32A31D",
"G$	c #34A41C",
"H$	c #2FA51D",
"I$	c #28AA22",
"J$	c #24AC26",
"K$	c #23AB23",
"L$	c #20A61F",
"M$	c #23A720",
"N$	c #23A51D",
"O$	c #25A71F",
"P$	c #33A41E",
"Q$	c #30A41D",
"R$	c #2DA51F",
"S$	c #2CA41F",
"T$	c #29A21F",
"U$	c #27A321",
"V$	c #28A422",
"W$	c #28A420",
"X$	c #30A11B",
"Y$	c #32A21A",
"Z$	c #34A319",
"`$	c #30A61A",
" %	c #21AA1C",
".%	c #1CAE1F",
"+%	c #1DAC1E",
"@%	c #1EA81D",
"#%	c #25A920",
"$%	c #27A71F",
"%%	c #27A51E",
"&%	c #28A61F",
"*%	c #379D1E",
"=%	c #359E1E",
"-%	c #349F1E",
";%	c #31A020",
">%	c #2BA222",
",%	c #2AA322",
"'%	c #27A520",
")%	c #2BA31E",
"!%	c #2DA21D",
"~%	c #31A119",
"{%	c #34A019",
"]%	c #2DA319",
"^%	c #20AB1A",
"/%	c #1AAE1C",
"(%	c #1BAD1C",
"_%	c #20AB1E",
":%	c #22A91E",
"<%	c #27A71E",
"[%	c #29A51F",
"}%	c #2BA51F",
"|%	c #2EA31F",
". + @ # $ % & * = - ; > , ' ) ! ~ { ] ^ / ( _ : < ",
"[ } | 1 2 3 4 5 6 7 8 9 0 a b c d e f g h i j k l ",
"m n o p q r s n n t u v w x y z A B C D E F G H I ",
"J K L M N O P Q Q R S T U V W Q X Y Y Z `  ...+.@.",
"#.$.%.&.*.=.-.;.-.>.,.'.'.).!.~.{.].| | ^./.(._.:.",
"<.[.}.|.1.2.3.4.3.5.6.7.8.9.0.a.b.c.d.].e.f.g.h.i.",
"v j.k.l.m.n.o.p.q.r.s.t.u.v.w.x.y.z.A.B.C.D.E.F.G.",
"H.I.J.K.L.M.N.O.P.Q.R.S.T.U.V.W.X.Y.Z.`. +.+++@+#+",
"$+%+&+*+=+-+;+>+,+'+)+!+~+{+]+^+/+(+_+:+<+[+}+|+6 ",
"1+2+3+4+5+6+7+8+9+0+a+b+c+d+e+f+g+h+i+j+k+l+m+n+o+",
"p+$+q+7.r+s+t+u+v+w+x+y+z+A+B+C+D+E+F+G+H+I+J+K+o ",
"L+M+N+O+P+Q+R+S+T+U+V+W+X+Y+Z+`+ @.@+@@@#@$@%@&@v ",
"*@=@-@;@>@,@'@)@!@~@{@]@^@/@(@_@:@<@[@}@|@1@2@3@4@",
"5@6@7@8@9@0@a@b@c@d@e@f@g@h@{@g@i@j@k@l@m@n@o@p@q@",
"r@s@t@u@v@w@x@y@z@A@B@C@D@E@F@G@H@I@J@K@L@M@N@O@<.",
"P@Q@R@S@T@U@V@W@X@Y@Y@X@Z@`@ #.#+#@###$#%#&#*#=#-#",
";#>#,#'#)#!#~#{#]#^#/#(#_#:#<#[#}#|#1#2#3#4#5#6#7#",
"8#9#0#a#b#c#d#e#f#g#h#i#j#k#l#m#n#o#p#q#r#s#t#u#v#",
"w#x#y#z#A#B#C#D#E#F#G#H#I#J#K#L#M#N#O#P#Q#R#S#T#U#",
"V#W#X#Y#Z#`# $.$+$@$#$$$%$&$*$=$-$;$>$,$'$)$!$~$o+",
"{$]$^$/$($_$:$<$[$}$,$|$1$2$3$3$4$6@5$6$7$8$9$0$o+",
"a$b$c$d$e$f$g$h$i$j$j$k$l$m$n$o$p$q$r$s$t$u$n v$w$",
"x$y$y$z$. A$B$C$C$D$o$n$E$F$G$H$I$J$K$w$L$M$M$N$O$",
"P$Q$p+R$S$T$U$V$W$} S$p+X$Y$Z$`$ %.%+%@%& #%$%%%&%",
"*%=%-%;%Y >%,%V$'%W$)%!%X$~%{%]%^%/%(%_%:%<%[%}%|%"};
