/* XPM */
static char * view_bottom_xpm[] = {
"25 25 381 2",
"  	c None",
". 	c #26A41D",
"+ 	c #2AA21D",
"@ 	c #309D1C",
"# 	c #339C1C",
"$ 	c #329D1C",
"% 	c #2CA11D",
"& 	c #21A81E",
"* 	c #1AAB1E",
"= 	c #19AA1F",
"- 	c #1CA91F",
"; 	c #25A421",
"> 	c #29A221",
", 	c #2CA023",
"' 	c #27A223",
") 	c #20A525",
"! 	c #1CA823",
"~ 	c #20AE26",
"{ 	c #399F22",
"] 	c #6A8222",
"^ 	c #9D641F",
"/ 	c #D04621",
"( 	c #F1321F",
"_ 	c #FF271F",
": 	c #FF231F",
"< 	c #FF2522",
"[ 	c #25A721",
"} 	c #29A521",
"| 	c #32A121",
"1 	c #359D20",
"2 	c #359F21",
"3 	c #2FA221",
"4 	c #25A922",
"5 	c #1FAC22",
"6 	c #1EAB21",
"7 	c #21A923",
"8 	c #29A523",
"9 	c #2FA223",
"0 	c #2FA125",
"a 	c #2CA325",
"b 	c #25A627",
"c 	c #20A925",
"d 	c #21AB24",
"e 	c #33A021",
"f 	c #5B8A22",
"g 	c #847220",
"h 	c #B25720",
"i 	c #D34320",
"j 	c #ED3420",
"k 	c #FB2B1F",
"l 	c #FF2A23",
"m 	c #1FAB24",
"n 	c #24A723",
"o 	c #2EA223",
"p 	c #33A023",
"q 	c #359F23",
"r 	c #31A123",
"s 	c #28A523",
"t 	c #28A525",
"u 	c #31A125",
"v 	c #359F25",
"w 	c #359E27",
"x 	c #31A027",
"y 	c #29A427",
"z 	c #25A625",
"A 	c #23A622",
"B 	c #2AA320",
"C 	c #3B991F",
"D 	c #548C21",
"E 	c #747821",
"F 	c #96641F",
"G 	c #BE4E20",
"H 	c #B33918",
"I 	c #F53121",
"J 	c #1CA926",
"K 	c #23A624",
"L 	c #309F26",
"M 	c #389B24",
"N 	c #3C9926",
"O 	c #3B9A24",
"P 	c #349E24",
"Q 	c #309E23",
"R 	c #349C23",
"S 	c #3D9823",
"T 	c #419523",
"U 	c #419525",
"V 	c #3D9725",
"W 	c #349B25",
"X 	c #2F9F21",
"Y 	c #2EA120",
"Z 	c #389C20",
"` 	c #4D8F21",
" .	c #6D7C21",
"..	c #99621F",
"+.	c #C14C20",
"@.	c #E4391F",
"#.	c #1FA626",
"$.	c #27A426",
"%.	c #389C28",
"&.	c #459728",
"*.	c #4D942A",
"=.	c #509329",
"-.	c #4B9428",
";.	c #499528",
">.	c #4E9328",
",.	c #568F26",
"'.	c #598E26",
").	c #559026",
"!.	c #4C9426",
"~.	c #479724",
"{.	c #479822",
"].	c #409B22",
"^.	c #3B9B20",
"/.	c #558A20",
"(.	c #7F731F",
"_.	c #AC5C21",
":.	c #CA401B",
"<.	c #28A527",
"[.	c #34A229",
"}.	c #489A2B",
"|.	c #58952D",
"1.	c #668F2F",
"2.	c #6B8D2E",
"3.	c #6A8E2E",
"4.	c #688D2D",
"5.	c #6E8C2C",
"6.	c #75882C",
"7.	c #78872A",
"8.	c #77882A",
"9.	c #728A2A",
"0.	c #6A8F28",
"a.	c #669128",
"b.	c #658E26",
"c.	c #5D9125",
"d.	c #4A9723",
"e.	c #3C9A20",
"f.	c #48921F",
"g.	c #648421",
"h.	c #837421",
"i.	c #A35D1F",
"j.	c #419C27",
"k.	c #59942A",
"l.	c #433006",
"m.	c #538E22",
"n.	c #479422",
"o.	c #469721",
"p.	c #499622",
"q.	c #528B20",
"r.	c #37991E",
"s.	c #479621",
"t.	c #608D26",
"u.	c #618724",
"v.	c #4A9222",
"w.	c #36A024",
"x.	c #2CA824",
"y.	c #27A623",
"z.	c #3D9D1F",
"A.	c #46941C",
"B.	c #699026",
"C.	c #5D7A1D",
"D.	c #4A8C20",
"E.	c #3CA429",
"F.	c #21A31F",
"G.	c #39A01D",
"H.	c #44981E",
"I.	c #679026",
"J.	c #5A781E",
"K.	c #4A8B23",
"L.	c #399C25",
"M.	c #2DA927",
"N.	c #20AA23",
"O.	c #2EA31E",
"P.	c #5C9223",
"Q.	c #4A781E",
"R.	c #529D36",
"S.	c #399624",
"T.	c #2A961C",
"U.	c #26A520",
"V.	c #349E20",
"W.	c #488619",
"X.	c #3C8824",
"Y.	c #40982A",
"Z.	c #379824",
"`.	c #2C851D",
" +	c #309C24",
".+	c #34720D",
"++	c #408A2B",
"@+	c #469931",
"#+	c #409D2B",
"$+	c #389D25",
"%+	c #28A42C",
"&+	c #359B2D",
"*+	c #2F6A0E",
"=+	c #4A782D",
"-+	c #5B9D43",
";+	c #41932D",
">+	c #379827",
",+	c #339F27",
"'+	c #2E9E30",
")+	c #409A36",
"!+	c #386716",
"~+	c #5B803A",
"{+	c #4F8934",
"]+	c #3B912C",
"^+	c #35A22D",
"/+	c #349933",
"(+	c #45993B",
"_+	c #376618",
":+	c #578338",
"<+	c #4B8B34",
"[+	c #3F9C32",
"}+	c #2FA22B",
"|+	c #22A727",
"1+	c #429C38",
"2+	c #409031",
"3+	c #356F1B",
"4+	c #4C8E36",
"5+	c #469C37",
"6+	c #349E2F",
"7+	c #28A229",
"8+	c #24A727",
"9+	c #37982D",
"0+	c #359029",
"a+	c #2A7719",
"b+	c #3F942F",
"c+	c #3C9F32",
"d+	c #30A32C",
"e+	c #29A72A",
"f+	c #22A825",
"g+	c #2CA62D",
"h+	c #2FA42F",
"i+	c #2F992B",
"j+	c #2A8621",
"k+	c #307A21",
"l+	c #3E7929",
"m+	c #48732C",
"n+	c #486B2B",
"o+	c #516D32",
"p+	c #5D793E",
"q+	c #68864A",
"r+	c #638646",
"s+	c #517C37",
"t+	c #42742B",
"u+	c #3F7529",
"v+	c #417A2B",
"w+	c #3E7524",
"x+	c #36721C",
"y+	c #34791E",
"z+	c #3C8C2B",
"A+	c #3C9C31",
"B+	c #329F2C",
"C+	c #28A025",
"D+	c #22A324",
"E+	c #21A925",
"F+	c #18A41F",
"G+	c #1FA723",
"H+	c #26A427",
"I+	c #2B9E29",
"J+	c #34992F",
"K+	c #409A38",
"L+	c #4A963C",
"M+	c #4B913B",
"N+	c #529140",
"O+	c #5E9D4C",
"P+	c #69A955",
"Q+	c #64A851",
"R+	c #569F45",
"S+	c #479738",
"T+	c #429634",
"U+	c #459937",
"V+	c #4B9B3A",
"W+	c #469635",
"X+	c #419732",
"Y+	c #3F9F34",
"Z+	c #37A230",
"`+	c #2C9F26",
" @	c #229F21",
".@	c #1DA320",
"+@	c #14A91A",
"@@	c #17AA1C",
"#@	c #1BA81E",
"$@	c #1EA421",
"%@	c #24A024",
"&@	c #2C9F2A",
"*@	c #319B2D",
"=@	c #33962C",
"-@	c #34952C",
";@	c #3A9931",
">@	c #3EA033",
",@	c #389C2C",
"'@	c #319825",
")@	c #2C9821",
"!@	c #369C2C",
"~@	c #329D2B",
"{@	c #32A12B",
"]@	c #2CA228",
"^@	c #25A224",
"/@	c #23A423",
"(@	c #23A924",
"_@	c #1FB120",
":@	c #21B020",
"<@	c #21AE21",
"[@	c #22AB20",
"}@	c #25A824",
"|@	c #28A628",
"1@	c #2AA529",
"2@	c #2DA32B",
"3@	c #2EA12A",
"4@	c #2EA027",
"5@	c #2EA026",
"6@	c #30A324",
"7@	c #30A322",
"8@	c #2EA11E",
"9@	c #2CA11F",
"0@	c #279F23",
"a@	c #25A024",
"b@	c #26A124",
"c@	c #25A222",
"d@	c #24A322",
"e@	c #23A521",
"f@	c #24AA23",
"g@	c #22A821",
"h@	c #24A517",
"i@	c #23A318",
"j@	c #24A41B",
"k@	c #27A422",
"l@	c #29A425",
"m@	c #2CA526",
"n@	c #2CA323",
"o@	c #2FA31E",
"p@	c #32A31D",
"q@	c #34A41C",
"r@	c #2FA51D",
"s@	c #28AA22",
"t@	c #24AC26",
"u@	c #23AB23",
"v@	c #20A61F",
"w@	c #23A720",
"x@	c #23A51D",
"y@	c #25A71F",
"z@	c #33A41E",
"A@	c #30A41D",
"B@	c #2DA51F",
"C@	c #2CA41F",
"D@	c #29A21F",
"E@	c #27A321",
"F@	c #28A422",
"G@	c #28A420",
"H@	c #30A11B",
"I@	c #32A21A",
"J@	c #34A319",
"K@	c #30A61A",
"L@	c #21AA1C",
"M@	c #1CAE1F",
"N@	c #1DAC1E",
"O@	c #1EA81D",
"P@	c #25A920",
"Q@	c #27A71F",
"R@	c #27A51E",
"S@	c #28A61F",
"T@	c #379D1E",
"U@	c #359E1E",
"V@	c #349F1E",
"W@	c #31A020",
"X@	c #2BA222",
"Y@	c #2AA322",
"Z@	c #27A520",
"`@	c #2BA31E",
" #	c #2DA21D",
".#	c #31A119",
"+#	c #34A019",
"@#	c #2DA319",
"##	c #20AB1A",
"$#	c #1AAE1C",
"%#	c #1BAD1C",
"&#	c #20AB1E",
"*#	c #22A91E",
"=#	c #27A71E",
"-#	c #29A51F",
";#	c #2BA51F",
">#	c #2EA31F",
". + @ # $ % & * = - ; > , ' ) ! ~ { ] ^ / ( _ : < ",
"[ } | 1 2 3 4 5 6 7 8 9 0 a b c d e f g h i j k l ",
"m n o p q r s n n t u v w x y z A B C D E F G H I ",
"J K L M N O P Q Q R S T U V W Q X Y Y Z `  ...+.@.",
"#.$.%.&.*.=.-.;.-.>.,.'.'.).!.~.{.].| | ^./.(._.:.",
"<.[.}.|.1.2.3.4.3.5.6.7.8.9.0.a.b.c.d.].e.f.g.h.i.",
"v j.k.l.l.l.l.l.l.l.l.l.l.l.l.l.l.l.l.l.m.n.o.p.q.",
"r.s.t.l.l.l.l.l.l.l.l.l.l.l.l.l.l.l.l.l.u.v.w.x.y.",
"z.A.B.l.l.l.l.l.l.l.l.l.l.l.l.l.l.l.l.l.C.D.E.F.6 ",
"G.H.I.l.l.l.l.l.l.l.l.l.l.l.l.l.l.l.l.l.J.K.L.M.N.",
"O.z.P.l.l.l.l.l.l.l.l.l.l.l.l.l.l.l.l.l.Q.R.S.T.o ",
"U.V.W.l.l.l.l.l.l.l.l.l.l.l.l.l.l.l.l.l.l.X.Y.Z.v ",
"`. +.+l.l.l.l.l.l.l.l.l.l.l.l.l.l.l.l.l.l.++@+#+$+",
"%+&+*+l.l.l.l.l.l.l.l.l.l.l.l.l.l.l.l.l.=+-+;+>+,+",
"'+)+!+l.l.l.l.l.l.l.l.l.l.l.l.l.l.l.l.l.~+{+]+^+<.",
"/+(+_+l.l.l.l.l.l.l.l.l.l.l.l.l.l.l.l.l.:+<+[+}+|+",
"1+2+3+l.l.l.l.l.l.l.l.l.l.l.l.l.l.l.l.l.4+5+6+7+8+",
"9+0+a+l.l.l.l.l.l.l.l.l.l.l.l.l.l.l.l.l.b+c+d+e+f+",
"g+h+i+j+k+l+m+n+o+p+q+r+s+t+u+v+w+x+y+z+A+B+C+D+E+",
"F+G+H+I+J+K+L+M+N+O+P+Q+R+S+T+U+V+W+X+Y+Z+`+ @.@N.",
"+@@@#@$@%@&@*@=@-@;@Y+>@,@'@)@)@!@&+~@{@]@^@/@(@N.",
"_@:@<@[@}@|@1@2@3@4@4@5@6@7@8@9@0@a@b@c@d@e@n f@g@",
"h@i@i@j@. k@l@m@m@n@9@8@o@p@q@r@s@t@u@g@v@w@w@x@y@",
"z@A@O.B@C@D@E@F@G@} C@O.H@I@J@K@L@M@N@O@& P@Q@R@S@",
"T@U@V@W@Y X@Y@F@Z@G@`@ #H@.#+#@###$#%#&#*#=#-#;#>#"};
