/* XPM */
static char * view_zoom_xpm[] = {
"25 25 239 2",
"  	c None",
". 	c #969696",
"+ 	c #9EA2A0",
"@ 	c #578875",
"# 	c #51957D",
"$ 	c #31C18E",
"% 	c #819F94",
"& 	c #639F89",
"* 	c #32C691",
"= 	c #8EA59C",
"- 	c #6CA893",
"; 	c #31C691",
"> 	c #97ADA4",
", 	c #96ACA4",
"' 	c #7D8482",
") 	c #7F8684",
"! 	c #848C8A",
"~ 	c #AEB8B5",
"{ 	c #6CA993",
"] 	c #97ADA5",
"^ 	c #959E9B",
"/ 	c #8A928F",
"( 	c #88908E",
"_ 	c #88908D",
": 	c #A1ABA8",
"< 	c #949D9A",
"[ 	c #242424",
"} 	c #2B2A2B",
"| 	c #313131",
"1 	c #6A6A6A",
"2 	c #A7ABAA",
"3 	c #6BA792",
"4 	c #96ADA5",
"5 	c #A9AFAD",
"6 	c #9C9E9D",
"7 	c #4D4D4D",
"8 	c #454545",
"9 	c #414141",
"0 	c #4C4D4C",
"a 	c #585D5B",
"b 	c #605F5F",
"c 	c #2E2D2D",
"d 	c #393939",
"e 	c #3F3F3F",
"f 	c #646666",
"g 	c #356D59",
"h 	c #32C591",
"i 	c #495852",
"j 	c #5B5E5D",
"k 	c #4A4A4A",
"l 	c #484848",
"m 	c #595959",
"n 	c #5A5959",
"o 	c #99A19E",
"p 	c #B5B9B8",
"q 	c #B5B7B6",
"r 	c #9C9C9C",
"s 	c #464646",
"t 	c #353535",
"u 	c #3D3B3C",
"v 	c #545253",
"w 	c #59907C",
"x 	c #32C592",
"y 	c #586560",
"z 	c #4B494A",
"A 	c #464545",
"B 	c #444444",
"C 	c #858585",
"D 	c #B9BABA",
"E 	c #A8A8A8",
"F 	c #A0A7A5",
"G 	c #ADB7B3",
"H 	c #6D7271",
"I 	c #454645",
"J 	c #909090",
"K 	c #659684",
"L 	c #33BE8D",
"M 	c #7F8985",
"N 	c #ADABAC",
"O 	c #5F5E5F",
"P 	c #676767",
"Q 	c #A4ACA9",
"R 	c #989898",
"S 	c #797D7C",
"T 	c #242525",
"U 	c #272727",
"V 	c #898A8A",
"W 	c #B7B9B9",
"X 	c #73738F",
"Y 	c #493497",
"Z 	c #743B59",
"` 	c #C73F5F",
" .	c #886B71",
"..	c #AAACAB",
"+.	c #505050",
"@.	c #383838",
"#.	c #A6AEAB",
"$.	c #ABB3B0",
"%.	c #8C8C8C",
"&.	c #262626",
"*.	c #292635",
"=.	c #42328A",
"-.	c #4E32C2",
";.	c #4A33AA",
">.	c #8B5C79",
",.	c #DE385F",
"'.	c #F73966",
").	c #9C324A",
"!.	c #3E3033",
"~.	c #9D9E9E",
"{.	c #8D9592",
"].	c #2E2F32",
"^.	c #34286A",
"/.	c #4A31B7",
"(.	c #4930B4",
"_.	c #332964",
":.	c #858C8D",
"<.	c #676463",
"[.	c #8B2F44",
"}.	c #EE3763",
"|.	c #E73760",
"1.	c #7F3243",
"2.	c #565553",
"3.	c #AFB7B4",
"4.	c #B2BBB8",
"5.	c #2E302F",
"6.	c #989F9C",
"7.	c #484D4B",
"8.	c #28224E",
"9.	c #452FA7",
"0.	c #4C32BE",
"a.	c #382A7C",
"b.	c #25232E",
"c.	c #232323",
"d.	c #252625",
"e.	c #3E403F",
"f.	c #282726",
"g.	c #282828",
"h.	c #3D282C",
"i.	c #AA304C",
"j.	c #F93967",
"k.	c #CF3458",
"l.	c #61303B",
"m.	c #777E7C",
"n.	c #98A19E",
"o.	c #454947",
"p.	c #686D6B",
"q.	c #141414",
"r.	c #251F44",
"s.	c #3E2B91",
"t.	c #4E33C2",
"u.	c #242039",
"v.	c #292A28",
"w.	c #939392",
"x.	c #696968",
"y.	c #222220",
"z.	c #2A2A28",
"A.	c #8D8D8D",
"B.	c #676766",
"C.	c #262624",
"D.	c #522830",
"E.	c #C83456",
"F.	c #FB3A67",
"G.	c #B7314F",
"H.	c #49252C",
"I.	c #99A3A0",
"J.	c #1F2220",
"K.	c #161619",
"L.	c #452FA8",
"M.	c #472FAF",
"N.	c #29214D",
"O.	c #191919",
"P.	c #444442",
"Q.	c #B7B8B7",
"R.	c #A7ADAB",
"S.	c #A1A6A4",
"T.	c #838483",
"U.	c #A1A6A5",
"V.	c #A8ACAA",
"W.	c #949594",
"X.	c #2D2D2D",
"Y.	c #242221",
"Z.	c #702938",
"`.	c #F13865",
" +	c #A92F4C",
".+	c #212020",
"++	c #535756",
"@+	c #878F8D",
"#+	c #121211",
"$+	c #131311",
"%+	c #191721",
"&+	c #1A1825",
"*+	c #151614",
"=+	c #747472",
"-+	c #ADAFAE",
";+	c #ACB6B3",
">+	c #A0A8A5",
",+	c #ACAEAE",
"'+	c #B1B9B6",
")+	c #A3A9A7",
"!+	c #B0B1B0",
"~+	c #484747",
"{+	c #1F1F1D",
"]+	c #261B1C",
"^+	c #1F1B1A",
"/+	c #1E1E1D",
"(+	c #1E1E1E",
"_+	c #AEB9B5",
":+	c #393D3C",
"<+	c #10110F",
"[+	c #121210",
"}+	c #141412",
"|+	c #444645",
"1+	c #B1BCB8",
"2+	c #989D9B",
"3+	c #3C3C3B",
"4+	c #1C1C1A",
"5+	c #1B1B1B",
"6+	c #1A1A18",
"7+	c #1B1A1A",
"8+	c #666A69",
"9+	c #575757",
"0+	c #6B6A6A",
"a+	c #6C6B6B",
"b+	c #6D6C6C",
"c+	c #6E6F6F",
"d+	c #8C918F",
"e+	c #797B7B",
"f+	c #706F6F",
"g+	c #696869",
"h+	c #696868",
"i+	c #696768",
"j+	c #5A5B5B",
"k+	c #A9B3B0",
"l+	c #ABB1AF",
"m+	c #ABB2AF",
"n+	c #A2A9A7",
"o+	c #A1A8A6",
"p+	c #AFBAB6",
". . . . . . . . . . . . . . . . . . . . . . . . . ",
". . . . . . . . . . . + @ . . . . . . . . . . . . ",
". . . . . . . . . . . # $ % . . . . . . . . . . . ",
". . . . . . . . . . . & * = . . . . . . . . . . . ",
". . . . . . . . . . . - ; > . . . . . . . . . . . ",
". . . . . . . . . . . - ; , . . . . . . . . . . . ",
". . . . . . . . . . . - ; , . . . . . . . . . . . ",
". . . . . ' ' ) ! ~ . { * ] . ^ / ( _ : . . . . . ",
". . . . < [ } | 1 2 . 3 * 4 5 6 7 8 9 0 . . . . . ",
". . . . a b c | d e f g h i j k l 8 m n o . . . . ",
". . . . p q r s t u v w x y z A B C D E F . . . . ",
". . . . G . H I t J . K L M N O e P Q . R . . . . ",
". . . . . S T U V W X Y Z `  ...+.@.B #.. . . . . ",
". . . . . $.%.&.*.=.-.;.>.,.'.).!.k ~.. . . . . . ",
". . . . . {.].^./.(._.:.. <.[.}.|.1.2.3.. . . . . ",
". 4.5.6.7.8.9.0.a.b.c.d.e.f.g.h.i.j.k.l.m.n.o.. . ",
". p.q.r.s.t.s.u.v.w.x.y.y.z.A.B.C.D.E.F.G.H.c.I.. ",
". J.K.L.M.N.O.P.Q.R.S.T.t R U.V.W.X.Y.Z.`. +.+++. ",
"@+#+$+%+&+*+=+-+;+. . >+,+'+. . )+!+~+{+]+^+/+(+_+",
":+<+[+[+$+}+|+1+. . . . . . . . . 2+3+4+5+5+6+7+8+",
"9+0+a+a+a+b+c+d+. . . . . . . . . e+f+f+f+g+h+i+j+",
"k+l+l+l+l+m+l+n+. . . . . . . . . o+l+l+l+l+l+m+p+",
". . . . . . . . . . . . . . . . . . . . . . . . . ",
". . . . . . . . . . . . . . . . . . . . . . . . . ",
". . . . . . . . . . . . . . . . . . . . . . . . . "};
