/* XPM */
static char * view_zoom_xpm[] = {
"25 25 264 2",
"  	c None",
". 	c #C7D4CF",
"+ 	c #C8D4CF",
"@ 	c #C7D3CF",
"# 	c #C8D4D0",
"$ 	c #C7D4D0",
"% 	c #C7D3D0",
"& 	c #C8D3D0",
"* 	c #C8D3CF",
"= 	c #B4C2BD",
"- 	c #578875",
"; 	c #C6D2CE",
"> 	c #C5D1CD",
", 	c #51957D",
"' 	c #31C18E",
") 	c #819F94",
"! 	c #639F89",
"~ 	c #32C691",
"{ 	c #8EA59C",
"] 	c #6CA893",
"^ 	c #31C691",
"/ 	c #97ADA4",
"( 	c #96ACA4",
"_ 	c #C6D0CD",
": 	c #7D8482",
"< 	c #7F8684",
"[ 	c #848C8A",
"} 	c #AEB8B5",
"| 	c #6CA993",
"1 	c #97ADA5",
"2 	c #C1CDC9",
"3 	c #959E9B",
"4 	c #8A928F",
"5 	c #88908E",
"6 	c #88908D",
"7 	c #A1ABA8",
"8 	c #949D9A",
"9 	c #242424",
"0 	c #2B2A2B",
"a 	c #313131",
"b 	c #6A6A6A",
"c 	c #A7ABAA",
"d 	c #6BA792",
"e 	c #96ADA5",
"f 	c #B4BEBB",
"g 	c #9C9E9D",
"h 	c #4D4D4D",
"i 	c #454545",
"j 	c #414141",
"k 	c #4C4D4C",
"l 	c #585D5B",
"m 	c #605F5F",
"n 	c #2E2D2D",
"o 	c #393939",
"p 	c #3F3F3F",
"q 	c #646666",
"r 	c #356D59",
"s 	c #32C591",
"t 	c #495852",
"u 	c #5B5E5D",
"v 	c #4A4A4A",
"w 	c #484848",
"x 	c #595959",
"y 	c #5A5959",
"z 	c #99A19E",
"A 	c #B5B9B8",
"B 	c #BBBDBC",
"C 	c #9C9C9C",
"D 	c #464646",
"E 	c #353535",
"F 	c #3D3B3C",
"G 	c #545253",
"H 	c #59907C",
"I 	c #32C592",
"J 	c #586560",
"K 	c #4B494A",
"L 	c #464545",
"M 	c #444444",
"N 	c #858585",
"O 	c #B9BABA",
"P 	c #BFBFBF",
"Q 	c #A0A7A5",
"R 	c #B1BDB9",
"S 	c #C4D0CC",
"T 	c #6D7271",
"U 	c #454645",
"V 	c #909090",
"W 	c #D0D2D1",
"X 	c #659684",
"Y 	c #33BE8D",
"Z 	c #7F8985",
"` 	c #ADABAC",
" .	c #5F5E5F",
"..	c #676767",
"+.	c #A4ACA9",
"@.	c #B9C4C0",
"#.	c #B7C2BE",
"$.	c #797D7C",
"%.	c #242525",
"&.	c #272727",
"*.	c #898A8A",
"=.	c #B7B9B9",
"-.	c #73738F",
";.	c #493497",
">.	c #743B59",
",.	c #C73F5F",
"'.	c #886B71",
").	c #AAACAB",
"!.	c #505050",
"~.	c #383838",
"{.	c #A6AEAB",
"].	c #ABB3B0",
"^.	c #8C8C8C",
"/.	c #262626",
"(.	c #292635",
"_.	c #42328A",
":.	c #4E32C2",
"<.	c #4A33AA",
"[.	c #8B5C79",
"}.	c #DE385F",
"|.	c #F73966",
"1.	c #9C324A",
"2.	c #3E3033",
"3.	c #9D9E9E",
"4.	c #BCC9C4",
"5.	c #BFCAC6",
"6.	c #8D9592",
"7.	c #2E2F32",
"8.	c #34286A",
"9.	c #4A31B7",
"0.	c #4930B4",
"a.	c #332964",
"b.	c #858C8D",
"c.	c #C5D2CE",
"d.	c #676463",
"e.	c #8B2F44",
"f.	c #EE3763",
"g.	c #E73760",
"h.	c #7F3243",
"i.	c #565553",
"j.	c #B3BDBA",
"k.	c #C4CFCB",
"l.	c #B2BBB8",
"m.	c #2E302F",
"n.	c #989F9C",
"o.	c #484D4B",
"p.	c #28224E",
"q.	c #452FA7",
"r.	c #4C32BE",
"s.	c #382A7C",
"t.	c #25232E",
"u.	c #232323",
"v.	c #252625",
"w.	c #3E403F",
"x.	c #282726",
"y.	c #282828",
"z.	c #3D282C",
"A.	c #AA304C",
"B.	c #F93967",
"C.	c #CF3458",
"D.	c #61303B",
"E.	c #777E7C",
"F.	c #98A19E",
"G.	c #454947",
"H.	c #C6D4D0",
"I.	c #686D6B",
"J.	c #141414",
"K.	c #251F44",
"L.	c #3E2B91",
"M.	c #4E33C2",
"N.	c #242039",
"O.	c #292A28",
"P.	c #939392",
"Q.	c #696968",
"R.	c #222220",
"S.	c #2A2A28",
"T.	c #8D8D8D",
"U.	c #676766",
"V.	c #262624",
"W.	c #522830",
"X.	c #C83456",
"Y.	c #FB3A67",
"Z.	c #B7314F",
"`.	c #49252C",
" +	c #99A3A0",
".+	c #C2CECA",
"++	c #1F2220",
"@+	c #161619",
"#+	c #452FA8",
"$+	c #472FAF",
"%+	c #29214D",
"&+	c #191919",
"*+	c #444442",
"=+	c #B7B8B7",
"-+	c #A7ADAB",
";+	c #A1A6A4",
">+	c #838483",
",+	c #989898",
"'+	c #A1A6A5",
")+	c #A8ACAA",
"!+	c #949594",
"~+	c #2D2D2D",
"{+	c #242221",
"]+	c #702938",
"^+	c #F13865",
"/+	c #A92F4C",
"(+	c #212020",
"_+	c #535756",
":+	c #C6D4CF",
"<+	c #878F8D",
"[+	c #121211",
"}+	c #131311",
"|+	c #191721",
"1+	c #1A1825",
"2+	c #151614",
"3+	c #747472",
"4+	c #BBBEBC",
"5+	c #ACB6B3",
"6+	c #C6D1CD",
"7+	c #A0A8A5",
"8+	c #ACAEAE",
"9+	c #B1B9B6",
"0+	c #A3A9A7",
"a+	c #B0B1B0",
"b+	c #484747",
"c+	c #1F1F1D",
"d+	c #261B1C",
"e+	c #1F1B1A",
"f+	c #1E1E1D",
"g+	c #1E1E1E",
"h+	c #AEB9B5",
"i+	c #393D3C",
"j+	c #10110F",
"k+	c #121210",
"l+	c #141412",
"m+	c #444645",
"n+	c #B1BCB8",
"o+	c #BDC9C5",
"p+	c #989D9B",
"q+	c #3C3C3B",
"r+	c #1C1C1A",
"s+	c #1B1B1B",
"t+	c #1A1A18",
"u+	c #1B1A1A",
"v+	c #666A69",
"w+	c #575757",
"x+	c #6B6A6A",
"y+	c #6C6B6B",
"z+	c #6D6C6C",
"A+	c #6E6F6F",
"B+	c #8C918F",
"C+	c #C7D2CE",
"D+	c #797B7B",
"E+	c #706F6F",
"F+	c #696869",
"G+	c #696868",
"H+	c #696768",
"I+	c #5A5B5B",
"J+	c #A9B3B0",
"K+	c #ABB1AF",
"L+	c #ABB2AF",
"M+	c #A2A9A7",
"N+	c #A1A8A6",
"O+	c #AFBAB6",
". . . . . + + . . @ + # $ # # # # + # # + + # # # ",
"@ % @ @ @ & & * @ @ $ = - ; & & # # # & # # # & # ",
"@ @ @ @ @ @ * @ @ @ > , ' ) $ # # # # # + + # # # ",
"# $ + $ # $ # $ @ @ @ ! ~ { $ # # # # # # # # # # ",
". . . . . . + . . @ @ ] ^ / $ # # # # # # # # # # ",
"@ @ @ @ @ % % @ @ @ @ ] ^ ( $ & # # # & # # # & & ",
"% % % % $ $ $ $ $ $ % ] ^ ( $ $ $ $ $ # # # # # # ",
"@ @ @ $ _ : : < [ } . | ~ 1 2 3 4 5 6 7 @ # # # # ",
". . . . 8 9 0 a b c # d ~ e f g h i j k ; # # # # ",
"& & & . l m n a o p q r s t u v w i x y z . # # # ",
"& & & . A B C D E F G H I J K L M N O P Q $ # & # ",
". $ . @ R S T U E V W X Y Z `  .p ..+.@.#.@ # # # ",
"@ @ * @ # $.%.&.*.=.-.;.>.,.'.).!.~.M {.# # # # # ",
"+ + + + . ].^./.(._.:.<.[.}.|.1.2.v 3.4.& # # # # ",
"@ * 5.. @ 6.7.8.9.0.a.b.c.d.e.f.g.h.i.j.. @ k.# # ",
". l.m.n.o.p.q.r.s.t.u.v.w.x.y.z.A.B.C.D.E.F.G.c.# ",
"H.I.J.K.L.M.L.N.O.P.Q.R.R.S.T.U.V.W.X.Y.Z.`.u. +@ ",
".+++@+#+$+%+&+*+=+-+;+>+E ,+'+)+!+~+{+]+^+/+(+_+:+",
"<+[+}+|+1+2+3+4+5+. 6+7+8+9+# S 0+a+b+c+d+e+f+g+h+",
"i+j+k+k+}+l+m+n+@ * # * o+@ # $ @ p+q+r+s+s+t+u+v+",
"w+x+y+y+y+z+A+B+@ @ . . . @ # $ C+D+E+E+E+F+G+H+I+",
"J+K+K+K+K+L+K+M+# * @ . @ @ # $ k.N+K+K+K+K+K+L+O+",
"@ @ @ . . @ . . @ @ @ @ @ @ # # # # # # # # # # # ",
"* * * * * * + * @ * @ @ @ @ # # # # # # # # # # # ",
"@ @ @ @ @ @ @ @ @ @ @ @ @ @ # & # # # & # # # & # "};
