/* XPM */
static char * view_back_xpm[] = {
"25 25 615 2",
"  	c #88B2CB",
". 	c #91B3D8",
"+ 	c #93A7E2",
"@ 	c #9EA6EE",
"# 	c #A4A3F1",
"$ 	c #A2A1E7",
"% 	c #A4A7DA",
"& 	c #98A5C8",
"* 	c #94ADC3",
"= 	c #90AFC3",
"- 	c #8FAECD",
"; 	c #8FACD4",
"> 	c #92A9DD",
", 	c #96A6E1",
"' 	c #9AA4DF",
") 	c #92AAD6",
"! 	c #79B3C1",
"~ 	c #90BAC8",
"{ 	c #B094C4",
"] 	c #B85888",
"^ 	c #D02E43",
"/ 	c #F7292B",
"( 	c #FF2B25",
"_ 	c #FF261B",
": 	c #FF2B1C",
"< 	c #80ACC7",
"[ 	c #88ABD1",
"} 	c #90A5DE",
"| 	c #9BA4E7",
"1 	c #9F9FE7",
"2 	c #9D9DDD",
"3 	c #9DA5D4",
"4 	c #97A7C8",
"5 	c #92ACC3",
"6 	c #8EAEC3",
"7 	c #8EADCA",
"8 	c #8EACD2",
"9 	c #91A8DA",
"0 	c #93A7DC",
"a 	c #98A5DC",
"b 	c #91A9D5",
"c 	c #7DB0C3",
"d 	c #8FB3C9",
"e 	c #B59ED2",
"f 	c #CB7DAF",
"g 	c #DE5569",
"h 	c #EA3838",
"i 	c #F62924",
"j 	c #FC261E",
"k 	c #FD2C25",
"l 	c #88B9D9",
"m 	c #83ADD3",
"n 	c #92A9DB",
"o 	c #9DA9E3",
"p 	c #9CA1DB",
"q 	c #9BA1D5",
"r 	c #9BAAD1",
"s 	c #96AFCD",
"t 	c #90B3C7",
"u 	c #90B2CE",
"v 	c #93AFD4",
"w 	c #96ADD9",
"x 	c #97ACDB",
"y 	c #95AED7",
"z 	c #8DB1D1",
"A 	c #93ABD1",
"B 	c #AEA4E0",
"C 	c #CB9CD2",
"D 	c #D07C8C",
"E 	c #C44C4B",
"F 	c #CC332E",
"G 	c #E43232",
"H 	c #F02E37",
"I 	c #88B2CA",
"J 	c #6D8DA6",
"K 	c #7885A7",
"L 	c #8585A9",
"M 	c #837C9E",
"N 	c #85819C",
"O 	c #7E8699",
"P 	c #7A8E99",
"Q 	c #728D96",
"R 	c #778A99",
"S 	c #7B879D",
"T 	c #7E859F",
"U 	c #7C86A1",
"V 	c #7987A1",
"W 	c #78889F",
"X 	c #7D8CA1",
"Y 	c #7A819E",
"Z 	c #857CAB",
"` 	c #987CA2",
" .	c #9D6B6C",
"..	c #9E4D3C",
"+.	c #B74135",
"@.	c #E04847",
"#.	c #E82F3F",
"$.	c #6B7E84",
"%.	c #333D3F",
"&.	c #392D31",
"*.	c #452B2C",
"=.	c #442520",
"-.	c #4A2F24",
";.	c #3A3120",
">.	c #343523",
",.	c #2F3624",
"'.	c #323426",
").	c #393027",
"!.	c #3F2E27",
"~.	c #412C27",
"{.	c #383127",
"].	c #363227",
"^.	c #403428",
"/.	c #3F2D2B",
"(.	c #3E2938",
"_.	c #452C30",
":.	c #522F11",
"<.	c #6D3208",
"[.	c #9F3E1E",
"}.	c #D2483D",
"|.	c #EA3141",
"1.	c #88938D",
"2.	c #3B3B33",
"3.	c #412A1C",
"4.	c #4E2A14",
"5.	c #4C2506",
"6.	c #53330D",
"7.	c #3F2F0B",
"8.	c #38340F",
"9.	c #373715",
"0.	c #3B3417",
"a.	c #472F17",
"b.	c #4C2C15",
"c.	c #4E2C13",
"d.	c #492E11",
"e.	c #403311",
"f.	c #403310",
"g.	c #4A320C",
"h.	c #4B3013",
"i.	c #452D21",
"j.	c #432E1B",
"k.	c #4F3B08",
"l.	c #724F15",
"m.	c #A6653B",
"n.	c #D46F5D",
"o.	c #C93C4C",
"p.	c #899591",
"q.	c #313429",
"r.	c #3C2A14",
"s.	c #4C2D0E",
"t.	c #472600",
"u.	c #4F3405",
"v.	c #373101",
"w.	c #35380B",
"x.	c #343611",
"y.	c #393313",
"z.	c #462C11",
"A.	c #4C2A0E",
"B.	c #4D2A0A",
"C.	c #472D08",
"D.	c #3B3408",
"E.	c #393603",
"F.	c #4A3700",
"G.	c #473000",
"H.	c #402B0E",
"I.	c #3D2D0C",
"J.	c #433A00",
"K.	c #594E0E",
"L.	c #7D663A",
"M.	c #9D7865",
"N.	c #CF96A5",
"O.	c #87928A",
"P.	c #2D2F22",
"Q.	c #3E2E15",
"R.	c #4E3411",
"S.	c #462B00",
"T.	c #4E3A05",
"U.	c #383500",
"V.	c #3B3F0C",
"W.	c #35380D",
"X.	c #3C340F",
"Y.	c #482E0D",
"Z.	c #4E2B0B",
"`.	c #4E2C06",
" +	c #473004",
".+	c #3A3702",
"++	c #393900",
"@+	c #4B3E00",
"#+	c #453100",
"$+	c #3E2A07",
"%+	c #42320E",
"&+	c #4A4204",
"*+	c #565212",
"=+	c #747043",
"-+	c #928B7B",
";+	c #AFA4B5",
">+	c #8E9486",
",+	c #2E2F1D",
"'+	c #413319",
")+	c #493512",
"!+	c #473205",
"~+	c #3E2E00",
"{+	c #3D3B02",
"]+	c #2E3100",
"^+	c #413F0E",
"/+	c #3A2F02",
"(+	c #432A02",
"_+	c #52300A",
":+	c #503007",
"<+	c #422C00",
"[+	c #3E3900",
"}+	c #343600",
"|+	c #413A00",
"1+	c #3D3100",
"2+	c #3D2908",
"3+	c #493212",
"4+	c #4E3B01",
"5+	c #5C4D12",
"6+	c #776B45",
"7+	c #948B82",
"8+	c #A9A5BE",
"9+	c #A3A38B",
"0+	c #6A664D",
"a+	c #7C7058",
"b+	c #7A694D",
"c+	c #7B6B47",
"d+	c #7B6E41",
"e+	c #807B43",
"f+	c #777336",
"g+	c #7B7239",
"h+	c #796834",
"i+	c #7D6034",
"j+	c #87663D",
"k+	c #806135",
"l+	c #77612F",
"m+	c #7E753A",
"n+	c #787435",
"o+	c #797039",
"p+	c #806E46",
"q+	c #816854",
"r+	c #876B55",
"s+	c #846A39",
"t+	c #6C5720",
"u+	c #675733",
"v+	c #81776D",
"w+	c #A9A5BC",
"x+	c #BFB290",
"y+	c #B8AD8F",
"z+	c #CBBEAB",
"A+	c #BFB2A1",
"B+	c #C4B8A2",
"C+	c #C7BA98",
"D+	c #C6BA86",
"E+	c #C6B678",
"F+	c #D0BB7A",
"G+	c #D9BF82",
"H+	c #D6B887",
"I+	c #DDBF93",
"J+	c #D2B58B",
"K+	c #CEB887",
"L+	c #D7C78C",
"M+	c #CBBB87",
"N+	c #C7AF93",
"O+	c #D3B5AD",
"P+	c #D1AEB5",
"Q+	c #D2AFAB",
"R+	c #D0B38B",
"S+	c #937C48",
"T+	c #75633B",
"U+	c #958877",
"V+	c #ACA6B2",
"W+	c #B6AC89",
"X+	c #C2BCA4",
"Y+	c #B7B8B3",
"Z+	c #9FA4AA",
"`+	c #A5ACB2",
" @	c #AAADA4",
".@	c #B4AE8C",
"+@	c #CDC08C",
"@@	c #C8B477",
"#@	c #CDBA7F",
"$@	c #CBB87F",
"%@	c #C9B881",
"&@	c #C6B989",
"*@	c #C0BE9B",
"=@	c #C3BE97",
"-@	c #AFA280",
";@	c #B2A2A5",
">@	c #BAA6BF",
",@	c #B59BBE",
"'@	c #BAA1B4",
")@	c #D3BFA6",
"!@	c #8D7C51",
"~@	c #6C5C3A",
"{@	c #9B8B7C",
"]@	c #B0A4B2",
"^@	c #ABB197",
"/@	c #AAB7AE",
"(@	c #708CA4",
"_@	c #4D729E",
":@	c #557BAA",
"<@	c #5F7E9D",
"[@	c #808F8C",
"}@	c #BCBFA2",
"|@	c #C0BC8D",
"1@	c #C3C092",
"2@	c #C1BD91",
"3@	c #BFBD96",
"4@	c #BDBD9A",
"5@	c #BCBD9F",
"6@	c #B7BBA4",
"7@	c #919A95",
"8@	c #69799D",
"9@	c #6979B4",
"0@	c #666EAF",
"a@	c #797AA6",
"b@	c #B1B0AC",
"c@	c #726E55",
"d@	c #584D3B",
"e@	c #8F7D7D",
"f@	c #B69EBE",
"g@	c #AFB79F",
"h@	c #AABEBC",
"i@	c #5E88B2",
"j@	c #467BBF",
"k@	c #4A7FCB",
"l@	c #527CB6",
"m@	c #798C9B",
"n@	c #BFC3B2",
"o@	c #C1BF98",
"p@	c #BDBE94",
"q@	c #BEBE98",
"r@	c #C2C098",
"s@	c #BEBE9B",
"t@	c #BABDA7",
"u@	c #ADB6B0",
"v@	c #899AA4",
"w@	c #5579A9",
"x@	c #5077BC",
"y@	c #5971BB",
"z@	c #737FB3",
"A@	c #BABEBF",
"B@	c #7E7963",
"C@	c #665948",
"D@	c #937F80",
"E@	c #AAA98A",
"F@	c #B0BDB6",
"G@	c #638CBA",
"H@	c #5088D5",
"I@	c #4C83DD",
"J@	c #547FC3",
"K@	c #7F8C9F",
"L@	c #BEB9A6",
"M@	c #C7C195",
"N@	c #C0C093",
"O@	c #C1C296",
"P@	c #C6C299",
"Q@	c #BFC09E",
"R@	c #B8BDAA",
"S@	c #ABB4B2",
"T@	c #8F9CA7",
"U@	c #5580AA",
"V@	c #4D7BB7",
"W@	c #627BBB",
"X@	c #7C83AD",
"Y@	c #C3BFB4",
"Z@	c #897B58",
"`@	c #776243",
" #	c #978173",
".#	c #B3A2B2",
"+#	c #ACB286",
"@#	c #B8C6B5",
"##	c #678AB0",
"$#	c #4E7DC5",
"%#	c #4371C6",
"&#	c #547ABB",
"*#	c #8794A5",
"=#	c #C0C2AD",
"-#	c #BDC192",
";#	c #B7C295",
">#	c #BDBF92",
",#	c #BEBF99",
"'#	c #B5BDAC",
")#	c #B1BAB6",
"!#	c #829298",
"~#	c #54819E",
"{#	c #4A7BA3",
"]#	c #6480A8",
"^#	c #788399",
"/#	c #BAB7A4",
"(#	c #847653",
"_#	c #7C6949",
":#	c #988775",
"<#	c #AFA6AB",
"[#	c #ACC689",
"}#	c #A3BE9B",
"|#	c #7693A3",
"1#	c #5874A4",
"2#	c #5B78B4",
"3#	c #5F7AA9",
"4#	c #7B9095",
"5#	c #B1C5AA",
"6#	c #B0C697",
"7#	c #B3C497",
"8#	c #AFC599",
"9#	c #B5C495",
"0#	c #B5C39C",
"a#	c #B2BDAF",
"b#	c #B0BEB9",
"c#	c #869F9E",
"d#	c #5B868C",
"e#	c #4B7780",
"f#	c #618085",
"g#	c #7B8E8A",
"h#	c #BEC6B1",
"i#	c #807E65",
"j#	c #726C56",
"k#	c #91897E",
"l#	c #ABA6AC",
"m#	c #A1BC85",
"n#	c #A8C19A",
"o#	c #92A4A4",
"p#	c #7E8DA4",
"q#	c #8593B0",
"r#	c #8393A2",
"s#	c #8CA190",
"t#	c #AFC8A1",
"u#	c #AEC397",
"v#	c #ADC39B",
"w#	c #A9C399",
"x#	c #AAC397",
"y#	c #ADC29A",
"z#	c #B1C0AC",
"A#	c #ACC1B1",
"B#	c #91AA94",
"C#	c #7D9F91",
"D#	c #709186",
"E#	c #7F9787",
"F#	c #899883",
"G#	c #B7BDA3",
"H#	c #75735A",
"I#	c #6E6754",
"J#	c #B1A8A9",
"K#	c #ABB293",
"L#	c #BEC3AC",
"M#	c #BABDB6",
"N#	c #B0B2AF",
"O#	c #B7BBAD",
"P#	c #B4BA9E",
"Q#	c #B2BC88",
"R#	c #C1CC94",
"S#	c #B8C59D",
"T#	c #B7BFA2",
"U#	c #BAC3A1",
"V#	c #B9C59F",
"W#	c #BAC69E",
"X#	c #B8C498",
"Y#	c #BBC595",
"Z#	c #B8C790",
"`#	c #B3C8A9",
" $	c #ADC0AA",
".$	c #BAC4A9",
"+$	c #B8B99A",
"@$	c #CDC4A3",
"#$	c #8A7B5A",
"$$	c #826F51",
"%$	c #A38E79",
"&$	c #B6A299",
"*$	c #9EAD86",
"=$	c #B4C29F",
"-$	c #B8C5AB",
";$	c #B3C0A2",
">$	c #B9C89D",
",$	c #B9CB8F",
"'$	c #B2C778",
")$	c #B4C97C",
"!$	c #B3C48D",
"~$	c #A7B68D",
"{$	c #A0AE89",
"]$	c #A5B18C",
"^$	c #A3B086",
"/$	c #AFC082",
"($	c #AFC57C",
"_$	c #B4CC7D",
":$	c #AAC791",
"<$	c #ACC79C",
"[$	c #BACD9F",
"}$	c #B7C18F",
"|$	c #BBBE89",
"1$	c #7F7C49",
"2$	c #726A3B",
"3$	c #877F58",
"4$	c #B0A98C",
"5$	c #84B365",
"6$	c #93C179",
"7$	c #95C088",
"8$	c #8FBA84",
"9$	c #93BF80",
"0$	c #97C57A",
"a$	c #95C768",
"b$	c #92C461",
"c$	c #8CBD64",
"d$	c #87B667",
"e$	c #7FAB6B",
"f$	c #7CA86C",
"g$	c #7CA76D",
"h$	c #7EAA6C",
"i$	c #81AF69",
"j$	c #84B466",
"k$	c #88C170",
"l$	c #8BC37A",
"m$	c #97C77B",
"n$	c #96C172",
"o$	c #9BBE6E",
"p$	c #759144",
"q$	c #68843A",
"r$	c #75904D",
"s$	c #7E9D61",
"t$	c #41961D",
"u$	c #429627",
"v$	c #41913A",
"w$	c #3F8D41",
"x$	c #3E8C40",
"y$	c #43933C",
"z$	c #45982C",
"A$	c #439821",
"B$	c #3E931E",
"C$	c #43962A",
"D$	c #398831",
"E$	c #418F42",
"F$	c #408D44",
"G$	c #3D8B3B",
"H$	c #449731",
"I$	c #3F9526",
"J$	c #449C34",
"K$	c #449C36",
"L$	c #479A32",
"M$	c #4A972D",
"N$	c #549831",
"O$	c #488B24",
"P$	c #458725",
"Q$	c #4C8F30",
"R$	c #468F35",
"S$	c #31B00B",
"T$	c #29A50F",
"U$	c #2AA12D",
"V$	c #2EA142",
"W$	c #2C9D4B",
"X$	c #2B9D45",
"Y$	c #2EA432",
"Z$	c #2CA620",
"`$	c #2EAA18",
" %	c #30AC1A",
".%	c #29A31D",
"+%	c #2AA129",
"@%	c #2AA032",
"#%	c #279C33",
"$%	c #31A739",
"%%	c #2DA632",
"&%	c #26A226",
"*%	c #27A422",
"=%	c #289F1F",
"-%	c #2D9D1D",
";%	c #329F20",
">%	c #36A024",
",%	c #38A228",
"'%	c #38A52E",
")%	c #2FA12F",
"!%	c #24B404",
"~%	c #18A604",
"{%	c #1DA622",
"]%	c #28AE3F",
"^%	c #25A946",
"/%	c #20A43E",
"(%	c #20A82C",
"_%	c #1DA81B",
":%	c #17A408",
"<%	c #1EAC0C",
"[%	c #21AD16",
"}%	c #21AC1F",
"|%	c #23AC2B",
"1%	c #1DA42B",
"2%	c #20A72F",
"3%	c #19A123",
"4%	c #1BA81C",
"5%	c #22AD1C",
"6%	c #24AC1C",
"7%	c #29A91E",
"8%	c #28A51D",
"9%	c #2DA923",
"0%	c #29A624",
"a%	c #22A523",
"b%	c #1FA827",
"c%	c #23AA0F",
"d%	c #23A914",
"e%	c #23A622",
"f%	c #23A529",
"g%	c #23A42D",
"h%	c #23A71E",
"i%	c #23A819",
"j%	c #23A916",
"k%	c #23A817",
"l%	c #23A720",
"m%	c #23A626",
"n%	c #23A527",
"o%	c #23A81B",
"p%	c #22AB17",
"q%	c #24AA15",
"r%	c #27A817",
"s%	c #29A61A",
"t%	c #2CA41E",
"u%	c #2BA51F",
"v%	c #29A523",
"w%	c #25A625",
"x%	c #20A927",
"  . + @ # $ % & * = - ; > , ' ) ! ~ { ] ^ / ( _ : ",
"< [ } | 1 2 3 4 5 6 7 8 9 0 a b c d e f g h i j k ",
"l m n o p q r s t d u v w x x y z A B C D E F G H ",
"I J K L M N O P Q Q R S T U V W X Y Z `  ...+.@.#.",
"$.%.&.*.=.-.;.>.,.'.).!.~.!.{.].^./.(._.:.<.[.}.|.",
"1.2.3.4.5.6.7.8.9.0.a.b.c.d.e.f.g.h.i.j.k.l.m.n.o.",
"p.q.r.s.t.u.v.w.x.y.z.A.B.C.D.E.F.G.H.I.J.K.L.M.N.",
"O.P.Q.R.S.T.U.V.W.X.Y.Z.`. +.+++@+#+$+%+&+*+=+-+;+",
">+,+'+)+!+~+{+]+^+/+(+_+:+<+[+}+|+1+2+3+4+5+6+7+8+",
"9+0+a+b+c+d+e+f+g+h+i+j+k+l+m+n+o+p+q+r+s+t+u+v+w+",
"x+y+z+A+B+C+D+E+F+G+H+I+J+K+L+M+N+O+P+Q+R+S+T+U+V+",
"W+X+Y+Z+`+ @.@+@@@#@$@%@&@*@=@-@;@>@,@'@)@!@~@{@]@",
"^@/@(@_@:@<@[@}@|@1@2@3@4@5@6@7@8@9@0@a@b@c@d@e@f@",
"g@h@i@j@k@l@m@n@o@p@q@r@s@t@u@v@w@x@y@z@A@B@C@D@f@",
"E@F@G@H@I@J@K@L@M@N@O@P@Q@R@S@T@U@V@W@X@Y@Z@`@ #.#",
"+#@###$#%#&#*#=#|@-#;#>#,#'#)#!#~#{#]#^#/#(#_#:#<#",
"[#}#|#1#2#3#4#5#6#7#8#9#0#a#b#c#d#e#f#g#h#i#j#k#l#",
"m#n#o#p#q#r#s#t#u#v#w#x#y#z#A#B#C#D#E#F#G#H#I#k#J#",
"K#L#M#N#O#P#Q#R#S#T#U#V#W#X#Y#Z#`# $.$+$@$#$$$%$&$",
"*$=$-$;$>$,$'$)$!$~${$]$^$/$($_$:$<$[$}$|$1$2$3$4$",
"5$6$7$8$9$0$a$b$c$d$e$f$g$h$i$j$k$l$m$n$o$p$q$r$s$",
"t$u$v$w$x$y$z$A$B$C$D$E$F$G$H$I$J$K$L$M$N$O$P$Q$R$",
"S$T$U$V$W$X$Y$Z$`$ %.%+%@%#%$%%%&%*%=%-%;%>%,%'%)%",
"!%~%{%]%^%/%(%_%:%<%[%}%|%1%2%3%4%5%6%7%8%9%0%a%b%",
"c%d%e%f%g%f%h%i%j%k%l%m%f%n%e%o%p%q%r%s%t%u%v%w%x%"};
