/* XPM */
static char * view_left_xpm[] = {
"25 25 491 2",
"  	c #99A0FA",
". 	c #96A3F1",
"+ 	c #93A8E1",
"@ 	c #8DADD6",
"# 	c #8BAFD3",
"$ 	c #88B0D4",
"% 	c #86AEDF",
"& 	c #88ADE1",
"* 	c #8BADDD",
"= 	c #8BABD4",
"- 	c #91B0CC",
"; 	c #90AECA",
"> 	c #85A3C9",
", 	c #87A4DE",
"' 	c #92ACFF",
") 	c #8DB1FF",
"! 	c #78B0E3",
"~ 	c #94B8D8",
"{ 	c #B095B6",
"] 	c #B05672",
"^ 	c #CD2B43",
"/ 	c #F92939",
"( 	c #FF2933",
"_ 	c #FF201F",
": 	c #FF271E",
"< 	c #99A1F4",
"[ 	c #96A4EB",
"} 	c #92A9DD",
"| 	c #8FACD4",
"1 	c #8BAED4",
"2 	c #88AFD8",
"3 	c #89AEE2",
"4 	c #8BAEE4",
"5 	c #89A7DB",
"6 	c #9DB8E3",
"7 	c #95B0CD",
"8 	c #8DA7C0",
"9 	c #9FB7D9",
"0 	c #9CB3E5",
"a 	c #88A0EA",
"b 	c #84A4EF",
"c 	c #80B4E4",
"d 	c #8CB0D2",
"e 	c #AD9EBF",
"f 	c #C8819F",
"g 	c #D5536D",
"h 	c #DC2D3E",
"i 	c #F2252C",
"j 	c #FF302E",
"k 	c #FF2B20",
"l 	c #98A5E9",
"m 	c #96A6E2",
"n 	c #92AAD8",
"o 	c #8EACD2",
"p 	c #8BAED6",
"q 	c #8AAFDC",
"r 	c #8EAEE9",
"s 	c #91ADEC",
"t 	c #95ABE5",
"u 	c #94A9D6",
"v 	c #8C9DB9",
"w 	c #94A5B9",
"x 	c #A5B6CA",
"y 	c #95A6C4",
"z 	c #8698CA",
"A 	c #95AEE4",
"B 	c #89B4DF",
"C 	c #88ABD1",
"D 	c #9FA7CC",
"E 	c #BFA4C5",
"F 	c #CA84A0",
"G 	c #BF5265",
"H 	c #C8373E",
"I 	c #E1362F",
"J 	c #F13220",
"K 	c #99A9DD",
"L 	c #95AAD9",
"M 	c #91AAD2",
"N 	c #8EACD0",
"O 	c #8CADD6",
"P 	c #8EAEE1",
"Q 	c #91ADEE",
"R 	c #97ACEF",
"S 	c #919FDC",
"T 	c #A0ABD9",
"U 	c #9EA5BF",
"V 	c #868E99",
"W 	c #6F767C",
"X 	c #677079",
"Y 	c #81899E",
"Z 	c #A7B6D5",
"` 	c #92AED3",
" .	c #92AFD7",
"..	c #96A9D1",
"+.	c #A2A2C8",
"@.	c #B69BBE",
"#.	c #C488A2",
"$.	c #C15C6C",
"%.	c #BC3134",
"&.	c #E3352A",
"*.	c #97ABD0",
"=.	c #93ABCF",
"-.	c #90ADCD",
";.	c #8EACCE",
">.	c #90ABE0",
",.	c #95AAED",
"'.	c #9BA8EC",
").	c #959AD4",
"!.	c #B4B3DD",
"~.	c #AEABBC",
"{.	c #6F6B6A",
"].	c #3C382C",
"^.	c #4D4A3B",
"/.	c #7D7A71",
"(.	c #929397",
"_.	c #9CA8C2",
":.	c #9EB0D6",
"<.	c #99ACD7",
"[.	c #94A1CE",
"}.	c #A5A3D2",
"|.	c #C4A5D1",
"1.	c #CB81A6",
"2.	c #C54D68",
"3.	c #DE3643",
"4.	c #94ABCB",
"5.	c #93ACCB",
"6.	c #90ADCB",
"7.	c #8FADCF",
"8.	c #90ABD6",
"9.	c #92A9DB",
"0.	c #96A6E1",
"a.	c #9CA2DC",
"b.	c #A09CCE",
"c.	c #B3A8C8",
"d.	c #7A6B72",
"e.	c #59493C",
"f.	c #8F744B",
"g.	c #82683F",
"h.	c #5F502F",
"i.	c #968978",
"j.	c #A09AA6",
"k.	c #A2A3C2",
"l.	c #A0ACD2",
"m.	c #9EACD9",
"n.	c #A0AADF",
"o.	c #ACA5D9",
"p.	c #BF97C9",
"q.	c #D589B0",
"r.	c #B8415D",
"s.	c #91A9CB",
"t.	c #91ABCC",
"u.	c #91AED0",
"v.	c #91ADD2",
"w.	c #92ABD3",
"x.	c #92A7D2",
"y.	c #97A2CF",
"z.	c #9D9FC6",
"A.	c #B4AAC5",
"B.	c #5B4752",
"C.	c #886D64",
"D.	c #B6987C",
"E.	c #BF9865",
"F.	c #A77E49",
"G.	c #BD9E6F",
"H.	c #967957",
"I.	c #99807C",
"J.	c #9C8B9D",
"K.	c #A29EB9",
"L.	c #A5AAD0",
"M.	c #9DA9D9",
"N.	c #98A4D8",
"O.	c #A2A5D8",
"P.	c #B4ADD9",
"Q.	c #B69EC2",
"R.	c #90A9D1",
"S.	c #91ADD5",
"T.	c #94ADD5",
"U.	c #94ACD2",
"V.	c #96A6C7",
"W.	c #9AA1BB",
"X.	c #9F9DAB",
"Y.	c #574748",
"Z.	c #A78D80",
"`.	c #D6B291",
" +	c #CAA373",
".+	c #D0A975",
"++	c #CCA46F",
"@+	c #CDA46F",
"#+	c #DAB587",
"$+	c #876C57",
"%+	c #8D7E7B",
"&+	c #979299",
"*+	c #989DB1",
"=+	c #96A5C6",
"-+	c #94ABD5",
";+	c #90ACDB",
">+	c #8AA9D8",
",+	c #91ACD9",
"'+	c #97B1E4",
")+	c #95AFE2",
"!+	c #8EA5D7",
"~+	c #8BA2CC",
"{+	c #98ACCD",
"]+	c #99A8BB",
"^+	c #767B7E",
"/+	c #4D4739",
"(+	c #B39F84",
"_+	c #DDBD96",
":+	c #D8AE7E",
"<+	c #D6B17D",
"[+	c #D5B07C",
"}+	c #D5AE7A",
"|+	c #D2A975",
"1+	c #D6B07C",
"2+	c #CFC299",
"3+	c #999E80",
"4+	c #6A735E",
"5+	c #697871",
"6+	c #99ADB4",
"7+	c #A2BCD3",
"8+	c #86A6CC",
"9+	c #88ACDC",
"0+	c #8AADE7",
"a+	c #90A8E4",
"b+	c #839CD5",
"c+	c #93A9E2",
"d+	c #A8BDEC",
"e+	c #889BB9",
"f+	c #59666E",
"g+	c #6F7261",
"h+	c #B0A883",
"i+	c #CAB580",
"j+	c #DAB581",
"k+	c #C3B682",
"l+	c #C3C999",
"m+	c #B0B891",
"n+	c #728066",
"o+	c #607468",
"p+	c #85A1A5",
"q+	c #97B9D2",
"r+	c #8BB0DA",
"s+	c #87AEE7",
"t+	c #92A7EA",
"u+	c #8DA2E3",
"v+	c #97ABE8",
"w+	c #9DB2E1",
"x+	c #8696B0",
"y+	c #727C7B",
"z+	c #989977",
"A+	c #D9CF94",
"B+	c #CFBD89",
"C+	c #D1C99A",
"D+	c #ADAF88",
"E+	c #818E74",
"F+	c #859D90",
"G+	c #98B6C0",
"H+	c #89ACC8",
"I+	c #8CAEDE",
"J+	c #96ABEC",
"K+	c #99ACEE",
"L+	c #92A6E3",
"M+	c #8A9CCC",
"N+	c #97A6BD",
"O+	c #B3BDB5",
"P+	c #C5C498",
"Q+	c #CBB381",
"R+	c #D4C89E",
"S+	c #BEC1A4",
"T+	c #9BA99C",
"U+	c #92A9AF",
"V+	c #8EACC4",
"W+	c #8EAED7",
"X+	c #93A7E2",
"Y+	c #90A4DF",
"Z+	c #8EA1DC",
"`+	c #96A7D5",
" @	c #A5B1C9",
".@	c #B4BBB3",
"+@	c #C0BF90",
"@@	c #D2A678",
"#@	c #C6A885",
"$@	c #C3B3A3",
"%@	c #A8A7A5",
"&@	c #9CA8B6",
"*@	c #9EB3CE",
"=@	c #91ADD4",
"-@	c #90A6D7",
";@	c #93A7DA",
">@	c #97A8DE",
",@	c #9BA9D6",
"'@	c #A0AAC3",
")@	c #ACB1AA",
"!@	c #BEBA8F",
"~@	c #C49E7F",
"{@	c #CBB3AF",
"]@	c #B0A4B2",
"^@	c #9FA0BE",
"/@	c #9EACD1",
"(@	c #93ACD5",
"_@	c #93A9D0",
":@	c #9CB2DB",
"<@	c #9CAEDE",
"[@	c #93A2CD",
"}@	c #9CA6BF",
"|@	c #B6BBB7",
"1@	c #C4C09D",
"2@	c #CFAB8A",
"3@	c #DBC1CC",
"4@	c #B29EC1",
"5@	c #A39BCC",
"6@	c #99A0D6",
"7@	c #93AADC",
"8@	c #8FACD6",
"9@	c #93A9D8",
"0@	c #99ABD1",
"a@	c #A1AEC1",
"b@	c #AEB3AD",
"c@	c #BDBA99",
"d@	c #C4AB7C",
"e@	c #C1ACB3",
"f@	c #A594B6",
"g@	c #B1AADD",
"h@	c #9EA4DE",
"i@	c #88B2EE",
"j@	c #8AB1E8",
"k@	c #8DAFDC",
"l@	c #90ABC9",
"m@	c #9BADB7",
"n@	c #AEB6A9",
"o@	c #BCBB9A",
"p@	c #C2AF73",
"q@	c #CDC6B6",
"r@	c #AAA9B1",
"s@	c #A1A7C7",
"t@	c #99A7D6",
"u@	c #91AAE2",
"v@	c #7EA7E7",
"w@	c #83AAE1",
"x@	c #89AAD5",
"y@	c #90AAC1",
"z@	c #A0AFB2",
"A@	c #B6BAA9",
"B@	c #C9C2A0",
"C@	c #C1AC76",
"D@	c #BAB59F",
"E@	c #9A9B9F",
"F@	c #9CA3BD",
"G@	c #92A6E1",
"H@	c #92B0E6",
"I@	c #96B1E0",
"J@	c #99ADD0",
"K@	c #9DAABD",
"L@	c #A7ABAC",
"M@	c #B9B2A2",
"N@	c #C9B696",
"O@	c #CFB58C",
"P@	c #CCB38E",
"Q@	c #C8B9B2",
"R@	c #AEA6B3",
"S@	c #AEADCF",
"T@	c #A5ABDD",
"U@	c #9EA8E6",
"V@	c #8EA8CD",
"W@	c #92A9C9",
"X@	c #97A9BF",
"Y@	c #9DA7B0",
"Z@	c #ABACA6",
"`@	c #BDB5A0",
" #	c #CEBA97",
".#	c #D3BA91",
"+#	c #D7B789",
"@#	c #C7B499",
"##	c #C7BDB4",
"$#	c #AFACB5",
"%#	c #A8A9C5",
"&#	c #949CC3",
"*#	c #97A5D6",
"=#	c #90B2BE",
"-#	c #95B3BB",
";#	c #98B2B3",
">#	c #9BAFA6",
",#	c #A5B19D",
"'#	c #B7B899",
")#	c #C4BB92",
"!#	c #CDBB89",
"~#	c #D6B882",
"{#	c #D7B47F",
"]#	c #D6B483",
"^#	c #B8B594",
"/#	c #B7BAA7",
"(#	c #A2ADA5",
"_#	c #A2B3BA",
":#	c #98AFBF",
"<#	c #97B1C8",
"[#	c #83B8A8",
"}#	c #86B9A6",
"|#	c #8BB8A1",
"1#	c #8EB799",
"2#	c #99B994",
"3#	c #A9C092",
"4#	c #B5C38E",
"5#	c #C7BC83",
"6#	c #CCB87F",
"7#	c #CBB37B",
"8#	c #D6B37F",
"9#	c #D9B580",
"0#	c #D8B581",
"a#	c #D5B681",
"b#	c #D1B780",
"c#	c #CEB87F",
"d#	c #CABA85",
"e#	c #BAD19B",
"f#	c #B0CDA1",
"g#	c #8EB28E",
"h#	c #8DB89C",
"i#	c #8CBBA7",
"j#	c #86B9AA",
"k#	c #469A69",
"l#	c #4C9E6D",
"m#	c #55A36F",
"n#	c #5FA871",
"o#	c #70B177",
"p#	c #84BF7F",
"q#	c #95C883",
"r#	c #9EC981",
"s#	c #9DC67C",
"t#	c #9BC379",
"u#	c #95BC70",
"v#	c #90B668",
"w#	c #8AB160",
"x#	c #86B05A",
"y#	c #86B65A",
"z#	c #8ABC60",
"A#	c #91C86D",
"B#	c #96CE74",
"C#	c #9BCC76",
"D#	c #94D07A",
"E#	c #86CA77",
"F#	c #59A253",
"G#	c #4E9C51",
"H#	c #499C56",
"I#	c #4DA460",
"J#	c #2D9C4F",
"K#	c #309C50",
"L#	c #329A4D",
"M#	c #309547",
"N#	c #369446",
"O#	c #409748",
"P#	c #469844",
"Q#	c #4B9540",
"R#	c #599E45",
"S#	c #498A2D",
"T#	c #53902F",
"U#	c #59932C",
"V#	c #528B1F",
"W#	c #599222",
"X#	c #5A901E",
"Y#	c #528D1C",
"Z#	c #408916",
"`#	c #57A736",
" $	c #398D1D",
".$	c #3A9423",
"+$	c #46A638",
"@$	c #329528",
"#$	c #329C30",
"$$	c #34A136",
"%$	c #2D9E34",
"&$	c #21A23E",
"*$	c #24A03E",
"=$	c #269F3E",
"-$	c #2A9D3E",
";$	c #2D9C3D",
">$	c #319A3B",
",$	c #359939",
"'$	c #399834",
")$	c #3C9730",
"!$	c #3F962B",
"~$	c #409726",
"{$	c #429720",
"]$	c #43971D",
"^$	c #459719",
"/$	c #429819",
"($	c #3D9C1E",
"_$	c #399E1E",
":$	c #369F1F",
"<$	c #33A01F",
"[$	c #2FA21F",
"}$	c #2CA41F",
"|$	c #29A521",
"1$	c #27A621",
"2$	c #24A821",
"  . + @ # $ % & * = - ; > , ' ) ! ~ { ] ^ / ( _ : ",
"< [ } | 1 2 3 4 5 6 7 8 9 0 a b c d e f g h i j k ",
"l m n o p q r s t u v w x y z A B C D E F G H I J ",
"K L M N O P Q R S T U V W X Y Z `  ...+.@.#.$.%.&.",
"*.=.-.;.@ >.,.'.).!.~.{.].^./.(._.:.<.[.}.|.1.2.3.",
"4.5.6.7.8.9.0.a.b.c.d.e.f.g.h.i.j.k.l.m.n.o.p.q.r.",
"s.t.u.v.w.x.y.z.A.B.C.D.E.F.G.H.I.J.K.L.M.N.O.P.Q.",
"R.M S.T.U.V.W.X.Y.Z.`. +.+++@+#+$+%+&+*+=+-+;+>+,+",
"'+)+!+~+{+]+^+/+(+_+:+<+[+}+|+1+2+3+4+5+6+7+8+9+0+",
"a+b+c+d+e+f+g+h+i+j+j+j+j+j+j+j+k+l+m+n+o+p+q+r+s+",
"t+u+v+w+x+y+z+A+j+j+j+j+j+j+j+j+j+B+C+D+E+F+G+H+I+",
"J+K+L+M+N+O+P+j+j+j+j+j+j+j+j+j+j+j+Q+R+S+T+U+V+W+",
"X+Y+Z+`+ @.@+@j+j+j+j+j+j+j+j+j+j+j+@@#@$@%@&@*@=@",
"-@;@>@,@'@)@!@j+j+j+j+j+j+j+j+j+j+j+j+~@{@]@^@/@(@",
"_@:@<@[@}@|@1@j+j+j+j+j+j+j+j+j+j+j+j+2@3@4@5@6@7@",
"8@8.9@0@a@b@c@j+j+j+j+j+j+j+j+j+j+j+j+d@e@f@g@h@c+",
"i@j@k@l@m@n@o@j+j+j+j+j+j+j+j+j+j+j+j+p@q@r@s@t@u@",
"v@w@x@y@z@A@B@j+j+j+j+j+j+j+j+j+j+j+j+C@D@E@F@,@G@",
"H@I@J@K@L@M@N@O@j+j+j+j+j+j+j+j+j+j+j+P@Q@R@S@T@U@",
"V@W@X@Y@Z@`@ #.#+#j+j+j+j+j+j+j+j+j+j+@###$#%#&#*#",
"=#-#;#>#,#'#)#!#~#{#j+j+j+j+j+j+j+j+]#^#/#(#_#:#<#",
"[#}#|#1#2#3#4#5#6#7#j+8#9#0#0#a#b#c#d#e#f#g#h#i#j#",
"k#l#m#n#o#p#q#r#s#t#u#v#w#x#y#z#A#B#C#D#E#F#G#H#I#",
"J#K#L#M#N#O#P#Q#R#S#T#U#V#W#X#Y#Z#`# $.$+$@$#$$$%$",
"&$&$*$=$-$;$>$,$'$)$!$~${$]$^$/$($_$:$<$[$}$|$1$2$"};
