/* XPM */
static char * view_persp_xpm[] = {
"25 25 623 2",
"  	c None",
". 	c #97ACAD",
"+ 	c #9AB0BE",
"@ 	c #96ABD6",
"# 	c #8FA4E5",
"$ 	c #8CA3F1",
"% 	c #8FA8F8",
"& 	c #91AAEC",
"* 	c #8CA7DC",
"= 	c #94ADD6",
"- 	c #8DA7CC",
"; 	c #8AA5D2",
"> 	c #91ADDD",
", 	c #92B3E9",
"' 	c #8CB1E6",
") 	c #82AEDF",
"! 	c #80ACD9",
"~ 	c #85ACD7",
"{ 	c #A2ABD6",
"] 	c #BA89B6",
"^ 	c #BE517B",
"/ 	c #D72B53",
"( 	c #FE2844",
"_ 	c #FF2A33",
": 	c #FF231A",
"< 	c #FF2C0F",
"[ 	c #94AAB7",
"} 	c #94AAC2",
"| 	c #95A9DB",
"1 	c #95AAEB",
"2 	c #90A6F1",
"3 	c #8EA5EB",
"4 	c #95ACE2",
"5 	c #9FB6DF",
"6 	c #92A9C8",
"7 	c #9FB7D3",
"8 	c #9DB5D9",
"9 	c #8BA3CF",
"0 	c #7F9DD1",
"a 	c #87ABDF",
"b 	c #8CB4E5",
"c 	c #88B3E0",
"d 	c #88B3DD",
"e 	c #95A8D0",
"f 	c #B397BF",
"g 	c #CD7DA2",
"h 	c #D54E6C",
"i 	c #D6263A",
"j 	c #EA2225",
"k 	c #FF3429",
"l 	c #FD2F17",
"m 	c #97ADD2",
"n 	c #98ADDA",
"o 	c #95A9E4",
"p 	c #95A8EC",
"q 	c #97AAEC",
"r 	c #99ADE2",
"s 	c #95A8C8",
"t 	c #8DA0AF",
"u 	c #96A9AF",
"v 	c #8A9DA4",
"w 	c #8EA0B6",
"x 	c #A1B4D5",
"y 	c #9EB4E3",
"z 	c #88A4D4",
"A 	c #82A2D3",
"B 	c #8BB4E0",
"C 	c #86B7DF",
"D 	c #86AFCF",
"E 	c #A0AECB",
"F 	c #C1AEC2",
"G 	c #C68A96",
"H 	c #B75457",
"I 	c #C03935",
"J 	c #E33D31",
"K 	c #F13323",
"L 	c #91ACDB",
"M 	c #96ADE1",
"N 	c #91A5E2",
"O 	c #8EA0DE",
"P 	c #9EAEE2",
"Q 	c #A5B3D8",
"R 	c #86929E",
"S 	c #5A6561",
"T 	c #3B453A",
"U 	c #747D78",
"V 	c #9FA7B2",
"W 	c #9CA8C0",
"X 	c #94A4C8",
"Y 	c #9AB0D9",
"Z 	c #9AB4D9",
"` 	c #88ACCE",
" .	c #7CB2CC",
"..	c #7EB5C9",
"+.	c #88B7C1",
"@.	c #9AB6B9",
"#.	c #AFAFA7",
"$.	c #B99587",
"%.	c #B46554",
"&.	c #B33826",
"*.	c #E0382B",
"=.	c #8BACD9",
"-.	c #89A8D7",
";.	c #8DA4DA",
">.	c #98AADC",
",.	c #9FABD1",
"'.	c #8E95A8",
").	c #62645F",
"!.	c #393A28",
"~.	c #34321D",
"{.	c #302D1E",
"].	c #4A484B",
"^.	c #7F8190",
"/.	c #9CA2BA",
"(.	c #96A2BA",
"_.	c #93A6B7",
":.	c #98B8C3",
"<.	c #85B7BE",
"[.	c #80BEBD",
"}.	c #76B8AE",
"|.	c #76B19D",
"1.	c #8EB99B",
"2.	c #AAB895",
"3.	c #B18F6C",
"4.	c #AC573A",
"5.	c #CF412D",
"6.	c #92BED7",
"7.	c #87AFC9",
"8.	c #92AFCF",
"9.	c #A2B5D3",
"0.	c #8E96A9",
"a.	c #595A5E",
"b.	c #393323",
"c.	c #3A3015",
"d.	c #3D2F14",
"e.	c #3D2E1B",
"f.	c #322421",
"g.	c #322830",
"h.	c #55545C",
"i.	c #858A8E",
"j.	c #8C9992",
"k.	c #728A7C",
"l.	c #648F7E",
"m.	c #528C74",
"n.	c #438665",
"o.	c #3C8558",
"p.	c #428852",
"q.	c #4F8549",
"r.	c #64783D",
"s.	c #7C6730",
"t.	c #A05C2D",
"u.	c #7FB9AB",
"v.	c #7AADA4",
"w.	c #7DA4A3",
"x.	c #7A9294",
"y.	c #5C6564",
"z.	c #363229",
"A.	c #32230E",
"B.	c #442F14",
"C.	c #482E17",
"D.	c #472D1C",
"E.	c #48302C",
"F.	c #43312F",
"G.	c #312821",
"H.	c #2C2B19",
"I.	c #4B512D",
"J.	c #707F54",
"K.	c #688157",
"L.	c #5A8152",
"M.	c #50854D",
"N.	c #498E4B",
"O.	c #3E8F42",
"P.	c #388C36",
"Q.	c #419235",
"R.	c #549C39",
"S.	c #528A27",
"T.	c #4C9462",
"U.	c #59986B",
"V.	c #538164",
"W.	c #37533D",
"X.	c #29301E",
"Y.	c #342C17",
"Z.	c #463114",
"`.	c #4C2F11",
" +	c #4B2C10",
".+	c #4C2D18",
"++	c #472B20",
"@+	c #402A1F",
"#+	c #3E2F1C",
"$+	c #413819",
"%+	c #3F3D0A",
"&+	c #353D01",
"*+	c #576B2E",
"=+	c #547735",
"-+	c #56853D",
";+	c #51903F",
">+	c #48993D",
",+	c #3D9D39",
"'+	c #34A031",
")+	c #2CA12C",
"!+	c #2BA327",
"~+	c #3A8F3A",
"{+	c #4B984A",
"]+	c #3A7138",
"^+	c #1D3E13",
"/+	c #293310",
"(+	c #3D3511",
"_+	c #452F06",
":+	c #4D3006",
"<+	c #4B2B05",
"[+	c #503112",
"}+	c #4E321D",
"|+	c #452C18",
"1+	c #3F2B12",
"2+	c #40320D",
"3+	c #403500",
"4+	c #333600",
"5+	c #233F00",
"6+	c #234E00",
"7+	c #417522",
"8+	c #528E36",
"9+	c #4E9839",
"0+	c #479D38",
"a+	c #309327",
"b+	c #2FA02C",
"c+	c #28A428",
"d+	c #3A9B30",
"e+	c #3A8F31",
"f+	c #68A85E",
"g+	c #7AA16A",
"h+	c #49562A",
"i+	c #332C02",
"j+	c #473301",
"k+	c #4A2F00",
"l+	c #4A2E00",
"m+	c #462900",
"n+	c #472D0C",
"o+	c #4A3314",
"p+	c #432E11",
"q+	c #3C2803",
"r+	c #443202",
"s+	c #4D470B",
"t+	c #2D3E00",
"u+	c #1E3F00",
"v+	c #2F5404",
"w+	c #255200",
"x+	c #2F650F",
"y+	c #438629",
"z+	c #479736",
"A+	c #409D35",
"B+	c #379F30",
"C+	c #2E9625",
"D+	c #3F9B36",
"E+	c #70B469",
"F+	c #A0CB93",
"G+	c #A0AF84",
"H+	c #716E43",
"I+	c #4B3C05",
"J+	c #402C00",
"K+	c #4A3700",
"L+	c #473300",
"M+	c #3F2E00",
"N+	c #3D2C01",
"O+	c #473213",
"P+	c #4F3819",
"Q+	c #4B3012",
"R+	c #3E2801",
"S+	c #3F3502",
"T+	c #282700",
"U+	c #262E00",
"V+	c #000C00",
"W+	c #001A00",
"X+	c #315610",
"Y+	c #629047",
"Z+	c #598F41",
"`+	c #518C3A",
" @	c #2B9A22",
".@	c #3FA13A",
"+@	c #579F56",
"@@	c #7FAD7E",
"#@	c #B2C5A5",
"$@	c #B6B596",
"%@	c #897E50",
"&@	c #635518",
"*@	c #3E3200",
"=@	c #403600",
"-@	c #443A00",
";@	c #443806",
">@	c #42300C",
",@	c #41290F",
"'@	c #482914",
")@	c #502E15",
"!@	c #492903",
"~@	c #5C3F13",
"{@	c #877243",
"]@	c #4D410F",
"^@	c #52501D",
"/@	c #747C43",
"(@	c #9FAE73",
"_@	c #849859",
":@	c #778D4D",
"<@	c #33A92E",
"[@	c #2E972E",
"}@	c #57A362",
"|@	c #699B78",
"1@	c #687E72",
"2@	c #A4A7A0",
"3@	c #D3CDB5",
"4@	c #B1A87D",
"5@	c #777334",
"6@	c #454500",
"7@	c #282900",
"8@	c #383300",
"9@	c #483A13",
"0@	c #452D13",
"a@	c #472613",
"b@	c #5B301F",
"c@	c #4F1C01",
"d@	c #814C2A",
"e@	c #BF916D",
"f@	c #825B34",
"g@	c #795A2E",
"h@	c #887243",
"i@	c #B2A271",
"j@	c #A39763",
"k@	c #A39C66",
"l@	c #27A31F",
"m@	c #329F32",
"n@	c #5EAE73",
"o@	c #6A9D8A",
"p@	c #5A707D",
"q@	c #83859A",
"r@	c #C0BBC1",
"s@	c #CCC7B4",
"t@	c #BFC094",
"u@	c #8F9557",
"v@	c #535919",
"w@	c #353600",
"x@	c #393103",
"y@	c #473312",
"z@	c #4C2913",
"A@	c #471D05",
"B@	c #915E3F",
"C@	c #B48059",
"D@	c #CE9A73",
"E@	c #84532A",
"F@	c #724317",
"G@	c #7D5323",
"H@	c #A88452",
"I@	c #BFA16B",
"J@	c #B59F66",
"K@	c #1D9C0D",
"L@	c #36A735",
"M@	c #59AA72",
"N@	c #6EA19C",
"O@	c #768CB1",
"P@	c #7D80B5",
"Q@	c #8883AB",
"R@	c #8F8D9B",
"S@	c #B5BAA6",
"T@	c #BBC499",
"U@	c #A9B47C",
"V@	c #788045",
"W@	c #46400C",
"X@	c #362300",
"Y@	c #52310E",
"Z@	c #6F4C26",
"`@	c #A28654",
" #	c #B59860",
".#	c #B6915A",
"+#	c #865B24",
"@#	c #7F4E16",
"##	c #7C4B11",
"$#	c #825619",
"%#	c #A3803E",
"&#	c #B19A54",
"*#	c #2DAB1B",
"=#	c #25941C",
"-#	c #5AAC6A",
";#	c #79AE9C",
">#	c #637D96",
",#	c #767EAF",
"'#	c #8181B3",
")#	c #4B4B6D",
"!#	c #ABB5B6",
"~#	c #83907E",
"{#	c #8A987E",
"]#	c #B4BE9B",
"^#	c #9E9D6F",
"/#	c #5C4E1D",
"(#	c #62471C",
"_#	c #A18256",
":#	c #B79E66",
"<#	c #B49C60",
"[#	c #98753B",
"}#	c #7B5117",
"|#	c #87561C",
"1#	c #88561B",
"2#	c #7F5113",
"3#	c #AD8746",
"4#	c #B69E58",
"5#	c #2B9C16",
"6#	c #369D27",
"7#	c #5AAA51",
"8#	c #86C086",
"9#	c #A2C2AD",
"0#	c #93A4AE",
"a#	c #6C7498",
"b#	c #4C5479",
"c#	c #A0B0BF",
"d#	c #7F919D",
"e#	c #66768F",
"f#	c #6E7884",
"g#	c #B9BEA0",
"h#	c #C1BB8B",
"i#	c #B7A178",
"j#	c #AA8A61",
"k#	c #BB9669",
"l#	c #BC9262",
"m#	c #875B2A",
"n#	c #805020",
"o#	c #82501F",
"p#	c #80501F",
"q#	c #734A14",
"r#	c #A18148",
"s#	c #B59D61",
"t#	c #38AB28",
"u#	c #339D21",
"v#	c #398E26",
"w#	c #5A9B49",
"x#	c #8DB785",
"y#	c #9DB8A7",
"z#	c #708193",
"A#	c #334460",
"B#	c #97AFBB",
"C#	c #7892A3",
"D#	c #6376A0",
"E#	c #72809B",
"F#	c #B8C1A6",
"G#	c #B4B17E",
"H#	c #B09D72",
"I#	c #C1A178",
"J#	c #BF966A",
"K#	c #C19264",
"L#	c #8C5D31",
"M#	c #7B4C1E",
"N#	c #794D1E",
"O#	c #7B5320",
"P#	c #71501D",
"Q#	c #998048",
"R#	c #B0A065",
"S#	c #27A51D",
"T#	c #30A523",
"U#	c #329521",
"V#	c #3A8A2B",
"W#	c #639B5A",
"X#	c #85AE8C",
"Y#	c #718F8D",
"Z#	c #415E64",
"`#	c #93B4AD",
" $	c #7B9B9A",
".$	c #587088",
"+$	c #657680",
"@$	c #B6C199",
"#$	c #C1BF84",
"$$	c #B4A36F",
"%$	c #BFA071",
"&$	c #BC9866",
"*$	c #C09865",
"=$	c #916938",
"-$	c #79511E",
";$	c #76521E",
">$	c #775A22",
",$	c #6D581F",
"'$	c #847A3C",
")$	c #9FA05E",
"!$	c #139E0F",
"~$	c #2BAE24",
"{$	c #3AAA2C",
"]$	c #369328",
"^$	c #458E3D",
"/$	c #659E67",
"($	c #6E9C80",
"_$	c #5E8975",
":$	c #87B495",
"<$	c #94BEA6",
"[$	c #759496",
"}$	c #6A8177",
"|$	c #AEBC87",
"1$	c #CACD86",
"2$	c #B6A86B",
"3$	c #AA945B",
"4$	c #B1975E",
"5$	c #B69961",
"6$	c #90733B",
"7$	c #70561D",
"8$	c #6D591E",
"9$	c #6D5F20",
"0$	c #605F1C",
"a$	c #67712A",
"b$	c #71873C",
"c$	c #18AE1B",
"d$	c #1FAE1E",
"e$	c #2F9D22",
"f$	c #429C3A",
"g$	c #57A154",
"h$	c #5B9C62",
"i$	c #56925F",
"j$	c #67A268",
"k$	c #9CD2A0",
"l$	c #9EC8B0",
"m$	c #94B695",
"n$	c #AFC680",
"o$	c #BFC875",
"p$	c #ADA75D",
"q$	c #AA9D59",
"r$	c #AB9D5C",
"s$	c #A7995A",
"t$	c #857A3A",
"u$	c #5F5814",
"v$	c #5D5D17",
"w$	c #5D651C",
"x$	c #576C1F",
"y$	c #567824",
"z$	c #55862D",
"A$	c #1BB424",
"B$	c #18AB1C",
"C$	c #1DA515",
"D$	c #2BA51F",
"E$	c #3AA233",
"F$	c #409B3C",
"G$	c #41933F",
"H$	c #428F3F",
"I$	c #448D3B",
"J$	c #6AAE65",
"K$	c #7FB786",
"L$	c #A0CC97",
"M$	c #B4D680",
"N$	c #BACF70",
"O$	c #A8AD59",
"P$	c #A8A95B",
"Q$	c #A7AE61",
"R$	c #96A155",
"S$	c #7B863A",
"T$	c #566417",
"U$	c #586D1E",
"V$	c #54741F",
"W$	c #5A862D",
"X$	c #579032",
"Y$	c #4E9633",
"Z$	c #15AC23",
"`$	c #19AC20",
" %	c #23AD1A",
".%	c #2AA91E",
"+%	c #2D9F26",
"@%	c #2E9528",
"#%	c #339429",
"$%	c #3B982E",
"%%	c #389028",
"&%	c #3C8D30",
"*%	c #468C44",
"=%	c #76B268",
"-%	c #93C360",
";%	c #B0D56C",
">%	c #A3BA5F",
",%	c #94A851",
"'%	c #8BA953",
")%	c #789C45",
"!%	c #6C9039",
"~%	c #517921",
"{%	c #59872D",
"]%	c #4E8728",
"^%	c #549835",
"/%	c #4A9D33",
"(%	c #379729",
"_%	c #1DAC2E",
":%	c #1EAB28",
"<%	c #1FA918",
"[%	c #23A416",
"}%	c #33A42E",
"|%	c #35A328",
"1%	c #3CA129",
"2%	c #3B9B2F",
"3%	c #398D35",
"4%	c #4F9940",
"5%	c #58972C",
"6%	c #90C456",
"7%	c #98C05F",
"8%	c #7EA749",
"9%	c #5E9635",
"0%	c #4F8D2A",
"a%	c #529231",
"b%	c #478925",
"c%	c #539B37",
"d%	c #3F9027",
"e%	c #3D992C",
"f%	c #2F9623",
"g%	c #31A42D",
"h%	c #21A434",
"i%	c #21A52B",
"j%	c #24A71D",
"k%	c #27A61B",
"l%	c #28A326",
"m%	c #2AA227",
"n%	c #2DA31B",
"o%	c #2EA219",
"p%	c #30A020",
"q%	c #309B27",
"r%	c #399B36",
"s%	c #3F9733",
"t%	c #419120",
"u%	c #4F9523",
"v%	c #5B952F",
"w%	c #508E2B",
"x%	c #46952C",
"y%	c #40982A",
"z%	c #40972C",
"A%	c #3F982A",
"B%	c #3C9A2C",
"C%	c #389C2A",
"D%	c #31A02A",
"E%	c #2BA328",
"F%	c #24A628",
". + @ # $ % & * = - ; > , ' ) ! ~ { ] ^ / ( _ : < ",
"[ } | 1 2 3 4 5 6 7 8 9 0 a b c d e f g h i j k l ",
"m n o p q r s t u v w x y z A B C D E F G H I J K ",
"L M N O P Q R S T U V W X Y Z `  ...+.@.#.$.%.&.*.",
"=.-.;.>.,.'.).!.~.{.].^./.(._.:.<.[.}.|.1.2.3.4.5.",
"6.7.8.9.0.a.b.c.d.e.f.g.h.i.j.k.l.m.n.o.p.q.r.s.t.",
"u.v.w.x.y.z.A.B.C.D.E.F.G.H.I.J.K.L.M.N.O.P.Q.R.S.",
"T.U.V.W.X.Y.Z.`. +.+++@+#+$+%+&+*+=+-+;+>+,+'+)+!+",
"~+{+]+^+/+(+_+:+<+[+}+|+1+2+3+4+5+6+7+8+9+0+a+b+c+",
"d+e+f+g+h+i+j+k+l+m+n+o+p+q+r+s+t+u+v+w+x+y+z+A+B+",
"C+D+E+F+G+H+I+J+K+L+M+N+O+P+Q+R+S+T+U+V+W+X+Y+Z+`+",
" @.@+@@@#@$@%@&@*@=@-@;@>@,@'@)@!@~@{@]@^@/@(@_@:@",
"<@[@}@|@1@2@3@4@5@6@7@8@9@0@a@b@c@d@e@f@g@h@i@j@k@",
"l@m@n@o@p@q@r@s@t@u@v@w@x@y@z@A@B@C@D@E@F@G@H@I@J@",
"K@L@M@N@O@P@Q@R@S@T@U@V@W@X@Y@Z@`@ #.#+#@###$#%#&#",
"*#=#-#;#>#,#'#)#!#~#{#]#^#/#(#_#:#<#[#}#|#1#2#3#4#",
"5#6#7#8#9#0#a#b#c#d#e#f#g#h#i#j#k#l#m#n#o#p#q#r#s#",
"t#u#v#w#x#y#z#A#B#C#D#E#F#G#H#I#J#K#L#M#N#O#P#Q#R#",
"S#T#U#V#W#X#Y#Z#`# $.$+$@$#$$$%$&$*$=$-$;$>$,$'$)$",
"!$~${$]$^$/$($_$:$<$[$}$|$1$2$3$4$5$6$7$8$9$0$a$b$",
"c$d$S#e$f$g$h$i$j$k$l$m$n$o$p$q$r$s$t$u$v$w$x$y$z$",
"A$B$C$D$E$F$G$H$I$J$K$L$M$N$O$P$Q$R$S$T$U$V$W$X$Y$",
"Z$`$ %.%+%@%#%$%%%&%*%=%-%;%>%,%'%)%!%~%{%]%^%/%(%",
"_%:%<%[%!+}%|%u#1%2%3%4%5%6%7%8%9%0%a%b%c%d%e%f%g%",
"h%i%j%k%l%m%n%o%p%q%r%s%t%u%v%w%x%y%z%A%B%C%D%E%F%"};
