/* XPM */
static char * vulkan_xpm[] = {
"32 24 120 2",
"  	c #969696",
". 	c #979192",
"+ 	c #9B787D",
"@ 	c #9E676F",
"# 	c #9F636C",
"$ 	c #9E656E",
"% 	c #9D7278",
"& 	c #9A8184",
"* 	c #978F90",
"= 	c #99878A",
"- 	c #A44150",
"; 	c #AB192E",
"> 	c #AC162C",
", 	c #AC172D",
"' 	c #A82E40",
") 	c #A15560",
"! 	c #998689",
"~ 	c #979393",
"{ 	c #A9273A",
"] 	c #A92236",
"^ 	c #9B767C",
"/ 	c #98888B",
"( 	c #978D8F",
"_ 	c #9F616A",
": 	c #AA1F33",
"< 	c #A34C59",
"[ 	c #988A8C",
"} 	c #998789",
"| 	c #A9293B",
"1 	c #988C8E",
"2 	c #A15964",
"3 	c #A63C4B",
"4 	c #AA2438",
"5 	c #9C7379",
"6 	c #969292",
"7 	c #9E646D",
"8 	c #A73344",
"9 	c #9C7278",
"0 	c #A92338",
"a 	c #A53C4C",
"b 	c #A15B64",
"c 	c #9A7C81",
"d 	c #AC182D",
"e 	c #9D7077",
"f 	c #AB1D31",
"g 	c #9B797D",
"h 	c #9D7076",
"i 	c #A73445",
"j 	c #A05A65",
"k 	c #A25660",
"l 	c #9A8083",
"m 	c #9C757B",
"n 	c #979495",
"o 	c #9D6B73",
"p 	c #A05C66",
"q 	c #9B7D82",
"r 	c #988E90",
"s 	c #979091",
"t 	c #988D8E",
"u 	c #A73646",
"v 	c #A44856",
"w 	c #A34755",
"x 	c #A54452",
"y 	c #A44653",
"z 	c #A15661",
"A 	c #9A767B",
"B 	c #988488",
"C 	c #A15C67",
"D 	c #9A7B7F",
"E 	c #A92538",
"F 	c #9A7B80",
"G 	c #A05D67",
"H 	c #A53A4B",
"I 	c #9F626B",
"J 	c #AB1A2F",
"K 	c #9B7A7F",
"L 	c #A24F5A",
"M 	c #A82D3F",
"N 	c #A1535E",
"O 	c #969394",
"P 	c #A05B65",
"Q 	c #9A7E82",
"R 	c #A53B4C",
"S 	c #AA2236",
"T 	c #9D6D74",
"U 	c #AA2135",
"V 	c #998487",
"W 	c #A44755",
"X 	c #A53F4E",
"Y 	c #998286",
"Z 	c #A34E5A",
"` 	c #A53E4C",
" .	c #9B757A",
"..	c #AB1B30",
"+.	c #969495",
"@.	c #A44351",
"#.	c #9B777D",
"$.	c #AC172C",
"%.	c #AB1C31",
"&.	c #979293",
"*.	c #A34A57",
"=.	c #A53C4B",
"-.	c #A05963",
";.	c #AB1F33",
">.	c #99898B",
",.	c #99888B",
"'.	c #969595",
").	c #A63547",
"!.	c #9B7B7F",
"~.	c #A5404F",
"{.	c #A63A4A",
"].	c #A83041",
"^.	c #978689",
"/.	c #9E6971",
"(.	c #9F666E",
"_.	c #A82F41",
":.	c #A73244",
"<.	c #A63647",
"[.	c #A1535F",
"}.	c #9B7C80",
"                                                                ",
"                                                                ",
"                                                                ",
"                                                                ",
"                                                                ",
"                                                                ",
"                                                                ",
"      . + @ # $ % & *                                           ",
"  = - ; > > > > > > , ' ) !                                     ",
"~ { > > ] ) ^ / ( = + _ - : < [                                 ",
"} > > | 1 2 3   ~ 4 5     6 7 8 9 0 *                           ",
"  a > b   c d 1 e f g &   h / i j k * l m n o p q r e ^ # s     ",
"  t u v     { $ w x y z   ] A > B C D E F G H I J K ; L M N     ",
"    O P Q   L R S T y z   U A > V > W X   Y Z ` >  ...+.z @.    ",
"        ~   #.$.%.&.*.x ! $.A > V > } U T =.-.! >  .;.  -.@.>.,.",
"            '.).L   !.M ~.{.q ].^.].. /.R (._.w :.^ <.  $ [.}.K ",
"                                                                ",
"                                                                ",
"                                                                ",
"                                                                ",
"                                                                ",
"                                                                ",
"                                                                ",
"                                                                "};
